<?xml version="1.0" encoding="UTF-8"?>
<svg version="1.1" xmlns="http://www.w3.org/2000/svg" width="540" height="462">
<path d="M0 0 C1.5871542 -0.02099001 3.17502277 -0.00446783 4.76171875 0.0390625 C5.63948975 0.05018066 6.51726074 0.06129883 7.42163086 0.07275391 C17.50826073 0.38501279 27.51473885 1.73558368 37.51171875 3.0390625 C38.36657867 3.14966003 39.2214386 3.26025757 40.10220337 3.37420654 C42.56445152 3.69756277 45.02460168 4.0333701 47.484375 4.375 C48.60039093 4.52364502 48.60039093 4.52364502 49.73895264 4.67529297 C53.2957809 5.18776554 56.40292297 5.6890072 59.44921875 7.6640625 C63.29048524 13.13253216 64.43476137 20.24036184 65.94482422 26.63916016 C67.12774584 31.59300792 68.63353376 36.30068864 70.51953125 41.0390625 C71.75628209 44.53106487 72.58670978 48.06137018 73.44921875 51.6640625 C74.91488281 51.70273438 74.91488281 51.70273438 76.41015625 51.7421875 C87.45037077 52.13750598 98.36457424 53.27191297 109.32421875 54.6015625 C110.06792725 54.69157532 110.81163574 54.78158813 111.57788086 54.87432861 C113.07182238 55.05518056 114.5657596 55.23606805 116.05969238 55.41699219 C116.78636108 55.5049707 117.51302979 55.59294922 118.26171875 55.68359375 C119.33867004 55.81411133 119.33867004 55.81411133 120.43737793 55.94726562 C131.61345581 57.29504332 142.80039625 58.35670694 154.03125 59.12109375 C155.795896 59.24170166 155.795896 59.24170166 157.59619141 59.36474609 C159.82329167 59.51371087 162.05079914 59.65681926 164.27880859 59.79150391 C171.97570138 60.2953637 179.60049674 61.13093593 187.2578125 62.046875 C197.35783629 63.24798531 207.46510032 64.25465498 217.59765625 65.12890625 C218.2912537 65.18880234 218.98485115 65.24869843 219.69946671 65.31040955 C223.27284862 65.61814735 226.84645722 65.92315803 230.42019653 66.22671509 C237.91652999 66.86378819 245.41169989 67.51417186 252.90625 68.171875 C253.63713522 68.23600649 254.36802044 68.30013798 255.1210537 68.36621284 C267.65692919 69.47033724 280.16364794 70.7608529 292.66204834 72.22918701 C300.97026974 73.2040384 309.2095471 73.99801889 317.56884766 74.30419922 C328.15904214 74.73304031 338.68669846 76.12656889 349.21386719 77.30419922 C362.77310642 78.81237298 376.35601738 80.01067944 389.94921875 81.1640625 C435.42060006 85.02989744 435.42060006 85.02989744 439.13671875 88.0234375 C441.49140031 90.96678945 441.63246095 94.04364093 441.44921875 97.6640625 C439.94690774 104.74003626 437.49089833 111.57653109 435.19140625 118.42578125 C432.41841263 126.71433288 429.72447459 135.02803953 427.03198242 143.34301758 C423.05137462 155.63260444 419.0572217 167.91637826 414.94921875 180.1640625 C411.51175847 190.4194733 408.14322227 200.69636414 404.80053711 210.98297119 C403.95621117 213.58005433 403.11002301 216.17652546 402.26367188 218.77294922 C399.72268755 226.57963492 397.20887849 234.39191381 394.79296875 242.23828125 C394.38897117 243.53858587 393.98468391 244.83880052 393.58007812 246.13891602 C392.85051933 248.49375919 392.13221458 250.85213266 391.42773438 253.21459961 C387.97386561 264.31472025 387.97386561 264.31472025 383.44921875 267.6640625 C378.39840685 268.81857892 373.35227354 269.15538056 368.19921875 269.4765625 C366.82402312 269.58278339 365.44901708 269.69148941 364.07421875 269.80273438 C358.46640948 270.24259182 352.85449482 270.5927513 347.23754883 270.89257812 C337.78892376 271.40002139 328.42196811 272.23573095 319.01782227 273.27709961 C303.8463627 274.94622461 288.68097266 276.20131987 273.44921875 277.1640625 C259.12230486 278.07220299 244.85056631 279.21423976 230.57421875 280.7265625 C229.7569632 280.81306061 228.93970764 280.89955872 228.09768677 280.98867798 C224.23580911 281.39881586 220.3743983 281.81316523 216.51318359 282.22949219 C203.33421011 283.64554513 190.19984578 284.75449737 176.9543457 285.26806641 C165.76184824 285.72416495 154.60773881 286.70221767 143.44921875 287.6640625 C144.21542392 290.4987188 144.98704211 293.33172039 145.76171875 296.1640625 C145.97505859 296.95554687 146.18839844 297.74703125 146.40820312 298.5625 C146.62412109 299.34882813 146.84003906 300.13515625 147.0625 300.9453125 C147.25626221 301.65751953 147.45002441 302.36972656 147.6496582 303.10351562 C148.36109295 305.38184467 149.15634192 307.5920612 149.99919128 309.82409668 C150.270414 310.54349174 150.54163671 311.26288681 150.8210783 312.00408173 C151.02836465 312.55187538 151.235651 313.09966904 151.44921875 313.6640625 C152.53720103 313.66460727 153.62518332 313.66515203 154.74613476 313.66571331 C181.20226337 313.68009989 207.65822728 313.72307984 234.11426067 313.79615307 C246.9081431 313.83082655 259.70191752 313.85616169 272.49584961 313.85961914 C283.64525184 313.86265574 294.79446183 313.88310539 305.94378978 313.92458707 C311.84894896 313.94594619 317.75383464 313.95850262 323.65903282 313.95021629 C329.21509893 313.94269476 334.77061 313.95842207 340.32657433 313.99212265 C342.36756759 314.00037878 344.40861581 314.00007911 346.44960403 313.99065971 C349.23359651 313.97908146 352.01575666 313.99808887 354.79960632 314.02482605 C355.60992315 314.01415279 356.42023999 314.00347953 357.25511187 313.99248284 C361.39483179 314.0668142 363.19798214 314.45506128 366.42731953 317.14151478 C367.42815964 318.3901759 367.42815964 318.3901759 368.44921875 319.6640625 C368.77921875 319.9940625 369.10921875 320.3240625 369.44921875 320.6640625 C370.03713383 327.83662646 370.03713383 327.83662646 367.76171875 331.0390625 C362.57727572 334.68218463 357.85544133 334.95315457 351.65689087 334.92475891 C350.77142684 334.92858446 349.88596282 334.93241001 348.97366655 334.93635148 C346.00663528 334.94667019 343.03979793 334.94269144 340.07275391 334.9387207 C337.94546835 334.94306781 335.81818436 334.94825096 333.69090271 334.95420837 C327.91196985 334.96761011 322.13310234 334.9681757 316.35415697 334.96564507 C311.5305384 334.9645761 306.70693309 334.96945689 301.88331735 334.9742505 C290.50358171 334.98534988 279.12387907 334.98578074 267.74414062 334.97973633 C256.00336728 334.97369604 244.26271376 334.98600803 232.52196085 335.0073064 C222.4428454 335.02491837 212.36376809 335.03092436 202.28463781 335.02766865 C196.26439811 335.02585492 190.24424387 335.02850103 184.2240181 335.04238319 C178.5621551 335.05495016 172.90047895 335.05302802 167.23861885 335.03997231 C165.16135533 335.03760447 163.08407871 335.04034859 161.00683022 335.04859543 C158.16950766 335.05904698 155.33281389 335.05097481 152.49551392 335.0382843 C151.26471098 335.04934573 151.26471098 335.04934573 150.00904334 335.06063062 C144.77224557 335.01141096 141.0753518 334.18447963 136.44921875 331.6640625 C134.99201844 329.18142494 134.25299195 327.37446051 133.44921875 324.6640625 C133.145 323.71015625 132.84078125 322.75625 132.52734375 321.7734375 C131.47183382 318.41204432 130.45983041 315.03919687 129.44921875 311.6640625 C128.84610576 309.72623425 128.2419245 307.78873818 127.63671875 305.8515625 C125.75532988 299.7461994 123.97670257 293.61287879 122.19921875 287.4765625 C119.31240794 277.51446661 116.29390069 267.59751133 113.22412109 257.69042969 C111.20930885 251.17557425 109.28095105 244.64953806 107.4453125 238.08203125 C106.17076296 233.70857694 104.7773707 229.37673278 103.38671875 225.0390625 C101.45974419 219.02154459 99.7449221 213.02579144 98.2890625 206.875 C96.95742775 201.78381971 95.31480414 196.79427872 93.70874023 191.78417969 C91.87978363 186.06749037 90.18882466 180.32590254 88.56640625 174.546875 C87.16186856 169.6059591 85.64154253 164.70014454 84.13671875 159.7890625 C80.73729781 148.68251545 77.47406673 137.53893269 74.23828125 126.38378906 C71.12877452 115.66599667 67.95864781 104.97859451 64.5625 94.34765625 C63.79469933 91.80717896 63.09984674 89.31537062 62.4765625 86.7421875 C61.42101986 82.41712636 60.0737861 78.20915009 58.69921875 73.9765625 C53.4821067 57.67771815 49.00079302 41.15848431 44.44921875 24.6640625 C40.97030793 24.20377442 37.49104175 23.74622366 34.01171875 23.2890625 C32.96870605 23.15113281 31.92569336 23.01320313 30.85107422 22.87109375 C25.30766659 22.14408947 19.76569666 21.47035934 14.20507812 20.890625 C7.64347289 20.19296578 1.50734688 19.42741919 -4.55078125 16.6640625 C-6.8887939 12.99763357 -6.92867407 9.97204069 -6.55078125 5.6640625 C-5.04339415 1.6188479 -4.31873402 0.80768403 0 0 Z M79.44921875 71.6640625 C79.57110625 73.23894736 79.7033614 74.81303154 79.83984375 76.38671875 C79.91235352 77.26336182 79.98486328 78.14000488 80.05957031 79.04321289 C80.44719616 81.6504582 81.13636778 83.69981774 82.19921875 86.1015625 C84.32257734 90.97143927 85.64713773 95.90421478 86.94921875 101.0390625 C88.27970357 106.26693726 89.62016464 111.43731286 91.38671875 116.5390625 C93.18059934 121.72059009 94.70950634 126.95164415 96.19921875 132.2265625 C100.91588397 148.91070477 105.86347096 165.52638393 110.94921875 182.1015625 C113.44424563 190.24134156 115.81876836 198.40970168 118.13671875 206.6015625 C121.58551753 218.78203734 125.18443808 230.91451317 128.82421875 243.0390625 C129.08915131 243.92262421 129.35408386 244.80618591 129.62704468 245.71652222 C130.38680272 248.24890149 131.14810898 250.78080876 131.91015625 253.3125 C132.13692551 254.06760361 132.36369476 254.82270721 132.59733582 255.60069275 C133.01716978 256.99191925 133.44028178 258.38216269 133.86737061 259.7711792 C134.4149381 261.55253982 134.94936885 263.33792336 135.48291016 265.12353516 C136.17651996 267.80979969 136.17651996 267.80979969 138.44921875 268.6640625 C158.16523526 269.99288493 178.47221501 267.03742926 198.03686523 264.91308594 C210.55189668 263.58940437 223.09165003 262.59387926 235.63671875 261.6015625 C236.72724548 261.51524567 237.81777222 261.42892883 238.94134521 261.33999634 C249.03772155 260.54293379 259.13505936 259.75894049 269.234375 259 C270.44649658 258.90855713 271.65861816 258.81711426 272.9074707 258.72290039 C275.01125395 258.56546382 277.11524277 258.41073554 279.21948242 258.25952148 C282.64641114 258.00582333 286.00441919 257.73898232 289.39453125 257.16796875 C294.09443042 256.39266569 298.82558182 256.12983889 303.57421875 255.7890625 C315.52748196 254.90328284 327.47120461 253.92513508 339.41387939 252.90753174 C340.89305832 252.78151428 342.37230592 252.65630021 343.85162354 252.53192139 C345.28791266 252.41006104 346.72392028 252.28483116 348.15960693 252.15606689 C351.68602365 251.84892113 355.1853206 251.62677993 358.72509766 251.56298828 C359.40820511 251.54277115 360.09131256 251.52255402 360.79512024 251.50172424 C362.65829922 251.45246909 364.52222535 251.43424389 366.38598633 251.41821289 C369.71329856 250.92321791 369.71329856 250.92321791 371.79345703 247.80957031 C373.44644341 244.66933491 374.54949007 241.76310053 375.51171875 238.3515625 C375.84300781 237.21332031 376.17429687 236.07507813 376.515625 234.90234375 C376.82371094 233.83371094 377.13179688 232.76507813 377.44921875 231.6640625 C383.46549782 212.64778343 383.46549782 212.64778343 385.44921875 210.6640625 C385.77109913 209.18801902 386.05144383 207.70284946 386.3125 206.21484375 C387.3325764 200.9170276 388.87172078 195.94237422 390.63671875 190.8515625 C391.26059344 189.01698719 391.88428582 187.18234987 392.5078125 185.34765625 C392.98710205 183.94749268 392.98710205 183.94749268 393.47607422 182.51904297 C395.07579692 177.8258274 396.6358099 173.11947186 398.19921875 168.4140625 C398.75631891 166.74212368 399.31360281 165.07024606 399.87109375 163.3984375 C400.13792969 162.59728516 400.40476562 161.79613281 400.6796875 160.97070312 C401.15987126 159.5313706 401.64140982 158.09248848 402.125 156.65429688 C404.80099109 148.67984344 407.36576544 140.6688405 409.94921875 132.6640625 C410.68100777 130.39662897 411.4129318 128.12923994 412.14550781 125.86206055 C412.61432425 124.41063194 413.0824372 122.9589759 413.54980469 121.50708008 C414.75463701 117.77253958 416.00128498 114.056815 417.29296875 110.3515625 C418.64868256 106.67202252 418.64868256 106.67202252 418.44921875 102.6640625 C417.79026611 102.6139502 417.13131348 102.56383789 416.45239258 102.51220703 C413.38841896 102.27624923 410.32509266 102.03267799 407.26171875 101.7890625 C405.70807617 101.67111328 405.70807617 101.67111328 404.12304688 101.55078125 C398.85252991 101.12652911 393.67114819 100.57074962 388.45703125 99.6875 C379.20389855 98.19839443 369.85581597 97.75949957 360.51171875 97.1640625 C349.74790068 96.47682902 339.07619505 95.77815719 328.41088867 94.12353516 C324.31072105 93.48743628 320.20085297 93.02608696 316.07421875 92.6015625 C315.28184814 92.51849854 314.48947754 92.43543457 313.6730957 92.34985352 C307.07915959 91.68065553 300.48576991 91.24622935 293.8671875 90.91015625 C290.44921875 90.6640625 290.44921875 90.6640625 287.61889648 90.17993164 C284.50860299 89.67372736 281.45899318 89.38380324 278.31640625 89.1640625 C276.61291016 89.0403125 276.61291016 89.0403125 274.875 88.9140625 C272.50003847 88.74684849 270.1250381 88.58018538 267.75 88.4140625 C266.61691406 88.3315625 265.48382813 88.2490625 264.31640625 88.1640625 C263.28628418 88.091875 262.25616211 88.0196875 261.19482422 87.9453125 C258.44921875 87.6640625 258.44921875 87.6640625 256.56530762 87.17454529 C254.30654093 86.62964307 252.16209475 86.39799337 249.84619141 86.21508789 C248.9364859 86.1415358 248.0267804 86.0679837 247.08950806 85.99220276 C246.10735321 85.91614304 245.12519836 85.84008331 244.11328125 85.76171875 C243.08351166 85.67909286 242.05374207 85.59646698 240.99276733 85.51133728 C237.68682779 85.24658115 234.38055353 84.98633216 231.07421875 84.7265625 C208.12803635 82.90803618 185.2217578 80.87961163 162.32775879 78.4901123 C146.77962354 76.86971864 131.24268558 75.25590591 115.64355469 74.20898438 C114.73895508 74.14775391 113.83435547 74.08652344 112.90234375 74.0234375 C112.15114258 73.97670898 111.39994141 73.92998047 110.62597656 73.88183594 C108.44921875 73.6640625 108.44921875 73.6640625 106.02954102 73.16137695 C103.2286377 72.62154915 100.56072387 72.45433275 97.7109375 72.34765625 C96.64423828 72.30576172 95.57753906 72.26386719 94.47851562 72.22070312 C93.37572266 72.18138672 92.27292969 72.14207031 91.13671875 72.1015625 C89.45352539 72.03678711 89.45352539 72.03678711 87.73632812 71.97070312 C84.97407306 71.86491463 82.21173245 71.76282578 79.44921875 71.6640625 Z " fill="#C61741" transform="translate(52.55078125,25.3359375)"/>
<path d="M0 0 C1.0828125 0.27457031 1.0828125 0.27457031 2.1875 0.5546875 C18.59039361 5.29981029 31.83328908 17.24261008 40 32 C47.51636147 47.23254441 49.49595576 64.29293541 45.109375 80.8046875 C41.39113291 91.51427212 35.73182197 102.51558117 27 110 C26.34 110 25.68 110 25 110 C25 110.66 25 111.32 25 112 C16.43537847 118.79957504 7.7874444 123.70322269 -3 126 C-3.6909375 126.14824219 -4.381875 126.29648437 -5.09375 126.44921875 C-7.07725102 126.77279837 -8.99137647 126.91437484 -11 127 C-12.02480469 127.0515625 -13.04960937 127.103125 -14.10546875 127.15625 C-31.87230817 127.62950654 -48.0485302 122.57829789 -61.5234375 110.79296875 C-74.66453697 97.97930531 -81.81883147 82.68791125 -82.22802734 64.32763672 C-82.37942092 47.85937977 -78.1972641 34.27956055 -68 21 C-67.34 21 -66.68 21 -66 21 C-65.773125 20.21625 -65.54625 19.4325 -65.3125 18.625 C-63.66562962 15.33125925 -62.35641647 15.20486745 -59 14 C-58.67 13.01 -58.34 12.02 -58 11 C-55 9 -55 9 -52 9 C-52 8.34 -52 7.68 -52 7 C-36.44305714 -2.50702064 -17.65961175 -4.84412961 0 0 Z M-59.8828125 28.02734375 C-69.56672843 39.61869766 -73.30129104 54.12574921 -72 69 C-69.09349999 85.69061981 -61.5440435 97.916832 -47.9375 107.8125 C-34.7130195 116.69612049 -18.87851256 118.14455308 -3.38671875 115.34765625 C6.34470172 112.34444967 16.02652183 107.40020368 22 99 C22.66 98.38125 23.32 97.7625 24 97.125 C33.45944103 87.0743439 36.76817418 73.5299616 36.59350586 60.07373047 C36.1245888 49.7365746 33.33626917 39.66283964 26.4296875 31.7109375 C25 30 25 30 23.58984375 27.53125 C17.77160678 18.26781619 4.5611944 11.58738574 -5.875 9.0625 C-7.24887663 9.00315328 -8.62487346 8.99072427 -10 9 C-11.22847656 8.96390625 -12.45695312 8.9278125 -13.72265625 8.890625 C-32.43382343 8.45952252 -47.01646745 14.17333321 -59.8828125 28.02734375 Z " fill="#C51D46" transform="translate(324,136)"/>
<path d="M0 0 C9.41897914 4.84404641 13.92001808 11.38505423 17.25 21.375 C17.97268362 29.61359331 15.67544291 36.68284498 10.5 43.1875 C5.19935393 48.67158651 -0.00609495 51.96975577 -7.75341797 52.12060547 C-8.55666504 52.10143066 -9.35991211 52.08225586 -10.1875 52.0625 C-11.0242627 52.05105957 -11.86102539 52.03961914 -12.72314453 52.02783203 C-20.54306604 51.70855803 -24.93595694 49.34122433 -30.31640625 43.74609375 C-36.30734316 36.93588342 -36.64386751 31.21294174 -36.75 22.375 C-36.29366208 15.51979043 -33.6320475 10.24378107 -28.75 5.375 C-28.09 5.375 -27.43 5.375 -26.75 5.375 C-26.75 4.715 -26.75 4.055 -26.75 3.375 C-25.480447 2.72665346 -24.20930294 2.08142185 -22.9375 1.4375 C-22.22980469 1.07785156 -21.52210938 0.71820313 -20.79296875 0.34765625 C-14.24158189 -2.77145527 -6.68947959 -2.77004223 0 0 Z " fill="#C7143F" transform="translate(241.75,384.625)"/>
<path d="M0 0 C5.97175757 4.10170892 10.11214723 8.48785479 12.2578125 15.55078125 C12.53789631 18.3186683 12.68026166 20.79872983 12.6328125 23.55078125 C12.64441406 24.22367187 12.65601563 24.8965625 12.66796875 25.58984375 C12.63133676 31.91496771 11.09534534 36.52478351 6.8203125 41.23828125 C5.9746875 42.00140625 5.1290625 42.76453125 4.2578125 43.55078125 C3.5771875 44.27265625 2.8965625 44.99453125 2.1953125 45.73828125 C-2.60331363 50.2273186 -7.36413028 49.91675808 -13.6171875 49.92578125 C-14.50277344 49.95027344 -15.38835937 49.97476563 -16.30078125 50 C-22.00919156 50.02552195 -25.1875871 49.2987654 -29.7421875 45.55078125 C-30.7528125 44.87015625 -31.7634375 44.18953125 -32.8046875 43.48828125 C-37.78225205 39.1805209 -40.19560415 32.93166376 -41.2265625 26.5546875 C-41.58447005 18.90938456 -39.39834983 13.18410433 -35.7421875 6.55078125 C-35.0821875 6.55078125 -34.4221875 6.55078125 -33.7421875 6.55078125 C-33.4121875 5.56078125 -33.0821875 4.57078125 -32.7421875 3.55078125 C-23.56111469 -4.97269406 -10.8046591 -6.16664627 0 0 Z " fill="#C81540" transform="translate(390.7421875,386.44921875)"/>
<path d="M0 0 C1.0828125 0.27457031 1.0828125 0.27457031 2.1875 0.5546875 C10.1622303 2.86166305 17.1404638 7.42697587 24 12 C23.67 12.66 23.34 13.32 23 14 C22.01 13.67 21.02 13.34 20 13 C19.505 12.01 19.505 12.01 19 11 C16.97536745 10.34786708 16.97536745 10.34786708 15 10 C14.67 11.32 14.34 12.64 14 14 C13.01 13.67 12.02 13.34 11 13 C11 13.66 11 14.32 11 15 C12.65 15.33 14.3 15.66 16 16 C16 16.66 16 17.32 16 18 C16.99 18 17.98 18 19 18 C19 19.65 19 21.3 19 23 C18.32195312 22.55269531 17.64390625 22.10539062 16.9453125 21.64453125 C4.43588741 13.20083397 4.43588741 13.20083397 -10 10 C-11.85044922 9.94199219 -11.85044922 9.94199219 -13.73828125 9.8828125 C-30.34119848 9.52643428 -42.87306114 13.6582154 -55.5546875 24.5703125 C-57.23927392 26.14068161 -57.23927392 26.14068161 -59 29 C-59.66 29 -60.32 29 -61 29 C-61.2475 29.680625 -61.495 30.36125 -61.75 31.0625 C-63.24325594 34.57165146 -65.08122874 37.7021119 -67 41 C-67.6802367 42.32646156 -68.35492261 43.65608877 -69 45 C-68.67 42.36 -68.34 39.72 -68 37 C-69.32 36.67 -70.64 36.34 -72 36 C-72.66 38.31 -73.32 40.62 -74 43 C-74.99 43 -75.98 43 -77 43 C-77.33 44.32 -77.66 45.64 -78 47 C-78.66 47 -79.32 47 -80 47 C-80 57.23 -80 67.46 -80 78 C-80.33 78 -80.66 78 -81 78 C-84.43017426 57.28174745 -80.72757325 40.73883565 -69.55078125 23.01953125 C-69.03902344 22.35308594 -68.52726563 21.68664062 -68 21 C-67.34 21 -66.68 21 -66 21 C-65.773125 20.21625 -65.54625 19.4325 -65.3125 18.625 C-63.66562962 15.33125925 -62.35641647 15.20486745 -59 14 C-58.67 13.01 -58.34 12.02 -58 11 C-55 9 -55 9 -52 9 C-52 8.34 -52 7.68 -52 7 C-36.44305714 -2.50702064 -17.65961175 -4.84412961 0 0 Z " fill="#C41942" transform="translate(324,136)"/>
<path d="M0 0 C3.1875 1.9375 3.1875 1.9375 6 4 C6.886875 4.639375 7.77375 5.27875 8.6875 5.9375 C11.18675196 8.16656256 12.65314036 9.93215304 14 13 C13.9375 15.6875 13.9375 15.6875 13 18 C10.75291312 19.76556826 9.40959357 20 6.5625 20 C2.9099391 18.57461038 1.38184854 16.05365198 -1 13 C-4.73854139 9.5106947 -9.02200826 8.1034403 -14.13671875 7.92578125 C-20.20409421 8.29638883 -25.15519087 10.3373243 -30 14 C-31.69712506 15.94348192 -32.77336545 17.70672671 -34 20 C-40.39559286 19.39664218 -40.39559286 19.39664218 -43 17.6875 C-44 16 -44 16 -43.75390625 14.140625 C-41.31788394 7.22383626 -34.39880219 2.0857775 -28 -1 C-18.94096121 -4.58089605 -8.70572813 -4.35286407 0 0 Z " fill="#C61E46" transform="translate(321,215)"/>
<path d="M0 0 C1.47127305 1.94587727 2.92655144 3.89491872 4.32421875 5.89453125 C12.17371174 16.93780076 22.13540525 23.1767871 35 27 C35.99 27.33 36.98 27.66 38 28 C40.73289293 28.22797562 43.45042204 28.41668187 46.1875 28.5625 C46.93708984 28.60568359 47.68667969 28.64886719 48.45898438 28.69335938 C50.30578375 28.79922685 52.15286834 28.9000976 54 29 C54 29.33 54 29.66 54 30 C47.07 30 40.14 30 33 30 C32.34 31.98 31.68 33.96 31 36 C31.99 36.33 32.98 36.66 34 37 C28.73800318 38.75399894 23.93340135 36.10769729 19 34 C9.54803862 28.78026013 0.08517983 21.75718879 -5 12 C-4.9375 9.3125 -4.9375 9.3125 -4 7 C-1.9375 5.6875 -1.9375 5.6875 0 5 C0 3.35 0 1.7 0 0 Z " fill="#C72B51" transform="translate(258,223)"/>
<path d="M0 0 C0.33 0.99 0.66 1.98 1 3 C1.99 3.33 2.98 3.66 4 4 C4 4.66 4 5.32 4 6 C6.475 6.99 6.475 6.99 9 8 C7.68 8.33 6.36 8.66 5 9 C5.27714844 9.61488281 5.55429688 10.22976563 5.83984375 10.86328125 C6.20207031 11.67152344 6.56429687 12.47976563 6.9375 13.3125 C7.29714844 14.11300781 7.65679687 14.91351563 8.02734375 15.73828125 C9 18 9 18 10 21 C82.6 21 155.2 21 230 21 C230 21.66 230 22.32 230 23 C201.82762727 23.07006635 173.65526758 23.12297658 145.48282528 23.15543652 C132.4020134 23.1709085 119.32125565 23.19200445 106.24047852 23.22631836 C94.83990889 23.25621045 83.43937846 23.27557259 72.03877074 23.28226548 C66.00167302 23.28617804 59.96468745 23.29538017 53.92762566 23.31719017 C48.245331 23.33755219 42.56319468 23.34383431 36.880867 23.33932304 C34.79553683 23.34014836 32.71020135 23.34611561 30.62490273 23.35761642 C27.77638781 23.37255591 24.9284697 23.36894813 22.0799408 23.36076355 C21.25599491 23.36950207 20.43204902 23.3782406 19.58313507 23.38724393 C14.33552045 23.34652767 10.62783313 22.54489972 6 20 C4.6088533 17.51580946 3.81147546 15.65898564 3 13 C2.72285156 12.23558594 2.44570312 11.47117187 2.16015625 10.68359375 C0.78333807 6.83230973 0 4.16123821 0 0 Z " fill="#CD6D85" transform="translate(183,337)"/>
<path d="M0 0 C0.66 0 1.32 0 2 0 C2.625 1.8125 2.625 1.8125 3 4 C2.34 4.99 1.68 5.98 1 7 C2.98 7.66 4.96 8.32 7 9 C6.319375 9.53625 5.63875 10.0725 4.9375 10.625 C2.71457454 12.42225888 0.50232519 14.22542907 -1.6875 16.0625 C-2.55955078 16.79146484 -2.55955078 16.79146484 -3.44921875 17.53515625 C-5.23963241 19.1168153 -5.23963241 19.1168153 -7 22 C-7.66 22 -8.32 22 -9 22 C-9.2475 22.680625 -9.495 23.36125 -9.75 24.0625 C-11.24325594 27.57165146 -13.08122874 30.7021119 -15 34 C-15.6802367 35.32646156 -16.35492261 36.65608877 -17 38 C-16.67 35.36 -16.34 32.72 -16 30 C-17.32 29.67 -18.64 29.34 -20 29 C-20.99 32.465 -20.99 32.465 -22 36 C-22.99 36 -23.98 36 -25 36 C-25.33 37.32 -25.66 38.64 -26 40 C-26.66 40 -27.32 40 -28 40 C-28 50.23 -28 60.46 -28 71 C-28.33 71 -28.66 71 -29 71 C-32.43017426 50.28174745 -28.72757325 33.73883565 -17.55078125 16.01953125 C-16.78314453 15.01986328 -16.78314453 15.01986328 -16 14 C-15.34 14 -14.68 14 -14 14 C-13.6596875 12.824375 -13.6596875 12.824375 -13.3125 11.625 C-11.66562962 8.33125925 -10.35641647 8.20486745 -7 7 C-6.67 6.01 -6.34 5.02 -6 4 C-3 2 -3 2 0 2 C0 1.34 0 0.68 0 0 Z " fill="#C8375C" transform="translate(272,143)"/>
<path d="M0 0 C0.73046875 2.06640625 0.73046875 2.06640625 1.1875 4.5625 C1.34605469 5.38878906 1.50460937 6.21507812 1.66796875 7.06640625 C1.77753906 7.70449219 1.88710938 8.34257812 2 9 C-7.41002278 13.40774487 -7.41002278 13.40774487 -12 14 C-12 14.66 -12 15.32 -12 16 C-14.85548517 18.71559108 -17.81968476 20.75295728 -21.6875 21.5625 C-24.86969648 20.78845221 -26.12511087 19.66811145 -28 17 C-28.0625 14.375 -28.0625 14.375 -27 12 C-24.4375 10.6875 -24.4375 10.6875 -22 10 C-22 9.34 -22 8.68 -22 8 C-19.96168152 6.86894494 -17.91918624 5.74541528 -15.875 4.625 C-14.73804688 3.99851563 -13.60109375 3.37203125 -12.4296875 2.7265625 C-4.21960073 -1.40653358 -4.21960073 -1.40653358 0 0 Z " fill="#C92A51" transform="translate(294,163)"/>
<path d="M0 0 C8.28397934 0.16567959 14.87497274 4.16729573 22 8 C22 8.66 22 9.32 22 10 C22.804375 10.2475 23.60875 10.495 24.4375 10.75 C27 12 27 12 27.875 14 C28 16 28 16 27 18 C26.34 18 25.68 18 25 18 C24.67 18.99 24.34 19.98 24 21 C21.69 20.67 19.38 20.34 17 20 C17 19.34 17 18.68 17 18 C16.319375 17.7525 15.63875 17.505 14.9375 17.25 C12.09453794 16.04022891 9.50914552 14.58132825 6.84765625 13.01953125 C3.98892089 11.44208954 1.02137438 10.23321403 -2 9 C-1.34 6.03 -0.68 3.06 0 0 Z " fill="#C4264C" transform="translate(319,163)"/>
<path d="M0 0 C0.763125 0.11085937 1.52625 0.22171875 2.3125 0.3359375 C2.869375 0.43132812 3.42625 0.52671875 4 0.625 C3.8125 3.4375 3.8125 3.4375 3 6.625 C-3.22212048 11.93210276 -13.50043014 10.99311014 -21.25 11.375 C-22.33796875 11.44332031 -23.4259375 11.51164062 -24.546875 11.58203125 C-25.5884375 11.63230469 -26.63 11.68257813 -27.703125 11.734375 C-28.64833008 11.78561523 -29.59353516 11.83685547 -30.56738281 11.88964844 C-33 11.625 -33 11.625 -34.83105469 10.11816406 C-35.21680664 9.62541992 -35.60255859 9.13267578 -36 8.625 C-35.34 6.645 -34.68 4.665 -34 2.625 C-33.40574219 2.60518066 -32.81148438 2.58536133 -32.19921875 2.56494141 C-29.46575581 2.46876007 -26.73296197 2.35946443 -24 2.25 C-22.59814453 2.20359375 -22.59814453 2.20359375 -21.16796875 2.15625 C-16.84625844 1.9749195 -12.80962657 1.69813056 -8.625 0.5625 C-5.32671597 -0.29050449 -3.30759624 -0.51681191 0 0 Z " fill="#C41841" transform="translate(325,250.375)"/>
<path d="M0 0 C0 3 0 3 -1 6 C-1.66 6.66 -2.32 7.32 -3 8 C-3 8.99 -3 9.98 -3 11 C-3 11.66 -3 12.32 -3 13 C-2.01 13.33 -1.02 13.66 0 14 C0.185625 12.576875 0.185625 12.576875 0.375 11.125 C1 8 1 8 3 6 C5.625 6.375 5.625 6.375 8 7 C7.34 8.32 6.68 9.64 6 11 C5.34 11 4.68 11 4 11 C4 11.66 4 12.32 4 13 C-4.56462153 19.79957504 -13.2125556 24.70322269 -24 27 C-25.03640625 27.22236328 -25.03640625 27.22236328 -26.09375 27.44921875 C-33.1028484 28.59265217 -43.03512828 29.97658115 -49 26 C-48.44127197 25.98018066 -47.88254395 25.96036133 -47.30688477 25.93994141 C-44.72502582 25.8434781 -42.14384608 25.73430188 -39.5625 25.625 C-38.68400391 25.5940625 -37.80550781 25.563125 -36.90039062 25.53125 C-30.54789883 25.24995885 -23.77915322 24.88957661 -18 22 C-17.27306096 20.02111039 -16.60183749 18.02045442 -16 16 C-18.475 15.505 -18.475 15.505 -21 15 C-18.03009153 13.02006102 -15.01080187 11.18985384 -11.9375 9.375 C-10.87402344 8.74335938 -9.81054688 8.11171875 -8.71484375 7.4609375 C-6 6 -6 6 -4 6 C-3.566875 5.071875 -3.566875 5.071875 -3.125 4.125 C-2 2 -2 2 0 0 Z " fill="#C22C50" transform="translate(345,235)"/>
<path d="M0 0 C3.95099928 -0.0246985 7.90196874 -0.04285923 11.85302734 -0.05493164 C13.85906551 -0.06244036 15.86508202 -0.0751447 17.87109375 -0.08789062 C19.75634766 -0.09272461 19.75634766 -0.09272461 21.6796875 -0.09765625 C23.42354736 -0.10551147 23.42354736 -0.10551147 25.20263672 -0.11352539 C28 0 28 0 30 1 C31.70378688 1.14090788 33.41238854 1.22583094 35.12109375 1.28125 C36.64766602 1.33732422 36.64766602 1.33732422 38.20507812 1.39453125 C39.27177734 1.42933594 40.33847656 1.46414062 41.4375 1.5 C43.54050109 1.56886723 45.64337984 1.64161059 47.74609375 1.71875 C49.14879517 1.76418945 49.14879517 1.76418945 50.57983398 1.81054688 C53 2 53 2 56 3 C56.34358969 9.58165143 55.17086504 14.87013247 53.1875 21.125 C52.92646484 21.99253906 52.66542969 22.86007813 52.39648438 23.75390625 C50.95583145 28.42802461 49.24153636 32.64111212 47 37 C46.36035884 38.89861741 45.77353048 40.81614253 45.25 42.75 C44.85554688 44.16539062 44.85554688 44.16539062 44.453125 45.609375 C43.74923816 48.00344022 43.74923816 48.00344022 45 50 C44.34 50 43.68 50 43 50 C42.731875 50.804375 42.46375 51.60875 42.1875 52.4375 C41.795625 53.283125 41.40375 54.12875 41 55 C40.01 55.33 39.02 55.66 38 56 C40.50216961 47.50827019 43.15846049 39.0655499 45.81616211 30.62158203 C46.56517837 28.24148914 47.31293131 25.86100194 48.06054688 23.48046875 C48.54159199 21.95049735 49.02270924 20.42054863 49.50390625 18.890625 C49.72478409 18.18738098 49.94566193 17.48413696 50.17323303 16.75958252 C51.41189248 12.82686914 52.68438699 8.90764084 54 5 C53.39631592 5.01087646 52.79263184 5.02175293 52.1706543 5.03295898 C45.98686286 5.09551781 39.95735978 4.72846866 33.8125 4.0625 C32.96236328 3.97548828 32.11222656 3.88847656 31.23632812 3.79882812 C27.62443851 3.42229909 24.03754724 3.00561146 20.4453125 2.46875 C16.32012038 1.90749937 12.21769211 1.65469513 8.0625 1.4375 C7.28326172 1.39431641 6.50402344 1.35113281 5.70117188 1.30664062 C3.80092883 1.20171923 1.90048331 1.1004755 0 1 C0 0.67 0 0.34 0 0 Z " fill="#BC3959" transform="translate(417,123)"/>
<path d="M0 0 C2.5 1.1875 2.5 1.1875 4.5 3.1875 C5.03625 3.64125 5.5725 4.095 6.125 4.5625 C7.5 6.1875 7.5 6.1875 7.5 10.1875 C9.975 11.1775 9.975 11.1775 12.5 12.1875 C12.5 13.26 12.5 14.3325 12.5 15.4375 C12.83 16.675 13.16 17.9125 13.5 19.1875 C15.32861605 20.26000771 15.32861605 20.26000771 17.5 21 C19.6875 21.87890625 19.6875 21.87890625 21.5 23.1875 C22.51774498 26.53227647 22.60623756 29.70821985 22.5 33.1875 C20.025 33.6825 20.025 33.6825 17.5 34.1875 C16.84 31.8775 16.18 29.5675 15.5 27.1875 C14.84 27.1875 14.18 27.1875 13.5 27.1875 C13.5 26.1975 13.5 25.2075 13.5 24.1875 C12.84 24.1875 12.18 24.1875 11.5 24.1875 C11.5 23.5275 11.5 22.8675 11.5 22.1875 C10.9225 22.14625 10.345 22.105 9.75 22.0625 C6.38399342 20.75349744 5.3691376 18.17812016 3.5 15.1875 C2.84 14.8575 2.18 14.5275 1.5 14.1875 C1.5 12.2075 1.5 10.2275 1.5 8.1875 C0.51 8.1875 -0.48 8.1875 -1.5 8.1875 C-1.809375 7.23875 -2.11875 6.29 -2.4375 5.3125 C-3.37394742 2.32669592 -3.37394742 2.32669592 -4.5 0.1875 C-2.5 -0.8125 -2.5 -0.8125 0 0 Z M-6.5 3.1875 C-5.18 3.1875 -3.86 3.1875 -2.5 3.1875 C-2.5 3.8475 -2.5 4.5075 -2.5 5.1875 C-3.82 5.1875 -5.14 5.1875 -6.5 5.1875 C-6.5 4.5275 -6.5 3.8675 -6.5 3.1875 Z " fill="#C5264D" transform="translate(341.5,145.8125)"/>
<path d="M0 0 C7.53465373 0.53120008 15.04657645 1.19293053 22.5625 1.9375 C30.92920236 2.76300035 39.29914118 3.37850707 47.6875 3.9375 C57.76849269 4.62021656 67.77236176 5.59378048 77.80102539 6.81738281 C87.22759465 7.95268119 96.66882915 8.84308774 106.125 9.6875 C107.2436293 9.78742752 107.2436293 9.78742752 108.38485718 9.88937378 C112.58952731 10.26394128 116.7945813 10.63391905 121 11 C121 11.33 121 11.66 121 12 C88.76988788 12.58996263 88.76988788 12.58996263 78 9 C76.0093556 8.85013589 74.01464609 8.75171962 72.01953125 8.68359375 C70.85615234 8.64169922 69.69277344 8.59980469 68.49414062 8.55664062 C67.27919922 8.51732422 66.06425781 8.47800781 64.8125 8.4375 C63.58595703 8.39431641 62.35941406 8.35113281 61.09570312 8.30664062 C58.06391619 8.2004691 55.03204685 8.09842048 52 8 C52 7.34 52 6.68 52 6 C51.2479126 6.00523682 50.4958252 6.01047363 49.72094727 6.01586914 C46.33480658 6.03657227 42.94867916 6.04963877 39.5625 6.0625 C38.37849609 6.07087891 37.19449219 6.07925781 35.97460938 6.08789062 C34.84990234 6.09111328 33.72519531 6.09433594 32.56640625 6.09765625 C31.00321655 6.10551147 31.00321655 6.10551147 29.40844727 6.11352539 C27 6 27 6 26 5 C24.41519362 4.80893333 22.8232087 4.67660078 21.23046875 4.5703125 C20.25916016 4.49683594 19.28785156 4.42335938 18.28710938 4.34765625 C16.23290833 4.20009549 14.1782028 4.05938603 12.12304688 3.92578125 C11.14787109 3.84972656 10.17269531 3.77367188 9.16796875 3.6953125 C8.27360107 3.63359863 7.3792334 3.57188477 6.45776367 3.50830078 C3.63817827 2.92517008 2.15383804 1.8706941 0 0 Z " fill="#BD3556" transform="translate(166,81)"/>
<path d="M0 0 C0.70125 0.45890625 1.4025 0.9178125 2.125 1.390625 C15.99624044 10.36169898 26.6889808 13.2477928 43 14 C43 14.33 43 14.66 43 15 C36.07 15 29.14 15 22 15 C21.34 16.98 20.68 18.96 20 21 C20.99 21.33 21.98 21.66 23 22 C17.8122848 23.7292384 12.89509362 21.03121153 8 19 C5.43919187 17.4891232 3.3092573 15.88939234 1 14 C3.07553648 13.4465236 4.84365964 13 7 13 C8.62514468 11.54166642 8.62514468 11.54166642 10 10 C8.68 9.67 7.36 9.34 6 9 C5.67 7.68 5.34 6.36 5 5 C3.68 5.33 2.36 5.66 1 6 C0.4465236 3.92446352 0 2.15634036 0 0 Z " fill="#C72049" transform="translate(269,238)"/>
<path d="M0 0 C1.32 0.33 2.64 0.66 4 1 C3 11 3 11 0 14 C-0.15582303 15.34015221 -0.25044142 16.68758903 -0.31640625 18.03515625 C-0.35830078 18.84404297 -0.40019531 19.65292969 -0.44335938 20.48632812 C-0.48267578 21.33646484 -0.52199219 22.18660156 -0.5625 23.0625 C-0.60568359 23.91650391 -0.64886719 24.77050781 -0.69335938 25.65039062 C-0.79976702 27.76672037 -0.90041731 29.88333813 -1 32 C-3.475 31.01 -3.475 31.01 -6 30 C-6.33 34.29 -6.66 38.58 -7 43 C-7.33 43 -7.66 43 -8 43 C-8 32.44 -8 21.88 -8 11 C-7.34 11 -6.68 11 -6 11 C-5.67 9.35 -5.34 7.7 -5 6 C-4.34 6 -3.68 6 -3 6 C-2.01 4.02 -1.02 2.04 0 0 Z " fill="#C4133E" transform="translate(252,172)"/>
<path d="M0 0 C3.82692475 0.50611302 6.79227693 2.48833358 10.0625 4.4375 C11.10535156 5.05496094 12.14820313 5.67242187 13.22265625 6.30859375 C15.17450805 7.49727424 17.09849896 8.73233264 19 10 C18.67 10.66 18.34 11.32 18 12 C17.01 11.67 16.02 11.34 15 11 C14.67 10.34 14.34 9.68 14 9 C11.97536745 8.34786708 11.97536745 8.34786708 10 8 C9.67 9.32 9.34 10.64 9 12 C8.01 11.67 7.02 11.34 6 11 C6 11.66 6 12.32 6 13 C8.475 13.495 8.475 13.495 11 14 C11 14.66 11 15.32 11 16 C11.99 16 12.98 16 14 16 C14 17.65 14 19.3 14 21 C12.98292969 20.32904297 12.98292969 20.32904297 11.9453125 19.64453125 C-0.59936846 11.31189677 -0.59936846 11.31189677 -15 8 C-15 7.67 -15 7.34 -15 7 C-11.04 7 -7.08 7 -3 7 C-2.67 6.34 -2.34 5.68 -2 5 C-0.35636866 4.27840576 1.31050386 3.60648579 3 3 C1.68 2.34 0.36 1.68 -1 1 C-0.67 0.67 -0.34 0.34 0 0 Z " fill="#C7284E" transform="translate(329,138)"/>
<path d="M0 0 C-3.734375 1.1171875 -3.734375 1.1171875 -6.125 0.0625 C-10.31029697 -1.48424019 -14.57861686 -1.53213107 -19 -1 C-19.66 -0.34 -20.32 0.32 -21 1 C-23.625 1.125 -23.625 1.125 -26 1 C-26.28875 1.94875 -26.5775 2.8975 -26.875 3.875 C-28 7 -28 7 -30 9 C-30.99 9 -31.98 9 -33 9 C-33.33 9.66 -33.66 10.32 -34 11 C-34.66 10.67 -35.32 10.34 -36 10 C-36.144375 11.134375 -36.28875 12.26875 -36.4375 13.4375 C-37 17 -37 17 -38 18 C-38.39454223 19.84599688 -38.74176866 21.70225822 -39.0625 23.5625 C-39.23910156 24.57441406 -39.41570312 25.58632813 -39.59765625 26.62890625 C-39.73042969 27.41136719 -39.86320312 28.19382812 -40 29 C-40.33 29 -40.66 29 -41 29 C-41.70278987 20.05114236 -40.3317004 13.85894216 -36 6 C-35.34 6 -34.68 6 -34 6 C-33.67 5.01 -33.34 4.02 -33 3 C-23.57387756 -5.75097317 -10.78804216 -6.63879518 0 0 Z " fill="#C74A6D" transform="translate(391,387)"/>
<path d="M0 0 C2.31282587 3.46923881 2.42478586 4.92205575 2 9 C0.9375 10.875 0.9375 10.875 -1 12 C-5.36706908 12.38991688 -7.30513897 12.46324069 -11 10 C-11.39138913 6.91781063 -11.63718306 4.94546887 -11 2 C-7.46920568 -1.42694742 -4.58369724 -1.42603914 0 0 Z " fill="#BD4061" transform="translate(297,188)"/>
<path d="M0 0 C1 1 1 1 1.25 4.375 C1 8 1 8 -0.0625 9.9375 C-3.11976176 11.6140629 -5.5906288 11.36528977 -9 11 C-11.15323612 9.56450925 -11.79260731 8.44441292 -12.875 6.125 C-13.05897592 2.99740934 -11.85467111 1.45081539 -10 -1 C-6.04519588 -2.31826804 -3.88608399 -1.29536133 0 0 Z " fill="#C41F48" transform="translate(326,189)"/>
<path d="M0 0 C4.15451585 2.49270951 7.11034271 4.44259124 9 9 C8.9375 11.6875 8.9375 11.6875 8 14 C5.76937828 15.75263135 4.38615682 15.99009854 1.5625 16.0625 C-2.28075941 14.46895342 -3.87414244 11.46469552 -6 8 C-5.34 8 -4.68 8 -4 8 C-3.67 6.68 -3.34 5.36 -3 4 C-2.01 4 -1.02 4 0 4 C0 2.68 0 1.36 0 0 Z " fill="#C73356" transform="translate(326,219)"/>
<path d="M0 0 C0 0.33 0 0.66 0 1 C-3.3 1 -6.6 1 -10 1 C-10.66 2.65 -11.32 4.3 -12 6 C-10.02 6 -8.04 6 -6 6 C-6 6.33 -6 6.66 -6 7 C-7.65 7 -9.3 7 -11 7 C-11 7.66 -11 8.32 -11 9 C-18.28571429 12.42857143 -18.28571429 12.42857143 -23 12 C-23.33 10.68 -23.66 9.36 -24 8 C-23.01 8.33 -22.02 8.66 -21 9 C-20.67 7.68 -20.34 6.36 -20 5 C-20.99 5.33 -21.98 5.66 -23 6 C-23.66 5.67 -24.32 5.34 -25 5 C-25 4.34 -25 3.68 -25 3 C-16.51168642 0.43056454 -8.85406634 -0.38558031 0 0 Z " fill="#C1143F" transform="translate(314,214)"/>
<path d="M0 0 C24.79502367 -0.38259384 24.79502367 -0.38259384 35.8984375 1.4296875 C42.68589194 2.47527448 49.58786189 2.77097292 56.43554688 3.21435547 C57.47001953 3.28799316 58.50449219 3.36163086 59.5703125 3.4375 C60.95887451 3.52837891 60.95887451 3.52837891 62.37548828 3.62109375 C65.16746912 4.02417787 67.43191237 4.85321104 70 6 C70 6.33 70 6.66 70 7 C67.24968413 6.85888117 64.49984582 6.71228835 61.75 6.5625 C60.58404297 6.50352539 60.58404297 6.50352539 59.39453125 6.44335938 C58.64042969 6.40146484 57.88632812 6.35957031 57.109375 6.31640625 C56.41811523 6.27974854 55.72685547 6.24309082 55.01464844 6.20532227 C53 6 53 6 51.18359375 5.51721191 C48.78979441 4.95021014 46.50005767 4.71521079 44.04785156 4.51928711 C43.06713684 4.43927963 42.08642212 4.35927216 41.07598877 4.27684021 C40.02481873 4.19450638 38.97364868 4.11217255 37.890625 4.02734375 C36.80867859 3.93997452 35.72673218 3.85260529 34.61199951 3.7625885 C31.15824344 3.48441723 27.70413652 3.21090247 24.25 2.9375 C21.90752747 2.74965564 19.56507922 2.56150828 17.22265625 2.37304688 C11.48204785 1.91184895 5.7411445 1.45447303 0 1 C0 0.67 0 0.34 0 0 Z " fill="#C75B79" transform="translate(258,108)"/>
<path d="M0 0 C1.98 0.495 1.98 0.495 4 1 C4 2.0725 4 3.145 4 4.25 C4.33 5.4875 4.66 6.725 5 8 C6.82861605 9.07250771 6.82861605 9.07250771 9 9.8125 C11.1875 10.69140625 11.1875 10.69140625 13 12 C14.01774498 15.34477647 14.10623756 18.52071985 14 22 C12.35 22.33 10.7 22.66 9 23 C8.34 20.69 7.68 18.38 7 16 C6.34 16 5.68 16 5 16 C5 15.01 5 14.02 5 13 C4.34 13 3.68 13 3 13 C3 12.34 3 11.68 3 11 C2.34 11 1.68 11 1 11 C0 8 0 8 0.9375 5.8125 C1.288125 5.214375 1.63875 4.61625 2 4 C1.01 4 0.02 4 -1 4 C-0.67 2.68 -0.34 1.36 0 0 Z " fill="#C7123D" transform="translate(350,157)"/>
<path d="M0 0 C0.66 0 1.32 0 2 0 C0.29125419 7.38619158 -2.03384737 14.54292229 -4.375 21.75 C-4.76171875 22.94882813 -5.1484375 24.14765625 -5.546875 25.3828125 C-7.98826185 32.9363651 -10.47568638 40.47377364 -13 48 C-13.66 47.67 -14.32 47.34 -15 47 C-14.62976524 40.58259746 -12.7138823 35.69474694 -10.1328125 29.83203125 C-8.82714718 26.56786796 -8.41737712 23.47814265 -8 20 C-7 18 -6 16 -5 14 C-4.19739373 11.02448406 -3.5718851 8.02762699 -3 5 C-2.34 5 -1.68 5 -1 5 C-0.67 3.35 -0.34 1.7 0 0 Z " fill="#BF3C5E" transform="translate(457,229)"/>
<path d="M0 0 C-2.33294775 0.04241723 -4.66702567 0.04092937 -7 0 C-7.495 -0.495 -7.495 -0.495 -8 -1 C-17.10650386 -1.69676097 -26.0153734 -0.32426469 -35 1 C-36.62435133 1.19303885 -38.24922333 1.38185815 -39.875 1.5625 C-42.86154933 1.66080315 -42.86154933 1.66080315 -44 3 C-45.66617115 3.04063832 -47.33388095 3.042721 -49 3 C-49 3.66 -49 4.32 -49 5 C-50.32 4.67 -51.64 4.34 -53 4 C-39.39015554 -4.58011933 -14.17674787 -9.45116525 0 0 Z " fill="#C44465" transform="translate(327,138)"/>
<path d="M0 0 C-2.10515339 3.72450216 -3.24267224 5.6795921 -7.25 7.375 C-8.61125 7.684375 -8.61125 7.684375 -10 8 C-10 8.66 -10 9.32 -10 10 C-10.99 10 -11.98 10 -13 10 C-13.33 10.99 -13.66 11.98 -14 13 C-16.475 12.01 -16.475 12.01 -19 11 C-19 7 -19 7 -18 4 C-16.68 4 -15.36 4 -14 4 C-14 3.34 -14 2.68 -14 2 C-9.07262981 0.02905192 -5.21979128 -0.1799928 0 0 Z " fill="#C5133E" transform="translate(292,139)"/>
<path d="M0 0 C6.95666562 -0.1509194 13.6036608 0.4379759 20.5 1.3125 C31.3602967 2.63269933 42.22918833 3.71601099 53.125 4.6875 C54.24104614 4.78715561 54.24104614 4.78715561 55.37963867 4.88882446 C59.58604938 5.26356492 63.79283878 5.63376736 68 6 C68 6.33 68 6.66 68 7 C35.76988788 7.58996263 35.76988788 7.58996263 25 4 C23.08330242 3.78391654 21.16155357 3.6112858 19.23828125 3.46484375 C18.12001953 3.37783203 17.00175781 3.29082031 15.84960938 3.20117188 C14.09874023 3.0706543 14.09874023 3.0706543 12.3125 2.9375 C11.13365234 2.84662109 9.95480469 2.75574219 8.74023438 2.66210938 C5.82706468 2.4380194 2.9136711 2.21745704 0 2 C0 1.34 0 0.68 0 0 Z " fill="#C55570" transform="translate(219,86)"/>
<path d="M0 0 C0.99 0.33 1.98 0.66 3 1 C3.33 2.65 3.66 4.3 4 6 C5.32 6 6.64 6 8 6 C9.04625409 7.29735507 10.04701223 8.63266972 11 10 C11.99 10.33 12.98 10.66 14 11 C13.01 11.33 12.02 11.66 11 12 C10.67 12.99 10.34 13.98 10 15 C6.7 14.34 3.4 13.68 0 13 C-1 9 -1 9 0 7 C-0.66 7 -1.32 7 -2 7 C-2 6.34 -2 5.68 -2 5 C-1.34 5 -0.68 5 0 5 C-0.2784375 4.0409375 -0.2784375 4.0409375 -0.5625 3.0625 C-0.7790625 2.0415625 -0.7790625 2.0415625 -1 1 C-0.67 0.67 -0.34 0.34 0 0 Z " fill="#C5133F" transform="translate(266,237)"/>
<path d="M0 0 C0 3 0 3 -1 6 C-1.66 6.66 -2.32 7.32 -3 8 C-3 8.99 -3 9.98 -3 11 C-3 11.66 -3 12.32 -3 13 C-2.01 13.33 -1.02 13.66 0 14 C0.12375 13.05125 0.2475 12.1025 0.375 11.125 C1 8 1 8 3 6 C5.625 6.375 5.625 6.375 8 7 C7.34 8.32 6.68 9.64 6 11 C5.34 11 4.68 11 4 11 C4 11.66 4 12.32 4 13 C2.5390625 14.2890625 2.5390625 14.2890625 0.625 15.625 C-0.00148438 16.07101563 -0.62796875 16.51703125 -1.2734375 16.9765625 C-3 18 -3 18 -5 18 C-7 15 -7 15 -7 12 C-8.32 11.67 -9.64 11.34 -11 11 C-11 10.34 -11 9.68 -11 9 C-6.61538462 6 -6.61538462 6 -4 6 C-3.71125 5.38125 -3.4225 4.7625 -3.125 4.125 C-2 2 -2 2 0 0 Z " fill="#C41E45" transform="translate(345,235)"/>
<path d="M0 0 C0.66 0 1.32 0 2 0 C2 0.66 2 1.32 2 2 C2.66 2 3.32 2 4 2 C4 2.99 4 3.98 4 5 C4.66 5 5.32 5 6 5 C11.57340672 13.36011008 11.32724082 25.27202289 11 35 C10.97164063 35.88429687 10.94328125 36.76859375 10.9140625 37.6796875 C10.58326262 42.98823791 9.99286349 46.13593856 6 50 C6.88653317 44.42750582 6.88653317 44.42750582 7.51806641 42.0480957 C10.97492794 27.35730979 6.70264621 12.9925195 0 0 Z " fill="#BB3F5E" transform="translate(351,168)"/>
<path d="M0 0 C0 0.33 0 0.66 0 1 C-1.0725 1.12375 -2.145 1.2475 -3.25 1.375 C-6.78581408 1.75298055 -6.78581408 1.75298055 -8.82397461 2.99731445 C-11.75355074 4.34722685 -14.35216516 4.44829599 -17.56640625 4.66796875 C-18.85740234 4.75626953 -20.14839844 4.84457031 -21.47851562 4.93554688 C-22.15052002 4.97671631 -22.82252441 5.01788574 -23.51489258 5.06030273 C-25.53249961 5.18563638 -27.54821628 5.3290568 -29.56445312 5.47460938 C-37.16819228 5.96845659 -44.44041823 6.00325643 -52 5 C-52 4.67 -52 4.34 -52 4 C-50.88028809 3.91435791 -49.76057617 3.82871582 -48.60693359 3.74047852 C-44.43582525 3.42073755 -40.26499511 3.09748465 -36.09423828 2.77319336 C-34.29222848 2.63356915 -32.49014553 2.49488573 -30.68798828 2.35717773 C-28.09127109 2.15858837 -25.49483952 1.9565696 -22.8984375 1.75390625 C-21.69808365 1.66321617 -21.69808365 1.66321617 -20.47348022 1.57069397 C-0.46353886 -0.00799205 -0.46353886 -0.00799205 0 0 Z " fill="#C45974" transform="translate(353,281)"/>
<path d="M0 0 C0.70125 0.45890625 1.4025 0.9178125 2.125 1.390625 C15.99624044 10.36169898 26.6889808 13.2477928 43 14 C43 14.33 43 14.66 43 15 C39.25129501 15.25518724 35.50132602 15.47461113 31.75 15.6875 C30.68652344 15.76033203 29.62304688 15.83316406 28.52734375 15.90820312 C26.99013672 15.99038086 26.99013672 15.99038086 25.421875 16.07421875 C24.00793457 16.16062622 24.00793457 16.16062622 22.56542969 16.2487793 C19.487484 15.95029941 18.31493283 14.98224603 16 13 C14.35202764 12.28837557 12.68834592 11.60968047 11 11 C11 10.34 11 9.68 11 9 C9.68 9.33 8.36 9.66 7 10 C6.34 8.35 5.68 6.7 5 5 C3.68 5.33 2.36 5.66 1 6 C0.4465236 3.92446352 0 2.15634036 0 0 Z " fill="#D25E7D" transform="translate(269,238)"/>
<path d="M0 0 C5.43460672 3.10548956 8.49728131 6.86399113 12 12 C12.41765625 12.61101562 12.8353125 13.22203125 13.265625 13.8515625 C14.19030966 15.22556577 15.0974021 16.61138784 16 18 C15.67 18.66 15.34 19.32 15 20 C13.0625 19.625 13.0625 19.625 11 19 C10.67 18.34 10.34 17.68 10 17 C9.01 17 8.02 17 7 17 C6.91363281 16.37351563 6.82726562 15.74703125 6.73828125 15.1015625 C6.31373291 12.63217125 5.85727584 10.35643158 5 8 C2.52985528 6.32386813 2.52985528 6.32386813 0 6 C0 4.02 0 2.04 0 0 Z " fill="#C42C54" transform="translate(348,150)"/>
<path d="M0 0 C9.98355975 -0.27519767 19.85334557 0.15667051 29.8125 0.875 C30.94405518 0.95347168 32.07561035 1.03194336 33.24145508 1.11279297 C47.91307495 2.23007923 47.91307495 2.23007923 54 4 C54.495 4.99 54.495 4.99 55 6 C43.3766682 5.18157097 31.78511048 4.05440863 20.1875 2.9375 C18.22331791 2.74923818 16.25912527 2.56108631 14.29492188 2.37304688 C9.52982554 1.91663104 4.76487398 1.45873109 0 1 C0 0.67 0 0.34 0 0 Z " fill="#C05470" transform="translate(187,101)"/>
<path d="M0 0 C0 2.97 0 5.94 0 9 C-1.32 9.33 -2.64 9.66 -4 10 C-4.33 9.01 -4.66 8.02 -5 7 C-5.66 7 -6.32 7 -7 7 C-7.66 7.66 -8.32 8.32 -9 9 C-9 8.34 -9 7.68 -9 7 C-12.11785113 7.64644661 -12.11785113 7.64644661 -13 10 C-13.66 9.67 -14.32 9.34 -15 9 C-14.625 6.25 -14.625 6.25 -13 3 C-8.77097371 0.51535544 -4.7807167 -1.59357223 0 0 Z " fill="#BE153F" transform="translate(294,163)"/>
<path d="M0 0 C12.87 0 25.74 0 39 0 C39 0.33 39 0.66 39 1 C32.7382462 1.57471018 26.47599627 2.14376273 20.21337891 2.70898438 C18.08533231 2.90170824 15.95740026 3.09570144 13.82958984 3.29101562 C10.76168979 3.57239532 7.69339953 3.84912692 4.625 4.125 C3.68197021 4.21249512 2.73894043 4.29999023 1.76733398 4.39013672 C-3.51414871 4.85991692 -8.69765658 5.08692366 -14 5 C-14 4.67 -14 4.34 -14 4 C-7.07 3.01 -7.07 3.01 0 2 C0 1.34 0 0.68 0 0 Z " fill="#C65371" transform="translate(257,304)"/>
<path d="M0 0 C1.80394157 2.70591236 2.52503338 4.37538284 3.3671875 7.4296875 C3.73348267 8.73812622 3.73348267 8.73812622 4.10717773 10.07299805 C4.36055908 10.99765869 4.61394043 11.92231934 4.875 12.875 C5.40368042 14.77509271 5.93362795 16.67483331 6.46484375 18.57421875 C6.72378418 19.50024902 6.98272461 20.4262793 7.24951172 21.38037109 C8.53182314 25.85636378 9.97159602 30.27882562 11.43359375 34.69921875 C12 37 12 37 11 39 C5.82153969 34.21988279 5.35558569 30.35922797 5.04296875 23.4140625 C5.02878906 22.61742187 5.01460937 21.82078125 5 21 C4.34 21 3.68 21 3 21 C2.49576443 18.25071558 1.99646574 15.50068857 1.5 12.75 C1.35691406 11.97269531 1.21382812 11.19539063 1.06640625 10.39453125 C0.93105469 9.64042969 0.79570312 8.88632812 0.65625 8.109375 C0.46772461 7.07248535 0.46772461 7.07248535 0.27539062 6.01464844 C0 4 0 4 0 0 Z " fill="#C25A78" transform="translate(176,250)"/>
<path d="M0 0 C33.77962495 1.12874052 33.77962495 1.12874052 37.86328125 4.5703125 C38.23839844 5.04210937 38.61351562 5.51390625 39 6 C38.34 6.33 37.68 6.66 37 7 C37 6.34 37 5.68 37 5 C35.26363281 5.03480469 35.26363281 5.03480469 33.4921875 5.0703125 C31.95313149 5.08908148 30.41406845 5.10728046 28.875 5.125 C28.11445313 5.14175781 27.35390625 5.15851563 26.5703125 5.17578125 C21.89586629 5.2160782 18.4516236 4.53174146 14 3 C10.34008166 2.75999254 10.34008166 2.75999254 6.625 2.875 C4.75714844 2.90207031 4.75714844 2.90207031 2.8515625 2.9296875 C1.91054688 2.95289062 0.96953125 2.97609375 0 3 C0 2.01 0 1.02 0 0 Z " fill="#BD3D5E" transform="translate(452,108)"/>
<path d="M0 0 C1.18771723 3.42943519 0.80226223 5.37784675 -0.4375 8.75 C-0.86869141 9.94882812 -0.86869141 9.94882812 -1.30859375 11.171875 C-1.53675781 11.77515625 -1.76492188 12.3784375 -2 13 C-17.00694494 15.19709521 -31.8551413 15.21919747 -47 15 C-47 14.67 -47 14.34 -47 14 C-45.89527344 13.95101563 -44.79054688 13.90203125 -43.65234375 13.8515625 C-39.41337998 13.65401497 -35.17714082 13.42013139 -30.94091797 13.17089844 C-28.92464721 13.05373178 -26.9080123 12.94271652 -24.89111328 12.83691406 C-21.75866874 12.66602712 -18.62993203 12.46158568 -15.5 12.25 C-14.50347412 12.20053223 -13.50694824 12.15106445 -12.48022461 12.10009766 C-7.0157135 11.86240283 -7.0157135 11.86240283 -2.91796875 8.62890625 C-2.61503906 7.76136719 -2.31210937 6.89382813 -2 6 C-1.608125 4.906875 -1.21625 3.81375 -0.8125 2.6875 C-0.544375 1.800625 -0.27625 0.91375 0 0 Z " fill="#CC6C88" transform="translate(427,264)"/>
<path d="M0 0 C4.21779303 1.50635465 5.7747674 4.24012422 8 8 C9.20745835 11.62237505 9.22246029 14.9770595 9.25 18.75 C9.270625 19.4409375 9.29125 20.131875 9.3125 20.84375 C9.35084525 25.94366799 8.38945377 29.47627683 6 34 C5.01 34.495 5.01 34.495 4 35 C4 33.35 4 31.7 4 30 C4.66 30 5.32 30 6 30 C6.10901505 27.16560863 6.18777904 24.33549797 6.25 21.5 C6.28351563 20.70851563 6.31703125 19.91703125 6.3515625 19.1015625 C6.44679049 13.29265499 5.37552586 8.81330734 2 4 C1.34 3.67 0.68 3.34 0 3 C0 2.01 0 1.02 0 0 Z " fill="#B33354" transform="translate(394,391)"/>
<path d="M0 0 C0.99 0.33 1.98 0.66 3 1 C2.01 1.495 2.01 1.495 1 2 C1 2.66 1 3.32 1 4 C1.66 3.67 2.32 3.34 3 3 C3.33 2.01 3.66 1.02 4 0 C4.99 0 5.98 0 7 0 C6.67 0.66 6.34 1.32 6 2 C6.33 2.33 6.66 2.66 7 3 C7 4.32 7 5.64 7 7 C4.69 7.33 2.38 7.66 0 8 C-0.33 9.98 -0.66 11.96 -1 14 C-2.65 13.67 -4.3 13.34 -6 13 C-5.34 11.68 -4.68 10.36 -4 9 C-4.66 8.34 -5.32 7.68 -6 7 C-4.68 6.67 -3.36 6.34 -2 6 C-1.855625 5.38125 -1.71125 4.7625 -1.5625 4.125 C-1 2 -1 2 0 0 Z " fill="#C5123D" transform="translate(346,235)"/>
<path d="M0 0 C0 0.33 0 0.66 0 1 C-0.93972656 1.09087891 -0.93972656 1.09087891 -1.8984375 1.18359375 C-2.71570313 1.26738281 -3.53296875 1.35117187 -4.375 1.4375 C-5.18710937 1.51871094 -5.99921875 1.59992188 -6.8359375 1.68359375 C-9.04272805 1.89090114 -9.04272805 1.89090114 -11 3 C-13.17824961 3.08559118 -15.35915255 3.10713412 -17.5390625 3.09765625 C-18.84101563 3.09443359 -20.14296875 3.09121094 -21.484375 3.08789062 C-22.86458399 3.07953466 -24.24479232 3.07106971 -25.625 3.0625 C-27.01301926 3.05748501 -28.40104022 3.0529221 -29.7890625 3.04882812 C-33.19275132 3.03700976 -36.59635439 3.02053434 -40 3 C-40 2.67 -40 2.34 -40 2 C-26.63189206 -0.00970213 -13.50327969 -0.23272257 0 0 Z " fill="#B73657" transform="translate(312,286)"/>
<path d="M0 0 C3.22385945 4.83578917 4.43976077 10.40836703 6.125 15.9375 C6.49753906 17.13052734 6.87007812 18.32355469 7.25390625 19.55273438 C7.60582031 20.69935547 7.95773438 21.84597656 8.3203125 23.02734375 C8.64273926 24.07656006 8.96516602 25.12577637 9.29736328 26.20678711 C10 29 10 29 10 33 C8.046875 32.4140625 8.046875 32.4140625 6 31 C5.390625 27.9609375 5.390625 27.9609375 5.25 24.375 C5.19328125 23.18648437 5.1365625 21.99796875 5.078125 20.7734375 C5.03945312 19.40058594 5.03945312 19.40058594 5 18 C4.34 18 3.68 18 3 18 C2.49095343 16.12743583 1.99317545 14.25180659 1.5 12.375 C1.08234375 10.80878906 1.08234375 10.80878906 0.65625 9.2109375 C0.00881404 6.04312582 -0.1161292 3.22258533 0 0 Z " fill="#BD4465" transform="translate(154,177)"/>
<path d="M0 0 C0.66 0.33 1.32 0.66 2 1 C1.01 2.485 1.01 2.485 0 4 C-0.66 4 -1.32 4 -2 4 C-1.67 4.99 -1.34 5.98 -1 7 C-1.99 7.66 -2.98 8.32 -4 9 C-4.33 9.99 -4.66 10.98 -5 12 C-2.36 11.34 0.28 10.68 3 10 C3.33 10.66 3.66 11.32 4 12 C1.82182537 13.93615523 0.39843626 14.93027366 -2.5 15.4375 C-5.86915128 14.84789853 -7.04665983 13.77975332 -9 11 C-9.0625 8.375 -9.0625 8.375 -8 6 C-5.4375 4.6875 -5.4375 4.6875 -3 4 C-3 3.34 -3 2.68 -3 2 C-2.01 1.34 -1.02 0.68 0 0 Z " fill="#C3405F" transform="translate(275,169)"/>
<path d="M0 0 C10.48780959 0.40460585 20.78046856 0.98879028 31.16796875 2.5234375 C38.41347515 3.42450965 45.70915917 3.68264381 53 4 C53 4.33 53 4.66 53 5 C39.28265296 5.13289141 25.70864245 4.93143871 12.0703125 3.24609375 C10.54727779 3.06505377 9.02034683 2.91607333 7.4921875 2.78515625 C6.66976563 2.71167969 5.84734375 2.63820313 5 2.5625 C4.2575 2.50191406 3.515 2.44132812 2.75 2.37890625 C2.1725 2.25386719 1.595 2.12882812 1 2 C0.67 1.34 0.34 0.68 0 0 Z " fill="#C85E79" transform="translate(398,103)"/>
<path d="M0 0 C0.74507813 0.00451172 1.49015625 0.00902344 2.2578125 0.01367188 C4.0885764 0.02540754 5.91929873 0.0433415 7.75 0.0625 C4.97927197 2.83322803 2.96687933 2.551201 -0.91015625 2.9140625 C-1.9060099 3.00969986 -1.9060099 3.00969986 -2.92198181 3.10726929 C-4.33130117 3.24078256 -5.74103816 3.36994748 -7.15112305 3.49511719 C-9.28084744 3.68468263 -11.40889655 3.88797742 -13.53710938 4.09375 C-20.45970262 4.7460707 -27.29450842 5.23309177 -34.25 5.0625 C-34.25 4.7325 -34.25 4.4025 -34.25 4.0625 C-33.60450195 3.97685791 -32.95900391 3.89121582 -32.29394531 3.80297852 C-29.36231113 3.41267375 -26.43115667 3.01887418 -23.5 2.625 C-22.48421875 2.49029297 -21.4684375 2.35558594 -20.421875 2.21679688 C-19.4421875 2.08466797 -18.4625 1.95253906 -17.453125 1.81640625 C-16.55239258 1.69595947 -15.65166016 1.5755127 -14.72363281 1.45141602 C-12.29974429 1.11177369 -12.29974429 1.11177369 -10.16796875 0.52148438 C-6.83390078 -0.27638321 -3.40929634 -0.0391527 0 0 Z " fill="#C6516F" transform="translate(359.25,296.9375)"/>
<path d="M0 0 C1.69403834 0.95289657 3.37501495 1.93360356 5 3 C3.68 3.33 2.36 3.66 1 4 C1 3.34 1 2.68 1 2 C-0.98 2 -2.96 2 -5 2 C-5 1.34 -5 0.68 -5 0 C-17.04545371 -0.23223112 -17.04545371 -0.23223112 -29 1 C-29.33 1.66 -29.66 2.32 -30 3 C-30.66 2.34 -31.32 1.68 -32 1 C-21.73294903 -4.29912308 -10.48942327 -5.14935324 0 0 Z " fill="#CB5A79" transform="translate(321,215)"/>
<path d="M0 0 C0.33 0 0.66 0 1 0 C1.33 2.31 1.66 4.62 2 7 C1.01 7.33 0.02 7.66 -1 8 C-0.94199219 8.60585937 -0.88398438 9.21171875 -0.82421875 9.8359375 C-0.43405185 17.0818943 -2.31915851 21.82144464 -6 28 C-6.66 28 -7.32 28 -8 28 C-7.37869771 21.69071903 -5.50010374 16.03792431 -3.4375 10.0625 C-2.9434668 8.6074707 -2.9434668 8.6074707 -2.43945312 7.12304688 C-1.6317552 4.74677616 -0.81849052 2.37257031 0 0 Z " fill="#BC2A4F" transform="translate(453,184)"/>
<path d="M0 0 C2.375 1.3125 2.375 1.3125 3.25 3.3125 C3.375 5.3125 3.375 5.3125 2.375 7.3125 C1.715 7.3125 1.055 7.3125 0.375 7.3125 C0.045 8.3025 -0.285 9.2925 -0.625 10.3125 C-2.935 9.9825 -5.245 9.6525 -7.625 9.3125 C-7.625 8.6525 -7.625 7.9925 -7.625 7.3125 C-8.615 6.9825 -9.605 6.6525 -10.625 6.3125 C-9.965 5.9825 -9.305 5.6525 -8.625 5.3125 C-7.635 5.6425 -6.645 5.9725 -5.625 6.3125 C-4.965 5.6525 -4.305 4.9925 -3.625 4.3125 C-3.625 3.6525 -3.625 2.9925 -3.625 2.3125 C-4.285 1.6525 -4.945 0.9925 -5.625 0.3125 C-2.625 -0.6875 -2.625 -0.6875 0 0 Z " fill="#C6375D" transform="translate(343.625,173.6875)"/>
<path d="M0 0 C5.875 0.875 5.875 0.875 7 2 C7.04063832 3.66617115 7.042721 5.33388095 7 7 C6.21625 7.309375 5.4325 7.61875 4.625 7.9375 C2.07669872 8.92875038 2.07669872 8.92875038 0 10 C0 9.34 0 8.68 0 8 C-0.66 8 -1.32 8 -2 8 C-2.6875 6.25 -2.6875 6.25 -3 4 C-1.5625 1.75 -1.5625 1.75 0 0 Z " fill="#C8123E" transform="translate(291,189)"/>
<path d="M0 0 C1.21236328 0.07057617 1.21236328 0.07057617 2.44921875 0.14257812 C3.28582031 0.20251953 4.12242187 0.26246094 4.984375 0.32421875 C5.80550781 0.37255859 6.62664062 0.42089844 7.47265625 0.47070312 C12.59220051 0.79118173 17.65126021 1.32655236 22.734375 2.01171875 C22.734375 2.34171875 22.734375 2.67171875 22.734375 3.01171875 C25.209375 3.50671875 25.209375 3.50671875 27.734375 4.01171875 C27.734375 4.34171875 27.734375 4.67171875 27.734375 5.01171875 C26.909375 4.95113281 26.084375 4.89054687 25.234375 4.828125 C17.34623876 4.25502416 17.34623876 4.25502416 9.453125 3.7578125 C8.74929688 3.71648193 8.04546875 3.67515137 7.3203125 3.63256836 C5.3230606 3.51685679 3.32559641 3.40482715 1.328125 3.29296875 C-1.92383931 3.03846719 -5.06033979 2.60529008 -8.265625 2.01171875 C-5.32458104 0.31626904 -3.38003508 -0.21473076 0 0 Z " fill="#C55472" transform="translate(345.265625,113.98828125)"/>
<path d="M0 0 C1.46726798 3.81489674 0.43336419 6.29011622 -1 10 C-1.66 10 -2.32 10 -3 10 C-3.33 14.62 -3.66 19.24 -4 24 C-4.99 24 -5.98 24 -7 24 C-7 25.32 -7 26.64 -7 28 C-7.66 28 -8.32 28 -9 28 C-8.39672671 22.32923104 -6.92786808 17.3542537 -5 12 C-4.65324219 11.01515625 -4.30648438 10.0303125 -3.94921875 9.015625 C-1.14587525 1.14587525 -1.14587525 1.14587525 0 0 Z " fill="#BF4B68" transform="translate(437,236)"/>
<path d="M0 0 C0.33 0.99 0.66 1.98 1 3 C1.99 3.33 2.98 3.66 4 4 C4 4.66 4 5.32 4 6 C6.475 6.99 6.475 6.99 9 8 C7.68 8.33 6.36 8.66 5 9 C5.27714844 9.61488281 5.55429688 10.22976563 5.83984375 10.86328125 C6.20207031 11.67152344 6.56429687 12.47976563 6.9375 13.3125 C7.29714844 14.11300781 7.65679687 14.91351563 8.02734375 15.73828125 C9 18 9 18 10 21 C10.66 21.33 11.32 21.66 12 22 C8.14993189 21.44999027 6.48734008 19.934284 4 17 C2.734375 13.90625 2.734375 13.90625 1.75 10.5 C1.41484375 9.3759375 1.0796875 8.251875 0.734375 7.09375 C0 4 0 4 0 0 Z " fill="#CA4066" transform="translate(183,337)"/>
<path d="M0 0 C6.94966093 -0.1346906 13.71856383 0.24284996 20.625 1 C21.98818359 1.14308594 21.98818359 1.14308594 23.37890625 1.2890625 C25.58647043 1.52143768 27.79342261 1.75846489 30 2 C30 2.66 30 3.32 30 4 C8.19053118 4.43187067 8.19053118 4.43187067 1 2 C0.67 1.34 0.34 0.68 0 0 Z " fill="#C34966" transform="translate(312,95)"/>
<path d="M0 0 C1.093125 0.226875 2.18625 0.45375 3.3125 0.6875 C3.3125 1.6775 3.3125 2.6675 3.3125 3.6875 C3.9725 4.3475 4.6325 5.0075 5.3125 5.6875 C3.9925 7.0075 2.6725 8.3275 1.3125 9.6875 C-0.6675 8.6975 -2.6475 7.7075 -4.6875 6.6875 C-4.6875 5.6975 -4.6875 4.7075 -4.6875 3.6875 C-5.3475 3.3575 -6.0075 3.0275 -6.6875 2.6875 C-4.58035839 -0.41123767 -3.86755884 -0.32775922 0 0 Z " fill="#C4123D" transform="translate(336.6875,171.3125)"/>
<path d="M0 0 C0.33 0 0.66 0 1 0 C1.68855157 12.89121556 1.68855157 12.89121556 -0.875 16.8125 C-1.57625 17.534375 -2.2775 18.25625 -3 19 C-3.66 19 -4.32 19 -5 19 C-5 20.65 -5 22.3 -5 24 C-5.33 24 -5.66 24 -6 24 C-6.37947904 18.04692259 -5.10694466 13.60034779 -3 8.0625 C-2.71382813 7.28326172 -2.42765625 6.50402344 -2.1328125 5.70117188 C-1.43191126 3.79705683 -0.71734696 1.8979805 0 0 Z " fill="#BD3559" transform="translate(444,212)"/>
<path d="M0 0 C1.47185051 5.0684777 0.55861761 9.35518149 -1.125 14.3125 C-2.32603995 16.93304077 -2.32603995 16.93304077 -1 19 C-1.66 19 -2.32 19 -3 19 C-3.4021875 20.2065625 -3.4021875 20.2065625 -3.8125 21.4375 C-4.204375 22.283125 -4.59625 23.12875 -5 24 C-5.99 24.33 -6.98 24.66 -8 25 C-5.56541729 16.58782396 -2.79856214 8.29613284 0 0 Z " fill="#C54868" transform="translate(463,154)"/>
<path d="M0 0 C2.5 1.25 2.5 1.25 4.5 4.25 C4.625 7.4375 4.625 7.4375 4.5 10.25 C3.51 10.25 2.52 10.25 1.5 10.25 C1.5 9.59 1.5 8.93 1.5 8.25 C0.51 8.25 -0.48 8.25 -1.5 8.25 C-1.809375 7.30125 -2.11875 6.3525 -2.4375 5.375 C-3.37394742 2.38919592 -3.37394742 2.38919592 -4.5 0.25 C-2.5 -0.75 -2.5 -0.75 0 0 Z M-6.5 3.25 C-5.18 3.25 -3.86 3.25 -2.5 3.25 C-2.5 3.91 -2.5 4.57 -2.5 5.25 C-3.82 5.25 -5.14 5.25 -6.5 5.25 C-6.5 4.59 -6.5 3.93 -6.5 3.25 Z " fill="#C7123D" transform="translate(341.5,145.75)"/>
<path d="M0 0 C22.60076253 -0.42156863 22.60076253 -0.42156863 30 2 C30.66 2.66 31.32 3.32 32 4 C21.23299038 3.49920885 10.66330796 2.59872012 0 1 C0 0.67 0 0.34 0 0 Z " fill="#B73F5D" transform="translate(296,111)"/>
<path d="M0 0 C2.9937356 1.05580599 5.27616121 2.32379152 8 4 C4.265625 5.1171875 4.265625 5.1171875 1.875 4.0625 C-2.31029697 2.51575981 -6.57861686 2.46786893 -11 3 C-11.66 3.66 -12.32 4.32 -13 5 C-15.625 5.125 -15.625 5.125 -18 5 C-14.66715411 -1.66569177 -6.2901883 -0.77105534 0 0 Z " fill="#C1516B" transform="translate(383,383)"/>
<path d="M0 0 C0.33 1.32 0.66 2.64 1 4 C0.35933594 3.98839844 -0.28132813 3.97679687 -0.94140625 3.96484375 C-5.01853463 3.92231037 -8.96901431 3.89777086 -13 4.5625 C-16 5 -16 5 -18 4 C-17 2 -17 2 -14.625 0.875 C-9.71740492 -0.30959192 -5.02296193 -0.16087778 0 0 Z " fill="#C14965" transform="translate(237,383)"/>
<path d="M0 0 C0.33 0 0.66 0 1 0 C1.27457031 0.97453125 1.54914063 1.9490625 1.83203125 2.953125 C2.62859715 5.74567552 3.4638738 8.52333718 4.32421875 11.296875 C4.54787109 12.02777344 4.77152344 12.75867188 5.00195312 13.51171875 C5.46436872 15.02148592 5.93327263 16.52927906 6.40820312 18.03515625 C8.11244692 23.66265923 8.11244692 23.66265923 7 27 C2.10898226 17.86677299 -1.24993528 10.65421028 0 0 Z " fill="#C25470" transform="translate(132,101)"/>
<path d="M0 0 C11.35240938 0.80035539 22.67380573 1.89645505 34 3 C34 3.33 34 3.66 34 4 C26.26103468 4.0987953 18.54357241 4.06573251 10.8125 3.6875 C9.60207031 3.62949219 8.39164063 3.57148437 7.14453125 3.51171875 C3.86660761 2.97829267 2.40642538 2.22728702 0 0 Z " fill="#C95D77" transform="translate(166,81)"/>
<path d="M0 0 C1.5625 1.1875 1.5625 1.1875 3 3 C2.9375 5.5625 2.9375 5.5625 2 8 C0.25 9.375 0.25 9.375 -2 10 C-4.75 9.625 -4.75 9.625 -7 9 C-7.625 7.1875 -7.625 7.1875 -8 5 C-7.34 4.01 -6.68 3.02 -6 2 C-5.34 2 -4.68 2 -4 2 C-4 2.99 -4 3.98 -4 5 C-2.35 5.33 -0.7 5.66 1 6 C0.67 4.02 0.34 2.04 0 0 Z " fill="#C63457" transform="translate(332,225)"/>
<path d="M0 0 C0.66 0.33 1.32 0.66 2 1 C1.401875 1.185625 0.80375 1.37125 0.1875 1.5625 C-2.3585281 2.94755 -2.3585281 2.94755 -3.5 6.5 C-5 10 -5 10 -6.9375 11.5 C-9.32638735 12.07912421 -10.7052686 11.81954693 -13 11 C-13 10.34 -13 9.68 -13 9 C-12.34 9 -11.68 9 -11 9 C-10.67 8.01 -10.34 7.02 -10 6 C-8.4765625 4.6484375 -8.4765625 4.6484375 -6.625 3.375 C-6.01914062 2.94960938 -5.41328125 2.52421875 -4.7890625 2.0859375 C-3 1 -3 1 0 0 Z " fill="#C84363" transform="translate(368,384)"/>
<path d="M0 0 C10.76700962 0.50079115 21.33669204 1.40127988 32 3 C32 3.33 32 3.66 32 4 C25.03116521 5.0628008 19.00916622 4.76635681 12.0625 3.6875 C11.11826172 3.55666016 10.17402344 3.42582031 9.20117188 3.29101562 C2.26294643 2.26294643 2.26294643 2.26294643 0 0 Z " fill="#C55A75" transform="translate(70,27)"/>
<path d="M0 0 C3 1 3 1 4.4375 3.625 C5.21301285 8.27807708 3.5435315 10.24829103 1 14 C0.3197633 15.32646156 -0.35492261 16.65608877 -1 18 C-0.67 15.36 -0.34 12.72 0 10 C-0.66 9.67 -1.32 9.34 -2 9 C-1.67 8.01 -1.34 7.02 -1 6 C-0.34 6 0.32 6 1 6 C0.67 5.01 0.34 4.02 0 3 C0 2.01 0 1.02 0 0 Z " fill="#C7365E" transform="translate(256,163)"/>
<path d="M0 0 C2.625 0.375 2.625 0.375 5 1 C4.34 2.32 3.68 3.64 3 5 C2.34 5 1.68 5 1 5 C1 5.66 1 6.32 1 7 C-0.4609375 8.2890625 -0.4609375 8.2890625 -2.375 9.625 C-3.00148438 10.07101563 -3.62796875 10.51703125 -4.2734375 10.9765625 C-6 12 -6 12 -8 12 C-8 10.68 -8 9.36 -8 8 C-6.35 8 -4.7 8 -3 8 C-2.814375 6.576875 -2.814375 6.576875 -2.625 5.125 C-2 2 -2 2 0 0 Z " fill="#BE365B" transform="translate(348,241)"/>
<path d="M0 0 C0.72445313 0.47050781 1.44890625 0.94101563 2.1953125 1.42578125 C9.40010298 6.06820817 9.40010298 6.06820817 17 10 C15.125 11.0625 15.125 11.0625 13 12 C12.34 11.67 11.68 11.34 11 11 C11 10.34 11 9.68 11 9 C9.68 9.33 8.36 9.66 7 10 C6.34 8.35 5.68 6.7 5 5 C3.68 5.33 2.36 5.66 1 6 C0.4465236 3.92446352 0 2.15634036 0 0 Z " fill="#C84C6A" transform="translate(269,238)"/>
<path d="M0 0 C3.95099928 -0.0246985 7.90196874 -0.04285923 11.85302734 -0.05493164 C13.85906551 -0.06244036 15.86508202 -0.0751447 17.87109375 -0.08789062 C19.75634766 -0.09272461 19.75634766 -0.09272461 21.6796875 -0.09765625 C23.42354736 -0.10551147 23.42354736 -0.10551147 25.20263672 -0.11352539 C28 0 28 0 30 1 C30 1.66 30 2.32 30 3 C29.25878906 2.93941406 28.51757812 2.87882812 27.75390625 2.81640625 C18.50906986 2.08089295 9.25904087 1.52116757 0 1 C0 0.67 0 0.34 0 0 Z " fill="#C5506D" transform="translate(417,123)"/>
<path d="M0 0 C11.8343655 -0.26964377 23.2646477 0.46273748 35 2 C35 2.33 35 2.66 35 3 C31.87501937 3.02895976 28.7500731 3.04678483 25.625 3.0625 C24.29082031 3.07506836 24.29082031 3.07506836 22.9296875 3.08789062 C21.65351563 3.09272461 21.65351563 3.09272461 20.3515625 3.09765625 C19.17327881 3.10551147 19.17327881 3.10551147 17.97119141 3.11352539 C16 3 16 3 14 2 C11.62876754 1.76970044 9.25258057 1.58880058 6.875 1.4375 C5.59367188 1.35371094 4.31234375 1.26992187 2.9921875 1.18359375 C1.51105469 1.09271484 1.51105469 1.09271484 0 1 C0 0.67 0 0.34 0 0 Z " fill="#CD6A83" transform="translate(128,78)"/>
<path d="M0 0 C0.33 1.32 0.66 2.64 1 4 C0.34 4 -0.32 4 -1 4 C0.01160848 8.39314793 0.01160848 8.39314793 3.125 11.375 C3.74375 11.58125 4.3625 11.7875 5 12 C5 12.33 5 12.66 5 13 C-1.39559286 12.39664218 -1.39559286 12.39664218 -4 10.6875 C-5 9 -5 9 -4.9375 7.125 C-3.71462088 4.35314066 -1.96855953 2.28606913 0 0 Z " fill="#C65773" transform="translate(282,222)"/>
<path d="M0 0 C0.33 0.66 0.66 1.32 1 2 C1.66 2 2.32 2 3 2 C3.309375 3.134375 3.61875 4.26875 3.9375 5.4375 C4.62924531 8.78775099 4.62924531 8.78775099 6 10 C6.04092937 12.33297433 6.04241723 14.66705225 6 17 C6.66 17 7.32 17 8 17 C7.67 18.98 7.34 20.96 7 23 C4.86998146 19.18786401 3.66010088 15.08792756 2.375 10.9375 C2.14554688 10.21755859 1.91609375 9.49761719 1.6796875 8.75585938 C0.7372679 5.73506798 0 3.18325133 0 0 Z " fill="#C2556F" transform="translate(145,210)"/>
<path d="M0 0 C-0.33 1.98 -0.66 3.96 -1 6 C-1.66 6 -2.32 6 -3 6 C-3.33 6.99 -3.66 7.98 -4 9 C-5.32 8.67 -6.64 8.34 -8 8 C-7.67 7.01 -7.34 6.02 -7 5 C-6.34 5.33 -5.68 5.66 -5 6 C-4.67 4.68 -4.34 3.36 -4 2 C-4.99 2.33 -5.98 2.66 -7 3 C-7.66 2.67 -8.32 2.34 -9 2 C-9 1.34 -9 0.68 -9 0 C-2.25 -1.125 -2.25 -1.125 0 0 Z " fill="#C2133C" transform="translate(298,217)"/>
<path d="M0 0 C3.16115776 1.36983503 3.9927092 1.9890638 6 5 C6.265625 6.9375 6.265625 6.9375 6.25 9 C6.25515625 9.680625 6.2603125 10.36125 6.265625 11.0625 C6 13 6 13 4 16 C3.34 16 2.68 16 2 16 C2 15.01 2 14.02 2 13 C2.66 13 3.32 13 4 13 C4 10.69 4 8.38 4 6 C2.68 5.67 1.36 5.34 0 5 C0 3.35 0 1.7 0 0 Z " fill="#C0536D" transform="translate(416,341)"/>
<path d="M0 0 C1.65 0 3.3 0 5 0 C5.66 1.32 6.32 2.64 7 4 C6.34 4 5.68 4 5 4 C5 4.99 5 5.98 5 7 C3.02 7 1.04 7 -1 7 C-1.33 6.34 -1.66 5.68 -2 5 C-1.34 5 -0.68 5 0 5 C0 3.35 0 1.7 0 0 Z " fill="#C9103D" transform="translate(260,155)"/>
<path d="M0 0 C1.16144531 0.00902344 2.32289063 0.01804688 3.51953125 0.02734375 C4.39996094 0.03894531 5.28039062 0.05054688 6.1875 0.0625 C6.1875 0.3925 6.1875 0.7225 6.1875 1.0625 C5.61902344 1.17207031 5.05054688 1.28164062 4.46484375 1.39453125 C-0.64734409 2.44427934 -5.07518682 3.88333594 -9.8125 6.0625 C-10.8025 6.3925 -11.7925 6.7225 -12.8125 7.0625 C-12.8125 6.0725 -12.8125 5.0825 -12.8125 4.0625 C-11.8225 4.0625 -10.8325 4.0625 -9.8125 4.0625 C-9.8125 3.4025 -9.8125 2.7425 -9.8125 2.0625 C-10.4725 1.7325 -11.1325 1.4025 -11.8125 1.0625 C-7.81454108 0.10630267 -4.10446078 -0.0414592 0 0 Z " fill="#C2365C" transform="translate(291.8125,144.9375)"/>
<path d="M0 0 C2.59947787 2.59947787 3.0684435 4.92738453 4.125 8.4375 C4.47820312 9.59121094 4.83140625 10.74492187 5.1953125 11.93359375 C6 15 6 15 6 18 C5.01 18 4.02 18 3 18 C1.14256832 11.88595404 -0.42765417 6.41481258 0 0 Z " fill="#C0526F" transform="translate(140,130)"/>
<path d="M0 0 C0.33 0.66 0.66 1.32 1 2 C0.67 2.66 0.34 3.32 0 4 C0.99 4 1.98 4 3 4 C3.33 5.32 3.66 6.64 4 8 C-0.455 8.495 -0.455 8.495 -5 9 C-4.22130352 5.88521409 -3.58697102 3.70718587 -2 1 C-1.34 0.67 -0.68 0.34 0 0 Z " fill="#C5143F" transform="translate(275,172)"/>
<path d="M0 0 C2 2 2 2 2 4 C1 6 1 6 -1.8125 7.25 C-5 8 -5 8 -9 8 C-8.67 6.02 -8.34 4.04 -8 2 C-7.01 2.33 -6.02 2.66 -5 3 C-4.67 2.34 -4.34 1.68 -4 1 C-4 2.65 -4 4.3 -4 6 C-3.34 6 -2.68 6 -2 6 C-2 4.35 -2 2.7 -2 1 C-1.34 0.67 -0.68 0.34 0 0 Z " fill="#CB4163" transform="translate(294,167)"/>
<path d="M0 0 C7.26 0.33 14.52 0.66 22 1 C22 1.66 22 2.32 22 3 C14.74 3 7.48 3 0 3 C0 2.01 0 1.02 0 0 Z " fill="#C05E77" transform="translate(452,108)"/>
<path d="M0 0 C4.24186602 1.51495215 5.88113905 4.12759895 8 8 C8.75 11.875 8.75 11.875 9 15 C8.67 14.01 8.34 13.02 8 12 C7.34 12 6.68 12 6 12 C5.73445313 11.43410156 5.46890625 10.86820312 5.1953125 10.28515625 C4.84210938 9.55167969 4.48890625 8.81820313 4.125 8.0625 C3.77695312 7.33160156 3.42890625 6.60070312 3.0703125 5.84765625 C2.1315023 3.83667541 2.1315023 3.83667541 0 3 C0 2.01 0 1.02 0 0 Z " fill="#C14869" transform="translate(394,391)"/>
<path d="M0 0 C0.33 0 0.66 0 1 0 C1.50068405 6.75923474 0.19036621 11.99272183 -3 18 C-4.63671875 19.79296875 -4.63671875 19.79296875 -6 21 C-6 19.68 -6 18.36 -6 17 C-5.34 17 -4.68 17 -4 17 C-3.855625 15.906875 -3.71125 14.81375 -3.5625 13.6875 C-3 10 -3 10 -2 7 C-1.34 7 -0.68 7 0 7 C0 4.69 0 2.38 0 0 Z " fill="#D16888" transform="translate(258,406)"/>
<path d="M0 0 C0.66 0 1.32 0 2 0 C2.69640673 2.12209776 3.38188357 4.24778527 4.0625 6.375 C4.44535156 7.55835938 4.82820312 8.74171875 5.22265625 9.9609375 C6 13 6 13 5 15 C0.17970402 10.30021142 0.17970402 10.30021142 -0.33203125 6.59765625 C-0.31450906 4.37934668 -0.22068846 2.20688457 0 0 Z " fill="#C24865" transform="translate(182,274)"/>
<path d="M0 0 C0.99 0 1.98 0 3 0 C3 1.32 3 2.64 3 4 C4.32 4.66 5.64 5.32 7 6 C5.4375 6.6875 5.4375 6.6875 3 7 C1.3050037 6.28288618 -0.38837703 5.55926341 -2.05078125 4.76953125 C-5.30142458 3.48621114 -8.53292436 3.30412944 -12 3 C-12 2.67 -12 2.34 -12 2 C-8.04 2 -4.08 2 0 2 C0 1.34 0 0.68 0 0 Z " fill="#CC4D6E" transform="translate(326,143)"/>
<path d="M0 0 C0.66 0.33 1.32 0.66 2 1 C2 2.32 2 3.64 2 5 C2.99 5 3.98 5 5 5 C6.4783226 7.95664519 6.06032783 10.74229737 6 14 C3.22653883 12.61326942 2.70074287 10.86966354 1.3125 8.125 C0.85488281 7.24070313 0.39726562 6.35640625 -0.07421875 5.4453125 C-1 3 -1 3 0 0 Z " fill="#C13E60" transform="translate(247,220)"/>
<path d="M0 0 C4.13145743 6.19718614 6.65031566 12.52136987 6 20 C5.67 19.34 5.34 18.68 5 18 C4.34 18 3.68 18 3 18 C3 14.7 3 11.4 3 8 C2.34 8 1.68 8 1 8 C0.67 5.36 0.34 2.72 0 0 Z " fill="#C55774" transform="translate(364,170)"/>
<path d="M0 0 C1.32 0 2.64 0 4 0 C5 3 5 3 4 6 C3.93259135 7.56118428 3.91485544 9.1250252 3.9375 10.6875 C3.94652344 11.49574219 3.95554687 12.30398437 3.96484375 13.13671875 C3.97644531 13.75160156 3.98804687 14.36648437 4 15 C1.81257986 11.7188698 1.45557194 9.66915644 0.875 5.8125 C0.70742187 4.72582031 0.53984375 3.63914063 0.3671875 2.51953125 C0.24601562 1.68808594 0.12484375 0.85664062 0 0 Z " fill="#C44364" transform="translate(98,50)"/>
<path d="M0 0 C3.71134205 3.1994328 5.42930118 6.3705719 7 11 C6.6875 13.4375 6.6875 13.4375 6 15 C4 13 4 13 3.875 10.375 C3.91625 9.59125 3.9575 8.8075 4 8 C3.01 7.67 2.02 7.34 1 7 C0.67 4.69 0.34 2.38 0 0 Z " fill="#BC3B59" transform="translate(251,392)"/>
<path d="M0 0 C2.06094315 3.44001292 2.06094315 3.44001292 1.79296875 5.90234375 C1.59316406 6.57394531 1.39335937 7.24554688 1.1875 7.9375 C-0.35452023 13.88671352 -0.64076622 19.8835723 -1 26 C-1.33 26 -1.66 26 -2 26 C-2.0543251 22.97892098 -2.09382927 19.95883472 -2.125 16.9375 C-2.14175781 16.08994141 -2.15851563 15.24238281 -2.17578125 14.36914062 C-2.21596135 9.16581799 -1.69745815 4.92530179 0 0 Z " fill="#CC4C6B" transform="translate(253,179)"/>
<path d="M0 0 C0.33 0 0.66 0 1 0 C1.27908468 5.42121998 0.42721053 9.37857235 -1.5 14.4375 C-1.73847656 15.07365234 -1.97695313 15.70980469 -2.22265625 16.36523438 C-2.80490924 17.91402732 -3.40101069 19.45760253 -4 21 C-5.231394 17.30581799 -4.64432764 14.7943739 -4 11 C-3.34 11 -2.68 11 -2 11 C-2.04125 10.113125 -2.0825 9.22625 -2.125 8.3125 C-2.00102754 5.02722987 -1.38612096 2.94550705 0 0 Z " fill="#C1516E" transform="translate(482,152)"/>
<path d="M0 0 C2.31 0.66 4.62 1.32 7 2 C7 2.66 7 3.32 7 4 C7.99 4 8.98 4 10 4 C10 5.65 10 7.3 10 9 C8.51444617 8.07265428 7.03672494 7.13275187 5.5625 6.1875 C4.73878906 5.66542969 3.91507812 5.14335937 3.06640625 4.60546875 C1 3 1 3 0 0 Z " fill="#C44261" transform="translate(333,150)"/>
<path d="M0 0 C7.75 0.75 7.75 0.75 10 3 C9.01 3.33 8.02 3.66 7 4 C7 3.34 7 2.68 7 2 C5.35 2.33 3.7 2.66 2 3 C2 3.99 2 4.98 2 6 C1.34 6 0.68 6 0 6 C0.33 7.32 0.66 8.64 1 10 C0.01 9.67 -0.98 9.34 -2 9 C-1.34 6.03 -0.68 3.06 0 0 Z " fill="#C95A77" transform="translate(319,163)"/>
<path d="M0 0 C0.33 0 0.66 0 1 0 C1.10822792 3.06345144 1.18741479 6.1230601 1.25 9.1875 C1.28351563 10.05181641 1.31703125 10.91613281 1.3515625 11.80664062 C1.41837569 16.16620157 1.41222114 18.36329409 -1.015625 22.11328125 C-1.67046875 22.73589844 -2.3253125 23.35851562 -3 24 C-2.1025641 18.35897436 -2.1025641 18.35897436 -1.5 16.25 C-0.7994487 13.09751915 -0.6462316 9.97043032 -0.4375 6.75 C-0.31181641 4.85507813 -0.31181641 4.85507813 -0.18359375 2.921875 C-0.12300781 1.95765625 -0.06242187 0.9934375 0 0 Z " fill="#D36884" transform="translate(360,194)"/>
<path d="M0 0 C0.66 0 1.32 0 2 0 C2 0.66 2 1.32 2 2 C2.66 2 3.32 2 4 2 C4 2.99 4 3.98 4 5 C4.66 5 5.32 5 6 5 C8.56687367 8.8503105 7.83288724 10.58569763 7 15 C5.36457914 11.79029551 3.85968003 8.53192428 2.375 5.25 C1.92898438 4.26515625 1.48296875 3.2803125 1.0234375 2.265625 C0.68570312 1.51796875 0.34796875 0.7703125 0 0 Z " fill="#CA5275" transform="translate(351,168)"/>
<path d="M0 0 C0.33 0.66 0.66 1.32 1 2 C0.67 2.99 0.34 3.98 0 5 C-0.66 5 -1.32 5 -2 5 C-1.67 6.65 -1.34 8.3 -1 10 C-4.75 13 -4.75 13 -7 13 C-6.36610765 9.50155614 -4.94822306 7.15913124 -2.9375 4.25 C-2.38964844 3.45078125 -1.84179688 2.6515625 -1.27734375 1.828125 C-0.85582031 1.22484375 -0.43429688 0.6215625 0 0 Z " fill="#C64667" transform="translate(255,159)"/>
<path d="M0 0 C6.57142857 4 6.57142857 4 8 8 C5.69 7.67 3.38 7.34 1 7 C0 2.25 0 2.25 0 0 Z " fill="#C33E5D" transform="translate(348,150)"/>
<path d="M0 0 C0.66 0 1.32 0 2 0 C1.67 1.65 1.34 3.3 1 5 C-0.65 5 -2.3 5 -4 5 C-4.33 5.99 -4.66 6.98 -5 8 C-6.65 8.33 -8.3 8.66 -10 9 C-9.67 8.34 -9.34 7.68 -9 7 C-8.34 7 -7.68 7 -7 7 C-6.67 6.01 -6.34 5.02 -6 4 C-3 2 -3 2 0 2 C0 1.34 0 0.68 0 0 Z " fill="#C94969" transform="translate(272,143)"/>
<path d="M0 0 C0.99 0.33 1.98 0.66 3 1 C4.80886571 5.76017293 5.20666253 9.93676791 5 15 C4.34 14.67 3.68 14.34 3 14 C2.37147066 11.66752185 1.84464754 9.30708533 1.375 6.9375 C1.11460937 5.64714844 0.85421875 4.35679687 0.5859375 3.02734375 C0.39257812 2.02832031 0.19921875 1.02929688 0 0 Z " fill="#B83A58" transform="translate(194,315)"/>
<path d="M0 0 C5.44693314 -0.09688221 10.63904667 -0.12862175 16 1 C16 1.33 16 1.66 16 2 C11.05 2.33 6.1 2.66 1 3 C0.67 2.01 0.34 1.02 0 0 Z " fill="#C84B6B" transform="translate(205,309)"/>
<path d="M0 0 C1 1 1 1 1.0625 4.5625 C1.041875 5.696875 1.02125 6.83125 1 8 C0.34 8 -0.32 8 -1 8 C-1 6.02 -1 4.04 -1 2 C-1.66 2 -2.32 2 -3 2 C-3 1.34 -3 0.68 -3 0 C-5.64 0.33 -8.28 0.66 -11 1 C-8.58751862 -3.82496277 -4.08624128 -1.36208043 0 0 Z " fill="#C55B78" transform="translate(326,189)"/>
<path d="M0 0 C3.96 0 7.92 0 12 0 C12.125 6.75 12.125 6.75 11 9 C10.01 9 9.02 9 8 9 C8.66 6.36 9.32 3.72 10 1 C6.7 1 3.4 1 0 1 C0 0.67 0 0.34 0 0 Z " fill="#C8526F" transform="translate(461,127)"/>
<path d="M0 0 C0.66 0.33 1.32 0.66 2 1 C3.2674668 7.0204673 2.77830479 11.14205483 1 17 C-1.55694972 13.16457543 -1.04045639 11.34097467 -0.625 6.8125 C-0.51414062 5.54019531 -0.40328125 4.26789063 -0.2890625 2.95703125 C-0.19367188 1.98121094 -0.09828125 1.00539063 0 0 Z " fill="#C64C6D" transform="translate(491,114)"/>
<path d="M0 0 C0 0.33 0 0.66 0 1 C-1.0725 1.12375 -2.145 1.2475 -3.25 1.375 C-6.79900754 1.75789544 -6.79900754 1.75789544 -8.90625 3.03125 C-11.49744717 4.23016212 -13.40983358 4.19974122 -16.25 4.125 C-17.14203125 4.10695313 -18.0340625 4.08890625 -18.953125 4.0703125 C-19.96632813 4.03550781 -19.96632813 4.03550781 -21 4 C-21 3.67 -21 3.34 -21 3 C-18.69 3 -16.38 3 -14 3 C-14 2.34 -14 1.68 -14 1 C-9.23692563 0.04738513 -4.8333472 -0.08333357 0 0 Z " fill="#C34B68" transform="translate(353,281)"/>
<path d="M0 0 C1.18771723 3.42943519 0.80226223 5.37784675 -0.4375 8.75 C-0.72496094 9.54921875 -1.01242187 10.3484375 -1.30859375 11.171875 C-1.53675781 11.77515625 -1.76492188 12.3784375 -2 13 C-4.97 13 -7.94 13 -11 13 C-11 12.67 -11 12.34 -11 12 C-9.9275 11.87625 -8.855 11.7525 -7.75 11.625 C-5.76437734 11.18998693 -5.76437734 11.18998693 -4 10 C-2.17044377 6.8154122 -1.04339285 3.5125399 0 0 Z " fill="#BD536C" transform="translate(427,264)"/>
<path d="M0 0 C1.46726798 3.81489674 0.43336419 6.29011622 -1 10 C-1.66 10 -2.32 10 -3 10 C-3 11.32 -3 12.64 -3 14 C-3.66 14 -4.32 14 -5 14 C-3.8545847 8.8896856 -2.54521255 4.62765919 0 0 Z " fill="#C6556F" transform="translate(437,236)"/>
<path d="M0 0 C3.2571168 3.2571168 4.07691985 7.56107045 5 12 C4.6875 15.625 4.6875 15.625 4 18 C2.36427347 15.03095016 1.51349012 12.32420253 0.875 9 C0.70742187 8.154375 0.53984375 7.30875 0.3671875 6.4375 C0 4 0 4 0 0 Z " fill="#C25A78" transform="translate(164,210)"/>
<path d="M0 0 C4.77609498 1.64178265 8.79382904 4.26546702 13 7 C12.67 7.66 12.34 8.32 12 9 C11.01 8.67 10.02 8.34 9 8 C8.67 7.34 8.34 6.68 8 6 C7.01 6 6.02 6 5 6 C5 5.34 5 4.68 5 4 C3.35 4 1.7 4 0 4 C-0.33 3.01 -0.66 2.02 -1 1 C-0.67 0.67 -0.34 0.34 0 0 Z " fill="#C85371" transform="translate(335,141)"/>
<path d="M0 0 C0.66 0.33 1.32 0.66 2 1 C0.79618552 3.49361571 -0.45428722 5.68143083 -2 8 C-2.66 8 -3.32 8 -4 8 C-4.33 8.99 -4.66 9.98 -5 11 C-5.5534764 8.92446352 -6 7.15634036 -6 5 C-4.68 5 -3.36 5 -2 5 C-2 4.01 -2 3.02 -2 2 C-1.34 2 -0.68 2 0 2 C0 1.34 0 0.68 0 0 Z " fill="#C34464" transform="translate(267,157)"/>
<path d="M0 0 C1.65 0 3.3 0 5 0 C1.91367389 3.2626876 -0.93483504 6.02235218 -5 8 C-5.66 7.67 -6.32 7.34 -7 7 C-6.67 6.34 -6.34 5.68 -6 5 C-5.01 5 -4.02 5 -3 5 C-3 4.34 -3 3.68 -3 3 C-2.01 3 -1.02 3 0 3 C0 2.01 0 1.02 0 0 Z " fill="#C14467" transform="translate(246,428)"/>
<path d="M0 0 C1.9375 1 1.9375 1 4 3 C4.66549451 5.69924572 4.81680763 8.20631637 5 11 C4.01 11.495 4.01 11.495 3 12 C2.49440092 10.56445975 1.9957251 9.1264798 1.5 7.6875 C1.2215625 6.88699219 0.943125 6.08648437 0.65625 5.26171875 C0 3 0 3 0 0 Z " fill="#C34263" transform="translate(176,314)"/>
<path d="M0 0 C0.33 0.99 0.66 1.98 1 3 C-1.1875 6.1875 -1.1875 6.1875 -4 9 C-5.32 9 -6.64 9 -8 9 C-8 8.01 -8 7.02 -8 6 C-6.68 6 -5.36 6 -4 6 C-3.67 5.01 -3.34 4.02 -3 3 C-2.01 2.67 -1.02 2.34 0 2 C0 1.34 0 0.68 0 0 Z " fill="#C4506D" transform="translate(440,284)"/>
<path d="M0 0 C0.33 0.99 0.66 1.98 1 3 C1.99 3.33 2.98 3.66 4 4 C1.89936424 4.69821417 -0.20565737 5.38324472 -2.3125 6.0625 C-3.48425781 6.44535156 -4.65601563 6.82820313 -5.86328125 7.22265625 C-9 8 -9 8 -12 7 C-10.5437455 6.32880451 -9.08492133 5.66318193 -7.625 5 C-6.81289063 4.62875 -6.00078125 4.2575 -5.1640625 3.875 C-3 3 -3 3 -1 3 C-0.67 2.01 -0.34 1.02 0 0 Z " fill="#CF5A79" transform="translate(330,254)"/>
<path d="M0 0 C-0.33 1.32 -0.66 2.64 -1 4 C-1.495 3.814375 -1.99 3.62875 -2.5 3.4375 C-6.15081689 2.79860704 -9.33964724 3.45094709 -13 4 C-9.0516245 0.65906688 -5.11813443 -1.70604481 0 0 Z " fill="#CA5976" transform="translate(294,163)"/>
<path d="M0 0 C0.66 0.33 1.32 0.66 2 1 C2.875 3.8125 2.875 3.8125 3 7 C1.0625 9.375 1.0625 9.375 -1 11 C-1.33 10.01 -1.66 9.02 -2 8 C-1.34 8 -0.68 8 0 8 C-0.2784375 6.8553125 -0.2784375 6.8553125 -0.5625 5.6875 C-1 3 -1 3 0 0 Z " fill="#BF2A4E" transform="translate(359,225)"/>
<path d="M0 0 C1.65 0 3.3 0 5 0 C4.34 2.31 3.68 4.62 3 7 C1.68 6.67 0.36 6.34 -1 6 C-0.67 4.02 -0.34 2.04 0 0 Z " fill="#C42950" transform="translate(247,172)"/>
<path d="M0 0 C0.33 0 0.66 0 1 0 C1.06058594 0.91523438 1.12117187 1.83046875 1.18359375 2.7734375 C1.26738281 3.96195312 1.35117188 5.15046875 1.4375 6.375 C1.51871094 7.55835938 1.59992188 8.74171875 1.68359375 9.9609375 C1.81084936 12.91518901 1.81084936 12.91518901 3 15 C2.34 15.66 1.68 16.32 1 17 C-0.93205899 15.06794101 -0.44154433 11.64398339 -0.625 9.0625 C-0.72039062 7.79535156 -0.81578125 6.52820313 -0.9140625 5.22265625 C-1 2 -1 2 0 0 Z " fill="#B74064" transform="translate(206,405)"/>
<path d="M0 0 C0.33 0.99 0.66 1.98 1 3 C6.61 3.33 12.22 3.66 18 4 C18 4.33 18 4.66 18 5 C9.585 5.495 9.585 5.495 1 6 C0.67 4.02 0.34 2.04 0 0 Z " fill="#C75C77" transform="translate(188,290)"/>
<path d="M0 0 C2.97 0.495 2.97 0.495 6 1 C5.67 1.66 5.34 2.32 5 3 C4.34 3 3.68 3 3 3 C2.67 3.99 2.34 4.98 2 6 C-0.97 5.505 -0.97 5.505 -4 5 C-2.68 3.35 -1.36 1.7 0 0 Z " fill="#C2133C" transform="translate(274,246)"/>
<path d="M0 0 C0.33 0 0.66 0 1 0 C1.28571429 7.42857143 1.28571429 7.42857143 -1 11 C-2.32 10.67 -3.64 10.34 -5 10 C-3.35 6.7 -1.7 3.4 0 0 Z " fill="#C85271" transform="translate(356,218)"/>
<path d="M0 0 C2.00993705 3.01490557 2.72623341 5.2149927 3.625 8.6875 C3.88539063 9.68136719 4.14578125 10.67523438 4.4140625 11.69921875 C4.60742188 12.45847656 4.80078125 13.21773437 5 14 C4.01 13.67 3.02 13.34 2 13 C0.34950283 8.56971812 -0.22973141 4.70949382 0 0 Z " fill="#C76983" transform="translate(154,177)"/>
<path d="M0 0 C0.99 0.33 1.98 0.66 3 1 C0.85211998 3.54563558 -0.27916395 4.87986066 -3.625 5.4375 C-4.40875 5.293125 -5.1925 5.14875 -6 5 C-6.66 4.01 -7.32 3.02 -8 2 C-6.865625 1.855625 -5.73125 1.71125 -4.5625 1.5625 C-1.19222799 1.38828522 -1.19222799 1.38828522 0 0 Z " fill="#C7516F" transform="translate(276,179)"/>
<path d="M0 0 C0.33 0 0.66 0 1 0 C1.53293835 1.74635165 2.05090663 3.49727652 2.5625 5.25 C2.85253906 6.22453125 3.14257812 7.1990625 3.44140625 8.203125 C3.99249836 10.96243932 3.93789609 12.3912824 3 15 C3 14.01 3 13.02 3 12 C2.01 12 1.02 12 0 12 C0 8.04 0 4.08 0 0 Z " fill="#C45A7B" transform="translate(146,148)"/>
<path d="M0 0 C0.83699015 2.51097045 1.22847925 4.46850711 1.5 7.0625 C1.75110652 10.7780278 1.75110652 10.7780278 3 13 C1.0625 12.1875 1.0625 12.1875 -1 11 C-2.1577506 7.52674819 -2.06866652 4.63932552 -2 1 C-1.34 0.67 -0.68 0.34 0 0 Z " fill="#C14D6A" transform="translate(48,30)"/>
<path d="M0 0 C0.66 0 1.32 0 2 0 C2.33 4.62 2.66 9.24 3 14 C1.02103213 11.03154819 0.47758046 9.30541501 -0.1875 5.875 C-0.36667969 4.98554688 -0.54585937 4.09609375 -0.73046875 3.1796875 C-0.81941406 2.46039063 -0.90835938 1.74109375 -1 1 C-0.67 0.67 -0.34 0.34 0 0 Z " fill="#C75B78" transform="translate(129,152)"/>
<path d="M0 0 C0.66 0 1.32 0 2 0 C1.88590407 1.45922693 1.75834456 2.91740598 1.625 4.375 C1.55539062 5.18710938 1.48578125 5.99921875 1.4140625 6.8359375 C1 9 1 9 -1 11 C-2.0257259 6.58937864 -2.03684712 4.07369424 0 0 Z " fill="#C43E61" transform="translate(469,136)"/>
<path d="M0 0 C0.66 0 1.32 0 2 0 C2 1.98 2 3.96 2 6 C2.99 6.33 3.98 6.66 5 7 C4.67 8.65 4.34 10.3 4 12 C4.66 12.33 5.32 12.66 6 13 C5.01 14.485 5.01 14.485 4 16 C3.33011414 13.70922959 2.66396838 11.41748541 2 9.125 C1.80921875 8.47402344 1.6184375 7.82304688 1.421875 7.15234375 C0 2.2265625 0 2.2265625 0 0 Z " fill="#CB6B87" transform="translate(117,116)"/>
<path d="M0 0 C4.29 0.33 8.58 0.66 13 1 C13 1.66 13 2.32 13 3 C11.58430936 3.08167446 10.16723195 3.13949698 8.75 3.1875 C7.96109375 3.22230469 7.1721875 3.25710937 6.359375 3.29296875 C4 3 4 3 0 0 Z " fill="#C75171" transform="translate(166,81)"/>
<path d="M0 0 C2.625 0.375 2.625 0.375 5 1 C4.34 2.32 3.68 3.64 3 5 C2.34 5 1.68 5 1 5 C0.67 5.66 0.34 6.32 0 7 C-0.66 5.35 -1.32 3.7 -2 2 C-1.34 1.34 -0.68 0.68 0 0 Z " fill="#C54061" transform="translate(348,241)"/>
<path d="M0 0 C0.99 0 1.98 0 3 0 C3.66 1.65 4.32 3.3 5 5 C2.69 5 0.38 5 -2 5 C-1.34 3.35 -0.68 1.7 0 0 Z " fill="#CB113C" transform="translate(304,215)"/>
<path d="M0 0 C1.25955231 3.77865693 0.48087189 5.03411786 -0.9375 8.6875 C-1.31777344 9.68136719 -1.69804687 10.67523438 -2.08984375 11.69921875 C-2.39019531 12.45847656 -2.69054687 13.21773437 -3 14 C-3.33 14 -3.66 14 -4 14 C-4.49940808 7.88225104 -3.24900602 4.97504047 0 0 Z " fill="#C85E7C" transform="translate(468,199)"/>
<path d="M0 0 C0 3.3 0 6.6 0 10 C-1.98611612 8.01388388 -2.91454712 6.55856751 -4 4 C-4 3.01 -4 2.02 -4 1 C-2 0 -2 0 0 0 Z " fill="#C1254C" transform="translate(477,167)"/>
<path d="M0 0 C0.99 0.495 0.99 0.495 2 1 C2 3.64 2 6.28 2 9 C2.66 9 3.32 9 4 9 C4 9.99 4 10.98 4 12 C3.01 11.67 2.02 11.34 1 11 C-0.28317892 7.15046324 -0.06643637 4.05261865 0 0 Z " fill="#B31A41" transform="translate(119,61)"/>
<path d="M0 0 C0.99 0.33 1.98 0.66 3 1 C3 3.31 3 5.62 3 8 C3.66 8 4.32 8 5 8 C4.34 9.32 3.68 10.64 3 12 C2.49440092 10.56445975 1.9957251 9.1264798 1.5 7.6875 C1.2215625 6.88699219 0.943125 6.08648437 0.65625 5.26171875 C0 3 0 3 0 0 Z " fill="#CB5973" transform="translate(168,288)"/>
<path d="M0 0 C0.33 1.32 0.66 2.64 1 4 C1.66 4 2.32 4 3 4 C2.67 6.64 2.34 9.28 2 12 C1.67 12 1.34 12 1 12 C0.63762737 10.37681021 0.28534843 8.7513642 -0.0625 7.125 C-0.25972656 6.22007812 -0.45695313 5.31515625 -0.66015625 4.3828125 C-1 2 -1 2 0 0 Z " fill="#C3516D" transform="translate(160,255)"/>
<path d="M0 0 C2.31 0.33 4.62 0.66 7 1 C7.66 2.65 8.32 4.3 9 6 C5.06326356 4.68775452 2.77280706 3.08089673 0 0 Z " fill="#C54B6A" transform="translate(270,251)"/>
<path d="M0 0 C0.33 0 0.66 0 1 0 C0.67 2.97 0.34 5.94 0 9 C-0.99 9.33 -1.98 9.66 -3 10 C-2.67 9.01 -2.34 8.02 -2 7 C-2.66 6.34 -3.32 5.68 -4 5 C-3.34 5 -2.68 5 -2 5 C-1.34 3.35 -0.68 1.7 0 0 Z " fill="#C7395C" transform="translate(350,229)"/>
<path d="M0 0 C1.32 0.66 2.64 1.32 4 2 C3.34 2 2.68 2 2 2 C2.226875 2.763125 2.45375 3.52625 2.6875 4.3125 C2.790625 5.199375 2.89375 6.08625 3 7 C1.51953125 8.66796875 1.51953125 8.66796875 0 10 C-0.19412181 8.52168779 -0.38012131 7.04230684 -0.5625 5.5625 C-0.66691406 4.73878906 -0.77132812 3.91507813 -0.87890625 3.06640625 C-0.91886719 2.38449219 -0.95882812 1.70257813 -1 1 C-0.67 0.67 -0.34 0.34 0 0 Z " fill="#C33C5E" transform="translate(144,200)"/>
<path d="M0 0 C2.73704754 2.73704754 3.16182449 5.26044774 4 9 C3.625 11.4375 3.625 11.4375 3 13 C0.41073669 10.41073669 0.62601957 8.97294721 0.375 5.375 C0.30023438 4.37210938 0.22546875 3.36921875 0.1484375 2.3359375 C0.09945312 1.56507813 0.05046875 0.79421875 0 0 Z " fill="#C75A7B" transform="translate(150,163)"/>
<path d="M0 0 C0.99 0.99 1.98 1.98 3 3 C2.01 3.99 1.02 4.98 0 6 C-2.475 5.01 -2.475 5.01 -5 4 C-4.0409375 3.8453125 -4.0409375 3.8453125 -3.0625 3.6875 C-2.381875 3.460625 -1.70125 3.23375 -1 3 C-0.67 2.01 -0.34 1.02 0 0 Z " fill="#C93152" transform="translate(270,245)"/>
<path d="M0 0 C0 3 0 3 -1 6 C-2.32303717 6.3721042 -3.65737935 6.70630173 -5 7 C-5.33 7.66 -5.66 8.32 -6 9 C-6.99 8.67 -7.98 8.34 -9 8 C-8.21625 7.7525 -7.4325 7.505 -6.625 7.25 C-3.60938271 5.81399177 -3.21785344 4.99779308 -2 2 C-1.34 1.34 -0.68 0.68 0 0 Z " fill="#CE6E8A" transform="translate(345,235)"/>
<path d="M0 0 C0.33 0.99 0.66 1.98 1 3 C1.66 3 2.32 3 3 3 C2.67 4.32 2.34 5.64 2 7 C-0.475 6.01 -0.475 6.01 -3 5 C-2.01 3.35 -1.02 1.7 0 0 Z " fill="#BF1D43" transform="translate(285,227)"/>
<path d="M0 0 C0.33 0.66 0.66 1.32 1 2 C-3.455 3.485 -3.455 3.485 -8 5 C-7.67 3.68 -7.34 2.36 -7 1 C-4.53721199 -0.231394 -2.7204945 -0.07159196 0 0 Z " fill="#C53F62" transform="translate(302,221)"/>
<path d="M0 0 C4.29 0 8.58 0 13 0 C13 0.99 13 1.98 13 3 C8.65535464 2.39174965 4.32448133 1.73832608 0 1 C0 0.67 0 0.34 0 0 Z " fill="#BF3D5D" transform="translate(303,221)"/>
<path d="M0 0 C0.99 0.495 0.99 0.495 2 1 C2 2.32 2 3.64 2 5 C3.32 5.66 4.64 6.32 6 7 C5.34 8.32 4.68 9.64 4 11 C3.67 11 3.34 11 3 11 C3 9.35 3 7.7 3 6 C2.34 6 1.68 6 1 6 C0.67 4.02 0.34 2.04 0 0 Z " fill="#B91940" transform="translate(145,206)"/>
<path d="M0 0 C0.33 0 0.66 0 1 0 C1.33 2.31 1.66 4.62 2 7 C1.01 7.33 0.02 7.66 -1 8 C-1 9.32 -1 10.64 -1 12 C-1.66 12 -2.32 12 -3 12 C-2.68950274 10.56206608 -2.3765224 9.1246682 -2.0625 7.6875 C-1.88847656 6.88699219 -1.71445312 6.08648437 -1.53515625 5.26171875 C-1 3 -1 3 0 0 Z " fill="#C85D75" transform="translate(453,184)"/>
<path d="M0 0 C0.78375 0.04125 1.5675 0.0825 2.375 0.125 C2.375 0.785 2.375 1.445 2.375 2.125 C5.015 2.125 7.655 2.125 10.375 2.125 C10.375 2.455 10.375 2.785 10.375 3.125 C-0.18308656 3.30951025 -0.18308656 3.30951025 -4.625 2.125 C-2.625 0.125 -2.625 0.125 0 0 Z " fill="#CF6E81" transform="translate(160.625,96.875)"/>
<path d="M0 0 C1.32 0 2.64 0 4 0 C3.1875 2.4375 3.1875 2.4375 2 5 C1.01 5.33 0.02 5.66 -1 6 C-1.042721 4.33388095 -1.04063832 2.66617115 -1 1 C-0.67 0.67 -0.34 0.34 0 0 Z " fill="#C63B5B" transform="translate(354,236)"/>
<path d="M0 0 C0.66 0 1.32 0 2 0 C0.25 7.625 0.25 7.625 -2 11 C-1.85957123 9.35369672 -1.71250671 7.70795821 -1.5625 6.0625 C-1.48128906 5.14597656 -1.40007812 4.22945312 -1.31640625 3.28515625 C-1 1 -1 1 0 0 Z " fill="#C0536B" transform="translate(457,229)"/>
<path d="M0 0 C0.33 0 0.66 0 1 0 C1.25 6.625 1.25 6.625 -1 10 C-1.66 7.36 -2.32 4.72 -3 2 C-2.01 2 -1.02 2 0 2 C0 1.34 0 0.68 0 0 Z " fill="#C0385A" transform="translate(463,209)"/>
<path d="M0 0 C-0.33 0.66 -0.66 1.32 -1 2 C-6.94 1.01 -6.94 1.01 -13 0 C-13 -0.33 -13 -0.66 -13 -1 C-8.08295331 -2.26438344 -4.75035002 -1.58345001 0 0 Z " fill="#C25170" transform="translate(112,33)"/>
<path d="M0 0 C0.33 0.66 0.66 1.32 1 2 C0.0625 4.625 0.0625 4.625 -1 7 C-1.66 7 -2.32 7 -3 7 C-3 7.66 -3 8.32 -3 9 C-3.66 9 -4.32 9 -5 9 C-3.7508258 5.54074837 -2.32472205 2.85306797 0 0 Z " fill="#CB5E7C" transform="translate(212,391)"/>
<path d="M0 0 C0.33 0.66 0.66 1.32 1 2 C1.66 2.309375 2.32 2.61875 3 2.9375 C5 4 5 4 6 7 C6.66 7.33 7.32 7.66 8 8 C4.21479387 7.45925627 2.40822445 5.92427254 0 3 C0 2.01 0 1.02 0 0 Z " fill="#CB6279" transform="translate(187,351)"/>
<path d="M0 0 C1.9375 0.8125 1.9375 0.8125 4 2 C4.33 2.99 4.66 3.98 5 5 C3.0625 5.5625 3.0625 5.5625 1 6 C0 5 0 5 -0.0625 2.4375 C-0.041875 1.633125 -0.02125 0.82875 0 0 Z " fill="#BD3B5E" transform="translate(416,341)"/>
<path d="M0 0 C2.52259061 1.97420135 2.9929808 2.96745642 3.6875 6.1875 C3.790625 7.115625 3.89375 8.04375 4 9 C3.34 9 2.68 9 2 9 C0.4375 6.1875 0.4375 6.1875 -1 3 C-0.67 2.01 -0.34 1.02 0 0 Z " fill="#BA3352" transform="translate(186,344)"/>
<path d="M0 0 C2.56616632 3.84924948 2.55097676 6.4349304 3 11 C1.68 10.34 0.36 9.68 -1 9 C-0.34 8.67 0.32 8.34 1 8 C0.67 7.34 0.34 6.68 0 6 C-0.039992 4.00039988 -0.04346799 1.99952758 0 0 Z " fill="#B41C43" transform="translate(169,231)"/>
<path d="M0 0 C0.66 0 1.32 0 2 0 C2 0.66 2 1.32 2 2 C3.98 2 5.96 2 8 2 C8 2.66 8 3.32 8 4 C4.625 4.1875 4.625 4.1875 1 4 C0.34 3.01 -0.32 2.02 -1 1 C-0.67 0.67 -0.34 0.34 0 0 Z " fill="#B73758" transform="translate(316,196)"/>
<path d="M0 0 C0.33 0 0.66 0 1 0 C1.36923077 5.53846154 1.36923077 5.53846154 -0.5 7.875 C-1.2425 8.431875 -1.2425 8.431875 -2 9 C-3.32 8.34 -4.64 7.68 -6 7 C-2.25 5 -2.25 5 0 5 C0 3.35 0 1.7 0 0 Z " fill="#CE617A" transform="translate(298,191)"/>
<path d="M0 0 C0.99 0 1.98 0 3 0 C2.979375 0.94875 2.95875 1.8975 2.9375 2.875 C2.77448174 5.90666283 2.77448174 5.90666283 4 8 C3.34 8.66 2.68 9.32 2 10 C1.34 6.7 0.68 3.4 0 0 Z " fill="#CE5D78" transform="translate(138,186)"/>
<path d="M0 0 C-0.66 1.32 -1.32 2.64 -2 4 C-3.98 3.34 -5.96 2.68 -8 2 C-8 1.34 -8 0.68 -8 0 C-4.71303767 -0.79953138 -3.28976808 -1.09658936 0 0 Z " fill="#C84569" transform="translate(335,175)"/>
<path d="M0 0 C0.99 0.33 1.98 0.66 3 1 C4.1875 4.0625 4.1875 4.0625 5 7 C4.01 7.33 3.02 7.66 2 8 C1.67 6.35 1.34 4.7 1 3 C0.34 3 -0.32 3 -1 3 C-0.67 2.01 -0.34 1.02 0 0 Z " fill="#C92451" transform="translate(256,163)"/>
<path d="M0 0 C2.46254526 2.1413437 3.69050349 3.69870394 4 7 C3.01 8.485 3.01 8.485 2 10 C0.68373308 6.38026598 0 3.90432869 0 0 Z " fill="#C04868" transform="translate(165,276)"/>
<path d="M0 0 C0.33 0 0.66 0 1 0 C1 2.64 1 5.28 1 8 C-0.98 8.99 -0.98 8.99 -3 10 C-2.01 6.7 -1.02 3.4 0 0 Z " fill="#C8637A" transform="translate(444,212)"/>
<path d="M0 0 C0.33 0 0.66 0 1 0 C1.125 7.625 1.125 7.625 0 11 C-0.66 11 -1.32 11 -2 11 C-1 3.57142857 -1 3.57142857 0 0 Z " fill="#CA5E77" transform="translate(447,201)"/>
<path d="M0 0 C0.66 0.33 1.32 0.66 2 1 C2 2.65 2 4.3 2 6 C0.35 6.33 -1.3 6.66 -3 7 C-2.01 4.69 -1.02 2.38 0 0 Z " fill="#BA153F" transform="translate(296,190)"/>
<path d="M0 0 C1.9375 0.75 1.9375 0.75 4 2 C4.8125 4 4.8125 4 5 6 C4.67 6.66 4.34 7.32 4 8 C3.34 8 2.68 8 2 8 C1.34 5.36 0.68 2.72 0 0 Z " fill="#C05D74" transform="translate(342,173)"/>
<path d="M0 0 C0.33 0 0.66 0 1 0 C1.33 3.63 1.66 7.26 2 11 C-0.7865517 8.2134483 -0.65662895 5.84575573 -1 2 C-0.67 1.34 -0.34 0.68 0 0 Z " fill="#C4476B" transform="translate(133,164)"/>
<path d="M0 0 C0.6875 2.0625 0.6875 2.0625 1 4 C0.01 4.495 0.01 4.495 -1 5 C-1.66 4.01 -2.32 3.02 -3 2 C-5.05925139 1.27617533 -5.05925139 1.27617533 -7 1 C-3.375 -1.125 -3.375 -1.125 0 0 Z " fill="#BE153D" transform="translate(268,152)"/>
<path d="M0 0 C-0.33 0.99 -0.66 1.98 -1 3 C-2.65 3 -4.3 3 -6 3 C-6 3.66 -6 4.32 -6 5 C-7.32 4.67 -8.64 4.34 -10 4 C-3.375 0 -3.375 0 0 0 Z " fill="#CF6881" transform="translate(284,138)"/>
<path d="M0 0 C0.66 0.33 1.32 0.66 2 1 C2 2.98 2 4.96 2 7 C0.62437146 5.71034824 -0.70766393 4.37310707 -2 3 C-2 2.34 -2 1.68 -2 1 C-1.34 0.67 -0.68 0.34 0 0 Z " fill="#C5506A" transform="translate(210,421)"/>
<path d="M0 0 C2.29633824 3.44450737 2.54016485 5.93812283 3 10 C2.34 10 1.68 10 1 10 C-0.60725635 6.78548731 -0.05748185 3.56387464 0 0 Z " fill="#B21E42" transform="translate(148,160)"/>
<path d="M0 0 C1.43836751 0.11458693 2.87570966 0.24209116 4.3125 0.375 C5.51326172 0.47941406 5.51326172 0.47941406 6.73828125 0.5859375 C9 1 9 1 12 3 C7.45194365 3.17835515 4.1205746 2.99785435 0 1 C0 0.67 0 0.34 0 0 Z " fill="#C7637B" transform="translate(315,135)"/>
<path d="M0 0 C2.64 0 5.28 0 8 0 C8 0.66 8 1.32 8 2 C5.36 2.33 2.72 2.66 0 3 C0 2.01 0 1.02 0 0 Z " fill="#C83E5E" transform="translate(452,108)"/>
<path d="M0 0 C2.60334924 2.71182212 2.99456691 3.89133813 3.1875 7.75 C3.0946875 9.35875 3.0946875 9.35875 3 11 C0.43383368 7.15075052 0.44902324 4.5650696 0 0 Z " fill="#C9677E" transform="translate(108,84)"/>
<path d="M0 0 C0.33 0.99 0.66 1.98 1 3 C-0.375 5.6875 -0.375 5.6875 -2 8 C-2.33 8 -2.66 8 -3 8 C-3 6.35 -3 4.7 -3 3 C-2.34 3 -1.68 3 -1 3 C-0.67 2.01 -0.34 1.02 0 0 Z " fill="#CB5771" transform="translate(401,418)"/>
<path d="M0 0 C2.5654594 2.5654594 2.54046087 4.47686668 3 8 C2.01 8.495 2.01 8.495 1 9 C-0.4783226 6.04335481 -0.06032783 3.25770263 0 0 Z " fill="#C64967" transform="translate(255,398)"/>
<path d="M0 0 C0.66 0.33 1.32 0.66 2 1 C0.625 3 0.625 3 -1 5 C-1.66 5 -2.32 5 -3 5 C-3.33 5.66 -3.66 6.32 -4 7 C-4.33 6.01 -4.66 5.02 -5 4 C-4.34 4 -3.68 4 -3 4 C-3 3.34 -3 2.68 -3 2 C-2.01 1.34 -1.02 0.68 0 0 Z " fill="#C9627B" transform="translate(218,386)"/>
<path d="M0 0 C0.99 0 1.98 0 3 0 C3 0.99 3 1.98 3 3 C3.99 3 4.98 3 6 3 C6 3.66 6 4.32 6 5 C4.35 4.67 2.7 4.34 1 4 C0.67 2.68 0.34 1.36 0 0 Z " fill="#C54B66" transform="translate(324,230)"/>
<path d="M0 0 C1.5 1.25 1.5 1.25 3 3 C3 4.32 3 5.64 3 7 C1.35 6.67 -0.3 6.34 -2 6 C-2 5.34 -2 4.68 -2 4 C-1.34 4 -0.68 4 0 4 C0 2.68 0 1.36 0 0 Z " fill="#BD143E" transform="translate(330,224)"/>
<path d="M0 0 C3.63 0 7.26 0 11 0 C11 0.33 11 0.66 11 1 C7.37 1.66 3.74 2.32 0 3 C0 2.01 0 1.02 0 0 Z " fill="#D4768D" transform="translate(287,145)"/>
</svg>
