<?xml version="1.0" encoding="UTF-8"?>
<svg version="1.1" xmlns="http://www.w3.org/2000/svg" width="401" height="126">
<path d="M0 0 C0.94912262 -0.0033284 1.89824524 -0.0066568 2.87612915 -0.01008606 C4.89544184 -0.01516397 6.91476297 -0.01749412 8.93408203 -0.01733398 C11.99135743 -0.01949749 15.0482584 -0.03757948 18.10546875 -0.05664062 C20.07031127 -0.05957915 22.0351555 -0.06156087 24 -0.0625 C25.35380264 -0.07327827 25.35380264 -0.07327827 26.73495483 -0.08427429 C36.54895394 -0.0498398 45.84431097 0.77167081 53.6640625 7.16796875 C57.99719278 11.61512877 59.42661116 15.79345538 60.0390625 21.91796875 C59.77714142 29.99130097 55.95897042 36.63100532 50.546875 42.40625 C47.77065024 45.00392089 44.84618199 47.0898499 41.6640625 49.16796875 C42.4065625 49.82796875 43.1490625 50.48796875 43.9140625 51.16796875 C49.97079831 57.43177245 51.30056619 63.55082676 51.20239258 72.16333008 C50.76963194 81.49766089 46.7683256 88.076385 40.02734375 94.34765625 C28.86589624 102.94473814 16.97866785 104.49320104 3.3125 104.36328125 C2.17245514 104.36045135 1.03241028 104.35762146 -0.1421814 104.35470581 C-3.74854464 104.34359807 -7.35465055 104.31851107 -10.9609375 104.29296875 C-13.42056931 104.28292679 -15.88020504 104.27380308 -18.33984375 104.265625 C-24.33862802 104.24368962 -30.33726436 104.2103069 -36.3359375 104.16796875 C-33.07587997 88.66601016 -29.09423989 73.36561561 -25.0859375 58.04296875 C-24.42939362 55.52351406 -23.77314154 53.00398332 -23.1171875 50.484375 C-21.5267955 44.37802661 -19.93282294 38.27262205 -18.3359375 32.16796875 C-20.3159375 32.16796875 -22.2959375 32.16796875 -24.3359375 32.16796875 C-24.6659375 31.50796875 -24.9959375 30.84796875 -25.3359375 30.16796875 C-24.36232992 27.92562283 -23.33253791 25.81754484 -22.1875 23.6640625 C-21.85551605 23.02557877 -21.5235321 22.38709503 -21.18148804 21.72926331 C-20.11539515 19.68401973 -19.03808697 17.64490692 -17.9609375 15.60546875 C-17.24149695 14.22627145 -16.52273804 12.84671836 -15.8046875 11.46679688 C-15.12040444 10.15723171 -14.43552841 8.84797618 -13.75 7.5390625 C-13.42391754 6.91615829 -13.09783508 6.29325409 -12.76187134 5.651474 C-9.35500433 -0.79339851 -7.01957296 0.00846525 0 0 Z M12.6640625 28.16796875 C11.6740625 32.78796875 10.6840625 37.40796875 9.6640625 42.16796875 C12.479375 42.26078125 12.479375 42.26078125 15.3515625 42.35546875 C16.93517578 42.40767578 16.93517578 42.40767578 18.55078125 42.4609375 C22.0548463 42.13119487 23.84561942 41.22779346 26.6640625 39.16796875 C28.72324285 36.45359465 28.68651013 35.36251485 28.2890625 31.91796875 C28.0828125 31.01046875 27.8765625 30.10296875 27.6640625 29.16796875 C22.76337287 27.53440554 17.80667774 28.11267181 12.6640625 28.16796875 Z M4.6640625 61.16796875 C3.3440625 66.44796875 2.0240625 71.72796875 0.6640625 77.16796875 C11.15559307 77.83091059 11.15559307 77.83091059 20.6640625 74.16796875 C23.13349779 70.46381582 23.13319339 68.5465237 22.6640625 64.16796875 C20.23095612 61.52302475 18.82367402 61.18151045 15.2109375 60.875 C13.95796875 60.90980469 12.705 60.94460937 11.4140625 60.98046875 C9.1865625 61.04234375 6.9590625 61.10421875 4.6640625 61.16796875 Z " fill="#025EAD" transform="translate(178.3359375,9.83203125)"/>
<path d="M0 0 C2.05604553 -0.36749268 2.05604553 -0.36749268 4.61743164 -0.35644531 C5.57504898 -0.35944641 6.53266632 -0.36244751 7.51930237 -0.36553955 C8.55578415 -0.35319275 9.59226593 -0.34084595 10.66015625 -0.328125 C12.25046913 -0.32531525 12.25046913 -0.32531525 13.87290955 -0.32244873 C16.11655822 -0.31571839 18.36019497 -0.30178459 20.60375977 -0.28125 C24.05170501 -0.25009753 27.49919363 -0.24028134 30.94726562 -0.234375 C33.12240145 -0.22520545 35.29753259 -0.21482983 37.47265625 -0.203125 C38.51116226 -0.19887512 39.54966827 -0.19462524 40.61964417 -0.19024658 C41.57410934 -0.18063904 42.52857452 -0.17103149 43.51196289 -0.16113281 C44.35642471 -0.15430481 45.20088654 -0.14747681 46.07093811 -0.14044189 C48 0 48 0 49 1 C49.20866357 3.02904686 49.34947789 5.06507966 49.46484375 7.1015625 C49.50244308 7.74913513 49.54004242 8.39670776 49.57878113 9.06390381 C49.7037351 11.25067046 49.8210125 13.43776689 49.9375 15.625 C49.97913269 16.38242493 50.02076538 17.13984985 50.06365967 17.92022705 C50.78523269 31.05340138 51.40942054 44.1916322 51.99026489 57.33172607 C52.07867137 59.32857113 52.16836993 61.32535949 52.25949097 63.32208252 C52.87398823 76.89603915 53.08179021 90.41114032 53 104 C42.11 104 31.22 104 20 104 C20 98.06 20 92.12 20 86 C12.74 86 5.48 86 -2 86 C-2.99 88.97 -3.98 91.94 -5 95 C-6.32 97.97 -7.64 100.94 -9 104 C-20.88 104 -32.76 104 -45 104 C-43.47696703 99.43090109 -41.81085405 95.34124289 -39.65625 91.08203125 C-39.16825928 90.10619331 -39.16825928 90.10619331 -38.67041016 89.11064148 C-37.61780053 87.00912574 -36.55914823 84.91072689 -35.5 82.8125 C-34.77004497 81.35944398 -34.04022798 79.9063186 -33.31054688 78.453125 C-29.06945638 70.02234472 -24.76229854 61.63023835 -20.32861328 53.29882812 C-16.41238552 45.93544255 -12.69239489 38.47761535 -9 31 C-11.31 31 -13.62 31 -16 31 C-15.4059762 26.99429803 -14.13816438 24.08930666 -12.12890625 20.5859375 C-11.55462891 19.57789062 -10.98035156 18.56984375 -10.38867188 17.53125 C-9.78603516 16.4896875 -9.18339844 15.448125 -8.5625 14.375 C-7.96373047 13.32570313 -7.36496094 12.27640625 -6.74804688 11.1953125 C-2.4015377 3.60230655 -2.4015377 3.60230655 0 0 Z M19 34 C17.43121484 37.82599998 15.86469215 41.65291737 14.30029297 45.48071289 C13.76739156 46.78370397 13.23386427 48.08643926 12.69970703 49.38891602 C11.9335887 51.25730664 11.16988108 53.12668519 10.40625 54.99609375 C9.94541016 56.12200928 9.48457031 57.2479248 9.00976562 58.40795898 C7.93950124 60.69166858 7.93950124 60.69166858 8 62 C11.96 62 15.92 62 20 62 C20 52.76 20 43.52 20 34 C19.67 34 19.34 34 19 34 Z " fill="#015EAD" transform="translate(348,10)"/>
<path d="M0 0 C5.14965858 0.58706108 9.26176492 3.01930252 13.75 5.4375 C14.52988281 5.84548828 15.30976563 6.25347656 16.11328125 6.67382812 C21.87164252 9.74328505 21.87164252 9.74328505 23 12 C22.01368791 14.1837998 20.97393477 16.22890847 19.81640625 18.3203125 C19.31487282 19.24830154 19.31487282 19.24830154 18.8032074 20.19503784 C17.73043462 22.1758516 16.64664194 24.15038993 15.5625 26.125 C14.83455424 27.46444607 14.10733109 28.80428513 13.38085938 30.14453125 C11.59560173 33.43431117 9.80043602 36.71850416 8 40 C5.985347 38.99385534 3.97204935 37.98578326 1.96484375 36.96484375 C1.29582031 36.62582031 0.62679687 36.28679688 -0.0625 35.9375 C-0.73410156 35.59589844 -1.40570313 35.25429688 -2.09765625 34.90234375 C-9.07146307 31.59443949 -18.65244141 31.99250531 -26.1015625 33.71875 C-34.28896454 36.78593385 -39.04781498 42.35404206 -43 50 C-44.80950559 55.76993292 -44.90469236 61.70776943 -42.375 67.25 C-39.54982815 72.22626761 -36.21403263 75.07010629 -30.875 77.3125 C-18.46719508 79.51388474 -9.07378217 76.6966091 2 71 C1.02967741 77.16072129 -1.73072343 82.60552358 -4.30004883 88.23022461 C-4.89219195 89.53619749 -5.4748879 90.84649472 -6.0480957 92.16088867 C-6.88021123 94.06896223 -7.7392745 95.96266461 -8.60546875 97.85546875 C-9.11231201 98.98621826 -9.61915527 100.11696777 -10.14135742 101.28198242 C-12.96478291 105.4108667 -16.22602961 105.62703588 -20.8984375 106.609375 C-36.05219248 108.51790837 -51.74448674 106.87476911 -64.1875 97.3203125 C-73.54911918 88.77428893 -77.2865947 77.56086362 -78.3125 65.25 C-78.02586332 55.82920787 -75.45077116 46.28085655 -71 38 C-70.57976562 37.20207031 -70.15953125 36.40414062 -69.7265625 35.58203125 C-61.26344931 20.50272736 -48.22719205 9.87252384 -32 4 C-21.65520699 1.18833831 -11.56852933 -0.22495354 -1 2 C-0.67 1.34 -0.34 0.68 0 0 Z " fill="#025EAC" transform="translate(310,10)"/>
<path d="M0 0 C3.72937117 2.65084223 5.84698877 5.21184445 7.2421875 9.59375 C8.10050691 15.84942933 8.46593675 22.37046871 4.71875 27.7890625 C1.93423977 31.19235279 -0.88236298 34.56878588 -3.69921875 37.9453125 C-8.78019736 44.48213128 -9.82356729 51.29751259 -10.07421875 59.42578125 C-10.11611328 60.71806641 -10.15800781 62.01035156 -10.20117188 63.34179688 C-10.24097602 64.69661192 -10.28068841 66.05142967 -10.3203125 67.40625 C-10.36354973 68.78061105 -10.40716562 70.15496024 -10.45117188 71.52929688 C-10.5571104 74.88401669 -10.65918439 78.2388086 -10.7578125 81.59375 C-11.7478125 81.59375 -12.7378125 81.59375 -13.7578125 81.59375 C-13.79745117 80.74256592 -13.83708984 79.89138184 -13.87792969 79.0144043 C-14.03580046 75.80225735 -14.20921206 72.59140005 -14.39257812 69.38061523 C-14.4683025 68.00105186 -14.53814374 66.62115061 -14.6015625 65.2409668 C-15.24551368 51.3909856 -18.08378125 41.46619161 -27.18359375 30.9453125 C-32.14356891 25.1806216 -33.18046901 20.72162545 -33 13.2421875 C-32.51116472 7.89653721 -30.27181366 4.8739513 -26.4453125 1.34375 C-18.20835711 -5.22517893 -8.96172389 -5.02526573 0 0 Z " fill="#025EAD" transform="translate(74.7578125,14.40625)"/>
<path d="M0 0 C1.55463012 0.47682722 3.11802156 0.92549236 4.68652344 1.35449219 C18.97440085 5.29496091 18.97440085 5.29496091 23.54052734 10.19482422 C25.21046905 13.32061254 26.22332544 16.26123497 27.18896484 19.67138672 C27.64038919 21.03870091 28.09634499 22.40452502 28.55615234 23.76904297 C36.99316338 49.6443067 35.90722021 75.55146593 27.18896484 101.17138672 C26.95226074 101.87175049 26.71555664 102.57211426 26.47167969 103.29370117 C24.42865176 108.88605727 22.33946137 111.61722175 17.00146484 114.23388672 C-13.42045607 126.18231791 -44.45002398 125.34840059 -74.81103516 113.67138672 C-75.90931641 113.25244141 -77.00759766 112.83349609 -78.13916016 112.40185547 C-81.72229502 110.08119941 -82.45757385 107.95883555 -83.93603516 103.98388672 C-84.30378052 103.00162109 -84.30378052 103.00162109 -84.67895508 101.99951172 C-95.60088053 71.8345345 -93.84588326 41.37996063 -82.81103516 11.67138672 C-82.54677734 10.90181641 -82.28251953 10.13224609 -82.01025391 9.33935547 C-76.1519892 1.19121531 -56.74214685 -1.22206259 -47.67041016 -2.91455078 C-31.92731906 -4.60358687 -15.22914241 -4.68175049 0 0 Z M-72.81103516 7.67138672 C-73.72240234 7.94982422 -74.63376953 8.22826172 -75.57275391 8.51513672 C-80.25628015 10.93454993 -81.28730109 16.90450741 -82.81103516 21.67138672 C-91.28003796 49.86740808 -91.13417511 77.59367203 -79.41259766 104.93310547 C-75.01801965 112.44676201 -63.16421662 114.43400742 -55.18212891 116.60107422 C-30.51179815 122.88671625 -5.99799218 119.40204613 17.44287109 110.42529297 C24.58086704 105.8663169 26.63522209 92.88169694 28.50146484 84.92138672 C32.89457496 64.44368305 31.40509174 44.57598817 25.18896484 24.67138672 C24.64949219 22.84800781 24.64949219 22.84800781 24.09912109 20.98779297 C21.96787687 13.96652469 21.96787687 13.96652469 16.81396484 9.17138672 C15.28759954 8.62646004 13.74244937 8.13336286 12.18896484 7.67138672 C10.57828125 7.06617188 10.57828125 7.06617188 8.93505859 6.44873047 C-18.13207249 -3.39647204 -45.98123581 -2.45243545 -72.81103516 7.67138672 Z " fill="#135393" transform="translate(91.81103515625,3.32861328125)"/>
<path d="M0 0 C4.22609043 2.32866207 6.55975692 5.2570898 9 9.375 C10.56600089 15.05175322 9.89779097 18.87794863 7.625 24.25 C3.73969434 28.32032021 -0.70843604 29.37551728 -6 31 C-17.37268065 34.55933928 -17.37268065 34.55933928 -24.8125 43.4375 C-25.88521125 46.65563374 -26.59009488 49.638778 -27 53 C-27.99 53 -28.98 53 -30 53 C-30.11756758 48.56272822 -30.18770716 44.12586472 -30.25 39.6875 C-30.28351563 38.44419922 -30.31703125 37.20089844 -30.3515625 35.91992188 C-30.47526002 24.13773313 -27.72652188 14.11802819 -20 5 C-13.68015037 -0.62063222 -8.14139732 -1.9890212 0 0 Z " fill="#025DAC" transform="translate(95,43)"/>
<path d="M0 0 C6.83490542 0.78433341 11.83992272 4.87686242 16.125 10.125 C25.16088861 23.42783601 24.34991524 39.08700014 22.8125 54.4375 C22.1525 54.4375 21.4925 54.4375 20.8125 54.4375 C20.66554687 53.79683594 20.51859375 53.15617187 20.3671875 52.49609375 C18.76402183 46.31377096 16.98809939 41.41325513 11.8125 37.4375 C6.24546836 34.48930287 0.44047991 32.56946769 -5.625 30.9375 C-9.94507461 29.72204492 -12.34489739 28.01367747 -15.1875 24.4375 C-17.16186212 20.48877576 -16.62579693 15.74133233 -16.1875 11.4375 C-13.81722887 6.60916992 -10.4085166 2.72590664 -5.3125 0.6875 C-3.53913009 0.47886825 -1.76901479 0.24280595 0 0 Z " fill="#025DAD" transform="translate(36.1875,41.5625)"/>
<path d="M0 0 C2.85075158 1.98313153 3.07766501 3.33839755 3.875 6.8125 C4.24243129 10.98437615 3.3922197 13.4914111 1 17 C-1.97913587 20.06188965 -4.48262272 21.55189046 -8.7734375 21.99609375 C-12.84300919 22.00323335 -16.88052531 21.46872247 -20.9140625 20.9609375 C-24.56067562 21.00709716 -26.13348699 21.79731105 -29 24 C-29.66 24.99 -30.32 25.98 -31 27 C-31.66 27 -32.32 27 -33 27 C-33.62147259 22.0282193 -32.3175651 19.17461575 -29.875 15.02734375 C-24.67196511 9.40156227 -17.79644651 6.96865978 -10.625 4.8125 C-9.03217472 4.32445833 -7.44093403 3.83120573 -5.8515625 3.33203125 C-5.15885254 3.12296143 -4.46614258 2.9138916 -3.75244141 2.69848633 C-1.78442542 2.0477891 -1.78442542 2.0477891 0 0 Z " fill="#025EAE" transform="translate(102,69)"/>
<path d="M0 0 C1.5778125 0.86625 1.5778125 0.86625 3.1875 1.75 C6.86935911 3.61381856 10.53444747 4.80646348 14.5 5.9375 C21.87962466 8.12658912 29.03287632 11.01786233 33 18 C33.59110788 20.99595705 33.867168 23.9515057 34 27 C33.34 27 32.68 27 32 27 C31.484375 26.195625 30.96875 25.39125 30.4375 24.5625 C27.41519288 21.38520277 25.80491486 21.24826171 21.5703125 20.96875 C18.77835751 21.00269474 16.0840897 21.29271132 13.3125 21.625 C8.63263298 22.12174566 5.92410694 21.87129776 2 19 C-0.82053525 16.62481242 -1.88112142 15.01343986 -2.3125 11.3359375 C-2.47346547 3.71019821 -2.47346547 3.71019821 0 0 Z " fill="#045DAA" transform="translate(21,69)"/>
<path d="M0 0 C0.66 0.33 1.32 0.66 2 1 C1.54625 1.4125 1.0925 1.825 0.625 2.25 C-1.0922331 3.91435498 -1.0922331 3.91435498 -1.9375 6.0625 C-3.26558376 8.48429981 -4.51466988 8.91266807 -7 10 C-7.66 10.66 -8.32 11.32 -9 12 C-9.99 12 -10.98 12 -12 12 C-12.0928125 12.804375 -12.0928125 12.804375 -12.1875 13.625 C-13.40035264 17.17026157 -15.44610926 19.2592392 -18 22 C-18.66 22 -19.32 22 -20 22 C-19.67 23.65 -19.34 25.3 -19 27 C-19.66 27 -20.32 27 -21 27 C-21.33 27.66 -21.66 28.32 -22 29 C-22.66 29 -23.32 29 -24 29 C-27.65918595 42.92182541 -27.65918595 42.92182541 -27 57 C-27 58.95445484 -27.00147129 60.90905328 -27.03125 62.86328125 C-26.98115986 66.28819429 -26.48407102 69.61150285 -26 73 C-30.43810387 68.56189613 -30.79959247 60.10427903 -31.375 54.0625 C-30.93865379 44.70089042 -28.42911263 35.2405599 -24 27 C-23.57976562 26.20207031 -23.15953125 25.40414062 -22.7265625 24.58203125 C-17.05446177 14.47566392 -9.39009172 6.70403711 0 0 Z " fill="#105696" transform="translate(263,21)"/>
<path d="M0 0 C0.33 0 0.66 0 1 0 C1 2.64 1 5.28 1 8 C8.27765338 7.90745107 15.55498227 7.80010938 22.83227539 7.68261719 C25.30650926 7.64440008 27.78079731 7.60953467 30.25512695 7.578125 C33.81741665 7.53231697 37.37933569 7.47434758 40.94140625 7.4140625 C42.04271378 7.40251129 43.1440213 7.39096008 44.27870178 7.37905884 C50.76685341 7.25516521 56.32918758 6.88784639 62.1875 3.875 C64 3 64 3 68 3 C68 2.34 68 1.68 68 1 C69.32 1.33 70.64 1.66 72 2 C70.21693836 2.97425018 68.42293543 3.92847984 66.625 4.875 C65.62726563 5.40867187 64.62953125 5.94234375 63.6015625 6.4921875 C55.16136009 10.02572126 46.69388941 10.28130466 37.6484375 10.1953125 C36.50839264 10.1924826 35.36834778 10.18965271 34.1937561 10.18673706 C30.58739286 10.17562932 26.98128695 10.15054232 23.375 10.125 C20.91536819 10.11495804 18.45573246 10.10583433 15.99609375 10.09765625 C9.99729816 10.07572083 3.99869256 10.04125648 -2 10 C-1.34 6.7 -0.68 3.4 0 0 Z " fill="#0254A4" transform="translate(144,104)"/>
<path d="M0 0 C0.33 0 0.66 0 1 0 C0.67 3.3 0.34 6.6 0 10 C-0.99 10 -1.98 10 -3 10 C-3 16.6 -3 23.2 -3 30 C-2.34 30 -1.68 30 -1 30 C-1.33 28.68 -1.66 27.36 -2 26 C-0.68 25.67 0.64 25.34 2 25 C2 23.68 2 22.36 2 21 C3.0209375 21.0928125 3.0209375 21.0928125 4.0625 21.1875 C7.19776479 21.15574705 7.19776479 21.15574705 10.5625 19.4375 C14.09274237 17.96121683 14.62403031 17.88452643 18 19 C17.19175781 19.29132813 16.38351563 19.58265625 15.55078125 19.8828125 C7.81987807 22.84834593 3.51638099 24.96723802 -0.25 32.5 C-1.09452638 35.31508795 -1.59412015 38.09119441 -2 41 C-2.99 41 -3.98 41 -5 41 C-5.11756758 36.56272822 -5.18770716 32.12586472 -5.25 27.6875 C-5.28351563 26.44419922 -5.31703125 25.20089844 -5.3515625 23.91992188 C-5.44548817 14.97350187 -3.99666495 7.99332989 0 0 Z " fill="#165893" transform="translate(70,55)"/>
<path d="M0 0 C0.99 0.33 1.98 0.66 3 1 C4.23058645 20.99208372 5.26670718 40.98837996 6.125 61 C6.16929138 62.01514679 6.21358276 63.03029358 6.25921631 64.07620239 C6.38653289 67.00902447 6.51030726 69.9419734 6.6328125 72.875 C6.67021545 73.73532333 6.70761841 74.59564667 6.74615479 75.48204041 C6.99705207 81.65706391 7.03890834 87.82028813 7 94 C5.14925144 90.5489059 4.71751626 88.10765009 4.62109375 84.16796875 C4.58693359 83.03939453 4.55277344 81.91082031 4.51757812 80.74804688 C4.49115234 79.57306641 4.46472656 78.39808594 4.4375 77.1875 C4.37711341 74.86839813 4.31340421 72.54937999 4.24609375 70.23046875 C4.22216553 69.20332764 4.1982373 68.17618652 4.17358398 67.11791992 C4.04585628 63.95318117 4.04585628 63.95318117 3.5 60.6628418 C2.9279607 56.47226285 2.81002753 52.38720924 2.75390625 48.1640625 C2.72092275 46.44140203 2.68771198 44.7187459 2.65429688 42.99609375 C2.6073672 40.32669511 2.56298154 37.65730789 2.52319336 34.98779297 C2.33953419 23.20061333 1.62969641 11.6793322 0 0 Z " fill="#125493" transform="translate(394,10)"/>
<path d="M0 0 C2.55574024 -0.15382773 5.07068886 -0.15272956 7.63061523 -0.09793091 C8.57690796 -0.09559952 9.52320068 -0.09326813 10.49816895 -0.09086609 C12.50562519 -0.08111444 14.51305331 -0.0592949 16.52026367 -0.02639771 C19.56007685 0.02253046 22.59825838 0.0350561 25.63842773 0.04074097 C27.59417375 0.0548478 29.54990593 0.0710596 31.50561523 0.08956909 C32.85000671 0.09761314 32.85000671 0.09761314 34.22155762 0.1058197 C40.67342062 0.22432681 46.78664449 1.14320776 53.09936523 2.46066284 C53.09936523 2.79066284 53.09936523 3.12066284 53.09936523 3.46066284 C35.09936523 3.46066284 17.09936523 3.46066284 -0.90063477 3.46066284 C-1.89063477 4.94566284 -1.89063477 4.94566284 -2.90063477 6.46066284 C-3.56063477 6.13066284 -4.22063477 5.80066284 -4.90063477 5.46066284 C-3.86357803 2.63367529 -3.07767079 0.74594478 0 0 Z " fill="#11549A" transform="translate(170.900634765625,9.539337158203125)"/>
<path d="M0 0 C5.99144085 -0.43574115 9.57860191 0.47244454 14.9453125 3.109375 C17.39345496 4.17054702 19.3582805 4.34086703 22 4 C22 4.99 22 5.98 22 7 C22.66 7 23.32 7 24 7 C25.32 9.31 26.64 11.62 28 14 C28.99 13.67 29.98 13.34 31 13 C31 16.96 31 20.92 31 25 C30.34 25 29.68 25 29 25 C28.77957031 24.03900391 28.77957031 24.03900391 28.5546875 23.05859375 C26.9521524 16.87870264 25.17690852 11.97132708 20 8 C13.65823718 4.64626889 6.99973002 2.48071212 0 1 C0 0.67 0 0.34 0 0 Z " fill="#135591" transform="translate(28,71)"/>
<path d="M0 0 C0.99 0.66 1.98 1.32 3 2 C2.25130208 3.66015625 1.50260417 5.3203125 0.75390625 6.98046875 C-0.94112806 11.5210529 -1.16800706 16.01965739 -1.31640625 20.83203125 C-1.35830078 22.12431641 -1.40019531 23.41660156 -1.44335938 24.74804688 C-1.48316352 26.10286192 -1.52287591 27.45767967 -1.5625 28.8125 C-1.60573723 30.18686105 -1.64935312 31.56121024 -1.69335938 32.93554688 C-1.7992979 36.29026669 -1.90137189 39.6450586 -2 43 C-2.99 43 -3.98 43 -5 43 C-5 37.72 -5 32.44 -5 27 C-4.34 27 -3.68 27 -3 27 C-3.03480469 25.88882813 -3.06960937 24.77765625 -3.10546875 23.6328125 C-3.28594789 15.26967213 -3.24982728 7.87309348 0 0 Z " fill="#105192" transform="translate(66,53)"/>
<path d="M0 0 C8.91 0 17.82 0 27 0 C27 0.66 27 1.32 27 2 C27.99 2.33 28.98 2.66 30 3 C20.1 3 10.2 3 0 3 C0 2.01 0 1.02 0 0 Z " fill="#1059A3" transform="translate(48,0)"/>
<path d="M0 0 C1.32 0 2.64 0 4 0 C4 0.66 4 1.32 4 2 C5.11375 2.103125 6.2275 2.20625 7.375 2.3125 C9.169375 2.6528125 9.169375 2.6528125 11 3 C11.99 4.485 11.99 4.485 13 6 C12.01 6.495 12.01 6.495 11 7 C10.67 7.99 10.34 8.98 10 10 C4.68248175 9.65693431 4.68248175 9.65693431 2 9 C-0.36779765 6.23756941 -0.19641322 3.53543792 0 0 Z " fill="#025FB1" transform="translate(21,73)"/>
<path d="M0 0 C2.64 1.32 5.28 2.64 8 4 C5.36 9.28 2.72 14.56 0 20 C-1.2077558 16.37673261 -0.54311128 15.35853631 1 12 C0.34 11.67 -0.32 11.34 -1 11 C-0.47731534 8.23723823 0.10869587 5.6739124 1 3 C0.01 3.33 -0.98 3.66 -2 4 C-2 3.34 -2 2.68 -2 2 C-1.34 2 -0.68 2 0 2 C0 1.34 0 0.68 0 0 Z " fill="#025DAF" transform="translate(325,17)"/>
<path d="M0 0 C2.85075158 1.98313153 3.07766501 3.33839755 3.875 6.8125 C4.25590077 10.95670041 3.29239491 13.4795364 1 17 C-0.6875 18.875 -0.6875 18.875 -2 20 C-2.66 19.67 -3.32 19.34 -4 19 C-3.484375 18.443125 -2.96875 17.88625 -2.4375 17.3125 C-0.70523302 15.05914993 -0.70523302 15.05914993 -1.3125 12.25 C-1.539375 11.5075 -1.76625 10.765 -2 10 C-1.34 9.67 -0.68 9.34 0 9 C0.66 9.33 1.32 9.66 2 10 C1.34 7.69 0.68 5.38 0 3 C-0.515625 3.45375 -1.03125 3.9075 -1.5625 4.375 C-6.36217171 7.57478114 -11.32282037 8.27693559 -17 8 C-13.12988358 5.41992239 -9.13439241 4.37139934 -4.71484375 3 C-1.89861216 2.17802464 -1.89861216 2.17802464 0 0 Z " fill="#145493" transform="translate(102,69)"/>
<path d="M0 0 C1.41152344 0.07250977 1.41152344 0.07250977 2.8515625 0.14648438 C3.83640625 0.20255859 4.82125 0.25863281 5.8359375 0.31640625 C6.82851562 0.36861328 7.82109375 0.42082031 8.84375 0.47460938 C11.29978318 0.60449574 13.7554311 0.73946789 16.2109375 0.87890625 C16.2109375 1.86890625 16.2109375 2.85890625 16.2109375 3.87890625 C8.2909375 3.87890625 0.3709375 3.87890625 -7.7890625 3.87890625 C-7.4590625 2.88890625 -7.1290625 1.89890625 -6.7890625 0.87890625 C-4.28805676 -0.37159662 -2.78563198 -0.15102824 0 0 Z " fill="#145AA4" transform="translate(59.7890625,122.12109375)"/>
<path d="M0 0 C2.9375 0.8125 2.9375 0.8125 6 2 C7.41687119 6.25061356 6.19320039 8.71851625 5 13 C4.01 12.67 3.02 12.34 2 12 C2.33 10.68 2.66 9.36 3 8 C2.34 8 1.68 8 1 8 C1 8.99 1 9.98 1 11 C0.01 11 -0.98 11 -2 11 C-1.85892253 9.54119891 -1.71197585 8.08296449 -1.5625 6.625 C-1.48128906 5.81289062 -1.40007813 5.00078125 -1.31640625 4.1640625 C-1 2 -1 2 0 0 Z M2 3 C2 3.66 2 4.32 2 5 C2.66 5 3.32 5 4 5 C4 4.34 4 3.68 4 3 C3.34 3 2.68 3 2 3 Z " fill="#185091" transform="translate(39,103)"/>
<path d="M0 0 C0.33 0 0.66 0 1 0 C1 2.97 1 5.94 1 9 C17.17 9 33.34 9 50 9 C50 9.33 50 9.66 50 10 C32.84 10 15.68 10 -2 10 C-1.34 6.7 -0.68 3.4 0 0 Z " fill="#17518C" transform="translate(144,104)"/>
<path d="M0 0 C1.67542976 0.28604898 3.34385343 0.61781233 5 1 C7.42857143 7.28571429 7.42857143 7.28571429 6 11 C4.02 11.33 2.04 11.66 0 12 C-0.19401633 10.18818595 -0.38004375 8.37551468 -0.5625 6.5625 C-0.66691406 5.55316406 -0.77132812 4.54382813 -0.87890625 3.50390625 C-0.91886719 2.67761719 -0.95882812 1.85132812 -1 1 C-0.67 0.67 -0.34 0.34 0 0 Z M2 2 C3 4 3 4 3 4 Z M2 7 C2 7.66 2 8.32 2 9 C2.66 9 3.32 9 4 9 C4 8.34 4 7.68 4 7 C3.34 7 2.68 7 2 7 Z " fill="#134E8F" transform="translate(72,105)"/>
<path d="M0 0 C0.33 0 0.66 0 1 0 C1.80969842 6.15370798 -0.87413316 10.8841447 -4 16 C-4.97818947 17.02134488 -5.97469597 18.02596117 -7 19 C-8.17574711 21.09989652 -8.17574711 21.09989652 -9 23 C-7.68 23.66 -6.36 24.32 -5 25 C-6.98 25 -8.96 25 -11 25 C-11.33 24.34 -11.66 23.68 -12 23 C-11.01196289 20.66162109 -11.01196289 20.66162109 -9.47265625 17.7734375 C-8.92802734 16.7421875 -8.38339844 15.7109375 -7.82226562 14.6484375 C-7.24154297 13.56820313 -6.66082031 12.48796875 -6.0625 11.375 C-5.48564453 10.28703125 -4.90878906 9.1990625 -4.31445312 8.078125 C-2.88337571 5.38154938 -1.44496841 2.68915031 0 0 Z " fill="#115897" transform="translate(165,17)"/>
<path d="M0 0 C2.0625 0.4375 2.0625 0.4375 4 1 C5.60080151 5.00200378 4.29279692 8.04556236 3 12 C0.03 11.505 0.03 11.505 -3 11 C-4.3968009 6.80959731 -2.86445675 4.87233324 -1 1 C-0.67 0.67 -0.34 0.34 0 0 Z M0 3 C0.33 3.99 0.66 4.98 1 6 C1.33 5.01 1.66 4.02 2 3 C1.34 3 0.68 3 0 3 Z M-1 7 C-1 7.66 -1 8.32 -1 9 C-0.34 9 0.32 9 1 9 C1 8.34 1 7.68 1 7 C0.34 7 -0.32 7 -1 7 Z " fill="#144B8A" transform="translate(31,101)"/>
<path d="M0 0 C0.99 0 1.98 0 3 0 C2.67 2.97 2.34 5.94 2 9 C2.66 9 3.32 9 4 9 C4.33 6.03 4.66 3.06 5 0 C5.99 0.66 6.98 1.32 8 2 C7.34 4.97 6.68 7.94 6 11 C4.68 11.33 3.36 11.66 2 12 C1.01 11.34 0.02 10.68 -1 10 C-0.67 6.7 -0.34 3.4 0 0 Z " fill="#194E8A" transform="translate(48,105)"/>
<path d="M0 0 C0.495 1.485 0.495 1.485 1 3 C0.01 4.98 -0.98 6.96 -2 9 C-13.88 9 -25.76 9 -38 9 C-36 3 -36 3 -34 1 C-34.875 5.75 -34.875 5.75 -36 8 C-25.44 8 -14.88 8 -4 8 C-3.34 6.35 -2.68 4.7 -2 3 C-1.34 2.01 -0.68 1.02 0 0 Z " fill="#165694" transform="translate(341,105)"/>
<path d="M0 0 C1.32 0 2.64 0 4 0 C8 6.625 8 6.625 8 10 C7.01 10 6.02 10 5 10 C5 9.34 5 8.68 5 8 C4.34 8 3.68 8 3 8 C2.67 9.32 2.34 10.64 2 12 C1.34 11.67 0.68 11.34 0 11 C0 7.37 0 3.74 0 0 Z " fill="#124C8B" transform="translate(89,102)"/>
<path d="M0 0 C0 0.66 0 1.32 0 2 C-0.54269531 2.23074219 -1.08539063 2.46148437 -1.64453125 2.69921875 C-6.18613276 4.76953439 -8.88312742 6.23703671 -11 11 C-9.35 11.33 -7.7 11.66 -6 12 C-6.78375 12.598125 -7.5675 13.19625 -8.375 13.8125 C-11.14574323 15.91085249 -11.14574323 15.91085249 -13 19 C-13.66 19 -14.32 19 -15 19 C-15.62956782 13.96345747 -14.37017783 10.98295171 -11.63671875 6.90234375 C-8.79725336 3.6020582 -4.53201756 0 0 0 Z " fill="#145693" transform="translate(84,77)"/>
<path d="M0 0 C4 2 8 4 12 6 C9.36 6 6.72 6 4 6 C4 5.34 4 4.68 4 4 C2.68 4 1.36 4 0 4 C0.25786427 10.52396607 0.82167521 14.87818251 5 20 C1.60277274 18.59425079 -0.08557095 17.14204317 -2 14 C-2.36328125 11.30859375 -2.36328125 11.30859375 -2.3125 8.4375 C-2.30863281 7.48746094 -2.30476563 6.53742188 -2.30078125 5.55859375 C-2 3 -2 3 0 0 Z " fill="#145694" transform="translate(21,69)"/>
<path d="M0 0 C1.953125 0.7109375 1.953125 0.7109375 4 2 C4.609375 4.1640625 4.609375 4.1640625 4.75 6.625 C4.80671875 7.44226563 4.8634375 8.25953125 4.921875 9.1015625 C4.94765625 9.72804688 4.9734375 10.35453125 5 11 C5.99 10.34 6.98 9.68 8 9 C8.33 9.99 8.66 10.98 9 12 C7.79296875 13.51953125 7.79296875 13.51953125 6 15 C3.73828125 15.07421875 3.73828125 15.07421875 1.3125 14.6875 C0.50425781 14.56761719 -0.30398437 14.44773437 -1.13671875 14.32421875 C-1.75160156 14.21722656 -2.36648437 14.11023438 -3 14 C-2.34 13.319375 -1.68 12.63875 -1 11.9375 C1.45828448 8.32689468 1.40423599 6.28490153 1 2 C0.67 1.34 0.34 0.68 0 0 Z " fill="#0D5A9F" transform="translate(199,72)"/>
<path d="M0 0 C2.375 -0.125 2.375 -0.125 5 0 C5.66 0.66 6.32 1.32 7 2 C6.625 4.125 6.625 4.125 6 6 C4.68 6.33 3.36 6.66 2 7 C2 8.32 2 9.64 2 11 C1.01 11 0.02 11 -1 11 C-1.14285714 3.57142857 -1.14285714 3.57142857 0 0 Z M3 2 C3 5 3 5 3 5 Z " fill="#124A84" transform="translate(58,106)"/>
<path d="M0 0 C0 0.33 0 0.66 0 1 C-0.66386719 1.17015625 -1.32773437 1.3403125 -2.01171875 1.515625 C-8.05001611 3.17285114 -12.98585642 4.54718243 -16.3125 10.25 C-17.82537149 16.30148596 -17.29480892 21.26297771 -15 27 C-18.51919758 23.63381101 -19.18591613 21.62681018 -19.3125 16.75 C-19.25927779 11.66062631 -18.49801724 8.87618126 -15 5 C-9.98743554 0.36337787 -6.68845961 -0.15201045 0 0 Z " fill="#18548F" transform="translate(39,42)"/>
<path d="M0 0 C1.2065625 0.0309375 1.2065625 0.0309375 2.4375 0.0625 C2.7675 1.0525 3.0975 2.0425 3.4375 3.0625 C2.4475 3.3925 1.4575 3.7225 0.4375 4.0625 C0.4375 5.3825 0.4375 6.7025 0.4375 8.0625 C0.7675 7.4025 1.0975 6.7425 1.4375 6.0625 C2.4275 6.3925 3.4175 6.7225 4.4375 7.0625 C3.7775 8.3825 3.1175 9.7025 2.4375 11.0625 C0.7875 10.7325 -0.8625 10.4025 -2.5625 10.0625 C-2.75662181 8.58418779 -2.94262131 7.10480684 -3.125 5.625 C-3.22941406 4.80128906 -3.33382812 3.97757812 -3.44140625 3.12890625 C-3.48136719 2.44699219 -3.52132812 1.76507813 -3.5625 1.0625 C-2.5625 0.0625 -2.5625 0.0625 0 0 Z " fill="#174C8B" transform="translate(83.5625,103.9375)"/>
<path d="M0 0 C4.54028805 2.18283079 7.96730612 4.04759099 10.34765625 8.7265625 C11.76006238 13.64884014 11.60763301 18.94816741 11 24 C10.34 24.66 9.68 25.32 9 26 C9.01160156 25.27554688 9.02320312 24.55109375 9.03515625 23.8046875 C9.08231311 18.75216677 9.07377564 13.96621233 8 9 C7.34 9 6.68 9 6 9 C5.731875 8.360625 5.46375 7.72125 5.1875 7.0625 C4.11332248 4.66868314 4.11332248 4.66868314 1 4 C0.3125 1.9375 0.3125 1.9375 0 0 Z " fill="#145591" transform="translate(71,13)"/>
<path d="M0 0 C0.33 0 0.66 0 1 0 C2.125 7.75 2.125 7.75 1 10 C1.33 10.99 1.66 11.98 2 13 C0 16 0 16 -2 18 C-2.69748583 19.31747324 -3.36959957 20.64914193 -4 22 C-5.32612202 19.34775596 -4.74159076 18.27247172 -4.00390625 15.4296875 C-3.77509766 14.53378906 -3.54628906 13.63789062 -3.31054688 12.71484375 C-3.06369141 11.77769531 -2.81683594 10.84054688 -2.5625 9.875 C-2.31951172 8.93011719 -2.07652344 7.98523437 -1.82617188 7.01171875 C-1.22371772 4.67277909 -0.61474965 2.33573259 0 0 Z " fill="#105897" transform="translate(157,53)"/>
<path d="M0 0 C0.33 0 0.66 0 1 0 C0.67 3.3 0.34 6.6 0 10 C-0.99 10 -1.98 10 -3 10 C-3 16.6 -3 23.2 -3 30 C-2.34 30.33 -1.68 30.66 -1 31 C-1.99 31 -2.98 31 -4 31 C-4.11766716 27.52112528 -4.18773315 24.0427723 -4.25 20.5625 C-4.28351563 19.58861328 -4.31703125 18.61472656 -4.3515625 17.61132812 C-4.44226073 10.83163554 -3.29234898 5.93792027 0 0 Z " fill="#0E589D" transform="translate(70,55)"/>
<path d="M0 0 C0.66 0 1.32 0 2 0 C1.37344935 3.66402203 0.35781607 6.87061201 -1.06640625 10.30078125 C-1.46923828 11.27724609 -1.87207031 12.25371094 -2.28710938 13.25976562 C-2.70798828 14.26716797 -3.12886719 15.27457031 -3.5625 16.3125 C-3.98724609 17.33923828 -4.41199219 18.36597656 -4.84960938 19.42382812 C-5.89570928 21.95092341 -6.94595916 24.47620894 -8 27 C-8.66 27 -9.32 27 -10 27 C-8.03917369 20.8079169 -5.74798395 14.86213088 -3.18359375 8.89453125 C-1.9856602 5.96493139 -0.96842928 3.01239521 0 0 Z " fill="#135592" transform="translate(365,44)"/>
<path d="M0 0 C3.20518715 3.20518715 2.5915848 7.12651946 2.8125 11.5 C2.87630859 12.38042969 2.94011719 13.26085937 3.00585938 14.16796875 C3.05162109 15.00972656 3.09738281 15.85148437 3.14453125 16.71875 C3.18940674 17.49154297 3.23428223 18.26433594 3.28051758 19.06054688 C3.18794678 19.70056641 3.09537598 20.34058594 3 21 C2.01 21.66 1.02 22.32 0 23 C0 15.41 0 7.82 0 0 Z " fill="#0A539B" transform="translate(123,54)"/>
<path d="M0 0 C2.46313739 1.82748903 3.83428618 3.22976216 4.48828125 6.26953125 C4.72518293 8.51479346 4.90361349 10.74455578 5 13 C4.34 13 3.68 13 3 13 C1.65080468 11.34614767 0.31866272 9.678298 -1 8 C-1.99 7.34 -2.98 6.68 -4 6 C-2.68 5.67 -1.36 5.34 0 5 C0 3.35 0 1.7 0 0 Z " fill="#105491" transform="translate(50,83)"/>
<path d="M0 0 C1.32 0 2.64 0 4 0 C4 0.99 4 1.98 4 3 C4.66 2.67 5.32 2.34 6 2 C8.125 2.9375 8.125 2.9375 10 4 C8.98679687 4.58007812 8.98679687 4.58007812 7.953125 5.171875 C6.61507813 5.95304687 6.61507813 5.95304687 5.25 6.75 C4.36828125 7.26046875 3.4865625 7.7709375 2.578125 8.296875 C0.03462657 9.97712548 -1.92902925 11.77419032 -4 14 C-4 13.01 -4 12.02 -4 11 C-3.34 11 -2.68 11 -2 11 C-2 10.01 -2 9.02 -2 8 C-0.66666667 7 0.66666667 6 2 5 C2 4.01 2 3.02 2 2 C1.34 2 0.68 2 0 2 C0 1.34 0 0.68 0 0 Z " fill="#0F5898" transform="translate(273,40)"/>
<path d="M0 0 C0.33 0.66 0.66 1.32 1 2 C-1.76756757 9.61081081 -1.76756757 9.61081081 -5 12 C-5.66 12 -6.32 12 -7 12 C-7 9.33333333 -7 6.66666667 -7 4 C-5.68 3.34 -4.36 2.68 -3 2 C-2.67 2.66 -2.34 3.32 -2 4 C-2 3.01 -2 2.02 -2 1 C-1.34 0.67 -0.68 0.34 0 0 Z " fill="#075AA2" transform="translate(345,96)"/>
<path d="M0 0 C0.66 0.33 1.32 0.66 2 1 C2.33 1.99 2.66 2.98 3 4 C3.495 4.474375 3.99 4.94875 4.5 5.4375 C7.84686989 8.92382281 7.0880479 13.42150926 7 18 C4.63423284 15.63423284 4.08114955 13.77553737 3 10.625 C1.84787243 7.28563024 0.65742146 4.12246364 -1 1 C-0.67 0.67 -0.34 0.34 0 0 Z " fill="#125697" transform="translate(54,50)"/>
<path d="M0 0 C1.32 0.33 2.64 0.66 4 1 C-2.65738822 4.62827658 -8.34167083 7.70544888 -16 8 C-15.67 7.34 -15.34 6.68 -15 6 C-12.67684969 5.2986716 -10.34210921 4.63514826 -8 4 C-7.278125 3.62875 -6.55625 3.2575 -5.8125 2.875 C-4 2 -4 2 0 2 C0 1.34 0 0.68 0 0 Z " fill="#155493" transform="translate(212,105)"/>
<path d="M0 0 C-1.875 5.75 -1.875 5.75 -3 8 C-5.88437779 6.70700306 -7.87219421 5.34058637 -10 3 C-9.236875 2.87625 -8.47375 2.7525 -7.6875 2.625 C-4.74036043 1.9396187 -2.98146361 0 0 0 Z " fill="#135496" transform="translate(321,42)"/>
<path d="M0 0 C5.75 -0.125 5.75 -0.125 8 1 C9.87056791 1.2275015 11.74685958 1.40962811 13.625 1.5625 C14.62789062 1.64628906 15.63078125 1.73007813 16.6640625 1.81640625 C17.43492188 1.87699219 18.20578125 1.93757813 19 2 C15.80594791 4.12936806 15.50812339 4.23418211 11.98828125 3.7578125 C11.23095703 3.66113281 10.47363281 3.56445312 9.69335938 3.46484375 C8.51483398 3.29662109 8.51483398 3.29662109 7.3125 3.125 C6.51521484 3.02058594 5.71792969 2.91617188 4.89648438 2.80859375 C2.92958889 2.54948177 0.96458233 2.27610346 -1 2 C-0.67 1.34 -0.34 0.68 0 0 Z " fill="#135491" transform="translate(79,87)"/>
<path d="M0 0 C6.19726403 0.39557004 10.88255086 2.47489018 16 6 C16.33 6.66 16.66 7.32 17 8 C13.817135 7.0148275 10.91056688 5.95437086 7.9375 4.4375 C5.2165976 3.10599457 2.97745558 2.43786111 0 2 C0 1.34 0 0.68 0 0 Z " fill="#0F518F" transform="translate(33,75)"/>
<path d="M0 0 C1 3 1 3 0.22265625 5.04296875 C-0.16019531 5.75066406 -0.54304687 6.45835938 -0.9375 7.1875 C-1.31777344 7.90292969 -1.69804687 8.61835937 -2.08984375 9.35546875 C-2.54037109 10.16951172 -2.54037109 10.16951172 -3 11 C-1.68 11.66 -0.36 12.32 1 13 C-0.98 13 -2.96 13 -5 13 C-5.33 12.34 -5.66 11.68 -6 11 C-4.78515625 8.3984375 -4.78515625 8.3984375 -3.0625 5.375 C-2.21365234 3.87066406 -2.21365234 3.87066406 -1.34765625 2.3359375 C-0.90292969 1.56507812 -0.45820313 0.79421875 0 0 Z " fill="#194F8B" transform="translate(159,29)"/>
<path d="M0 0 C0.33 0.66 0.66 1.32 1 2 C-3.08078632 7.0022542 -6.69280693 8.07934219 -13 9 C-11.39598746 5.79197492 -8.19662773 5.36998331 -5 4 C-4.67 3.34 -4.34 2.68 -4 2 C-3.01 2.33 -2.02 2.66 -1 3 C-0.67 2.01 -0.34 1.02 0 0 Z " fill="#105797" transform="translate(102,64)"/>
<path d="M0 0 C0.66 0.33 1.32 0.66 2 1 C0.73452987 2.62918007 -0.53757728 4.25320642 -1.8125 5.875 C-2.52019531 6.77992187 -3.22789063 7.68484375 -3.95703125 8.6171875 C-6 11 -6 11 -9 13 C-9 12.01 -9 11.02 -9 10 C-8.34 10 -7.68 10 -7 10 C-6.62875 8.576875 -6.62875 8.576875 -6.25 7.125 C-5 4 -5 4 -2.9375 2.75 C-2.298125 2.5025 -1.65875 2.255 -1 2 C-0.67 1.34 -0.34 0.68 0 0 Z " fill="#145693" transform="translate(78,40)"/>
<path d="M0 0 C1.32 0.66 2.64 1.32 4 2 C3.01 5.3 2.02 8.6 1 12 C0.67 12 0.34 12 0 12 C-0.19401633 10.18818595 -0.38004375 8.37551468 -0.5625 6.5625 C-0.66691406 5.55316406 -0.77132813 4.54382812 -0.87890625 3.50390625 C-0.91886719 2.67761719 -0.95882813 1.85132813 -1 1 C-0.67 0.67 -0.34 0.34 0 0 Z " fill="#0D589D" transform="translate(265,52)"/>
<path d="M0 0 C-1.98 0.99 -1.98 0.99 -4 2 C-3.67 2.66 -3.34 3.32 -3 4 C-5.31 4 -7.62 4 -10 4 C-10 3.34 -10 2.68 -10 2 C-11.65 2 -13.3 2 -15 2 C-15 1.67 -15 1.34 -15 1 C-9.9752761 0.37470103 -5.07471573 -0.13012092 0 0 Z " fill="#1B528C" transform="translate(86,121)"/>
<path d="M0 0 C1.0169313 2.65498232 1.13022151 3.69155375 0.00390625 6.359375 C-0.47175781 7.14828125 -0.94742187 7.9371875 -1.4375 8.75 C-1.91058594 9.54921875 -2.38367188 10.3484375 -2.87109375 11.171875 C-3.24363281 11.77515625 -3.61617188 12.3784375 -4 13 C-4.66 13 -5.32 13 -6 13 C-4.58707905 8.1725201 -2.57025846 4.2837641 0 0 Z " fill="#145592" transform="translate(319,81)"/>
<path d="M0 0 C3.87725027 1.93862514 6.49605306 4.9201137 8.3125 8.8125 C8.539375 9.534375 8.76625 10.25625 9 11 C8.01 10.67 7.02 10.34 6 10 C6 9.01 6 8.02 6 7 C4.68 6.67 3.36 6.34 2 6 C2 5.34 2 4.68 2 4 C1.34 4 0.68 4 0 4 C0 2.68 0 1.36 0 0 Z " fill="#105795" transform="translate(218,58)"/>
<path d="M0 0 C0.66 0 1.32 0 2 0 C1.67 3.3 1.34 6.6 1 10 C0.01 10 -0.98 10 -2 10 C-2 7.69 -2 5.38 -2 3 C-1.34 3 -0.68 3 0 3 C0 2.01 0 1.02 0 0 Z " fill="#164C96" transform="translate(59,107)"/>
<path d="M0 0 C0.33 0 0.66 0 1 0 C1.37050452 4.32255278 0.37932084 6.43101874 -2 10 C-2.68096422 11.32608822 -3.35330586 12.65686601 -4 14 C-4.66 14 -5.32 14 -6 14 C-4.50829734 9.0276578 -2.39542583 4.58154261 0 0 Z " fill="#175995" transform="translate(339,41)"/>
<path d="M0 0 C0.66 0.33 1.32 0.66 2 1 C0.17251097 3.46313739 -1.22976216 4.83428618 -4.26953125 5.48828125 C-6.51479346 5.72518293 -8.74455578 5.90361349 -11 6 C-7.57874946 3.12614955 -4.16111563 1.54115394 0 0 Z " fill="#125696" transform="translate(276,15)"/>
<path d="M0 0 C0.33 0 0.66 0 1 0 C1.01417969 0.64066406 1.02835938 1.28132813 1.04296875 1.94140625 C1.40656881 8.53534244 2.72950643 11.96300759 7 17 C3.60363534 15.59460773 1.90017423 14.15256178 0 11 C-0.29296875 8.203125 -0.29296875 8.203125 -0.1875 5.25 C-0.16042969 4.26515625 -0.13335938 3.2803125 -0.10546875 2.265625 C-0.07066406 1.51796875 -0.03585938 0.7703125 0 0 Z " fill="#1B5587" transform="translate(19,72)"/>
<path d="M0 0 C0.33 0 0.66 0 1 0 C1 3.96 1 7.92 1 12 C0.01 12 -0.98 12 -2 12 C-1.85962479 10.18706911 -1.71255111 8.3746557 -1.5625 6.5625 C-1.48128906 5.55316406 -1.40007813 4.54382813 -1.31640625 3.50390625 C-1 1 -1 1 0 0 Z " fill="#0354A7" transform="translate(62,68)"/>
<path d="M0 0 C-1.41292095 4.8274799 -3.42974154 8.7162359 -6 13 C-7.21994269 9.34017193 -6.49026663 8.41884698 -5 5 C-5 4.34 -5 3.68 -5 3 C-2.46153846 0 -2.46153846 0 0 0 Z " fill="#155593" transform="translate(331,24)"/>
<path d="M0 0 C0.33 0.66 0.66 1.32 1 2 C1.66 2 2.32 2 3 2 C3.33 1.34 3.66 0.68 4 0 C3.34 3.3 2.68 6.6 2 10 C1.01 9.34 0.02 8.68 -1 8 C-0.67 5.36 -0.34 2.72 0 0 Z " fill="#1F518C" transform="translate(119,89)"/>
<path d="M0 0 C2 1 2 1 3.125 3.5625 C4.14837318 7.58289462 4.14258282 10.86509813 4 15 C3.67 15 3.34 15 3 15 C1.08373163 10.01770224 0.4452885 5.27315333 0 0 Z " fill="#145495" transform="translate(234,21)"/>
<path d="M0 0 C9.35238784 4.65629522 9.35238784 4.65629522 11 9 C5.70841026 7.59928507 3.22521956 4.14512755 0 0 Z " fill="#105092" transform="translate(242,102)"/>
<path d="M0 0 C0.99 0 1.98 0 3 0 C3.268125 0.78375 3.53625 1.5675 3.8125 2.375 C4.84814432 5.28114923 4.84814432 5.28114923 8 7 C7.67 7.99 7.34 8.98 7 10 C5.82739389 8.71372289 4.6620717 7.42080217 3.5 6.125 C2.8503125 5.40570313 2.200625 4.68640625 1.53125 3.9453125 C0 2 0 2 0 0 Z " fill="#105692" transform="translate(44,39)"/>
<path d="M0 0 C0.66 0.33 1.32 0.66 2 1 C1.34 3.31 0.68 5.62 0 8 C-0.33 7.34 -0.66 6.68 -1 6 C-2.98 6.99 -2.98 6.99 -5 8 C-3.62845496 5.04590299 -2.01136276 2.55991624 0 0 Z " fill="#0F5B9C" transform="translate(76,47)"/>
<path d="M0 0 C1.32 0 2.64 0 4 0 C3.39816251 2.02045442 2.72693904 4.02111039 2 6 C1.01 6.495 1.01 6.495 0 7 C-1.125 2.25 -1.125 2.25 0 0 Z " fill="#0B5B9C" transform="translate(305,88)"/>
<path d="M0 0 C2.64 1.32 5.28 2.64 8 4 C7.01 5.485 7.01 5.485 6 7 C6 6.01 6 5.02 6 4 C3.36 4 0.72 4 -2 4 C-2 3.34 -2 2.68 -2 2 C-1.34 2 -0.68 2 0 2 C0 1.34 0 0.68 0 0 Z " fill="#13599A" transform="translate(325,17)"/>
<path d="M0 0 C2.64 0 5.28 0 8 0 C8 0.99 8 1.98 8 3 C5.36 2.67 2.72 2.34 0 2 C0 1.34 0 0.68 0 0 Z " fill="#0756A7" transform="translate(68,123)"/>
<path d="M0 0 C1.98 0.495 1.98 0.495 4 1 C4.33 2.32 4.66 3.64 5 5 C4.01 5 3.02 5 2 5 C2 4.34 2 3.68 2 3 C1.01 3 0.02 3 -1 3 C-0.67 2.01 -0.34 1.02 0 0 Z " fill="#1F5193" transform="translate(31,101)"/>
<path d="M0 0 C0.91058531 3.07322544 1.08886184 5.80097361 1 9 C-0.32 9.33 -1.64 9.66 -3 10 C-1.125 2.25 -1.125 2.25 0 0 Z " fill="#0B589C" transform="translate(325,69)"/>
<path d="M0 0 C0.33 0 0.66 0 1 0 C1.39180108 1.57925975 1.76280736 3.16368794 2.125 4.75 C2.33382812 5.63171875 2.54265625 6.5134375 2.7578125 7.421875 C3.03088304 10.32875493 2.53508028 11.56661348 1 14 C-0.04976964 10.85069107 -0.10131595 8.61185544 -0.0625 5.3125 C-0.05347656 4.31863281 -0.04445312 3.32476563 -0.03515625 2.30078125 C-0.02355469 1.54152344 -0.01195312 0.78226563 0 0 Z " fill="#155595" transform="translate(42,25)"/>
<path d="M0 0 C0.33 0.99 0.66 1.98 1 3 C0.01 4.485 0.01 4.485 -1 6 C0.32 6 1.64 6 3 6 C2.67 6.66 2.34 7.32 2 8 C0.35 8 -1.3 8 -3 8 C-2.45276317 4.62537285 -1.9451 2.91765 0 0 Z " fill="#164F7F" transform="translate(335,33)"/>
<path d="M0 0 C3.00617269 3.00617269 2.59585316 5.82381598 3 10 C1.5 8.9375 1.5 8.9375 0 7 C-0.1875 3.3125 -0.1875 3.3125 0 0 Z " fill="#105398" transform="translate(6,95)"/>
<path d="M0 0 C2.475 0.99 2.475 0.99 5 2 C4 4 4 4 2 5 C-0.625 4.0625 -0.625 4.0625 -3 3 C-2.01 2.67 -1.02 2.34 0 2 C0 1.34 0 0.68 0 0 Z " fill="#144E86" transform="translate(109,10)"/>
<path d="M0 0 C2.04119788 1.61594832 4.04072937 3.2856382 6 5 C6 5.66 6 6.32 6 7 C4.125 6.875 4.125 6.875 2 6 C0.75 2.9375 0.75 2.9375 0 0 Z " fill="#105896" transform="translate(46,46)"/>
<path d="M0 0 C0.99 0.99 1.98 1.98 3 3 C2.6875 6.6875 2.6875 6.6875 2 10 C1.67 10 1.34 10 1 10 C0.67 6.7 0.34 3.4 0 0 Z " fill="#0F549A" transform="translate(121,37)"/>
<path d="M0 0 C1.485 0.99 1.485 0.99 3 2 C2.67 4.31 2.34 6.62 2 9 C0.4375 7.3125 0.4375 7.3125 -1 5 C-0.6875 2.25 -0.6875 2.25 0 0 Z " fill="#1D558D" transform="translate(5,26)"/>
<path d="M0 0 C-0.9590625 0.433125 -0.9590625 0.433125 -1.9375 0.875 C-4.15206079 1.82823451 -4.15206079 1.82823451 -5 4 C-5.99 4 -6.98 4 -8 4 C-8 3.01 -8 2.02 -8 1 C-5.29120665 -0.35439668 -2.99066732 -0.06501451 0 0 Z " fill="#105599" transform="translate(23,8)"/>
</svg>
