<?xml version="1.0" encoding="UTF-8"?>
<svg version="1.1" xmlns="http://www.w3.org/2000/svg" width="928" height="269">
<path d="M0 0 C15.36968838 -0.07040429 30.73936452 -0.12314086 46.10917664 -0.15543652 C53.24731877 -0.17083745 60.38536011 -0.19179552 67.5234375 -0.22631836 C73.75250225 -0.25643019 79.98149393 -0.27562407 86.21062946 -0.28226548 C89.50212592 -0.28614133 92.79336744 -0.29673416 96.08480835 -0.31719017 C112.91248786 -0.41753762 128.83518729 -0.15616074 144.8125 5.75 C145.51697266 6.00676514 146.22144531 6.26353027 146.94726562 6.52807617 C162.8323161 12.56853738 173.06832248 22.85726354 179.99609375 38.20703125 C184.75431682 50.47823811 183.78941459 65.01275208 179.25 77.1875 C173.34189884 90.54024144 165.61775653 99.2726764 152 105 C151.01 105.33 150.02 105.66 149 106 C149.99257813 106.3403125 150.98515625 106.680625 152.0078125 107.03125 C172.91732553 114.39933943 191.1683452 125.74243878 201.25 146.25 C209.36125385 164.98829766 208.96998689 184.34744062 201.75 203.27734375 C192.08392811 224.17473212 174.28349254 238.64258278 152.95703125 246.5625 C119.21328042 258.17852052 81.20424669 255.14615601 46.09503174 255.06866455 C40.88497325 255.05828738 35.67490968 255.05383662 30.46484375 255.04882812 C20.30988276 255.03822227 10.15494394 255.02123961 0 255 C0 254.01 0 253.02 0 252 C1.71484375 250.68359375 1.71484375 250.68359375 3.9375 249.4375 C7.06087402 247.79661289 7.06087402 247.79661289 9 245 C9.66 245 10.32 245 11 245 C11.2475 244.34 11.495 243.68 11.75 243 C12.73080835 240.64605995 13.78794743 238.54213401 15 236.3125 C20.05362828 226.06976156 19.29198142 214.75412181 19.2746582 203.61376953 C19.27901119 201.75986527 19.28419628 199.90596281 19.29014587 198.05206299 C19.30348391 193.03959216 19.30412035 188.02719697 19.30158257 183.01471186 C19.30050935 178.82010099 19.3054052 174.62550521 19.310188 170.43089759 C19.32126518 160.52992926 19.32173064 150.62899887 19.31567383 140.72802734 C19.30963472 130.53627957 19.3219476 120.34466987 19.3432439 110.15294564 C19.36089405 101.38149487 19.36685588 92.61008792 19.36360615 83.83862007 C19.36179863 78.60915295 19.36437639 73.37978434 19.37832069 68.1503334 C19.3909501 63.23036067 19.38890679 58.31060229 19.37590981 53.39063263 C19.37355559 51.59282482 19.37623691 49.79500167 19.38453293 47.99721146 C19.49555986 27.35690448 19.49555986 27.35690448 9.84765625 9.8046875 C6.69147121 6.95030946 3.54234405 4.3615627 0 2 C0 1.34 0 0.68 0 0 Z M60 24 C60 49.74 60 75.48 60 102 C69.343125 102.12375 69.343125 102.12375 78.875 102.25 C80.79940918 102.28641602 82.72381836 102.32283203 84.70654297 102.36035156 C100.76564202 102.5356721 117.4753055 101.2985165 130.01171875 90.22265625 C137.51269609 82.53297508 139.38055605 73.87163735 139.5 63.4375 C139.34716892 52.02168286 136.62753126 44.63626832 128.62109375 36.26171875 C124.20334187 32.4496795 119.39038829 30.14762172 114 28 C113.18789063 27.67257813 112.37578125 27.34515625 111.5390625 27.0078125 C95.6990697 21.48223362 75.65498147 24 60 24 Z M60 127 C60 160.33 60 193.66 60 228 C107.39285725 230.14530038 107.39285725 230.14530038 150.48046875 210.61328125 C159.97908512 200.52863199 163.36794494 189.00012447 163.21484375 175.2890625 C162.44051799 163.43483906 158.94205148 153.04784633 150 145 C148.9171875 143.7934375 148.9171875 143.7934375 147.8125 142.5625 C124.77283894 121.57080881 87.52565453 127 60 127 Z " fill="#016784" transform="translate(323,0)"/>
<path d="M0 0 C7.45793534 -0.23217534 14.91508681 -0.40960906 22.37590981 -0.51812172 C25.84093871 -0.5702192 29.30348836 -0.64079692 32.76708984 -0.75439453 C36.7532734 -0.88430621 40.73847017 -0.93243844 44.7265625 -0.9765625 C45.96427399 -1.02817535 47.20198547 -1.07978821 48.47720337 -1.13296509 C51.92702674 -1.13520992 54.70813539 -1.0391037 58 0 C60.87265636 3.00082439 62.32246849 6.24383224 64 10 C65.03871924 11.54876377 66.11001354 13.07668427 67.2265625 14.5703125 C67.77715332 15.3130542 68.32774414 16.0557959 68.89501953 16.82104492 C69.75135986 17.96150269 69.75135986 17.96150269 70.625 19.125 C71.23327637 19.94266846 71.84155273 20.76033691 72.46826172 21.6027832 C74.30732754 24.07218751 76.15285427 26.53663599 78 29 C79.05219468 30.40746885 80.10428423 31.8150163 81.15625 33.22265625 C85.07788885 38.46344413 89.0136744 43.69350816 92.95703125 48.91796875 C98.1965529 55.86960062 103.36313089 62.86422909 108.4375 69.9375 C113.20477162 76.58166701 118.10664526 83.10337007 123.1027832 89.57666016 C128.79716244 96.98186018 134.2449682 104.56125286 139.67236328 112.16333008 C140.63956316 113.50136698 141.64325369 114.81324972 142.66748047 116.1081543 C144 118 144 118 144 120 C144.66 120 145.32 120 146 120 C147.16992188 121.35424805 147.16992188 121.35424805 148.46875 123.26171875 C148.9519873 123.96151855 149.43522461 124.66131836 149.93310547 125.38232422 C150.45018066 126.14303223 150.96725586 126.90374023 151.5 127.6875 C155.93914712 134.10137086 160.50636327 140.33505881 165.30078125 146.48828125 C168.6316436 150.78922411 171.84286662 155.17805385 175.0625 159.5625 C180.33379716 166.74027086 185.64208913 173.88656152 191 181 C192.04323006 182.39018481 193.08618237 183.78057807 194.12890625 185.17114258 C194.93630249 186.24782951 194.93630249 186.24782951 195.76000977 187.3462677 C196.16920654 187.89199936 196.57840332 188.43773102 197 189 C197.07025514 168.77155606 197.12306875 148.54313706 197.15543652 128.31459618 C197.17086863 118.92095218 197.19188779 109.52738423 197.22631836 100.13378906 C197.25633314 91.94099645 197.27560153 83.74825896 197.28226548 75.55541289 C197.28615739 71.22219936 197.29522661 66.88914342 197.31719017 62.55598068 C197.33774675 58.4667739 197.34379563 54.37778772 197.33932304 50.28853416 C197.34013976 48.7979493 197.34599022 47.30735607 197.35761642 45.81681633 C197.44280874 34.31825261 197.53347136 21.35189548 190 12 C190 11.34 190 10.68 190 10 C188.02 9.01 188.02 9.01 186 8 C186 7.34 186 6.68 186 6 C184.8553125 5.566875 184.8553125 5.566875 183.6875 5.125 C181 4 181 4 178 2 C178 1.34 178 0.68 178 0 C200.77 0 223.54 0 247 0 C247 0.66 247 1.32 247 2 C245.171875 3.55078125 245.171875 3.55078125 242.75 5.3125 C233.8362736 12.09195388 229.84661496 20.11761349 228 31 C227.73226656 34.37555398 227.71424894 37.73267433 227.7215271 41.11769104 C227.7128385 42.58705397 227.7128385 42.58705397 227.70397437 44.086101 C227.68705687 47.34722958 227.68410497 50.60821594 227.68115234 53.86938477 C227.67184848 56.21551355 227.66167913 58.56163903 227.65071106 60.90776062 C227.62344876 67.26238992 227.60827276 73.61699709 227.59528303 79.97166944 C227.58122234 85.94428162 227.55809051 91.91685583 227.53501268 97.88943838 C227.48961662 109.71411548 227.45297222 121.53880268 227.421875 133.36352539 C227.39165995 144.84563979 227.35729616 156.3277295 227.31738281 167.80981445 C227.31492126 168.51835489 227.31245972 169.22689533 227.30992357 169.95690668 C227.2975484 173.51168017 227.28509198 177.06645337 227.27259517 180.62122643 C227.16913506 210.08078188 227.08004294 239.54037164 227 269 C222.16906439 268.22061796 219.04766703 266.20369702 215.1875 263.3125 C214.57310059 262.86132812 213.95870117 262.41015625 213.32568359 261.9453125 C212.10522777 261.0474172 210.88737684 260.14596872 209.67236328 259.24072266 C208.22901244 258.16990383 206.77017207 257.12002152 205.30859375 256.07421875 C204.58800781 255.55472656 203.86742187 255.03523437 203.125 254.5 C202.50882813 254.0565625 201.89265625 253.613125 201.2578125 253.15625 C200.84273437 252.7746875 200.42765625 252.393125 200 252 C200 251.34 200 250.68 200 250 C199.44828125 249.7628125 198.8965625 249.525625 198.328125 249.28125 C195.43225289 247.68754857 193.20487963 245.71082727 190.75 243.5 C189.85796875 242.7059375 188.9659375 241.911875 188.046875 241.09375 C186 239 186 239 186 237 C185.4225 236.7525 184.845 236.505 184.25 236.25 C181.67060021 234.81700012 179.93878408 233.21575324 178 231 C178 230.34 178 229.68 178 229 C177.42378906 228.76925781 176.84757813 228.53851563 176.25390625 228.30078125 C173.42193831 226.66638728 171.95341514 224.76108886 169.9375 222.1875 C169.15375 221.20136719 168.37 220.21523437 167.5625 219.19921875 C167.14742187 218.67634277 166.73234375 218.1534668 166.3046875 217.61474609 C164.53006906 215.41839011 162.69051657 213.28134397 160.84863281 211.14135742 C156.42880229 206.0004369 152.24756044 200.78154229 148.32421875 195.24609375 C146.37677827 192.5262231 144.39694532 189.83947166 142.39453125 187.16015625 C141.75427002 186.30115723 141.11400879 185.4421582 140.4543457 184.55712891 C139.1632094 182.826474 137.86883158 181.09823213 136.57104492 179.37255859 C135.9804126 178.5780127 135.38978027 177.7834668 134.78125 176.96484375 C134.24564453 176.2493335 133.71003906 175.53382324 133.15820312 174.79663086 C132 173 132 173 132 171 C131.34 171 130.68 171 130 171 C129.02367643 169.60889844 128.057422 168.2094936 127.14697266 166.77441406 C125.15413954 163.69141893 122.90143124 160.80118794 120.6875 157.875 C119.61841293 156.45578691 118.54940634 155.03651318 117.48046875 153.6171875 C116.91634277 152.86920898 116.3522168 152.12123047 115.77099609 151.35058594 C112.67336561 147.239201 109.58741714 143.11905666 106.5 139 C102.95969072 134.27794444 99.4193054 129.55596563 95.87109375 124.83984375 C89.86867383 116.85772344 83.92179295 108.83668557 78.00415039 100.79150391 C73.37370923 94.49883661 68.70041768 88.24062246 64 82 C61.85283516 79.14683236 59.70740137 76.29236946 57.5625 73.4375 C57.04155762 72.74567627 56.52061523 72.05385254 55.98388672 71.34106445 C55.49549316 70.69097412 55.00709961 70.04088379 54.50390625 69.37109375 C54.06892822 68.79286865 53.6339502 68.21464355 53.18579102 67.61889648 C52.08058979 66.11002489 51.03747671 64.55621506 50 63 C49.95313172 82.93314803 49.91793885 102.86628478 49.89637566 122.79947662 C49.88609421 132.05627797 49.87209428 141.31304495 49.84912109 150.56982422 C49.82909077 158.64470841 49.81626085 166.71956768 49.81182301 174.79447603 C49.80923184 179.06399912 49.80320797 183.33345096 49.78853989 187.60295105 C49.774803 191.63467793 49.7708093 195.6663053 49.77378464 199.69805336 C49.77324158 201.16521562 49.76936121 202.63238177 49.76158905 204.09952354 C49.46064934 227.81221016 49.46064934 227.81221016 60.5 247.9375 C62.60369421 249.90309612 64.43925911 251.26168628 66.9375 252.75 C67.618125 253.1625 68.29875 253.575 69 254 C69 254.99 69 255.98 69 257 C46.23 257 23.46 257 0 257 C1.11824905 252.52700381 1.62844697 252.49304624 5.25 250.23828125 C13.08597346 244.69363039 16.29966912 236.87589391 18.53663254 227.82993507 C19.12321741 224.24747141 19.14472109 220.72663452 19.14044189 217.10775757 C19.14341302 216.31903751 19.14638414 215.53031745 19.1494453 214.71769679 C19.15810865 212.07790034 19.15963855 209.43814937 19.16113281 206.79833984 C19.16576273 204.90414331 19.17078762 203.0099477 19.17617798 201.11575317 C19.18928888 195.970847 19.1957446 190.82595388 19.20018864 185.68103361 C19.203122 182.46423003 19.20722735 179.24743 19.21169281 176.0306282 C19.22536544 165.95898848 19.23503276 155.88735688 19.2388947 145.81570852 C19.24337241 134.20291327 19.26090802 122.59023589 19.2898953 110.97747648 C19.31154068 101.99298691 19.32160054 93.00853043 19.32293582 84.02401507 C19.32398197 78.66203504 19.32984911 73.30016585 19.34775543 67.93821335 C19.36428508 62.89028274 19.36636789 57.84254572 19.35761642 52.79459763 C19.35684862 50.94799276 19.36115473 49.10137727 19.37107468 47.25479889 C19.4410271 33.414897 19.04932085 19.2167244 8.74609375 8.69921875 C4.66523472 4.93664076 4.66523472 4.93664076 0 2 C0 1.34 0 0.68 0 0 Z " fill="#016784" transform="translate(558,0)"/>
<path d="M0 0 C26.4 0 52.8 0 80 0 C78.05540775 3.8891845 77.55543529 4.56052008 74.1875 6.75 C67.25434631 11.76146435 63.94706081 18.80697679 62 27 C60.67083632 36.77578354 60.8575768 46.66835738 60.87060547 56.51171875 C60.86924773 58.24769121 60.86746572 59.98366338 60.86529541 61.71963501 C60.86076536 66.40140627 60.86249231 71.0831553 60.8656745 75.76492691 C60.86822109 80.68402411 60.86585418 85.60311952 60.86428833 90.5222168 C60.86247333 98.78011412 60.86485537 107.03800248 60.86962891 115.29589844 C60.87507023 124.81849353 60.8733071 134.3410672 60.8678025 143.86366177 C60.86325229 152.06614839 60.86263015 160.26862859 60.86524117 168.47111607 C60.86679346 173.35846368 60.8670266 178.24580124 60.86370468 183.13314819 C60.86079818 187.72969939 60.86285235 192.32622319 60.86859894 196.92277145 C60.86991171 198.60125051 60.86955791 200.2797319 60.86733627 201.95820999 C60.33757566 226.84259221 60.33757566 226.84259221 72 248 C74.09921904 249.66724978 76.21719641 251.20936619 78.4609375 252.67578125 C78.96882812 253.11277344 79.47671875 253.54976562 80 254 C80 254.99 80 255.98 80 257 C53.6 257 27.2 257 0 257 C1.08489381 252.66042477 1.23103514 252.48847248 4.6875 250.25 C12.80175125 244.41879076 16.18137488 237.73422368 18 228 C18.75517344 222.69142149 19.14726156 217.5257548 19.14044189 212.16027832 C19.14341302 211.41335834 19.14638414 210.66643836 19.1494453 209.89688444 C19.15805504 207.41627067 19.15963395 204.9357056 19.16113281 202.45507812 C19.16576657 200.66707254 19.17079197 198.87906793 19.17617798 197.09106445 C19.18925264 192.2476435 19.19573759 187.40423638 19.20018864 182.56080055 C19.20312812 179.52803489 19.20723461 176.49527294 19.21169281 173.46250916 C19.22535645 163.95417185 19.23502793 154.4458431 19.2388947 144.93749666 C19.24336897 133.99830441 19.26089231 123.0592375 19.2898953 112.12008333 C19.31158821 103.64075867 19.32160307 95.16146907 19.32293582 86.68211699 C19.32397866 81.62909837 19.32977434 76.57619777 19.34775543 71.52320862 C19.36436765 66.76249083 19.36632857 62.00197809 19.35761642 57.24124146 C19.35685296 55.5063878 19.36109607 53.77152251 19.37107468 52.03669739 C19.59371682 29.58717889 19.59371682 29.58717889 10 10 C7.41169874 7.70960487 4.78129554 5.6124959 1.9765625 3.59375 C1.32429687 3.0678125 0.67203125 2.541875 0 2 C0 1.34 0 0.68 0 0 Z " fill="#016784" transform="translate(848,0)"/>
<path d="M0 0 C26.4 0 52.8 0 80 0 C78.90653476 8.74772195 78.90653476 8.74772195 77.9609375 12.8828125 C70.24936113 50.52162378 90.69717682 91.76439792 110.66552734 122.34350586 C115.26833397 129.24328577 120.0800016 135.96357748 125.16015625 142.51953125 C126.95053467 144.93331107 128.50031373 147.39774065 130 150 C111.50462963 167 111.50462963 167 108 167 C108 167.66 108 168.32 108 169 C106.25 170.6875 106.25 170.6875 104 172 C100.50953729 171.57335925 99.9716507 170.96834915 97.484375 168.19140625 C96.56280317 166.98945804 95.65185308 165.77931352 94.75 164.5625 C93.78053708 163.28731229 92.81048018 162.01257595 91.83984375 160.73828125 C91.36272949 160.10615723 90.88561523 159.4740332 90.39404297 158.82275391 C87.80697405 155.44008201 85.07528805 152.17329456 82.36328125 148.890625 C81 147 81 147 81 145 C80.34 145 79.68 145 79 145 C78.01 142.525 78.01 142.525 77 140 C76.34 140 75.68 140 75 140 C73.39018828 138.09480998 71.90496732 136.19744338 70.4375 134.1875 C70.02564453 133.64029297 69.61378906 133.09308594 69.18945312 132.52929688 C67.33850981 130.03006899 65.99012572 127.97037715 65 125 C64.34 125 63.68 125 63 125 C61.37689194 123.07519899 59.86824737 121.14708831 58.375 119.125 C57.46298113 117.91480539 56.55021393 116.70517438 55.63671875 115.49609375 C55.18603027 114.89651855 54.7353418 114.29694336 54.27099609 113.67919922 C50.3156387 108.45350807 46.13940739 103.39647074 42 98.31640625 C40.89575138 96.96100427 39.79158712 95.60553354 38.6875 94.25 C38.12699951 93.56188232 37.56649902 92.87376465 36.98901367 92.16479492 C32.99516422 87.25110106 29.06880556 82.28912847 25.17138672 77.29882812 C21.10012314 72.09870748 16.94245031 66.971025 12.765625 61.85546875 C11.72852428 60.58495406 10.7069584 59.30163104 9.69970703 58.00732422 C8.02254315 55.92413473 8.02254315 55.92413473 5.84326172 54.12158203 C0.71312123 49.17080914 -0.4776729 44.87419176 -0.75187683 37.95657349 C-0.80291448 32.75147533 -0.66409344 27.58061022 -0.5 22.375 C-0.335 14.99125 -0.17 7.6075 0 0 Z " fill="#F05A23" transform="translate(0,0)"/>
<path d="M0 0 C3.87059854 3.05443399 7.54814191 6.2979954 11.16210938 9.65039062 C11.70421208 10.1094621 12.24631479 10.56853357 12.80484486 11.0415163 C14.54098356 13.09950053 14.53281612 14.17741456 14.52287292 16.84550476 C14.52699692 17.69945831 14.53112091 18.55341187 14.53536987 19.4332428 C14.52458405 20.36688156 14.51379822 21.30052032 14.50268555 22.26245117 C14.50334267 23.74077423 14.50334267 23.74077423 14.50401306 25.2489624 C14.5019203 28.51187844 14.47856591 31.77428291 14.45507812 35.03710938 C14.44948391 37.29726379 14.44521299 39.55742183 14.44221497 41.81758118 C14.43075247 47.77053851 14.40127303 53.72327677 14.36810303 59.67614746 C14.3374325 65.74891191 14.32371608 71.8217117 14.30859375 77.89453125 C14.27640483 89.81324737 14.22519138 101.73180079 14.16210938 113.65039062 C12.59030576 114.31180821 11.01507807 114.96509213 9.43847656 115.61499023 C8.56165222 115.97966904 7.68482788 116.34434784 6.78143311 116.72007751 C2.95191996 118.08021725 -0.5557399 118.29545564 -4.58789062 118.21289062 C-5.74623413 118.19754272 -5.74623413 118.19754272 -6.92797852 118.18188477 C-25.32680238 117.51197401 -39.51825229 106.2949782 -51.83789062 93.65039062 C-55.06879276 90.13365828 -58.00317125 86.49244778 -60.83789062 82.65039062 C-61.45857422 81.80951904 -61.45857422 81.80951904 -62.09179688 80.95166016 C-68.59911631 72.01380834 -73.30642366 63.14934647 -76.83789062 52.65039062 C-77.21042969 51.56113281 -77.58296875 50.471875 -77.96679688 49.34960938 C-80.81078054 37.27224375 -80.33984417 23.37775165 -73.83789062 12.65039062 C-73.40347656 11.93109375 -72.9690625 11.21179688 -72.52148438 10.47070312 C-65.01266849 -0.52511273 -53.97727127 -8.30744355 -40.91601562 -11.06835938 C-26.36836981 -13.0372137 -11.79786222 -8.66346737 0 0 Z " fill="#F05A23" transform="translate(240.837890625,64.349609375)"/>
<path d="M0 0 C47.19 0 94.38 0 143 0 C143 11.22 143 22.44 143 34 C134 32 134 32 129.875 30.9375 C110.41677142 26.71479414 89.56944805 29.48266452 72.6875 40.25 C51.025131 54.75264521 40.04053703 73.87861386 35 99 C34.62916489 101.3304 34.30718747 103.65995428 34 106 C28.45086537 103.74415614 26.1538498 98.84960611 23 94 C22.35675781 93.03707031 21.71351563 92.07414062 21.05078125 91.08203125 C12.26833505 77.46837692 6.2050337 62.60959481 2 47 C1.6803125 45.86046875 1.360625 44.7209375 1.03125 43.546875 C-2.36685191 29.51397268 -2.03098698 14.21690885 0 0 Z " fill="#F05A23" transform="translate(112,0)"/>
<path d="M0 0 C3.76029095 1.69134425 5.4866339 3.73262407 8 7 C8.66 7.33 9.32 7.66 10 8 C10 8.66 10 9.32 10 10 C10.53625 10.226875 11.0725 10.45375 11.625 10.6875 C14.82460161 12.45570089 17.29037223 14.53670203 20 17 C20 17.66 20 18.32 20 19 C20.82371094 19.38091797 20.82371094 19.38091797 21.6640625 19.76953125 C24.39930015 21.21033369 26.83887302 22.91915941 29.375 24.6875 C48.72936922 37.64528547 69.44109589 43.99335287 92.625 39.875 C99.25555941 38.41641786 105.14086804 36.05322399 111.26953125 33.20703125 C114 32 114 32 116 32 C116 52.13 116 72.26 116 93 C86.63 93 57.26 93 27 93 C32.625 87.375 32.625 87.375 35.11328125 85.32421875 C35.9012207 84.67163086 35.9012207 84.67163086 36.70507812 84.00585938 C37.23552734 83.57080078 37.76597656 83.13574219 38.3125 82.6875 C38.86228516 82.23310547 39.41207031 81.77871094 39.97851562 81.31054688 C41.31712216 80.20474148 42.65829231 79.10204061 44 78 C43.21238281 78.05800781 42.42476563 78.11601562 41.61328125 78.17578125 C28.57721044 78.71573685 19.2153202 74.84330425 9.45703125 66.28515625 C8.64621094 65.53105469 7.83539063 64.77695313 7 64 C6.26136719 63.31808594 5.52273437 62.63617188 4.76171875 61.93359375 C1.33275533 58.64206373 1.33275533 58.64206373 0 57 C0 56.34 0 55.68 0 55 C-0.66 55 -1.32 55 -2 55 C-3.76653739 52.93149041 -5.42339148 50.85378428 -7.0625 48.6875 C-8.05241391 47.40159528 -9.04331321 46.11644858 -10.03515625 44.83203125 C-10.53160645 44.1870166 -11.02805664 43.54200195 -11.53955078 42.87744141 C-14.32791229 39.2929379 -17.23148402 35.80456529 -20.125 32.3046875 C-25 26.3125 -25 26.3125 -25 24 C-25.66 24 -26.32 24 -27 24 C-25.45351806 19.66378593 -22.10929031 17.47235747 -18.5625 14.8125 C-17.30002599 13.84473446 -16.03831782 12.87596911 -14.77734375 11.90625 C-14.14554199 11.42285156 -13.51374023 10.93945312 -12.86279297 10.44140625 C-8.49472834 7.06145165 -4.25673465 3.51832149 0 0 Z " fill="#F05A23" transform="translate(139,162)"/>
<path d="M0 0 C0.99 0.495 0.99 0.495 2 1 C2 1.66 2 2.32 2 3 C2.66 3 3.32 3 4 3 C5.79539556 5.0897227 7.47061442 7.17842082 9.125 9.375 C9.82689453 10.27992187 9.82689453 10.27992187 10.54296875 11.203125 C14 15.73858874 14 15.73858874 14 18 C14.66 18 15.32 18 16 18 C16.66 19.65 17.32 21.3 18 23 C18.66 23 19.32 23 20 23 C21.32519531 24.44946289 21.32519531 24.44946289 22.828125 26.47265625 C23.38113281 27.20806641 23.93414063 27.94347656 24.50390625 28.70117188 C25.08011719 29.48041016 25.65632813 30.25964844 26.25 31.0625 C27.37813964 32.57576317 28.50833291 34.08749763 29.640625 35.59765625 C30.19427734 36.3364502 30.74792969 37.07524414 31.31835938 37.83642578 C33.40816114 40.52513415 35.63534718 43.06797874 37.92480469 45.58764648 C39 47 39 47 39 49 C39.66 49 40.32 49 41 49 C42.79539556 51.0897227 44.47061442 53.17842082 46.125 55.375 C46.59292969 55.97828125 47.06085937 56.5815625 47.54296875 57.203125 C51 61.73858874 51 61.73858874 51 64 C51.66 64 52.32 64 53 64 C54.60140767 65.90413123 56.08961082 67.81222147 57.5625 69.8125 C58.45538705 71.00383824 59.34995312 72.19391971 60.24609375 73.3828125 C60.70097168 73.98641602 61.15584961 74.59001953 61.62451172 75.21191406 C64.42711673 78.85520108 67.41392671 82.3472525 70.3828125 85.85546875 C72 88 72 88 72 90 C72.66 90 73.32 90 74 90 C74.66 91.65 75.32 93.3 76 95 C76.66 95 77.32 95 78 95 C78 95.66 78 96.32 78 97 C74.53846154 100 74.53846154 100 72 100 C72 100.66 72 101.32 72 102 C69.80644768 103.87001078 67.60515924 105.63431966 65.3125 107.375 C64.05849131 108.34101287 62.80458335 109.30715651 61.55078125 110.2734375 C60.94572754 110.73459961 60.34067383 111.19576172 59.71728516 111.67089844 C58.17472134 112.86477353 56.6686646 114.10546747 55.16796875 115.3515625 C53 117 53 117 51 117 C51 117.66 51 118.32 51 119 C48.525 119.99 48.525 119.99 46 121 C46 121.66 46 122.32 46 123 C44.05672664 124.66302316 42.10230343 126.21249953 40.0625 127.75 C34.36923702 132.12630814 28.77950697 136.60597896 23.25 141.1875 C21.81265778 142.37519097 20.37516195 143.56269607 18.9375 144.75 C18.26332031 145.306875 17.58914062 145.86375 16.89453125 146.4375 C14.35505314 148.53191493 11.80850267 150.61633117 9.25 152.6875 C8.53328125 153.26886719 7.8165625 153.85023438 7.078125 154.44921875 C4.83011872 156.12677231 2.40522076 157.55686755 0 159 C0 106.53 0 54.06 0 0 Z " fill="#EF5A23" transform="translate(0,96)"/>
<path d="M0 0 C4.30152059 1.57248984 6.69835711 4.87342609 9.5 8.3125 C10.20962891 9.16618164 10.20962891 9.16618164 10.93359375 10.03710938 C11.86177512 11.15684064 12.78510142 12.28061718 13.703125 13.40869141 C14.9031865 14.88120663 16.12266372 16.33784093 17.34375 17.79296875 C19 20 19 20 19 22 C19.66 22 20.32 22 21 22 C21.99 24.475 21.99 24.475 23 27 C23.66 27 24.32 27 25 27 C26.34412438 28.7802972 27.60036819 30.62733747 28.8125 32.5 C29.52019531 33.59183594 30.22789063 34.68367188 30.95703125 35.80859375 C31.63121094 36.86175781 32.30539063 37.91492188 33 39 C33.54011719 39.81597656 34.08023438 40.63195312 34.63671875 41.47265625 C38 46.62840258 38 46.62840258 38 50 C5.33 50 -27.34 50 -61 50 C-53.09686538 42.09686538 -44.3725238 35.24891923 -35.56689453 28.39038086 C-30.78816385 24.65443609 -26.10632796 20.80954254 -21.4375 16.9375 C-14.41839101 11.11875576 -7.27670958 5.49233384 0 0 Z " fill="#EF5A24" transform="translate(86,205)"/>
<path d="M0 0 C0 20.13 0 40.26 0 61 C-21.78 61 -43.56 61 -66 61 C-65.67 60.34 -65.34 59.68 -65 59 C-63.90125801 59.00666183 -63.90125801 59.00666183 -62.78031921 59.01345825 C-55.87940322 59.05352172 -48.9785046 59.08397767 -42.07750225 59.10362434 C-38.52956369 59.11406444 -34.98172117 59.12822763 -31.43383789 59.15087891 C-27.35562209 59.17675331 -23.27750729 59.1864709 -19.19921875 59.1953125 C-17.28661507 59.21079636 -17.28661507 59.21079636 -15.33537292 59.22659302 C-13.56387627 59.22681961 -13.56387627 59.22681961 -11.7565918 59.22705078 C-10.71512497 59.231492 -9.67365814 59.23593323 -8.60063171 59.24050903 C-5.76380989 59.18611643 -5.76380989 59.18611643 -3 57 C-2.52285258 54.58097767 -2.52285258 54.58097767 -2.56762695 51.72412109 C-2.54783279 50.6231308 -2.52803864 49.5221405 -2.50764465 48.38778687 C-2.50125473 47.19505157 -2.49486481 46.00231628 -2.48828125 44.7734375 C-2.47033005 43.55548492 -2.45237885 42.33753235 -2.43388367 41.08267212 C-2.37956082 37.18015032 -2.34581384 33.27775233 -2.3125 29.375 C-2.27934642 26.73435768 -2.24485862 24.09373176 -2.20898438 21.453125 C-2.12382172 14.96886102 -2.05556523 8.48458145 -2 2 C-2.66 1.67 -3.32 1.34 -4 1 C-2 0 -2 0 0 0 Z " fill="#D4633B" transform="translate(255,194)"/>
<path d="M0 0 C0.66 0 1.32 0 2 0 C2 0.99 2 1.98 2 3 C1.01 3.495 1.01 3.495 0 4 C-0.1490712 6.0745356 -0.1490712 6.0745356 1 8 C28.39 8 55.78 8 84 8 C79.53245515 10.23377242 76.22160784 10.26965446 71.37597656 10.22705078 C70.50732468 10.22734283 69.63867279 10.22763489 68.74369812 10.22793579 C65.87590505 10.22654377 63.00837262 10.21098853 60.140625 10.1953125 C58.15094139 10.19158192 56.16125593 10.18873516 54.17156982 10.18673706 C48.93710246 10.17910418 43.70274624 10.1594586 38.46832275 10.1373291 C33.12603255 10.11686327 27.78372437 10.10773376 22.44140625 10.09765625 C11.96088869 10.07621244 1.48045359 10.04208059 -9 10 C-9 9.01 -9 8.02 -9 7 C-7.28515625 5.68359375 -7.28515625 5.68359375 -5.0625 4.4375 C-1.93912598 2.79661289 -1.93912598 2.79661289 0 0 Z " fill="#146277" transform="translate(332,245)"/>
<path d="M0 0 C0.66 0.33 1.32 0.66 2 1 C2 34.33 2 67.66 2 102 C0.02 102.495 0.02 102.495 -2 103 C-2 102.01 -2 101.02 -2 100 C-1.34 100 -0.68 100 0 100 C0 67 0 34 0 0 Z " fill="#D26139" transform="translate(253,76)"/>
<path d="M0 0 C0.33 0.99 0.66 1.98 1 3 C-0.8125 5 -0.8125 5 -3 7 C-3.99 7 -4.98 7 -6 7 C-6 7.66 -6 8.32 -6 9 C16.77 9 39.54 9 63 9 C62.505 7.02 62.505 7.02 62 5 C64.31 6.32 66.62 7.64 69 9 C69 9.99 69 10.98 69 12 C42.6 12 16.2 12 -11 12 C-9.90794834 7.63179336 -9.53967271 7.27695294 -6.0625 4.875 C-3.84290071 3.320072 -1.92118997 1.92118997 0 0 Z " fill="#156379" transform="translate(859,245)"/>
<path d="M0 0 C0.99 0 1.98 0 3 0 C4.29880922 7.92626242 4.13325379 15.86433615 4.11352539 23.87109375 C4.113243 25.47816465 4.11340226 27.08523569 4.1139679 28.69230652 C4.11425386 33.03674696 4.10838958 37.38115957 4.10139394 41.72559357 C4.09512698 46.27262734 4.09455396 50.8196618 4.09336853 55.36669922 C4.09026505 63.96897738 4.08206495 72.57124277 4.07201904 81.17351532 C4.06082733 90.9703688 4.05533975 100.7672229 4.05032361 110.56408119 C4.0398815 130.70939458 4.02230114 150.85469648 4 171 C3.67 171 3.34 171 3 171 C2.99668985 170.19769361 2.99337971 169.39538721 2.98996925 168.5687685 C2.90857669 149.00299525 2.81643162 129.43729929 2.71247292 109.87163258 C2.66245474 100.40963655 2.61601101 90.94764873 2.578125 81.4855957 C2.54507564 73.23380344 2.50517394 64.98207688 2.45720994 56.73035735 C2.432073 52.36539028 2.41025469 48.00046608 2.39665604 43.63544655 C2.38371847 39.51749693 2.36154123 35.39969529 2.33261681 31.28182793 C2.32363154 29.77956377 2.31787229 28.27727585 2.31578636 26.77498627 C2.30092588 17.68895848 1.6716427 8.94841822 0 0 Z " fill="#1A657B" transform="translate(753,19)"/>
<path d="M0 0 C0.99 0.33 1.98 0.66 3 1 C3 1.66 3 2.32 3 3 C3.66 3 4.32 3 5 3 C5.2784375 3.9590625 5.2784375 3.9590625 5.5625 4.9375 C6.94246056 7.42126213 6.94246056 7.42126213 10.625 7.75 C11.73875 7.8325 12.8525 7.915 14 8 C14 8.66 14 9.32 14 10 C15.65 10.33 17.3 10.66 19 11 C19.33 10.01 19.66 9.02 20 8 C22.475 8.495 22.475 8.495 25 9 C23.625 11 23.625 11 22 13 C21.34 13 20.68 13 20 13 C20 13.66 20 14.32 20 15 C18.25 16.6875 18.25 16.6875 16 18 C13.58799349 17.72172608 12.33722921 17.31465628 10.55200195 15.64892578 C10.11847412 15.0867334 9.68494629 14.52454102 9.23828125 13.9453125 C8.75939453 13.33042969 8.28050781 12.71554688 7.78710938 12.08203125 C7.30048828 11.43621094 6.81386719 10.79039062 6.3125 10.125 C5.81427734 9.48691406 5.31605469 8.84882813 4.80273438 8.19140625 C2.67046771 5.4197489 1.11781629 3.35344888 0 0 Z " fill="#E75D2D" transform="translate(88,154)"/>
<path d="M0 0 C2.5 2.3125 2.5 2.3125 5 5 C5 8 5 8 3.1015625 10.04296875 C2.28429687 10.75066406 1.46703125 11.45835937 0.625 12.1875 C-0.59316406 13.26064453 -0.59316406 13.26064453 -1.8359375 14.35546875 C-4 16 -4 16 -6 16 C-6.49382716 8.59259259 -6.49382716 8.59259259 -4.125 5.75 C-3.073125 4.88375 -3.073125 4.88375 -2 4 C-0.76487921 1.86690808 -0.76487921 1.86690808 0 0 Z " fill="#EA5D27" transform="translate(124,143)"/>
<path d="M0 0 C1.98 0.66 3.96 1.32 6 2 C6 2.66 6 3.32 6 4 C6.66 4.33 7.32 4.66 8 5 C6.20369141 4.76603516 6.20369141 4.76603516 4.37109375 4.52734375 C-10.21885942 2.7380525 -23.49888423 3.21859418 -38 6 C-37.34 5.67 -36.68 5.34 -36 5 C-35.67 4.01 -35.34 3.02 -35 2 C-32.36 2.33 -29.72 2.66 -27 3 C-27 2.34 -27 1.68 -27 1 C-23.06251542 0.97101184 -19.12505821 0.95320536 -15.1875 0.9375 C-14.06794922 0.92912109 -12.94839844 0.92074219 -11.79492188 0.91210938 C-10.18520508 0.90727539 -10.18520508 0.90727539 -8.54296875 0.90234375 C-7.0583313 0.89448853 -7.0583313 0.89448853 -5.54370117 0.88647461 C-3 1 -3 1 0 2 C0 1.34 0 0.68 0 0 Z " fill="#DA6035" transform="translate(238,26)"/>
<path d="M0 0 C0.66 0.33 1.32 0.66 2 1 C1.505 1.37125 1.01 1.7425 0.5 2.125 C-1.59755514 4.74694393 -1.21743835 6.73842472 -1 10 C-2.32 10.33 -3.64 10.66 -5 11 C-5 12.32 -5 13.64 -5 15 C-5.99 15 -6.98 15 -8 15 C-8.33 15.66 -8.66 16.32 -9 17 C-9.66 15.68 -10.32 14.36 -11 13 C-11.66 13 -12.32 13 -13 13 C-11.44533803 8.91667098 -8.74912156 6.91791007 -5.375 4.25 C-4.37210938 3.45078125 -3.36921875 2.6515625 -2.3359375 1.828125 C-1.17964844 0.92320312 -1.17964844 0.92320312 0 0 Z " fill="#E85D28" transform="translate(125,173)"/>
<path d="M0 0 C1 3.875 1 3.875 1 5 C18.16 5.33 35.32 5.66 53 6 C53 6.33 53 6.66 53 7 C33.53 7 14.06 7 -6 7 C-6 6.01 -6 5.02 -6 4 C-3 1.8125 -3 1.8125 0 0 Z " fill="#07617B" transform="translate(565,249)"/>
<path d="M0 0 C12.58674326 3.80914599 21.93322434 12.85061135 31 22 C30.67 22.66 30.34 23.32 30 24 C29.34 23.34 28.68 22.68 28 22 C26.34183216 21.31246699 24.67540664 20.64438717 23 20 C22.67 19.67 22.34 19.34 22 19 C21.34 19.33 20.68 19.66 20 20 C20 18.02 20 16.04 20 14 C19.401875 13.731875 18.80375 13.46375 18.1875 13.1875 C16 12 16 12 14.74609375 10.6484375 C11.5301214 7.61232937 7.45997067 5.76365271 3.6171875 3.62109375 C1 2 1 2 0 0 Z " fill="#116277" transform="translate(486,112)"/>
<path d="M0 0 C0.70213623 0.15847412 1.40427246 0.31694824 2.12768555 0.48022461 C5.10447541 1.01890592 7.93483803 1.20791726 10.95703125 1.31640625 C12.62475586 1.37924805 12.62475586 1.37924805 14.32617188 1.44335938 C15.47666016 1.48267578 16.62714844 1.52199219 17.8125 1.5625 C18.98232422 1.60568359 20.15214844 1.64886719 21.35742188 1.69335938 C24.23817031 1.79918279 27.11900123 1.90126825 30 2 C30.495 2.99 30.495 2.99 31 4 C19.78 4 8.56 4 -3 4 C-2.01 2.68 -1.02 1.36 0 0 Z " fill="#D4673E" transform="translate(28,251)"/>
<path d="M0 0 C0.66 0 1.32 0 2 0 C2 11.22 2 22.44 2 34 C0.02 33.67 -1.96 33.34 -4 33 C-2.02 32.505 -2.02 32.505 0 32 C0 21.44 0 10.88 0 0 Z " fill="#D46239" transform="translate(253,0)"/>
<path d="M0 0 C3.62528568 -0.20140476 5.86501708 0.14223235 9 2 C9 4.64 9 7.28 9 10 C10.65 10.33 12.3 10.66 14 11 C13.67 12.98 13.34 14.96 13 17 C7.84577707 12.32898547 3.88634822 6.74755221 0 1 C0 0.67 0 0.34 0 0 Z " fill="#096680" transform="translate(646,113)"/>
<path d="M0 0 C2.95514876 2.75134539 5.1524809 5.39733775 7 9 C7 9.99 7 10.98 7 12 C0.4 12 -6.2 12 -13 12 C-8.26004945 8.84003297 -3.58842581 8.86694224 2 9 C1.67 8.01 1.34 7.02 1 6 C1.33 5.34 1.66 4.68 2 4 C1.01 3.67 0.02 3.34 -1 3 C-0.67 2.01 -0.34 1.02 0 0 Z " fill="#DE6236" transform="translate(117,243)"/>
<path d="M0 0 C6.75 -0.125 6.75 -0.125 9 1 C9.309375 2.11375 9.61875 3.2275 9.9375 4.375 C11.36293558 9.23825081 12.88862884 10.25908589 17 13 C17.1875 16.625 17.1875 16.625 17 20 C15.93469504 18.40204256 14.86988039 16.80375403 13.80859375 15.203125 C10.3694742 10.3040943 6.63655587 6.9071271 1.7578125 3.4453125 C1.17773438 2.96835937 0.59765625 2.49140625 0 2 C0 1.34 0 0.68 0 0 Z " fill="#07677F" transform="translate(323,0)"/>
<path d="M0 0 C0.8971875 0.309375 0.8971875 0.309375 1.8125 0.625 C-0.26665159 2.42172348 -2.35050651 4.21242527 -4.4375 6 C-5.31728516 6.76183594 -5.31728516 6.76183594 -6.21484375 7.5390625 C-9.06915933 9.97645558 -11.6755973 12.18199048 -15.1875 13.625 C-13.71057692 5.99423077 -13.71057692 5.99423077 -11.0625 4.125 C-10.44375 3.96 -9.825 3.795 -9.1875 3.625 C-9.1875 4.285 -9.1875 4.945 -9.1875 5.625 C-8.5275 5.625 -7.8675 5.625 -7.1875 5.625 C-7.1875 4.965 -7.1875 4.305 -7.1875 3.625 C-6.5275 3.625 -5.8675 3.625 -5.1875 3.625 C-5.1875 2.965 -5.1875 2.305 -5.1875 1.625 C-2.1875 -0.375 -2.1875 -0.375 0 0 Z " fill="#E05E2D" transform="translate(15.1875,241.375)"/>
<path d="M0 0 C0.33 0 0.66 0 1 0 C0.98952637 0.73001221 0.97905273 1.46002441 0.96826172 2.2121582 C0.92621401 5.57890256 0.90052069 8.94559137 0.875 12.3125 C0.85824219 13.46041016 0.84148437 14.60832031 0.82421875 15.79101562 C0.78741962 22.28606273 1.18477882 28.25234613 2.66455078 34.58666992 C3.04234154 37.30461871 2.67371045 39.35614327 2 42 C1.34 42 0.68 42 0 42 C0.33 39.03 0.66 36.06 1 33 C0.01 33 -0.98 33 -2 33 C-1.83628906 32.29568848 -1.67257813 31.59137695 -1.50390625 30.86572266 C-0.97992959 27.88585928 -0.9024976 25.17176996 -0.9375 22.1484375 C-0.94523437 21.05015625 -0.95296875 19.951875 -0.9609375 18.8203125 C-0.97382812 17.68335937 -0.98671875 16.54640625 -1 15.375 C-1.02548393 13.11202676 -1.04652546 10.84899785 -1.0625 8.5859375 C-1.07410156 7.5861084 -1.08570312 6.5862793 -1.09765625 5.55615234 C-1 3 -1 3 0 0 Z " fill="#DD5D2E" transform="translate(76,13)"/>
<path d="M0 0 C2.31 0.33 4.62 0.66 7 1 C7 2.65 7 4.3 7 6 C8.32 6 9.64 6 11 6 C11.33 7.32 11.66 8.64 12 10 C12.99 9.01 13.98 8.02 15 7 C15.99 7.99 16.98 8.98 18 10 C17.34 10.66 16.68 11.32 16 12 C16.33 12.99 16.66 13.98 17 15 C13.57143381 13.49017269 11.04321784 11.48286031 8.25 9 C7.05117188 7.948125 7.05117188 7.948125 5.828125 6.875 C4 5 4 5 4 3 C2.68 2.34 1.36 1.68 0 1 C0 0.67 0 0.34 0 0 Z " fill="#0E637A" transform="translate(740,234)"/>
<path d="M0 0 C0.66 0.66 1.32 1.32 2 2 C1.33613281 2.53367188 0.67226563 3.06734375 -0.01171875 3.6171875 C-6.16804617 8.81186961 -10.0249127 13.49964833 -13 21 C-13.33 21 -13.66 21 -14 21 C-14.20376515 17.33222736 -13.84052833 15.16979879 -12 12 C-11.649375 11.29875 -11.29875 10.5975 -10.9375 9.875 C-10.29166667 8.58333333 -9.64583333 7.29166667 -9 6 C-7.68 6 -6.36 6 -5 6 C-4.67 5.01 -4.34 4.02 -4 3 C-3.01 2.67 -2.02 2.34 -1 2 C-0.67 1.34 -0.34 0.68 0 0 Z " fill="#0F6478" transform="translate(801,1)"/>
<path d="M0 0 C0.66 0 1.32 0 2 0 C1.89042969 0.53625 1.78085938 1.0725 1.66796875 1.625 C0.02745157 9.73422314 -1.48629829 17.86637615 -3 26 C-3.99 25.67 -4.98 25.34 -6 25 C-5.34 24.67 -4.68 24.34 -4 24 C-4.01160156 23.21753906 -4.02320313 22.43507813 -4.03515625 21.62890625 C-4.04417969 20.61699219 -4.05320313 19.60507813 -4.0625 18.5625 C-4.07410156 17.55316406 -4.08570313 16.54382813 -4.09765625 15.50390625 C-4 13 -4 13 -3 12 C-2.92820036 10.48071962 -2.91607993 8.95832518 -2.9375 7.4375 C-2.95103516 6.19806641 -2.95103516 6.19806641 -2.96484375 4.93359375 C-2.97644531 4.29550781 -2.98804688 3.65742187 -3 3 C-2.01 3 -1.02 3 0 3 C0 2.01 0 1.02 0 0 Z " fill="#DC6237" transform="translate(149,80)"/>
<path d="M0 0 C0.66 0.33 1.32 0.66 2 1 C0.5836449 4.33646536 -1.08171998 6.15544293 -3.875 8.4375 C-6.37431473 10.53457421 -8.2771349 12.35203623 -10.3125 14.9375 C-11.1478125 15.9584375 -11.1478125 15.9584375 -12 17 C-12.99 17 -13.98 17 -15 17 C-15 16.34 -15 15.68 -15 15 C-14.01 15 -13.02 15 -12 15 C-12.33 14.01 -12.66 13.02 -13 12 C-12.67 11.34 -12.34 10.68 -12 10 C-11.34 10 -10.68 10 -10 10 C-10 9.34 -10 8.68 -10 8 C-8.68 8 -7.36 8 -6 8 C-5.67 7.01 -5.34 6.02 -5 5 C-4.34 5 -3.68 5 -3 5 C-3 4.34 -3 3.68 -3 3 C-2.01 3 -1.02 3 0 3 C0 2.01 0 1.02 0 0 Z " fill="#DC5E31" transform="translate(177,41)"/>
<path d="M0 0 C4.30001343 1.44380013 7.27623738 3.60832733 10.75 6.5 C11.71421875 7.2940625 12.6784375 8.088125 13.671875 8.90625 C16 11 16 11 17 13 C16.01 13 15.02 13 14 13 C13.34 12.01 12.68 11.02 12 10 C11.01 9.67 10.02 9.34 9 9 C8.67 9.99 8.34 10.98 8 12 C7.01 12.33 6.02 12.66 5 13 C5 12.01 5 11.02 5 10 C5.66 10 6.32 10 7 10 C6.95231597 8.12119128 6.95231597 8.12119128 6 6 C4.02514795 4.6296945 2.02613283 3.29327628 0 2 C0 1.34 0 0.68 0 0 Z " fill="#E25D32" transform="translate(235,62)"/>
<path d="M0 0 C1.98 0 3.96 0 6 0 C6.33 0.99 6.66 1.98 7 3 C7.66 3.66 8.32 4.32 9 5 C12.56101478 8.91711626 14.63184465 11.77613411 16 17 C13.73464837 14.80308799 11.70910566 12.48377943 9.6875 10.0625 C7.47573886 7.49779825 5.43255898 5.42728822 2.5625 3.625 C1.716875 3.08875 0.87125 2.5525 0 2 C0 1.34 0 0.68 0 0 Z " fill="#156379" transform="translate(558,0)"/>
<path d="M0 0 C0.66 0.99 1.32 1.98 2 3 C1.67 3.66 1.34 4.32 1 5 C-0.65 5 -2.3 5 -4 5 C-4 5.66 -4 6.32 -4 7 C-4.8971875 7.37125 -4.8971875 7.37125 -5.8125 7.75 C-8.1236962 8.86339135 -8.1236962 8.86339135 -9.4375 11.0625 C-11.43958017 13.54507941 -12.90228009 13.66511136 -16 14 C-12.56846086 10.46808678 -9.02624938 7.2862495 -5.1875 4.1875 C-4.21167969 3.39730469 -3.23585938 2.60710937 -2.23046875 1.79296875 C-1.49441406 1.20128906 -0.75835937 0.60960937 0 0 Z " fill="#DC6335" transform="translate(47,236)"/>
<path d="M0 0 C1.98 0.66 3.96 1.32 6 2 C1.1216097 5.2522602 -3.06950392 5.18293368 -8.75 5.1875 C-9.53632813 5.19974609 -10.32265625 5.21199219 -11.1328125 5.22460938 C-16.14430555 5.23709648 -20.24964503 4.60673771 -25 3 C-25 2.67 -25 2.34 -25 2 C-24.01 2.144375 -23.02 2.28875 -22 2.4375 C-15.03553779 3.32067456 -8.00526078 3.60042809 -1 4 C-0.67 2.68 -0.34 1.36 0 0 Z " fill="#DC6232" transform="translate(245,177)"/>
<path d="M0 0 C4.50513431 4.23209586 8.514292 8.88695859 12 14 C12 14.66 12 15.32 12 16 C10.35 16 8.7 16 7 16 C7.185625 14.88625 7.185625 14.88625 7.375 13.75 C7.25125 12.8425 7.1275 11.935 7 11 C6.030625 10.38125 5.06125 9.7625 4.0625 9.125 C1 7 1 7 0.125 3.25 C0.08375 2.1775 0.0425 1.105 0 0 Z " fill="#126177" transform="translate(683,94)"/>
<path d="M0 0 C0.66 0.33 1.32 0.66 2 1 C2 1.99 2 2.98 2 4 C0.35 4.33 -1.3 4.66 -3 5 C-3 5.66 -3 6.32 -3 7 C-6.08597955 9.73329617 -9.28861632 12.19189 -13 14 C-15.15234375 13.57421875 -15.15234375 13.57421875 -17 13 C-16.00419922 12.41992188 -16.00419922 12.41992188 -14.98828125 11.828125 C-6.51581304 7.03438176 -6.51581304 7.03438176 0 0 Z " fill="#0F6375" transform="translate(476,206)"/>
<path d="M0 0 C1.1055189 0.93590504 2.20935453 1.87379858 3.3125 2.8125 C3.92738281 3.33457031 4.54226563 3.85664063 5.17578125 4.39453125 C6.85424679 5.87172469 8.43882034 7.40039131 10 9 C9.67 9.66 9.34 10.32 9 11 C7.68 11 6.36 11 5 11 C3.4375 8.625 3.4375 8.625 2 6 C1.01 5.34 0.02 4.68 -1 4 C-0.67 2.68 -0.34 1.36 0 0 Z " fill="#0E637A" transform="translate(486,16)"/>
<path d="M0 0 C2.97 0.33 5.94 0.66 9 1 C9.2475 1.78375 9.495 2.5675 9.75 3.375 C11.15389099 6.32317108 12.00675737 6.9024777 15 8 C14.01 8.495 14.01 8.495 13 9 C10.72265625 8.14453125 10.72265625 8.14453125 8.0625 6.8125 C7.18722656 6.38582031 6.31195313 5.95914063 5.41015625 5.51953125 C2.90444939 3.9397582 1.59982004 2.46572923 0 0 Z " fill="#DF6133" transform="translate(151,229)"/>
<path d="M0 0 C1.24546405 2.49092811 0.7767578 3.41080733 0 6 C2.31 6.33 4.62 6.66 7 7 C7 7.33 7 7.66 7 8 C2.05 8 -2.9 8 -8 8 C-5.33333333 5.33333333 -2.66666667 2.66666667 0 0 Z " fill="#D86239" transform="translate(174,247)"/>
<path d="M0 0 C1.32 0 2.64 0 4 0 C4 1.32 4 2.64 4 4 C4.99 4.33 5.98 4.66 7 5 C7.68132451 6.66072849 8.34742127 8.327767 9 10 C9.99 10.66 10.98 11.32 12 12 C11.67 12.99 11.34 13.98 11 15 C9.72719706 13.58510266 8.4568417 12.16800334 7.1875 10.75 C6.47980469 9.96109375 5.77210938 9.1721875 5.04296875 8.359375 C0 2.53537285 0 2.53537285 0 0 Z " fill="#DC5F32" transform="translate(125,200)"/>
<path d="M0 0 C4.00972202 3.67557852 6.45335415 7.18966896 9 12 C8.34 12 7.68 12 7 12 C7 11.34 7 10.68 7 10 C5.02 10 3.04 10 1 10 C0 7 0 7 1 4 C0.61067144 1.85744207 0.61067144 1.85744207 0 0 Z " fill="#0F647B" transform="translate(747,180)"/>
<path d="M0 0 C2.5 2.3125 2.5 2.3125 5 5 C5 5.99 5 6.98 5 8 C3 9.6875 3 9.6875 1 11 C1 9.68 1 8.36 1 7 C0.01 6.67 -0.98 6.34 -2 6 C-1.34 4.02 -0.68 2.04 0 0 Z " fill="#E25F33" transform="translate(124,143)"/>
<path d="M0 0 C2.64 0.33 5.28 0.66 8 1 C4.82469891 3.72168665 2.05745175 5.85559053 -2 7 C-4.3125 6.625 -4.3125 6.625 -6 6 C-4.68 5.67 -3.36 5.34 -2 5 C-2 4.34 -2 3.68 -2 3 C-1.34 3 -0.68 3 0 3 C0 2.01 0 1.02 0 0 Z " fill="#0E647E" transform="translate(477,98)"/>
<path d="M0 0 C1.98 0 3.96 0 6 0 C5.48041715 4.37934119 4.94324258 8.68803391 4 13 C3.67 13 3.34 13 3 13 C2.8046875 10.98177083 2.609375 8.96354167 2.4140625 6.9453125 C2.13625251 4.77331755 2.13625251 4.77331755 0 3 C0 2.01 0 1.02 0 0 Z " fill="#E3592D" transform="translate(74,0)"/>
<path d="M0 0 C3.91939465 3.80411834 7.49102731 7.81576108 11 12 C10.67 12.66 10.34 13.32 10 14 C9.5875 13.484375 9.175 12.96875 8.75 12.4375 C8.1725 11.963125 7.595 11.48875 7 11 C4.83700789 11.22757731 4.83700789 11.22757731 3 12 C3.061875 11.278125 3.12375 10.55625 3.1875 9.8125 C2.96406005 6.46090075 1.80502113 4.78274092 0 2 C0 1.34 0 0.68 0 0 Z " fill="#D8613A" transform="translate(24,126)"/>
<path d="M0 0 C0.66 0.33 1.32 0.66 2 1 C-2.39332418 5.40212843 -5.91211279 5.64119152 -11.8125 5.75 C-12.60076172 5.77964844 -13.38902344 5.80929688 -14.20117188 5.83984375 C-16.13357446 5.91011293 -18.06679015 5.95737134 -20 6 C-20 5.67 -20 5.34 -20 5 C-18.72382813 4.72285156 -17.44765625 4.44570312 -16.1328125 4.16015625 C-14.46351107 3.79441043 -12.7942419 3.42851738 -11.125 3.0625 C-10.28324219 2.88009766 -9.44148438 2.69769531 -8.57421875 2.50976562 C-7.76855469 2.33251953 -6.96289062 2.15527344 -6.1328125 1.97265625 C-5.01737061 1.72914429 -5.01737061 1.72914429 -3.87939453 1.48071289 C-1.92812876 1.05224081 -1.92812876 1.05224081 0 0 Z " fill="#106478" transform="translate(443,96)"/>
<path d="M0 0 C0.66 0.33 1.32 0.66 2 1 C1.34 2.65 0.68 4.3 0 6 C-0.66 6 -1.32 6 -2 6 C-2 6.66 -2 7.32 -2 8 C-2.78375 8.309375 -3.5675 8.61875 -4.375 8.9375 C-6.92330128 9.92875038 -6.92330128 9.92875038 -9 11 C-7.59155282 7.78475695 -5.89655214 5.67816132 -3.375 3.25 C-2.74335938 2.63640625 -2.11171875 2.0228125 -1.4609375 1.390625 C-0.73777344 0.70226563 -0.73777344 0.70226563 0 0 Z " fill="#DF6137" transform="translate(179,63)"/>
<path d="M0 0 C0.33 0 0.66 0 1 0 C0.48041715 4.37934119 -0.05675742 8.68803391 -1 13 C-1.99 13 -2.98 13 -4 13 C-4 13.99 -4 14.98 -4 16 C-6 17.6875 -6 17.6875 -8 19 C-8.66 18.67 -9.32 18.34 -10 18 C-9.0925 17.071875 -8.185 16.14375 -7.25 15.1875 C-3.34994423 10.69596658 -1.72634441 5.61569683 0 0 Z " fill="#156275" transform="translate(576,230)"/>
<path d="M0 0 C0.66 0.33 1.32 0.66 2 1 C1.505 1.37125 1.01 1.7425 0.5 2.125 C-1.59755514 4.74694393 -1.21743835 6.73842472 -1 10 C-2.32 10.33 -3.64 10.66 -5 11 C-5 10.34 -5 9.68 -5 9 C-5.99 8.34 -6.98 7.68 -8 7 C-5.36 4.69 -2.72 2.38 0 0 Z " fill="#E25E32" transform="translate(125,173)"/>
<path d="M0 0 C1.42185746 4.66579892 0.93955044 8.53678741 -1 13 C-3.41758509 15.69824161 -6.06900492 17.88014077 -9 20 C-9.66 19.67 -10.32 19.34 -11 19 C-10.54109375 18.55011719 -10.0821875 18.10023437 -9.609375 17.63671875 C-4.49493081 12.27514805 -2.09157186 7.06717447 0 0 Z " fill="#155F78" transform="translate(461,73)"/>
<path d="M0 0 C1 2 1 2 0.22265625 4.6015625 C-0.16019531 5.59929688 -0.54304687 6.59703125 -0.9375 7.625 C-1.31777344 8.62789062 -1.69804688 9.63078125 -2.08984375 10.6640625 C-2.39019531 11.43492188 -2.69054687 12.20578125 -3 13 C-3.33 13 -3.66 13 -4 13 C-4.12375 12.195625 -4.2475 11.39125 -4.375 10.5625 C-4.684375 9.2940625 -4.684375 9.2940625 -5 8 C-5.66 7.67 -6.32 7.34 -7 7 C-6.67 5.68 -6.34 4.36 -6 3 C-5.34 3.66 -4.68 4.32 -4 5 C-2.68 3.35 -1.36 1.7 0 0 Z " fill="#0D6178" transform="translate(913,14)"/>
<path d="M0 0 C0.66 0.33 1.32 0.66 2 1 C1.67 1.66 1.34 2.32 1 3 C1.721875 3.061875 2.44375 3.12375 3.1875 3.1875 C6.84657625 4.24456647 8.49211602 6.20550071 11 9 C7.41215039 9 6.29978721 8.11614178 3.375 6.125 C2.57835937 5.59132813 1.78171875 5.05765625 0.9609375 4.5078125 C-1 3 -1 3 -2 1 C-1.34 0.67 -0.68 0.34 0 0 Z " fill="#0E6475" transform="translate(771,258)"/>
<path d="M0 0 C3.44428265 1.44781793 5.36130962 3.27694609 7.75 6.125 C8.36359375 6.84945312 8.9771875 7.57390625 9.609375 8.3203125 C10.29773438 9.15175781 10.29773438 9.15175781 11 10 C10.67 10.66 10.34 11.32 10 12 C8 10.625 8 10.625 6 9 C6 8.34 6 7.68 6 7 C4.68 6.67 3.36 6.34 2 6 C2 4.68 2 3.36 2 2 C1.01 1.67 0.02 1.34 -1 1 C-0.67 0.67 -0.34 0.34 0 0 Z " fill="#DF6033" transform="translate(86,205)"/>
<path d="M0 0 C0.598125 0.825 1.19625 1.65 1.8125 2.5 C2.8953125 3.7375 2.8953125 3.7375 4 5 C4.99 5 5.98 5 7 5 C8.125 6.75 8.125 6.75 9 9 C8.0546875 11.140625 8.0546875 11.140625 7 13 C5.82157218 11.59310148 4.65762602 10.17406375 3.5 8.75 C2.8503125 7.96109375 2.200625 7.1721875 1.53125 6.359375 C0 4 0 4 0 0 Z " fill="#0E5F78" transform="translate(703,187)"/>
<path d="M0 0 C3.465 1.485 3.465 1.485 7 3 C4.64722731 5.72426311 2.37503669 6.8141763 -1 8 C-1.04241723 5.66705225 -1.04092937 3.33297433 -1 1 C-0.67 0.67 -0.34 0.34 0 0 Z " fill="#DF5F2C" transform="translate(185,32)"/>
<path d="M0 0 C3.38749978 1.45178562 5.45161209 3.36940603 8 6 C8.99 6.66 9.98 7.32 11 8 C11.1875 11.625 11.1875 11.625 11 15 C10.34 14.01 9.68 13.02 9 12 C8.02835648 10.68192091 7.04861268 9.36978933 6.0625 8.0625 C5.55847656 7.39347656 5.05445313 6.72445313 4.53515625 6.03515625 C4.02855469 5.36355469 3.52195312 4.69195312 3 4 C1.99963039 2.66694396 0.99952255 1.33369129 0 0 Z " fill="#186379" transform="translate(329,5)"/>
<path d="M0 0 C2.31 0 4.62 0 7 0 C8.04449911 3.13349732 7.93423645 3.98968256 7 7 C5.82780457 6.21654285 4.66236332 5.42297164 3.5 4.625 C2.8503125 4.18414063 2.200625 3.74328125 1.53125 3.2890625 C1.0259375 2.86367188 0.520625 2.43828125 0 2 C0 1.34 0 0.68 0 0 Z " fill="#0A657D" transform="translate(848,0)"/>
<path d="M0 0 C0.8971875 0.309375 0.8971875 0.309375 1.8125 0.625 C-0.26687949 1.94414392 -2.35058019 3.25538213 -4.4375 4.5625 C-5.02402344 4.93568359 -5.61054688 5.30886719 -6.21484375 5.69335938 C-9.14656265 7.5215661 -11.74230229 9.08775382 -15.1875 9.625 C-12.81952009 7.00775905 -10.29149646 5.29638271 -7.1875 3.625 C-6.5275 3.625 -5.8675 3.625 -5.1875 3.625 C-5.1875 2.965 -5.1875 2.305 -5.1875 1.625 C-2.1875 -0.375 -2.1875 -0.375 0 0 Z " fill="#146272" transform="translate(499.1875,232.375)"/>
<path d="M0 0 C2.04119788 1.61594832 4.04072937 3.2856382 6 5 C6 5.66 6 6.32 6 7 C6.9590625 7.433125 6.9590625 7.433125 7.9375 7.875 C10 9 10 9 11 11 C7.19617021 10.47169031 4.70295181 9.79615704 2 7 C0.75 3.3125 0.75 3.3125 0 0 Z " fill="#DD6133" transform="translate(143,165)"/>
<path d="M0 0 C2.08432499 3.12648749 3.28558611 6.05730868 4.625 9.5625 C5.07101563 10.71878906 5.51703125 11.87507813 5.9765625 13.06640625 C7 16 7 16 7 18 C6.34 18 5.68 18 5 18 C0.40774487 8.58997722 0.40774487 8.58997722 1 4 C0.34 3.67 -0.32 3.34 -1 3 C-0.67 2.01 -0.34 1.02 0 0 Z " fill="#D56136" transform="translate(82,66)"/>
<path d="M0 0 C0.66 0 1.32 0 2 0 C2.33 0.66 2.66 1.32 3 2 C5.02463255 2.65213292 5.02463255 2.65213292 7 3 C6.67 5.31 6.34 7.62 6 10 C2.63408573 7.27521226 1.55773724 3.93143208 0 0 Z " fill="#E05E2F" transform="translate(169,128)"/>
<path d="M0 0 C2.97 0.495 2.97 0.495 6 1 C7.0013988 4.00419641 7.51421457 6.87709365 8 10 C3.125 5.375 3.125 5.375 2 2 C1.34 2 0.68 2 0 2 C0 1.34 0 0.68 0 0 Z " fill="#DD6038" transform="translate(63,123)"/>
<path d="M0 0 C1.98 0.99 1.98 0.99 4 2 C4 2.66 4 3.32 4 4 C4.804375 4.2475 5.60875 4.495 6.4375 4.75 C9 6 9 6 9.8125 8.125 C9.874375 8.74375 9.93625 9.3625 10 10 C8.68 9.34 7.36 8.68 6 8 C6 7.34 6 6.68 6 6 C5.38125 5.7525 4.7625 5.505 4.125 5.25 C1.64931313 3.79371361 1.04874998 2.62187494 0 0 Z " fill="#105E74" transform="translate(730,223)"/>
<path d="M0 0 C0.99 0.495 0.99 0.495 2 1 C2 1.66 2 2.32 2 3 C2.66 3 3.32 3 4 3 C4.66 4.32 5.32 5.64 6 7 C4.02 7.99 4.02 7.99 2 9 C-0.29013653 5.5647952 -0.17842973 4.014669 0 0 Z " fill="#E05C2E" transform="translate(0,96)"/>
<path d="M0 0 C0.33 1.32 0.66 2.64 1 4 C0.34 4 -0.32 4 -1 4 C-1 4.99 -1 5.98 -1 7 C-2.65 7 -4.3 7 -6 7 C-6 6.01 -6 5.02 -6 4 C-3 1.8125 -3 1.8125 0 0 Z " fill="#105E76" transform="translate(565,249)"/>
<path d="M0 0 C-0.185625 0.5775 -0.37125 1.155 -0.5625 1.75 C-1.04023546 4.20692525 -0.75729364 5.64397534 0 8 C-2.64752004 5.42215154 -4.94432065 3.08351902 -7 0 C-3.98968256 -0.93423645 -3.13349732 -1.04449911 0 0 Z " fill="#0F647E" transform="translate(727,212)"/>
<path d="M0 0 C0.33 0.66 0.66 1.32 1 2 C3.52733235 2.65555119 3.52733235 2.65555119 6 3 C5.67 4.98 5.34 6.96 5 9 C2.5 6.75 2.5 6.75 0 4 C0 2.68 0 1.36 0 0 Z " fill="#0D6078" transform="translate(654,121)"/>
<path d="M0 0 C0 0.66 0 1.32 0 2 C0.66 2.33 1.32 2.66 2 3 C0.58194169 2.71517632 -0.83440379 2.42181856 -2.25 2.125 C-3.03890625 1.96257813 -3.8278125 1.80015625 -4.640625 1.6328125 C-6.96831144 1.00849925 -8.89031952 0.15161458 -11 -1 C-3.57142857 -2.42857143 -3.57142857 -2.42857143 0 0 Z " fill="#0C6372" transform="translate(438,26)"/>
<path d="M0 0 C1.65 0.99 3.3 1.98 5 3 C4.01 4.32 3.02 5.64 2 7 C0.68 6.67 -0.64 6.34 -2 6 C-2 3 -2 3 0 0 Z " fill="#06637B" transform="translate(500,225)"/>
<path d="M0 0 C3.39417765 3.12621626 5.6062718 5.56541027 7 10 C5.68 9.67 4.36 9.34 3 9 C2.87625 8.360625 2.7525 7.72125 2.625 7.0625 C2.315625 6.0415625 2.315625 6.0415625 2 5 C1.34 4.67 0.68 4.34 0 4 C0 2.68 0 1.36 0 0 Z " fill="#116276" transform="translate(736,165)"/>
<path d="M0 0 C3 1 3 1 5 3 C5.99 3.33 6.98 3.66 8 4 C8 5.98 8 7.96 8 10 C4.71211176 6.88983545 2.16264012 3.98381075 0 0 Z " fill="#0F6174" transform="translate(669,144)"/>
<path d="M0 0 C2.09749995 2.35968744 2.96905704 3.54616994 3.1875 6.75 C3.0946875 7.86375 3.0946875 7.86375 3 9 C3.66 9 4.32 9 5 9 C5.33 10.65 5.66 12.3 6 14 C5.01 14 4.02 14 3 14 C2.49528803 12.23050388 1.99639315 10.45934777 1.5 8.6875 C1.2215625 7.70136719 0.943125 6.71523438 0.65625 5.69921875 C0 3 0 3 0 0 Z " fill="#10657A" transform="translate(574,17)"/>
<path d="M0 0 C3.21852831 0.63065757 5.50801069 1.78020695 8.25 3.5625 C8.95640625 4.01753906 9.6628125 4.47257813 10.390625 4.94140625 C11.18726563 5.46541016 11.18726563 5.46541016 12 6 C11.01 6.33 10.02 6.66 9 7 C9 6.34 9 5.68 9 5 C7.88625 4.9175 6.7725 4.835 5.625 4.75 C2 4 2 4 0.5625 1.9375 C0.376875 1.298125 0.19125 0.65875 0 0 Z " fill="#156278" transform="translate(473,9)"/>
<path d="M0 0 C2.5999298 2.51027705 4.99091227 4.9863684 7 8 C7 8.66 7 9.32 7 10 C5.68 10.33 4.36 10.66 3 11 C2.9175 10.0925 2.835 9.185 2.75 8.25 C1.90751268 4.59922161 0.82118382 3.36615417 -2 1 C-1.34 0.67 -0.68 0.34 0 0 Z " fill="#116378" transform="translate(622,11)"/>
<path d="M0 0 C2 3 2 3 1.625 6.1875 C1.41875 7.115625 1.2125 8.04375 1 9 C-0.32 9 -1.64 9 -3 9 C-2.01 6.03 -1.02 3.06 0 0 Z " fill="#0A647A" transform="translate(525,150)"/>
<path d="M0 0 C0.66 0.33 1.32 0.66 2 1 C1.01 3.31 0.02 5.62 -1 8 C-1.66 8 -2.32 8 -3 8 C-3.75 6.25 -3.75 6.25 -4 4 C-2.0625 1.75 -2.0625 1.75 0 0 Z " fill="#DF6031" transform="translate(53,231)"/>
<path d="M0 0 C0.66 0.33 1.32 0.66 2 1 C-3.0940919 7.70459519 -3.0940919 7.70459519 -6.875 8.9375 C-7.57625 8.958125 -8.2775 8.97875 -9 9 C-6 6 -3 3 0 0 Z " fill="#DD6436" transform="translate(136,164)"/>
<path d="M0 0 C2.66666667 1.33333333 5.33333333 2.66666667 8 4 C7.67 5.32 7.34 6.64 7 8 C6.34 8 5.68 8 5 8 C3.7109375 6.25 3.7109375 6.25 2.375 4 C1.92898437 3.2575 1.48296875 2.515 1.0234375 1.75 C0.68570313 1.1725 0.34796875 0.595 0 0 Z " fill="#DF6133" transform="translate(54,112)"/>
<path d="M0 0 C1 2 1 2 0.25 4.3125 C-1.00173326 7.00372652 -2.42139202 9.48857821 -4 12 C-5 9 -5 9 -4.2578125 6.9921875 C-3.88398438 6.29351562 -3.51015625 5.59484375 -3.125 4.875 C-2.75632813 4.17117187 -2.38765625 3.46734375 -2.0078125 2.7421875 C-1 1 -1 1 0 0 Z " fill="#DC633B" transform="translate(169,74)"/>
<path d="M0 0 C0 0.66 0 1.32 0 2 C-0.66 2 -1.32 2 -2 2 C-2 2.99 -2 3.98 -2 5 C-4.66666667 5 -7.33333333 5 -10 5 C-8.71186658 4.16121545 -7.41936744 3.32913217 -6.125 2.5 C-5.40570313 2.0359375 -4.68640625 1.571875 -3.9453125 1.09375 C-2 0 -2 0 0 0 Z " fill="#E06031" transform="translate(191,57)"/>
<path d="M0 0 C3.63 0.66 7.26 1.32 11 2 C11 2.33 11 2.66 11 3 C7.7 3.33 4.4 3.66 1 4 C0.67 2.68 0.34 1.36 0 0 Z " fill="#105C73" transform="translate(452,2)"/>
<path d="M0 0 C-1.32 0.33 -2.64 0.66 -4 1 C-3.67 1.99 -3.34 2.98 -3 4 C-3.33 4.66 -3.66 5.32 -4 6 C-5.32 5.34 -6.64 4.68 -8 4 C-7.67 3.01 -7.34 2.02 -7 1 C-4.53721199 -0.231394 -2.7204945 -0.07159196 0 0 Z " fill="#09627F" transform="translate(451,1)"/>
<path d="M0 0 C0.99 0.33 1.98 0.66 3 1 C3 1.66 3 2.32 3 3 C3.66 3 4.32 3 5 3 C6.6875 5.375 6.6875 5.375 8 8 C7.67 8.66 7.34 9.32 7 10 C5.82739389 8.71372289 4.6620717 7.42080217 3.5 6.125 C2.8503125 5.40570313 2.200625 4.68640625 1.53125 3.9453125 C0 2 0 2 0 0 Z " fill="#D76438" transform="translate(88,154)"/>
<path d="M0 0 C4.875 4.625 4.875 4.625 6 8 C5.34 8 4.68 8 4 8 C4 7.34 4 6.68 4 6 C3.01 6.33 2.02 6.66 1 7 C0 2.25 0 2.25 0 0 Z " fill="#0E6278" transform="translate(643,40)"/>
<path d="M0 0 C1.32 0.33 2.64 0.66 4 1 C1.69 2.65 -0.62 4.3 -3 6 C-3 4.68 -3 3.36 -3 2 C-2.01 1.34 -1.02 0.68 0 0 Z " fill="#D76136" transform="translate(13,241)"/>
<path d="M0 0 C0.99 0.99 1.98 1.98 3 3 C2.01 4.485 2.01 4.485 1 6 C-0.9375 5.625 -0.9375 5.625 -3 5 C-3.33 4.34 -3.66 3.68 -4 3 C-3.01 2.34 -2.02 1.68 -1 1 C-0.67 0.67 -0.34 0.34 0 0 Z " fill="#08627D" transform="translate(731,217)"/>
<path d="M0 0 C2.97 0.495 2.97 0.495 6 1 C5.01 1.495 5.01 1.495 4 2 C4.66 3.98 5.32 5.96 6 8 C1.125 3.375 1.125 3.375 0 0 Z " fill="#DD612F" transform="translate(32,84)"/>
<path d="M0 0 C2.475 0.495 2.475 0.495 5 1 C5.12375 1.61875 5.2475 2.2375 5.375 2.875 C5.87197356 5.19120832 5.87197356 5.19120832 8 7 C7.01 7 6.02 7 5 7 C3.61328125 5.46875 3.61328125 5.46875 2.3125 3.5 C1.87550781 2.8503125 1.43851563 2.200625 0.98828125 1.53125 C0.49908203 0.77328125 0.49908203 0.77328125 0 0 Z " fill="#D75F35" transform="translate(24,75)"/>
<path d="M0 0 C0.66 0.33 1.32 0.66 2 1 C1.40072174 4.35595828 0.15377564 6.37801226 -2 9 C-2.33 7.35 -2.66 5.7 -3 4 C-2.01 4 -1.02 4 0 4 C0 2.68 0 1.36 0 0 Z " fill="#D9623A" transform="translate(155,66)"/>
<path d="M0 0 C0.66 0 1.32 0 2 0 C3.60355101 3.50776784 4.22036864 6.14354879 4 10 C1.16625119 6.79663178 0.4794463 4.21912747 0 0 Z " fill="#E15E34" transform="translate(119,60)"/>
<path d="M0 0 C1.89213369 2.38573379 3.02391783 4.07175348 4 7 C3.5625 9.6875 3.5625 9.6875 3 12 C0.60926555 8.17482487 0.44033448 4.40334476 0 0 Z " fill="#DB6133" transform="translate(114,43)"/>
<path d="M0 0 C0.99 0 1.98 0 3 0 C1.86500606 3.29148243 1.00716624 3.9959869 -2.125 5.75 C-3.548125 6.36875 -3.548125 6.36875 -5 7 C-5 6.34 -5 5.68 -5 5 C-4.34 5 -3.68 5 -3 5 C-3 4.34 -3 3.68 -3 3 C-2.01 3 -1.02 3 0 3 C0 2.01 0 1.02 0 0 Z " fill="#0E5E71" transform="translate(925,0)"/>
<path d="M0 0 C1.65 0.33 3.3 0.66 5 1 C4.01 1.33 3.02 1.66 2 2 C2 2.66 2 3.32 2 4 C0.35 4 -1.3 4 -3 4 C-2.01 2.68 -1.02 1.36 0 0 Z " fill="#E5643C" transform="translate(28,251)"/>
<path d="M0 0 C1.37562854 1.28965176 2.70766393 2.62689293 4 4 C4 4.66 4 5.32 4 6 C2.35 5.67 0.7 5.34 -1 5 C-0.67 3.35 -0.34 1.7 0 0 Z " fill="#E05E33" transform="translate(113,237)"/>
<path d="M0 0 C0.99 0.99 1.98 1.98 3 3 C0.525 4.485 0.525 4.485 -2 6 C-2 5.34 -2 4.68 -2 4 C-2.66 4 -3.32 4 -4 4 C-4 3.34 -4 2.68 -4 2 C-2.68 2.33 -1.36 2.66 0 3 C0 2.01 0 1.02 0 0 Z " fill="#DD612F" transform="translate(60,202)"/>
<path d="M0 0 C2.31 0.33 4.62 0.66 7 1 C7.33 2.32 7.66 3.64 8 5 C4.62496331 3.8141763 2.35277269 2.72426311 0 0 Z " fill="#DD6034" transform="translate(207,172)"/>
<path d="M0 0 C0.99 0.66 1.98 1.32 3 2 C3 2.66 3 3.32 3 4 C0.69 4.66 -1.62 5.32 -4 6 C-4 5.01 -4 4.02 -4 3 C-2.68 3 -1.36 3 0 3 C0 2.01 0 1.02 0 0 Z " fill="#E25D2A" transform="translate(45,152)"/>
<path d="M0 0 C4.67692308 1.47692308 4.67692308 1.47692308 6.3125 4.125 C6.539375 4.74375 6.76625 5.3625 7 6 C6.13375 5.2265625 6.13375 5.2265625 5.25 4.4375 C3.12172477 2.73494807 3.12172477 2.73494807 0.75 3.3125 C0.1725 3.539375 -0.405 3.76625 -1 4 C-0.67 2.68 -0.34 1.36 0 0 Z " fill="#E05E32" transform="translate(28,134)"/>
<path d="M0 0 C0.99 0.33 1.98 0.66 3 1 C3 1.66 3 2.32 3 3 C3.99 3.33 4.98 3.66 6 4 C6.33 5.65 6.66 7.3 7 9 C4.03595495 6.19195732 1.55500981 3.81684226 0 0 Z " fill="#D9623B" transform="translate(47,103)"/>
<path d="M0 0 C4.875 4.625 4.875 4.625 6 8 C5.01 8 4.02 8 3 8 C0 2.25 0 2.25 0 0 Z " fill="#145F77" transform="translate(634,28)"/>
</svg>
