<?xml version="1.0" encoding="UTF-8"?>
<svg version="1.1" xmlns="http://www.w3.org/2000/svg" width="233" height="216">
<path d="M0 0 C25.41 0 50.82 0 77 0 C77 21.78 77 43.56 77 66 C78.98 66 80.96 66 83 66 C86.60142761 68.58363285 87.82760832 70.05184575 88.625 74.4375 C87.87583294 78.70775224 86.17067286 81.16517555 83 84 C80.46832033 85.15200238 78.37238427 85.94241272 75.73046875 86.640625 C75.03269821 86.84109436 74.33492767 87.04156372 73.61601257 87.24810791 C66.61359331 89.21346248 59.52727796 90.83440527 52.40795898 92.31298828 C50.29982412 92.75264358 48.1959297 93.20958491 46.09179688 93.66796875 C32.18442233 96.64736714 21.74164278 98.41241986 8.5 92.1875 C6.93378906 91.49043945 6.93378906 91.49043945 5.3359375 90.77929688 C3.40632393 89.91936039 1.48171645 89.04801923 -0.43554688 88.16088867 C-7.28126039 85.06193896 -10.91455235 84.99790907 -18.3125 86.8125 C-21.11459422 87.6949984 -21.11459422 87.6949984 -21.8659668 89.8972168 C-24.17442613 94.17768187 -29.59707656 95.74379507 -33.8125 97.8125 C-35.31006836 98.5849707 -35.31006836 98.5849707 -36.83789062 99.37304688 C-37.80533203 99.85451172 -38.77277344 100.33597656 -39.76953125 100.83203125 C-40.65229736 101.27264893 -41.53506348 101.7132666 -42.44458008 102.16723633 C-45.65434898 103.21324012 -46.91038686 103.44124839 -50 102 C-51.94208869 99.44803011 -53.28409069 96.64380868 -54.6796875 93.765625 C-55.09670929 92.93544861 -55.51373108 92.10527222 -55.94338989 91.24993896 C-56.82091816 89.49224318 -57.68951456 87.73006401 -58.54980469 85.96386719 C-59.86874625 83.26280705 -61.22088276 80.58041908 -62.578125 77.8984375 C-63.4265193 76.18851071 -64.27294042 74.4776032 -65.1171875 72.765625 C-65.52226532 71.96336487 -65.92734314 71.16110474 -66.34469604 70.33453369 C-67.90867896 67.08413649 -69.00006388 64.75488582 -68.99975586 61.11499023 C-67.71524526 58.39759943 -66.56442746 57.72422406 -63.88671875 56.39453125 C-63.05076172 55.96849609 -62.21480469 55.54246094 -61.35351562 55.10351562 C-60.47373047 54.67748047 -59.59394531 54.25144531 -58.6875 53.8125 C-57.38522461 53.15604492 -57.38522461 53.15604492 -56.05664062 52.48632812 C-53.71209336 51.30775678 -51.35796292 50.15141606 -49 49 C-48.28948486 48.61674561 -47.57896973 48.23349121 -46.84692383 47.83862305 C-44.47533311 46.76176725 -43.42915928 47.21640023 -41 48 C-37.19281117 48 -35.26498028 46.74814143 -31.8984375 44.97265625 C-30.6734213 44.33872056 -29.44815241 43.70527298 -28.22265625 43.07226562 C-26.30425903 42.07300881 -24.38838455 41.06959171 -22.47705078 40.05688477 C-20.62395794 39.07834198 -18.76211342 38.11835477 -16.8984375 37.16015625 C-15.79161621 36.57886963 -14.68479492 35.99758301 -13.54443359 35.39868164 C-10 34 -10 34 -1 33 C-0.67 22.11 -0.34 11.22 0 0 Z M6 6 C6 15.57 6 25.14 6 35 C8.97 36.65 11.94 38.3 15 40 C19.31577169 42.61731715 23.56109045 45.34209659 27.8125 48.0625 C28.94198494 48.77680712 30.07154184 49.49100048 31.20117188 50.20507812 C32.81282227 51.2347168 32.81282227 51.2347168 34.45703125 52.28515625 C35.42616455 52.90269775 36.39529785 53.52023926 37.39379883 54.15649414 C43.63008146 58.5677513 43.63008146 58.5677513 44.609375 62.359375 C44.65578125 63.14828125 44.7021875 63.9371875 44.75 64.75 C44.80671875 65.54921875 44.8634375 66.3484375 44.921875 67.171875 C44.96054688 68.07679688 44.96054688 68.07679688 45 69 C47.08379027 68.88286386 49.16701962 68.75574985 51.25 68.625 C52.99023438 68.52058594 52.99023438 68.52058594 54.765625 68.4140625 C60.21061417 67.88161891 65.6034783 66.89942028 71 66 C71 46.2 71 26.4 71 6 C64.07 6 57.14 6 50 6 C49.67 13.26 49.34 20.52 49 28 C38.605 28.495 38.605 28.495 28 29 C28 21.41 28 13.82 28 6 C20.74 6 13.48 6 6 6 Z M34 6 C34 11.28 34 16.56 34 22 C37.3 22 40.6 22 44 22 C44 16.72 44 11.44 44 6 C40.7 6 37.4 6 34 6 Z M-23.8125 46.875 C-25.08791471 47.53502752 -26.36460545 48.1925953 -27.64257812 48.84765625 C-33.71233939 51.47402797 -33.71233939 51.47402797 -38 56 C-36.47103809 59.84808033 -34.55277321 63.50969853 -32.68603516 67.2043457 C-31.7550918 69.0523921 -30.84369158 70.90919483 -29.93359375 72.76757812 C-29.35222656 73.92837891 -28.77085938 75.08917969 -28.171875 76.28515625 C-27.6365918 77.35644775 -27.10130859 78.42773926 -26.54980469 79.53149414 C-25.18061078 82.29274784 -25.18061078 82.29274784 -22 83 C-20.05967215 82.08690454 -18.32742883 80.96949022 -16.5234375 79.8125 C-7.30662022 76.84485605 2.56427813 82.82612254 10.85253906 86.43066406 C18.41719837 89.69785926 23.91360399 91.95559759 32 90 C34.30428488 89.57463605 36.60901769 89.15169521 38.9140625 88.73046875 C41.48573279 88.22193982 44.05595025 87.70884605 46.625 87.1875 C47.62296097 86.98583221 47.62296097 86.98583221 48.64108276 86.78009033 C66.63618075 84.2873829 66.63618075 84.2873829 82 76 C82 74.68 82 73.36 82 72 C73.2724422 71.80259808 64.79196233 72.37348435 56.125 73.375 C54.94164063 73.50132812 53.75828125 73.62765625 52.5390625 73.7578125 C51.394375 73.88671875 50.2496875 74.015625 49.0703125 74.1484375 C48.04695801 74.26364746 47.02360352 74.37885742 45.96923828 74.49755859 C42.93080852 74.93167775 42.93080852 74.93167775 39.85913086 76.06005859 C34.34064365 77.87426539 29.62179626 76.45348942 24.53515625 74.109375 C23.03732944 73.33621855 21.54641659 72.5495296 20.0625 71.75 C19.29615234 71.36714844 18.52980469 70.98429687 17.74023438 70.58984375 C12.24349417 67.67837285 12.24349417 67.67837285 10.99609375 64.203125 C10.99738281 63.47609375 10.99867187 62.7490625 11 62 C15.9412672 63.0726281 20.0585308 65.66197602 24.42382812 68.1171875 C29.43192527 70.87057787 29.43192527 70.87057787 35 72 C37.95740206 70.00175536 38.84865971 68.69811809 39.60546875 65.20703125 C38.91339067 61.54124996 38.5078509 61.23714483 35.625 59.140625 C34.09786033 58.15422088 32.55491603 57.19201104 31 56.25 C30.18563477 55.73920898 29.37126953 55.22841797 28.53222656 54.70214844 C26.84685491 53.64592988 25.15700721 52.59682196 23.46289062 51.5546875 C21.16336887 50.10312579 18.94713213 48.57964532 16.734375 47 C16.06148437 46.53561523 15.38859375 46.07123047 14.6953125 45.59277344 C13.45017402 44.73330285 12.21916063 43.85276314 11.0078125 42.94628906 C-0.48238825 35.29670057 -13.03235595 41.02288112 -23.8125 46.875 Z M-53.5 57.8125 C-54.20253906 58.16892578 -54.90507813 58.52535156 -55.62890625 58.89257812 C-59.88436792 60.95564675 -59.88436792 60.95564675 -62 65 C-61.06396156 67.37016961 -60.07174034 69.55651735 -58.921875 71.8203125 C-58.5946344 72.47957733 -58.2673938 73.13884216 -57.93023682 73.81808472 C-57.2355918 75.21077765 -56.5358876 76.60095688 -55.83154297 77.98876953 C-54.75412806 80.11684639 -53.69843341 82.25473084 -52.64453125 84.39453125 C-51.96742746 85.74543481 -51.28908312 87.09571744 -50.609375 88.4453125 C-50.13573517 89.4077739 -50.13573517 89.4077739 -49.65252686 90.38967896 C-47.78018633 94.21262817 -47.78018633 94.21262817 -44 96 C-42.12106946 95.4052929 -42.12106946 95.4052929 -40.20703125 94.34765625 C-39.49482422 93.98349609 -38.78261719 93.61933594 -38.04882812 93.24414062 C-37.31083984 92.85419922 -36.57285156 92.46425781 -35.8125 92.0625 C-35.06291016 91.67642578 -34.31332031 91.29035156 -33.54101562 90.89257812 C-31.68939311 89.93728243 -29.84407548 88.96978423 -28 88 C-33.34714496 76.48235431 -38.89196384 65.13426755 -45 54 C-47.75558004 54 -51.03179605 56.51952344 -53.5 57.8125 Z " fill="#010101" transform="translate(69,113)"/>
<path d="M0 0 C2.87894865 0.96882615 4.06323588 1.97719309 6.09399414 4.20996094 C6.73908936 4.90798828 7.38418457 5.60601563 8.04882812 6.32519531 C8.72244385 7.07607422 9.39605957 7.82695313 10.09008789 8.60058594 C10.78884033 9.36177734 11.48759277 10.12296875 12.20751953 10.90722656 C13.63419869 12.4629529 15.05633153 14.02286073 16.47387695 15.58691406 C18.92605111 18.289786 21.40374726 20.96816564 23.88476562 23.64453125 C25.38284215 25.26179662 26.87599261 26.88345077 28.36743164 28.50683594 C29.92497604 30.20034483 29.92497604 30.20034483 31.52758789 31.85058594 C31.81274414 34.20214844 31.81274414 34.20214844 31.52758789 36.85058594 C30.02368164 38.62402344 30.02368164 38.62402344 27.96508789 40.22558594 C25.09822676 42.55047862 22.41382853 44.89064788 19.84008789 47.53808594 C14.30994789 53.09330594 14.30994789 53.09330594 11.52758789 54.85058594 C10.78379883 54.59277344 10.04000977 54.33496094 9.27368164 54.06933594 C6.22741106 53.50737336 6.22741106 53.50737336 3.47680664 56.35058594 C2.37517404 57.50367164 1.28859066 58.67126714 0.21508789 59.85058594 C-0.93949894 61.06050856 -2.09574118 62.26885373 -3.25366211 63.47558594 C-4.08510742 64.3534375 -4.08510742 64.3534375 -4.93334961 65.24902344 C-11.69387725 72.28409027 -19.61299629 79.15068666 -29.47241211 80.85058594 C-32.86133544 80.71124695 -36.10377387 80.31204323 -39.47241211 79.85058594 C-39.80241211 85.13058594 -40.13241211 90.41058594 -40.47241211 95.85058594 C-71.49241211 95.85058594 -102.51241211 95.85058594 -134.47241211 95.85058594 C-134.47241211 50.85058594 -134.47241211 50.85058594 -133.47241211 49.85058594 C-131.34439406 49.85058594 -129.21635044 49.85287308 -127.08837891 49.86694336 C-115.86299201 49.79838982 -109.04267301 47.28480378 -99.77026367 41.27294922 C-95.16504726 38.42233396 -90.33599326 35.97636383 -85.53491211 33.47558594 C-84.57544678 32.96406982 -83.61598145 32.45255371 -82.62744141 31.92553711 C-79.93267765 30.51124898 -77.21772208 29.16369594 -74.47241211 27.85058594 C-73.7726123 27.49915527 -73.0728125 27.14772461 -72.35180664 26.78564453 C-64.91711743 23.62912526 -56.99455909 25.27938116 -49.22241211 26.22558594 C-47.05243051 26.47656246 -44.88205351 26.72180379 -42.71051025 26.95889282 C-40.75061252 27.17480983 -38.79258217 27.40748438 -36.8347168 27.64111328 C-32.04308316 27.93963359 -29.52637931 27.75398639 -25.84741211 24.60058594 C-23.47884706 22.03955778 -23.47884706 22.03955778 -22.15209961 19.51855469 C-18.83235539 14.24556561 -13.94854047 10.14491076 -9.47241211 5.85058594 C-8.43213867 4.81998047 -8.43213867 4.81998047 -7.37084961 3.76855469 C-3.16090236 -0.19102125 -3.16090236 -0.19102125 0 0 Z M-1.47241211 6.85058594 C-1.9919043 7.38167969 -2.51139648 7.91277344 -3.04663086 8.45996094 C-6.7004822 12.16108947 -10.30119132 15.72217034 -14.47241211 18.85058594 C-12.86310192 22.70565668 -10.37386007 25.32020246 -7.53491211 28.35058594 C-6.55039956 29.40774952 -5.56602901 30.46504537 -4.58178711 31.52246094 C-4.07325195 32.06580078 -3.5647168 32.60914062 -3.04077148 33.16894531 C-0.43611628 35.96173253 2.13805234 38.78233749 4.71508789 41.60058594 C5.64593637 42.61634026 6.57691276 43.6319774 7.50805664 44.64746094 C8.17450195 45.37449219 8.84094727 46.10152344 9.52758789 46.85058594 C13.42676757 45.2352115 16.24052561 42.57133721 19.27758789 39.72558594 C19.78418945 39.25765625 20.29079102 38.78972656 20.81274414 38.30761719 C22.05477931 37.15932053 23.29170283 36.00549922 24.52758789 34.85058594 C22.98631438 31.137905 20.71915555 28.86942896 17.84008789 26.10058594 C14.6974904 23.03023207 11.67797765 19.95445565 8.84008789 16.60058594 C5.70074771 12.92307315 2.27112553 9.90653503 -1.47241211 6.85058594 Z M-19.47241211 25.85058594 C-21.1038345 27.58143019 -22.61769157 29.38827135 -24.13256836 31.22167969 C-30.12505792 35.39341282 -38.36631874 33.78087763 -45.22241211 32.91308594 C-48.63570444 32.48915941 -52.04481708 32.13764093 -55.47241211 31.85058594 C-56.47143555 31.7502002 -57.47045898 31.64981445 -58.49975586 31.54638672 C-68.07212928 30.99693715 -74.81045574 34.19530602 -82.97241211 38.60058594 C-84.21862899 39.24350137 -85.46602312 39.88414008 -86.71459961 40.52246094 C-91.99992461 43.26296724 -96.89923295 45.99315365 -101.47241211 49.85058594 C-97.36830456 49.90854726 -93.26430195 49.94416907 -89.15991211 49.97558594 C-87.40904297 50.00072266 -87.40904297 50.00072266 -85.62280273 50.02636719 C-83.94541016 50.03603516 -83.94541016 50.03603516 -82.23413086 50.04589844 C-80.68665161 50.06160889 -80.68665161 50.06160889 -79.10791016 50.07763672 C-76.24053619 50.04356109 -76.24053619 50.04356109 -73.47241211 47.85058594 C-63.81854329 46.47374893 -54.65869148 49.23925779 -45.47241211 51.85058594 C-45.80241211 53.17058594 -46.13241211 54.49058594 -46.47241211 55.85058594 C-48.20168085 55.5386513 -49.93082255 55.22601232 -51.65991211 54.91308594 C-52.6228418 54.7390625 -53.58577148 54.56503906 -54.57788086 54.38574219 C-56.40441108 54.04804362 -58.22703791 53.68773356 -60.04272461 53.29589844 C-62.45894252 52.85305464 -64.70573208 52.68391938 -67.15991211 52.66308594 C-68.31040039 52.64181641 -68.31040039 52.64181641 -69.48413086 52.62011719 C-71.7047912 52.66897458 -71.7047912 52.66897458 -73.47241211 54.85058594 C-73.63918493 58.4340257 -73.63918493 58.4340257 -73.47241211 61.85058594 C-66.66283715 65.66780902 -59.52015615 67.88989604 -52.0637207 70.05249023 C-49.97194666 70.66322183 -47.88855827 71.29826107 -45.80444336 71.93457031 C-37.22050739 74.49085742 -30.88744058 75.94935709 -22.37866211 72.18261719 C-18.22241895 69.93098057 -15.17492002 66.97185583 -11.97241211 63.53808594 C-10.85610599 62.3758286 -9.73762289 61.21565814 -8.61694336 60.05761719 C-8.08278809 59.50412598 -7.54863281 58.95063477 -6.99829102 58.38037109 C-4.41915909 55.79463659 -1.62028483 53.48992381 1.23461914 51.21777344 C2.8711434 49.80093413 2.8711434 49.80093413 2.52758789 46.85058594 C0.77134691 44.76581456 0.77134691 44.76581456 -1.53491211 42.66308594 C-4.58779266 39.71580818 -7.51508927 36.75348898 -10.28491211 33.53808594 C-13.70966228 29.53278969 -13.70966228 29.53278969 -17.47241211 25.85058594 C-18.13241211 25.85058594 -18.79241211 25.85058594 -19.47241211 25.85058594 Z M-127.47241211 55.85058594 C-127.47241211 67.07058594 -127.47241211 78.29058594 -127.47241211 89.85058594 C-100.74241211 89.85058594 -74.01241211 89.85058594 -46.47241211 89.85058594 C-46.47241211 85.56058594 -46.47241211 81.27058594 -46.47241211 76.85058594 C-50.76305042 75.51386413 -55.05483659 74.18105961 -59.34741211 72.85058594 C-60.57073242 72.46902344 -61.79405273 72.08746094 -63.05444336 71.69433594 C-64.22104492 71.33339844 -65.38764648 70.97246094 -66.58959961 70.60058594 C-67.66838379 70.26542969 -68.74716797 69.93027344 -69.85864258 69.58496094 C-72.34082357 68.76042248 -72.34082357 68.76042248 -74.47241211 68.85058594 C-74.51108398 69.72070312 -74.51108398 69.72070312 -74.55053711 70.60839844 C-75.01832192 77.05107111 -76.7758719 80.72259929 -81.03491211 85.66308594 C-84.47741439 88.50689217 -88.73156512 88.17893642 -92.96459961 88.13574219 C-97.59000084 87.60980093 -100.30735259 85.17634332 -103.28491211 81.78808594 C-105.72233938 77.81123092 -105.8472561 74.42368261 -105.47241211 69.85058594 C-104.08519282 65.11460161 -102.11123606 61.79234531 -97.78491211 59.28808594 C-92.15284746 56.90286453 -87.02249173 57.96586443 -81.40991211 59.91308594 C-80.77053711 60.22246094 -80.13116211 60.53183594 -79.47241211 60.85058594 C-79.47241211 59.20058594 -79.47241211 57.55058594 -79.47241211 55.85058594 C-95.31241211 55.85058594 -111.15241211 55.85058594 -127.47241211 55.85058594 Z M-97.47241211 65.85058594 C-100.03841167 68.92978541 -100.48087196 70.36837472 -100.40991211 74.41308594 C-99.39677899 78.12790736 -98.45585911 79.49999133 -95.47241211 81.85058594 C-92.37192283 83.40083058 -89.89346993 83.14050609 -86.47241211 82.85058594 C-83.7191219 81.05496189 -81.9461375 79.79803672 -80.47241211 76.85058594 C-79.95799619 72.39231466 -80.16775116 70.34912203 -82.53491211 66.47558594 C-87.50871813 62.03090822 -92.26746699 61.51313167 -97.47241211 65.85058594 Z " fill="#010101" transform="translate(201.472412109375,0.1494140625)"/>
<path d="M0 0 C0.66 0 1.32 0 2 0 C2 0.66 2 1.32 2 2 C2.99 2 3.98 2 5 2 C4.67 2.99 4.34 3.98 4 5 C1.9375 5.6875 1.9375 5.6875 0 6 C2.475 7.98 2.475 7.98 5 10 C4.45276317 13.37462715 3.9451 15.08235 2 18 C1.34 18 0.68 18 0 18 C0 17.34 0 16.68 0 16 C-1.32 15.34 -2.64 14.68 -4 14 C-2.35 13.67 -0.7 13.34 1 13 C1.33 12.01 1.66 11.02 2 10 C1.38125 9.9175 0.7625 9.835 0.125 9.75 C-2 9 -2 9 -3.25 6.9375 C-3.62125 5.9784375 -3.62125 5.9784375 -4 5 C-3.34 4.01 -2.68 3.02 -2 2 C-1.34 2 -0.68 2 0 2 C0 1.34 0 0.68 0 0 Z " fill="#010101" transform="translate(111,64)"/>
</svg>
