<?xml version="1.0" encoding="UTF-8"?>
<svg version="1.1" xmlns="http://www.w3.org/2000/svg" width="936" height="267">
<path d="M0 0 C0.77429352 0.00054382 1.54858704 0.00108765 2.34634399 0.00164795 C20.73133173 0.06098575 37.18209503 2.93538533 54.0625 10.375 C54.7220166 10.66358887 55.3815332 10.95217773 56.06103516 11.24951172 C70.84755555 17.85503871 83.38624725 27.19737727 95.0625 38.375 C96.08730469 39.32246094 96.08730469 39.32246094 97.1328125 40.2890625 C106.85452762 49.55328514 113.73968275 60.65536162 120.0625 72.375 C120.45050781 73.06851563 120.83851563 73.76203125 121.23828125 74.4765625 C137.18910418 104.27768848 138.86540998 141.49441834 129.41748047 173.56445312 C122.42963 195.17342781 110.74667489 213.13413372 95.0625 229.375 C94.4128125 230.06464844 93.763125 230.75429687 93.09375 231.46484375 C71.33955656 254.05954012 38.4412045 267.08065762 7.46154785 267.81072998 C-26.03505979 268.35383572 -54.84730187 260.45501528 -81.9375 240.375 C-82.71609375 239.83488281 -83.4946875 239.29476562 -84.296875 238.73828125 C-84.83828125 238.28839844 -85.3796875 237.83851563 -85.9375 237.375 C-85.9375 236.715 -85.9375 236.055 -85.9375 235.375 C-86.47117188 235.16359375 -87.00484375 234.9521875 -87.5546875 234.734375 C-90.8602714 232.84856648 -93.39534529 230.30000737 -96.0625 227.625 C-96.63363525 227.05225342 -97.20477051 226.47950684 -97.79321289 225.8894043 C-103.62442895 219.89220971 -108.35221307 213.34933039 -112.9375 206.375 C-113.48792969 205.570625 -114.03835937 204.76625 -114.60546875 203.9375 C-133.3600655 174.97597794 -137.08138981 138.59795159 -130.9375 105.375 C-128.75636761 95.20795317 -125.64477544 85.66194402 -120.9375 76.375 C-120.50953125 75.43785156 -120.0815625 74.50070313 -119.640625 73.53515625 C-113.78961881 61.02780875 -105.47090589 50.30206538 -95.9375 40.375 C-95.18855469 39.58609375 -94.43960938 38.7971875 -93.66796875 37.984375 C-89.6608676 33.85453382 -89.6608676 33.85453382 -87.9375 32.375 C-87.2775 32.375 -86.6175 32.375 -85.9375 32.375 C-85.9375 31.715 -85.9375 31.055 -85.9375 30.375 C-82.48468388 27.42730528 -78.68403576 24.93294842 -74.9375 22.375 C-73.96167969 21.70726563 -72.98585937 21.03953125 -71.98046875 20.3515625 C-58.55983059 11.63417751 -43.56869965 5.71981179 -27.9375 2.375 C-27.18267334 2.19984863 -26.42784668 2.02469727 -25.65014648 1.84423828 C-17.13625326 0.0460142 -8.65903193 -0.02283397 0 0 Z M-0.04418945 93.34863281 C-21.23235481 101.5585362 -42.6923013 109.68348555 -64.9375 100.375 C-67.43838215 99.11384086 -69.84623502 97.79670681 -72.23046875 96.328125 C-73.90269009 95.21249738 -73.90269009 95.21249738 -75.9375 95.375 C-76.14619591 105.70168783 -76.30602619 116.02787277 -76.40380955 126.35624123 C-76.45074651 131.15247798 -76.51438387 135.9472704 -76.61645508 140.74267578 C-76.71437924 145.37231965 -76.76808393 150.00057634 -76.79139519 154.63117599 C-76.8080023 156.39598815 -76.84043568 158.16072578 -76.88907051 159.92494583 C-77.50478747 169.39050232 -77.50478747 169.39050232 -74.03878784 177.76116943 C-71.69465729 179.37889467 -69.61440772 180.42109405 -66.9375 181.375 C-66.10912125 181.70166656 -65.28074249 182.02833313 -64.42726135 182.36489868 C-57.68684681 184.9115263 -50.98327482 185.55595732 -43.8125 185.5625 C-43.12929687 185.57474609 -42.44609375 185.58699219 -41.7421875 185.59960938 C-29.72922639 185.63273335 -18.94338716 182.27981158 -7.72885132 178.37979126 C-3.74905541 176.9979485 0.24202181 175.64974789 4.234375 174.3046875 C5.00836136 174.04377823 5.78234772 173.78286896 6.57978821 173.51405334 C12.46157506 171.54514226 18.3683973 169.74070615 24.375 168.1875 C25.08277588 168.00405029 25.79055176 167.82060059 26.51977539 167.6315918 C43.35792179 163.46538789 59.82853069 164.84397719 75.0625 173.375 C75.7225 173.375 76.3825 173.375 77.0625 173.375 C77.20155399 163.03082285 77.30814826 152.68686822 77.37337303 142.3419466 C77.40467892 137.53825672 77.44713773 132.73520649 77.51513672 127.93188477 C77.58035645 123.29584156 77.61621163 118.66041334 77.63176346 114.02394676 C77.6428452 112.25564072 77.66448607 110.48736814 77.69688034 108.71932411 C77.7404813 106.24093695 77.74643301 103.76508627 77.74365234 101.28637695 C77.765224 100.55629425 77.78679565 99.82621155 77.809021 99.07400513 C77.7747069 96.24497734 77.61705237 94.03373986 75.75442886 91.82117271 C53.50112972 72.95414623 23.79459251 84.09483325 -0.04418945 93.34863281 Z " fill="#018CEA" transform="translate(133.9375,-0.37499999999999994)"/>
<path d="M0 0 C0 0.66 0 1.32 0 2 C0.59941406 2.2578125 1.19882812 2.515625 1.81640625 2.78125 C8.48022167 6.50058884 12.04351005 15.30566204 15 22 C15.2990625 22.67289063 15.598125 23.34578125 15.90625 24.0390625 C24.22300678 45.57946255 19.91034866 73.6384441 19.5 96.125 C19.45149762 98.83723383 19.40346369 101.5494759 19.35546875 104.26171875 C19.23891135 110.84118312 19.11939316 117.42058407 19 124 C9.1 124 -0.8 124 -11 124 C-11 114.43 -11 104.86 -11 95 C-29.81 95 -48.62 95 -68 95 C-68 104.57 -68 114.14 -68 124 C-77.9 124 -87.8 124 -98 124 C-98.04534312 113.12462815 -98.08196904 102.24931999 -98.10362434 91.37387466 C-98.11402239 86.32294426 -98.1281082 81.27208239 -98.15087891 76.22119141 C-98.17275008 71.33878667 -98.18459849 66.45644748 -98.18975449 61.5739975 C-98.19342478 59.71945922 -98.20059129 57.86492418 -98.21146011 56.01041412 C-98.32574684 35.68546824 -95.82665805 18.51305188 -81.890625 2.58984375 C-59.73756174 -19.08001511 -23.50013832 -20.27462914 0 0 Z M-62 27 C-70.2759249 38.1416183 -68 50.25867478 -68 64 C-49.19 64 -30.38 64 -11 64 C-9.95059464 41.48410893 -9.95059464 41.48410893 -20.140625 23.6875 C-25.81952647 18.533539 -32.99081333 15.43983045 -40.73046875 15.69140625 C-49.29546868 16.85601037 -56.2743816 20.57052307 -62 27 Z " fill="#028CE9" transform="translate(583,79)"/>
<path d="M0 0 C12.33213718 9.97294572 18.71143882 24.77661751 20.68359375 40.19140625 C21.30551674 46.11183198 21.54582998 51.97556147 21.51171875 57.92578125 C21.50803284 59.1899588 21.50803284 59.1899588 21.50427246 60.47967529 C21.44388137 73.13499518 21.17486262 85.78855427 20.93359375 98.44140625 C20.88524817 101.04817396 20.83706999 103.65494479 20.7890625 106.26171875 C20.67280564 112.57165999 20.55313146 118.88152296 20.43359375 125.19140625 C10.53359375 125.19140625 0.63359375 125.19140625 -9.56640625 125.19140625 C-9.56640625 115.62140625 -9.56640625 106.05140625 -9.56640625 96.19140625 C-28.37640625 96.19140625 -47.18640625 96.19140625 -66.56640625 96.19140625 C-66.56640625 105.76140625 -66.56640625 115.33140625 -66.56640625 125.19140625 C-76.46640625 125.19140625 -86.36640625 125.19140625 -96.56640625 125.19140625 C-96.61172983 114.42914754 -96.64836415 103.66695302 -96.67003059 92.90462017 C-96.68043342 87.90634785 -96.69452818 82.90814466 -96.71728516 77.90991211 C-96.73913901 73.07938273 -96.75100116 68.24891953 -96.75616074 63.4183445 C-96.75983409 61.58251721 -96.76700677 59.74669323 -96.77786636 57.91089439 C-96.89441102 37.37819079 -94.3394457 18.77385064 -79.31640625 3.44140625 C-56.88177162 -18.50320672 -24.48490434 -17.25496303 0 0 Z M-61.875 29.84765625 C-68.58145718 40.26354579 -66.56640625 53.5042168 -66.56640625 65.19140625 C-47.75640625 65.19140625 -28.94640625 65.19140625 -9.56640625 65.19140625 C-8.23795098 44.33708422 -8.23795098 44.33708422 -15.37890625 27.37890625 C-21.92664082 20.83117168 -28.81590776 17.92328788 -38.00390625 16.75390625 C-47.88375313 17.96722078 -55.688819 22.01798238 -61.875 29.84765625 Z " fill="#038CE8" transform="translate(914.56640625,77.80859375)"/>
<path d="M0 0 C77.19838057 0 77.19838057 0 96 18 C109.82660614 32.91818031 117.51384911 50.92304646 116.97875977 71.33056641 C116.12314981 89.2198607 109.61642207 106.03732964 97 119 C68.52206174 144.16173002 40.15422726 138 0 138 C0 92.46 0 46.92 0 0 Z M30 30 C30 55.41 30 80.82 30 107 C37.74895462 110.87447731 53.02406117 108.10913884 61 106 C70.55341235 102.77019867 77.98082191 95.33473364 82.78125 86.640625 C87.94720104 75.44773108 88.19812748 65.80590679 84.31640625 54.21484375 C80.07002283 43.84459581 73.26073872 37.51057238 63.27734375 32.68359375 C51.98357368 28.41309044 42.85845242 30 30 30 Z " fill="#018CEA" transform="translate(319,65)"/>
<path d="M0 0 C10.66995251 9.24944446 21.20027942 22.39762951 22.44908524 37.02956963 C22.51415055 39.4106551 22.51709106 41.78388034 22.49658203 44.16577148 C22.49687408 45.06412216 22.49716614 45.96247284 22.49746704 46.88804626 C22.49608141 49.83692314 22.48055642 52.78554264 22.46484375 55.734375 C22.46111089 57.78703168 22.45826521 59.83969014 22.45626831 61.89234924 C22.44865333 67.27966278 22.42902321 72.66686748 22.40686035 78.05413818 C22.38635587 83.55756152 22.37725676 89.06100255 22.3671875 94.56445312 C22.34577526 105.35161787 22.31061055 116.13867346 22.26953125 126.92578125 C12.69953125 126.92578125 3.12953125 126.92578125 -6.73046875 126.92578125 C-6.76019775 123.26258789 -6.76019775 123.26258789 -6.79052734 119.52539062 C-6.8575614 111.43878981 -6.93519889 103.35231552 -7.01799583 95.26586151 C-7.06785123 90.36509509 -7.11418197 85.4643491 -7.15234375 80.56347656 C-7.18933273 75.83011679 -7.23572909 71.09693259 -7.28853226 66.36372375 C-7.30700406 64.56174309 -7.32213838 62.7597249 -7.33381271 60.95768738 C-7.35079925 58.4253864 -7.37986292 55.89348121 -7.41162109 53.36132812 C-7.41378128 52.62332977 -7.41594147 51.88533142 -7.41816711 51.12496948 C-7.56053588 42.18559826 -9.79195626 34.76138817 -15.73046875 27.92578125 C-22.08315385 22.50867341 -29.06001686 19.31344775 -37.5703125 19.625 C-46.6862439 20.8943069 -53.85829026 26.01212205 -59.73046875 32.92578125 C-61.29334011 35.876793 -62.14174758 38.65066253 -62.73046875 41.92578125 C-62.89953232 42.7983255 -63.06859589 43.67086975 -63.24278259 44.56985474 C-63.79153182 48.34597602 -63.90524031 52.05223666 -63.93579102 55.85888672 C-63.95064041 57.01599907 -63.95064041 57.01599907 -63.96578979 58.19648743 C-63.99720189 60.72861739 -64.02208136 63.26076607 -64.046875 65.79296875 C-64.06746208 67.55559762 -64.088459 69.31822174 -64.10984802 71.08084106 C-64.16488758 75.70691066 -64.21437632 80.33302346 -64.26269531 84.95916748 C-64.31304308 89.68505675 -64.36865967 94.41088373 -64.42382812 99.13671875 C-64.53118795 108.3996882 -64.63219438 117.66271095 -64.73046875 126.92578125 C-74.30046875 126.92578125 -83.87046875 126.92578125 -93.73046875 126.92578125 C-93.82117365 115.54615406 -93.89441677 104.16677064 -93.93771744 92.78686237 C-93.95850933 87.50156942 -93.98667207 82.21653862 -94.03222656 76.93139648 C-94.07598568 71.82203312 -94.09966886 66.71292045 -94.10997772 61.60338402 C-94.11731548 59.66311897 -94.13164301 57.72286618 -94.15338898 55.78270912 C-94.34026906 38.403509 -91.58479814 23.14869563 -80.73046875 8.92578125 C-80.07046875 8.92578125 -79.41046875 8.92578125 -78.73046875 8.92578125 C-78.48941406 8.34570312 -78.24835937 7.765625 -78 7.16796875 C-72.86378048 -1.90338512 -60.68995112 -6.76916727 -51.27734375 -9.88671875 C-33.8479877 -14.15513248 -14.32050899 -10.87866992 0 0 Z " fill="#038CE8" transform="translate(745.73046875,76.07421875)"/>
<path d="M0 0 C66.65983607 0 66.65983607 0 83 9 C80.50935112 9.68707555 78.62113708 10 76 10 C75.505 8.02 75.505 8.02 75 6 C74.319375 5.87625 73.63875 5.7525 72.9375 5.625 C69.58639414 4.91199875 66.29429404 3.94122687 63 3 C32.805 2.505 32.805 2.505 2 2 C2 46.22 2 90.44 2 136 C22.13 136 42.26 136 63 136 C63 135.34 63 134.68 63 134 C65.64 134 68.28 134 71 134 C52.99859397 146.00093735 4.64386859 138 0 138 C0 92.46 0 46.92 0 0 Z " fill="#248ACF" transform="translate(319,65)"/>
<path d="M0 0 C1.1483546 2.87088651 0.976752 4.07514272 0.04336548 7.09205627 C-1.24608749 11.39757974 -1.3068847 15.49522345 -1.31884766 19.96459961 C-1.32889328 20.83368958 -1.3389389 21.70277954 -1.34928894 22.59820557 C-1.37999625 25.44957869 -1.3971213 28.30085846 -1.4140625 31.15234375 C-1.43278417 33.13774919 -1.45235833 35.12314676 -1.4727478 37.10853577 C-1.5239694 42.31820016 -1.56364844 47.52789032 -1.60089111 52.7376709 C-1.64099337 58.06020429 -1.69205729 63.38263141 -1.7421875 68.70507812 C-1.83882868 79.13664399 -1.92327116 89.56826999 -2 100 C2.14093698 100.20970559 2.14093698 100.20970559 6 99 C7.87939453 98.97827148 7.87939453 98.97827148 10.1328125 99.12109375 C10.85871582 99.16419678 11.58461914 99.2072998 12.33251953 99.25170898 C13.25403809 99.31302002 14.17555664 99.37433105 15.125 99.4375 C19.518125 99.7159375 19.518125 99.7159375 24 100 C24 91.09 24 82.18 24 73 C24.66 73 25.32 73 26 73 C26 82.57 26 92.14 26 102 C16.1 102 6.2 102 -4 102 C-4.04534312 91.12462815 -4.08196904 80.24931999 -4.10362434 69.37387466 C-4.11402239 64.32294426 -4.1281082 59.27208239 -4.15087891 54.22119141 C-4.17275008 49.33878667 -4.18459849 44.45644748 -4.18975449 39.5739975 C-4.19342478 37.71945922 -4.20059129 35.86492418 -4.21146011 34.01041412 C-4.34538196 10.19352582 -4.34538196 10.19352582 0 0 Z " fill="#218AD0" transform="translate(489,101)"/>
<path d="M0 0 C3.79165074 -0.0289337 7.58327327 -0.04677601 11.375 -0.0625 C12.45523437 -0.07087891 13.53546875 -0.07925781 14.6484375 -0.08789062 C16.1953125 -0.09272461 16.1953125 -0.09272461 17.7734375 -0.09765625 C18.72653809 -0.10289307 19.67963867 -0.10812988 20.66162109 -0.11352539 C23 0 23 0 25 1 C25 1.66 25 2.32 25 3 C26.546875 2.9071875 26.546875 2.9071875 28.125 2.8125 C32.28152667 3.01362226 34.52307902 3.76483651 38 6 C38.495 7.485 38.495 7.485 39 9 C36.525 8.01 36.525 8.01 34 7 C21.19674361 3.07297383 21.19674361 3.07297383 0 3 C0 28.41 0 53.82 0 80 C0.66 80 1.32 80 2 80 C1.505 80.99 1.505 80.99 1 82 C0.01 81.67 -0.98 81.34 -2 81 C-2 54.93 -2 28.86 -2 2 C-1.34 2 -0.68 2 0 2 C0 1.34 0 0.68 0 0 Z " fill="#1D87CE" transform="translate(349,92)"/>
<path d="M0 0 C0.75667969 0.31710938 1.51335938 0.63421875 2.29296875 0.9609375 C5.19273275 2.07397823 7.93107512 2.57177792 11 3 C11 3.99 11 4.98 11 6 C11.61875 6.12375 12.2375 6.2475 12.875 6.375 C15 7 15 7 17 9 C12.85701333 8.40165275 9.81805623 6.99335715 6.1875 4.9375 C5.21167969 4.38964844 4.23585938 3.84179688 3.23046875 3.27734375 C2.49441406 2.85582031 1.75835937 2.43429688 1 2 C0.94534296 12.34463253 0.93363033 22.68833883 0.97665405 33.0330534 C0.99528505 37.83673155 0.99915574 42.63947465 0.96923828 47.44311523 C0.94090559 52.07964192 0.95141815 56.71460693 0.98880005 61.35105324 C0.99624322 63.11925749 0.98971863 64.88757779 0.96896362 66.65567589 C0.43190568 76.0096735 0.43190568 76.0096735 3.84765625 84.22061157 C5.89537141 85.51834992 7.66583324 86.37203221 10 87 C6.66411172 88.11196276 5.29427581 88.09809194 2 87 C-0.67321429 83.36838516 -0.26773743 79.23689315 -0.22705078 74.92675781 C-0.22734283 74.11662735 -0.22763489 73.30649689 -0.22793579 72.47181702 C-0.22654443 69.79881006 -0.21099238 67.12608316 -0.1953125 64.453125 C-0.19158168 62.59796297 -0.18873503 60.74279898 -0.18673706 58.88763428 C-0.17910604 54.00826565 -0.15946207 49.12901635 -0.1373291 44.24969482 C-0.11685927 39.26934422 -0.10773291 34.28897431 -0.09765625 29.30859375 C-0.07621571 19.53901011 -0.04208612 9.76951498 0 0 Z " fill="#1E85C8" transform="translate(57,93)"/>
<path d="M0 0 C0.495 0.99 0.495 0.99 1 2 C-2.3 1.67 -5.6 1.34 -9 1 C-9 0.34 -9 -0.32 -9 -1 C-12.60479946 -0.89020915 -16.20854679 -0.75955955 -19.8125 -0.625 C-20.83666016 -0.5940625 -21.86082031 -0.563125 -22.91601562 -0.53125 C-24.39038086 -0.47324219 -24.39038086 -0.47324219 -25.89453125 -0.4140625 C-26.80050049 -0.3826416 -27.70646973 -0.3512207 -28.63989258 -0.31884766 C-31.26525392 -0.13972081 -31.26525392 -0.13972081 -34 2 C-34.66 1.67 -35.32 1.34 -36 1 C-37.99960012 0.960008 -40.00047242 0.95653201 -42 1 C-31.12177203 -6.25215198 -11.75795657 -4.27205756 0 0 Z " fill="#2085D1" transform="translate(898,68)"/>
<path d="M0 0 C0.33 0 0.66 0 1 0 C0.66505837 12.89525256 -0.89014131 24.37381174 -7 36 C-7.33 36 -7.66 36 -8 36 C-7.67 32.37 -7.34 28.74 -7 25 C-6.01 25 -5.02 25 -4 25 C-3.95101563 24.10539062 -3.90203125 23.21078125 -3.8515625 22.2890625 C-2.63636364 2.63636364 -2.63636364 2.63636364 0 0 Z " fill="#1A89D2" transform="translate(435,131)"/>
<path d="M0 0 C2.97 0.495 2.97 0.495 6 1 C5.01 1.7734375 5.01 1.7734375 4 2.5625 C3.01 3.366875 2.02 4.17125 1 5 C0.33742188 5.53238281 -0.32515625 6.06476563 -1.0078125 6.61328125 C-8.46502106 12.81844926 -10.42244623 18.60891523 -12 28 C-12.33 28 -12.66 28 -13 28 C-13 24.37 -13 20.74 -13 17 C-12.34 17 -11.68 17 -11 17 C-11 15.35 -11 13.7 -11 12 C-10.34 12 -9.68 12 -9 12 C-9 10.68 -9 9.36 -9 8 C-7.68 8 -6.36 8 -5 8 C-5.33 7.01 -5.66 6.02 -6 5 C-4.35 4.67 -2.7 4.34 -1 4 C-0.67 2.68 -0.34 1.36 0 0 Z " fill="#1C8AD4" transform="translate(694,96)"/>
<path d="M0 0 C0.66 0 1.32 0 2 0 C2.474375 0.639375 2.94875 1.27875 3.4375 1.9375 C4.9091365 4.28372963 4.9091365 4.28372963 8 5 C7.98839844 5.63808594 7.97679687 6.27617188 7.96484375 6.93359375 C7.95582031 7.75988281 7.94679688 8.58617188 7.9375 9.4375 C7.92589844 10.26121094 7.91429687 11.08492187 7.90234375 11.93359375 C7.76732652 13.99163938 7.76732652 13.99163938 9 15 C9.15386542 17.78437239 9.2316883 20.52683231 9.25 23.3125 C9.270625 24.08529297 9.29125 24.85808594 9.3125 25.65429688 C9.35208699 31.4092561 9.35208699 31.4092561 7.484375 34.54296875 C6.74960937 35.26419922 6.74960937 35.26419922 6 36 C6.2475 34.2984375 6.2475 34.2984375 6.5 32.5625 C7.90477462 20.5694988 5.64711569 10.79262511 0 0 Z " fill="#1D8AD3" transform="translate(398,110)"/>
<path d="M0 0 C-0.33 0.99 -0.66 1.98 -1 3 C-1.66 3 -2.32 3 -3 3 C-3 3.66 -3 4.32 -3 5 C-9.75324675 6.94805195 -9.75324675 6.94805195 -12.375 7.5 C-13.179375 7.7475 -13.179375 7.7475 -14 8 C-14.33 8.66 -14.66 9.32 -15 10 C-17.28515625 10.8515625 -17.28515625 10.8515625 -20.0625 11.625 C-20.98160156 11.88539062 -21.90070313 12.14578125 -22.84765625 12.4140625 C-23.55792969 12.60742188 -24.26820312 12.80078125 -25 13 C-25 13.66 -25 14.32 -25 15 C-26.32 14.67 -27.64 14.34 -29 14 C-7.60913706 0 -7.60913706 0 0 0 Z " fill="#1C89D2" transform="translate(88,8)"/>
<path d="M0 0 C0.73605469 0.09990234 1.47210938 0.19980469 2.23046875 0.30273438 C4.02974077 0.54808965 5.82754131 0.80419537 7.625 1.0625 C7.625 1.7225 7.625 2.3825 7.625 3.0625 C6.22701172 2.91941406 6.22701172 2.91941406 4.80078125 2.7734375 C-3.97015652 2.01074726 -11.6804015 2.38354305 -20.375 4.0625 C-21.81100984 4.28086844 -23.24828363 4.49137432 -24.6875 4.6875 C-25.574375 4.81125 -26.46125 4.935 -27.375 5.0625 C-27.375 4.4025 -27.375 3.7425 -27.375 3.0625 C-25.33388458 2.58099058 -23.29208068 2.10239917 -21.25 1.625 C-20.11304688 1.35816406 -18.97609375 1.09132813 -17.8046875 0.81640625 C-16.67289063 0.56761719 -15.54109375 0.31882812 -14.375 0.0625 C-13.4159375 -0.1540625 -12.456875 -0.370625 -11.46875 -0.59375 C-7.50619488 -1.0340339 -3.9275683 -0.57173463 0 0 Z " fill="#1C96DA" transform="translate(184.375,79.9375)"/>
<path d="M0 0 C0.66 0.33 1.32 0.66 2 1 C0.8125 2.5 0.8125 2.5 -1 4 C-3.6875 4.1875 -3.6875 4.1875 -6 4 C-6.226875 4.61875 -6.45375 5.2375 -6.6875 5.875 C-8 8 -8 8 -10.25 8.8125 C-13.73415324 10.31702072 -15.69060648 12.39823074 -18.3125 15.125 C-19.19550781 16.03507812 -20.07851563 16.94515625 -20.98828125 17.8828125 C-21.65214844 18.58148438 -22.31601562 19.28015625 -23 20 C-23 15.89752715 -21.48711363 15.05401688 -18.625 12.1875 C-13.150713 6.8611667 -7.30126354 2.43375451 0 0 Z " fill="#1F89CB" transform="translate(854,69)"/>
<path d="M0 0 C1.98 0 3.96 0 6 0 C2.51849756 2.32100162 -1.10566684 3.67675155 -5 5.125 C-5.72445312 5.40214844 -6.44890625 5.67929688 -7.1953125 5.96484375 C-10.25537872 7.11095711 -12.70542099 8 -16 8 C-15.67 6.35 -15.34 4.7 -15 3 C-12.21176345 1.9673198 -11.1322726 1.95490707 -8.25 2.9375 C-7.5075 3.288125 -6.765 3.63875 -6 4 C-6 3.34 -6 2.68 -6 2 C-4.02 2 -2.04 2 0 2 C0 1.34 0 0.68 0 0 Z " fill="#198BD6" transform="translate(144,87)"/>
<path d="M0 0 C10.64399954 0.86302699 20.81436626 7.93256772 30 13 C30 13.33 30 13.66 30 14 C28.35 14 26.7 14 25 14 C25 13.34 25 12.68 25 12 C24.01 12 23.02 12 22 12 C22 11.34 22 10.68 22 10 C21.13375 9.731875 20.2675 9.46375 19.375 9.1875 C16 8 16 8 12.9375 6.4375 C10.2165976 5.10599457 7.97745558 4.43786111 5 4 C5 3.34 5 2.68 5 2 C3.35 2 1.7 2 0 2 C0 1.34 0 0.68 0 0 Z " fill="#1F8ACC" transform="translate(177,7)"/>
<path d="M0 0 C0.66 0.33 1.32 0.66 2 1 C1.3503125 1.5878125 1.3503125 1.5878125 0.6875 2.1875 C-1.09187285 3.95316987 -1.09187285 3.95316987 -2.25 6.25 C-4.60169688 9.94552367 -7.37357832 13.48880047 -11 16 C-13.11352539 15.57861328 -13.11352539 15.57861328 -15 15 C-12.88094537 12.82722286 -10.75527122 10.66173092 -8.625 8.5 C-8.02171875 7.87996094 -7.4184375 7.25992188 -6.796875 6.62109375 C-6.21679688 6.03457031 -5.63671875 5.44804688 -5.0390625 4.84375 C-4.50490723 4.29912109 -3.97075195 3.75449219 -3.42041016 3.19335938 C-2 2 -2 2 0 2 C0 1.34 0 0.68 0 0 Z " fill="#198AD4" transform="translate(48,30)"/>
<path d="M0 0 C0.33 0.99 0.66 1.98 1 3 C1.33 2.34 1.66 1.68 2 1 C2.99 1 3.98 1 5 1 C5.33 2.65 5.66 4.3 6 6 C5.01 6.495 5.01 6.495 4 7 C4 11.95 4 16.9 4 22 C3.67 22 3.34 22 3 22 C2.49599549 19.08397391 1.99665334 16.16727908 1.5 13.25 C1.35691406 12.425 1.21382813 11.6 1.06640625 10.75 C0.93105469 9.95078125 0.79570312 9.1515625 0.65625 8.328125 C0.53056641 7.5949707 0.40488281 6.86181641 0.27539062 6.10644531 C0 4 0 4 0 0 Z " fill="#148CDD" transform="translate(1,145)"/>
<path d="M0 0 C0.33 0 0.66 0 1 0 C1.20086443 3.71599191 1.1519437 4.77208445 -1 8 C-1.66 8 -2.32 8 -3 8 C-3.16435547 8.99580078 -3.16435547 8.99580078 -3.33203125 10.01171875 C-4.21136023 14.90879478 -4.99451714 18.90161428 -8 23 C-9.33146252 19.96550403 -8.90811159 18.70751013 -7.890625 15.46875 C-7.35532759 14.14110643 -6.80801859 12.81825492 -6.25 11.5 C-5.98445312 10.83613281 -5.71890625 10.17226562 -5.4453125 9.48828125 C-4.00190982 5.97786988 -2.53114616 2.85117613 0 0 Z " fill="#1F89CE" transform="translate(662,90)"/>
<path d="M0 0 C0.66 0 1.32 0 2 0 C2 0.99 2 1.98 2 3 C8.6 3 15.2 3 22 3 C17.72798833 5.13600583 14.68540477 5.30056961 10.0625 5.25 C9.00772461 5.26160156 9.00772461 5.26160156 7.93164062 5.2734375 C3.84601282 5.25812118 0.67358827 4.81163257 -3 3 C-2.01 2.67 -1.02 2.34 0 2 C0 1.34 0 0.68 0 0 Z " fill="#1F8FCF" transform="translate(80,100)"/>
<path d="M0 0 C0 0.66 0 1.32 0 2 C-0.66 2 -1.32 2 -2 2 C-2 2.66 -2 3.32 -2 4 C-3.32 4 -4.64 4 -6 4 C-7.20628008 6.33214148 -8.1654738 8.49642139 -9 11 C-10.32 10.67 -11.64 10.34 -13 10 C-13 10.66 -13 11.32 -13 12 C-14.65 12.33 -16.3 12.66 -18 13 C-5.37142857 0 -5.37142857 0 0 0 Z " fill="#1A8BD3" transform="translate(518,71)"/>
<path d="M0 0 C0.66 0.99 1.32 1.98 2 3 C4.55183404 4.20450304 4.55183404 4.20450304 7 5 C4 6 4 6 1.5625 5.0625 C-3.60839215 3.5203041 -8.64192223 3.84393948 -14 4 C-13.01 3.67 -12.02 3.34 -11 3 C-11 2.34 -11 1.68 -11 1 C-7.04340734 -0.31886422 -4.17660573 -0.26518132 0 0 Z " fill="#198AD3" transform="translate(550,92)"/>
<path d="M0 0 C0.33 0.66 0.66 1.32 1 2 C0.01 3.485 0.01 3.485 -1 5 C-0.773125 5.61875 -0.54625 6.2375 -0.3125 6.875 C-0.209375 7.57625 -0.10625 8.2775 0 9 C-2.3125 11.75 -2.3125 11.75 -5 14 C-5.66 14 -6.32 14 -7 14 C-7 14.66 -7 15.32 -7 16 C-7.66 16 -8.32 16 -9 16 C-7.51637716 9.73581469 -3.75837844 5.08486495 0 0 Z " fill="#1A89D4" transform="translate(26,54)"/>
<path d="M0 0 C3.2989466 3.73598653 5.08802779 7.18659693 6.75 11.875 C7.39195312 13.63457031 7.39195312 13.63457031 8.046875 15.4296875 C9.03000097 19.1123807 9.17460915 22.20710124 9 26 C6.77186324 23.77186324 6.59254974 22.93728304 6 19.9375 C5.75636719 18.74640625 5.75636719 18.74640625 5.5078125 17.53125 C5.34023438 16.6959375 5.17265625 15.860625 5 15 C4.62877007 13.31166662 4.25395492 11.62411626 3.875 9.9375 C3.58333333 8.625 3.29166667 7.3125 3 6 C2.34 6 1.68 6 1 6 C0.34 4.35 -0.32 2.7 -1 1 C-0.67 0.67 -0.34 0.34 0 0 Z " fill="#1E89D1" transform="translate(592,91)"/>
<path d="M0 0 C7.48291572 6.15034169 7.48291572 6.15034169 10 10 C8.68 9.67 7.36 9.34 6 9 C6 9.99 6 10.98 6 12 C5.01 11.67 4.02 11.34 3 11 C3.33 9.02 3.66 7.04 4 5 C1.03 4.505 1.03 4.505 -2 4 C-1 1 -1 1 0 0 Z " fill="#1389D7" transform="translate(223,33)"/>
<path d="M0 0 C-0.6875 1.9375 -0.6875 1.9375 -2 4 C-4.625 4.75 -4.625 4.75 -7 5 C-7.33 5.99 -7.66 6.98 -8 8 C-9.9375 7.6875 -9.9375 7.6875 -12 7 C-12.33 6.01 -12.66 5.02 -13 4 C-11.2097939 3.32942113 -9.41778511 2.6636531 -7.625 2 C-6.62726563 1.62875 -5.62953125 1.2575 -4.6015625 0.875 C-2 0 -2 0 0 0 Z " fill="#158DD9" transform="translate(140,173)"/>
<path d="M0 0 C1.35439668 2.70879335 1.06501451 5.00933268 1 8 C0.38125 8.103125 -0.2375 8.20625 -0.875 8.3125 C-3.36526484 8.87525373 -3.36526484 8.87525373 -5 12 C-5.66 12 -6.32 12 -7 12 C-7.33 13.32 -7.66 14.64 -8 16 C-8.33 15.34 -8.66 14.68 -9 14 C-6.79365864 8.87201939 -3.6578722 4.19977919 0 0 Z " fill="#1988D3" transform="translate(499,85)"/>
<path d="M0 0 C0.66 0.33 1.32 0.66 2 1 C1.20953336 3.22959864 0.41766606 5.45868334 -0.375 7.6875 C-0.81585938 8.92886719 -1.25671875 10.17023438 -1.7109375 11.44921875 C-2.75503909 14.32524403 -3.84149255 17.1686944 -5 20 C-5.33 20 -5.66 20 -6 20 C-6 18.02 -6 16.04 -6 14 C-5.34 14 -4.68 14 -4 14 C-2.89771304 9.59085217 -2.92345464 5.51617599 -3 1 C-2.01 0.67 -1.02 0.34 0 0 Z " fill="#1988CF" transform="translate(261,172)"/>
<path d="M0 0 C0.66 0 1.32 0 2 0 C2 0.66 2 1.32 2 2 C3.98 2 5.96 2 8 2 C4.7354972 5.2645028 0.58952701 5.93236055 -3.9375 6.125 C-4.618125 6.08375 -5.29875 6.0425 -6 6 C-5.67 5.34 -5.34 4.68 -5 4 C-4.01 4 -3.02 4 -2 4 C-1.67 3.01 -1.34 2.02 -1 1 C-0.67 0.67 -0.34 0.34 0 0 Z " fill="#148BDB" transform="translate(109,97)"/>
<path d="M0 0 C0.99 0.66 1.98 1.32 3 2 C1.6302836 5.99500618 -0.25722422 8.80009492 -3 12 C-3.79953138 8.71303767 -4.09658936 7.28976808 -3 4 C-2.34 3.67 -1.68 3.34 -1 3 C-0.67 2.01 -0.34 1.02 0 0 Z " fill="#1290DC" transform="translate(424,165)"/>
<path d="M0 0 C2.51424018 7.32874266 -0.66952537 16.84211364 -3 24 C-3.33 24 -3.66 24 -4 24 C-4.21221057 18.1111566 -3.55320433 13.16709687 -2 7.5 C-1.80921875 6.77296875 -1.6184375 6.0459375 -1.421875 5.296875 C-0.95662755 3.52893469 -0.47956407 1.76411067 0 0 Z " fill="#2289D3" transform="translate(6,94)"/>
<path d="M0 0 C0.70125 0.309375 1.4025 0.61875 2.125 0.9375 C5.08936657 2.03302678 7.87698108 2.56422992 11 3 C11 3.99 11 4.98 11 6 C11.61875 6.12375 12.2375 6.2475 12.875 6.375 C15 7 15 7 17 9 C12.85701333 8.40165275 9.81805623 6.99335715 6.1875 4.9375 C5.21167969 4.38964844 4.23585938 3.84179688 3.23046875 3.27734375 C2.49441406 2.85582031 1.75835937 2.43429688 1 2 C0.67 2.66 0.34 3.32 0 4 C0 2.68 0 1.36 0 0 Z " fill="#248CD2" transform="translate(57,93)"/>
<path d="M0 0 C0 0.66 0 1.32 0 2 C-1.44632813 2.30744141 -1.44632813 2.30744141 -2.921875 2.62109375 C-4.18515625 2.89050781 -5.4484375 3.15992187 -6.75 3.4375 C-8.00296875 3.70433594 -9.2559375 3.97117187 -10.546875 4.24609375 C-13.04557085 4.7916235 -15.52553101 5.35638812 -18 6 C-16.02579865 3.47740939 -15.03254358 3.0070192 -11.8125 2.3125 C-10.4203125 2.1578125 -10.4203125 2.1578125 -9 2 C-9 1.34 -9 0.68 -9 0 C-5.93109813 -1.53445094 -3.29905734 -0.54984289 0 0 Z " fill="#1A8BD4" transform="translate(880,93)"/>
<path d="M0 0 C1.65 0 3.3 0 5 0 C4.37935063 1.60585493 3.7533082 3.20962617 3.125 4.8125 C2.77695312 5.70582031 2.42890625 6.59914063 2.0703125 7.51953125 C1 10 1 10 -1 13 C-0.67 11.02 -0.34 9.04 0 7 C-0.66 7 -1.32 7 -2 7 C-2 5.68 -2 4.36 -2 3 C-1.01 3 -0.02 3 1 3 C0.67 2.01 0.34 1.02 0 0 Z " fill="#1788D5" transform="translate(516,107)"/>
<path d="M0 0 C0.66 0.33 1.32 0.66 2 1 C2 1.99 2 2.98 2 4 C-0.31 4.33 -2.62 4.66 -5 5 C-5 5.66 -5 6.32 -5 7 C-6.98 7.66 -8.96 8.32 -11 9 C-7.56638098 5.36440339 -4.2026393 2.63886654 0 0 Z " fill="#1C89D0" transform="translate(681,72)"/>
<path d="M0 0 C1.8125 0.125 1.8125 0.125 4 1 C5.03755118 2.98077953 6.02995879 4.98529902 7 7 C8.89264788 9.43270936 10.92082164 11.7256884 13 14 C12.67 14.66 12.34 15.32 12 16 C7.28006804 10.94783982 3.15267299 6.17398461 0 0 Z " fill="#2C8BC9" transform="translate(23,208)"/>
<path d="M0 0 C0.99 0.33 1.98 0.66 3 1 C1.2335343 2.0076952 -0.53833823 3.00591714 -2.3125 4 C-3.79169922 4.8353125 -3.79169922 4.8353125 -5.30078125 5.6875 C-8 7 -8 7 -11 7 C-11.33 6.01 -11.66 5.02 -12 4 C-11.21753906 3.79503906 -10.43507813 3.59007812 -9.62890625 3.37890625 C-8.61699219 3.10949219 -7.60507812 2.84007812 -6.5625 2.5625 C-5.55316406 2.29566406 -4.54382813 2.02882812 -3.50390625 1.75390625 C-1.08247999 1.24021923 -1.08247999 1.24021923 0 0 Z " fill="#1D89D0" transform="translate(401,192)"/>
<path d="M0 0 C1.134375 0.020625 2.26875 0.04125 3.4375 0.0625 C0.7476115 1.855759 -1.97541463 3.52995549 -4.75 5.1875 C-6.10158203 5.99574219 -6.10158203 5.99574219 -7.48046875 6.8203125 C-8.16753906 7.23023437 -8.85460937 7.64015625 -9.5625 8.0625 C-9.5625 6.7425 -9.5625 5.4225 -9.5625 4.0625 C-7.125 2.375 -7.125 2.375 -4.5625 1.0625 C-3.5625 0.0625 -3.5625 0.0625 0 0 Z " fill="#2089CF" transform="translate(532.5625,95.9375)"/>
<path d="M0 0 C1.65 0 3.3 0 5 0 C5 1.65 5 3.3 5 5 C5.99 5.33 6.98 5.66 8 6 C8 7.98 8 9.96 8 12 C4.02502456 8.59287819 2.13206212 4.67239145 0 0 Z " fill="#218FD9" transform="translate(15,195)"/>
<path d="M0 0 C6.02770138 0.47587116 10.76678289 3.19722957 16 6 C12.65044556 7.11651815 11.32740404 6.99822121 8 6 C7 5 6 4 5 3 C2.39388923 2.27802838 2.39388923 2.27802838 0 2 C0 1.34 0 0.68 0 0 Z " fill="#1E86CD" transform="translate(195,167)"/>
<path d="M0 0 C-0.61277612 2.96175123 -1.25372522 4.38058783 -3 7 C-4.98 5.35 -6.96 3.7 -9 2 C-6.13119883 0.56559942 -3.20485087 0 0 0 Z " fill="#1288D2" transform="translate(566,97)"/>
<path d="M0 0 C5.57552338 -0.28838914 9.17362578 -0.178344 14 3 C14.33 3.99 14.66 4.98 15 6 C14.38125 5.731875 13.7625 5.46375 13.125 5.1875 C8.82005607 3.5516213 4.41968448 2.28728674 0 1 C0 0.67 0 0.34 0 0 Z " fill="#258ACD" transform="translate(373,95)"/>
<path d="M0 0 C-1.65848177 1.01351664 -3.32665961 2.01120795 -5 3 C-5.680625 3.433125 -6.36125 3.86625 -7.0625 4.3125 C-9 5 -9 5 -11.12109375 4.04296875 C-11.74113281 3.69878906 -12.36117187 3.35460937 -13 3 C-11.5903653 2.29819469 -10.17192359 1.61406042 -8.75 0.9375 C-7.96109375 0.55464844 -7.1721875 0.17179687 -6.359375 -0.22265625 C-3.74006478 -1.08564091 -2.55144824 -0.93045933 0 0 Z " fill="#1B8AD5" transform="translate(696,68)"/>
<path d="M0 0 C4.50066475 1.06795435 8.7494534 2.14038586 13 4 C13 4.66 13 5.32 13 6 C13.66 6.33 14.32 6.66 15 7 C11.14974121 6.39644592 8.13898841 5.23227397 4.6875 3.4375 C3.80449219 2.98246094 2.92148438 2.52742187 2.01171875 2.05859375 C1.34785156 1.70925781 0.68398437 1.35992187 0 1 C0 0.67 0 0.34 0 0 Z " fill="#1E98DC" transform="translate(71,251)"/>
<path d="M0 0 C3.21524305 1.40844718 5.32183868 3.10344786 7.75 5.625 C8.67039062 6.57246094 8.67039062 6.57246094 9.609375 7.5390625 C10.29773438 8.26222656 10.29773438 8.26222656 11 9 C10.67 9.66 10.34 10.32 10 11 C9.278125 10.236875 8.55625 9.47375 7.8125 8.6875 C5.16997975 5.9503473 5.16997975 5.9503473 2.1875 4.375 C1.465625 3.92125 0.74375 3.4675 0 3 C0 2.01 0 1.02 0 0 Z " fill="#2187CA" transform="translate(745,77)"/>
<path d="M0 0 C0.33 1.32 0.66 2.64 1 4 C-2.63 4 -6.26 4 -10 4 C-4.66666667 0 -4.66666667 0 0 0 Z " fill="#188BD6" transform="translate(528,67)"/>
<path d="M0 0 C0 0.99 0 1.98 0 3 C2.97 3.495 2.97 3.495 6 4 C6 4.33 6 4.66 6 5 C1.428721 4.45144652 -2.67435795 3.58255197 -7 2 C-7 1.67 -7 1.34 -7 1 C-2.25 0 -2.25 0 0 0 Z " fill="#1F8DD0" transform="translate(96,258)"/>
<path d="M0 0 C0.99 0 1.98 0 3 0 C3 0.66 3 1.32 3 2 C4.32 2.33 5.64 2.66 7 3 C5.35 4.98 3.7 6.96 2 9 C2 6 2 6 3 3 C2.01 3 1.02 3 0 3 C0 2.01 0 1.02 0 0 Z " fill="#1689D4" transform="translate(233,214)"/>
<path d="M0 0 C0 3.80845564 -0.97798569 5.79266696 -3 9 C-5.6875 9.875 -5.6875 9.875 -8 10 C-7.04367001 8.70684939 -6.08486149 7.41553147 -5.125 6.125 C-4.59132813 5.40570313 -4.05765625 4.68640625 -3.5078125 3.9453125 C-2 2 -2 2 0 0 Z " fill="#2289CD" transform="translate(399,155)"/>
<path d="M0 0 C2.97 0 5.94 0 9 0 C5.39948847 2.40034102 2.03855465 4.32187705 -2.375 3.625 C-2.91125 3.41875 -3.4475 3.2125 -4 3 C-2.68 2.67 -1.36 2.34 0 2 C0 1.34 0 0.68 0 0 Z " fill="#1D97D6" transform="translate(172,259)"/>
<path d="M0 0 C0.99 0.33 1.98 0.66 3 1 C1.3790787 2.17232685 -0.24686833 3.3377077 -1.875 4.5 C-2.77992188 5.1496875 -3.68484375 5.799375 -4.6171875 6.46875 C-7 8 -7 8 -9 8 C-9 6 -9 6 -7.8125 4.5 C-5.67981227 2.73501705 -3.58430607 1.95211276 -1 1 C-0.67 0.67 -0.34 0.34 0 0 Z " fill="#208ACC" transform="translate(211,241)"/>
<path d="M0 0 C4.43601966 3.51822249 5.52033129 7.75390186 7 13 C5 11.25 5 11.25 3 9 C3 7.68 3 6.36 3 5 C2.34 5 1.68 5 1 5 C0.67 3.35 0.34 1.7 0 0 Z " fill="#208ACF" transform="translate(924,90)"/>
<path d="M0 0 C0.66 0.99 1.32 1.98 2 3 C1.34 3 0.68 3 0 3 C-0.66 4.32 -1.32 5.64 -2 7 C-2.99 7 -3.98 7 -5 7 C-4.67 5.02 -4.34 3.04 -4 1 C-2.68 0.67 -1.36 0.34 0 0 Z " fill="#078DE0" transform="translate(552,65)"/>
<path d="M0 0 C4.44209357 -0.10834375 8.61414671 0.29826347 13 1 C13 2.32 13 3.64 13 5 C11.58208592 4.54554036 10.16571954 4.08625056 8.75 3.625 C7.96109375 3.36976562 7.1721875 3.11453125 6.359375 2.8515625 C4.13372042 2.04826333 2.09068328 1.10288338 0 0 Z " fill="#1D88D0" transform="translate(880,95)"/>
<path d="M0 0 C2.89932357 2.39509338 3.50168276 4.31245243 4 8 C3.34 8 2.68 8 2 8 C2 7.01 2 6.02 2 5 C0.35 5 -1.3 5 -3 5 C-1.125 1.125 -1.125 1.125 0 0 Z " fill="#1488D5" transform="translate(253,72)"/>
<path d="M0 0 C3.5786304 1.65167557 6.74820188 3.78286492 10 6 C8.68 6.33 7.36 6.66 6 7 C6 6.34 6 5.68 6 5 C4.02 4.34 2.04 3.68 0 3 C0 2.01 0 1.02 0 0 Z " fill="#1B88CD" transform="translate(208,22)"/>
<path d="M0 0 C1.32 0.66 2.64 1.32 4 2 C1.69 3.32 -0.62 4.64 -3 6 C-3.33 4.68 -3.66 3.36 -4 2 C-2.68 2 -1.36 2 0 2 C0 1.34 0 0.68 0 0 Z " fill="#1789D4" transform="translate(407,186)"/>
<path d="M0 0 C1.2065625 0.0309375 1.2065625 0.0309375 2.4375 0.0625 C-1.1875 5.9375 -1.1875 5.9375 -4.5625 7.0625 C-4.5625 6.4025 -4.5625 5.7425 -4.5625 5.0625 C-3.9025 5.0625 -3.2425 5.0625 -2.5625 5.0625 C-2.8409375 4.1034375 -2.8409375 4.1034375 -3.125 3.125 C-3.3415625 2.1040625 -3.3415625 2.1040625 -3.5625 1.0625 C-2.5625 0.0625 -2.5625 0.0625 0 0 Z " fill="#1789D6" transform="translate(417.5625,177.9375)"/>
<path d="M0 0 C0.66 0.33 1.32 0.66 2 1 C1.67 1.66 1.34 2.32 1 3 C1.66 3.33 2.32 3.66 3 4 C-0.47325181 5.1577506 -3.36067448 5.06866652 -7 5 C-6.01 4.34 -5.02 3.68 -4 3 C-2.66209359 2.00612666 -1.32781878 1.0073108 0 0 Z " fill="#208CD1" transform="translate(389,165)"/>
<path d="M0 0 C0.33 1.32 0.66 2.64 1 4 C-0.98 3.34 -2.96 2.68 -5 2 C-5.66 2.99 -6.32 3.98 -7 5 C-7 3.35 -7 1.7 -7 0 C-4.3333581 -1.33332095 -2.83319697 -0.67102033 0 0 Z " fill="#0788DE" transform="translate(63,92)"/>
<path d="M0 0 C1.65 0 3.3 0 5 0 C1.71195019 2.91227269 -0.59885603 4.49701212 -5 5 C-5 4.01 -5 3.02 -5 2 C-3.35 2 -1.7 2 0 2 C0 1.34 0 0.68 0 0 Z " fill="#228BD0" transform="translate(193,251)"/>
<path d="M0 0 C0.33 0 0.66 0 1 0 C1 2.31 1 4.62 1 7 C-0.98 5.35 -2.96 3.7 -5 2 C-4.360625 1.855625 -3.72125 1.71125 -3.0625 1.5625 C-1.02454854 1.18992819 -1.02454854 1.18992819 0 0 Z " fill="#168DD6" transform="translate(46,228)"/>
<path d="M0 0 C-0.99 1.485 -0.99 1.485 -2 3 C-3.9453125 3.29296875 -3.9453125 3.29296875 -6.125 3.1875 C-7.40375 3.125625 -8.6825 3.06375 -10 3 C-7.28464405 0.28464405 -3.67870689 -1.83935344 0 0 Z " fill="#208CCE" transform="translate(152,170)"/>
<path d="M0 0 C-3.42346555 3.14958831 -6.44262737 3.56179109 -11 4 C-10.34 3.67 -9.68 3.34 -9 3 C-9 2.34 -9 1.68 -9 1 C-5.92677456 0.08941469 -3.19902639 -0.08886184 0 0 Z " fill="#1B90D6" transform="translate(128,95)"/>
<path d="M0 0 C2.64 0.33 5.28 0.66 8 1 C8 1.66 8 2.32 8 3 C5.03 3 2.06 3 -1 3 C-0.67 2.01 -0.34 1.02 0 0 Z " fill="#0D8FE0" transform="translate(146,84)"/>
<path d="M0 0 C1.64767247 0.28109113 3.29313145 0.57518526 4.9375 0.875 C5.85402344 1.03742188 6.77054688 1.19984375 7.71484375 1.3671875 C8.46894531 1.57601562 9.22304688 1.78484375 10 2 C10.33 2.66 10.66 3.32 11 4 C7.7 3.67 4.4 3.34 1 3 C0.67 2.01 0.34 1.02 0 0 Z " fill="#2187C6" transform="translate(888,66)"/>
<path d="M0 0 C0.33 0 0.66 0 1 0 C1.20086443 3.71599191 1.1519437 4.77208445 -1 8 C-1.66 8 -2.32 8 -3 8 C-2.45276317 4.62537285 -1.9451 2.91765 0 0 Z " fill="#148ADA" transform="translate(662,90)"/>
<path d="M0 0 C0.33 0.66 0.66 1.32 1 2 C0.01 2.33 -0.98 2.66 -2 3 C-2.66 2.67 -3.32 2.34 -4 2 C-5.99960012 1.960008 -8.00047242 1.95653201 -10 2 C-6.3558226 -0.4294516 -4.28758728 -0.16179575 0 0 Z " fill="#1689D9" transform="translate(866,67)"/>
<path d="M0 0 C-0.33 0.99 -0.66 1.98 -1 3 C-1.66 3 -2.32 3 -3 3 C-3 3.66 -3 4.32 -3 5 C-4.65 5 -6.3 5 -8 5 C-7.01 4.67 -6.02 4.34 -5 4 C-5 3.01 -5 2.02 -5 1 C-2 0 -2 0 0 0 Z " fill="#1190DD" transform="translate(88,8)"/>
<path d="M0 0 C0.75 1.75 0.75 1.75 1 4 C-0.8125 6.25 -0.8125 6.25 -3 8 C-3.66 8 -4.32 8 -5 8 C-3.62845496 5.04590299 -2.01136276 2.55991624 0 0 Z " fill="#298DCB" transform="translate(32,46)"/>
</svg>
