<?xml version="1.0" encoding="UTF-8"?>
<svg version="1.1" xmlns="http://www.w3.org/2000/svg" width="228" height="221">
<path d="M0 0 C0.94101563 0.38414062 1.88203125 0.76828125 2.8515625 1.1640625 C9.33763309 4.11592744 14.65992716 8.32856572 20 13 C20.94166016 13.79857422 20.94166016 13.79857422 21.90234375 14.61328125 C33.97407141 25.64481469 41.12851414 43.09889688 42.21875 59.23828125 C42.75641287 79.37823625 35.73682612 98.06004976 21.875 112.6875 C6.23009841 127.64940452 -11.49688821 132.4793656 -32.54296875 132.203125 C-49.2210467 131.73945238 -64.54363045 123.957085 -76 112 C-76.77859375 111.24074219 -77.5571875 110.48148437 -78.359375 109.69921875 C-91.60170727 96.12360631 -96.42201296 78.52993256 -96.203125 59.9609375 C-95.4209698 44.70891104 -89.26677698 29.44370019 -79 18 C-78.36835937 17.27683594 -77.73671875 16.55367187 -77.0859375 15.80859375 C-57.44770278 -5.29358211 -26.24390355 -10.86990056 0 0 Z M-60 33 C-67.00381314 41.13956662 -66.32105138 51.76435507 -66.26074219 61.91137695 C-66.25000426 64.06164634 -66.26069531 66.21108377 -66.2734375 68.36132812 C-66.29877687 82.09836778 -66.29877687 82.09836778 -60 94 C-51.3235806 101.43693091 -39.18414687 100.31774996 -28.4140625 100.26074219 C-26.00495231 100.25002204 -23.59658758 100.26068581 -21.1875 100.2734375 C-7.22025166 100.75243524 -7.22025166 100.75243524 5.4375 95.875 C12.20990691 88.27668981 12.2103545 78.27994223 12.3125 68.5625 C12.34150391 67.64662109 12.37050781 66.73074219 12.40039062 65.78710938 C12.45781145 59.63424687 11.9027613 55.8615499 8 51 C1.94387331 46.59380368 -4.24110407 46.39927938 -11.5 46.390625 C-12.57628662 46.37408875 -13.65257324 46.35755249 -14.76147461 46.34051514 C-18.17437551 46.29221469 -21.58683136 46.27070338 -25 46.25 C-27.32424092 46.22182542 -29.64846128 46.19189593 -31.97265625 46.16015625 C-37.64835719 46.08646061 -43.32393389 46.03471307 -49 46 C-49 44.68 -49 43.36 -49 42 C-26.725 41.505 -26.725 41.505 -4 41 C-5.03702875 34.77782748 -5.34573794 33.72340965 -10 30 C-22.56709165 24.01567064 -49.11484991 24.29187993 -60 33 Z " fill="#04ADD4" transform="translate(140,5)"/>
<path d="M0 0 C0.804375 0.495 1.60875 0.99 2.4375 1.5 C2.7675 0.84 3.0975 0.18 3.4375 -0.5 C7.3975 -0.5 11.3575 -0.5 15.4375 -0.5 C15.51214507 4.88937415 15.56633434 10.27844152 15.60229492 15.66821289 C15.61729997 17.49834441 15.63771059 19.32844046 15.66381836 21.15844727 C15.70056906 23.80233558 15.71730937 26.44574492 15.73046875 29.08984375 C15.74595261 29.89646957 15.76143646 30.7030954 15.77738953 31.53416443 C15.7792517 37.94538316 14.83918598 44.47421001 10.75390625 49.62109375 C10.17511719 50.05550781 9.59632812 50.48992187 9 50.9375 C8.13568359 51.61619141 8.13568359 51.61619141 7.25390625 52.30859375 C2.7184641 55.28345365 -0.89220244 55.88751801 -6.3125 55.875 C-7.02825195 55.87338867 -7.74400391 55.87177734 -8.48144531 55.87011719 C-15.63985283 55.70379428 -19.72882047 54.05031158 -25.0625 49.25 C-25.5575 48.6725 -26.0525 48.095 -26.5625 47.5 C-25.06026416 43.29373966 -22.27699966 41.76099979 -18.5625 39.5 C-17.77875 40.139375 -16.995 40.77875 -16.1875 41.4375 C-11.50717425 45.1148988 -7.39319909 45.18762687 -1.5625 44.5 C1.23768787 42.58767658 2.12726281 41.43071157 3.1875 38.25 C3.27 37.6725 3.3525 37.095 3.4375 36.5 C2.674375 36.995 1.91125 37.49 1.125 38 C-4.46587568 40.27425451 -10.04823164 40.55071875 -15.875 38.80859375 C-21.88435266 36.08845116 -26.0523677 31.64436732 -28.5625 25.5 C-29.46386612 19.02576449 -29.52749705 13.1003086 -26 7.4375 C-19.69391422 -0.70661552 -9.61130063 -4.04686342 0 0 Z M-16.5625 13.5 C-17.98123968 17.6937588 -17.84252851 20.70412949 -16.375 24.875 C-14.46765294 27.63736471 -13.75453335 28.61332407 -10.5625 29.5 C-5.33194328 29.98431081 -2.03403243 29.2680915 2.4375 26.5 C4.30535626 22.76428749 3.97400091 18.56846525 3.4375 14.5 C1.77083333 11.16666667 1.77083333 11.16666667 -1.5625 9.5 C-7.40715177 8.43646501 -12.70431352 8.52169486 -16.5625 13.5 Z " fill="#010101" transform="translate(28.5625,165.5)"/>
<path d="M0 0 C6.20134526 2.73154493 9.59701978 5.98008933 12.375 12.15625 C14.20011893 17.6316068 14.20217072 23.03337063 11.8125 28.34375 C8.98442305 33.36809948 4.93771877 36.67257071 0 39.53125 C-7.03001823 41.20506386 -11.06088495 40.43830752 -17.625 37.15625 C-17.955 43.09625 -18.285 49.03625 -18.625 55.15625 C-22.255 55.15625 -25.885 55.15625 -29.625 55.15625 C-29.625 37.00625 -29.625 18.85625 -29.625 0.15625 C-25.995 0.15625 -22.365 0.15625 -18.625 0.15625 C-18.295 0.81625 -17.965 1.47625 -17.625 2.15625 C-16.820625 1.66125 -16.01625 1.16625 -15.1875 0.65625 C-9.82528572 -1.60152443 -5.56046575 -1.78729256 0 0 Z M-16.625 12.15625 C-19.30833228 16.18124843 -19.42139219 19.42767136 -18.625 24.15625 C-16.10131975 27.82705764 -14.45464117 28.91489984 -10.1875 30.15625 C-6.09405764 30.15625 -4.03434749 29.37629022 -0.625 27.15625 C2.05833228 23.13125157 2.17139219 19.88482864 1.375 15.15625 C-1.14868025 11.48544236 -2.79535883 10.39760016 -7.0625 9.15625 C-11.15594236 9.15625 -13.21565251 9.93620978 -16.625 12.15625 Z " fill="#020202" transform="translate(126.625,164.84375)"/>
<path d="M0 0 C3.67090134 1.91312007 5.41059363 4.83120136 7.4375 8.375 C7.89160156 11.81005859 7.89160156 11.81005859 7.828125 15.5234375 C7.82246521 16.18082916 7.81680542 16.83822083 7.81097412 17.51553345 C7.78876275 19.59446191 7.7386042 21.67160163 7.6875 23.75 C7.66741489 25.16794368 7.64916765 26.58591465 7.6328125 28.00390625 C7.58895067 31.46150877 7.52003437 34.91807951 7.4375 38.375 C3.8075 38.375 0.1775 38.375 -3.5625 38.375 C-3.8925 37.715 -4.2225 37.055 -4.5625 36.375 C-5.490625 36.890625 -6.41875 37.40625 -7.375 37.9375 C-12.44886984 40.07819965 -17.29885374 39.74879624 -22.5625 38.375 C-26.26295571 36.49231201 -28.7889276 34.31085532 -30.34765625 30.41015625 C-31.09235249 26.64329471 -30.67172744 24.62669802 -29.125 21.0625 C-23.22068515 14.87016979 -13.62399206 14.10772924 -5.5625 12.375 C-5.5625 11.385 -5.5625 10.395 -5.5625 9.375 C-10.79063602 8.38306813 -10.79063602 8.38306813 -15.9375 9.0625 C-17.86768974 10.6214994 -18.52083123 12.15126363 -19.5625 14.375 C-21.02130109 14.23392253 -22.47953551 14.08697585 -23.9375 13.9375 C-25.15566406 13.81568359 -25.15566406 13.81568359 -26.3984375 13.69140625 C-28.5625 13.375 -28.5625 13.375 -30.5625 12.375 C-28.98580281 6.21154736 -26.13557304 3.24047796 -21.0625 -0.4375 C-14.35173974 -2.71436509 -6.55884763 -2.94102173 0 0 Z M-11.625 22.375 C-12.61983398 22.66117188 -12.61983398 22.66117188 -13.63476562 22.953125 C-15.27768275 23.42590691 -16.92013504 23.90030355 -18.5625 24.375 C-18.8925 25.695 -19.2225 27.015 -19.5625 28.375 C-15.79414039 30.88723974 -14.05205076 30.51991265 -9.7265625 29.9140625 C-6.64085375 29.14542025 -5.26763091 28.04390056 -3.5625 25.375 C-3.22751699 22.70665034 -3.22751699 22.70665034 -3.5625 20.375 C-6.22572768 20.375 -9.05789421 21.63222061 -11.625 22.375 Z " fill="#020202" transform="translate(172.5625,165.625)"/>
<path d="M0 0 C5.7883087 3.29139122 9.86179469 6.44741177 12.1875 12.8125 C13.75140711 19.22573148 13.48429538 24.99275511 10.1875 30.8125 C5.7022101 35.89841187 0.99880023 39.39281777 -5.86328125 40.1484375 C-12.63366659 40.22951996 -18.39791747 40.24261298 -23.8125 35.8125 C-29.16052348 30.08917663 -31.27738456 25.13450432 -31.1484375 17.3203125 C-30.40863904 11.79763095 -28.08050145 6.74074247 -23.8046875 3.10546875 C-16.30049788 -1.69887405 -8.55778864 -2.66554072 0 0 Z M-16.8125 11.8125 C-19.0394509 15.04517067 -19.83022383 16.94403245 -19.75 20.875 C-18.59914803 24.48100285 -17.68166187 26.30198337 -14.8125 28.8125 C-10.52030013 30.12021697 -7.05054644 30.31298686 -2.875 28.625 C0.68779432 25.49405953 1.09585528 23.6373025 1.625 18.875 C1.52506874 15.52730282 1.16742848 14.78391329 -0.875 11.875 C-6.46582943 7.94952402 -11.22097824 7.87301876 -16.8125 11.8125 Z " fill="#010101" transform="translate(78.8125,165.1875)"/>
<path d="M0 0 C3.96 0 7.92 0 12 0 C12.53109375 1.07378906 13.0621875 2.14757812 13.609375 3.25390625 C14.32280745 4.69015842 15.03635529 6.12635328 15.75 7.5625 C16.09804687 8.26697266 16.44609375 8.97144531 16.8046875 9.69726562 C19.05837608 14.22551026 21.45092412 18.6309758 24 23 C24.29769287 22.3387915 24.59538574 21.67758301 24.90209961 20.99633789 C26.2448945 18.0173313 27.59114902 15.03990101 28.9375 12.0625 C29.40607422 11.02158203 29.87464844 9.98066406 30.35742188 8.90820312 C31.0293457 7.42416992 31.0293457 7.42416992 31.71484375 5.91015625 C32.12855225 4.99371338 32.54226074 4.07727051 32.96850586 3.13305664 C34 1 34 1 35 0 C37.01964199 -0.07244053 39.04167124 -0.08377188 41.0625 -0.0625 C42.71958984 -0.04896484 42.71958984 -0.04896484 44.41015625 -0.03515625 C45.26480469 -0.02355469 46.11945313 -0.01195312 47 0 C44.98614914 6.75990791 42.23179537 12.86746333 39 19.125 C34.33059131 28.29846557 29.83468526 37.54131403 25.44140625 46.85009766 C24.78591797 48.23334229 24.78591797 48.23334229 24.1171875 49.64453125 C23.73159668 50.46284424 23.34600586 51.28115723 22.94873047 52.12426758 C22 54 22 54 21 55 C18.81360547 55.07258946 16.62499611 55.08373783 14.4375 55.0625 C12.64119141 55.04896484 12.64119141 55.04896484 10.80859375 55.03515625 C9.88175781 55.02355469 8.95492187 55.01195312 8 55 C8.58910156 53.83082031 9.17820313 52.66164062 9.78515625 51.45703125 C10.54499584 49.90920987 11.30407057 48.36101284 12.0625 46.8125 C12.45244141 46.04357422 12.84238281 45.27464844 13.24414062 44.48242188 C13.60830078 43.73154297 13.97246094 42.98066406 14.34765625 42.20703125 C14.68804932 41.5210083 15.02844238 40.83498535 15.37915039 40.12817383 C16.89025489 34.94834768 13.89705417 30.3535183 11.62109375 25.80078125 C11.28956802 25.12452194 10.9580423 24.44826263 10.61647034 23.75151062 C9.56229738 21.6024232 8.50058056 19.45719343 7.4375 17.3125 C6.37152748 15.15678129 5.30729862 13.00027158 4.24781799 10.84135437 C3.58961207 9.50054892 2.92756295 8.161622 2.26133728 6.82478333 C0 2.22457041 0 2.22457041 0 0 Z " fill="#010101" transform="translate(181,165)"/>
<path d="M0 0 C-0.639375 0.12375 -1.27875 0.2475 -1.9375 0.375 C-2.618125 0.58125 -3.29875 0.7875 -4 1 C-4.33 1.66 -4.66 2.32 -5 3 C-7.97 2.01 -10.94 1.02 -14 0 C-14 -0.66 -14 -1.32 -14 -2 C-15.96048352 -1.7451971 -17.91840673 -1.47063056 -19.875 -1.1875 C-20.96554688 -1.03667969 -22.05609375 -0.88585937 -23.1796875 -0.73046875 C-26.31238846 -0.25334259 -26.31238846 -0.25334259 -28 3 C-28 2.34 -28 1.68 -28 1 C-28.99 1 -29.98 1 -31 1 C-31 0.34 -31 -0.32 -31 -1 C-31.4846875 -0.69964844 -31.969375 -0.39929688 -32.46875 -0.08984375 C-37.85292136 2.96463808 -40.95724503 3.29487607 -47 2 C-34.75885703 -6.16076198 -13.26353065 -5.33079701 0 0 Z " fill="#0DABD2" transform="translate(135,3)"/>
<path d="M0 0 C0.33 0.33 0.66 0.66 1 1 C0.96219927 2.64869317 0.84529698 4.29594032 0.6875 5.9375 C0.56955078 7.28134766 0.56955078 7.28134766 0.44921875 8.65234375 C0 11 0 11 -2 13 C-4 13 -4 13 -6 12 C-8.08586277 7.72894767 -8.27311784 4.5620056 -7 0 C-4.31633121 -1.3418344 -2.84719317 -0.73004953 0 0 Z " fill="#16A4C6" transform="translate(139,69)"/>
<path d="M0 0 C0.33 0 0.66 0 1 0 C1.06058594 0.81984375 1.12117188 1.6396875 1.18359375 2.484375 C1.26738281 3.56203125 1.35117187 4.6396875 1.4375 5.75 C1.51871094 6.81734375 1.59992187 7.8846875 1.68359375 8.984375 C1.94483594 11.47423887 2.35475072 13.5982388 3 16 C3.53010958 18.58188086 4.05171924 21.16432514 4.5625 23.75 C4.77036133 24.79607422 4.77036133 24.79607422 4.98242188 25.86328125 C5.32248977 27.57534723 5.66136368 29.28765029 6 31 C6.99 31.33 7.98 31.66 9 32 C9 34.64 9 37.28 9 40 C5.58468148 37.32366853 4.63730934 33.73172883 3.375 29.75 C3.1584375 29.10675781 2.941875 28.46351562 2.71875 27.80078125 C0.46981679 20.90127627 -0.12673569 14.32113318 -0.0625 7.0625 C-0.05798828 6.37865234 -0.05347656 5.69480469 -0.04882812 4.99023438 C-0.0371956 3.32678396 -0.01926694 1.6633795 0 0 Z " fill="#1CA0BF" transform="translate(44,61)"/>
<path d="M0 0 C0.66 0.33 1.32 0.66 2 1 C-9.6823228 16.77113578 -9.6823228 16.77113578 -17 20 C-17 19.01 -17 18.02 -17 17 C-15.34467377 15.98133771 -13.67739862 14.98189187 -12 14 C-11.67 13.01 -11.34 12.02 -11 11 C-10.34 11 -9.68 11 -9 11 C-9 10.34 -9 9.68 -9 9 C-8.34 9 -7.68 9 -7 9 C-7 8.01 -7 7.02 -7 6 C-2.65714286 2 -2.65714286 2 0 2 C0 1.34 0 0.68 0 0 Z " fill="#18A3C4" transform="translate(169,105)"/>
<path d="M0 0 C1.65 0 3.3 0 5 0 C-0.56251224 6.33164973 -10.07190795 9.96416796 -18.375 10.875 C-19.57125 10.91625 -20.7675 10.9575 -22 11 C-21.360625 10.690625 -20.72125 10.38125 -20.0625 10.0625 C-18.06389179 9.1654837 -18.06389179 9.1654837 -17 8 C-15.33382885 7.95936168 -13.66611905 7.957279 -12 8 C-12 7.34 -12 6.68 -12 6 C-10.35 6 -8.7 6 -7 6 C-7 5.34 -7 4.68 -7 4 C-6.030625 3.71125 -5.06125 3.4225 -4.0625 3.125 C-0.89335797 2.35785318 -0.89335797 2.35785318 0 0 Z " fill="#1FA1C2" transform="translate(146,125)"/>
<path d="M0 0 C1.03125 0.165 2.0625 0.33 3.125 0.5 C6.48244326 0.93321848 9.62336157 1.08235703 13 1 C12.2265625 1.37125 12.2265625 1.37125 11.4375 1.75 C10.2309375 2.36875 10.2309375 2.36875 9 3 C7.845 3.53625 6.69 4.0725 5.5 4.625 C1.23611112 7.02744922 -0.26930106 10.57113066 -2 15 C-2.33 15 -2.66 15 -3 15 C-3 13.02 -3 11.04 -3 9 C-2.34 9 -1.68 9 -1 9 C-0.67 6.03 -0.34 3.06 0 0 Z " fill="#19A2BE" transform="translate(78,32)"/>
<path d="M0 0 C1.32 0.66 2.64 1.32 4 2 C3.67 2.99 3.34 3.98 3 5 C1.01751285 5.71706982 -0.98415349 6.38290413 -3 7 C-3.66 7.66 -4.32 8.32 -5 9 C-6.32 8.67 -7.64 8.34 -9 8 C-6.03 5.36 -3.06 2.72 0 0 Z " fill="#0FA6C8" transform="translate(74,11)"/>
<path d="M0 0 C3 2 3 2 3.625 4.5 C3.74875 5.325 3.8725 6.15 4 7 C4.33 7.66 4.66 8.32 5 9 C2.0280615 7.87548273 -0.33440687 6.77706209 -3 5 C-2.67 4.01 -2.34 3.02 -2 2 C-1.34 2 -0.68 2 0 2 C0 1.34 0 0.68 0 0 Z " fill="#10A8CA" transform="translate(76,120)"/>
<path d="M0 0 C2.59521914 1.13540837 4.11664483 2.78985678 6 4.875 C1.6822542 4.36702991 -2.03302114 3.67817221 -6 1.875 C-3.86640881 0.57960535 -2.52392246 -0.15774515 0 0 Z " fill="#16A6C4" transform="translate(91,130.125)"/>
<path d="M0 0 C-1.5 2.0625 -1.5 2.0625 -4 4 C-6.82406647 4.05928384 -9.20225927 3.55954815 -12 3 C-8.52582963 0.68388642 -4.04642977 -2.02321489 0 0 Z " fill="#13A2C1" transform="translate(100,2)"/>
<path d="M0 0 C1.03125 0.165 2.0625 0.33 3.125 0.5 C6.48244326 0.93321848 9.62336157 1.08235703 13 1 C9.46588679 3.12046792 6.05606165 3.53199289 2 4 C2 3.34 2 2.68 2 2 C1.34 2 0.68 2 0 2 C0 1.34 0 0.68 0 0 Z " fill="#16A5CC" transform="translate(78,32)"/>
<path d="M0 0 C0 0.66 0 1.32 0 2 C-0.66 2 -1.32 2 -2 2 C-2 2.66 -2 3.32 -2 4 C-3.65 4 -5.3 4 -7 4 C-7 4.66 -7 5.32 -7 6 C-8.32 5.67 -9.64 5.34 -11 5 C-9.54462432 4.16151196 -8.08559627 3.32936066 -6.625 2.5 C-5.81289062 2.0359375 -5.00078125 1.571875 -4.1640625 1.09375 C-2 0 -2 0 0 0 Z " fill="#1B9FBC" transform="translate(87,5)"/>
<path d="M0 0 C0.99 0.33 1.98 0.66 3 1 C2.67 2.98 2.34 4.96 2 7 C0.35 5.35 -1.3 3.7 -3 2 C-2.01 1.34 -1.02 0.68 0 0 Z " fill="#11A5C8" transform="translate(60,107)"/>
<path d="M0 0 C0.99 0.33 1.98 0.66 3 1 C3 2.65 3 4.3 3 6 C1.68 6 0.36 6 -1 6 C-1.042721 4.33388095 -1.04063832 2.66617115 -1 1 C-0.67 0.67 -0.34 0.34 0 0 Z " fill="#04ADD4" transform="translate(134,74)"/>
<path d="M0 0 C0.66 0 1.32 0 2 0 C1.46930939 3.82097239 0.50298434 6.06171403 -2 9 C-2.33 7.35 -2.66 5.7 -3 4 C-2.01 4 -1.02 4 0 4 C0 2.68 0 1.36 0 0 Z " fill="#1EA2C0" transform="translate(175,92)"/>
<path d="M0 0 C1.485 0.99 1.485 0.99 3 2 C2.34 3.65 1.68 5.3 1 7 C0.34 7 -0.32 7 -1 7 C-0.67 4.69 -0.34 2.38 0 0 Z " fill="#0FA7CC" transform="translate(50,40)"/>
</svg>
