<?xml version="1.0" encoding="UTF-8"?>
<svg version="1.1" xmlns="http://www.w3.org/2000/svg" width="1068" height="234">
<path d="M0 0 C2 3 2 3 1.84765625 5.453125 C-1.1397858 14.42921816 -13.73635244 19.77987365 -21.68554688 23.85009766 C-76.61978782 51.14337559 -146.12953055 56.71179995 -206.75 59.875 C-207.74378662 59.93655273 -208.73757324 59.99810547 -209.76147461 60.06152344 C-223.44908291 60.62944478 -235.43262138 54.45079611 -246 46.0625 C-250.97867322 41.46291357 -255.69251436 35.1510561 -256.203125 28.2578125 C-256.21859375 27.22398438 -256.2340625 26.19015625 -256.25 25.125 C-256.28867187 23.58199219 -256.28867187 23.58199219 -256.328125 22.0078125 C-255.88337383 17.93092674 -254.53034069 15.28696121 -251.37890625 12.63671875 C-241.09046379 7.26017785 -229.16299196 10.38942201 -218.28039551 12.39318848 C-215.16865588 12.96536479 -212.05268454 13.51268413 -208.93682861 14.06192017 C-206.65342712 14.46488218 -204.37063836 14.87118528 -202.08789062 15.27783203 C-178.57060091 19.44957947 -155.20024102 21.39794451 -131.3125 21.3125 C-129.75017136 21.31026428 -129.75017136 21.31026428 -128.15628052 21.3079834 C-111.59361791 21.2655609 -95.3920062 20.54418997 -79 18 C-77.99340332 17.85014648 -76.98680664 17.70029297 -75.94970703 17.54589844 C-53.55214065 14.15657996 -31.72337982 8.60762516 -10.6328125 0.28125 C-6.51610187 -1.17066515 -4.18136051 -1.17078094 0 0 Z " fill="#029490" transform="translate(256,36)"/>
<path d="M0 0 C61.78958785 0 61.78958785 0 72 9 C77.35193107 15.29167057 80.58728071 22.20663042 80.30859375 30.6328125 C79.09148508 39.96911447 76.15222816 47.73987771 69 54 C67.04501138 55.50153393 65.13310987 56.75135032 63 58 C63.72445312 58.37511719 64.44890625 58.75023437 65.1953125 59.13671875 C73.34748611 63.45193598 80.05100359 67.04746728 84.08203125 75.72265625 C86.42185721 84.07633275 86.7004197 95.04438736 83.4375 103.1875 C75.82681834 116.59933061 65.78491596 120.7757383 51 125 C34.17 125 17.34 125 0 125 C0 83.75 0 42.5 0 0 Z M26 16 C26 27.55 26 39.1 26 51 C40.24833645 52.16511766 40.24833645 52.16511766 49.64453125 45.4375 C54.14725058 39.8956916 54.64777282 34.97239109 54 28 C52.38415433 22.81228494 50.60939542 19.92303124 46 17 C39.52430386 15.38107596 32.6749948 16 26 16 Z M26 68 C26 81.53 26 95.06 26 109 C41.41410126 109.29739865 41.41410126 109.29739865 53.9375 102.8125 C58.61297171 96.43685676 59.59187324 90.29687491 58.5703125 82.515625 C57.44115301 77.53494889 55.09650656 74.87720525 51.1875 71.75 C42.51264795 66.98733613 36.32799883 68 26 68 Z " fill="#221E1F" transform="translate(693,63)"/>
<path d="M0 0 C7.92 0 15.84 0 24 0 C25 1 25 1 25.12025452 2.94252014 C25.1169236 4.21826149 25.1169236 4.21826149 25.11352539 5.51977539 C25.11340454 6.49418579 25.11328369 7.46859619 25.11315918 8.47253418 C25.10548523 10.0194696 25.10548523 10.0194696 25.09765625 11.59765625 C25.09664917 12.54024292 25.09564209 13.48282959 25.09460449 14.45397949 C25.08935477 17.99016529 25.07539364 21.52633381 25.0625 25.0625 C25.041875 32.961875 25.02125 40.86125 25 49 C41.17 49 57.34 49 74 49 C74 32.83 74 16.66 74 0 C80.1565625 -0.0309375 80.1565625 -0.0309375 86.4375 -0.0625 C88.38160767 -0.07615601 88.38160767 -0.07615601 90.36499023 -0.09008789 C91.37762939 -0.09258545 92.39026855 -0.09508301 93.43359375 -0.09765625 C94.47572021 -0.10289307 95.51784668 -0.10812988 96.59155273 -0.11352539 C99 0 99 0 100 1 C100.09603022 2.6195634 100.12187855 4.24333083 100.12025452 5.86573792 C100.12231651 7.4454538 100.12231651 7.4454538 100.12442017 9.05708313 C100.11902725 10.80495369 100.11902725 10.80495369 100.11352539 12.58813477 C100.11367142 13.80747711 100.11381744 15.02681946 100.1139679 16.28311157 C100.11338893 19.63627511 100.10835968 22.98937774 100.10139394 26.34253049 C100.09515983 29.84325562 100.09455656 33.34398148 100.09336853 36.8447113 C100.09025538 43.47809656 100.08204222 50.11146541 100.07201904 56.74484342 C100.06085739 64.29490207 100.05534732 71.84496149 100.05032361 79.39502633 C100.03985959 94.93002868 100.02151432 110.46500843 100 126 C91.42 126 82.84 126 74 126 C74 106.2 74 86.4 74 66 C57.83 66 41.66 66 25 66 C25 85.8 25 105.6 25 126 C16.75 126 8.5 126 0 126 C0 84.42 0 42.84 0 0 Z " fill="#221E1F" transform="translate(268,62)"/>
<path d="M0 0 C0.9075 0.9075 1.815 1.815 2.75 2.75 C2.75 3.41 2.75 4.07 2.75 4.75 C3.41 4.75 4.07 4.75 4.75 4.75 C15.84080129 19.52882678 18.02717346 34.71390178 16.125 52.6875 C14.1402232 66.48240256 9.62737564 80.13932024 3.75 92.75 C3.36199219 93.59433594 2.97398437 94.43867188 2.57421875 95.30859375 C-2.57619014 106.06237909 -9.11881402 117.99587601 -19.25 124.75 C-22.3125 125 -22.3125 125 -25.25 124.75 C-26.24 123.76 -26.24 123.76 -27.25 122.75 C-26.90450815 115.79179415 -25.22941775 109.37666981 -23.375 102.6875 C-19.03683739 86.5347944 -16.23550206 70.88356406 -16.0625 54.125 C-16.04936768 53.33697998 -16.03623535 52.54895996 -16.02270508 51.73706055 C-16.01231474 44.0809835 -16.93898743 37.21651886 -21.25 30.75 C-21.25 30.09 -21.25 29.43 -21.25 28.75 C-27.26304777 26.21388461 -30.92964795 25.22185918 -37.25 27.75 C-38.24 28.08 -39.23 28.41 -40.25 28.75 C-44.0320936 35.27384333 -43.548686 42.79421012 -43.3125 50.0625 C-43.25248791 52.18335265 -43.20133368 54.30447933 -43.16015625 56.42578125 C-43.13058838 57.35302002 -43.10102051 58.28025879 -43.07055664 59.2355957 C-43.33693549 62.96816136 -44.43053023 65.00983375 -47.1875 67.5 C-51.91604435 69.4300181 -56.22520852 69.59568721 -61.25 68.75 C-67.82132291 65.82448693 -71.65417946 60.28985794 -74.25 53.75 C-75.9518481 48.03537323 -76.60732456 42.88635977 -76.5625 36.9375 C-76.55686035 36.14778809 -76.5512207 35.35807617 -76.54541016 34.54443359 C-76.31214763 23.26699868 -72.56633955 14.6084549 -67.25 4.75 C-66.59 4.75 -65.93 4.75 -65.25 4.75 C-65.0128125 4.1621875 -64.775625 3.574375 -64.53125 2.96875 C-60.46608522 -4.0709256 -50.7109646 -7.94457461 -43.25 -10.25 C-27.76798989 -13.5675736 -12.28345915 -10.12454814 0 0 Z " fill="#02948F" transform="translate(153.25,109.25)"/>
<path d="M0 0 C7.92 0 15.84 0 24 0 C24.33 21.78 24.66 43.56 25 66 C27.31 63.36 29.62 60.72 32 58 C34.31954375 55.42431031 36.65033613 52.85942118 38.984375 50.296875 C41.01426526 48.06085025 41.01426526 48.06085025 42.640625 45.703125 C43.08921875 45.14109375 43.5378125 44.5790625 44 44 C44.66 44 45.32 44 46 44 C46.226875 43.443125 46.45375 42.88625 46.6875 42.3125 C49.84553702 36.74833954 49.84553702 36.74833954 53 35 C57.44933129 34.36885398 61.83015286 34.53077458 66.3125 34.6875 C67.53001953 34.71005859 68.74753906 34.73261719 70.00195312 34.75585938 C73.00255482 34.8146947 76.00064797 34.8968586 79 35 C72.46143708 43.78203071 72.46143708 43.78203071 69.75 47 C69.27046875 47.5775 68.7909375 48.155 68.296875 48.75 C67 50 67 50 65 50 C64.73501709 50.58716797 64.47003418 51.17433594 64.19702148 51.77929688 C62.96209068 54.07032901 61.64260112 55.65555468 59.84765625 57.53125 C59.23599609 58.17707031 58.62433594 58.82289062 57.99414062 59.48828125 C57.35669922 60.15214844 56.71925781 60.81601563 56.0625 61.5 C54.80158608 62.82120177 53.5424139 64.14406844 52.28515625 65.46875 C51.72707275 66.05076172 51.16898926 66.63277344 50.59399414 67.23242188 C48.92578085 69.01414587 48.92578085 69.01414587 47.41967773 71.22070312 C46.95118408 71.80787109 46.48269043 72.39503906 46 73 C45.34 73 44.68 73 44 73 C44 77.82797518 45.73457202 79.93276915 48.5 83.625 C48.95777832 84.25035645 49.41555664 84.87571289 49.88720703 85.52001953 C53.08261582 89.85513525 56.40846245 94.07367711 59.80859375 98.25 C64.18304182 103.73950347 68.331941 109.40275074 72.52490234 115.03125 C73.92858261 116.90468225 75.34563978 118.76690128 76.76953125 120.625 C77.19049072 121.17687988 77.6114502 121.72875977 78.04516602 122.29736328 C79.17831908 123.78113939 80.315585 125.26177196 81.453125 126.7421875 C83 129 83 129 83 131 C78.60466852 131.17443566 74.21022734 131.28090701 69.8125 131.375 C68.56662109 131.42527344 67.32074219 131.47554687 66.03710938 131.52734375 C57.02969354 131.67223516 57.02969354 131.67223516 54.02099609 129.70800781 C52.19744349 127.59178628 51 125.85098689 51 123 C50.34 123 49.68 123 49 123 C47.546875 121.2265625 47.546875 121.2265625 45.75 118.625 C41.27403611 112.29919125 36.5305702 106.20494232 31.74902344 100.10791016 C31.16411133 99.3607373 30.57919922 98.61356445 29.9765625 97.84375 C29.45143066 97.17537109 28.92629883 96.50699219 28.38525391 95.81835938 C27.19574451 94.25694486 26.08881699 92.63322548 25 91 C24.67 104.2 24.34 117.4 24 131 C16.08 131 8.16 131 0 131 C0 87.77 0 44.54 0 0 Z " fill="#221E1F" transform="translate(985,57)"/>
<path d="M0 0 C8.03523598 7.62405119 10.91112363 16.15979482 11.24414062 27.09155273 C11.27194199 29.22239577 11.29038308 31.35337598 11.30078125 33.484375 C11.31540405 34.62431412 11.33002686 35.76425323 11.34509277 36.93873596 C11.39130819 40.55938262 11.42566559 44.17997741 11.45703125 47.80078125 C11.49841026 52.57050796 11.55215069 57.33986498 11.61328125 62.109375 C11.6211969 63.72857094 11.6211969 63.72857094 11.62927246 65.38047791 C11.71464323 71.94380426 12.46929508 77.97803739 13.95703125 84.36328125 C14.29509805 86.02899423 14.62965689 87.69543386 14.95703125 89.36328125 C11.04092641 89.53754881 7.12581628 89.6441228 3.20703125 89.73828125 C2.09585938 89.78855469 0.9846875 89.83882813 -0.16015625 89.890625 C-8.22370441 90.03635177 -8.22370441 90.03635177 -10.70117188 88.00097656 C-11.80859375 86.33984375 -11.80859375 86.33984375 -13.04296875 83.36328125 C-13.70296875 83.96140625 -14.36296875 84.55953125 -15.04296875 85.17578125 C-23.90007467 91.63408765 -34.4150755 92.03730393 -45.04296875 91.36328125 C-53.45168368 89.56235963 -60.22016431 84.35053708 -65.04296875 77.36328125 C-68.40351667 70.50216258 -69.01581313 61.28586912 -67.29296875 53.86328125 C-63.42798464 43.04132574 -58.09720353 37.57891554 -48.04296875 32.36328125 C-37.51599938 27.67911092 -25.37948705 27.87369321 -14.04296875 27.36328125 C-14.85667083 19.7994522 -14.85667083 19.7994522 -18.48046875 13.30078125 C-24.70344439 8.59560455 -29.35950128 8.53013418 -37.04296875 9.36328125 C-43.66593885 11.30303095 -48.68797787 14.07195294 -54.04296875 18.36328125 C-54.70296875 18.36328125 -55.36296875 18.36328125 -56.04296875 18.36328125 C-56.04296875 19.02328125 -56.04296875 19.68328125 -56.04296875 20.36328125 C-56.70296875 20.36328125 -57.36296875 20.36328125 -58.04296875 20.36328125 C-58.7421518 17.78260562 -59.42757924 15.19955278 -60.10546875 12.61328125 C-60.30462891 11.88367188 -60.50378906 11.1540625 -60.70898438 10.40234375 C-62.40381149 3.86090575 -62.40381149 3.86090575 -61.04296875 0.36328125 C-43.82665547 -11.35846396 -16.90730803 -13.54524295 0 0 Z M-38.04296875 49.36328125 C-41.22131777 53.0118962 -43.32405353 56.59165649 -43.60546875 61.48828125 C-42.82606955 66.85747575 -40.87901232 69.68924152 -36.91796875 73.30078125 C-32.45557328 74.9499274 -28.59784037 74.62812859 -24.04296875 73.36328125 C-18.94051859 70.60776813 -16.22222181 66.84078503 -14.53125 61.36328125 C-13.06082354 55.34041447 -12.91730444 49.52083248 -13.04296875 43.36328125 C-21.84807097 43.20628091 -30.90983655 43.83146444 -38.04296875 49.36328125 Z " fill="#221E1F" transform="translate(640.04296875,98.63671875)"/>
<path d="M0 0 C6.57817572 6.72767971 9.82387114 13.6806048 9.92358398 23.05493164 C9.93707382 24.07692154 9.95056366 25.09891144 9.96446228 26.15187073 C9.98011986 27.79565956 9.98011986 27.79565956 9.99609375 29.47265625 C10.02905057 31.81706077 10.06226189 34.16146172 10.09570312 36.50585938 C10.14293272 40.1831604 10.18734385 43.86044893 10.22680664 47.5378418 C10.26687494 51.09960165 10.31834899 54.66106455 10.37109375 58.22265625 C10.3795079 59.30434586 10.38792206 60.38603546 10.39659119 61.50050354 C10.51255338 68.77552587 11.40357556 75.66974571 12.75 82.8125 C13.08723371 84.81184603 13.4216003 86.81168398 13.75 88.8125 C10.00058747 88.98682891 6.25221491 89.09335841 2.5 89.1875 C1.43652344 89.23777344 0.37304688 89.28804688 -0.72265625 89.33984375 C-8.44617527 89.48557052 -8.44617527 89.48557052 -10.87695312 87.45019531 C-11.984375 85.7890625 -11.984375 85.7890625 -13.25 82.8125 C-13.8790625 83.22242188 -14.508125 83.63234375 -15.15625 84.0546875 C-25.63770853 90.65295507 -35.48288632 92.4354343 -47.8359375 90.3828125 C-55.51735437 88.19967297 -62.13747845 83.32116198 -66.3125 76.5 C-69.86370808 68.42007361 -69.71190519 58.13705378 -67.3984375 49.7109375 C-63.27857019 40.65843995 -56.26185597 34.49021283 -47.14453125 30.7734375 C-36.58076802 27.26643918 -25.27699185 27.2780841 -14.25 26.8125 C-14.64859561 24.89199388 -15.06965926 22.97614288 -15.5 21.0625 C-15.84804688 19.46148437 -15.84804688 19.46148437 -16.203125 17.828125 C-17.60548833 13.78848137 -19.58911682 11.88414869 -23.1328125 9.59765625 C-29.16455342 7.36079292 -36.12155359 7.75047575 -42.00390625 10.23828125 C-47.72242633 12.95686061 -53.02783038 16.25228783 -58.25 19.8125 C-60.4327846 16.13023729 -61.1058404 12.21439215 -61.875 8.0625 C-62.07609375 7.01642578 -62.07609375 7.01642578 -62.28125 5.94921875 C-62.60943264 4.23798068 -62.93043502 2.52536829 -63.25 0.8125 C-43.41065026 -11.9857444 -19.93088211 -13.41501681 0 0 Z M-40.5625 50.6875 C-43.56109626 54.46351011 -44.3146523 57.58410623 -44.0625 62.375 C-42.97829275 66.96203069 -41.68907206 69.65324751 -38 72.625 C-33.1745016 74.70873795 -29.49300853 74.21279088 -24.5625 72.625 C-19.94189713 70.0967456 -17.17514612 66.69940937 -15.25 61.8125 C-14.36950908 57.46664839 -14.14230634 53.36647876 -14.1875 48.9375 C-14.19652344 47.78507812 -14.20554687 46.63265625 -14.21484375 45.4453125 C-14.22644531 44.57648438 -14.23804688 43.70765625 -14.25 42.8125 C-24.3886205 42.63384589 -32.59425801 44.22676325 -40.5625 50.6875 Z " fill="#221E1F" transform="translate(857.25,99.1875)"/>
<path d="M0 0 C9.20907644 6.67821324 13.34802155 15.58816249 15.203125 26.59765625 C15.28856458 28.80506774 15.32087422 31.01481661 15.31665039 33.22387695 C15.31679642 33.86834274 15.31694244 34.51280853 15.3170929 35.17680359 C15.31640006 37.29238329 15.30863731 39.40787331 15.30078125 41.5234375 C15.29891483 42.99602714 15.29749199 44.4686174 15.29649353 45.94120789 C15.29268596 49.80618013 15.28287079 53.67111445 15.27178955 57.53607178 C15.2615375 61.48432909 15.25698779 65.43259257 15.25195312 69.38085938 C15.24124687 77.11981091 15.22366441 84.85872342 15.203125 92.59765625 C6.953125 92.59765625 -1.296875 92.59765625 -9.796875 92.59765625 C-9.81145752 90.665271 -9.82604004 88.73288574 -9.84106445 86.74194336 C-9.89282181 80.339637 -9.95813608 73.93757975 -10.03258991 67.53549862 C-10.07721599 63.65592994 -10.11648879 59.77646438 -10.14331055 55.89672852 C-10.16942159 52.14881272 -10.20987799 48.40129544 -10.26006126 44.6536274 C-10.27667752 43.22763611 -10.28822434 41.80157597 -10.29448891 40.37550163 C-10.34227769 30.49214792 -10.5974062 23.00282415 -17.796875 15.59765625 C-22.23557292 12.73716204 -25.5515309 11.96459748 -30.796875 12.59765625 C-35.21828214 14.23462006 -38.14654338 15.62215883 -40.796875 19.59765625 C-41.456875 19.59765625 -42.116875 19.59765625 -42.796875 19.59765625 C-45.31787338 28.83107122 -46.25958457 37.44080414 -46.30859375 46.9921875 C-46.32654495 48.30555588 -46.34449615 49.61892426 -46.36299133 50.97209167 C-46.4099065 54.41601719 -46.44008966 57.85988003 -46.46643066 61.30401611 C-46.49653657 64.83756909 -46.5429611 68.37090681 -46.58789062 71.90429688 C-46.67325542 78.80197364 -46.73937872 85.69969135 -46.796875 92.59765625 C-54.716875 92.59765625 -62.636875 92.59765625 -70.796875 92.59765625 C-70.796875 60.91765625 -70.796875 29.23765625 -70.796875 -3.40234375 C-62.876875 -3.40234375 -54.956875 -3.40234375 -46.796875 -3.40234375 C-46.466875 -1.42234375 -46.136875 0.55765625 -45.796875 2.59765625 C-44.7759375 1.70046875 -44.7759375 1.70046875 -43.734375 0.78515625 C-31.42650036 -8.38028231 -12.89873226 -7.73472931 0 0 Z " fill="#221E1F" transform="translate(545.796875,95.40234375)"/>
<path d="M0 0 C5.45514384 4.90257539 9.36661726 11.38625157 10.37237549 18.7124939 C10.52218953 21.73499052 10.55364451 24.73557368 10.5390625 27.76171875 C10.55085541 28.86997513 10.56264832 29.97823151 10.57479858 31.12007141 C10.60988188 34.64269161 10.61920317 38.16471994 10.625 41.6875 C10.60535844 65.59905148 10.60535844 65.59905148 15 89 C7.08 89 -0.84 89 -9 89 C-9.99 87.02 -10.98 85.04 -12 83 C-12.61746094 83.40992188 -13.23492187 83.81984375 -13.87109375 84.2421875 C-24.59354291 91.06408057 -34.8863858 92.4270744 -47.546875 90.640625 C-54.31075136 88.86570709 -59.44816187 84.15162908 -64 79 C-68.55234694 71.14153684 -69.17681622 62.38273203 -67.5390625 53.5 C-64.92816827 44.65367602 -59.05585529 37.46661283 -51 33 C-39.4692783 28.1179117 -26.43630211 26.80517542 -14 27 C-15.32272942 17.52088519 -15.32272942 17.52088519 -21.1953125 10.40625 C-26.53504071 7.72894895 -32.19185083 8.24108483 -38 9 C-42.31937987 10.53350765 -46.10371077 12.60271542 -50 15 C-50.83273437 15.49886719 -51.66546875 15.99773437 -52.5234375 16.51171875 C-54.36930185 17.64190587 -56.18848023 18.81554476 -58 20 C-58.67668949 17.79471728 -59.34093498 15.58561391 -60 13.375 C-60.37125 12.14523438 -60.7425 10.91546875 -61.125 9.6484375 C-61.93727719 6.26153174 -62.17041013 3.46145571 -62 0 C-42.29466328 -10.21608645 -19.05838578 -14.46395349 0 0 Z M-40 51 C-43.51521235 54.83477711 -43.32380476 58.61690459 -43.30078125 63.59765625 C-42.78169209 67.74362811 -41.50992849 69.57308312 -38.3125 72.25 C-34.40458271 74.31456008 -32.36615646 74.53619465 -28 74 C-21.40786366 71.95416459 -18.0669929 68.92657128 -14.87109375 62.85546875 C-13.67159281 58.92347239 -13.78600973 55.27078421 -13.875 51.1875 C-13.88402344 50.39923828 -13.89304687 49.61097656 -13.90234375 48.79882812 C-13.92577496 46.86575334 -13.96164162 44.9328362 -14 43 C-24.09580493 42.85218441 -32.17396029 44.28475303 -40 51 Z " fill="#221E1F" transform="translate(448,99)"/>
<path d="M0 0 C6.66935053 5.69370318 10.45126499 14.20508208 11.43643188 22.81359863 C11.63591716 27.11134252 11.56423539 31.40305491 11.48828125 35.703125 C11.47893205 37.27780015 11.47182593 38.85249004 11.46684265 40.42718506 C11.447938 44.53083913 11.39898551 48.63357938 11.34332275 52.73687744 C11.29176839 56.9403447 11.26925215 61.14396259 11.24414062 65.34765625 C11.19084564 73.56556608 11.10305089 81.78256337 11 90 C3.08 90 -4.84 90 -13 90 C-13.01458252 88.10314453 -13.02916504 86.20628906 -13.04418945 84.25195312 C-13.09598496 77.96141054 -13.16130918 71.67112022 -13.23571491 65.38080597 C-13.28030639 61.56964767 -13.31958655 57.75859349 -13.34643555 53.94726562 C-13.37258145 50.26418114 -13.41306173 46.58149981 -13.46318626 42.89866638 C-13.47977917 41.49862205 -13.49134039 40.09850811 -13.49761391 38.69837952 C-13.54568472 28.94981217 -13.70331216 20.29668784 -21 13 C-25.45982092 10.06057257 -29.73224812 8.97214598 -35 10 C-40.63096115 12.24822109 -43.99003787 15.72253709 -47.08984375 20.83984375 C-49.03074823 25.44636812 -49.13358074 30.34084518 -49.20532227 35.28076172 C-49.22526749 36.5015744 -49.24521271 37.72238708 -49.26576233 38.98019409 C-49.28247482 40.28352692 -49.29918732 41.58685974 -49.31640625 42.9296875 C-49.33700243 44.28875319 -49.35799955 45.64781286 -49.37937927 47.00686646 C-49.43432513 50.56761774 -49.48385447 54.12842417 -49.53222656 57.68927002 C-49.58264353 61.32935438 -49.63822371 64.96935959 -49.69335938 68.609375 C-49.80060425 75.73951586 -49.90164491 82.86973017 -50 90 C-57.92 90 -65.84 90 -74 90 C-74 58.32 -74 26.64 -74 -6 C-66.08 -6 -58.16 -6 -50 -6 C-49.67 -4.02 -49.34 -2.04 -49 0 C-48.443125 -0.40992187 -47.88625 -0.81984375 -47.3125 -1.2421875 C-32.75183928 -11.52319456 -14.22821161 -10.4647768 0 0 Z " fill="#221E20" transform="translate(958,98)"/>
<path d="M0 0 C0.75023438 -0.01611328 1.50046875 -0.03222656 2.2734375 -0.04882812 C5.48890477 -0.05167872 7.94269261 0.09256619 10.83203125 1.5625 C12.65571104 3.63087606 13.03043188 4.91589145 13.4375 7.625 C13.98587094 10.6929131 14.48535925 12.51624016 16 15.3125 C18.47490715 20.71229741 17.97512079 25.51213763 16.125 31.0625 C12.29543444 38.17455032 8.07311669 41.7464611 0.375 44.3125 C-7.50454752 45.32455197 -12.89424566 43.3223111 -19.625 39.3125 C-19.625 38.6525 -19.625 37.9925 -19.625 37.3125 C-20.285 37.3125 -20.945 37.3125 -21.625 37.3125 C-22.27334654 36.042947 -22.91857815 34.77180294 -23.5625 33.5 C-23.92214844 32.79230469 -24.28179687 32.08460937 -24.65234375 31.35546875 C-27.60109651 25.16190372 -27.29799294 19.534171 -25.125 13.1875 C-22.41416406 6.93911928 -18.07918634 3.75670722 -11.90625 1.17578125 C-7.8602035 0.11128568 -4.16375733 -0.01807186 0 0 Z " fill="#EA1751" transform="translate(126.625,-0.3125)"/>
<path d="M0 0 C-2.48748078 1.29349001 -4.95588754 2.38570901 -7.5625 3.4375 C-10.9320254 4.71464853 -10.9320254 4.71464853 -12.6875 6.75 C-13.120625 7.1625 -13.55375 7.575 -14 8 C-14.57105469 7.85304688 -15.14210937 7.70609375 -15.73046875 7.5546875 C-18.51468736 6.87420722 -20.77832223 7.09109952 -23.625 7.375 C-24.58664063 7.46523438 -25.54828125 7.55546875 -26.5390625 7.6484375 C-28.99835298 7.86741492 -28.99835298 7.86741492 -31 9 C-33.04055005 9.07065617 -35.08334257 9.08421976 -37.125 9.0625 C-38.22070312 9.05347656 -39.31640625 9.04445313 -40.4453125 9.03515625 C-41.70988281 9.01775391 -41.70988281 9.01775391 -43 9 C-43 8.67 -43 8.34 -43 8 C-42.38181396 7.89977539 -41.76362793 7.79955078 -41.12670898 7.69628906 C-29.91357434 5.86056103 -18.86176097 3.9771829 -7.9609375 0.734375 C-5.16772335 0.04159893 -2.860984 -0.1488988 0 0 Z " fill="#148D87" transform="translate(220,46)"/>
<path d="M0 0 C0.33 0 0.66 0 1 0 C1.05423638 1.91635217 1.09289963 3.83314925 1.125 5.75 C1.14820312 6.81734375 1.17140625 7.8846875 1.1953125 8.984375 C0.93437666 13.01322433 0.04134915 15.05942658 -2.9375 17.75 C-7.66604435 19.6800181 -11.97520852 19.84568721 -17 19 C-23.01095922 16.32395745 -26.23151135 11.69953651 -29.28515625 6.05078125 C-30 4 -30 4 -29 1 C-28.731875 1.598125 -28.46375 2.19625 -28.1875 2.8125 C-27.12703272 5.0299713 -27.12703272 5.0299713 -25.4375 6.5 C-24 8 -24 8 -23.5625 10.0625 C-23.1924004 12.17916755 -23.1924004 12.17916755 -21.125 13.0625 C-20.42375 13.371875 -19.7225 13.68125 -19 14 C-18.55398437 14.50917969 -18.10796875 15.01835937 -17.6484375 15.54296875 C-15.49844884 17.44331418 -14.32742848 17.34424762 -11.5 17.25 C-10.7265625 17.23453125 -9.953125 17.2190625 -9.15625 17.203125 C-6.8177193 17.06471705 -6.8177193 17.06471705 -4 16 C-4 15.34 -4 14.68 -4 14 C-3.27876953 13.37158203 -3.27876953 13.37158203 -2.54296875 12.73046875 C-0.40227725 10.32964259 -0.49898627 8.48276666 -0.3125 5.3125 C-0.24675781 4.31863281 -0.18101563 3.32476562 -0.11328125 2.30078125 C-0.07589844 1.54152344 -0.03851563 0.78226563 0 0 Z " fill="#1B8983" transform="translate(109,159)"/>
<path d="M0 0 C2.64 0.66 5.28 1.32 8 2 C4.74884577 5.25115423 0.40081414 5.90084019 -3.9375 7.1875 C-4.85724609 7.47302734 -5.77699219 7.75855469 -6.72460938 8.05273438 C-7.60826172 8.31763672 -8.49191406 8.58253906 -9.40234375 8.85546875 C-10.21179443 9.09934326 -11.02124512 9.34321777 -11.85522461 9.59448242 C-14 10 -14 10 -17 9 C-11.87674471 6.54510684 -7.66104589 5.49658297 -2 5 C-2 4.34 -2 3.68 -2 3 C-1.34 3 -0.68 3 0 3 C0 2.01 0 1.02 0 0 Z " fill="#1C8B85" transform="translate(205,66)"/>
<path d="M0 0 C0.33 0 0.66 0 1 0 C2.125 6.625 2.125 6.625 1 10 C0.34 10 -0.32 10 -1 10 C-0.95875 11.0725 -0.9175 12.145 -0.875 13.25 C-0.9885825 16.65747485 -1.21273364 18.20739631 -3 21 C-4.52018673 16.15261213 -3.36863709 12.41749161 -2.0625 7.6875 C-1.86720703 6.94693359 -1.67191406 6.20636719 -1.47070312 5.44335938 C-0.9900719 3.62633887 -0.49633486 1.81279386 0 0 Z " fill="#1D8A82" transform="translate(130,212)"/>
<path d="M0 0 C1.31538327 4.15771494 0.34433068 6.8879297 -1 11 C-1.99 11 -2.98 11 -4 11 C-4.12375 12.11375 -4.2475 13.2275 -4.375 14.375 C-5 18 -5 18 -7 20 C-6.70544888 12.34167083 -3.62827658 6.65738822 0 0 Z " fill="#178B88" transform="translate(85,116)"/>
<path d="M0 0 C0 0.33 0 0.66 0 1 C-0.90363281 1.25394531 -1.80726562 1.50789063 -2.73828125 1.76953125 C-3.91777344 2.11371094 -5.09726563 2.45789063 -6.3125 2.8125 C-7.48425781 3.14894531 -8.65601562 3.48539062 -9.86328125 3.83203125 C-12.87392632 4.953056 -13.91650517 5.71807709 -16 8 C-18.30988315 8.74386068 -20.64315944 9.42190703 -23 10 C-17.49421709 3.11777136 -8.73723873 -0.45574271 0 0 Z " fill="#198C86" transform="translate(116,99)"/>
<path d="M0 0 C0.66 0.99 1.32 1.98 2 3 C2.9075 2.62875 3.815 2.2575 4.75 1.875 C8 1 8 1 10.375 1.875 C10.91125 2.24625 11.4475 2.6175 12 3 C3.16299559 5.54625551 3.16299559 5.54625551 -1 4 C-2.8125 2.4375 -2.8125 2.4375 -4 1 C-2 0 -2 0 0 0 Z " fill="#12918B" transform="translate(175,74)"/>
<path d="M0 0 C0.33 1.65 0.66 3.3 1 5 C0.34 5 -0.32 5 -1 5 C-1 4.01 -1 3.02 -1 2 C-3.97 2.66 -6.94 3.32 -10 4 C-4.75 -1.425 -4.75 -1.425 0 0 Z " fill="#DE2054" transform="translate(118,2)"/>
<path d="M0 0 C0.33 0 0.66 0 1 0 C1.42501659 4.67518253 -0.14264011 7.76521945 -2 12 C-2.39764263 13.98821313 -2.75455166 15.98732362 -3 18 C-3.33 18 -3.66 18 -4 18 C-4.51137226 11.09647445 -2.86964374 6.25172386 0 0 Z " fill="#CC2657" transform="translate(104,8)"/>
<path d="M0 0 C3.96 0.99 3.96 0.99 8 2 C4.99382731 5.00617269 2.17618402 4.59585316 -2 5 C-2 4.34 -2 3.68 -2 3 C-1.34 3 -0.68 3 0 3 C0 2.01 0 1.02 0 0 Z " fill="#118E8B" transform="translate(205,66)"/>
<path d="M0 0 C0.66 0.33 1.32 0.66 2 1 C2.73075648 3.3140622 3.40138258 5.64828869 4 8 C1.5625 7.1875 1.5625 7.1875 -1 6 C-1.33 5.01 -1.66 4.02 -2 3 C-1.34 3 -0.68 3 0 3 C0 2.01 0 1.02 0 0 Z " fill="#0F8D8A" transform="translate(163,124)"/>
<path d="M0 0 C0.66 0.33 1.32 0.66 2 1 C-1.625 5.875 -1.625 5.875 -5 7 C-4.60196439 4.11424181 -4.20990931 3.17810487 -1.9375 1.25 C-1.298125 0.8375 -0.65875 0.425 0 0 Z " fill="#1B8884" transform="translate(6,48)"/>
<path d="M0 0 C-0.33 0.99 -0.66 1.98 -1 3 C-1.969375 3.144375 -2.93875 3.28875 -3.9375 3.4375 C-6.86486773 3.67562341 -6.86486773 3.67562341 -8 5 C-9.66617115 5.04063832 -11.33388095 5.042721 -13 5 C-10.79970166 2.79970166 -9.4218744 2.31417391 -6.5 1.375 C-5.30890625 0.98441406 -5.30890625 0.98441406 -4.09375 0.5859375 C-2 0 -2 0 0 0 Z " fill="#1B8783" transform="translate(240,39)"/>
<path d="M0 0 C0.33 0 0.66 0 1 0 C2.125 6.625 2.125 6.625 1 10 C0.34 10 -0.32 10 -1 10 C-1.125 3.375 -1.125 3.375 0 0 Z " fill="#128C86" transform="translate(130,212)"/>
<path d="M0 0 C1.4540625 0.0309375 1.4540625 0.0309375 2.9375 0.0625 C0.24908141 2.31495881 -1.70891875 3.94463958 -5.0625 5.0625 C-3.9375 0.08035714 -3.9375 0.08035714 0 0 Z " fill="#138A88" transform="translate(245.0625,50.9375)"/>
<path d="M0 0 C0.598125 0.185625 1.19625 0.37125 1.8125 0.5625 C4.16408762 1.22093687 4.16408762 1.22093687 7 0 C6 3 6 3 3.9375 4.1875 C3.298125 4.455625 2.65875 4.72375 2 5 C1.34 3.35 0.68 1.7 0 0 Z " fill="#181717" transform="translate(797,114)"/>
</svg>
