<?xml version="1.0" encoding="UTF-8"?>
<svg version="1.1" xmlns="http://www.w3.org/2000/svg" width="924" height="270">
<path d="M0 0 C1.01642578 -0.02449219 2.03285156 -0.04898438 3.08007812 -0.07421875 C15.17160376 -0.12045785 26.82328296 4.32394285 35.6484375 12.71484375 C41.35855938 18.8482712 46.44465469 25.46760507 51.59765625 32.06640625 C52.4608747 33.16931999 53.32415178 34.27218784 54.1875 35.375 C54.88746094 36.27089844 55.58742188 37.16679688 56.30859375 38.08984375 C61.59369559 44.48088239 67.36595764 47.76781921 75.1875 50.375 C86.05098903 51.20246924 94.41463501 50.56610215 104.1875 45.375 C105.60590411 44.66103592 107.02524824 43.94893758 108.4453125 43.23828125 C117.06142801 38.86297356 125.38493914 34.1072761 133.625 29.0625 C145.02918196 22.08523009 156.38307012 15.6995283 170.1875 17.375 C174.91131344 19.11877686 179.01161541 21.59107694 183.1875 24.375 C183.1875 25.035 183.1875 25.695 183.1875 26.375 C183.8475 26.375 184.5075 26.375 185.1875 26.375 C186.9296875 28.25390625 186.9296875 28.25390625 189.0625 30.9375 C190.25359375 32.42830078 190.25359375 32.42830078 191.46875 33.94921875 C192.1184375 34.7697876 192.1184375 34.7697876 192.78125 35.60693359 C194.29028643 37.50423252 195.8155868 39.38760939 197.34375 41.26953125 C198.41690786 42.59615909 199.48982696 43.92298012 200.5625 45.25 C201.07409668 45.8797876 201.58569336 46.5095752 202.11279297 47.15844727 C209.1875 55.96489813 209.1875 55.96489813 209.1875 60.375 C208.18505249 60.9326001 208.18505249 60.9326001 207.16235352 61.50146484 C190.39355359 70.83271471 190.39355359 70.83271471 173.79980469 80.46972656 C163.95589984 86.30612718 154.0224079 91.9887673 144.10205078 97.69384766 C141.60333259 99.13514213 139.11035776 100.58543541 136.62109375 102.04296875 C135.661427 102.60153564 135.661427 102.60153564 134.68237305 103.17138672 C133.09359366 104.09660007 131.50758029 105.0265591 129.921875 105.95703125 C122.25830891 109.93113767 114.13028248 110.76289121 105.6953125 108.79296875 C93.43906189 104.0169565 85.47208236 92.09215837 77.59423828 82.1484375 C67.87032461 69.88975841 56.84319979 60.99225004 40.91796875 58.65625 C15.82873655 56.0719514 -5.12512135 67.32035368 -26.02636719 79.72460938 C-28.88708602 81.41918169 -31.75813342 83.09485502 -34.6328125 84.765625 C-42.85549563 89.54631733 -51.07241489 94.33508213 -59.24609375 99.19921875 C-60.30401123 99.82521973 -61.36192871 100.4512207 -62.4519043 101.09619141 C-64.45325666 102.28088645 -66.45112263 103.47150161 -68.44458008 104.66943359 C-78.30537613 110.49081542 -89.31731824 116.89676536 -101.15234375 115 C-110.42408592 112.46413889 -116.05203473 105.41621294 -121.71875 98.07421875 C-124.71961783 94.20556265 -127.88104283 90.47339234 -131.02734375 86.72265625 C-132.8125 84.375 -132.8125 84.375 -133.8125 81.375 C-134.8025 81.045 -135.7925 80.715 -136.8125 80.375 C-136.8125 79.715 -136.8125 79.055 -136.8125 78.375 C-137.36679687 78.12492187 -137.92109375 77.87484375 -138.4921875 77.6171875 C-141.21268668 76.16075865 -143.4958227 74.38642707 -145.9375 72.5 C-158.45558282 63.29110329 -172.26633541 61.89407889 -187.40625 63.8359375 C-207.10011331 67.67533746 -223.87578221 77.36766879 -240.91015625 87.48046875 C-248.98152277 92.26256364 -257.12353892 96.92370134 -265.2578125 101.59765625 C-269.47415962 104.02109391 -273.67666994 106.46578319 -277.8671875 108.93359375 C-278.80981445 109.48418457 -279.75244141 110.03477539 -280.72363281 110.60205078 C-282.47495568 111.62517877 -284.22205189 112.65559271 -285.96386719 113.69482422 C-295.41668892 119.18673967 -305.06769961 121.01219198 -315.8984375 118.72265625 C-331.98178141 113.90592215 -341.23995825 101.90743933 -351.09545898 89.10913086 C-353.69616859 85.73225198 -353.69616859 85.73225198 -356.6328125 82.65234375 C-357.8125 81.375 -357.8125 81.375 -357.8125 78.375 C-356.96993652 77.92398926 -356.96993652 77.92398926 -356.11035156 77.46386719 C-344.84071116 71.41529346 -333.68518193 65.24288898 -322.77636719 58.56152344 C-317.81188402 55.52943833 -312.77637134 52.68069548 -307.65844727 49.91552734 C-294.0905934 42.57117134 -280.68479074 34.92548042 -267.375 27.125 C-265.38555883 25.96459999 -263.39597859 24.80443836 -261.40625 23.64453125 C-257.89518233 21.59740636 -254.39690471 19.53090011 -250.90625 17.44921875 C-233.85644361 7.42768728 -215.48218526 1.5750373 -195.5546875 5.65234375 C-187.79409437 7.6975143 -180.6385879 10.67910401 -174.8125 16.375 C-174.8125 17.035 -174.8125 17.695 -174.8125 18.375 C-173.8225 18.705 -172.8325 19.035 -171.8125 19.375 C-170.07716106 21.38120659 -168.46939537 23.38661123 -166.875 25.5 C-166.39409912 26.11875 -165.91319824 26.7375 -165.41772461 27.375 C-162.84160127 30.69054689 -160.32105837 34.03977281 -157.84375 37.4296875 C-151.11991011 46.4597613 -144.40741179 53.20506377 -132.8125 55.375 C-130.62910341 55.54466521 -128.43948544 55.6410193 -126.25 55.6875 C-125.11433594 55.72488281 -123.97867188 55.76226562 -122.80859375 55.80078125 C-113.17510643 55.26531014 -104.59164831 49.80348765 -96.5625 44.9375 C-94.45268979 43.68213571 -92.34198933 42.42826656 -90.23046875 41.17578125 C-89.16618652 40.54236816 -88.1019043 39.90895508 -87.00537109 39.25634766 C-82.00180288 36.30807601 -76.94020023 33.46564491 -71.875 30.625 C-65.08929677 26.80893978 -58.32979602 22.9566668 -51.625 19 C-50.93712402 18.59467041 -50.24924805 18.18934082 -49.54052734 17.77172852 C-46.52430432 15.99061902 -43.51803982 14.19629554 -40.5234375 12.37890625 C-27.39971592 4.49449988 -15.33189885 0.01922495 0 0 Z " fill="#FEB702" transform="translate(714.8125,-0.375)"/>
<path d="M0 0 C3.71613538 3.74249095 7.07368826 7.61053238 10 12 C10.51046875 11.35933594 11.0209375 10.71867187 11.546875 10.05859375 C20.35920571 -0.42557985 30.80879011 -6.57436817 44.453125 -8.3125 C55.0542728 -8.85965602 66.02217554 -4.95834588 74 2 C86.98564618 15.25308512 87.30122916 33.39756855 87.1953125 50.6953125 C87.19157617 52.49705853 87.18873213 54.29880662 87.18673706 56.10055542 C87.17914942 60.8121515 87.15954347 65.52362167 87.1373291 70.23516846 C87.11676505 75.05519915 87.10771289 79.87525046 87.09765625 84.6953125 C87.07629237 94.13027218 87.04115065 103.56510585 87 113 C77.1 113 67.2 113 57 113 C56.97812622 109.77718262 56.97812622 109.77718262 56.95581055 106.48925781 C56.90521771 99.34859522 56.83858098 92.20814508 56.76428509 85.0676918 C56.71977265 80.74322667 56.68047581 76.41885161 56.65356445 72.09423828 C56.62733881 67.91190691 56.58680439 63.72992581 56.53681374 59.54781342 C56.52027404 57.96127467 56.50868021 56.37467552 56.50238609 54.78806305 C56.63679758 37.22008468 56.63679758 37.22008468 49 22 C43.80803256 18.20099944 38.18337077 18.24357057 32 19 C25.61487778 20.64282733 22.55376643 24.33133625 19.12890625 29.78125 C16.86627148 34.22822768 16.84014809 38.5003514 16.81054688 43.41479492 C16.80225357 44.1550441 16.79396027 44.89529327 16.78541565 45.65797424 C16.76805303 47.26104312 16.75287596 48.86413684 16.73963928 50.4672451 C16.71858035 53.00087932 16.69156337 55.53438778 16.66296387 58.06794739 C16.59319908 64.35649346 16.53361691 70.64512838 16.47393799 76.93377686 C16.42309067 82.25425502 16.36831228 87.5746634 16.30812073 92.89504433 C16.28147004 95.39730916 16.26070688 97.89958028 16.2401123 100.40190125 C16.22351829 101.9257336 16.20664725 103.44956297 16.18945312 104.97338867 C16.18526871 105.67416534 16.18108429 106.37494202 16.17677307 107.09695435 C16.1138518 111.8861482 16.1138518 111.8861482 15 113 C12.85441173 113.08775605 10.70595579 113.10695219 8.55859375 113.09765625 C7.25341797 113.09443359 5.94824219 113.09121094 4.60351562 113.08789062 C3.2148431 113.07953401 1.82617123 113.07106905 0.4375 113.0625 C-0.95507656 113.05748666 -2.34765481 113.05292347 -3.74023438 113.04882812 C-7.1601987 113.03699434 -10.58007844 113.0205088 -14 113 C-14.00586624 112.11209778 -14.01173248 111.22419556 -14.01777649 110.30938721 C-14.07595266 101.89531848 -14.14816977 93.48150819 -14.23571491 85.0676918 C-14.28022735 80.74322667 -14.31952419 76.41885161 -14.34643555 72.09423828 C-14.37266119 67.91190691 -14.41319561 63.72992581 -14.46318626 59.54781342 C-14.47972596 57.96127467 -14.49131979 56.37467552 -14.49761391 54.78806305 C-14.36320242 37.22008468 -14.36320242 37.22008468 -22 22 C-27.17362724 18.21441909 -32.83326144 18.21275678 -39 19 C-44.5695987 20.72370276 -47.56365589 23.30088706 -51 28 C-55.40925021 37.68775107 -55.60370283 47.60683643 -55.609375 58.01953125 C-55.6243939 59.61522569 -55.64112867 61.2109048 -55.65948486 62.80656433 C-55.70275518 66.96075239 -55.72306669 71.11473097 -55.73822021 75.269104 C-55.75793857 79.52653183 -55.79989078 83.78373812 -55.83984375 88.04101562 C-55.91470775 96.36061842 -55.96526252 104.68013323 -56 113 C-60.1117256 113.02465746 -64.22342278 113.04283959 -68.33520508 113.05493164 C-69.73495228 113.0599708 -71.1346942 113.06680216 -72.53442383 113.07543945 C-74.54245777 113.0875232 -76.55052957 113.09269807 -78.55859375 113.09765625 C-79.76829834 113.10289307 -80.97800293 113.10812988 -82.22436523 113.11352539 C-85 113 -85 113 -86 112 C-86.09578593 110.4818148 -86.12188147 108.95917604 -86.12025452 107.43797302 C-86.12162918 106.45214233 -86.12300385 105.46631165 -86.12442017 104.4506073 C-86.12082489 103.36016617 -86.11722961 102.26972504 -86.11352539 101.14624023 C-86.11367142 100.00492645 -86.11381744 98.86361267 -86.1139679 97.68771362 C-86.11326818 93.89465469 -86.10547307 90.10164416 -86.09765625 86.30859375 C-86.09579228 83.68685432 -86.09436828 81.06511454 -86.09336853 78.44337463 C-86.09025551 72.23498045 -86.08204252 66.02660379 -86.07201904 59.81821734 C-86.06085699 52.75182559 -86.05534722 45.68543301 -86.05032361 38.61903465 C-86.03985988 24.07934609 -86.02151476 9.53967652 -86 -5 C-77.42 -5 -68.84 -5 -60 -5 C-59.34 -0.05 -58.68 4.9 -58 10 C-57.030625 8.80375 -56.06125 7.6075 -55.0625 6.375 C-41.26561931 -9.34120482 -16.82437607 -13.72869088 0 0 Z " fill="#02396F" transform="translate(86,155)"/>
<path d="M0 0 C10.23 0 20.46 0 31 0 C31.33 54.45 31.66 108.9 32 165 C22.76 165 13.52 165 4 165 C3.67 160.38 3.34 155.76 3 151 C2.34 151 1.68 151 1 151 C0.360625 151.845625 -0.27875 152.69125 -0.9375 153.5625 C-6.69280125 160.7058445 -15.96880849 165.70653012 -25 167 C-40.02178794 168.25939536 -52.27810059 166.72943273 -64.46875 157.18359375 C-76.21155328 147.05361376 -83.53609942 133.54676769 -85 118 C-86.43143494 97.74917186 -84.21591821 78.32602066 -70.9296875 62.16015625 C-61.50098901 51.60535814 -49.68866473 44.98904086 -35.4609375 43.78515625 C-24.21528375 43.38005345 -12.89402416 45.79242737 -4 53 C-4 53.66 -4 54.32 -4 55 C-2.515 55.495 -2.515 55.495 -1 56 C-0.67 37.52 -0.34 19.04 0 0 Z M-46.46484375 78.80078125 C-53.92297851 89.48508117 -55.37657259 102.71888946 -53.5 115.37109375 C-51.33533027 126.00995352 -47.19190478 133.84990096 -38 140 C-31.00694764 142.85255478 -23.41864059 143.29960017 -16.14453125 141.16015625 C-8.62601559 137.78194271 -4.36347755 132.74870211 -1.36328125 125.171875 C0.73824812 118.58271183 0.43543336 111.84911374 0.375 105 C0.38660156 103.68515625 0.39820313 102.3703125 0.41015625 101.015625 C0.37848309 90.5001356 -0.60431598 82.47875299 -8.07421875 74.73046875 C-14.62121469 68.84746834 -20.70856995 68.34789111 -29.4375 68.625 C-37.20936356 69.4430909 -41.60426163 72.81086114 -46.46484375 78.80078125 Z " fill="#023A6F" transform="translate(507,103)"/>
<path d="M0 0 C10.95232809 9.25579099 15.45243566 21.60328104 16.78704834 35.55123901 C17.22393215 42.22219877 17.13484446 48.9113848 17.125 55.59375 C17.12567468 57.21374018 17.12664607 58.83373026 17.12789917 60.45372009 C17.12936463 63.82649716 17.12725634 67.19924754 17.12255859 70.57202148 C17.11682056 74.90321213 17.12017308 79.23434135 17.12613106 83.56552982 C17.12973279 86.89996307 17.1286006 90.23438156 17.12600327 93.56881523 C17.12533504 95.16728154 17.12615877 96.76574918 17.12848282 98.36421394 C17.1310074 100.58537522 17.12717348 102.80643428 17.12158203 105.02758789 C17.12078644 106.29204239 17.11999084 107.55649689 17.11917114 108.85926819 C16.9921875 111.68359375 16.9921875 111.68359375 15.9921875 112.68359375 C13.77363486 112.77142917 11.55230254 112.79053984 9.33203125 112.78125 C8.33533165 112.77912758 8.33533165 112.77912758 7.3184967 112.77696228 C5.18884851 112.77134893 3.05930411 112.75879429 0.9296875 112.74609375 C-0.51106619 112.74108046 -1.95182153 112.73651726 -3.39257812 112.73242188 C-6.93102352 112.7213752 -10.46940789 112.70410167 -14.0078125 112.68359375 C-14.01589935 111.81630646 -14.02398621 110.94901917 -14.03231812 110.05545044 C-14.11054401 101.84683421 -14.19791721 93.63837578 -14.29533958 85.42996407 C-14.34509823 81.21082922 -14.39142854 76.99171697 -14.4296875 72.77246094 C-14.46680035 68.69394651 -14.51322746 64.61563107 -14.56587601 60.53728867 C-14.58428286 58.98816322 -14.5994403 57.43899534 -14.61115646 55.88980484 C-14.52811834 38.97049275 -14.52811834 38.97049275 -21.0078125 23.68359375 C-27.68058664 18.37261025 -33.7267466 17.95755366 -42.0078125 18.68359375 C-47.97021241 20.23599306 -51.28067618 23.6675335 -54.78125 28.5859375 C-57.64309324 33.48023629 -58.30939329 37.70809079 -58.32666016 43.31958008 C-58.34172859 44.44721268 -58.34172859 44.44721268 -58.35710144 45.59762573 C-58.38787109 48.07028473 -58.40495108 50.54283575 -58.421875 53.015625 C-58.44059167 54.73484726 -58.46016546 56.45406038 -58.4805603 58.17326355 C-58.53183484 62.68918464 -58.57148557 67.20513551 -58.60870361 71.72119141 C-58.64877261 76.33308243 -58.69985174 80.94485013 -58.75 85.55664062 C-58.84670397 94.59888021 -58.93010837 103.64117091 -59.0078125 112.68359375 C-69.2378125 112.68359375 -79.4678125 112.68359375 -90.0078125 112.68359375 C-90.3378125 73.74359375 -90.6678125 34.80359375 -91.0078125 -5.31640625 C-82.0978125 -5.31640625 -73.1878125 -5.31640625 -64.0078125 -5.31640625 C-63.3478125 -0.36640625 -62.6878125 4.58359375 -62.0078125 9.68359375 C-61.2446875 8.67296875 -60.4815625 7.66234375 -59.6953125 6.62109375 C-44.88871697 -10.59506568 -18.15891969 -13.33649596 0 0 Z " fill="#02396F" transform="translate(394.0078125,155.31640625)"/>
<path d="M0 0 C9.75933113 9.10870905 13.37214608 21.63967612 13.90821838 34.65342712 C13.9285677 36.0552686 13.94401411 37.4571873 13.95532227 38.85913086 C13.96522186 39.63068512 13.97512146 40.40223938 13.98532104 41.19717407 C14.01667427 43.72386708 14.04158886 46.25057883 14.06640625 48.77734375 C14.08699844 50.53854332 14.10799548 52.29973821 14.12937927 54.06092834 C14.18436612 58.67876366 14.23387777 63.29664183 14.28222656 67.91455078 C14.33261319 72.6338275 14.38820936 77.35304259 14.44335938 82.07226562 C14.55065457 91.31895953 14.6516803 100.5657063 14.75 109.8125 C5.84 109.8125 -3.07 109.8125 -12.25 109.8125 C-13.24 106.1825 -14.23 102.5525 -15.25 98.8125 C-15.85585937 99.34359375 -16.46171875 99.8746875 -17.0859375 100.421875 C-29.67465746 111.03513429 -42.1903364 113.15574799 -58.25 111.8125 C-61.95047878 110.95717975 -64.9788443 109.71957053 -68.25 107.8125 C-69.8278125 106.94625 -69.8278125 106.94625 -71.4375 106.0625 C-79.02108976 99.99562819 -84.83404252 92.59833948 -86.25 82.8125 C-87.16831979 70.43101598 -85.19176905 60.53526073 -77.25 50.8125 C-65.08801944 37.23303919 -46.28160875 33.20255751 -28.86181641 32.18896484 C-24.99126843 32.01011169 -21.1238508 31.89337371 -17.25 31.8125 C-17.54408515 30.38039215 -17.84487315 28.94965979 -18.1484375 27.51953125 C-18.31520996 26.72264893 -18.48198242 25.9257666 -18.65380859 25.10473633 C-19.71934414 21.00796594 -21.48119681 18.08996897 -24.9375 15.59375 C-35.08616931 9.86466249 -46.25903126 11.844985 -57.08984375 14.51171875 C-61.76690762 15.84098953 -65.93371806 17.54645198 -70.25 19.8125 C-70.91 19.8125 -71.57 19.8125 -72.25 19.8125 C-73.09479453 17.44104106 -73.92593283 15.06615876 -74.75 12.6875 C-74.98847656 12.02234375 -75.22695312 11.3571875 -75.47265625 10.671875 C-76.87708806 6.57895945 -77.52343814 3.20118208 -77.25 -1.1875 C-71.03171735 -4.40203594 -64.83876697 -6.75614671 -58.0625 -8.4375 C-57.41023438 -8.60024414 -56.75796875 -8.76298828 -56.0859375 -8.93066406 C-36.98041628 -13.45717336 -15.83768618 -12.70003137 0 0 Z M-50.25 60.8125 C-55.14343156 66.20782197 -55.59515687 69.66700245 -55.53515625 76.82421875 C-55.05981716 81.80551195 -52.83239469 84.42191073 -49.1875 87.625 C-44.06585271 90.76407415 -38.37287184 90.55875705 -32.68359375 89.19921875 C-26.31647095 86.99259756 -21.74577641 83.64210442 -18.25 77.8125 C-16.17554018 72.23481332 -16.00234654 67.22934389 -16.125 61.375 C-16.13402344 60.54806641 -16.14304688 59.72113281 -16.15234375 58.86914062 C-16.17568488 56.85013292 -16.21154712 54.83127644 -16.25 52.8125 C-28.42397575 52.32626132 -40.43970525 52.75151082 -50.25 60.8125 Z " fill="#02396F" transform="translate(271.25,158.1875)"/>
<path d="M0 0 C8.91 0 17.82 0 27 0 C27.33 6.6 27.66 13.2 28 20 C28.639375 18.659375 29.27875 17.31875 29.9375 15.9375 C34.40583697 7.97710137 41.38827473 3.49832094 49.9375 0.64453125 C55.63998623 -0.55560935 61.19633743 -0.22984802 67 0 C67 8.91 67 17.82 67 27 C63.04 27 59.08 27 55 27 C46.36241327 28.48072915 41.51491142 31.90394613 36.296875 38.70703125 C33.35824613 43.90273953 32.74722081 49.23341456 32.69702148 55.11279297 C32.68436249 56.12141136 32.68436249 56.12141136 32.67144775 57.15040588 C32.6458921 59.34767446 32.63358661 61.54480948 32.62109375 63.7421875 C32.60490363 65.27679487 32.58772205 66.81139207 32.56959534 68.34597778 C32.52410267 72.36665156 32.48918563 76.38733912 32.45739746 80.40814209 C32.40532036 86.86458434 32.34051848 93.32087854 32.26918221 99.77713394 C32.24630908 102.03344623 32.23007196 104.28973931 32.21446228 106.54611206 C32.20106396 107.91860169 32.18744989 109.29108923 32.17358398 110.66357422 C32.15931618 112.46723953 32.15931618 112.46723953 32.14476013 114.30734253 C32 117 32 117 31 118 C28.78144736 118.08783542 26.56011504 118.10694609 24.33984375 118.09765625 C23.34314415 118.09553383 23.34314415 118.09553383 22.3263092 118.09336853 C20.19666101 118.08775518 18.06711661 118.07520054 15.9375 118.0625 C14.49674631 118.05748671 13.05599097 118.05292351 11.61523438 118.04882812 C8.07678898 118.03778145 4.53840461 118.02050792 1 118 C0.86796798 106.30609186 0.73748166 94.61216752 0.60884857 82.91822147 C0.54904201 77.48543022 0.48874723 72.0526454 0.42724609 66.61987305 C0.17616546 44.4123085 -0.07308681 22.20925361 0 0 Z " fill="#02396F" transform="translate(607,150)"/>
<path d="M0 0 C10.23 0 20.46 0 31 0 C31.02254755 15.23763332 31.04097948 30.47525916 31.05181217 45.71290493 C31.056975 52.78753187 31.06401744 59.86214774 31.07543945 66.93676758 C31.08644681 73.75778878 31.09227618 80.57879844 31.09487724 87.39982796 C31.09673205 90.00866948 31.1003537 92.61751033 31.10573006 95.22634697 C31.11293643 98.86632552 31.11399111 102.50625575 31.11352539 106.14624023 C31.11712067 107.23668137 31.12071594 108.3271225 31.12442017 109.4506073 C31.1230455 110.43643799 31.12167084 111.42226868 31.12025452 112.43797302 C31.12117631 113.29984946 31.1220981 114.1617259 31.12304783 115.04971981 C31 117 31 117 30 118 C20.1 118 10.2 118 0 118 C0 79.06 0 40.12 0 0 Z " fill="#013A70" transform="translate(687,150)"/>
<path d="M0 0 C10.23 0 20.46 0 31 0 C31 38.94 31 77.88 31 118 C21.1 118 11.2 118 1 118 C0 117 0 117 -0.12304783 115.04971981 C-0.12212604 114.18784337 -0.12120424 113.32596693 -0.12025452 112.43797302 C-0.12162918 111.45214233 -0.12300385 110.46631165 -0.12442017 109.4506073 C-0.12082489 108.36016617 -0.11722961 107.26972504 -0.11352539 106.14624023 C-0.11367142 105.00492645 -0.11381744 103.86361267 -0.1139679 102.68771362 C-0.11326818 98.89465469 -0.10547307 95.10164416 -0.09765625 91.30859375 C-0.09579228 88.68685432 -0.09436828 86.06511454 -0.09336853 83.44337463 C-0.09025551 77.23498045 -0.08204252 71.02660379 -0.07201904 64.81821734 C-0.06085699 57.75182559 -0.05534722 50.68543301 -0.05032361 43.61903465 C-0.03985988 29.07934609 -0.02151476 14.53967652 0 0 Z " fill="#013970" transform="translate(557,150)"/>
<path d="M0 0 C10.23 0 20.46 0 31 0 C31 38.94 31 77.88 31 118 C21.1 118 11.2 118 1 118 C0 117 0 117 -0.12304783 115.04971981 C-0.12212604 114.18784337 -0.12120424 113.32596693 -0.12025452 112.43797302 C-0.12162918 111.45214233 -0.12300385 110.46631165 -0.12442017 109.4506073 C-0.12082489 108.36016617 -0.11722961 107.26972504 -0.11352539 106.14624023 C-0.11367142 105.00492645 -0.11381744 103.86361267 -0.1139679 102.68771362 C-0.11326818 98.89465469 -0.10547307 95.10164416 -0.09765625 91.30859375 C-0.09579228 88.68685432 -0.09436828 86.06511454 -0.09336853 83.44337463 C-0.09025551 77.23498045 -0.08204252 71.02660379 -0.07201904 64.81821734 C-0.06085699 57.75182559 -0.05534722 50.68543301 -0.05032361 43.61903465 C-0.03985988 29.07934609 -0.02151476 14.53967652 0 0 Z M3 1 C1.79041594 1.98957809 1.79041594 1.98957809 1.87695217 3.90342808 C1.87787396 4.74318149 1.87879576 5.58293489 1.87974548 6.44813538 C1.87837082 7.4087236 1.87699615 8.36931183 1.87557983 9.35900879 C1.87917511 10.42139771 1.88277039 11.48378662 1.88647461 12.57836914 C1.88632858 13.69042221 1.88618256 14.80247528 1.8860321 15.94822693 C1.88673179 19.64388951 1.8945268 23.33950241 1.90234375 27.03515625 C1.90420773 29.58963493 1.90563173 32.14411397 1.90663147 34.69859314 C1.91006656 40.7476171 1.91795736 46.79661955 1.92798096 52.84563488 C1.93914317 59.73065154 1.94465282 66.61566904 1.94967639 73.50069249 C1.96014 87.6671383 1.97773877 101.83356817 2 116 C10.35330939 120.1766547 20.66071618 117 30 117 C30 78.72 30 40.44 30 1 C21.09 1 12.18 1 3 1 Z " fill="#153D63" transform="translate(557,150)"/>
<path d="M0 0 C10.23 0 20.46 0 31 0 C31.33 54.45 31.66 108.9 32 165 C22.76 165 13.52 165 4 165 C4 164.67 4 164.34 4 164 C12.58 164 21.16 164 30 164 C30 110.21 30 56.42 30 1 C14.63288818 -1.13507774 14.63288818 -1.13507774 2 3 C1.87692689 4.71774167 1.82213442 6.44042739 1.79467773 8.16235352 C1.77473251 9.26341934 1.75478729 10.36448517 1.73423767 11.49891663 C1.71752518 12.6968132 1.70081268 13.89470978 1.68359375 15.12890625 C1.66281265 16.34827377 1.64203156 17.5676413 1.62062073 18.82395935 C1.55499572 22.73674645 1.49618028 26.64960317 1.4375 30.5625 C1.39432709 33.20768962 1.35071322 35.85287209 1.30664062 38.49804688 C1.1993012 44.99862336 1.09755933 51.49926979 1 58 C0.67 58 0.34 58 0 58 C0 38.86 0 19.72 0 0 Z " fill="#0A335C" transform="translate(507,103)"/>
<path d="M0 0 C0.33 0 0.66 0 1 0 C1 37.62 1 75.24 1 114 C-8.9 114 -18.8 114 -29 114 C-30 113 -30 113 -30.0625 109.9375 C-30.041875 108.968125 -30.02125 107.99875 -30 107 C-29.566875 107.9590625 -29.566875 107.9590625 -29.125 108.9375 C-28.17176549 111.15206079 -28.17176549 111.15206079 -26 112 C-13.13 112.495 -13.13 112.495 0 113 C0 75.71 0 38.42 0 0 Z " fill="#0C365D" transform="translate(587,154)"/>
<path d="M0 0 C0.66 0 1.32 0 2 0 C1.566875 1.051875 1.566875 1.051875 1.125 2.125 C-1.08568968 7.7745403 -2.29776447 12.55718609 -2.30297852 18.6418457 C-2.31141785 19.38238693 -2.31985718 20.12292816 -2.32855225 20.88591003 C-2.35419328 23.31587411 -2.36643469 25.74571717 -2.37890625 28.17578125 C-2.39508905 29.86875867 -2.41226987 31.56172681 -2.43040466 33.25468445 C-2.47597486 37.69788339 -2.51084958 42.14109476 -2.54260254 46.58441162 C-2.5946027 53.71401661 -2.65946663 60.84348636 -2.73081779 67.97292137 C-2.75370481 70.46633555 -2.76993523 72.95973223 -2.78553772 75.45320129 C-2.79893672 76.97051187 -2.81255085 78.48782057 -2.82641602 80.00512695 C-2.83033607 81.05157883 -2.83033607 81.05157883 -2.83433533 82.11917114 C-2.88635603 86.88635603 -2.88635603 86.88635603 -4 88 C-6.14558827 88.08775605 -8.29404421 88.10695219 -10.44140625 88.09765625 C-11.74658203 88.09443359 -13.05175781 88.09121094 -14.39648438 88.08789062 C-15.7851569 88.07953401 -17.17382877 88.07106905 -18.5625 88.0625 C-19.95507656 88.05748666 -21.34765481 88.05292347 -22.74023438 88.04882812 C-26.1601987 88.03699434 -29.58007844 88.0205088 -33 88 C-33 87.67 -33 87.34 -33 87 C-32.22285645 86.97494385 -31.44571289 86.9498877 -30.64501953 86.92407227 C-27.13816931 86.80833204 -23.63160255 86.68550648 -20.125 86.5625 C-18.90167969 86.52318359 -17.67835937 86.48386719 -16.41796875 86.44335938 C-15.25136719 86.40146484 -14.08476563 86.35957031 -12.8828125 86.31640625 C-11.80402832 86.27974854 -10.72524414 86.24309082 -9.61376953 86.20532227 C-7.01930464 86.16623357 -7.01930464 86.16623357 -5 85 C-4.99635437 84.03835434 -4.99270874 83.07670868 -4.98895264 82.08592224 C-4.95195607 73.00804106 -4.89413259 63.93049764 -4.81609726 54.8528738 C-4.77664603 50.18632572 -4.74444604 45.51996567 -4.72900391 40.85327148 C-4.71382176 36.34671088 -4.67934874 31.8406673 -4.63169098 27.33433723 C-4.61689321 25.61806809 -4.60895991 23.90172511 -4.60811615 22.18539238 C-4.60573982 19.77465043 -4.578609 17.36532963 -4.54589844 14.95483398 C-4.5509288 14.25064331 -4.55595917 13.54645264 -4.56114197 12.82092285 C-4.44870012 7.43897516 -2.87196248 4.38683375 0 0 Z " fill="#043057" transform="translate(105,180)"/>
<path d="M0 0 C0 8.91 0 17.82 0 27 C-5.94 27 -11.88 27 -18 27 C-17.67 26.34 -17.34 25.68 -17 25 C-11.72 25 -6.44 25 -1 25 C-1 17.08 -1 9.16 -1 1 C-3.495625 1.2475 -5.99125 1.495 -8.5625 1.75 C-9.33408447 1.81799805 -10.10566895 1.88599609 -10.90063477 1.95605469 C-16.15906731 2.54844087 -19.52067691 4.20596678 -24 7 C-26.9375 7.75 -26.9375 7.75 -29 8 C-21.15107497 -0.60849842 -10.96833363 -0.43438945 0 0 Z " fill="#103A61" transform="translate(674,150)"/>
<path d="M0 0 C10.23 0 20.46 0 31 0 C31 1.98 31 3.96 31 6 C30.67 6 30.34 6 30 6 C30 4.35 30 2.7 30 1 C25.52055965 1.13810905 21.04153217 1.28677416 16.5625 1.4375 C15.28310547 1.47681641 14.00371094 1.51613281 12.68554688 1.55664062 C10.86313477 1.61948242 10.86313477 1.61948242 9.00390625 1.68359375 C7.87799072 1.72025146 6.7520752 1.75690918 5.59204102 1.79467773 C3.07146559 1.71218045 3.07146559 1.71218045 2 3 C1.87692689 4.71774167 1.82213442 6.44042739 1.79467773 8.16235352 C1.77473251 9.26341934 1.75478729 10.36448517 1.73423767 11.49891663 C1.71752518 12.6968132 1.70081268 13.89470978 1.68359375 15.12890625 C1.66281265 16.34827377 1.64203156 17.5676413 1.62062073 18.82395935 C1.55499572 22.73674645 1.49618028 26.64960317 1.4375 30.5625 C1.39432709 33.20768962 1.35071322 35.85287209 1.30664062 38.49804688 C1.1993012 44.99862336 1.09755933 51.49926979 1 58 C0.67 58 0.34 58 0 58 C0 38.86 0 19.72 0 0 Z " fill="#133758" transform="translate(507,103)"/>
<path d="M0 0 C2.95514876 2.75134539 5.1524809 5.39733775 7 9 C7 9.99 7 10.98 7 12 C2.05 14.475 2.05 14.475 -3 17 C-2.979375 16.05125 -2.95875 15.1025 -2.9375 14.125 C-2.77448174 11.09333717 -2.77448174 11.09333717 -4 9 C-2.68 8.34 -1.36 7.68 0 7 C0 4.69 0 2.38 0 0 Z " fill="#FAB705" transform="translate(917,48)"/>
<path d="M0 0 C-0.33 0.99 -0.66 1.98 -1 3 C-2.13695312 2.96519531 -3.27390625 2.93039063 -4.4453125 2.89453125 C-16.11102291 2.64710755 -26.68555218 3.41710948 -37.6875 7.75 C-41 9 -41 9 -44 8 C-29.90644188 1.70022932 -15.3996479 -0.73461218 0 0 Z " fill="#123D62" transform="translate(242,147)"/>
<path d="M0 0 C0.66 0.33 1.32 0.66 2 1 C1.484375 1.556875 0.96875 2.11375 0.4375 2.6875 C-1.29476698 4.94085007 -1.29476698 4.94085007 -0.6875 7.75 C-0.3471875 8.86375 -0.3471875 8.86375 0 10 C-1.2684375 9.6596875 -1.2684375 9.6596875 -2.5625 9.3125 C-6.24005785 8.97817656 -7.5315208 9.71154753 -10.73046875 11.29296875 C-15.85668147 12.88994724 -24.11954803 13.44022599 -29 11 C-29 10.34 -29 9.68 -29 9 C-28.360625 9.165 -27.72125 9.33 -27.0625 9.5 C-18.9679872 10.82155311 -12.2327013 10.15817322 -5 6 C-2.94190782 4.10803185 -1.58813069 2.32925835 0 0 Z " fill="#0C3863" transform="translate(251,237)"/>
<path d="M0 0 C2.74722498 1.16228749 4.44429284 2.40296327 6.6875 4.4375 C9.77038529 7.09785787 12.87683734 8.19772636 16.75390625 9.32421875 C19 10 19 10 21.4140625 11.04296875 C24.27958692 12.1034725 26.77090586 12.40512572 29.8125 12.625 C31.27623047 12.73714844 31.27623047 12.73714844 32.76953125 12.8515625 C33.50558594 12.90054687 34.24164063 12.94953125 35 13 C35 13.33 35 13.66 35 14 C23.33101101 14.60530779 14.36028074 13.40115222 5 6 C3.20722063 4.06931453 1.61430149 2.08909604 0 0 Z " fill="#0E3C68" transform="translate(192,256)"/>
<path d="M0 0 C0 0.66 0 1.32 0 2 C-0.5775 2.0825 -1.155 2.165 -1.75 2.25 C-4.17679017 2.86104147 -4.17679017 2.86104147 -5.9375 5.0625 C-8 7 -8 7 -10.75 7.25 C-11.4925 7.1675 -12.235 7.085 -13 7 C-13 6.34 -13 5.68 -13 5 C-14.134375 4.87625 -15.26875 4.7525 -16.4375 4.625 C-17.613125 4.41875 -18.78875 4.2125 -20 4 C-20.33 3.34 -20.66 2.68 -21 2 C-19.87980469 1.93941406 -18.75960937 1.87882812 -17.60546875 1.81640625 C-16.13280016 1.73198576 -14.66014456 1.64733851 -13.1875 1.5625 C-12.44951172 1.52318359 -11.71152344 1.48386719 -10.95117188 1.44335938 C-7.2203001 1.22389633 -3.62842047 0 0 0 Z " fill="#F7B71A" transform="translate(812,49)"/>
<path d="M0 0 C0.33 0.66 0.66 1.32 1 2 C-1.4420615 4.95617971 -3.26388637 5.43717083 -7 6 C-13.08552395 6.30517377 -19.00347914 6.06604815 -25 5 C-25 4.34 -25 3.68 -25 3 C-25.66 3 -26.32 3 -27 3 C-26.67 2.34 -26.34 1.68 -26 1 C-25.14277344 1.32355469 -24.28554688 1.64710938 -23.40234375 1.98046875 C-16.85529735 3.94232766 -9.06099796 4.24450626 -2.6875 1.5 C-1.800625 1.005 -0.91375 0.51 0 0 Z " fill="#0E3964" transform="translate(495,241)"/>
<path d="M0 0 C0.66 0.33 1.32 0.66 2 1 C1.54367187 1.41507813 1.08734375 1.83015625 0.6171875 2.2578125 C-1.07013131 4.07555209 -1.88220653 5.61705379 -2.875 7.875 C-5.42392682 13.1674282 -8.68155359 16.49852733 -14 19 C-10.7507052 11.3712209 -5.83466614 5.83466614 0 0 Z " fill="#0D3963" transform="translate(443,158)"/>
<path d="M0 0 C0.33 0 0.66 0 1 0 C1.02687279 1.81242052 1.04633715 3.62495233 1.0625 5.4375 C1.07410156 6.44683594 1.08570313 7.45617187 1.09765625 8.49609375 C1 11 1 11 0 12 C-2.21855264 12.08783542 -4.43988496 12.10694609 -6.66015625 12.09765625 C-7.65685585 12.09553383 -7.65685585 12.09553383 -8.6736908 12.09336853 C-10.80333899 12.08775518 -12.93288339 12.07520054 -15.0625 12.0625 C-16.50325369 12.05748671 -17.94400903 12.05292351 -19.38476562 12.04882812 C-22.92321102 12.03778145 -26.46159539 12.02050792 -30 12 C-30 10.35 -30 8.7 -30 7 C-29.01 8.485 -29.01 8.485 -28 10 C-25.38803709 10.51012565 -25.38803709 10.51012565 -22.3359375 10.51171875 C-21.21445312 10.54716797 -20.09296875 10.58261719 -18.9375 10.61914062 C-17.1740625 10.65297852 -17.1740625 10.65297852 -15.375 10.6875 C-14.19164062 10.72166016 -13.00828125 10.75582031 -11.7890625 10.79101562 C-8.8594694 10.87370575 -5.9301836 10.94278714 -3 11 C-3 10.34 -3 9.68 -3 9 C-2.34 9 -1.68 9 -1 9 C-0.67 6.03 -0.34 3.06 0 0 Z " fill="#0B385C" transform="translate(717,256)"/>
<path d="M0 0 C0.84114922 2.42998664 1.00996522 3.94305588 0.5625 6.5 C-0.98391183 16.12211803 0.28120509 25.48524247 2 35 C-0.76262312 33.04946664 -1.04460977 31.7908348 -1.765625 28.41015625 C-1.94438912 26.9629703 -2.10493652 25.51345154 -2.25 24.0625 C-2.3722998 22.92820557 -2.3722998 22.92820557 -2.49707031 21.77099609 C-4.0114166 6.0171249 -4.0114166 6.0171249 0 0 Z " fill="#0F395D" transform="translate(454,193)"/>
<path d="M0 0 C0.639375 0.144375 1.27875 0.28875 1.9375 0.4375 C8.77158743 1.69274055 14.18331853 2.25415594 20.98046875 0.48046875 C23.35914332 -0.08544416 25.56422685 -0.15714665 28 0 C24.02513627 3.97486373 18.96999335 4.29302523 13.5625 4.3125 C8.24927732 4.24562878 4.62148116 3.57943135 0 1 C0 0.67 0 0.34 0 0 Z " fill="#F4B925" transform="translate(816,105)"/>
<path d="M0 0 C-3.33090565 0.67918684 -6.66503199 1.34107487 -10 2 C-10.8765625 2.17917969 -11.753125 2.35835937 -12.65625 2.54296875 C-19.74467765 3.92938181 -26.79431097 4.56468015 -34 5 C-26.25565894 -0.16289404 -8.93347738 -2.76163704 0 0 Z " fill="#0D385A" transform="translate(250,191)"/>
<path d="M0 0 C-1.20381448 2.49361571 -2.45428722 4.68143083 -4 7 C-6.97 6.505 -6.97 6.505 -10 6 C-10 6.66 -10 7.32 -10 8 C-14.455 9.485 -14.455 9.485 -19 11 C-15.9047795 7.9047795 -12.70730951 5.93325754 -8.9375 3.8125 C-8.30005859 3.44447266 -7.66261719 3.07644531 -7.00585938 2.69726562 C-2.25687036 0 -2.25687036 0 0 0 Z " fill="#F6B51E" transform="translate(640,33)"/>
<path d="M0 0 C1.33804688 0.17982422 1.33804688 0.17982422 2.703125 0.36328125 C3.37859375 0.47027344 4.0540625 0.57726563 4.75 0.6875 C1.76559439 2.22828615 -1.26007758 3.55723276 -4.375 4.8125 C-5.24382813 5.16570313 -6.11265625 5.51890625 -7.0078125 5.8828125 C-9.25 6.6875 -9.25 6.6875 -11.25 6.6875 C-11.25 6.0275 -11.25 5.3675 -11.25 4.6875 C-10.59 4.6875 -9.93 4.6875 -9.25 4.6875 C-9.25 4.0275 -9.25 3.3675 -9.25 2.6875 C-6.15728169 -0.35463647 -4.21382595 -0.60989586 0 0 Z " fill="#F6BB0E" transform="translate(725.25,58.3125)"/>
<path d="M0 0 C-0.66 1.65 -1.32 3.3 -2 5 C-3.32 4.67 -4.64 4.34 -6 4 C-6 4.99 -6 5.98 -6 7 C-7.134375 7.12375 -8.26875 7.2475 -9.4375 7.375 C-11.2009375 7.684375 -11.2009375 7.684375 -13 8 C-13.33 8.66 -13.66 9.32 -14 10 C-14.66 9.34 -15.32 8.68 -16 8 C-13.71125827 6.66141476 -11.41930344 5.32898986 -9.125 4 C-8.47402344 3.6184375 -7.82304687 3.236875 -7.15234375 2.84375 C-2.2265625 0 -2.2265625 0 0 0 Z " fill="#F5B71F" transform="translate(428,39)"/>
<path d="M0 0 C6.91361691 -0.2343599 11.59479163 0.31548608 17 5 C19.23159433 7.39099392 19.96255133 8.45075291 20.1875 11.75 C20.0946875 12.86375 20.0946875 12.86375 20 14 C19.5875 13.443125 19.175 12.88625 18.75 12.3125 C18.1725 11.549375 17.595 10.78625 17 10 C16.4225 9.154375 15.845 8.30875 15.25 7.4375 C11.11675875 2.95982198 5.90083126 1.71961357 0 1 C0 0.67 0 0.34 0 0 Z " fill="#0F3863" transform="translate(234,169)"/>
<path d="M0 0 C0.66 0.99 1.32 1.98 2 3 C5.61652425 3.42104143 9.17327132 3.44016298 12.8125 3.49609375 C13.864375 3.66238281 14.91625 3.82867187 16 4 C17.4375 6.03515625 17.4375 6.03515625 18 8 C17.236875 7.67 16.47375 7.34 15.6875 7 C9.16892451 5.23225071 2.56428988 5.51620934 -4 7 C-4 6.34 -4 5.68 -4 5 C-3.01 5 -2.02 5 -1 5 C-0.67 3.35 -0.34 1.7 0 0 Z " fill="#0F375C" transform="translate(46,168)"/>
<path d="M0 0 C0.66 0.33 1.32 0.66 2 1 C-1.38700501 5.35305799 -3.74666162 8.04876003 -9 10 C-9.88693303 12.04105639 -9.88693303 12.04105639 -10 14 C-10.66 14 -11.32 14 -12 14 C-10.28842825 7.7242369 -5.24692437 3.49794958 0 0 Z " fill="#0F3A61" transform="translate(202,202)"/>
<path d="M0 0 C6.93 0 13.86 0 21 0 C20.67 0.99 20.34 1.98 20 3 C19.01 2.67 18.02 2.34 17 2 C10.32319421 1.4989987 4.82272094 1.32249204 -1 5 C-1.66 5 -2.32 5 -3 5 C-3 4.34 -3 3.68 -3 3 C-2.34 3 -1.68 3 -1 3 C-0.67 2.01 -0.34 1.02 0 0 Z " fill="#0F3A5D" transform="translate(347,172)"/>
<path d="M0 0 C2.475 0.495 2.475 0.495 5 1 C5 1.66 5 2.32 5 3 C5.99 3 6.98 3 8 3 C8 3.99 8 4.98 8 6 C8.99 6 9.98 6 11 6 C11 6.66 11 7.32 11 8 C12.32 8 13.64 8 15 8 C15 8.66 15 9.32 15 10 C16.32 10.33 17.64 10.66 19 11 C18.01 11.495 18.01 11.495 17 12 C10.3975572 9.57387385 5.04537244 5.82600842 0 1 C0 0.67 0 0.34 0 0 Z " fill="#F0B927" transform="translate(378,105)"/>
<path d="M0 0 C0 0.66 0 1.32 0 2 C-0.99 2 -1.98 2 -3 2 C-3 2.66 -3 3.32 -3 4 C-8.16478146 7.8435583 -12.47860737 10.37265101 -19 10 C-15.72274693 7.81516462 -12.348786 5.83917892 -8.9375 3.875 C-8.30005859 3.50246094 -7.66261719 3.12992188 -7.00585938 2.74609375 C-2.2328869 0 -2.2328869 0 0 0 Z " fill="#F2B821" transform="translate(619,45)"/>
<path d="M0 0 C0.85464844 -0.01417969 1.70929688 -0.02835938 2.58984375 -0.04296875 C5.26075557 0.2059788 6.84182148 0.69214377 9.0625 2.1875 C9.3925 3.1775 9.7225 4.1675 10.0625 5.1875 C9.22460938 4.86007813 8.38671875 4.53265625 7.5234375 4.1953125 C3.7312069 3.09102864 0.62696457 2.98817048 -3.3125 3.0625 C-5.18035156 3.08957031 -5.18035156 3.08957031 -7.0859375 3.1171875 C-8.02695313 3.14039063 -8.96796875 3.16359375 -9.9375 3.1875 C-6.87659897 0.12659897 -4.14493299 0.03116491 0 0 Z " fill="#0F395E" transform="translate(124.9375,170.8125)"/>
<path d="M0 0 C-3 2 -3 2 -7 2 C-6.16666667 4.16666667 -6.16666667 4.16666667 -4 5 C-4.99 5.99 -5.98 6.98 -7 8 C-9.21736634 6.89131683 -11.03617993 5.50559539 -13 4 C-11.40233897 3.13372601 -9.79660056 2.28233535 -8.1875 1.4375 C-7.29417969 0.96183594 -6.40085937 0.48617187 -5.48046875 -0.00390625 C-3 -1 -3 -1 0 0 Z " fill="#0A3A67" transform="translate(123,150)"/>
<path d="M0 0 C1.32 0.33 2.64 0.66 4 1 C2.04480616 2.17192047 0.0857461 3.3373929 -1.875 4.5 C-2.96554687 5.1496875 -4.05609375 5.799375 -5.1796875 6.46875 C-8 8 -8 8 -10 8 C-10 6.68 -10 5.36 -10 4 C-9.01 4.33 -8.02 4.66 -7 5 C-6.67 3.68 -6.34 2.36 -6 1 C-3.03 1.495 -3.03 1.495 0 2 C0 1.34 0 0.68 0 0 Z " fill="#F5B720" transform="translate(871,87)"/>
<path d="M0 0 C0.33 0.99 0.66 1.98 1 3 C0.01 3.495 0.01 3.495 -1 4 C-1.66 3.67 -2.32 3.34 -3 3 C-3 4.32 -3 5.64 -3 7 C-4.6875 8.875 -4.6875 8.875 -7 10 C-9.75 9.1875 -9.75 9.1875 -12 8 C-8.2064129 4.78119883 -4.34170523 2.3836813 0 0 Z " fill="#FBB610" transform="translate(659,21)"/>
<path d="M0 0 C0.66 0.33 1.32 0.66 2 1 C-2 5 -2 5 -3.6875 6.5625 C-5.25277889 8.08143922 -5.25277889 8.08143922 -6 11 C-7.5 9.6875 -7.5 9.6875 -9 8 C-9 7.01 -9 6.02 -9 5 C-7.54735962 4.1361871 -6.0876837 3.28419546 -4.625 2.4375 C-3.40683594 1.72400391 -3.40683594 1.72400391 -2.1640625 0.99609375 C-1.44992187 0.66738281 -0.73578125 0.33867188 0 0 Z " fill="#F1BC20" transform="translate(366,73)"/>
<path d="M0 0 C5.26170694 1.41167747 8.72171358 3.74850232 13 7 C9.90279155 7.87840996 8.09354597 7.99435406 5 7 C5 5.68 5 4.36 5 3 C3.35 2.67 1.7 2.34 0 2 C0 1.34 0 0.68 0 0 Z " fill="#0A3A65" transform="translate(258,151)"/>
<path d="M0 0 C-7.5 5 -7.5 5 -11 5 C-11.33 3.35 -11.66 1.7 -12 0 C-11.67 0.66 -11.34 1.32 -11 2 C-10.34 1.34 -9.68 0.68 -9 0 C-5.7295226 -1.24052591 -3.35038257 -0.83759564 0 0 Z " fill="#0F3B62" transform="translate(210,173)"/>
<path d="M0 0 C0.66 0.33 1.32 0.66 2 1 C0.68 2.65 -0.64 4.3 -2 6 C-1.67 6.66 -1.34 7.32 -1 8 C-3.97 7.67 -6.94 7.34 -10 7 C-6.73093793 3.73093793 -4.09304414 2.08373156 0 0 Z " fill="#F2B821" transform="translate(438,32)"/>
<path d="M0 0 C-0.598125 0.268125 -1.19625 0.53625 -1.8125 0.8125 C-4.04736499 1.83420657 -4.04736499 1.83420657 -5.25 3.625 C-8.19241954 5.93690107 -11.35648824 5.1791891 -15 5 C-11.55014028 1.85012808 -4.53875449 -2.26937725 0 0 Z " fill="#F3B725" transform="translate(488,8)"/>
<path d="M0 0 C0.66 0 1.32 0 2 0 C1.71125 0.70125 1.4225 1.4025 1.125 2.125 C-1.23296428 8.15090871 -2.45731099 13.57341962 -3 20 C-3.33 20 -3.66 20 -4 20 C-4.738041 6.3667426 -4.738041 6.3667426 0 0 Z " fill="#0A385C" transform="translate(105,180)"/>
<path d="M0 0 C0 0.99 0 1.98 0 3 C-2.3125 4.5625 -2.3125 4.5625 -5 6 C-5.99 6.66 -6.98 7.32 -8 8 C-9.32 7.67 -10.64 7.34 -12 7 C-8.04 4.69 -4.08 2.38 0 0 Z " fill="#F2BA1E" transform="translate(673,13)"/>
<path d="M0 0 C1.65 0 3.3 0 5 0 C5.69699552 1.45381897 6.38233866 2.91322953 7.0625 4.375 C7.63677734 5.59316406 7.63677734 5.59316406 8.22265625 6.8359375 C8.47917969 7.55007812 8.73570312 8.26421875 9 9 C8.67 9.66 8.34 10.32 8 11 C6.66375099 9.35653302 5.33107149 7.71016314 4 6.0625 C3.2575 5.14597656 2.515 4.22945313 1.75 3.28515625 C0 1 0 1 0 0 Z " fill="#F5B429" transform="translate(583,84)"/>
<path d="M0 0 C6.435 2.97 6.435 2.97 13 6 C13 6.33 13 6.66 13 7 C10.03 7 7.06 7 4 7 C4.33 6.01 4.66 5.02 5 4 C4.01 4 3.02 4 2 4 C2 3.34 2 2.68 2 2 C1.34 2 0.68 2 0 2 C0 1.34 0 0.68 0 0 Z " fill="#F3B828" transform="translate(565,48)"/>
<path d="M0 0 C0.66 0.33 1.32 0.66 2 1 C1.34 2.32 0.68 3.64 0 5 C-1.98 5 -3.96 5 -6 5 C-6 5.66 -6 6.32 -6 7 C-7.32 6.67 -8.64 6.34 -10 6 C-8.3811004 4.96951963 -6.75467511 3.95085322 -5.125 2.9375 C-4.22007812 2.36902344 -3.31515625 1.80054688 -2.3828125 1.21484375 C-1.20332031 0.61349609 -1.20332031 0.61349609 0 0 Z " fill="#F3B723" transform="translate(410,48)"/>
<path d="M0 0 C0 0.66 0 1.32 0 2 C-4.23798336 5.45277325 -8.49897163 7.58742287 -14 8 C-11.72402354 5.50447597 -9.39278822 3.93377014 -6.4375 2.3125 C-5.65246094 1.87550781 -4.86742187 1.43851563 -4.05859375 0.98828125 C-2 0 -2 0 0 0 Z " fill="#F2B626" transform="translate(456,23)"/>
<path d="M0 0 C2.97 0.495 2.97 0.495 6 1 C2.87567603 3.52349243 -0.38060496 5.27256146 -4 7 C-4.33 5.35 -4.66 3.7 -5 2 C-3.35 2 -1.7 2 0 2 C0 1.34 0 0.68 0 0 Z " fill="#F4B620" transform="translate(707,64)"/>
<path d="M0 0 C-1.55575978 0.84584998 -3.1199612 1.67618399 -4.6875 2.5 C-5.99267578 3.19609375 -5.99267578 3.19609375 -7.32421875 3.90625 C-10.11788829 5.04818792 -12.01629113 5.21504208 -15 5 C-14 3 -14 3 -11.34765625 1.89453125 C-9.72150391 1.35892578 -9.72150391 1.35892578 -8.0625 0.8125 C-6.44021484 0.26529297 -6.44021484 0.26529297 -4.78515625 -0.29296875 C-2 -1 -2 -1 0 0 Z " fill="#F5B728" transform="translate(701,2)"/>
<path d="M0 0 C5.52677733 -0.19392201 9.75614911 0.2520497 15 2 C15 2.33 15 2.66 15 3 C9.47322267 3.19392201 5.24385089 2.7479503 0 1 C0 0.67 0 0.34 0 0 Z " fill="#F9BC1A" transform="translate(719,0)"/>
<path d="M0 0 C0.99 0.33 1.98 0.66 3 1 C2.2575 1.721875 1.515 2.44375 0.75 3.1875 C-1.69290515 5.68592573 -3.8681047 8.23643202 -6 11 C-6.33 9.35 -6.66 7.7 -7 6 C-6.01 6 -5.02 6 -4 6 C-3.71125 5.195625 -3.4225 4.39125 -3.125 3.5625 C-2 1 -2 1 0 0 Z " fill="#0B375E" transform="translate(39,175)"/>
<path d="M0 0 C0.99 0.33 1.98 0.66 3 1 C3 1.66 3 2.32 3 3 C3.99 3.33 4.98 3.66 6 4 C7.1875 6.0625 7.1875 6.0625 8 8 C6.35 8 4.7 8 3 8 C3 6.68 3 5.36 3 4 C2.34 4 1.68 4 1 4 C0.67 2.68 0.34 1.36 0 0 Z " fill="#EEBF19" transform="translate(537,15)"/>
<path d="M0 0 C0.99 0 1.98 0 3 0 C3.86366822 1.78710586 4.71568594 3.5798465 5.5625 5.375 C6.27599609 6.87160156 6.27599609 6.87160156 7.00390625 8.3984375 C7.33261719 9.25695312 7.66132813 10.11546875 8 11 C7.67 11.66 7.34 12.32 7 13 C3.98774933 8.91888619 2.69656731 5.99206574 2 1 C1.34 0.67 0.68 0.34 0 0 Z " fill="#10375A" transform="translate(162,163)"/>
<path d="M0 0 C9.41002278 -0.18451025 9.41002278 -0.18451025 14 1 C14 1.33 14 1.66 14 2 C8.97703996 3.13016601 5.02125926 2.77916092 0 2 C0 1.34 0 0.68 0 0 Z " fill="#163C5E" transform="translate(129,147)"/>
<path d="M0 0 C-0.66 1.65 -1.32 3.3 -2 5 C-3.32 5 -4.64 5 -6 5 C-6.66 4.34 -7.32 3.68 -8 3 C-2.25 0 -2.25 0 0 0 Z " fill="#F7B219" transform="translate(470,15)"/>
<path d="M0 0 C0 0.33 0 0.66 0 1 C-1.74784829 1.36463732 -3.49840502 1.7163078 -5.25 2.0625 C-6.71179688 2.35833984 -6.71179688 2.35833984 -8.203125 2.66015625 C-10.868119 2.98397535 -12.48871723 2.85503199 -15 2 C-9.67993436 -1.41029848 -5.94457613 -1.09644404 0 0 Z " fill="#0F3960" transform="translate(228,169)"/>
<path d="M0 0 C1.98 0 3.96 0 6 0 C2.4912812 3.09592835 -0.49197399 4.74194623 -5 6 C-5.33 5.01 -5.66 4.02 -6 3 C-4.02 3 -2.04 3 0 3 C0 2.01 0 1.02 0 0 Z " fill="#EFBA26" transform="translate(658,93)"/>
<path d="M0 0 C2.64 0 5.28 0 8 0 C5.31158141 2.25245881 3.35358125 3.88213958 0 5 C0 3.35 0 1.7 0 0 Z " fill="#F5B51F" transform="translate(914,60)"/>
<path d="M0 0 C3.33557632 2.9905167 5.15083921 5.93184627 7 10 C5.125 9.8125 5.125 9.8125 3 9 C1.51738586 6.11280405 0.70227415 3.16023369 0 0 Z " fill="#F0BD1F" transform="translate(917,48)"/>
<path d="M0 0 C-1 3 -1 3 -3.8125 4.75 C-7.13982105 6.05483179 -7.79584277 6.02866653 -11 5 C-9.54462432 4.16151196 -8.08559627 3.32936066 -6.625 2.5 C-5.81289063 2.0359375 -5.00078125 1.571875 -4.1640625 1.09375 C-2 0 -2 0 0 0 Z " fill="#F4B723" transform="translate(864,21)"/>
<path d="M0 0 C2.97 0.495 2.97 0.495 6 1 C5.67 1.66 5.34 2.32 5 3 C2.71484375 3.6328125 2.71484375 3.6328125 -0.0625 4.125 C-0.98160156 4.29257813 -1.90070312 4.46015625 -2.84765625 4.6328125 C-3.91306641 4.81457031 -3.91306641 4.81457031 -5 5 C-5 4.34 -5 3.68 -5 3 C-3.35 3 -1.7 3 0 3 C0 2.01 0 1.02 0 0 Z " fill="#F6B81B" transform="translate(522,60)"/>
<path d="M0 0 C1.77049689 -0.05410687 3.54146849 -0.09284119 5.3125 -0.125 C6.29863281 -0.14820313 7.28476562 -0.17140625 8.30078125 -0.1953125 C11 0 11 0 14 2 C4.58997722 3.51708428 4.58997722 3.51708428 0 1 C0 0.67 0 0.34 0 0 Z " fill="#F6B923" transform="translate(508,5)"/>
<path d="M0 0 C1.67542976 0.28604898 3.34385343 0.61781233 5 1 C3.35830472 3.02054804 1.69088222 5.02043058 0 7 C-0.33 7 -0.66 7 -1 7 C-1.04254356 5.00045254 -1.04080783 2.99958364 -1 1 C-0.67 0.67 -0.34 0.34 0 0 Z " fill="#093968" transform="translate(645,179)"/>
<path d="M0 0 C0.33 0.66 0.66 1.32 1 2 C0.34 2 -0.32 2 -1 2 C-1.66 3.32 -2.32 4.64 -3 6 C-4.98 6 -6.96 6 -9 6 C-6.11964908 3.75972706 -3.15133488 1.83827868 0 0 Z " fill="#F4B720" transform="translate(841,33)"/>
<path d="M0 0 C0.33 0 0.66 0 1 0 C1.33 1.98 1.66 3.96 2 6 C2.66 5.34 3.32 4.68 4 4 C3.67 5.65 3.34 7.3 3 9 C2.01 9.33 1.02 9.66 0 10 C-1.231394 6.30581799 -0.64432764 3.7943739 0 0 Z " fill="#0C3C6A" transform="translate(633,164)"/>
<path d="M0 0 C-2.85306797 2.32472205 -5.54074837 3.7508258 -9 5 C-8.6875 3.0625 -8.6875 3.0625 -8 1 C-5.07175348 0.02391783 -3.04386724 -0.08226668 0 0 Z " fill="#F2B725" transform="translate(501,71)"/>
<path d="M0 0 C0 3.58912412 -0.66436554 4.10857029 -3 6.6875 C-3.556875 7.31011719 -4.11375 7.93273437 -4.6875 8.57421875 C-5.120625 9.04472656 -5.55375 9.51523438 -6 10 C-6.33 9.34 -6.66 8.68 -7 8 C-4.69 5.36 -2.38 2.72 0 0 Z " fill="#103C69" transform="translate(35,157)"/>
<path d="M0 0 C2.94956528 1.36944102 5.52468811 2.87830409 8 5 C8 5.66 8 6.32 8 7 C5.6875 6.875 5.6875 6.875 3 6 C1.1875 2.9375 1.1875 2.9375 0 0 Z " fill="#093457" transform="translate(153,153)"/>
<path d="M0 0 C1.32 0.33 2.64 0.66 4 1 C4 1.66 4 2.32 4 3 C5.32 2.67 6.64 2.34 8 2 C8 3.32 8 4.64 8 6 C4.08597051 4.73058503 2.20927127 3.48832306 0 0 Z " fill="#F4BD1E" transform="translate(808,99)"/>
<path d="M0 0 C-2.6855594 2.6855594 -5.37621328 3.06049974 -9 4 C-9 3.34 -9 2.68 -9 2 C-8.34 2 -7.68 2 -7 2 C-7 1.34 -7 0.68 -7 0 C-4.3333581 -1.33332095 -2.83319697 -0.67102033 0 0 Z " fill="#F3B72A" transform="translate(723,61)"/>
<path d="M0 0 C-0.33 0.99 -0.66 1.98 -1 3 C-3.06640625 3.94921875 -3.06640625 3.94921875 -5.5625 4.6875 C-6.38878906 4.93886719 -7.21507812 5.19023438 -8.06640625 5.44921875 C-8.70449219 5.63097656 -9.34257813 5.81273437 -10 6 C-7.24414811 3.13166436 -4.18005857 0 0 0 Z " fill="#F1B826" transform="translate(853,27)"/>
<path d="M0 0 C0.33 1.32 0.66 2.64 1 4 C0.01 4.33 -0.98 4.66 -2 5 C-2 5.66 -2 6.32 -2 7 C-3.32 6.67 -4.64 6.34 -6 6 C-4 4 -2 2 0 0 Z " fill="#103860" transform="translate(502,234)"/>
<path d="M0 0 C1.0625 1.875 1.0625 1.875 2 4 C1.67 4.66 1.34 5.32 1 6 C-1.5625 6.625 -1.5625 6.625 -4 7 C-4 6.34 -4 5.68 -4 5 C-3.01 5 -2.02 5 -1 5 C-0.67 3.35 -0.34 1.7 0 0 Z " fill="#0C3A68" transform="translate(46,168)"/>
<path d="M0 0 C0 0.66 0 1.32 0 2 C-0.99 2.66 -1.98 3.32 -3 4 C-4.19232613 6.05003955 -4.19232613 6.05003955 -5 8 C-5.66 8 -6.32 8 -7 8 C-4.18918919 0 -4.18918919 0 0 0 Z " fill="#0C3B61" transform="translate(645,158)"/>
<path d="M0 0 C2.97 1.98 2.97 1.98 6 4 C5.67 5.32 5.34 6.64 5 8 C0 2.25 0 2.25 0 0 Z " fill="#F1B828" transform="translate(791,78)"/>
<path d="M0 0 C0.66 0.33 1.32 0.66 2 1 C1.01 2.485 1.01 2.485 0 4 C-3.625 4.6875 -3.625 4.6875 -7 5 C-2.25 1.125 -2.25 1.125 0 0 Z " fill="#F4BC26" transform="translate(389,60)"/>
<path d="M0 0 C-0.33 0.99 -0.66 1.98 -1 3 C-3.06640625 3.73046875 -3.06640625 3.73046875 -5.5625 4.1875 C-6.38878906 4.34605469 -7.21507812 4.50460938 -8.06640625 4.66796875 C-9.02353516 4.83232422 -9.02353516 4.83232422 -10 5 C-3.63636364 0 -3.63636364 0 0 0 Z " fill="#F4B81F" transform="translate(827,42)"/>
<path d="M0 0 C0.33 0.99 0.66 1.98 1 3 C0.01 3.495 0.01 3.495 -1 4 C-1.66 3.67 -2.32 3.34 -3 3 C-3.33 3.99 -3.66 4.98 -4 6 C-4.99 5.34 -5.98 4.68 -7 4 C-4.69 2.68 -2.38 1.36 0 0 Z " fill="#F4B727" transform="translate(659,21)"/>
</svg>
