<?xml version="1.0" encoding="UTF-8"?>
<svg version="1.1" xmlns="http://www.w3.org/2000/svg" width="962" height="259">
<path d="M0 0 C0.76558228 0.00270905 1.53116455 0.00541809 2.31994629 0.00820923 C14.2151435 0.07193682 25.31547943 0.95467074 36.75 4.4375 C38.03890066 4.79225518 39.32796159 5.14642865 40.6171875 5.5 C60.48062471 11.44664233 77.88107888 23.19492537 92.75 37.4375 C93.39195312 38.03949219 94.03390625 38.64148437 94.6953125 39.26171875 C96.09458696 40.60567306 97.43115455 42.01453518 98.75 43.4375 C98.75 44.0975 98.75 44.7575 98.75 45.4375 C99.41 45.4375 100.07 45.4375 100.75 45.4375 C102.42558129 47.52896297 103.97484022 49.61477345 105.5 51.8125 C105.95101074 52.45807861 106.40202148 53.10365723 106.86669922 53.76879883 C108.17172086 55.65135698 109.46296689 57.54261384 110.75 59.4375 C111.31460938 60.25863281 111.87921875 61.07976563 112.4609375 61.92578125 C120.70675723 74.750081 125.73777843 89.58249152 128.75 104.4375 C129.08644531 105.92443359 129.08644531 105.92443359 129.4296875 107.44140625 C135.87351545 140.58739799 127.16524396 176.05699079 108.53125 203.83203125 C91.61854111 227.20956184 69.07178118 244.37508235 41.75 253.75 C41.08766357 253.98041992 40.42532715 254.21083984 39.74291992 254.44824219 C26.85453694 258.61832833 13.90544244 259.99747164 0.4375 259.875 C-0.27889648 259.87195862 -0.99529297 259.86891724 -1.73339844 259.86578369 C-13.29115512 259.79351559 -24.16681959 258.86900308 -35.25 255.4375 C-35.96994141 255.22319336 -36.68988281 255.00888672 -37.43164062 254.78808594 C-60.24175067 247.86034695 -83.32326524 234.21169861 -98.25 215.4375 C-98.90355469 214.62410156 -99.55710937 213.81070313 -100.23046875 212.97265625 C-105.25 206.63061377 -105.25 206.63061377 -105.25 205.4375 C-104.20224899 205.43163376 -103.15449799 205.42576752 -102.07499695 205.41972351 C-92.11794205 205.36208355 -82.16109696 205.2891139 -72.20425701 205.20178509 C-67.08744114 205.15738196 -61.97069942 205.11806297 -56.85375977 205.09106445 C-51.89984973 205.06472735 -46.94622985 205.02412 -41.99250221 204.97431374 C-40.11867747 204.95784764 -38.24480279 204.94620915 -36.37091637 204.93988609 C-19.92722517 204.87888115 -3.94975409 203.17094915 11.9375 198.75 C12.85039795 198.49726318 13.7632959 198.24452637 14.70385742 197.98413086 C26.29171481 194.60852439 36.9570238 189.63683077 46.1484375 181.6875 C47.75 180.4375 47.75 180.4375 49.75 180.4375 C50.08 179.4475 50.41 178.4575 50.75 177.4375 C51.41 177.4375 52.07 177.4375 52.75 177.4375 C53.01167969 176.87289062 53.27335938 176.30828125 53.54296875 175.7265625 C54.85690623 173.23475874 56.39521642 171.08237166 58.0625 168.8125 C69.79583421 152.12725967 71.54510281 134.76941573 69.3515625 114.8125 C66.99682617 103.55869519 60.49523383 92.76362636 52.75 84.4375 C52.75 83.7775 52.75 83.1175 52.75 82.4375 C51.76 82.1075 50.77 81.7775 49.75 81.4375 C49.75 80.7775 49.75 80.1175 49.75 79.4375 C49.17894531 79.17453125 48.60789063 78.9115625 48.01953125 78.640625 C45.60387478 77.36003603 43.60612277 75.85048534 41.4375 74.1875 C27.9241473 64.62635385 11.16024054 60.67719191 -5.25 62.4375 C-7.26298544 62.91514111 -9.22959633 63.49054325 -11.21386719 64.07470703 C-14.35498588 64.97916303 -16.96745521 65.48966303 -20.25 65.4375 C-24.62731429 62.4182894 -27.45397698 58.99666224 -30.25 54.4375 C-30.25 53.7775 -30.25 53.1175 -30.25 52.4375 C-30.91 52.4375 -31.57 52.4375 -32.25 52.4375 C-33.7578125 50.9765625 -33.7578125 50.9765625 -35.375 49.0625 C-35.91382812 48.43601563 -36.45265625 47.80953125 -37.0078125 47.1640625 C-38.25 45.4375 -38.25 45.4375 -38.25 43.4375 C-38.91 43.4375 -39.57 43.4375 -40.25 43.4375 C-44.25 38.96691176 -44.25 38.96691176 -44.25 36.4375 C-44.91 36.4375 -45.57 36.4375 -46.25 36.4375 C-47.70659977 34.82367052 -49.09048951 33.14386784 -50.4375 31.4375 C-53.84707271 27.16174134 -57.33991176 23.02650781 -61.03515625 18.99609375 C-62.25 17.4375 -62.25 17.4375 -62.25 15.4375 C-42.05640684 5.49824209 -22.57858079 -0.18816507 0 0 Z " fill="#EB1B24" transform="translate(129.25,-0.4375)"/>
<path d="M0 0 C1.0621875 0.33773437 2.124375 0.67546875 3.21875 1.0234375 C12.49602341 4.1984267 20.15887489 9.23750597 28 15 C29.15822266 15.84691406 29.15822266 15.84691406 30.33984375 16.7109375 C48.83249617 31.61094784 59.07416536 54.86253859 61.7890625 77.95458984 C64.13186086 100.6721415 57.48824391 122.7930965 44 141 C41.13986913 144.48312968 38.14430139 147.77295383 35 151 C34.39671875 151.64195312 33.7934375 152.28390625 33.171875 152.9453125 C31.83026244 154.3455392 30.42227984 155.68178942 29 157 C28.34 157 27.68 157 27 157 C27 157.66 27 158.32 27 159 C5.01686354 174.83205218 -19.82048799 179.98720184 -46.59667969 176.67919922 C-50.89663481 175.88537619 -54.92193485 174.55209942 -59 173 C-60.11890625 172.62617188 -61.2378125 172.25234375 -62.390625 171.8671875 C-84.02693365 164.26932097 -102.15344041 147.3222023 -112.24609375 126.87109375 C-115.10108709 120.76075879 -117.18925598 114.49521943 -119 108 C-119.24621094 107.12601562 -119.49242187 106.25203125 -119.74609375 105.3515625 C-125.08000604 82.02949082 -119.33623124 57.47161251 -107.16015625 37.3515625 C-93.57503889 16.27374931 -73.3697157 2.63606643 -49.1875 -3.3125 C-47.7960458 -3.56690767 -46.39977671 -3.79630115 -45 -4 C-44.2471875 -4.12117188 -43.494375 -4.24234375 -42.71875 -4.3671875 C-28.3006408 -6.19170132 -13.65653384 -4.87259824 0 0 Z M-68 57 C-70.38258033 60.52120293 -72.25064312 64.1305616 -74 68 C-74.32742188 68.65484375 -74.65484375 69.3096875 -74.9921875 69.984375 C-79.79347606 80.68438951 -78.41887784 93.13699946 -75 104 C-73.53067266 107.46185729 -71.89352147 110.75182483 -70 114 C-69.34 114 -68.68 114 -68 114 C-67.773125 114.556875 -67.54625 115.11375 -67.3125 115.6875 C-61.69531225 125.58444985 -50.46816608 130.96398896 -40 134 C-26.12306102 136.67800577 -12.98275717 133.25594801 -1.375 125.4375 C6.87423201 119.16014948 12.55989048 110.7409417 16 101 C16.22429687 100.36835938 16.44859375 99.73671875 16.6796875 99.0859375 C20.1024877 87.69223272 18.20490016 74.86881727 12.875 64.375 C5.21166849 51.73279742 -5.04824193 44.28439815 -19 40 C-19.63164062 39.80535156 -20.26328125 39.61070313 -20.9140625 39.41015625 C-39.25503114 35.80378601 -55.8131581 43.57132101 -68 57 Z " fill="#EB1B24" transform="translate(410,43)"/>
<path d="M0 0 C99.95714286 0 99.95714286 0 115 13 C115 13.66 115 14.32 115 15 C115.99 15.33 116.98 15.66 118 16 C128.38412099 28.51956522 130.27727357 41.28117197 129 57 C127.86141868 64.35333771 124.51057938 71.09478465 120 77 C119.34 77 118.68 77 118 77 C117.505 78.485 117.505 78.485 117 80 C116.34 80 115.68 80 115 80 C115 80.66 115 81.32 115 82 C113.5 83.625 113.5 83.625 112 85 C112.99 85.2784375 112.99 85.2784375 114 85.5625 C122.3302475 89.55407693 128.72377591 97.03380326 132 105.62109375 C136.40030456 119.85861763 136.14598477 134.42401265 129.9375 148.25 C122.31240232 161.94778026 110.64667354 169.54138026 96 174 C66.54672212 182.19782901 23.50035414 177 0 177 C0 118.59 0 60.18 0 0 Z M43 36 C43 47.55 43 59.1 43 71 C47.82625 71.061875 52.6525 71.12375 57.625 71.1875 C59.13658691 71.21481201 60.64817383 71.24212402 62.20556641 71.27026367 C63.40874512 71.27775635 64.61192383 71.28524902 65.8515625 71.29296875 C67.68968506 71.31653442 67.68968506 71.31653442 69.56494141 71.34057617 C73.99039565 70.90180512 77.34514058 69.50942047 80.64453125 66.5 C85.53308903 60.22171843 85.69345926 54.75870361 85 47 C83.78674036 42.64153863 81.56419115 40.38442436 77.8125 37.828125 C71.444547 34.78610924 64.38698079 35.58206111 57.5 35.75 C50.3225 35.87375 50.3225 35.87375 43 36 Z M43 101 C43 114.53 43 128.06 43 142 C47.599375 142.061875 52.19875 142.12375 56.9375 142.1875 C59.08560181 142.22846802 59.08560181 142.22846802 61.27709961 142.27026367 C69.5543849 142.32395604 76.41171752 141.79773322 83.5625 137.4375 C84.036875 136.963125 84.51125 136.48875 85 136 C85 135.34 85 134.68 85 134 C85.66 134 86.32 134 87 134 C90.17295001 128.00822387 92.17786357 122.82432293 91 116 C89.05679681 109.72195893 85.28061165 105.75885903 80 102 C76.88019145 100.44009573 73.57076779 100.87885753 70.1484375 100.90234375 C69.11940308 100.90385437 69.11940308 100.90385437 68.06958008 100.90539551 C65.50470307 100.91063111 62.93984987 100.92459237 60.375 100.9375 C51.774375 100.9684375 51.774375 100.9684375 43 101 Z " fill="#EA1B24" transform="translate(659,41)"/>
<path d="M0 0 C0.59941406 0.50144531 1.19882812 1.00289062 1.81640625 1.51953125 C3 3 3 3 3 7 C2.34 7 1.68 7 1 7 C0.76152344 7.69351563 0.52304687 8.38703125 0.27734375 9.1015625 C-1.22896926 12.51955715 -3.23645301 15.38385538 -5.4375 18.375 C-5.87126953 18.97135254 -6.30503906 19.56770508 -6.75195312 20.18212891 C-7.67873957 21.45497292 -8.6076779 22.72625241 -9.53857422 23.99609375 C-11.05165843 26.07083401 -12.54474129 28.15892727 -14.03515625 30.25 C-15.02309957 31.62524282 -16.01137242 33.00024899 -17 34.375 C-17.46849365 35.0354834 -17.9369873 35.6959668 -18.41967773 36.37646484 C-19.56400349 37.95445414 -20.77611143 39.48288813 -22 41 C-22.66 41 -23.32 41 -24 41 C-25.48046875 39.4609375 -25.48046875 39.4609375 -27.1875 37.375 C-34.72734818 28.57851046 -44.10681826 21.40378539 -56 20 C-71.83322716 18.99471574 -82.3747601 22.20571301 -95.1875 31.25 C-104.35466738 40.21345255 -110.07383422 51.29252253 -110.49023438 64.18188477 C-110.54714512 78.7837596 -106.84988773 89.90535099 -96.6875 100.8125 C-85.46313166 111.26018214 -73.32539611 113.71597202 -58.49609375 113.2734375 C-46.94180091 112.69774492 -37.67576346 107.64083568 -29.4609375 99.4765625 C-27.57341012 97.36226505 -25.75257578 95.22680217 -24 93 C-20.8883129 94.33629973 -19.268859 95.59261124 -17.37109375 98.38671875 C-16.89833008 99.0710498 -16.42556641 99.75538086 -15.93847656 100.46044922 C-15.4431543 101.19537598 -14.94783203 101.93030273 -14.4375 102.6875 C-13.38044652 104.2263196 -12.32181679 105.76405747 -11.26171875 107.30078125 C-10.72466309 108.08146973 -10.18760742 108.8621582 -9.63427734 109.66650391 C-8.05086242 111.9273763 -6.42469976 114.14672543 -4.76953125 116.35546875 C-4.26172119 117.03327393 -3.75391113 117.7110791 -3.23071289 118.40942383 C-2.25977267 119.69830095 -1.28385627 120.98344768 -0.30249023 122.2644043 C3 126.67159862 3 126.67159862 3 130 C0.60712613 132.62834284 -2.23515745 134.77289791 -5 137 C-5.63550781 137.52078125 -6.27101563 138.0415625 -6.92578125 138.578125 C-14.57941232 144.59961528 -23.00533801 148.78420569 -32.0625 152.25 C-33.01672852 152.61931641 -33.01672852 152.61931641 -33.99023438 152.99609375 C-55.87637138 161.05589191 -81.23830832 158.68847509 -102.265625 149.33984375 C-125.37905371 138.01426368 -141.94570005 118.9837845 -150.6875 94.9375 C-158.22592987 72.11393451 -155.95393352 47.12905829 -145.6875 25.5625 C-142.34737164 19.27605755 -138.40285546 13.58300228 -134 8 C-133.33871094 7.1440625 -132.67742188 6.288125 -131.99609375 5.40625 C-117.94494034 -11.53212671 -95.51460205 -22.20307027 -73.9375 -24.6875 C-45.91702756 -26.82578725 -21.0860504 -18.41959477 0 0 Z " fill="#EB1B24" transform="translate(959,63)"/>
<path d="M0 0 C0.69351563 0.64195313 1.38703125 1.28390625 2.1015625 1.9453125 C3.01808594 2.69167969 3.01808594 2.69167969 3.953125 3.453125 C5.1015625 4.9453125 5.1015625 4.9453125 5.0078125 6.8125 C3.8579523 9.51863651 2.33211746 11.69434565 0.6015625 14.0703125 C-1.84326093 17.39000704 -1.84326093 17.39000704 -3.8984375 20.9453125 C-4.5584375 20.9453125 -5.2184375 20.9453125 -5.8984375 20.9453125 C-6.10597656 21.59886719 -6.31351563 22.25242188 -6.52734375 22.92578125 C-8.43221225 27.12083354 -11.07633786 30.58600275 -13.8359375 34.2578125 C-14.37412109 34.99837891 -14.91230469 35.73894531 -15.46679688 36.50195312 C-15.98951172 37.20126953 -16.51222656 37.90058594 -17.05078125 38.62109375 C-17.52507568 39.25958252 -17.99937012 39.89807129 -18.48803711 40.5559082 C-19.8984375 41.9453125 -19.8984375 41.9453125 -22.8984375 41.9453125 C-24.5546875 40.22265625 -24.5546875 40.22265625 -26.3984375 37.8828125 C-34.73907414 28.22043563 -45.72209371 22.9443084 -58.37890625 21.56640625 C-72.34800097 21.08578257 -85.36042595 25.64857689 -95.6484375 35.1953125 C-105.17821187 45.37688748 -109.35549031 57.82725183 -109.16796875 71.6015625 C-108.17883807 83.87251706 -103.30212785 94.7449139 -94.4375 103.328125 C-82.18027087 113.54876837 -69.97444564 116.00240713 -54.31591797 115.17919922 C-44.22502278 114.20292396 -35.31675425 108.58671094 -27.8984375 101.9453125 C-26.06161506 99.69180349 -24.51334869 97.36767928 -22.8984375 94.9453125 C-21.9084375 94.9453125 -20.9184375 94.9453125 -19.8984375 94.9453125 C-18.27443639 96.8897996 -16.8704807 98.78939541 -15.4609375 100.8828125 C-14.5756736 102.16156411 -13.69024957 103.44020487 -12.8046875 104.71875 C-12.33675781 105.40163086 -11.86882812 106.08451172 -11.38671875 106.78808594 C-9.83699486 109.03437208 -8.26237777 111.26120756 -6.6796875 113.484375 C-6.14400146 114.23726807 -5.60831543 114.99016113 -5.05639648 115.76586914 C-4.01171399 117.23385986 -2.9669577 118.70179808 -1.92211914 120.16967773 C0.56570621 123.68781039 2.95115113 127.20578357 5.1015625 130.9453125 C-3.80532877 141.13274724 -16.1499199 149.40962644 -28.8984375 153.9453125 C-29.82342041 154.28369141 -29.82342041 154.28369141 -30.76708984 154.62890625 C-54.06351253 162.84398978 -80.03948404 161.15404719 -102.2734375 150.6953125 C-111.26364773 145.86821251 -119.81463721 140.34112357 -126.8984375 132.9453125 C-127.60484375 132.23632812 -128.31125 131.52734375 -129.0390625 130.796875 C-146.94135784 111.9000077 -153.67497349 88.52778424 -153.1484375 62.8828125 C-152.4036299 43.54760717 -144.89816283 25.03068148 -132.8984375 9.9453125 C-132.2384375 9.9453125 -131.5784375 9.9453125 -130.8984375 9.9453125 C-130.62515625 9.34976563 -130.351875 8.75421875 -130.0703125 8.140625 C-122.60028583 -5.85322497 -102.29880069 -15.04227995 -88.00390625 -19.46875 C-57.22539447 -28.03419855 -24.20781036 -20.91015199 0 0 Z " fill="#EB1B24" transform="translate(637.8984375,61.0546875)"/>
<path d="M0 0 C6.95576998 1.24530514 13.60055165 2.97877987 20.3203125 5.15234375 C21.26381561 5.45314346 22.20731873 5.75394318 23.17941284 6.06385803 C25.15834216 6.6958832 27.13645398 7.33047335 29.11376953 7.9675293 C32.12220699 8.93660032 35.13310607 9.89768033 38.14453125 10.85742188 C40.07827364 11.47609811 42.01187239 12.09522352 43.9453125 12.71484375 C44.83509796 12.9993187 45.72488342 13.28379364 46.64163208 13.57688904 C48.31387361 14.11642012 49.98380419 14.66318512 51.65093994 15.21829224 C53.21310448 15.73814108 54.78110142 16.24078983 56.35443115 16.72579956 C61.69483526 18.48490475 61.69483526 18.48490475 63.1484375 20.93847656 C63.26058594 22.02854004 63.26058594 22.02854004 63.375 23.140625 C63.48875977 23.95756836 63.60251953 24.77451172 63.71972656 25.61621094 C63.8122168 26.48536133 63.90470703 27.35451172 64 28.25 C65.46175343 38.13748695 68.74213394 45.57720485 74 54 C73.7834375 52.52853516 73.7834375 52.52853516 73.5625 51.02734375 C72.24387558 41.6065832 71.75395469 32.51375205 72 23 C77.82539052 23.577565 83.0732438 24.74517841 88.64453125 26.51171875 C89.45379562 26.7624263 90.26306 27.01313385 91.09684753 27.2714386 C93.67074003 28.07050242 96.24160815 28.87884074 98.8125 29.6875 C100.49395112 30.21089566 102.17559063 30.73368646 103.85742188 31.25585938 C108.04977701 32.55943812 112.23852168 33.87422139 116.42633057 35.19232178 C119.10348214 36.03247514 121.78276138 36.86557728 124.46240234 37.69775391 C126.20803401 38.24242908 127.95364038 38.78718532 129.69921875 39.33203125 C130.51896683 39.58538742 131.3387149 39.83874359 132.18330383 40.09977722 C137.88668017 41.88668017 137.88668017 41.88668017 139 43 C139 48.94 139 54.88 139 61 C94.78 61 50.56 61 5 61 C0.11506736 47.97351295 -1.4742505 36.32963909 -1.28125 22.56176758 C-1.24949347 20.27604138 -1.24020087 17.99100537 -1.234375 15.70507812 C-1.1629896 4.25247502 -1.1629896 4.25247502 0 0 Z " fill="#EB1B24" transform="translate(1,109)"/>
<path d="M0 0 C4.76932233 3.95752278 9.1797614 8.11121526 13.49609375 12.55859375 C15.47441389 14.48753304 17.47148992 16.28275108 19.56640625 18.078125 C24.5922621 22.44059841 29.30008604 27.11400726 34.00292969 31.81762695 C35.52002025 33.33249086 37.04499737 34.83912592 38.5703125 36.34570312 C39.53694493 37.309408 40.50310897 38.27358298 41.46875 39.23828125 C42.33951172 40.10493408 43.21027344 40.97158691 44.10742188 41.86450195 C46 44 46 44 46 46 C43.16822541 48.13897412 40.27259619 50.12557309 37.328125 52.10351562 C33.5452294 54.70819687 30.6992174 57.2033735 28 61 C24.02727817 60.44648144 21.64437169 59.31959251 18.4375 56.9375 C14.86239737 54.31880307 11.24465789 51.79571691 7.55078125 49.34765625 C5.97985718 48.30460327 5.97985718 48.30460327 4.37719727 47.24047852 C3.82669708 46.8754422 3.2761969 46.51040588 2.70901489 46.13430786 C-0.22324383 44.18810825 -3.15036647 42.23420988 -6.078125 40.28125 C-7.26950776 39.48694393 -8.46091404 38.69267314 -9.65234375 37.8984375 C-15.1015625 34.265625 -20.55078125 30.6328125 -26 27 C-21.40063905 15.09906234 -9.70181946 7.65409937 0 0 Z " fill="#EA1B24" transform="translate(53,24)"/>
<path d="M0 0 C4.06664698 0.58376653 6.86802186 1.88761135 10.359375 4.02734375 C11.38498535 4.65020264 12.4105957 5.27306152 13.46728516 5.91479492 C14.55058105 6.5822876 15.63387695 7.24978027 16.75 7.9375 C19.00225592 9.30786419 21.25486143 10.67765398 23.5078125 12.046875 C24.61157227 12.72041016 25.71533203 13.39394531 26.85253906 14.08789062 C31.08718236 16.66047256 35.35001148 19.18270013 39.625 21.6875 C40.27952148 22.07220459 40.93404297 22.45690918 41.60839844 22.85327148 C45.72162442 25.26627089 49.85595147 27.64034255 54 30 C53.63446753 33.65532475 52.85384274 36.48716134 51.125 39.6875 C48.87933185 43.88592306 47.79114664 48.15786115 46.7109375 52.77734375 C46.47632813 53.51082031 46.24171875 54.24429688 46 55 C44 56 44 56 41.50756836 55.1706543 C40.46221924 54.72633057 39.41687012 54.28200684 38.33984375 53.82421875 C37.16470215 53.33034668 35.98956055 52.83647461 34.77880859 52.32763672 C33.49834688 51.78098424 32.21791126 51.23427065 30.9375 50.6875 C28.30478893 49.57608333 25.66990633 48.46985382 23.03515625 47.36328125 C22.36673706 47.08166138 21.69831787 46.8000415 21.00964355 46.5098877 C13.28196401 43.26125265 5.48768687 40.18330875 -2.31665039 37.1237793 C-3.28723389 36.7400415 -4.25781738 36.35630371 -5.2578125 35.9609375 C-6.1048877 35.62884277 -6.95196289 35.29674805 -7.82470703 34.95458984 C-10 34 -10 34 -13 32 C-11.73184302 20.37771428 -6.40690963 9.65580351 0 0 Z " fill="#E91B24" transform="translate(18,62)"/>
<path d="M0 0 C7.59861594 -0.15214827 15.19683913 -0.25721547 22.79663086 -0.32958984 C25.38174112 -0.35976055 27.96674904 -0.40070299 30.55151367 -0.45263672 C34.26767215 -0.5254326 37.98247734 -0.5594552 41.69921875 -0.5859375 C42.85459641 -0.61690521 44.00997406 -0.64787292 45.20036316 -0.67977905 C48.25021051 -0.68105794 51.01668938 -0.63816026 54 0 C54.81146484 0.98548828 55.62292969 1.97097656 56.45898438 2.98632812 C58.64550482 6.19990271 58.64550482 6.19990271 61.61152649 6.57284546 C65.07125374 6.78996937 68.49050391 6.830506 71.95703125 6.8046875 C73.21513107 6.81839386 74.4732309 6.83210022 75.76945496 6.84622192 C79.1024146 6.87724016 82.43340139 6.88264284 85.76635742 6.87554932 C89.17187841 6.87463506 92.57705759 6.9075138 95.98242188 6.9375 C102.65506912 6.98941067 109.32716943 7.00755175 116 7 C114.79618552 9.49361571 113.54571278 11.68143083 112 14 C111.34 14 110.68 14 110 14 C109.67 14.99 109.34 15.98 109 17 C108.34 17 107.68 17 107 17 C106.34 18.32 105.68 19.64 105 21 C92.70015163 21.18532111 80.40063503 21.32748734 68.09967518 21.41449738 C62.38780743 21.45625753 56.67689439 21.51290189 50.96557617 21.60351562 C45.45418097 21.69041068 39.94370417 21.73826789 34.43167686 21.75901794 C32.32839176 21.77380548 30.22515724 21.80268338 28.12226295 21.84584045 C25.17651244 21.90389334 22.23456014 21.91191471 19.28833008 21.90820312 C17.98281441 21.95134644 17.98281441 21.95134644 16.65092468 21.99536133 C14.18701002 21.961752 12.31444345 21.85262621 10 21 C7.7423001 18.58454829 6.37728792 15.9851197 5 13 C4.47792969 12.05511719 3.95585937 11.11023438 3.41796875 10.13671875 C3.01191406 9.32847656 2.60585937 8.52023438 2.1875 7.6875 C1.76855469 6.86636719 1.34960938 6.04523438 0.91796875 5.19921875 C0 3 0 3 0 0 Z " fill="#E51D25" transform="translate(9,177)"/>
<path d="M0 0 C6.08980572 0.42579129 10.44182033 3.26657847 15.5625 6.3125 C17.43345209 7.40388872 19.30455022 8.49502712 21.17578125 9.5859375 C22.6136499 10.43043457 22.6136499 10.43043457 24.08056641 11.29199219 C28.78312658 14.04321405 33.51711875 16.73889376 38.25 19.4375 C39.09377197 19.92065674 39.93754395 20.40381348 40.80688477 20.90161133 C46.18145079 23.97713749 51.58154734 27.00244235 57 30 C57 35.28 57 40.56 57 46 C49.13344051 44.87620579 49.13344051 44.87620579 45.9609375 43.5390625 C45.22979736 43.23774414 44.49865723 42.93642578 43.74536133 42.62597656 C42.96314209 42.2956543 42.18092285 41.96533203 41.375 41.625 C31.35461517 37.49799763 21.23872528 33.65277617 11.08935547 29.85791016 C4.63020395 27.42921264 -1.74263288 24.91289452 -8 22 C-7.83432041 13.71602066 -3.83270427 7.12502726 0 0 Z " fill="#E81B24" transform="translate(83,100)"/>
<path d="M0 0 C2.22265625 1.3203125 2.22265625 1.3203125 3.22265625 4.3203125 C4.21265625 4.6503125 5.20265625 4.9803125 6.22265625 5.3203125 C6.22265625 5.9803125 6.22265625 6.6403125 6.22265625 7.3203125 C7.21265625 7.6503125 8.20265625 7.9803125 9.22265625 8.3203125 C9.22265625 8.9803125 9.22265625 9.6403125 9.22265625 10.3203125 C10.70765625 10.8153125 10.70765625 10.8153125 12.22265625 11.3203125 C12.22265625 11.9803125 12.22265625 12.6403125 12.22265625 13.3203125 C13.21265625 13.6503125 14.20265625 13.9803125 15.22265625 14.3203125 C15.22265625 14.9803125 15.22265625 15.6403125 15.22265625 16.3203125 C15.795 16.58714844 16.36734375 16.85398437 16.95703125 17.12890625 C21.38887248 19.45944345 24.68716024 21.93148964 27.22265625 26.3203125 C28.21649138 31.92742288 27.68418473 37.67940881 27.22265625 43.3203125 C22.74659012 41.77449839 19.03887454 39.35022142 15.16015625 36.6953125 C13.8151371 35.78640959 12.47008464 34.87755598 11.125 33.96875 C10.46226074 33.51854492 9.79952148 33.06833984 9.11669922 32.60449219 C6.49572692 30.8274473 3.85961895 29.07351701 1.22265625 27.3203125 C-2.11580183 25.09618989 -5.45213474 22.86897642 -8.78515625 20.63671875 C-9.46835938 20.17974609 -10.1515625 19.72277344 -10.85546875 19.25195312 C-12.19724075 18.35445105 -13.53840893 17.45604545 -14.87890625 16.55664062 C-18.24085142 14.29173433 -18.24085142 14.29173433 -21.77734375 12.3203125 C-19.36279856 5.55958598 -11.42924831 3.04111618 -5.4609375 0.078125 C-2.77734375 -0.6796875 -2.77734375 -0.6796875 0 0 Z " fill="#E81B24" transform="translate(112.77734375,81.6796875)"/>
<path d="M0 0 C1.98 0.495 1.98 0.495 4 1 C4 6.94 4 12.88 4 19 C-40.22 19 -84.44 19 -130 19 C-130.99 16.36 -131.98 13.72 -133 11 C-132.67 10.34 -132.34 9.68 -132 9 C-130.5 10.125 -130.5 10.125 -129 12 C-129 13.98 -129 15.96 -129 18 C-85.44 18 -41.88 18 3 18 C3 12.72 3 7.44 3 2 C2.01 2 1.02 2 0 2 C0 1.34 0 0.68 0 0 Z " fill="#D12029" transform="translate(136,151)"/>
<path d="M0 0 C26.4 0 52.8 0 80 0 C79.67 0.66 79.34 1.32 79 2 C78.08989166 2.00586624 77.17978333 2.01173248 76.24209595 2.01777649 C67.67774764 2.07560804 59.1136628 2.14762931 50.54957008 2.23571491 C46.14634647 2.28050017 41.74321713 2.31973794 37.33984375 2.34643555 C33.0927148 2.37238767 28.84594708 2.41273162 24.59904099 2.46318626 C22.97632708 2.47991002 21.35355062 2.49138988 19.73076248 2.49761391 C17.46286121 2.5071957 15.19589561 2.53518101 12.92822266 2.56762695 C11.63582672 2.57873001 10.34343079 2.58983307 9.01187134 2.60127258 C7.52099503 2.79864265 7.52099503 2.79864265 6 3 C5.01 4.485 5.01 4.485 4 6 C0 1.125 0 1.125 0 0 Z " fill="#C5262D" transform="translate(24,205)"/>
<path d="M0 0 C19.8 0.495 19.8 0.495 40 1 C40 1.99 40 2.98 40 4 C39.5059668 3.84152588 39.01193359 3.68305176 38.50292969 3.51977539 C35.00229213 2.7928092 31.51471158 2.76340357 27.953125 2.68359375 C26.92711182 2.65561707 26.92711182 2.65561707 25.88037109 2.6270752 C23.33703939 2.55902572 20.79350528 2.49871897 18.25 2.4375 C9.71125 2.2209375 9.71125 2.2209375 1 2 C1 15.53 1 29.06 1 43 C0.67 43 0.34 43 0 43 C0 28.81 0 14.62 0 0 Z " fill="#D71E28" transform="translate(701,140)"/>
<path d="M0 0 C4.18090413 -0.02480683 8.36176872 -0.04291049 12.54272461 -0.05493164 C13.96363064 -0.05994565 15.38453156 -0.06675852 16.80541992 -0.07543945 C18.85336576 -0.08763388 20.9012431 -0.09325772 22.94921875 -0.09765625 C24.17987061 -0.10289307 25.41052246 -0.10812988 26.6784668 -0.11352539 C30.42073218 0.01438004 33.63481092 0.31740546 37 2 C37.625 4.0625 37.625 4.0625 38 6 C37.236875 5.690625 36.47375 5.38125 35.6875 5.0625 C31.29198338 3.32473762 27.86936773 2.82314588 23.14453125 2.68359375 C22.48289474 2.66281265 21.82125824 2.64203156 21.13957214 2.62062073 C19.03065148 2.55535273 16.92160865 2.49634656 14.8125 2.4375 C13.38084685 2.39429311 11.94920596 2.35067812 10.51757812 2.30664062 C7.01184846 2.19969494 3.50598214 2.09836359 0 2 C0 1.34 0 0.68 0 0 Z " fill="#C51E26" transform="translate(702,75)"/>
<path d="M0 0 C5.15464734 0.48324819 8.81550319 3.18610761 13 6 C12.38511719 6.15210937 11.77023438 6.30421875 11.13671875 6.4609375 C9.6893495 6.82608733 8.24778575 7.21491836 6.8125 7.625 C6.214375 7.74875 5.61625 7.8725 5 8 C4.67 7.67 4.34 7.34 4 7 C1.66702567 6.95907063 -0.66705225 6.95758277 -3 7 C-2.38722388 4.03824877 -1.74627478 2.61941217 0 0 Z " fill="#E51C28" transform="translate(18,62)"/>
<path d="M0 0 C0 2.83967231 -0.40267181 5.23735711 -1 8 C-0.34 8 0.32 8 1 8 C0.67 8.99 0.34 9.98 0 11 C-0.33 10.67 -0.66 10.34 -1 10 C-1.61875 10.825 -2.2375 11.65 -2.875 12.5 C-3.57625 13.325 -4.2775 14.15 -5 15 C-5.66 15 -6.32 15 -7 15 C-7 15.66 -7 16.32 -7 17 C-7.66 17 -8.32 17 -9 17 C-8.43310319 12.6852854 -6.88294703 9.86348525 -4.5 6.25 C-3.55640625 4.80367188 -3.55640625 4.80367188 -2.59375 3.328125 C-1 1 -1 1 0 0 Z " fill="#DD1D26" transform="translate(822,75)"/>
<path d="M0 0 C1.258125 0.12375 2.51625 0.2475 3.8125 0.375 C4.87404297 0.47941406 4.87404297 0.47941406 5.95703125 0.5859375 C8 1 8 1 11 3 C8.03 2.67 5.06 2.34 2 2 C2 9.26 2 16.52 2 24 C1.67 24 1.34 24 1 24 C-0.12513633 15.98340366 -0.09579384 8.07861415 0 0 Z " fill="#C52329" transform="translate(73,132)"/>
<path d="M0 0 C8.22492784 3.98121507 16.16219859 8.30287788 24 13 C20.37673261 14.2077558 19.35853631 13.54311128 16 12 C16 11.34 16 10.68 16 10 C15.401875 10.20625 14.80375 10.4125 14.1875 10.625 C12 11 12 11 9 9 C9 8.34 9 7.68 9 7 C5.7508723 4.6791945 2.94120709 3.56302958 -1 3 C-0.67 2.01 -0.34 1.02 0 0 Z " fill="#CF1E25" transform="translate(112,115)"/>
<path d="M0 0 C0.66 0 1.32 0 2 0 C2.76953125 1.703125 2.76953125 1.703125 3 4 C1.19921875 6.359375 1.19921875 6.359375 -1.3125 8.75 C-2.54419922 9.94882813 -2.54419922 9.94882813 -3.80078125 11.171875 C-6 13 -6 13 -8 13 C-8 11.35 -8 9.7 -8 8 C-6.35 8 -4.7 8 -3 8 C-3.33 7.01 -3.66 6.02 -4 5 C-2.1875 2.3125 -2.1875 2.3125 0 0 Z " fill="#D91E27" transform="translate(224,213)"/>
<path d="M0 0 C0 0.66 0 1.32 0 2 C-0.99 2 -1.98 2 -3 2 C-3 2.66 -3 3.32 -3 4 C-3.66 4 -4.32 4 -5 4 C-5 4.66 -5 5.32 -5 6 C-5.66 6 -6.32 6 -7 6 C-7.33 6.99 -7.66 7.98 -8 9 C-8.33 8.34 -8.66 7.68 -9 7 C-9.556875 7.66 -10.11375 8.32 -10.6875 9 C-13 11 -13 11 -15.75 11.25 C-16.4925 11.1675 -17.235 11.085 -18 11 C-13.90793979 6.20241216 -6.54758015 0 0 0 Z " fill="#D41C29" transform="translate(538,47)"/>
<path d="M0 0 C0 0.99 0 1.98 0 3 C0.99 3.66 1.98 4.32 3 5 C2.34 5.66 1.68 6.32 1 7 C1 7.99 1 8.98 1 10 C-1.66666667 10 -4.33333333 10 -7 10 C-5.6062718 5.56541027 -3.39417765 3.12621626 0 0 Z " fill="#DB1D28" transform="translate(34,41)"/>
<path d="M0 0 C5.445 0.495 5.445 0.495 11 1 C11 1.33 11 1.66 11 2 C2.93657535 4.24819963 -4.72869701 4.23179097 -13.0625 4.125 C-14.41861315 4.11494631 -15.77473355 4.1058247 -17.13085938 4.09765625 C-20.420761 4.07424058 -23.71028438 4.04144423 -27 4 C-27 3.67 -27 3.34 -27 3 C-18.09 2.67 -9.18 2.34 0 2 C0 1.34 0 0.68 0 0 Z " fill="#D31F28" transform="translate(393,216)"/>
<path d="M0 0 C5.11906974 4.63915695 9.34731634 10.14482966 13 16 C13 16.99 13 17.98 13 19 C12.34 19 11.68 19 11 19 C10.34 18.34 9.68 17.68 9 17 C8.34 16.67 7.68 16.34 7 16 C6.59270772 13.67843403 6.25561323 11.3431213 6 9 C5.34 9 4.68 9 4 9 C0 2.25 0 2.25 0 0 Z " fill="#D21F2B" transform="translate(949,174)"/>
<path d="M0 0 C6.54849313 1.16204993 12.74538144 2.73383385 19 5 C19 5.33 19 5.66 19 6 C14.87314168 7.56820616 12.84449854 8.31277724 8.625 6.75 C6 5 6 5 5 3 C3.35636866 2.27840576 1.68949614 1.60648579 0 1 C0 0.67 0 0.34 0 0 Z " fill="#D71B23" transform="translate(84,135)"/>
<path d="M0 0 C0.33 0 0.66 0 1 0 C0.98839844 0.80824219 0.97679687 1.61648437 0.96484375 2.44921875 C0.95582031 3.51785156 0.94679688 4.58648437 0.9375 5.6875 C0.92589844 6.74324219 0.91429687 7.79898438 0.90234375 8.88671875 C0.91101923 11.93733038 0.91101923 11.93733038 1.53125 14.625 C2.24826791 18.25789072 1.55583928 21.35616472 1 25 C0.34 25 -0.32 25 -1 25 C-1.02917228 21.77085248 -1.04685663 18.54173917 -1.0625 15.3125 C-1.07087891 14.40048828 -1.07925781 13.48847656 -1.08789062 12.54882812 C-1.09111328 11.66259766 -1.09433594 10.77636719 -1.09765625 9.86328125 C-1.10289307 9.05157471 -1.10812988 8.23986816 -1.11352539 7.40356445 C-0.9929791 4.85135327 -0.559949 2.48973863 0 0 Z " fill="#CE2128" transform="translate(290,114)"/>
<path d="M0 0 C-0.33 1.32 -0.66 2.64 -1 4 C-1.66 4 -2.32 4 -3 4 C-3 3.34 -3 2.68 -3 2 C-3.66 2.433125 -4.32 2.86625 -5 3.3125 C-8.50042275 5.2814878 -12.09515984 7.00008508 -16 8 C-16.66 7.67 -17.32 7.34 -18 7 C-14.98568679 4.57714777 -11.94482561 2.87243634 -8.4375 1.25 C-7.01244141 0.57710938 -7.01244141 0.57710938 -5.55859375 -0.109375 C-3 -1 -3 -1 0 0 Z " fill="#D41E27" transform="translate(113,82)"/>
<path d="M0 0 C11.88 0 23.76 0 36 0 C36 0.99 36 1.98 36 3 C35.49243164 2.84152588 34.98486328 2.68305176 34.46191406 2.51977539 C31.18677364 1.82830633 27.94303931 1.7656084 24.609375 1.68359375 C23.90476135 1.66281265 23.20014771 1.64203156 22.47418213 1.62062073 C20.23288319 1.55546163 17.99147136 1.49639752 15.75 1.4375 C14.22655103 1.39428274 12.70311329 1.35066743 11.1796875 1.30664062 C7.45324409 1.19981509 3.72667506 1.09845361 0 1 C0 0.67 0 0.34 0 0 Z " fill="#C62229" transform="translate(705,141)"/>
<path d="M0 0 C12.65822785 5.3164557 12.65822785 5.3164557 14 8 C12.68 8 11.36 8 10 8 C9.67 8.66 9.34 9.32 9 10 C7 8.1875 7 8.1875 5 6 C5 5.01 5 4.02 5 3 C3.35 2.67 1.7 2.34 0 2 C0 1.34 0 0.68 0 0 Z " fill="#D8202A" transform="translate(932,46)"/>
<path d="M0 0 C2 2 2 2 2.125 5.125 C2.08375 6.07375 2.0425 7.0225 2 8 C0.68 8.33 -0.64 8.66 -2 9 C-2.33 11.31 -2.66 13.62 -3 16 C-3.66 16 -4.32 16 -5 16 C-4.54762239 14.08191891 -4.08785537 12.16557967 -3.625 10.25 C-3.24214844 8.64898437 -3.24214844 8.64898437 -2.8515625 7.015625 C-2.12466459 4.44147278 -1.2973776 2.32399814 0 0 Z " fill="#DB1C22" transform="translate(812,92)"/>
<path d="M0 0 C4.66666667 4 9.33333333 8 14 12 C11.66666667 12 9.33333333 12 7 12 C6.7525 11.4225 6.505 10.845 6.25 10.25 C5.07542932 7.88006584 5.07542932 7.88006584 2.9375 6 C0.87112778 3.86697061 0.57009381 2.82108277 0 0 Z " fill="#DE181D" transform="translate(59,30)"/>
<path d="M0 0 C2 1 2 1 2.9375 3.5625 C3.02464603 8.35553178 0.93854448 11.31278177 -2 15 C-2.33 15 -2.66 15 -3 15 C-3 13.35 -3 11.7 -3 10 C-2.01 10 -1.02 10 0 10 C-0.33 9.34 -0.66 8.68 -1 8 C-1.33 7.01 -1.66 6.02 -2 5 C-1.34 4.01 -0.68 3.02 0 2 C0 1.34 0 0.68 0 0 Z " fill="#E11820" transform="translate(456,169)"/>
<path d="M0 0 C0.33 0.66 0.66 1.32 1 2 C1.99 2.33 2.98 2.66 4 3 C1.36 5.31 -1.28 7.62 -4 10 C-4.99 9.34 -5.98 8.68 -7 8 C-6.1875 6.0625 -6.1875 6.0625 -5 4 C-4.01 3.67 -3.02 3.34 -2 3 C-1.34 3.33 -0.68 3.66 0 4 C0 2.68 0 1.36 0 0 Z " fill="#D91D24" transform="translate(348,89)"/>
<path d="M0 0 C4.63112437 0.52286888 7.85571666 0.92785833 12 3 C12 4.65 12 6.3 12 8 C7.44328408 6.48109469 3.68276708 4.04597738 0 1 C0 0.67 0 0.34 0 0 Z " fill="#DB1F2A" transform="translate(52,233)"/>
<path d="M0 0 C1.32 1.32 2.64 2.64 4 4 C3.04578192 5.14926266 2.08647955 6.29430541 1.125 7.4375 C0.59132813 8.07558594 0.05765625 8.71367187 -0.4921875 9.37109375 C-2 11 -2 11 -4 12 C-3.67 10.02 -3.34 8.04 -3 6 C-2.01 6 -1.02 6 0 6 C0 4.02 0 2.04 0 0 Z " fill="#CF1F29" transform="translate(639,187)"/>
<path d="M0 0 C2 1 2 1 3.125 3.375 C4 6 4 6 4 9 C6.475 9.99 6.475 9.99 9 11 C8.67 12.65 8.34 14.3 8 16 C5.34154327 13.62999752 3.88838209 11.18015846 2.3125 8 C1.87550781 7.13375 1.43851563 6.2675 0.98828125 5.375 C0 3 0 3 0 0 Z " fill="#D51D24" transform="translate(811,162)"/>
<path d="M0 0 C3.68754757 0.49831724 5.60490662 1.10067643 8 4 C7.01 4.33 6.02 4.66 5 5 C4.01 4.01 3.02 3.02 2 2 C1.67 3.32 1.34 4.64 1 6 C-0.32 6.33 -1.64 6.66 -3 7 C-2.38722388 4.03824877 -1.74627478 2.61941217 0 0 Z " fill="#CE2028" transform="translate(18,62)"/>
<path d="M0 0 C4.52615993 3.67832017 8.39424999 7.41086363 12 12 C11.4225 11.690625 10.845 11.38125 10.25 11.0625 C8.15705816 10.07416636 6.25464725 9.4831387 4 9 C3.938125 8.38125 3.87625 7.7625 3.8125 7.125 C3.171081 4.72238859 3.171081 4.72238859 0.4375 3.75 C-0.366875 3.5025 -1.17125 3.255 -2 3 C-1 1 -1 1 0 0 Z " fill="#C92127" transform="translate(79,49)"/>
<path d="M0 0 C6.26480445 1.74732641 10.88233868 3.97120279 16 8 C13.53721199 9.231394 11.7204945 9.07159196 9 9 C8.91878906 8.37609375 8.83757813 7.7521875 8.75390625 7.109375 C8.20570556 4.8507553 8.20570556 4.8507553 6.15234375 3.953125 C5.42144531 3.72109375 4.69054687 3.4890625 3.9375 3.25 C3.20402344 3.00765625 2.47054687 2.7653125 1.71484375 2.515625 C1.14894531 2.34546875 0.58304688 2.1753125 0 2 C0 1.34 0 0.68 0 0 Z " fill="#C91E2A" transform="translate(756,45)"/>
<path d="M0 0 C5.6847995 3.72272303 5.6847995 3.72272303 6.49511719 7.00634766 C6.58977776 9.30008525 6.5247641 11.52187731 6.375 13.8125 C6.33439453 14.99489258 6.33439453 14.99489258 6.29296875 16.20117188 C6.22263676 18.13530157 6.11502458 20.06801304 6 22 C5.01 21.67 4.02 21.34 3 21 C3.66 20.67 4.32 20.34 5 20 C4.94014621 17.70759993 4.85140973 15.41593794 4.75 13.125 C4.70359375 11.84882812 4.6571875 10.57265625 4.609375 9.2578125 C4.37444944 5.90811895 4.37444944 5.90811895 1.953125 4.5546875 C1.30859375 4.37164062 0.6640625 4.18859375 0 4 C0 2.68 0 1.36 0 0 Z " fill="#BF1A24" transform="translate(134,103)"/>
<path d="M0 0 C-3 3 -6 6 -9 9 C-8.125 2.25 -8.125 2.25 -7 0 C-2.52459016 -1.26229508 -2.52459016 -1.26229508 0 0 Z " fill="#D31E24" transform="translate(546,93)"/>
<path d="M0 0 C3 3.625 3 3.625 3 7 C2.34 7.66 1.68 8.32 1 9 C0.34 8.67 -0.32 8.34 -1 8 C-1.33 8.66 -1.66 9.32 -2 10 C-2.66 10 -3.32 10 -4 10 C-2.8905928 6.51329166 -1.73662334 3.22515763 0 0 Z " fill="#DB1C24" transform="translate(300,85)"/>
<path d="M0 0 C2.97 1.65 5.94 3.3 9 5 C7.68 5.33 6.36 5.66 5 6 C4.01 7.485 4.01 7.485 3 9 C2.34 9 1.68 9 1 9 C0.67 7.68 0.34 6.36 0 5 C0.66 5 1.32 5 2 5 C2 4.01 2 3.02 2 2 C1.34 2 0.68 2 0 2 C0 1.34 0 0.68 0 0 Z " fill="#DB1D23" transform="translate(35,71)"/>
<path d="M0 0 C0.66 0.33 1.32 0.66 2 1 C2 1.66 2 2.32 2 3 C1.34 3 0.68 3 0 3 C0 4.65 0 6.3 0 8 C-1.98 6.35 -3.96 4.7 -6 3 C-3.375 0 -3.375 0 0 0 Z " fill="#DD1F28" transform="translate(613,91)"/>
<path d="M0 0 C2.64 0 5.28 0 8 0 C7.44570313 0.27585937 6.89140625 0.55171875 6.3203125 0.8359375 C4.70678358 1.64541834 3.09770115 2.46379847 1.4921875 3.2890625 C0.62851562 3.72992188 -0.23515625 4.17078125 -1.125 4.625 C-1.99382812 5.07101563 -2.86265625 5.51703125 -3.7578125 5.9765625 C-6 7 -6 7 -8 7 C-8 6.01 -8 5.02 -8 4 C-2.25 2 -2.25 2 0 2 C0 1.34 0 0.68 0 0 Z " fill="#D21D26" transform="translate(361,83)"/>
<path d="M0 0 C6 4 6 4 12 8 C11.67 8.66 11.34 9.32 11 10 C9.35 9.67 7.7 9.34 6 9 C6 8.34 6 7.68 6 7 C5.01 6.67 4.02 6.34 3 6 C3.33 5.67 3.66 5.34 4 5 C3.01 4.67 2.02 4.34 1 4 C0.3125 1.9375 0.3125 1.9375 0 0 Z " fill="#D11B26" transform="translate(203,22)"/>
<path d="M0 0 C1.65 0.33 3.3 0.66 5 1 C0.8310781 4.64780666 -4.44803736 7 -10 7 C-10 6.34 -10 5.68 -10 5 C-3.375 2 -3.375 2 0 2 C0 1.34 0 0.68 0 0 Z " fill="#CE1E26" transform="translate(930,210)"/>
<path d="M0 0 C1.32 0.66 2.64 1.32 4 2 C0.80009492 4.74277578 -2.00499382 6.6302836 -6 8 C-5.75 5.625 -5.75 5.625 -5 3 C-3 1.75 -3 1.75 -1 1 C-0.67 0.67 -0.34 0.34 0 0 Z " fill="#DA1F26" transform="translate(942,203)"/>
<path d="M0 0 C1.98 0.66 3.96 1.32 6 2 C6 2.66 6 3.32 6 4 C6.763125 4.144375 7.52625 4.28875 8.3125 4.4375 C11 5 11 5 14 6 C14 6.66 14 7.32 14 8 C12.41375765 7.57316761 10.8310902 7.13303842 9.25 6.6875 C8.36828125 6.44386719 7.4865625 6.20023437 6.578125 5.94921875 C3.91330085 4.96807895 2.09728362 3.906176 0 2 C0 1.34 0 0.68 0 0 Z " fill="#D41E27" transform="translate(18,97)"/>
<path d="M0 0 C1.0625 1.8125 1.0625 1.8125 2 4 C1.67 4.99 1.34 5.98 1 7 C-2.43595166 5.47291037 -5.11912454 3.40072955 -8 1 C-6.68 1 -5.36 1 -4 1 C-4 1.66 -4 2.32 -4 3 C-3.01 2.67 -2.02 2.34 -1 2 C-0.67 1.34 -0.34 0.68 0 0 Z " fill="#D82129" transform="translate(173,68)"/>
<path d="M0 0 C1.32 0 2.64 0 4 0 C4 0.66 4 1.32 4 2 C6.97 2.495 6.97 2.495 10 3 C10 3.99 10 4.98 10 6 C10.99 6 11.98 6 13 6 C13.33 6.99 13.66 7.98 14 9 C10.40241608 7.67726488 7.36262865 6.0805802 4.1875 3.9375 C3.39730469 3.41027344 2.60710938 2.88304687 1.79296875 2.33984375 C1.20128906 1.89769531 0.60960937 1.45554688 0 1 C0 0.67 0 0.34 0 0 Z " fill="#D12127" transform="translate(37,57)"/>
<path d="M0 0 C1.98 0.66 3.96 1.32 6 2 C6 2.66 6 3.32 6 4 C7.98 3.67 9.96 3.34 12 3 C11.67 4.65 11.34 6.3 11 8 C9.35048774 7.04801289 7.70548492 6.08820855 6.0625 5.125 C5.14597656 4.59132813 4.22945312 4.05765625 3.28515625 3.5078125 C1 2 1 2 0 0 Z " fill="#D11F27" transform="translate(125,115)"/>
<path d="M0 0 C0.99 0 1.98 0 3 0 C3 1.98 3 3.96 3 6 C-0.63 5.01 -4.26 4.02 -8 3 C-8 2.67 -8 2.34 -8 2 C-5.69 2 -3.38 2 -1 2 C-0.67 1.34 -0.34 0.68 0 0 Z " fill="#D91D27" transform="translate(595,81)"/>
<path d="M0 0 C1.98 0.66 3.96 1.32 6 2 C6.33 1.34 6.66 0.68 7 0 C7.33 0.99 7.66 1.98 8 3 C5.69 4.32 3.38 5.64 1 7 C0.67 4.69 0.34 2.38 0 0 Z " fill="#D61E25" transform="translate(91,67)"/>
<path d="M0 0 C2.21736634 1.10868317 4.03617993 2.49440461 6 4 C4.02 5.32 2.04 6.64 0 8 C-0.66 7.67 -1.32 7.34 -2 7 C-1.34 6.01 -0.68 5.02 0 4 C0 2.68 0 1.36 0 0 Z " fill="#D51E26" transform="translate(196,234)"/>
<path d="M0 0 C2.1385485 2.1385485 2.42655063 3.13275314 3 6 C2.34 6 1.68 6 1 6 C1 6.66 1 7.32 1 8 C-0.32 7.34 -1.64 6.68 -3 6 C-3 3 -3 3 -1.5 1.3125 C-0.7575 0.6628125 -0.7575 0.6628125 0 0 Z " fill="#E11E29" transform="translate(325,194)"/>
<path d="M0 0 C0.33 0 0.66 0 1 0 C0.6083965 5.95507399 -0.37124595 10.62819824 -3 16 C-4.0326802 13.21176345 -4.04509293 12.1322726 -3.0625 9.25 C-2.711875 8.5075 -2.36125 7.765 -2 7 C-2.66 6.67 -3.32 6.34 -4 6 C-2.68 5.67 -1.36 5.34 0 5 C0 3.35 0 1.7 0 0 Z " fill="#CD1B24" transform="translate(791,175)"/>
<path d="M0 0 C0 5 0 5 -1.125 6.625 C-3.75887944 8.55651159 -5.81916956 8.21205536 -9 8 C-6.17493137 5.0702992 -3.21203935 2.49825283 0 0 Z " fill="#D61C24" transform="translate(929,163)"/>
<path d="M0 0 C0.33 0 0.66 0 1 0 C1 3.63 1 7.26 1 11 C0.67 11 0.34 11 0 11 C-0.33 9.35 -0.66 7.7 -1 6 C-1.66 6.66 -2.32 7.32 -3 8 C-3.99 7.67 -4.98 7.34 -6 7 C-5.34 7 -4.68 7 -4 7 C-3.67 5.68 -3.34 4.36 -3 3 C-2.01 3 -1.02 3 0 3 C0 2.01 0 1.02 0 0 Z " fill="#EE151E" transform="translate(138,133)"/>
<path d="M0 0 C1.32 0.66 2.64 1.32 4 2 C1.69 3.65 -0.62 5.3 -3 7 C-3.33 5.68 -3.66 4.36 -4 3 C-3.01 3 -2.02 3 -1 3 C-0.67 2.01 -0.34 1.02 0 0 Z " fill="#D81C28" transform="translate(432,200)"/>
<path d="M0 0 C0 4.71428571 0 4.71428571 -1 7 C-4.20883825 8.95320589 -6.2205439 10 -10 10 C-9.0925 9.278125 -8.185 8.55625 -7.25 7.8125 C-4.4298006 5.47347206 -2.19093342 2.94933345 0 0 Z " fill="#CA1C25" transform="translate(614,158)"/>
<path d="M0 0 C3.35620271 1.38877354 5.07298728 2.91677965 7 6 C7 6.66 7 7.32 7 8 C5.68 8 4.36 8 3 8 C2.67 6.02 2.34 4.04 2 2 C1.01 2.33 0.02 2.66 -1 3 C-0.67 2.01 -0.34 1.02 0 0 Z " fill="#D41E26" transform="translate(935,156)"/>
<path d="M0 0 C0 0.99 0 1.98 0 3 C-3.98060777 4.17076699 -7.91621717 5.25749403 -12 6 C-9.1490916 2.47828963 -4.56486714 0 0 0 Z " fill="#CC1C26" transform="translate(864,44)"/>
<path d="M0 0 C-0.598125 0.268125 -1.19625 0.53625 -1.8125 0.8125 C-4.05510787 1.8694745 -4.05510787 1.8694745 -5.5 3.6875 C-5.995 4.120625 -6.49 4.55375 -7 5 C-9.1875 4.6875 -9.1875 4.6875 -11 4 C-11 3.34 -11 2.68 -11 2 C-9.73392393 1.46770674 -8.46189588 0.94955456 -7.1875 0.4375 C-6.47980469 0.14746094 -5.77210938 -0.14257812 -5.04296875 -0.44140625 C-3 -1 -3 -1 0 0 Z " fill="#D71C26" transform="translate(356,43)"/>
<path d="M0 0 C2.02910711 0.25327449 4.04962145 0.57730068 6.0625 0.9375 C7.16722656 1.13214844 8.27195313 1.32679688 9.41015625 1.52734375 C10.69212891 1.76130859 10.69212891 1.76130859 12 2 C12 2.33 12 2.66 12 3 C11.37351563 3.04898437 10.74703125 3.09796875 10.1015625 3.1484375 C9.28429687 3.22320312 8.46703125 3.29796875 7.625 3.375 C6.81289062 3.44460938 6.00078125 3.51421875 5.1640625 3.5859375 C2.79665809 3.82892588 2.79665809 3.82892588 1 6 C0.34 4.35 -0.32 2.7 -1 1 C-0.67 0.67 -0.34 0.34 0 0 Z " fill="#D91B23" transform="translate(146,0)"/>
<path d="M0 0 C4.43458973 1.3937282 6.87378374 3.60582235 10 7 C7.03 6.505 7.03 6.505 4 6 C4 5.01 4 4.02 4 3 C3.01 3 2.02 3 1 3 C0.67 2.01 0.34 1.02 0 0 Z " fill="#D21D2C" transform="translate(771,126)"/>
<path d="M0 0 C0.66 0.33 1.32 0.66 2 1 C2 1.66 2 2.32 2 3 C2.969375 3.28875 3.93875 3.5775 4.9375 3.875 C8 5 8 5 9 7 C7.39402675 6.54803755 5.79027492 6.08817673 4.1875 5.625 C3.29417969 5.36976563 2.40085937 5.11453125 1.48046875 4.8515625 C-1 4 -1 4 -4 2 C-2.125 0.9375 -2.125 0.9375 0 0 Z " fill="#CB1C27" transform="translate(95,126)"/>
<path d="M0 0 C-1.28524261 0.86380259 -2.57842419 1.71580369 -3.875 2.5625 C-4.59429687 3.03816406 -5.31359375 3.51382813 -6.0546875 4.00390625 C-6.69664063 4.33261719 -7.33859375 4.66132812 -8 5 C-8.66 4.67 -9.32 4.34 -10 4 C-10 3.34 -10 2.68 -10 2 C-9.01 2 -8.02 2 -7 2 C-7 1.34 -7 0.68 -7 0 C-3.86650268 -1.04449911 -3.01031744 -0.93423645 0 0 Z " fill="#DC1E27" transform="translate(92,75)"/>
<path d="M0 0 C1.32 1.32 2.64 2.64 4 4 C3.67 4.99 3.34 5.98 3 7 C0.4375 8.1875 0.4375 8.1875 -2 9 C-2 8.01 -2 7.02 -2 6 C-1.34 6 -0.68 6 0 6 C0 4.02 0 2.04 0 0 Z " fill="#DB202B" transform="translate(236,55)"/>
<path d="M0 0 C1.98 0 3.96 0 6 0 C6 0.66 6 1.32 6 2 C6.66 2 7.32 2 8 2 C7.34 3.32 6.68 4.64 6 6 C3.97945196 4.35830472 1.97956942 2.69088222 0 1 C0 0.67 0 0.34 0 0 Z " fill="#D61D24" transform="translate(44,227)"/>
<path d="M0 0 C2.475 0.495 2.475 0.495 5 1 C5 1.66 5 2.32 5 3 C6.65 3.33 8.3 3.66 10 4 C10.33 4.99 10.66 5.98 11 7 C6.89188572 5.55007731 3.53144334 3.54592427 0 1 C0 0.67 0 0.34 0 0 Z " fill="#CB2229" transform="translate(326,202)"/>
<path d="M0 0 C0.99 0.33 1.98 0.66 3 1 C1.25 6.75 1.25 6.75 -1 9 C-2 8 -2 8 -2.0625 5.4375 C-2.041875 4.633125 -2.02125 3.82875 -2 3 C-1.34 2.67 -0.68 2.34 0 2 C0 1.34 0 0.68 0 0 Z " fill="#DB1A21" transform="translate(244,184)"/>
<path d="M0 0 C1.98 1.32 3.96 2.64 6 4 C5.67 4.66 5.34 5.32 5 6 C1.31245243 5.50168276 -0.60490662 4.89932357 -3 2 C-2.01 2 -1.02 2 0 2 C0 1.34 0 0.68 0 0 Z " fill="#D51D21" transform="translate(950,56)"/>
<path d="M0 0 C1.65 0 3.3 0 5 0 C4 3 4 3 1.6875 4.3125 C-1 5 -1 5 -3.3125 4.125 C-3.869375 3.75375 -4.42625 3.3825 -5 3 C-4.360625 2.87625 -3.72125 2.7525 -3.0625 2.625 C-2.0415625 2.315625 -2.0415625 2.315625 -1 2 C-0.67 1.34 -0.34 0.68 0 0 Z " fill="#DD2028" transform="translate(864,210)"/>
<path d="M0 0 C0.99 0.33 1.98 0.66 3 1 C3 1.66 3 2.32 3 3 C3.99 3 4.98 3 6 3 C6.33 4.98 6.66 6.96 7 9 C6.34 9 5.68 9 5 9 C3.7109375 7.28515625 3.7109375 7.28515625 2.375 5.0625 C1.92898438 4.33160156 1.48296875 3.60070312 1.0234375 2.84765625 C0 1 0 1 0 0 Z " fill="#D12128" transform="translate(302,176)"/>
<path d="M0 0 C0.66 0 1.32 0 2 0 C1.71758359 1.46015291 1.42373386 2.91809793 1.125 4.375 C0.96257812 5.18710938 0.80015625 5.99921875 0.6328125 6.8359375 C0 9 0 9 -2 11 C-2.33 9.02 -2.66 7.04 -3 5 C-2.34 4.67 -1.68 4.34 -1 4 C-0.34786708 1.97536745 -0.34786708 1.97536745 0 0 Z " fill="#D01828" transform="translate(251,170)"/>
<path d="M0 0 C0.33 0 0.66 0 1 0 C1.625 2.875 1.625 2.875 2 6 C1.34 6.66 0.68 7.32 0 8 C-0.71408334 9.98356483 -1.38617742 11.98315437 -2 14 C-3.25127906 10.45332822 -2.72285053 8.27746562 -1.5625 4.75 C-1.27503906 3.85796875 -0.98757813 2.9659375 -0.69140625 2.046875 C-0.46324219 1.37140625 -0.23507812 0.6959375 0 0 Z " fill="#D51F28" transform="translate(490,97)"/>
<path d="M0 0 C1.32 1.65 2.64 3.3 4 5 C3.67 5.66 3.34 6.32 3 7 C1.02 7 -0.96 7 -3 7 C-3 6.01 -3 5.02 -3 4 C-2.01 4 -1.02 4 0 4 C0 2.68 0 1.36 0 0 Z " fill="#DC222B" transform="translate(781,64)"/>
<path d="M0 0 C1.17539996 0.92652701 2.34010577 1.86663387 3.5 2.8125 C4.1496875 3.33457031 4.799375 3.85664062 5.46875 4.39453125 C7 6 7 6 7 9 C6.5875 8.505 6.175 8.01 5.75 7.5 C3.87797662 5.56613908 3.87797662 5.56613908 0 6 C0 4.02 0 2.04 0 0 Z " fill="#CB202A" transform="translate(220,36)"/>
<path d="M0 0 C1.32 0 2.64 0 4 0 C3.67 2.31 3.34 4.62 3 7 C2.67 6.34 2.34 5.68 2 5 C1.34 5 0.68 5 0 5 C0 3.35 0 1.7 0 0 Z " fill="#D91D21" transform="translate(251,163)"/>
<path d="M0 0 C4.43090471 1.20842856 6.98112756 2.51668565 10 6 C6.58978257 5.21302675 3.31114834 4.12880057 0 3 C0 2.01 0 1.02 0 0 Z " fill="#CA222F" transform="translate(618,49)"/>
<path d="M0 0 C0.33 0.66 0.66 1.32 1 2 C-0.32 3.65 -1.64 5.3 -3 7 C-4.32 6.67 -5.64 6.34 -7 6 C-4.69 4.02 -2.38 2.04 0 0 Z " fill="#CF2027" transform="translate(177,180)"/>
<path d="M0 0 C0.33 0.66 0.66 1.32 1 2 C0.67 2.66 0.34 3.32 0 4 C0.66 4.33 1.32 4.66 2 5 C1.01 5.99 0.02 6.98 -1 8 C-1.99 7.01 -2.98 6.02 -4 5 C-3.67 4.34 -3.34 3.68 -3 3 C-2.34 3 -1.68 3 -1 3 C-0.67 2.01 -0.34 1.02 0 0 Z " fill="#DB2228" transform="translate(183,174)"/>
<path d="M0 0 C0.99 0 1.98 0 3 0 C3 0.66 3 1.32 3 2 C3.66 2 4.32 2 5 2 C5.33 4.31 5.66 6.62 6 9 C2.91910327 6.22719294 1.31224548 3.93673644 0 0 Z " fill="#CF1A1F" transform="translate(495,171)"/>
<path d="M0 0 C0.33 0 0.66 0 1 0 C1 1.65 1 3.3 1 5 C1.66 5 2.32 5 3 5 C3.33 5.99 3.66 6.98 4 8 C2.68 8.33 1.36 8.66 0 9 C-0.84454356 5.62182575 -1.10844919 3.32534757 0 0 Z " fill="#DB1E28" transform="translate(76,114)"/>
<path d="M0 0 C0.33 0.66 0.66 1.32 1 2 C0.0625 4.125 0.0625 4.125 -1 6 C-0.34 6.33 0.32 6.66 1 7 C-0.98 7.66 -2.96 8.32 -5 9 C-3.7508258 5.54074837 -2.32472205 2.85306797 0 0 Z " fill="#CA212B" transform="translate(501,77)"/>
<path d="M0 0 C0 2.62113708 -0.31292445 4.50935112 -1 7 C-1.99 7 -2.98 7 -4 7 C-4 7.99 -4 8.98 -4 10 C-4.66 10 -5.32 10 -6 10 C-4.6302836 6.00499382 -2.74277578 3.19990508 0 0 Z " fill="#CA2126" transform="translate(309,72)"/>
<path d="M0 0 C0.33 0.66 0.66 1.32 1 2 C1.66 2.33 2.32 2.66 3 3 C3 3.66 3 4.32 3 5 C0.69 5.33 -1.62 5.66 -4 6 C-2.84826645 3.53199953 -1.95216435 1.95216435 0 0 Z " fill="#D61F29" transform="translate(316,64)"/>
<path d="M0 0 C0 0.99 0 1.98 0 3 C-1.75 4.75 -1.75 4.75 -4 6 C-6.25 5.6875 -6.25 5.6875 -8 5 C-2.25 0 -2.25 0 0 0 Z " fill="#DA1A26" transform="translate(837,61)"/>
<path d="M0 0 C0.66 0.99 1.32 1.98 2 3 C-0.67478244 4.6627026 -2.9995144 5.99983813 -6 7 C-6 7.66 -6 8.32 -6 9 C-6.66 8.67 -7.32 8.34 -8 8 C-5.33333333 5.33333333 -2.66666667 2.66666667 0 0 Z " fill="#D1191F" transform="translate(45,30)"/>
<path d="M0 0 C1.98 1.65 3.96 3.3 6 5 C5.01 5.33 4.02 5.66 3 6 C2.67 5.34 2.34 4.68 2 4 C0.02 4 -1.96 4 -4 4 C-2.68 2.68 -1.36 1.36 0 0 Z " fill="#D21C27" transform="translate(53,24)"/>
<path d="M0 0 C0.66 0.33 1.32 0.66 2 1 C2 2.32 2 3.64 2 5 C-0.97 4.01 -3.94 3.02 -7 2 C-3 1 -3 1 0 2 C0 1.34 0 0.68 0 0 Z " fill="#D61928" transform="translate(86,122)"/>
<path d="M0 0 C1.32 0.66 2.64 1.32 4 2 C3.01 2.33 2.02 2.66 1 3 C-0.16666667 4.91666667 -0.16666667 4.91666667 -1 7 C-1.33 7.66 -1.66 8.32 -2 9 C-2.66 8.67 -3.32 8.34 -4 8 C-2.68 5.36 -1.36 2.72 0 0 Z " fill="#D81E2B" transform="translate(495,87)"/>
<path d="M0 0 C1.65 0 3.3 0 5 0 C4.67 0.99 4.34 1.98 4 3 C4.99 3 5.98 3 7 3 C7 3.66 7 4.32 7 5 C4.625 4.75 4.625 4.75 2 4 C0.6875 1.9375 0.6875 1.9375 0 0 Z " fill="#DC1D25" transform="translate(29,50)"/>
<path d="M0 0 C0 0.66 0 1.32 0 2 C0.99 2.33 1.98 2.66 3 3 C1.02 3.66 -0.96 4.32 -3 5 C-3.33 3.68 -3.66 2.36 -4 1 C-2 0 -2 0 0 0 Z " fill="#DC1A25" transform="translate(610,210)"/>
<path d="M0 0 C1.32 0 2.64 0 4 0 C4 0.66 4 1.32 4 2 C4.66 2.33 5.32 2.66 6 3 C5.01 4.485 5.01 4.485 4 6 C0 1.125 0 1.125 0 0 Z " fill="#D01F32" transform="translate(24,205)"/>
<path d="M0 0 C0.66 1.65 1.32 3.3 2 5 C-0.91517292 3.92598892 -2.77810176 3.22189824 -5 1 C-3 0 -3 0 0 0 Z " fill="#D81C25" transform="translate(531,204)"/>
<path d="M0 0 C2.76276177 0.52268466 5.3260876 1.10869587 8 2 C8 2.66 8 3.32 8 4 C6.68 4.33 5.36 4.66 4 5 C4 4.34 4 3.68 4 3 C2.68 2.34 1.36 1.68 0 1 C0 0.67 0 0.34 0 0 Z " fill="#DB1B26" transform="translate(117,145)"/>
<path d="M0 0 C1.65 0.33 3.3 0.66 5 1 C5.33 2.32 5.66 3.64 6 5 C4.02 4.34 2.04 3.68 0 3 C0 2.01 0 1.02 0 0 Z " fill="#E01B2C" transform="translate(104,130)"/>
<path d="M0 0 C2.31 0.33 4.62 0.66 7 1 C4.33440687 2.77706209 1.9719385 3.87548273 -1 5 C-0.67 3.35 -0.34 1.7 0 0 Z " fill="#CE1D25" transform="translate(186,242)"/>
<path d="M0 0 C1.32 0.66 2.64 1.32 4 2 C2.625 4 2.625 4 1 6 C0.34 6 -0.32 6 -1 6 C-0.67 4.02 -0.34 2.04 0 0 Z " fill="#D61F26" transform="translate(210,226)"/>
<path d="M0 0 C-0.61875 0.0825 -1.2375 0.165 -1.875 0.25 C-4.18437567 0.81258459 -4.18437567 0.81258459 -5.25 3.0625 C-5.4975 3.701875 -5.745 4.34125 -6 5 C-6 4.34 -6 3.68 -6 3 C-6.99 3 -7.98 3 -9 3 C-9 2.34 -9 1.68 -9 1 C-5.92677456 0.08941469 -3.19902639 -0.08886184 0 0 Z " fill="#D32025" transform="translate(130,202)"/>
<path d="M0 0 C1.70884005 1.62339805 3.37446717 3.29319053 5 5 C5 5.66 5 6.32 5 7 C3.68 6.67 2.36 6.34 1 6 C0.67 4.02 0.34 2.04 0 0 Z " fill="#CD232B" transform="translate(944,167)"/>
<path d="M0 0 C2.72426311 2.35277269 3.8141763 4.62496331 5 8 C4.01 7.67 3.02 7.34 2 7 C2 6.34 2 5.68 2 5 C1.34 5 0.68 5 0 5 C0 3.35 0 1.7 0 0 Z " fill="#D21F28" transform="translate(532,150)"/>
<path d="M0 0 C0.66 0.33 1.32 0.66 2 1 C2 1.66 2 2.32 2 3 C2.66 3 3.32 3 4 3 C3.67 3.99 3.34 4.98 3 6 C1.02 4.68 -0.96 3.36 -3 2 C-2.01 1.34 -1.02 0.68 0 0 Z " fill="#D62027" transform="translate(407,87)"/>
<path d="M0 0 C-3.63423209 2.32590854 -6.77088331 2.16265833 -11 2 C-6.98764085 -0.6749061 -4.6342454 -1.48957888 0 0 Z " fill="#D61F2A" transform="translate(876,42)"/>
</svg>
