<?xml version="1.0" encoding="UTF-8"?>
<svg version="1.1" xmlns="http://www.w3.org/2000/svg" width="300" height="240">
<path d="M0 0 C1.1901065 1.16400768 2.35712184 2.35208814 3.5 3.5625 C4.47453125 4.52542969 4.47453125 4.52542969 5.46875 5.5078125 C14.06749797 14.47035365 19.95976264 25.71202126 23.5 37.5625 C23.83644531 38.57570313 23.83644531 38.57570313 24.1796875 39.609375 C28.0756194 53.37855897 25.48626503 68.17309412 21.5 81.5625 C21.22285156 82.49578125 20.94570312 83.4290625 20.66015625 84.390625 C14.91146149 100.81546717 1.61621614 113.6153281 -13.5 121.5625 C-20.77194901 124.88966047 -28.596534 127.31830499 -36.5 128.5625 C-37.72009766 128.76359375 -37.72009766 128.76359375 -38.96484375 128.96875 C-56.53024379 131.23858143 -75.90567483 125.89955578 -90.0625 115.3125 C-105.75980644 102.42912196 -116.00491454 86.97229908 -118.5 66.5625 C-119.63225487 45.076616 -116.41872371 26.24094278 -102.125 9.375 C-76.18380192 -18.89352658 -30.73608076 -25.71306367 0 0 Z " fill="#6C58A5" transform="translate(196.5,31.4375)"/>
<path d="M0 0 C6.90817022 6.32834778 12.03005577 16.34563519 12.65625 25.73046875 C12.93807731 38.53675586 11.3887491 48.81841089 2.6875 58.8125 C-1.69877855 63.39183658 -6.16351348 67.13913643 -11.875 69.9375 C-12.71160156 70.35386719 -13.54820312 70.77023438 -14.41015625 71.19921875 C-23.55705398 75.20005694 -38.37479405 75.12468545 -47.625 71.625 C-52.08008275 69.36574985 -56.03638914 66.50581166 -59.8125 63.25 C-60.41964844 62.74855469 -61.02679688 62.24710937 -61.65234375 61.73046875 C-68.66990324 55.41927193 -73.46818685 46.1894018 -74.015625 36.74609375 C-74.30623886 21.84201719 -71.41001331 11.28388675 -61.1875 0.0625 C-43.49285843 -16.85546837 -18.30453502 -14.16995803 0 0 Z " fill="#FAF9FC" transform="translate(180.8125,55.75)"/>
<path d="M0 0 C0.36351562 1.01707031 0.36351562 1.01707031 0.734375 2.0546875 C2.44943633 6.81728087 4.20904689 11.52762692 6.1875 16.1875 C7.94940715 20.62385585 9 24.19653907 9 29 C8.07287334 30.75834367 7.13614691 32.51710618 6.05859375 34.1875 C1.26830435 42.38932392 1.74796683 55.1808913 3.6875 64.1953125 C7.3877448 75.26521153 15.48723062 84.51634055 25.625 90.3125 C31.63842674 93.07376738 38.51587828 93.88554158 45 95 C45 95.66 45 96.32 45 97 C46.485 97.495 46.485 97.495 48 98 C49.3671875 99.4609375 49.3671875 99.4609375 50.875 101.375 C54.67965532 105.90942757 59.04169591 109.54225938 63.64404297 113.22998047 C67.89774127 116.69322381 67.89774127 116.69322381 69 120 C68.34 120 67.68 120 67 120 C67 120.66 67 121.32 67 122 C46.7087472 127.63055706 27.23727679 126.45052757 8.33203125 116.40234375 C-8.45496084 106.30765336 -19.91544141 91.30753593 -25.125 72.59375 C-30.00869064 52.53573485 -27.39518236 32.77379603 -17.1875 14.9375 C-8.00594774 0 -8.00594774 0 0 0 Z " fill="#5D4DA0" transform="translate(105,35)"/>
<path d="M0 0 C6.62689727 4.70047365 11.80623186 10.29464086 13.4375 18.4375 C14.49029574 28.57553302 13.02802552 37.03914952 6.8125 45.25 C1.21532733 51.14029143 -5.1129873 53.72230441 -13.1875 53.9375 C-21.15112909 53.58231466 -27.02184715 51.73548739 -32.95703125 46.31640625 C-39.35073201 38.83375402 -41.01217472 30.37472955 -40.89453125 20.82421875 C-40.0395392 12.10329983 -35.35230927 6.62788805 -28.94140625 1.03125 C-20.79783112 -4.42454418 -8.48229874 -4.82680126 0 0 Z " fill="#6755A3" transform="translate(163.5625,61.5625)"/>
<path d="M0 0 C5.50688735 3.30179898 9.55920331 7.99769472 12.0625 13.875 C13.27022127 21.65809265 13.53552579 27.57827536 9.25 34.45703125 C5.60207722 39.04324185 0.37433102 43.09772414 -5.375 44.5 C-11.66014565 45.17914148 -17.80191677 44.64101334 -23.375 41.5 C-28.77780087 36.6820384 -32.78449225 31.83228282 -33.78125 24.51953125 C-34.02269708 16.26002917 -32.61967759 10.95020775 -27.375 4.5 C-20.26689253 -2.43473899 -9.14327027 -4.04379468 0 0 Z M-18.375 9.5 C-22.07549538 13.20049538 -23.25287682 16.03452189 -23.6875 21.25 C-23.60809189 26.04095593 -22.23583447 28.660459 -19.375 32.5 C-15.86709629 35.0512027 -13.77714372 35.4808503 -9.4375 35.6875 C-4.8869362 34.88240025 -2.49987834 32.30760172 0.26171875 28.74609375 C2.34826936 25.30836709 3.31461602 22.51372022 2.625 18.5 C0.87226834 14.63989837 -1.38458765 11.49041235 -4.375 8.5 C-9.32672492 7.08522145 -13.68700476 7.45087628 -18.375 9.5 Z " fill="#4D3794" transform="translate(206.375,179.5)"/>
<path d="M0 0 C4.44992341 3.50541012 8.89721965 7.61861507 9.78515625 13.40625 C10.46715261 22.70500811 9.4955896 29.18256274 3.66015625 36.65625 C-1.02873068 41.76060792 -5.98747655 43.06046066 -12.71484375 43.78125 C-19.74208465 43.02833133 -26.5581239 41.04545698 -31.21484375 35.40625 C-35.92877534 28.28546975 -37.36066389 22.41927075 -35.7734375 14.08984375 C-33.7875326 6.70827272 -29.47520464 2.42767375 -23.08984375 -1.53125 C-15.89275894 -4.13064858 -6.62643775 -3.93928359 0 0 Z M-23.21484375 10.40625 C-25.73540392 14.66859261 -26.6665239 18.78818526 -25.65234375 23.65625 C-24.25361871 27.96397988 -22.08097128 31.09996073 -18.33984375 33.71875 C-15.39929898 34.67010272 -13.29677236 34.77608143 -10.21484375 34.40625 C-5.45939276 31.93341549 -2.61509693 29.20675635 -0.21484375 24.40625 C0.72786992 19.11010577 -0.15964743 14.8872046 -3.21484375 10.40625 C-6.41620747 7.64143588 -8.45857335 6.51625297 -12.65234375 5.90625 C-16.96085319 6.51095308 -20.03575934 7.35792485 -23.21484375 10.40625 Z " fill="#4D3794" transform="translate(117.21484375,180.59375)"/>
<path d="M0 0 C-0.14168137 1.43791516 -0.28851043 2.8753237 -0.4375 4.3125 C-0.51871094 5.11300781 -0.59992188 5.91351563 -0.68359375 6.73828125 C-1 9 -1 9 -2 12 C-1.10304149 14.4774513 -0.15646838 16.80087751 0.9375 19.1875 C1.22818359 19.84169922 1.51886719 20.49589844 1.81835938 21.16992188 C2.53695343 22.78381344 3.2673588 24.39243655 4 26 C7.48444829 21.61759865 9.63094843 17.02622287 10.3125 11.4375 C10.0409545 8.76371329 10.0409545 8.76371329 8.875 5.375 C8.58625 4.26125 8.2975 3.1475 8 2 C8.66 1.01 9.32 0.02 10 -1 C13.1875 -1.36328125 13.1875 -1.36328125 17 -1.3125 C18.8871875 -1.30669922 18.8871875 -1.30669922 20.8125 -1.30078125 C24 -1 24 -1 26 1 C25.6754273 6.07916227 23.75742331 10.31463783 21.69140625 14.8828125 C21.36462387 15.61950165 21.03784149 16.3561908 20.70115662 17.11520386 C19.66139178 19.45474063 18.61200584 21.78981937 17.5625 24.125 C16.86071358 25.7015495 16.15953552 27.27836996 15.45898438 28.85546875 C9.99595747 41.12480047 9.99595747 41.12480047 8 45 C2.67644363 45.48395967 2.67644363 45.48395967 0.078125 43.625 C-3.01434959 39.71871631 -4.63822548 35.34407159 -6.5 30.75 C-7.25805654 28.91048396 -8.01844337 27.07192636 -8.78125 25.234375 C-9.14734375 24.35072266 -9.5134375 23.46707031 -9.890625 22.55664062 C-10.94004331 20.13817485 -12.07802188 17.79814882 -13.28125 15.453125 C-15 12 -15 12 -15 10 C-17.475 9.01 -17.475 9.01 -20 8 C-20 5.36 -20 2.72 -20 0 C-3.73333333 -1.86666667 -3.73333333 -1.86666667 0 0 Z " fill="#4D3794" transform="translate(147,179)"/>
<path d="M0 0 C3.16115776 1.36983503 3.9927092 1.9890638 6 5 C8.05003955 6.19232613 8.05003955 6.19232613 10 7 C10 8.66666667 10 10.33333333 10 12 C10.928125 12.433125 11.85625 12.86625 12.8125 13.3125 C17.58823529 15.84083045 17.58823529 15.84083045 19 18 C18.625 20.5625 18.625 20.5625 18 23 C18.33 23.66 18.66 24.32 19 25 C19.33 24.01 19.66 23.02 20 22 C20.99 21.67 21.98 21.34 23 21 C24.485 22.98 24.485 22.98 26 25 C27.98 24.67 29.96 24.34 32 24 C33.29384979 28.48134729 32.61333104 31.81494316 31.5625 36.3125 C31.13130859 38.19388672 31.13130859 38.19388672 30.69140625 40.11328125 C30.46324219 41.06589844 30.23507813 42.01851562 30 43 C29.34 43 28.68 43 28 43 C27.80664062 43.71027344 27.61328125 44.42054687 27.4140625 45.15234375 C27.15367187 46.07144531 26.89328125 46.99054688 26.625 47.9375 C26.36976563 48.85402344 26.11453125 49.77054688 25.8515625 50.71484375 C25 53 25 53 23 54 C20.97275382 51.60416361 19.98271997 49.9382856 19.125 46.875 C18.2758287 43.77882467 18.2758287 43.77882467 15.375 42.625 C14.59125 42.41875 13.8075 42.2125 13 42 C13.66 41.34 14.32 40.68 15 40 C12.84365964 40 11.07553648 40.4465236 9 41 C8.20046862 44.28696233 7.90341064 45.71023192 9 49 C6.525 49.495 6.525 49.495 4 50 C4.66 50.99 5.32 51.98 6 53 C6 53.66 6 54.32 6 55 C6.66 55.66 7.32 56.32 8 57 C4.71303767 57.79953138 3.28976808 58.09658936 0 57 C0 56.01 0 55.02 0 54 C-0.598125 54.185625 -1.19625 54.37125 -1.8125 54.5625 C-4 55 -4 55 -7 54 C-6.34 52.68 -5.68 51.36 -5 50 C-5.99 49.67 -6.98 49.34 -8 49 C-7.113125 48.113125 -6.22625 47.22625 -5.3125 46.3125 C3.08819611 36.27556379 4.05036805 24.67192355 3.22265625 12.12890625 C2.77741666 7.87179085 1.69359662 3.92148265 0 0 Z " fill="#7A63AC" transform="translate(189,67)"/>
<path d="M0 0 C3.01887119 1.43723025 5.75808063 3.12178861 8.5625 4.9375 C15.51711837 9.14930728 22.98682337 10.91713829 31 12 C31 12.66 31 13.32 31 14 C31.99 14.33 32.98 14.66 34 15 C35.3671875 16.4609375 35.3671875 16.4609375 36.875 18.375 C40.67965532 22.90942757 45.04169591 26.54225938 49.64404297 30.22998047 C53.89774127 33.69322381 53.89774127 33.69322381 55 37 C54.34 37 53.68 37 53 37 C53 37.66 53 38.32 53 39 C48.10502176 41.08036575 44.0655381 41.60408707 39 40 C36.4375 37.9375 36.4375 37.9375 34 35 C32.77499008 33.57973741 31.54560004 32.16324429 30.3125 30.75 C29.73113281 30.06421875 29.14976562 29.3784375 28.55078125 28.671875 C27.08649533 26.89673637 27.08649533 26.89673637 25 26 C25 25.01 25 24.02 25 23 C24.34 23 23.68 23 23 23 C21.4921875 21.25 21.4921875 21.25 19.875 19 C19.33617187 18.2575 18.79734375 17.515 18.2421875 16.75 C17.83226562 16.1725 17.42234375 15.595 17 15 C16.67 15.66 16.34 16.32 16 17 C16.66 17.33 17.32 17.66 18 18 C17.67 18.99 17.34 19.98 17 21 C17 21.99 17 22.98 17 24 C17.66 24 18.32 24 19 24 C20.5 26.5 20.5 26.5 22 29 C22.886875 29.886875 23.77375 30.77375 24.6875 31.6875 C27 34 27 34 27 36 C28.485 36.495 28.485 36.495 30 37 C29.67 38.32 29.34 39.64 29 41 C28.34 41 27.68 41 27 41 C26.773125 40.443125 26.54625 39.88625 26.3125 39.3125 C24.04399551 35.31561114 21.38100054 32.46033351 17 31 C15 28 15 28 15 25 C14.01 25 13.02 25 12 25 C10.2898868 22.60584151 9.11868321 20.33061751 8.125 17.5625 C6.64055405 14.18126201 4.3909874 11.79920476 2 9 C-1.09090909 4.67272727 -1.09090909 4.67272727 -0.6875 1.6875 C-0.460625 1.130625 -0.23375 0.57375 0 0 Z " fill="#4A388C" transform="translate(119,118)"/>
<path d="M0 0 C0.36351563 1.01707031 0.36351563 1.01707031 0.734375 2.0546875 C2.44943633 6.81728087 4.20904689 11.52762692 6.1875 16.1875 C7.94940715 20.62385585 9 24.19653907 9 29 C7.1875 32.4375 7.1875 32.4375 6.05859375 34.125 C4.16381233 37.48107041 3.64867534 41.23597596 3 45 C2.34 45 1.68 45 1 45 C-3.05056597 36.11754061 -7.05118613 27.21190658 -10.625 18.125 C-10.89650879 17.46628906 -11.16801758 16.80757812 -11.44775391 16.12890625 C-13.18730742 11.58496006 -13.18730742 11.58496006 -12.26953125 8.71875 C-11.85058594 8.1515625 -11.43164062 7.584375 -11 7 C-10.360625 6.13375 -9.72125 5.2675 -9.0625 4.375 C-6.00660128 0.85608632 -4.74256912 0 0 0 Z " fill="#3E2E7C" transform="translate(105,35)"/>
<path d="M0 0 C3.96 0.33 7.92 0.66 12 1 C12 1.66 12 2.32 12 3 C12.99 3.33 13.98 3.66 15 4 C16.3671875 5.4609375 16.3671875 5.4609375 17.875 7.375 C21.67965532 11.90942757 26.04169591 15.54225938 30.64404297 19.22998047 C34.89774127 22.69322381 34.89774127 22.69322381 36 26 C31.92685717 27.61031228 29.15789227 28.66315691 25 27 C23.36429497 25.53865946 21.88724202 24.013764 20.4296875 22.375 C18.93376071 20.73920255 18.93376071 20.73920255 16 20 C16 19.34 16 18.68 16 18 C15.01 18 14.02 18 13 18 C11.46606445 16.45532227 11.46606445 16.45532227 9.86328125 14.31640625 C9.28642578 13.55392578 8.70957031 12.79144531 8.11523438 12.00585938 C7.52033203 11.19955078 6.92542969 10.39324219 6.3125 9.5625 C5.70599609 8.76005859 5.09949219 7.95761719 4.47460938 7.13085938 C0 1.16639131 0 1.16639131 0 0 Z " fill="#291F5A" transform="translate(138,129)"/>
<path d="M0 0 C5.54125814 0.93171597 8.51954047 4.84997838 12 9 C25.71743607 28.62881736 25.71743607 28.62881736 24.62109375 35.30859375 C24.41613281 35.86675781 24.21117187 36.42492187 24 37 C22.68 36.34 21.36 35.68 20 35 C20 34.01 20 33.02 20 32 C19.34 32 18.68 32 18 32 C17.32645501 30.56570999 16.66140299 29.12742943 16 27.6875 C15.62875 26.88699219 15.2575 26.08648437 14.875 25.26171875 C14 23 14 23 14 20 C13.34 20 12.68 20 12 20 C11.67 19.01 11.34 18.02 11 17 C10.01 16.67 9.02 16.34 8 16 C6.3125 14.75 6.3125 14.75 5 13 C4.8125 10.3125 4.8125 10.3125 5 8 C3.68 7.67 2.36 7.34 1 7 C0.31292445 4.50935112 0 2.62113708 0 0 Z " fill="#5B499D" transform="translate(194,32)"/>
<path d="M0 0 C3.79379058 1.49041773 5.68343758 3.69062512 8 7 C8 7.66 8 8.32 8 9 C8.66 9 9.32 9 10 9 C10 9.99 10 10.98 10 12 C10.58394531 12.24878906 11.16789063 12.49757812 11.76953125 12.75390625 C14.31316284 14.17495437 15.79407698 15.73192915 17.6875 17.9375 C18.28949219 18.62714844 18.89148438 19.31679687 19.51171875 20.02734375 C21 22 21 22 22 25 C23.98 25.33 25.96 25.66 28 26 C25.44662276 28.55337724 24.04725582 28.43261395 20.5 28.75 C19.5203125 28.84796875 18.540625 28.9459375 17.53125 29.046875 C15 29 15 29 13 27 C13.226875 26.401875 13.45375 25.80375 13.6875 25.1875 C13.790625 24.465625 13.89375 23.74375 14 23 C11.85554017 20.43727882 11.85554017 20.43727882 9 18 C6.1875 15.375 6.1875 15.375 4 13 C4 12.01 4 11.02 4 10 C3.34 10 2.68 10 2 10 C1 5.25 1 5.25 1 3 C0.67 2.01 0.34 1.02 0 0 Z " fill="#4D3B93" transform="translate(134,132)"/>
<path d="M0 0 C2.875 0.25 2.875 0.25 6 1 C6.71404532 2.30857232 7.36885662 3.64948889 8 5 C10.28081633 8.11781315 12.64226505 11.16574789 15.00390625 14.22265625 C17 17 17 17 18 20 C18.99 20 19.98 20 21 20 C21 20.66 21 21.32 21 22 C21.90492188 22.15082031 21.90492188 22.15082031 22.828125 22.3046875 C25.39411438 23.12617331 26.10266156 24.04160138 27.75 26.125 C29.61744511 28.13609473 30.39263304 28.95176147 33.1640625 29.171875 C35.62957283 28.87952616 35.62957283 28.87952616 39 28 C39 28.66 39 29.32 39 30 C34.10502176 32.08036575 30.0655381 32.60408707 25 31 C22.4375 28.9375 22.4375 28.9375 20 26 C18.77499008 24.57973741 17.54560004 23.16324429 16.3125 21.75 C15.73113281 21.06421875 15.14976562 20.3784375 14.55078125 19.671875 C13.08649533 17.89673637 13.08649533 17.89673637 11 17 C11 16.01 11 15.02 11 14 C10.34 14 9.68 14 9 14 C7.36951402 11.88389996 5.85923862 9.77726231 4.375 7.5625 C3.95476562 6.95083984 3.53453125 6.33917969 3.1015625 5.70898438 C0 1.1523057 0 1.1523057 0 0 Z " fill="#42327F" transform="translate(133,127)"/>
<path d="M0 0 C0.99 0.33 1.98 0.66 3 1 C2.67 1.99 2.34 2.98 2 4 C2.99 4.33 3.98 4.66 5 5 C7.07741505 8.11612257 7.50024456 11.3351268 8 15 C9.32 15 10.64 15 12 15 C12.12375 15.969375 12.2475 16.93875 12.375 17.9375 C12.58125 18.948125 12.7875 19.95875 13 21 C13.66 21.33 14.32 21.66 15 22 C15 21.34 15 20.68 15 20 C15.66 20.33 16.32 20.66 17 21 C17.625 23.5625 17.625 23.5625 18 26 C15.4375 26.875 15.4375 26.875 12 27 C6.5515117 24.19211678 3.38815794 19.15876558 0.8671875 13.74609375 C-0.57787036 9.17007718 -0.40545066 4.73926777 0 0 Z " fill="#4F4194" transform="translate(124,85)"/>
<path d="M0 0 C0 0.66 0 1.32 0 2 C0.99 2.33 1.98 2.66 3 3 C1.68 3 0.36 3 -1 3 C-1.33 5.97 -1.66 8.94 -2 12 C-0.35 11.67 1.3 11.34 3 11 C3.20140476 14.62528568 2.85776765 16.86501708 1 20 C0.34 19.67 -0.32 19.34 -1 19 C-0.67 20.32 -0.34 21.64 0 23 C-0.66 23.33 -1.32 23.66 -2 24 C-2.28875 23.2575 -2.5775 22.515 -2.875 21.75 C-3.88214887 19.10311974 -3.88214887 19.10311974 -5.0625 17.1875 C-7.34389453 11.8642461 -7.24921367 6.55206074 -6 1 C-3.92446352 0.4465236 -2.15634036 0 0 0 Z " fill="#6554A3" transform="translate(85,89)"/>
<path d="M0 0 C-1.98 0.99 -1.98 0.99 -4 2 C-3.67 2.66 -3.34 3.32 -3 4 C-1.35 3.01 0.3 2.02 2 1 C2.12375 1.969375 2.2475 2.93875 2.375 3.9375 C2.58125 4.948125 2.7875 5.95875 3 7 C3.66 7.33 4.32 7.66 5 8 C5 8.66 5 9.32 5 10 C4.34 10 3.68 10 3 10 C2.67 10.99 2.34 11.98 2 13 C1.34 12.34 0.68 11.68 0 11 C-2.78114056 8.66608797 -2.78114056 8.66608797 -5.6875 9.375 C-6.450625 9.58125 -7.21375 9.7875 -8 10 C-8 9.34 -8 8.68 -8 8 C-8.99 8.33 -9.98 8.66 -11 9 C-13.6875 8.5625 -13.6875 8.5625 -16 8 C-6.50771388 -2.01963534 -6.50771388 -2.01963534 0 0 Z " fill="#6E59A4" transform="translate(187,117)"/>
<path d="M0 0 C1.38385066 4.15155198 0.15826672 6.11722609 -1.5078125 10.046875 C-7.60568161 22.11490916 -16.0707851 31.63799357 -27.3125 39.0625 C-27.92375732 39.46952148 -28.53501465 39.87654297 -29.16479492 40.29589844 C-30.92578125 41.41015625 -30.92578125 41.41015625 -34 43 C-34.99 42.67 -35.98 42.34 -37 42 C-36.34 42 -35.68 42 -35 42 C-35.495 40.515 -35.495 40.515 -36 39 C-34.68 39 -33.36 39 -32 39 C-28.83333333 37.16666667 -28.83333333 37.16666667 -27 34 C-24.36034793 32.38214873 -23.15987325 32 -20 32 C-20 31.34 -20 30.68 -20 30 C-19.34 30 -18.68 30 -18 30 C-18 29.34 -18 28.68 -18 28 C-17.34 28 -16.68 28 -16 28 C-16 27.34 -16 26.68 -16 26 C-15.34 26 -14.68 26 -14 26 C-13.74992187 25.45601562 -13.49984375 24.91203125 -13.2421875 24.3515625 C-11.74761154 21.522208 -9.95854638 18.99731728 -8.125 16.375 C-4.57993476 11.12830344 -2.0147982 5.99137358 0 0 Z " fill="#564292" transform="translate(217,110)"/>
<path d="M0 0 C0.99 0.66 1.98 1.32 3 2 C2.67 2.99 2.34 3.98 2 5 C2 5.99 2 6.98 2 8 C2.66 8 3.32 8 4 8 C5 9.66666667 6 11.33333333 7 13 C7.886875 13.886875 8.77375 14.77375 9.6875 15.6875 C12 18 12 18 12 20 C12.99 20.33 13.98 20.66 15 21 C14.67 22.32 14.34 23.64 14 25 C13.34 25 12.68 25 12 25 C11.773125 24.443125 11.54625 23.88625 11.3125 23.3125 C9.04399551 19.31561114 6.38100054 16.46033351 2 15 C-1.11588996 10.4597032 -2.54998918 7.63738908 -2 2 C-1.34 2 -0.68 2 0 2 C0 1.34 0 0.68 0 0 Z " fill="#433188" transform="translate(134,134)"/>
<path d="M0 0 C4.22638912 1.40879637 5.17504178 4.38222306 7.125 8.125 C7.66447266 9.10339844 7.66447266 9.10339844 8.21484375 10.1015625 C10.51954016 14.45200066 11.57939165 18.09290259 12 23 C9.525 22.01 9.525 22.01 7 21 C7 20.01 7 19.02 7 18 C6.34 18 5.68 18 5 18 C4.49440092 16.56445975 3.9957251 15.1264798 3.5 13.6875 C3.2215625 12.88699219 2.943125 12.08648437 2.65625 11.26171875 C2 9 2 9 2 6 C1.34 5.34 0.68 4.68 0 4 C0 2.68 0 1.36 0 0 Z " fill="#5C4A9B" transform="translate(207,46)"/>
<path d="M0 0 C0 0.99 0 1.98 0 3 C0.66 3.33 1.32 3.66 2 4 C2 4.66 2 5.32 2 6 C1.01 6.495 1.01 6.495 0 7 C-0.99 8.485 -0.99 8.485 -2 10 C-5.625 10.1875 -5.625 10.1875 -9 10 C-9.99 12.31 -10.98 14.62 -12 17 C-12.103125 16.360625 -12.20625 15.72125 -12.3125 15.0625 C-12.539375 14.381875 -12.76625 13.70125 -13 13 C-13.99 12.67 -14.98 12.34 -16 12 C-10.94783982 7.28006804 -6.17398461 3.15267299 0 0 Z " fill="#5B4C9D" transform="translate(118,22)"/>
<path d="M0 0 C1.65 0 3.3 0 5 0 C8.59058175 5.79424351 9.43484866 9.30403958 8 16 C7.34 16 6.68 16 6 16 C4.99303432 13.89915791 3.9946411 11.79420511 3 9.6875 C2.443125 8.51574219 1.88625 7.34398438 1.3125 6.13671875 C0 3 0 3 0 0 Z " fill="#2F2364" transform="translate(100,64)"/>
<path d="M0 0 C0.33 0 0.66 0 1 0 C1.04898438 0.69867188 1.09796875 1.39734375 1.1484375 2.1171875 C1.22320312 3.02726562 1.29796875 3.93734375 1.375 4.875 C1.44460937 5.77992187 1.51421875 6.68484375 1.5859375 7.6171875 C1.79568132 10.17941903 1.79568132 10.17941903 4 12 C5.25 13.75 5.25 13.75 6 16 C5.125 19.25 5.125 19.25 4 22 C3.34 22 2.68 22 2 22 C1.34 22.99 0.68 23.98 0 25 C-0.33 24.34 -0.66 23.68 -1 23 C-1.66 23 -2.32 23 -3 23 C-2.690625 21.989375 -2.38125 20.97875 -2.0625 19.9375 C-0.40619903 13.44151109 -0.32998523 6.66917508 0 0 Z " fill="#7F6BAE" transform="translate(193,81)"/>
<path d="M0 0 C2.875 0.25 2.875 0.25 6 1 C6.9375 2.6875 6.9375 2.6875 8 5 C9.34690458 6.93651341 10.72418361 8.85211972 12.125 10.75 C12.84945312 11.73484375 13.57390625 12.7196875 14.3203125 13.734375 C14.87460938 14.48203125 15.42890625 15.2296875 16 16 C15.67 16.66 15.34 17.32 15 18 C13.68 17.67 12.36 17.34 11 17 C11 16.01 11 15.02 11 14 C10.34 14 9.68 14 9 14 C7.36951402 11.88389996 5.85923862 9.77726231 4.375 7.5625 C3.95476562 6.95083984 3.53453125 6.33917969 3.1015625 5.70898438 C0 1.1523057 0 1.1523057 0 0 Z " fill="#362A6F" transform="translate(133,127)"/>
<path d="M0 0 C2.57005181 2.57005181 2.57173288 4.25139178 3.125 7.8125 C3.29257813 8.85019531 3.46015625 9.88789062 3.6328125 10.95703125 C3.96131681 13.67942337 4.07084083 16.26250781 4 19 C1 18 1 18 -0.203125 15.671875 C-0.54859375 14.70765625 -0.8940625 13.7434375 -1.25 12.75 C-1.60578125 11.79609375 -1.9615625 10.8421875 -2.328125 9.859375 C-3.0555304 6.76367295 -2.974419 5.00618627 -2 2 C-1.34 1.34 -0.68 0.68 0 0 Z " fill="#4C3B90" transform="translate(103,78)"/>
<path d="M0 0 C0.66 0 1.32 0 2 0 C2 0.66 2 1.32 2 2 C2.87591797 2.37318359 2.87591797 2.37318359 3.76953125 2.75390625 C6.31316284 4.17495437 7.79407698 5.73192915 9.6875 7.9375 C10.59048828 8.97197266 10.59048828 8.97197266 11.51171875 10.02734375 C13 12 13 12 14 15 C16.97 15.495 16.97 15.495 20 16 C18 18 18 18 15.8359375 18.1953125 C15.02382812 18.17210937 14.21171875 18.14890625 13.375 18.125 C12.55773437 18.10695312 11.74046875 18.08890625 10.8984375 18.0703125 C10.27195313 18.04710937 9.64546875 18.02390625 9 18 C9 16 9 14 9 12 C7.52933146 10.01956221 7.52933146 10.01956221 5.625 8.0625 C3.21766708 5.49170621 1.43053714 3.22954597 0 0 Z " fill="#554299" transform="translate(142,142)"/>
<path d="M0 0 C0.99 0.33 1.98 0.66 3 1 C2.67 2.65 2.34 4.3 2 6 C2.66 6 3.32 6 4 6 C3.896875 6.969375 3.79375 7.93875 3.6875 8.9375 C3.6457951 14.04634977 6.38417778 17.78895504 9 22 C9.33 22.66 9.66 23.32 10 24 C6.61743279 22.60802671 5.16311318 21.1974504 3.3125 18.0625 C2.68794922 17.02802734 2.68794922 17.02802734 2.05078125 15.97265625 C0.09442965 12.29995157 -0.11063559 9.4040251 -0.0625 5.3125 C-0.05347656 4.31863281 -0.04445313 3.32476562 -0.03515625 2.30078125 C-0.02355469 1.54152344 -0.01195313 0.78226562 0 0 Z " fill="#433580" transform="translate(124,85)"/>
<path d="M0 0 C3.16115776 1.36983503 3.9927092 1.9890638 6 5 C8.05003955 6.19232613 8.05003955 6.19232613 10 7 C10 9.66666667 10 12.33333333 10 15 C9.01 14.34 8.02 13.68 7 13 C6.01 13.33 5.02 13.66 4 14 C3.32968281 12.0429132 2.66385317 10.08428887 2 8.125 C1.62875 7.03445312 1.2575 5.94390625 0.875 4.8203125 C0 2 0 2 0 0 Z " fill="#7F6CAA" transform="translate(189,67)"/>
<path d="M0 0 C2 1 2 1 2.8515625 3.28515625 C3.10679688 4.20167969 3.36203125 5.11820313 3.625 6.0625 C3.88539062 6.98160156 4.14578125 7.90070312 4.4140625 8.84765625 C4.60742188 9.55792969 4.80078125 10.26820312 5 11 C0.545 10.01 0.545 10.01 -4 9 C-3.46930939 5.17902761 -2.50298434 2.93828597 0 0 Z " fill="#4F3C93" transform="translate(91,45)"/>
<path d="M0 0 C0.33 0.66 0.66 1.32 1 2 C1.66 2 2.32 2 3 2 C3 2.66 3 3.32 3 4 C3.66 4 4.32 4 5 4 C6.1875 6.1875 6.1875 6.1875 7 9 C5.625 11.8125 5.625 11.8125 4 14 C1.53698577 11.53698577 1.23233479 9.72639964 0.375 6.375 C0.11460938 5.37210938 -0.14578125 4.36921875 -0.4140625 3.3359375 C-0.60742188 2.56507812 -0.80078125 1.79421875 -1 1 C-0.67 0.67 -0.34 0.34 0 0 Z " fill="#433480" transform="translate(105,58)"/>
<path d="M0 0 C0.99 0.66 1.98 1.32 3 2 C2.01 6.62 1.02 11.24 0 16 C-0.99 15.01 -1.98 14.02 -3 13 C-3.33 13.99 -3.66 14.98 -4 16 C-4.33 16 -4.66 16 -5 16 C-5 14.02 -5 12.04 -5 10 C-3.68 9.67 -2.36 9.34 -1 9 C-1.020625 8.071875 -1.04125 7.14375 -1.0625 6.1875 C-1 3 -1 3 0 0 Z " fill="#755EA8" transform="translate(219,94)"/>
<path d="M0 0 C1.32 0 2.64 0 4 0 C4 2.97 4 5.94 4 9 C0.1626772 6.50127818 -3.45960866 3.9156164 -7 1 C-4.69 1.33 -2.38 1.66 0 2 C0 1.34 0 0.68 0 0 Z " fill="#7F6CAA" transform="translate(179,49)"/>
<path d="M0 0 C1.0828125 1.11375 1.0828125 1.11375 2.1875 2.25 C6.50224443 6.46886122 11.27641222 9.97316616 16.1328125 13.53515625 C17.89841904 14.92030783 19.4513192 16.37917569 21 18 C12.8292819 16.88190173 4.94129242 9.41891363 0 3 C0 2.01 0 1.02 0 0 Z " fill="#594697" transform="translate(95,133)"/>
<path d="M0 0 C1.9375 0.8125 1.9375 0.8125 4 2 C4.33 2.99 4.66 3.98 5 5 C5.66 5.33 6.32 5.66 7 6 C7 7.32 7 8.64 7 10 C7.99 10.33 8.98 10.66 10 11 C10.33 12.65 10.66 14.3 11 16 C10.01 15.67 9.02 15.34 8 15 C8 14.01 8 13.02 8 12 C7.34 12 6.68 12 6 12 C5.67 11.01 5.34 10.02 5 9 C4.34 8.67 3.68 8.34 3 8 C0 2.57692308 0 2.57692308 0 0 Z " fill="#4D3C93" transform="translate(200,40)"/>
<path d="M0 0 C2.56842187 2.56842187 3.29349069 5.03958551 4.5625 8.4375 C4.99691406 9.59121094 5.43132812 10.74492188 5.87890625 11.93359375 C6.61447783 13.94552299 7.32258397 15.9677519 8 18 C8.99 17.67 9.98 17.34 11 17 C11.33 17.66 11.66 18.32 12 19 C10.35 19.33 8.7 19.66 7 20 C3.37172342 13.34261178 0.29455112 7.65832917 0 0 Z " fill="#584597" transform="translate(81,107)"/>
<path d="M0 0 C2 3 2 3 1.625 5.6875 C1.41875 6.450625 1.2125 7.21375 1 8 C0.34 8 -0.32 8 -1 8 C-1.0825 8.94875 -1.165 9.8975 -1.25 10.875 C-2 14 -2 14 -4.0625 15.375 C-4.701875 15.58125 -5.34125 15.7875 -6 16 C-5.690625 14.96875 -5.38125 13.9375 -5.0625 12.875 C-4.12497188 9.61027443 -3.49227298 6.36386538 -3 3 C-2.34 3 -1.68 3 -1 3 C-0.67 2.01 -0.34 1.02 0 0 Z " fill="#725CA5" transform="translate(198,97)"/>
<path d="M0 0 C7.66742597 5.96583144 7.66742597 5.96583144 9 11 C7.68 11 6.36 11 5 11 C4 9.33333333 3 7.66666667 2 6 C0.68 6 -0.64 6 -2 6 C-1.34 4.02 -0.68 2.04 0 0 Z " fill="#564699" transform="translate(138,149)"/>
<path d="M0 0 C1.875 0.5 1.875 0.5 4 2 C4.98494554 4.65177645 5.45912382 7.20547307 6 10 C5.01 10.66 4.02 11.32 3 12 C2.49166409 10.75336669 1.99368855 9.50250613 1.5 8.25 C1.2215625 7.55390625 0.943125 6.8578125 0.65625 6.140625 C0 4 0 4 0 0 Z " fill="#2E2364" transform="translate(108,54)"/>
<path d="M0 0 C0.99 0 1.98 0 3 0 C3 0.99 3 1.98 3 3 C3.66 3 4.32 3 5 3 C4.34 4.32 3.68 5.64 3 7 C2.34 7 1.68 7 1 7 C1.309375 7.928125 1.309375 7.928125 1.625 8.875 C1.74875 9.57625 1.8725 10.2775 2 11 C1.34 11.66 0.68 12.32 0 13 C-1.28571429 4.57142857 -1.28571429 4.57142857 0 0 Z " fill="#6755A5" transform="translate(79,71)"/>
<path d="M0 0 C1.98 0.99 1.98 0.99 4 2 C4 2.66 4 3.32 4 4 C4.66 4 5.32 4 6 4 C6 4.66 6 5.32 6 6 C6.99 6.33 7.98 6.66 9 7 C9 7.66 9 8.32 9 9 C9.5775 9.226875 10.155 9.45375 10.75 9.6875 C13.5663661 11.33038023 15.08077114 13.39533227 17 16 C12.69551588 14.01727184 9.68764597 11.20343273 6.25 8 C5.64800781 7.4534375 5.04601562 6.906875 4.42578125 6.34375 C2.90846118 4.93997089 1.4490346 3.47416237 0 2 C0 1.34 0 0.68 0 0 Z " fill="#4A3C8A" transform="translate(153,133)"/>
<path d="M0 0 C1.65 0 3.3 0 5 0 C5.33 1.98 5.66 3.96 6 6 C4.68 6.99 3.36 7.98 2 9 C2 8.01 2 7.02 2 6 C1.01 6.33 0.02 6.66 -1 7 C-1 6.34 -1 5.68 -1 5 C-0.34 4.67 0.32 4.34 1 4 C0.34 3.67 -0.32 3.34 -1 3 C-0.67 2.01 -0.34 1.02 0 0 Z " fill="#6A57A6" transform="translate(90,121)"/>
<path d="M0 0 C0.66 0.33 1.32 0.66 2 1 C2.625 3.5625 2.625 3.5625 3 6 C0.1875 6.6875 0.1875 6.6875 -3 7 C-4.875 5.5625 -4.875 5.5625 -6 4 C-3 2 -3 2 0 2 C0 1.34 0 0.68 0 0 Z " fill="#584B97" transform="translate(139,105)"/>
<path d="M0 0 C3 1 3 1 4.1875 2.625 C5.27499354 5.80382728 5.1282071 8.66661533 5 12 C4.01 12 3.02 12 2 12 C1.04975021 8.30458414 1.04975021 5.69541586 2 2 C1.34 2 0.68 2 0 2 C0 1.34 0 0.68 0 0 Z " fill="#4C3B92" transform="translate(126,89)"/>
<path d="M0 0 C3.83822257 4.88501055 5.26223989 7.93696487 5.125 14.25 C5.10695313 15.32765625 5.08890625 16.4053125 5.0703125 17.515625 C5.04710938 18.33546875 5.02390625 19.1553125 5 20 C4.67 20 4.34 20 4 20 C3.87882812 19.14535156 3.75765625 18.29070312 3.6328125 17.41015625 C3.46523437 16.30542969 3.29765625 15.20070313 3.125 14.0625 C2.96257812 12.96035156 2.80015625 11.85820313 2.6328125 10.72265625 C2.42398438 9.82417969 2.21515625 8.92570312 2 8 C1.34 7.67 0.68 7.34 0 7 C-1.26229508 2.52459016 -1.26229508 2.52459016 0 0 Z " fill="#65589E" transform="translate(102,72)"/>
<path d="M0 0 C2.33294775 -0.04241723 4.66702567 -0.04092937 7 0 C8 1 8 1 8.0625 3.5625 C8.041875 4.366875 8.02125 5.17125 8 6 C7.67 5.01 7.34 4.02 7 3 C3.04 3 -0.92 3 -5 3 C-5 2.67 -5 2.34 -5 2 C-3.35 2 -1.7 2 0 2 C0 1.34 0 0.68 0 0 Z " fill="#543F98" transform="translate(138,178)"/>
<path d="M0 0 C0.99 0 1.98 0 3 0 C2.86722656 0.56847656 2.73445313 1.13695313 2.59765625 1.72265625 C1.5115242 6.47151097 0.61687618 11.16780324 0 16 C-0.33 16 -0.66 16 -1 16 C-1.02701408 13.89590361 -1.04640223 11.79170822 -1.0625 9.6875 C-1.07410156 8.51574219 -1.08570312 7.34398438 -1.09765625 6.13671875 C-1 3 -1 3 0 0 Z " fill="#685E99" transform="translate(124,76)"/>
<path d="M0 0 C0.763125 0.20625 1.52625 0.4125 2.3125 0.625 C0.6625 2.275 -0.9875 3.925 -2.6875 5.625 C-3.6775 5.295 -4.6675 4.965 -5.6875 4.625 C-5.6875 3.635 -5.6875 2.645 -5.6875 1.625 C-2.6875 -0.375 -2.6875 -0.375 0 0 Z " fill="#5F529D" transform="translate(125.6875,48.375)"/>
<path d="M0 0 C2.46301423 2.46301423 2.76766521 4.27360036 3.625 7.625 C3.88539062 8.62789062 4.14578125 9.63078125 4.4140625 10.6640625 C4.60742188 11.43492188 4.80078125 12.20578125 5 13 C4.01 13.495 4.01 13.495 3 14 C0.56574762 9.03006806 -0.34615998 5.65394631 0 0 Z " fill="#2F216C" transform="translate(102,35)"/>
<path d="M0 0 C0 0.66 0 1.32 0 2 C1.32 2.33 2.64 2.66 4 3 C4 3.66 4 4.32 4 5 C2.56068883 4.54738642 1.12361001 4.08767021 -0.3125 3.625 C-1.11300781 3.36976562 -1.91351563 3.11453125 -2.73828125 2.8515625 C-5 2 -5 2 -8 0 C-4.71023192 -1.09658936 -3.28696233 -0.79953138 0 0 Z " fill="#8477A8" transform="translate(168,45)"/>
<path d="M0 0 C3 1 3 1 4.6875 3.3125 C6 6 6 6 6 10 C5.34 10 4.68 10 4 10 C3.71125 9.195625 3.4225 8.39125 3.125 7.5625 C2.26737432 4.8673532 2.26737432 4.8673532 0 4 C0 2.68 0 1.36 0 0 Z " fill="#5F4DA1" transform="translate(207,46)"/>
<path d="M0 0 C0 3 0 3 -1 5 C-1.66 5 -2.32 5 -3 5 C-3.33 6.32 -3.66 7.64 -4 9 C-5.65 8.67 -7.3 8.34 -9 8 C-6.21751321 5.06293061 -3.12061789 2.56584137 0 0 Z " fill="#7769A6" transform="translate(180,117)"/>
<path d="M0 0 C0.33 0 0.66 0 1 0 C1.07347656 1.04800781 1.07347656 1.04800781 1.1484375 2.1171875 C1.22320312 3.02726562 1.29796875 3.93734375 1.375 4.875 C1.44460937 5.77992187 1.51421875 6.68484375 1.5859375 7.6171875 C1.79568132 10.17941903 1.79568132 10.17941903 4 12 C2.35 13.65 0.7 15.3 -1 17 C-0.67 11.39 -0.34 5.78 0 0 Z " fill="#9284B6" transform="translate(193,81)"/>
<path d="M0 0 C3.23490776 0.55774272 4.97855006 1.37211508 7 4 C7 4.99 7 5.98 7 7 C5.35 6.67 3.7 6.34 2 6 C2.33 5.01 2.66 4.02 3 3 C2.34 2.67 1.68 2.34 1 2 C0.67 1.34 0.34 0.68 0 0 Z " fill="#513F93" transform="translate(194,32)"/>
<path d="M0 0 C1.485 0.99 1.485 0.99 3 2 C2.34 5.3 1.68 8.6 1 12 C0.67 12 0.34 12 0 12 C-0.19573608 10.56359829 -0.38127816 9.12580496 -0.5625 7.6875 C-0.66691406 6.88699219 -0.77132812 6.08648437 -0.87890625 5.26171875 C-1 3 -1 3 0 0 Z " fill="#6853A7" transform="translate(219,94)"/>
<path d="M0 0 C-0.375 1.9375 -0.375 1.9375 -1 4 C-1.99 4.495 -1.99 4.495 -3 5 C-3.66 4.67 -4.32 4.34 -5 4 C-5.33 4.99 -5.66 5.98 -6 7 C-6.33 6.01 -6.66 5.02 -7 4 C-3.17391304 0 -3.17391304 0 0 0 Z " fill="#574899" transform="translate(87,62)"/>
<path d="M0 0 C1.2989839 0.90626784 2.58893167 1.82549537 3.875 2.75 C4.59429687 3.26046875 5.31359375 3.7709375 6.0546875 4.296875 C8.08570565 6.07503547 8.97855012 7.52701607 10 10 C9.01 10 8.02 10 7 10 C6.773125 9.4225 6.54625 8.845 6.3125 8.25 C4.67718931 5.44661024 2.52773272 3.99557846 0 2 C0 1.34 0 0.68 0 0 Z " fill="#352870" transform="translate(164,145)"/>
<path d="M0 0 C2.31 1.98 4.62 3.96 7 6 C6.67 6.66 6.34 7.32 6 8 C5.34 8 4.68 8 4 8 C4 7.34 4 6.68 4 6 C3.34 6 2.68 6 2 6 C2 5.34 2 4.68 2 4 C1.34 3.67 0.68 3.34 0 3 C0 2.01 0 1.02 0 0 Z " fill="#584E8F" transform="translate(113,111)"/>
<path d="M0 0 C-0.33 2.31 -0.66 4.62 -1 7 C-1.66 7 -2.32 7 -3 7 C-3.66 5.02 -4.32 3.04 -5 1 C-3 0 -3 0 0 0 Z " fill="#433A6F" transform="translate(109,73)"/>
<path d="M0 0 C0.99 0.33 1.98 0.66 3 1 C3 2.65 3 4.3 3 6 C3.66 6.33 4.32 6.66 5 7 C4.34 7.66 3.68 8.32 3 9 C0.9375 6.1875 0.9375 6.1875 -1 3 C-0.67 2.01 -0.34 1.02 0 0 Z " fill="#806EA4" transform="translate(185,58)"/>
<path d="M0 0 C2.35171131 0.59861742 4.6859378 1.26924352 7 2 C7.33 2.66 7.66 3.32 8 4 C7.34 4.66 6.68 5.32 6 6 C6 5.34 6 4.68 6 4 C4.35 3.67 2.7 3.34 1 3 C0.67 2.01 0.34 1.02 0 0 Z " fill="#57439B" transform="translate(109,178)"/>
<path d="M0 0 C1.32 0 2.64 0 4 0 C2.25 5.75 2.25 5.75 0 8 C-1.09658936 4.71023192 -0.79953138 3.28696233 0 0 Z " fill="#7666A1" transform="translate(171,97)"/>
<path d="M0 0 C5.57142857 5.14285714 5.57142857 5.14285714 6 9 C4.68 8.67 3.36 8.34 2 8 C1.34 5.36 0.68 2.72 0 0 Z " fill="#7E6FA2" transform="translate(169,67)"/>
<path d="M0 0 C2.97 0.495 2.97 0.495 6 1 C5.67 1.99 5.34 2.98 5 4 C3.35 3.67 1.7 3.34 0 3 C0 2.01 0 1.02 0 0 Z " fill="#6B57A7" transform="translate(110,144)"/>
<path d="M0 0 C0.66 0.66 1.32 1.32 2 2 C1.625 4.125 1.625 4.125 1 6 C-0.98 6.33 -2.96 6.66 -5 7 C-3.35 4.69 -1.7 2.38 0 0 Z " fill="#8070A8" transform="translate(186,110)"/>
<path d="M0 0 C2.96404505 2.80804268 5.44499019 5.18315774 7 9 C3.64564078 7.61198929 1.88709697 6.11371 0 3 C0 2.01 0 1.02 0 0 Z " fill="#443A70" transform="translate(127,100)"/>
<path d="M0 0 C0.66 0.33 1.32 0.66 2 1 C-1.01887244 4.48331435 -3.56909529 5.79157144 -8 7 C-5.42215154 4.35247996 -3.08351902 2.05567935 0 0 Z " fill="#E4E0F4" transform="translate(129,49)"/>
<path d="M0 0 C6.625 -0.25 6.625 -0.25 10 2 C6.18243176 3.37432457 2.92744671 2.67975039 -1 2 C-0.67 1.34 -0.34 0.68 0 0 Z " fill="#7A63B2" transform="translate(152,17)"/>
<path d="M0 0 C1.125 1.75 1.125 1.75 2 4 C1.125 6.25 1.125 6.25 0 8 C-2 6 -2 6 -3 3 C-2.01 2.01 -1.02 1.02 0 0 Z " fill="#7F67B1" transform="translate(210,107)"/>
<path d="M0 0 C1.32 0.66 2.64 1.32 4 2 C2.02 3.32 0.04 4.64 -2 6 C-2 3 -2 3 0 0 Z " fill="#7666A2" transform="translate(165,106)"/>
<path d="M0 0 C1.125 3.75 1.125 3.75 0 6 C-2 6 -2 6 -3.625 4.5 C-4.07875 4.005 -4.5325 3.51 -5 3 C-3.7124791 0.4249582 -2.85933002 0 0 0 Z " fill="#544498" transform="translate(214,54)"/>
<path d="M0 0 C0.66 0.33 1.32 0.66 2 1 C1.67 2.32 1.34 3.64 1 5 C-0.32 5.33 -1.64 5.66 -3 6 C-1.125 1.125 -1.125 1.125 0 0 Z " fill="#5B499D" transform="translate(91,45)"/>
<path d="M0 0 C0.66 0.99 1.32 1.98 2 3 C0.35 4.65 -1.3 6.3 -3 8 C-3.66 7.67 -4.32 7.34 -5 7 C-4.360625 6.21625 -3.72125 5.4325 -3.0625 4.625 C-1.01857687 2.20460719 -1.01857687 2.20460719 0 0 Z " fill="#563D98" transform="translate(116,205)"/>
<path d="M0 0 C2.475 0.495 2.475 0.495 5 1 C5 1.66 5 2.32 5 3 C4.34 3 3.68 3 3 3 C2.67 3.99 2.34 4.98 2 6 C0 3 0 3 0 0 Z " fill="#6956A5" transform="translate(106,140)"/>
<path d="M0 0 C3.3 0 6.6 0 10 0 C9.67 0.99 9.34 1.98 9 3 C8.34 3 7.68 3 7 3 C7 2.34 7 1.68 7 1 C4.69 1.33 2.38 1.66 0 2 C0 1.34 0 0.68 0 0 Z " fill="#5A4E98" transform="translate(150,130)"/>
<path d="M0 0 C0.33 0 0.66 0 1 0 C1.625 2.875 1.625 2.875 2 6 C1.34 6.66 0.68 7.32 0 8 C0 7.34 0 6.68 0 6 C-0.66 6 -1.32 6 -2 6 C-1.125 1.125 -1.125 1.125 0 0 Z " fill="#5345A1" transform="translate(135,100)"/>
</svg>
