<?xml version="1.0" encoding="UTF-8"?>
<svg version="1.1" xmlns="http://www.w3.org/2000/svg" width="668" height="374">
<path d="M0 0 C2.625 2.125 2.625 2.125 3.625 4.125 C3.625 11.385 3.625 18.645 3.625 26.125 C-50.825 26.125 -105.275 26.125 -161.375 26.125 C-160.715 29.095 -160.055 32.065 -159.375 35.125 C-158.44016313 35.12831015 -157.50532625 35.13162029 -156.54216099 35.13503075 C-133.78158651 35.2160726 -111.02107908 35.30840273 -88.26059818 35.41252708 C-77.25374296 35.46262054 -66.24689507 35.50906386 -55.23999023 35.546875 C-45.64489564 35.57984556 -36.04985844 35.61970479 -26.45482725 35.66779006 C-21.37569557 35.69300466 -16.29660172 35.71480081 -11.21742439 35.72834396 C-6.43302671 35.74121005 -1.6487591 35.76331333 3.13556671 35.79238319 C4.88784691 35.80142348 6.64014804 35.80714088 8.39245033 35.80921364 C30.90416654 35.84060067 30.90416654 35.84060067 38.625 42.125 C45.87502596 49.58216956 46.0667759 57.99696226 46.02905273 67.82397461 C46.03591599 69.07865036 46.04277924 70.33332611 46.04985046 71.62602234 C46.06495809 75.04771636 46.06662853 78.46886294 46.06090808 81.89054942 C46.05780487 84.75570452 46.06392119 87.62081096 46.06994683 90.48595911 C46.08396472 97.24938875 46.08245362 104.012692 46.07104492 110.77612305 C46.05956583 117.73471242 46.0736418 124.69291628 46.1004414 131.65145487 C46.12264991 137.64409138 46.12922424 143.63660734 46.12336498 149.62928206 C46.12000652 153.20044257 46.12233589 156.77135603 46.13961601 160.34248161 C46.15805896 164.32734985 46.14384506 168.31174954 46.12670898 172.29663086 C46.14121094 174.05263611 46.14121094 174.05263611 46.15600586 175.84411621 C46.08449346 183.80425519 44.87839801 190.25067513 39.66015625 196.46484375 C38.68369141 197.25568359 38.68369141 197.25568359 37.6875 198.0625 C37.03910156 198.60777344 36.39070312 199.15304687 35.72265625 199.71484375 C30.90027234 202.95670705 26.52481784 203.41683122 20.82646179 203.39242554 C19.65858264 203.39922221 19.65858264 203.39922221 18.46710998 203.40615618 C15.86172043 203.4188027 13.25653986 203.41717965 10.65112305 203.41552734 C8.78161348 203.42151246 6.91210638 203.42831797 5.04260254 203.43588257 C-0.03393613 203.45355202 -5.11040737 203.45823836 -10.18697381 203.45951414 C-13.35953679 203.46093582 -16.53208262 203.46520575 -19.70464134 203.47050858 C-30.77535465 203.48901234 -41.84601979 203.4971788 -52.91674805 203.49560547 C-63.2317687 203.49440414 -73.54658007 203.51550393 -83.86154777 203.5470928 C-92.72115827 203.57325662 -101.58070044 203.58397271 -110.44034928 203.58269465 C-115.73016254 203.58218503 -121.01978985 203.58786846 -126.30956459 203.60905075 C-131.28613644 203.62843469 -136.26234498 203.62855644 -141.23892975 203.61401749 C-143.06260649 203.61192846 -144.88630599 203.61663591 -146.70994377 203.6287384 C-149.20555732 203.64422411 -151.6999233 203.6348616 -154.19551086 203.61947632 C-154.91196866 203.62976344 -155.62842645 203.64005057 -156.36659509 203.65064943 C-163.17134184 203.55836141 -168.14104777 201.06109193 -173.1875 196.6875 C-178.45477705 190.51726118 -179.49469787 185.5934233 -179.51544189 177.5970459 C-179.51841302 176.95518388 -179.52138414 176.31332187 -179.5244453 175.65200949 C-179.53309031 173.50952941 -179.53463694 171.36710548 -179.53613281 169.22460938 C-179.54076379 167.68520489 -179.54578882 166.14580155 -179.55117798 164.60639954 C-179.56427292 160.43087366 -179.57074069 156.25536383 -179.57518864 152.07982063 C-179.57812271 149.47078868 -179.58222804 146.86176108 -179.58669281 144.25273132 C-179.6003571 136.08832333 -179.61003024 127.92392534 -179.6138947 119.7595067 C-179.6183797 110.33643931 -179.63595248 100.91351667 -179.6648953 91.4904933 C-179.68649991 84.20374742 -179.69659825 76.91704233 -179.69793582 69.63026476 C-179.69898428 65.27898113 -179.70490137 60.92783377 -179.72275543 56.57658386 C-179.73921612 52.4856827 -179.74140146 48.39502058 -179.73261642 44.30409813 C-179.7318451 42.80328418 -179.73620134 41.30245747 -179.74607468 39.8016758 C-179.75876922 37.75181659 -179.75293206 35.70280738 -179.74249268 33.6529541 C-179.74469252 31.93295071 -179.74469252 31.93295071 -179.7469368 30.17819977 C-179.32876056 26.74542409 -178.41644861 24.89017984 -176.375 22.125 C-173.09285291 19.6999752 -170.37286976 18.70138875 -166.35351562 18.18554688 C-165.32859009 18.04846313 -164.30366455 17.91137939 -163.24768066 17.7701416 C-162.10375854 17.62943237 -160.95983643 17.48872314 -159.78125 17.34375 C-157.91502991 17.10029846 -157.91502991 17.10029846 -156.0111084 16.85192871 C-152.31890072 16.37145627 -148.6247566 15.90744028 -144.93017578 15.44561768 C-141.23591533 14.98207023 -137.54270291 14.51038249 -133.84938049 14.03942871 C-118.3767733 12.06726894 -102.89975558 10.13040645 -87.42279053 8.19281006 C-80.62283501 7.34135559 -73.82301908 6.48880355 -67.02346802 5.63412476 C-64.82938656 5.3583475 -62.63527464 5.08281243 -60.44113159 4.80752563 C-50.2690329 3.53014306 -40.09842315 2.24970839 -29.9453125 0.828125 C-29.25209145 0.73109535 -28.55887039 0.6340657 -27.84464264 0.53409576 C-24.78771242 0.10403148 -21.73225505 -0.33443876 -18.67810059 -0.78381348 C-4.96698087 -2.75943382 -4.96698087 -2.75943382 0 0 Z M-90.265625 77.015625 C-95.41331888 83.36278153 -96.96976136 89.94703124 -96.375 98.125 C-95.29007855 104.2005601 -93.02972905 108.17442446 -88.375 112.125 C-80.94651271 116.97230002 -72.59359681 119.51980215 -64.13793945 121.94555664 C-59.04394432 123.43848702 -54.93041271 125.40691764 -50.375 128.125 C-49.715 128.125 -49.055 128.125 -48.375 128.125 C-48.1275 128.66125 -47.88 129.1975 -47.625 129.75 C-46.39222129 132.26563148 -46.39222129 132.26563148 -44.3125 134.75 C-41.75461624 139.20566849 -41.18049448 143.0192301 -41.375 148.125 C-42.97517944 153.86682036 -45.41632726 156.85040479 -50.375 160.125 C-57.16809668 162.70169184 -63.25855308 162.09585302 -70.375 161.125 C-71.17292969 161.02316406 -71.97085938 160.92132813 -72.79296875 160.81640625 C-79.17655088 159.72046383 -84.0086725 156.61666673 -89.375 153.125 C-91.03817225 152.1191989 -92.70390539 151.11758279 -94.375 150.125 C-95.695 151.445 -97.015 152.765 -98.375 154.125 C-96.325568 160.20047355 -92.79676747 162.90720305 -87.375 166.125 C-74.64114413 171.65529375 -61.5828135 174.19317187 -48.22265625 169.34375 C-41.10279079 166.17329168 -36.06942263 161.34147063 -32.9375 154.1875 C-30.01755398 145.74504738 -31.15667329 140.03745051 -34.77734375 132.01953125 C-39.83966643 122.8479393 -49.21860439 116.70260754 -58.9453125 113.19921875 C-60.56068109 112.7343458 -62.18060181 112.28500016 -63.8046875 111.8515625 C-72.18668466 109.48218336 -80.92819022 106.25456403 -86.375 99.125 C-87.57057507 96.3316518 -87.8581854 94.12428499 -87.375 91.125 C-86.28583741 88.52656924 -84.95483956 86.49475934 -83.375 84.125 C-83.045 83.135 -82.715 82.145 -82.375 81.125 C-79.625 80.0625 -79.625 80.0625 -76.375 79.125 C-75.62476563 78.78210938 -74.87453125 78.43921875 -74.1015625 78.0859375 C-67.93997137 75.91437386 -59.42445788 75.90593092 -53.3125 78.375 C-50.375 80.125 -50.375 80.125 -47.6875 82.375 C-45.56635529 84.37293836 -45.56635529 84.37293836 -43.1875 84 C-41.18766959 83.15725102 -41.18766959 83.15725102 -39.375 81.125 C-39.50308557 77.85348101 -40.00135005 76.4949431 -42.34375 74.17578125 C-56.93039794 64.15871592 -77.11886687 63.86886687 -90.265625 77.015625 Z " fill="#ED4F2D" transform="translate(237.375,72.875)"/>
<path d="M0 0 C67.86910995 0 67.86910995 0 83 15 C91.10262174 24.61613033 93.98455458 33.45832062 94 46 C93.104067 56.3602434 87.92730721 64.97224763 80.44140625 71.96484375 C67.267267 82.94680623 53.17404337 84.60132326 36.6875 84.25 C31.180625 84.1675 25.67375 84.085 20 84 C20 95.55 20 107.1 20 119 C13.4 119 6.8 119 0 119 C0 79.73 0 40.46 0 0 Z M20 20 C20 34.52 20 49.04 20 64 C25.07375 64.103125 30.1475 64.20625 35.375 64.3125 C36.95458496 64.35802002 38.53416992 64.40354004 40.16162109 64.45043945 C50.13942158 64.54821155 57.18389412 63.09881351 64.9375 56.5 C69.30450689 51.20665831 71.1848793 46.90986388 71 40 C69.89371199 34.56733568 67.29179714 29.58324573 63 26 C56.02007563 21.80751296 50.40225964 19.86665676 42.265625 19.90234375 C41.09805664 19.90484131 39.93048828 19.90733887 38.72753906 19.90991211 C37.24995117 19.91901611 35.77236328 19.92812012 34.25 19.9375 C27.19625 19.9684375 27.19625 19.9684375 20 20 Z " fill="#EB4F2E" transform="translate(314,157)"/>
<path d="M0 0 C0.33 -2.31 0.66 -4.62 1 -7 C6.61 -7 12.22 -7 18 -7 C18 20.72 18 48.44 18 77 C12.39 77 6.78 77 1 77 C0.505 73.535 0.505 73.535 0 70 C-0.78503906 70.40992188 -1.57007813 70.81984375 -2.37890625 71.2421875 C-14.92813203 77.67847753 -25.85549257 80.3019423 -39.8125 76.375 C-50.4739998 72.66158927 -59.14341766 66.14855337 -64.57421875 56.08203125 C-69.83842408 44.66368329 -71.51236385 31.01967761 -67.4375 18.8125 C-61.75069943 6.03722267 -51.62476804 -1.71961337 -39 -7 C-25.08083111 -10.75525235 -11.93471601 -7.29343756 0 0 Z M-47.32421875 21.67578125 C-51.11440822 27.88637241 -50.79652694 34.97085503 -50 42 C-48.32737369 48.25502855 -44.34183735 52.50055145 -39 56 C-32.90093974 59.29847137 -26.66008341 60.03942381 -19.8984375 58.53125 C-13.36410517 56.41200708 -8.15113602 52.38032638 -4.5625 46.5 C-1.71734376 40.09531929 -1.87173541 32.21930901 -3.66015625 25.53125 C-6.46689118 19.21305881 -11.58044282 14.82087608 -17.875 12.125 C-29.35612866 8.4013907 -39.97600641 12.37671608 -47.32421875 21.67578125 Z " fill="#EC4F2E" transform="translate(477,198)"/>
<path d="M0 0 C8.58 0 17.16 0 26 0 C30.63128311 8.13983092 35.20099595 16.23157343 39.32421875 24.640625 C41.57208135 29.14682975 43.90738642 33.60497471 46.25 38.0625 C46.90536743 39.3141394 46.90536743 39.3141394 47.57397461 40.59106445 C47.98784424 41.37698975 48.40171387 42.16291504 48.828125 42.97265625 C49.3835498 44.02851929 49.3835498 44.02851929 49.95019531 45.10571289 C50.88197337 46.78703055 51.93372836 48.40059254 53 50 C53.43828125 49.10023438 53.8765625 48.20046875 54.328125 47.2734375 C58.87861167 38.01563532 63.71869603 28.94385984 68.68945312 19.90527344 C72.29177796 13.34108844 75.72384469 6.73431924 79 0 C86.92 0 94.84 0 103 0 C101.63802567 4.08592298 100.44581992 7.33290979 98.49609375 11.0546875 C97.76277832 12.45932251 97.76277832 12.45932251 97.01464844 13.89233398 C96.49418945 14.87661377 95.97373047 15.86089355 95.4375 16.875 C94.9002832 17.89859619 94.36306641 18.92219238 93.80957031 19.97680664 C90.36653621 26.50597498 86.81038234 32.95853177 83.14746094 39.36621094 C80.31857493 44.34678803 77.75376836 49.42870581 75.23388672 54.57104492 C72.27728929 60.5545659 69.09013851 66.40210069 65.875 72.25 C62.31074219 78.73490061 58.81808696 85.2263702 55.55859375 91.87109375 C53.40585794 96.19275136 51.17641064 100.47247644 48.9375 104.75 C48.5254834 105.54301514 48.1134668 106.33603027 47.68896484 107.15307617 C46.8788986 108.69582099 46.05181805 110.22976171 45.20727539 111.75390625 C43.96690692 113.98347248 43.96690692 113.98347248 42.99389648 116.33984375 C41.86043087 118.69050426 40.95627713 120.26399235 39 122 C35.02115122 122.9738521 31.25263918 122.75826174 27.1875 122.5 C26.11306641 122.46390625 25.03863281 122.4278125 23.93164062 122.390625 C21.28411207 122.29649065 18.64388994 122.16518356 16 122 C16.94181166 117.68814826 18.96611061 114.09641502 21.0625 110.25 C25.18338211 102.58333881 29.22887562 94.877326 32.96411133 87.01367188 C34 85 34 85 35.51049805 82.64257812 C38.45779404 77.92991272 38.45779404 77.92991272 38.49560547 72.5871582 C37.27642795 70.02867292 35.88131404 67.73489281 34.3125 65.375 C33.32483685 63.78148173 32.34191707 62.18501564 31.36328125 60.5859375 C30.82606445 59.72105713 30.28884766 58.85617676 29.73535156 57.96508789 C27.34264799 53.87682327 25.27222845 49.65364943 23.18180847 45.40516663 C20.65607737 40.28200303 18.03650592 35.21725859 15.3515625 30.17578125 C14.9631871 29.44588989 14.57481171 28.71599854 14.17466736 27.96398926 C12.58630654 24.98283348 10.99445537 22.00355115 9.40185547 19.0246582 C8.21628323 16.80533349 7.03379925 14.58438408 5.8515625 12.36328125 C5.49325348 11.69557205 5.13494446 11.02786285 4.76577759 10.33992004 C2.9506667 6.92745145 1.44170909 3.60427272 0 0 Z " fill="#EC4F2E" transform="translate(501,190)"/>
<path d="M0 0 C1.4540625 0.0309375 1.4540625 0.0309375 2.9375 0.0625 C3.5975 2.0425 4.2575 4.0225 4.9375 6.0625 C5.865625 5.423125 6.79375 4.78375 7.75 4.125 C13.34182297 0.50676161 18.43848064 0.43930636 24.9375 1.0625 C32.13321127 3.10087555 36.58807665 8.1111971 40.3125 14.375 C41.86528077 21.05195732 41.71402208 27.21506415 38.2734375 33.2421875 C34.76744404 38.01935987 30.56315044 41.20696312 24.9375 43.0625 C22.359375 43.3984375 22.359375 43.3984375 19.6875 43.4375 C18.81609375 43.46585938 17.9446875 43.49421875 17.046875 43.5234375 C12.63230809 42.86901678 8.92518824 41.00784819 4.9375 39.0625 C4.91244385 39.8145874 4.8873877 40.5666748 4.86157227 41.34155273 C4.74599486 44.72789196 4.62309655 48.11392613 4.5 51.5 C4.46068359 52.68400391 4.42136719 53.86800781 4.38085938 55.08789062 C4.33896484 56.21259766 4.29707031 57.33730469 4.25390625 58.49609375 C4.21724854 59.53822021 4.18059082 60.58034668 4.14282227 61.65405273 C3.9375 64.0625 3.9375 64.0625 2.9375 65.0625 C-0.0625 65.1875 -0.0625 65.1875 -3.0625 65.0625 C-4.85346045 63.27153955 -4.19016791 60.59917215 -4.19189453 58.18164062 C-4.19504669 56.92363647 -4.19819885 55.66563232 -4.20144653 54.36950684 C-4.19965675 52.98592087 -4.1976058 51.60233522 -4.1953125 50.21875 C-4.19598559 48.81009911 -4.19695565 47.40144834 -4.19821167 45.99279785 C-4.19968842 43.03701677 -4.19753483 40.08126586 -4.19287109 37.12548828 C-4.18717381 33.32875416 -4.19045293 29.53209072 -4.19644356 25.73535919 C-4.20004979 22.82553572 -4.1989103 19.91572912 -4.19631577 17.00590515 C-4.19564667 15.605606 -4.19647432 14.20530533 -4.19879532 12.80500793 C-4.20132283 10.85112536 -4.19679033 8.89723745 -4.19189453 6.94335938 C-4.19109894 5.82940796 -4.19030334 4.71545654 -4.18948364 3.56774902 C-4.00221223 -0.12691199 -3.76719721 0.07688158 0 0 Z M10.9375 12.0625 C8.03116036 14.81587439 7.05542125 16.63012209 6 20.5 C5.92649579 24.68974004 6.62400256 26.59225384 8.9375 30.0625 C12.64255813 33.87047641 15.64766142 34.87357719 20.9375 35.0625 C25.44445948 33.98941441 27.88192525 31.45758305 30.9375 28.0625 C32.47347454 24.99055092 32.1640038 22.46005707 31.9375 19.0625 C30.35939381 14.9594239 28.87758031 12.14198683 24.9375 10.0625 C19.31317987 8.57683053 15.98508812 9.20537465 10.9375 12.0625 Z " fill="#EB4F2E" transform="translate(467.0625,100.9375)"/>
<path d="M0 0 C0.928125 0.680625 0.928125 0.680625 1.875 1.375 C3 3 3 3 2.6875 5.6875 C2.460625 6.450625 2.23375 7.21375 2 8 C-0.125 8.75 -0.125 8.75 -3 9 C-6 7 -6 7 -9 5 C-14.04642967 3.54371569 -18.19540322 3.75785483 -23 6 C-25.99248587 7.9284909 -27.63468536 9.16192523 -29.0625 12.4375 C-28.97049035 16.20989565 -27.67014804 17.35011105 -25 20 C-22.01456506 21.44914387 -18.90991819 22.43694039 -15.75 23.4375 C-5.95108188 26.55254069 2.19134784 30.95399351 7.25 40.3125 C8.52215172 44.87104366 8.96952506 48.79252766 7.0546875 53.15234375 C4.05651166 58.21530106 0.78300268 61.64243772 -4.5625 64.25 C-14.14839076 66.34146708 -23.14069502 65.20657647 -32 61 C-34.64539162 59.16478754 -36.71106663 57.28893337 -39 55 C-38.67 53.35 -38.34 51.7 -38 50 C-34.87750712 49.02806125 -33.48163007 48.77588246 -30.46484375 50.1796875 C-29.63082031 50.73914063 -28.79679687 51.29859375 -27.9375 51.875 C-21.7588244 55.9687296 -16.38494318 56.8503168 -9 56 C-5.72356243 54.36178121 -3.77631269 53.01258177 -1.5625 50.125 C-0.73861251 47.01253614 -1.05750962 45.07880192 -2 42 C-7.13168208 34.74486327 -16.90215756 32.7210557 -24.9375 29.9375 C-30.60330585 27.88313587 -33.88649695 26.07341948 -36.8125 20.625 C-38.53908388 15.35437553 -38.63147071 11.97915423 -36.375 6.9375 C-32.90441348 0.66650918 -29.06801916 -1.92744902 -22.3125 -3.9375 C-14.57449178 -5.64101673 -6.43514451 -5.02745665 0 0 Z " fill="#EA502F" transform="translate(353,79)"/>
<path d="M0 0 C2.45581055 1.11254883 2.45581055 1.11254883 5 3 C5.65942383 5.8190918 5.65942383 5.8190918 5.70703125 9.19921875 C5.73603516 10.40771484 5.76503906 11.61621094 5.79492188 12.86132812 C5.80072266 14.12396484 5.80652344 15.38660156 5.8125 16.6875 C5.85020508 18.59885742 5.85020508 18.59885742 5.88867188 20.54882812 C5.94767376 23.69952858 5.98385966 26.84883548 6 30 C7.83884766 29.26910156 7.83884766 29.26910156 9.71484375 28.5234375 C15.76478475 26.26220047 20.58116401 26.23403527 26.75 28.1875 C30.50405833 30.28110945 34.11566036 32.5221837 35.62231445 36.74365234 C36.44043469 41.63122002 36.18590026 46.63934012 36.18530273 51.58203125 C36.18750022 53.62520851 36.20571012 55.66785487 36.22460938 57.7109375 C36.22654297 58.99484375 36.22847656 60.27875 36.23046875 61.6015625 C36.23457764 62.78057129 36.23868652 63.95958008 36.24291992 65.17431641 C36 68 36 68 34 70 C31.4375 70.1875 31.4375 70.1875 29 70 C27.21951711 68.21951711 27.82774178 65.58134593 27.7890625 63.171875 C27.76070313 61.97949219 27.73234375 60.78710938 27.703125 59.55859375 C27.6513651 57.03529875 27.60699976 54.5118404 27.5703125 51.98828125 C27.539375 50.79074219 27.5084375 49.59320313 27.4765625 48.359375 C27.45674316 47.26077148 27.43692383 46.16216797 27.41650391 45.03027344 C26.95180243 41.64933865 26.02159052 39.7271992 24 37 C19.74477496 35.28471549 15.26356686 35.59508273 11.0625 37.3125 C7.99921006 38.81541789 7.99921006 38.81541789 6 41 C5.66096313 43.66782786 5.66096313 43.66782786 5.65625 46.77734375 C5.62660156 47.93041016 5.59695313 49.08347656 5.56640625 50.27148438 C5.54449219 51.48126953 5.52257812 52.69105469 5.5 53.9375 C5.45667245 56.32178978 5.40497796 58.70594649 5.34375 61.08984375 C5.32505859 62.15066162 5.30636719 63.21147949 5.28710938 64.30444336 C5 67 5 67 3 70 C0.5 70.375 0.5 70.375 -2 70 C-4.34690389 66.47964416 -4.26217793 65.00152914 -4.29052734 60.83203125 C-4.30328705 59.56061279 -4.31604675 58.28919434 -4.32919312 56.97924805 C-4.3322501 55.59033358 -4.33447822 54.20141707 -4.3359375 52.8125 C-4.34236387 51.3890774 -4.34909211 49.96565614 -4.35610962 48.54223633 C-4.36808263 45.5597019 -4.37179031 42.57728332 -4.37060547 39.59472656 C-4.37040198 35.77106186 -4.39773317 31.94813797 -4.43214989 28.12464905 C-4.45437265 25.18555277 -4.4584445 22.2466363 -4.45738602 19.3074646 C-4.45974785 17.89762818 -4.4686042 16.48778723 -4.48405075 15.07803345 C-4.50361835 13.10810897 -4.49537401 11.13796734 -4.48583984 9.16796875 C-4.48868988 8.04672607 -4.49153992 6.9254834 -4.49447632 5.77026367 C-4 3 -4 3 -1.96963501 1.11450195 C-1.31965546 0.74671631 -0.6696759 0.37893066 0 0 Z " fill="#E85131" transform="translate(369,74)"/>
<path d="M0 0 C5.30421254 3.1370063 8.77175192 6.61841152 10.90625 12.48828125 C11.61696313 15.86416863 12.05470215 18.62409279 11.65625 22.05078125 C8.07202704 24.44026322 6.28392404 24.35311293 2.01953125 24.46484375 C0.72080078 24.50351563 -0.57792969 24.5421875 -1.91601562 24.58203125 C-3.28775573 24.61348642 -4.65950061 24.64473376 -6.03125 24.67578125 C-7.41473785 24.71397322 -8.79820223 24.75302567 -10.18164062 24.79296875 C-13.5688745 24.88738642 -16.95610069 24.97296243 -20.34375 25.05078125 C-17.80678208 29.64391471 -17.80678208 29.64391471 -13.34375 32.05078125 C-8.31011898 32.70994722 -3.73406503 32.43365825 0.96875 30.48828125 C4.63433694 29.05932363 6.02053275 28.80100345 9.65625 30.05078125 C10.15125 32.52578125 10.15125 32.52578125 10.65625 35.05078125 C2.89871785 40.72702428 -4.81027226 42.04256047 -14.34375 41.05078125 C-20.6957174 39.36965905 -24.83328478 36.58242342 -28.34375 31.05078125 C-30.77782114 24.41240542 -31.13411395 17.70395487 -28.5546875 11 C-25.60697599 5.40414116 -21.2853939 1.89554356 -15.42578125 -0.40234375 C-10.29469309 -1.75009674 -4.96722232 -2.01172504 0 0 Z M-19.65625 12.67578125 C-21.44028452 14.70106707 -21.44028452 14.70106707 -21.34375 16.05078125 C-13.42375 16.05078125 -5.50375 16.05078125 2.65625 16.05078125 C0.6686175 11.08169999 0.0914509 9.65405134 -4.34375 7.05078125 C-10.9657363 5.8443465 -15.21900386 7.63890725 -19.65625 12.67578125 Z " fill="#E55436" transform="translate(545.34375,102.94921875)"/>
<path d="M0 0 C4.11195653 3.19818841 6.77230983 7.21581099 7.72265625 12.33984375 C7.89268171 15.03524736 7.81143447 17.63210813 7.72265625 20.33984375 C5.8104604 22.2520396 2.38620121 21.58419673 -0.15625 21.65625 C-0.84291245 21.6770311 -1.52957489 21.69781219 -2.23704529 21.71922302 C-4.4378731 21.78478518 -6.6388235 21.8436339 -8.83984375 21.90234375 C-10.32878889 21.94552267 -11.81772148 21.98913675 -13.30664062 22.03320312 C-16.96340928 22.14047305 -20.62031693 22.24172147 -24.27734375 22.33984375 C-22.00340062 26.30949875 -20.60306206 28.55313401 -16.27734375 30.33984375 C-10.60707879 31.13129565 -6.27052825 30.16542672 -1.07421875 27.94140625 C1.42485355 27.10476031 3.26867894 27.49628905 5.72265625 28.33984375 C6.41015625 30.65234375 6.41015625 30.65234375 6.72265625 33.33984375 C3.50806771 37.51463407 -1.33041712 38.34911961 -6.27734375 39.33984375 C-13.6798616 40.13806134 -20.2015262 39.99481309 -26.27734375 35.33984375 C-31.72986397 30.09015251 -33.43375416 26.24644904 -33.58984375 18.58984375 C-33.53935517 12.46810377 -33.11187453 9.10709823 -29.27734375 4.33984375 C-21.3397998 -3.38317199 -9.82496366 -5.66902421 0 0 Z M-22.27734375 9.33984375 C-22.93734375 10.98984375 -23.59734375 12.63984375 -24.27734375 14.33984375 C-16.68734375 14.33984375 -9.09734375 14.33984375 -1.27734375 14.33984375 C-1.82135554 9.48295865 -1.82135554 9.48295865 -4.27734375 7.02734375 C-10.67871384 3.42657308 -16.83529835 4.42872961 -22.27734375 9.33984375 Z " fill="#E85031" transform="translate(596.27734375,104.66015625)"/>
<path d="M0 0 C1.28132497 0.64627249 2.55669807 1.305433 3.8125 2 C3.8125 2.66 3.8125 3.32 3.8125 4 C4.8025 4.33 5.7925 4.66 6.8125 5 C11.0895043 11.4766065 11.84968716 17.32892268 10.8125 25 C9.80732621 28.15281339 8.66633224 30.19276832 6.8125 33 C5.8225 33.33 4.8325 33.66 3.8125 34 C3.8125 34.66 3.8125 35.32 3.8125 36 C-2.82173636 39.66930604 -8.61660608 41.08635608 -16.1875 40 C-23.38734374 37.9021145 -27.81941246 32.98269268 -31.5625 26.6875 C-33.11528077 20.01054268 -32.96402208 13.84743585 -29.5234375 7.8203125 C-22.33015942 -1.98105471 -11.16764239 -4.97515822 0 0 Z M-19.1875 9 C-22.07975225 12.18889351 -23.43527252 14.7446783 -23.6875 19 C-23.43527252 23.2553217 -22.07975225 25.81110649 -19.1875 29 C-15.14337899 31.53748769 -12.21139003 32.31282002 -7.5625 31.5625 C-2.69752848 30.20097214 -0.78893832 28.30863222 1.8125 24 C2.97566793 19.92891224 3.09828305 17.80971865 1.6875 13.8125 C-1.17673548 9.51614678 -3.5502923 7.45477992 -8.5625 6.0625 C-12.98052462 5.98632716 -15.37715682 6.7713087 -19.1875 9 Z " fill="#DF5C40" transform="translate(444.1875,104)"/>
<path d="M0 0 C1.40320572 2.80641144 1.11305451 5.10706037 1.10006714 8.24743652 C1.09817373 9.21946888 1.09817373 9.21946888 1.09624207 10.21113825 C1.09084462 12.39275416 1.07831705 14.57427285 1.06591797 16.75585938 C1.06072681 18.31626234 1.05601826 19.87666697 1.05175781 21.43707275 C1.04180023 24.80378218 1.0289438 28.17046407 1.01403427 31.53715515 C0.99099415 36.86643413 0.97767287 42.19570928 0.96633911 47.52502441 C0.93289046 62.68209611 0.89143079 77.83911321 0.82861328 92.99609375 C0.7940209 101.36244923 0.77025523 109.72876347 0.75840485 118.0951829 C0.75164927 122.52102993 0.7392554 126.94670243 0.71337509 131.3724823 C0.68899635 135.5421243 0.67873134 139.711568 0.67897034 143.88127899 C0.67656186 145.4058022 0.66904536 146.93032791 0.65584183 148.45479584 C0.58718492 156.73231191 0.92142346 164.20682924 4 172 C5.65 172.33 7.3 172.66 9 173 C9.33 174.32 9.66 175.64 10 177 C5.65481385 175.22973897 2.29214695 172.51516286 0.11880207 168.28474903 C-2.63989432 160.87894879 -2.41547875 153.41362479 -2.37231445 145.62963867 C-2.37474602 144.08802038 -2.37846887 142.54640366 -2.38337708 141.00479126 C-2.39273585 136.84188002 -2.38340523 132.67920594 -2.37004495 128.51631331 C-2.35868602 124.15266518 -2.36284112 119.78902795 -2.36479187 115.42536926 C-2.36567298 108.10458523 -2.354629 100.78389413 -2.33618164 93.46313477 C-2.31497728 84.99980168 -2.31151362 76.53660428 -2.3177436 68.07325 C-2.32343591 59.92269423 -2.31779572 51.77218622 -2.30657005 43.62163734 C-2.30192634 40.1556135 -2.30104918 36.68961887 -2.3031559 33.22359276 C-2.30503823 29.14661085 -2.29693921 25.06976729 -2.2810955 20.99281693 C-2.27685096 19.49642954 -2.27600325 18.00002813 -2.27878571 16.50363731 C-2.28200533 14.46267954 -2.27170474 12.42171371 -2.26069641 10.38078308 C-2.25864354 9.23838763 -2.25659067 8.09599218 -2.25447559 6.91897869 C-2.00622632 4.07141941 -1.48145923 2.41140437 0 0 Z " fill="#E47458" transform="translate(60,96)"/>
<path d="M0 0 C0.66 0.99 1.32 1.98 2 3 C5.46705455 4.75585371 8.44294174 5.27869971 12.30078125 5.4140625 C13.27724609 5.45273438 14.25371094 5.49140625 15.25976562 5.53125 C16.26716797 5.5621875 17.27457031 5.593125 18.3125 5.625 C19.85260742 5.68300781 19.85260742 5.68300781 21.42382812 5.7421875 C23.94904265 5.83614897 26.47425592 5.9218154 29 6 C29.33 5.34 29.66 4.68 30 4 C30.99 4 31.98 4 33 4 C33.33 3.01 33.66 2.02 34 1 C36.3610284 4.61098461 35.80632176 6.88381202 35 11 C34.10692139 11.00410889 33.21384277 11.00821777 32.29370117 11.01245117 C28.97745641 11.03943357 25.66306719 11.08851177 22.34741211 11.15258789 C20.91295767 11.17577394 19.47833285 11.19016513 18.04370117 11.19555664 C15.97987644 11.20484349 13.91873292 11.24581408 11.85546875 11.29296875 C10.61434326 11.3086792 9.37321777 11.32438965 8.09448242 11.34057617 C4.80869573 11.67360756 4.80869573 11.67360756 3.2590332 14.48168945 C2.63581177 15.72825317 2.63581177 15.72825317 2 17 C1.01 17.33 0.02 17.66 -1 18 C-2.10514766 14.68455701 -2.32107631 11.79589889 -2.5625 8.3125 C-2.64628906 7.13300781 -2.73007812 5.95351562 -2.81640625 4.73828125 C-2.87699219 3.83464844 -2.93757812 2.93101563 -3 2 C-2.01 1.34 -1.02 0.68 0 0 Z " fill="#ED4E2C" transform="translate(567,114)"/>
<path d="M0 0 C0 0.33 0 0.66 0 1 C-0.98742187 1.09796875 -1.97484375 1.1959375 -2.9921875 1.296875 C-4.27351563 1.44640625 -5.55484375 1.5959375 -6.875 1.75 C-8.15117188 1.88921875 -9.42734375 2.0284375 -10.7421875 2.171875 C-14.08718268 2.62226822 -14.08718268 2.62226822 -15.2578125 5.015625 C-15.50273438 5.67046875 -15.74765625 6.3253125 -16 7 C-16.99 7.33 -17.98 7.66 -19 8 C-18.71905418 9.8141927 -18.42493567 11.62635001 -18.125 13.4375 C-17.88136719 14.95150391 -17.88136719 14.95150391 -17.6328125 16.49609375 C-17.42398438 17.32238281 -17.21515625 18.14867188 -17 19 C-16.34 19.33 -15.68 19.66 -15 20 C-16 21 -16 21 -18.5625 21.0625 C-19.366875 21.041875 -20.17125 21.02125 -21 21 C-21 18.36 -21 15.72 -21 13 C-21.66 13 -22.32 13 -23 13 C-23.33 12.01 -23.66 11.02 -24 10 C-23.938125 10.94875 -23.87625 11.8975 -23.8125 12.875 C-23.874375 13.90625 -23.93625 14.9375 -24 16 C-24.99 16.66 -25.98 17.32 -27 18 C-27 16.35 -27 14.7 -27 13 C-28.32 13 -29.64 13 -31 13 C-31.33 13.66 -31.66 14.32 -32 15 C-32.99 15.495 -32.99 15.495 -34 16 C-35.32938139 9.83650445 -35.32938139 9.83650445 -33.96484375 6.37109375 C-31.23670326 3.07888445 -29.0467194 2.94107271 -24.875 2.25 C-23.86457642 2.07633911 -23.86457642 2.07633911 -22.83374023 1.89916992 C-20.89323921 1.57408298 -18.94663212 1.2860929 -17 1 C-16.10667969 0.86722656 -15.21335937 0.73445313 -14.29296875 0.59765625 C-9.5135252 -0.01337594 -4.81458068 -0.08753783 0 0 Z " fill="#E85233" transform="translate(95,89)"/>
<path d="M0 0 C2.375 0.3125 2.375 0.3125 5 1 C5.763125 1.185625 6.52625 1.37125 7.3125 1.5625 C7.869375 1.706875 8.42625 1.85125 9 2 C4.71950495 4.09572565 0.83502643 4.28264068 -3.83891296 4.25396729 C-5.0131422 4.25864726 -5.0131422 4.25864726 -6.21109325 4.26342177 C-8.830503 4.27139027 -11.44968037 4.2650827 -14.0690918 4.25878906 C-15.94833512 4.26149937 -17.82757738 4.26506052 -19.70681763 4.26940918 C-24.80775931 4.27852885 -29.90862011 4.27499114 -35.00956321 4.26865101 C-40.34311375 4.2635911 -45.67665732 4.26828223 -51.01020813 4.27142334 C-59.96393072 4.27506206 -68.91762031 4.27026536 -77.87133789 4.26074219 C-88.23413249 4.24984786 -98.59684845 4.2533907 -108.95964116 4.264395 C-117.84972772 4.27345868 -126.73979056 4.27475797 -135.62988025 4.26951766 C-140.94291494 4.26639417 -146.2559126 4.26599918 -151.56894493 4.27259064 C-156.56019288 4.27835047 -161.55133894 4.27439233 -166.54257584 4.26280212 C-168.37844104 4.26014864 -170.21431476 4.26093228 -172.05017662 4.26532745 C-174.54758109 4.27075708 -177.04465482 4.26398064 -179.54203796 4.25396729 C-180.27597281 4.25842873 -181.00990765 4.26289017 -181.76608294 4.26748681 C-186.77169917 4.22830083 -186.77169917 4.22830083 -189 2 C-187.55714347 2.00276538 -187.55714347 2.00276538 -186.08513832 2.00558662 C-162.7095372 2.04993162 -139.33394152 2.08282576 -115.95830727 2.10362434 C-104.65415581 2.113949 -93.35003209 2.12803199 -82.04589844 2.15087891 C-72.19637865 2.17077644 -62.34687894 2.18370777 -52.49733961 2.18817699 C-47.27923369 2.19079055 -42.06118524 2.19695811 -36.84309769 2.21146011 C-31.93647204 2.22498664 -27.02992781 2.22923268 -22.12328529 2.22621536 C-20.3180567 2.22676774 -18.51282552 2.23077443 -16.70761299 2.23841095 C-14.25155779 2.24829521 -11.79581392 2.24599297 -9.3397522 2.24050903 C-8.61797055 2.24633472 -7.8961889 2.2521604 -7.15253508 2.25816262 C-3.12877955 2.34654207 -3.12877955 2.34654207 0 0 Z " fill="#D95E41" transform="translate(262,272)"/>
<path d="M0 0 C2.46948242 1.11254883 2.46948242 1.11254883 5 3 C5.56762695 5.8190918 5.56762695 5.8190918 5.48828125 9.19921875 C5.47216797 10.40771484 5.45605469 11.61621094 5.43945312 12.86132812 C5.39755859 14.12396484 5.35566406 15.38660156 5.3125 16.6875 C5.28994141 17.96173828 5.26738281 19.23597656 5.24414062 20.54882812 C5.18512262 23.7003896 5.10282975 26.84961279 5 30 C4.67 30 4.34 30 4 30 C3.81824219 28.98679687 3.81824219 28.98679687 3.6328125 27.953125 C3.46523438 27.06109375 3.29765625 26.1690625 3.125 25.25 C2.96257812 24.36828125 2.80015625 23.4865625 2.6328125 22.578125 C2.03203736 20.13052256 1.22002883 18.19400143 0 16 C-0.66 16 -1.32 16 -2 16 C-2.02534499 22.90510271 -2.04286478 29.81019343 -2.05493164 36.71533203 C-2.05996189 39.06462045 -2.0667868 41.41390573 -2.07543945 43.76318359 C-2.08756218 47.13900526 -2.0932414 50.51478555 -2.09765625 53.890625 C-2.10281754 54.94179504 -2.10797882 55.99296509 -2.11329651 57.07598877 C-2.11337204 58.05670349 -2.11344757 59.03741821 -2.11352539 60.04785156 C-2.115746 60.90944885 -2.11796661 61.77104614 -2.12025452 62.65875244 C-2.00477013 64.90712987 -1.62859079 66.84415328 -1 69 C0.32 69.33 1.64 69.66 3 70 C0.625 70.1875 0.625 70.1875 -2 70 C-4.34690389 66.47964416 -4.26217793 65.00152914 -4.29052734 60.83203125 C-4.30328705 59.56061279 -4.31604675 58.28919434 -4.32919312 56.97924805 C-4.3322501 55.59033358 -4.33447822 54.20141707 -4.3359375 52.8125 C-4.34236387 51.3890774 -4.34909211 49.96565614 -4.35610962 48.54223633 C-4.36808263 45.5597019 -4.37179031 42.57728332 -4.37060547 39.59472656 C-4.37040198 35.77106186 -4.39773317 31.94813797 -4.43214989 28.12464905 C-4.45437265 25.18555277 -4.4584445 22.2466363 -4.45738602 19.3074646 C-4.45974785 17.89762818 -4.4686042 16.48778723 -4.48405075 15.07803345 C-4.50361835 13.10810897 -4.49537401 11.13796734 -4.48583984 9.16796875 C-4.48868988 8.04672607 -4.49153992 6.9254834 -4.49447632 5.77026367 C-4 3 -4 3 -1.96963501 1.11450195 C-1.31965546 0.74671631 -0.6696759 0.37893066 0 0 Z " fill="#DB593F" transform="translate(369,74)"/>
<path d="M0 0 C2.475 0.99 2.475 0.99 5 2 C5 2.66 5 3.32 5 4 C5.99 4.33 6.98 4.66 8 5 C12.2770043 11.4766065 13.03718716 17.32892268 12 25 C10.99482621 28.15281339 9.85383224 30.19276832 8 33 C6.515 33.495 6.515 33.495 5 34 C4.67 34.66 4.34 35.32 4 36 C2.35 36 0.7 36 -1 36 C-0.67 34.35 -0.34 32.7 0 31 C-2.31 31.33 -4.62 31.66 -7 32 C-6.01 31.34 -5.02 30.68 -4 30 C-0.26044048 27.35494571 1.989118 25.54896898 3 21 C2.85695633 17.96543079 2.48331412 14.99785381 2 12 C2.66 12 3.32 12 4 12 C4 12.66 4 13.32 4 14 C4.99 13.67 5.98 13.34 7 13 C7.125 19.75 7.125 19.75 6 22 C5.34 22 4.68 22 4 22 C4 23.32 4 24.64 4 26 C4.99 26 5.98 26 7 26 C7 25.34 7 24.68 7 24 C7.66 24 8.32 24 9 24 C9.08107583 22.06318839 9.13922475 20.1254066 9.1875 18.1875 C9.22230469 17.10855469 9.25710938 16.02960938 9.29296875 14.91796875 C8.96489802 11.65038424 8.43664333 11.02733841 6 9 C6 8.34 6 7.68 6 7 C5.01 7.33 4.02 7.66 3 8 C3 7.01 3 6.02 3 5 C2.01 4.34 1.02 3.68 0 3 C0 2.01 0 1.02 0 0 Z " fill="#E05738" transform="translate(443,104)"/>
<path d="M0 0 C9.41002278 -0.18451025 9.41002278 -0.18451025 14 1 C14 1.99 14 2.98 14 4 C15.32 4.33 16.64 4.66 18 5 C18 5.99 18 6.98 18 8 C18.61875 8.061875 19.2375 8.12375 19.875 8.1875 C22 9 22 9 23.25 11 C24.35832945 15.43331782 25.10020726 20.79958547 23 25 C22.34 25 21.68 25 21 25 C21 25.66 21 26.32 21 27 C20.01 27 19.02 27 18 27 C18 25.68 18 24.36 18 23 C18.66 23 19.32 23 20 23 C20 20.36 20 17.72 20 15 C19.34 15 18.68 15 18 15 C18 14.34 18 13.68 18 13 C17.34 13 16.68 13 16 13 C15.7525 12.2575 15.505 11.515 15.25 10.75 C13.90852699 7.79875938 12.39094474 6.15185026 10 4 C9.67 4.99 9.34 5.98 9 7 C7.1746875 6.9690625 7.1746875 6.9690625 5.3125 6.9375 C2.08022678 6.93175884 -0.84934741 7.21233685 -4 8 C-4.66 6.35 -5.32 4.7 -6 3 C-5 2 -5 2 -2.4375 1.9375 C-1.2309375 1.9684375 -1.2309375 1.9684375 0 2 C0 1.34 0 0.68 0 0 Z " fill="#ED4D2C" transform="translate(429,103)"/>
<path d="M0 0 C0.99 0.309375 1.98 0.61875 3 0.9375 C9.29565011 2.72719086 15.48171522 3.1357976 22 3 C23 6 23 6 23 7 C23.99 7.33 24.98 7.66 26 8 C19.45783241 11.94998798 14.57771707 12.50146657 7 12 C6.67 11.34 6.34 10.68 6 10 C5.01 9.67 4.02 9.34 3 9 C3 7.68 3 6.36 3 5 C1.35 5 -0.3 5 -2 5 C-1.34 3.35 -0.68 1.7 0 0 Z " fill="#E65535" transform="translate(421,132)"/>
<path d="M0 0 C0 0.99 0 1.98 0 3 C-2.59772295 4.29886148 -4.35763853 3.9586986 -7.25 3.8125 C-12.40547554 3.74510816 -14.91919626 4.71545065 -19 8 C-21.3125 8.8125 -21.3125 8.8125 -23 9 C-23.33 8.67 -23.66 8.34 -24 8 C-24.66 8.66 -25.32 9.32 -26 10 C-26.66 9.67 -27.32 9.34 -28 9 C-26.83242263 5.67689517 -25.85051143 3.16638868 -23 1 C-22.01 1 -21.02 1 -20 1 C-20 0.01 -20 -0.98 -20 -2 C-12.33395915 -3.49581285 -6.97473818 -3.41619829 0 0 Z " fill="#ED4E2C" transform="translate(547,106)"/>
<path d="M0 0 C0.99 0 1.98 0 3 0 C3 0.66 3 1.32 3 2 C5.33214148 3.20628008 7.49642139 4.1654738 10 5 C11.23446068 8.70338204 11.44981274 12.14660418 11 16 C9.5 19 9.5 19 8 21 C6.68 20.67 5.36 20.34 4 20 C4 21.32 4 22.64 4 24 C2.35 24.66 0.7 25.32 -1 26 C-1.625 23.625 -1.625 23.625 -2 21 C-1.34 20.34 -0.68 19.68 0 19 C0.99 19 1.98 19 3 19 C3.53449652 11.75460274 2.71607548 7.27087737 -1 1 C-0.67 0.67 -0.34 0.34 0 0 Z " fill="#E94F2E" transform="translate(350,114)"/>
<path d="M0 0 C0.99 0.66 1.98 1.32 3 2 C3.87245103 6.43495939 4.65449419 10.67286134 3 15 C0.9375 16.3125 0.9375 16.3125 -1 17 C-1 18.32 -1 19.64 -1 21 C0.65 20.67 2.3 20.34 4 20 C3.67 18.68 3.34 17.36 3 16 C3.66 15.67 4.32 15.34 5 15 C5 15.66 5 16.32 5 17 C5.99 17.33 6.98 17.66 8 18 C0.92111301 24.66001793 -4.31921301 26.34890342 -14.07421875 26.203125 C-17.6743498 25.95318266 -20.61887089 25.22950149 -24 24 C-24 23.67 -24 23.34 -24 23 C-20.06123582 22.93209027 -16.56343312 22.89369186 -12.6875 23.625 C-9.78114056 24.33391203 -9.78114056 24.33391203 -7 22 C-6.67 21.34 -6.34 20.68 -6 20 C-6.84304688 19.95101562 -7.68609375 19.90203125 -8.5546875 19.8515625 C-9.65039062 19.77679688 -10.74609375 19.70203125 -11.875 19.625 C-12.96554687 19.55539063 -14.05609375 19.48578125 -15.1796875 19.4140625 C-18 19 -18 19 -20 17 C-18.58847656 17.06960937 -18.58847656 17.06960937 -17.1484375 17.140625 C-9.38632967 17.69578988 -9.38632967 17.69578988 -2.25 15.25 C0.56183116 12.51115932 0.56183116 12.51115932 2 9 C1.67231698 5.7887064 1.02051744 3.06155231 0 0 Z " fill="#DF583A" transform="translate(350,118)"/>
<path d="M0 0 C3 0.125 3 0.125 4 1.125 C4.04080783 3.12458364 4.04254356 5.12545254 4 7.125 C3.34 7.125 2.68 7.125 2 7.125 C2 5.475 2 3.825 2 2.125 C0.68 2.125 -0.64 2.125 -2 2.125 C-2 22.255 -2 42.385 -2 63.125 C-0.68 63.455 0.64 63.785 2 64.125 C2.33 55.215 2.66 46.305 3 37.125 C3.33 37.125 3.66 37.125 4 37.125 C4.02886338 41.60415328 4.04675187 46.08328291 4.0625 50.5625 C4.07087891 51.84189453 4.07925781 53.12128906 4.08789062 54.43945312 C4.09111328 55.65439453 4.09433594 56.86933594 4.09765625 58.12109375 C4.10289307 59.24700928 4.10812988 60.3729248 4.11352539 61.53295898 C4 64.125 4 64.125 3 65.125 C0 65.25 0 65.25 -3 65.125 C-4.79096045 63.33403955 -4.12766791 60.66167215 -4.12939453 58.24414062 C-4.13254669 56.98613647 -4.13569885 55.72813232 -4.13894653 54.43200684 C-4.13715675 53.04842087 -4.1351058 51.66483522 -4.1328125 50.28125 C-4.13348559 48.87259911 -4.13445565 47.46394834 -4.13571167 46.05529785 C-4.13718842 43.09951677 -4.13503483 40.14376586 -4.13037109 37.18798828 C-4.12467381 33.39125416 -4.12795293 29.59459072 -4.13394356 25.79785919 C-4.13754979 22.88803572 -4.1364103 19.97822912 -4.13381577 17.06840515 C-4.13314667 15.668106 -4.13397432 14.26780533 -4.13629532 12.86750793 C-4.13882283 10.91362536 -4.13429033 8.95973745 -4.12939453 7.00585938 C-4.12859894 5.89190796 -4.12780334 4.77795654 -4.12698364 3.63024902 C-3.94158944 -0.02737673 -3.71808462 0.15492019 0 0 Z " fill="#D45941" transform="translate(467,100.875)"/>
<path d="M0 0 C6.60035894 -0.40410361 11.19085142 0.89313856 16.5 4.875 C18 7 18 7 17.75 9.75 C17.5025 10.4925 17.255 11.235 17 12 C14.875 12.75 14.875 12.75 12 13 C9 11 9 11 6 9 C1.75335087 7.94669726 -2.64042639 7.86376332 -7 8 C-5 6 -5 6 -2.6171875 5.8046875 C-1.71226562 5.82789062 -0.80734375 5.85109375 0.125 5.875 C1.49011719 5.90207031 1.49011719 5.90207031 2.8828125 5.9296875 C3.58148438 5.95289062 4.28015625 5.97609375 5 6 C5 4.68 5 3.36 5 2 C3.35 1.67 1.7 1.34 0 1 C0 0.67 0 0.34 0 0 Z " fill="#E25232" transform="translate(338,75)"/>
<path d="M0 0 C2.57662281 2.57662281 2.34115688 3.92083461 2.5625 7.5 C2.73519346 11.39598635 2.73519346 11.39598635 4 15 C4.66 15 5.32 15 6 15 C6.33 13.68 6.66 12.36 7 11 C7.66 11 8.32 11 9 11 C11.04169485 13.90548882 12 15.40142046 12 19 C11.34 18.34 10.68 17.68 10 17 C9.01 17 8.02 17 7 17 C6.7226499 20.18490007 6.7226499 20.18490007 9 23 C11.00031928 23.32263214 13.00526005 23.63660499 15.0234375 23.81640625 C17.08970739 24.0083325 19.00871951 24.41920986 21 25 C20.67 25.66 20.34 26.32 20 27 C23.63 26.67 27.26 26.34 31 26 C25.17020495 28.91489752 18.96969063 29.10122647 12.6484375 27.34765625 C7.62999662 25.09032666 4.05013481 21.54881697 1 17 C-0.18681726 13.43954823 -0.09689832 10.56191663 -0.0625 6.8125 C-0.05347656 5.54019531 -0.04445313 4.26789063 -0.03515625 2.95703125 C-0.02355469 1.98121094 -0.01195312 1.00539063 0 0 Z " fill="#E05E44" transform="translate(563,116)"/>
<path d="M0 0 C7.92 0 15.84 0 24 0 C21.75 6.75 21.75 6.75 20.0546875 9.8671875 C19.70019531 10.52460938 19.34570312 11.18203125 18.98046875 11.859375 C18.61566406 12.52453125 18.25085938 13.1896875 17.875 13.875 C17.31619141 14.90753906 17.31619141 14.90753906 16.74609375 15.9609375 C15.83500474 17.64294798 14.91809685 19.32180436 14 21 C13.67 21 13.34 21 13 21 C13 19.02 13 17.04 13 15 C13.66 15 14.32 15 15 15 C15 14.01 15 13.02 15 12 C15.66 12 16.32 12 17 12 C17 10.68 17 9.36 17 8 C16.01 8.33 15.02 8.66 14 9 C14 8.01 14 7.02 14 6 C14.66 6 15.32 6 16 6 C16.33 5.01 16.66 4.02 17 3 C18.32 3 19.64 3 21 3 C21.33 2.34 21.66 1.68 22 1 C10.74892727 0.30018665 10.74892727 0.30018665 0.47265625 3.70703125 C-1.03218788 5.77092689 -2.05565805 7.63255669 -3 10 C-3.66204909 11.33563214 -4.32736102 12.66966958 -5 14 C-5.33 13.34 -5.66 12.68 -6 12 C-4.22525138 7.87984404 -2.07509241 3.98078952 0 0 Z " fill="#DE5A3F" transform="translate(580,190)"/>
<path d="M0 0 C1.32 0.33 2.64 0.66 4 1 C3.514104 1.37310303 3.02820801 1.74620605 2.52758789 2.13061523 C0.39659524 4.73841621 0.60094904 6.57068246 0.55859375 9.91015625 C0.51895508 11.64168945 0.51895508 11.64168945 0.47851562 13.40820312 C0.46498047 14.61412109 0.45144531 15.82003906 0.4375 17.0625 C0.40316586 19.44935858 0.36062002 21.83611776 0.30859375 24.22265625 C0.29626709 25.28234619 0.28394043 26.34203613 0.27124023 27.43383789 C0 30 0 30 -2 32 C-2.33 29.03 -2.66 26.06 -3 23 C-3.66 23 -4.32 23 -5 23 C-5 23.66 -5 24.32 -5 25 C-5.66 25 -6.32 25 -7 25 C-6.67 23.68 -6.34 22.36 -6 21 C-5.34 21 -4.68 21 -4 21 C-4.185625 20.05125 -4.37125 19.1025 -4.5625 18.125 C-5.26768593 13.35520074 -4.62132638 8.75075712 -4 4 C-3.01 4.33 -2.02 4.66 -1 5 C-0.67 3.35 -0.34 1.7 0 0 Z " fill="#EA573F" transform="translate(374,111)"/>
<path d="M0 0 C2 1 2 1 3 2 C3.23678716 4.69235776 3.42198025 7.36498156 3.5625 10.0625 C3.60568359 10.82111328 3.64886719 11.57972656 3.69335938 12.36132812 C3.79973633 14.24065438 3.90039934 16.12030244 4 18 C2.02 18.99 2.02 18.99 0 20 C-0.66 19.34 -1.32 18.68 -2 18 C-2 16.68 -2 15.36 -2 14 C-2.66 14 -3.32 14 -4 14 C-4.63019694 5.96498906 -4.63019694 5.96498906 -2 1.9375 C-1.34 1.298125 -0.68 0.65875 0 0 Z " fill="#EC4E2D" transform="translate(417,114)"/>
<path d="M0 0 C0 0.66 0 1.32 0 2 C-0.78375 2.45375 -1.5675 2.9075 -2.375 3.375 C-5.1235949 5.07651113 -5.87921032 6.04519084 -7 9 C-5.68 8.67 -4.36 8.34 -3 8 C-3 8.66 -3 9.32 -3 10 C-2.34 10.33 -1.68 10.66 -1 11 C-1.33 11.66 -1.66 12.32 -2 13 C5.59 13.33 13.18 13.66 21 14 C21 14.33 21 14.66 21 15 C20.38479492 15.02505615 19.76958984 15.0501123 19.13574219 15.07592773 C16.34029844 15.19218487 13.54516702 15.31477642 10.75 15.4375 C9.78191406 15.47681641 8.81382812 15.51613281 7.81640625 15.55664062 C6.41455078 15.61948242 6.41455078 15.61948242 4.984375 15.68359375 C4.12553711 15.72025146 3.26669922 15.75690918 2.38183594 15.79467773 C0.15039857 15.98703514 -1.84982524 16.38846244 -4 17 C-4 16.34 -4 15.68 -4 15 C-7.0745356 15.7763932 -7.0745356 15.7763932 -9 18 C-9.66 17.67 -10.32 17.34 -11 17 C-11.33 18.32 -11.66 19.64 -12 21 C-11.67069596 12.81679464 -10.59170329 7.33515306 -4.375 1.5625 C-2 0 -2 0 0 0 Z " fill="#E1573B" transform="translate(527,105)"/>
<path d="M0 0 C2.45933991 0.11369211 4.9167909 0.24042651 7.375 0.375 C8.07367187 0.4059375 8.77234375 0.436875 9.4921875 0.46875 C14.7734375 0.7734375 14.7734375 0.7734375 17 3 C17.99 3.33 18.98 3.66 20 4 C20 4.66 20 5.32 20 6 C13.04045299 7.8558792 5.65769953 7.80324191 -1 5 C-0.67 3.35 -0.34 1.7 0 0 Z " fill="#EB4F2B" transform="translate(527,136)"/>
<path d="M0 0 C5.21458965 2.08928923 8.8258002 5.37095862 12 10 C11.67 10.66 11.34 11.32 11 12 C10.54625 11.505 10.0925 11.01 9.625 10.5 C8.12364481 8.77390663 8.12364481 8.77390663 6 9 C5.67 9.99 5.34 10.98 5 12 C5.66 12.33 6.32 12.66 7 13 C6.67 13.66 6.34 14.32 6 15 C5.34 15 4.68 15 4 15 C3.484375 14.21625 2.96875 13.4325 2.4375 12.625 C-0.92328041 9.00569802 -4.24265193 8.68107333 -9 8 C-9 7.67 -9 7.34 -9 7 C-5.04 7 -1.08 7 3 7 C3 6.34 3 5.68 3 5 C-2.57468542 1.38398784 -7.60567654 1.69279941 -14 2 C-9.50782263 -0.99478491 -5.26409112 -0.70475537 0 0 Z " fill="#DF5D3E" transform="translate(543,102)"/>
<path d="M0 0 C19.00455581 7.11389522 19.00455581 7.11389522 27 12 C25.078125 12.58203125 25.078125 12.58203125 23 13 C22.5875 12.566875 22.175 12.13375 21.75 11.6875 C18.96751819 9.00439254 15.73810792 8.79664595 12 8 C12 8.66 12 9.32 12 10 C12.66 10.33 13.32 10.66 14 11 C13.34 11 12.68 11 12 11 C12.33 11.99 12.66 12.98 13 14 C7.06 12.515 7.06 12.515 1 11 C5 10 5 10 9 10 C8.67 8.35 8.34 6.7 8 5 C5.69 5 3.38 5 1 5 C0.67 3.35 0.34 1.7 0 0 Z " fill="#E05F44" transform="translate(326,98)"/>
<path d="M0 0 C0.1546875 0.9590625 0.1546875 0.9590625 0.3125 1.9375 C0.6528125 2.9584375 0.6528125 2.9584375 1 4 C1.99 4.33 2.98 4.66 4 5 C4 5.66 4 6.32 4 7 C4.66 7 5.32 7 6 7 C5.67 7.66 5.34 8.32 5 9 C4.52691406 8.66226563 4.05382812 8.32453125 3.56640625 7.9765625 C-4.84467025 2.30359473 -13.65798441 0.84130432 -23.6484375 2.41796875 C-27.463587 3.16197884 -31.23307906 4.04318484 -35 5 C-34.67 3.68 -34.34 2.36 -34 1 C-27.39766682 0.20421316 -20.82905675 -0.30447065 -14.1875 -0.625 C-13.26001953 -0.6765625 -12.33253906 -0.728125 -11.37695312 -0.78125 C-10.48298828 -0.82507813 -9.58902344 -0.86890625 -8.66796875 -0.9140625 C-7.86641357 -0.9548291 -7.0648584 -0.9955957 -6.23901367 -1.03759766 C-3.9990239 -0.99998361 -2.14155202 -0.63355905 0 0 Z " fill="#D97356" transform="translate(190,139)"/>
<path d="M0 0 C0.99 0.33 1.98 0.66 3 1 C2.5073899 5.20891862 1.48670851 6.98010284 -1.75 9.6875 C-2.76320313 10.55955078 -2.76320313 10.55955078 -3.796875 11.44921875 C-8.09515141 14.47477856 -11.59276868 15.25077666 -16.8125 15.125 C-18.27623047 15.09792969 -18.27623047 15.09792969 -19.76953125 15.0703125 C-20.50558594 15.04710937 -21.24164063 15.02390625 -22 15 C-22 14.67 -22 14.34 -22 14 C-19.36 14 -16.72 14 -14 14 C-14 13.01 -14 12.02 -14 11 C-11.60676196 8.60676196 -10.26851362 8.55803891 -7 8 C-6.01 7.67 -5.02 7.34 -4 7 C-3.67 6.34 -3.34 5.68 -3 5 C-2.67 5 -2.34 5 -2 5 C-2 4.34 -2 3.68 -2 3 C-1.34 3 -0.68 3 0 3 C0 2.01 0 1.02 0 0 Z " fill="#E2593D" transform="translate(503,129)"/>
<path d="M0 0 C0.99 0 1.98 0 3 0 C3 0.66 3 1.32 3 2 C3.928125 2.4640625 3.928125 2.4640625 4.875 2.9375 C6.25 3.625 7.625 4.3125 9 5 C9 8.3 9 11.6 9 15 C8.01 15.495 8.01 15.495 7 16 C3.6807736 13.7871824 3.49215422 13.2530105 2.4375 9.625 C1.53164819 6.5645515 0.50077422 3.8211979 -1 1 C-0.67 0.67 -0.34 0.34 0 0 Z " fill="#EC4D2E" transform="translate(350,114)"/>
<path d="M0 0 C0.66 0 1.32 0 2 0 C1.35278919 5.29618985 -0.75021301 7.2152173 -4.76953125 10.48046875 C-13.37951124 16.34611186 -24.32977083 13.53844555 -34 12 C-34 11.67 -34 11.34 -34 11 C-32.33324219 11.01740234 -32.33324219 11.01740234 -30.6328125 11.03515625 C-22.67698604 11.09238598 -14.90800301 11.00419086 -7 10 C-6.67 8.68 -6.34 7.36 -6 6 C-5.01 6 -4.02 6 -3 6 C-3 5.34 -3 4.68 -3 4 C-2.01 4 -1.02 4 0 4 C0 2.68 0 1.36 0 0 Z " fill="#DF7C4A" transform="translate(194,222)"/>
<path d="M0 0 C5.70709064 0.46588495 9.15939723 1.93757784 14 5 C13.67 5.66 13.34 6.32 13 7 C12.34 7 11.68 7 11 7 C10.67 7.66 10.34 8.32 10 9 C9.34 8.67 8.68 8.34 8 8 C7.67 8.99 7.34 9.98 7 11 C6.01 10.34 5.02 9.68 4 9 C-1.69079125 8.16535062 -6.0568646 8.95807052 -11 12 C-10.625 10.0625 -10.625 10.0625 -10 8 C-6.93466836 6.46733418 -3.73245728 6.89723529 -0.375 6.9375 C0.68460938 6.94426758 0.68460938 6.94426758 1.765625 6.95117188 C3.51045275 6.96296125 5.255237 6.98089676 7 7 C5.01174362 3.473551 3.86444746 1.4658249 0 0 Z " fill="#E35E41" transform="translate(585,102)"/>
<path d="M0 0 C4.99923422 0.34878378 8.00609165 2.05211527 12 5 C11.01 5.66 10.02 6.32 9 7 C9 6.34 9 5.68 9 5 C7.35 4.67 5.7 4.34 4 4 C3.67 5.65 3.34 7.3 3 9 C3.928125 9.1546875 3.928125 9.1546875 4.875 9.3125 C7 10 7 10 9 13 C4.40693504 11.5140084 1.56430755 9.14985318 -2 6 C-1.125 1.125 -1.125 1.125 0 0 Z " fill="#DC6248" transform="translate(316,128)"/>
<path d="M0 0 C9.35988153 1.51351276 17.6310347 4.59528142 26 9 C22.30581799 10.231394 19.7943739 9.64432764 16 9 C15.67 8.01 15.34 7.02 15 6 C13.82630859 5.92652344 13.82630859 5.92652344 12.62890625 5.8515625 C11.61699219 5.77679688 10.60507813 5.70203125 9.5625 5.625 C8.04849609 5.52058594 8.04849609 5.52058594 6.50390625 5.4140625 C5.67761719 5.27742187 4.85132813 5.14078125 4 5 C3.67 4.34 3.34 3.68 3 3 C2.01 2.67 1.02 2.34 0 2 C0 1.34 0 0.68 0 0 Z " fill="#E47A61" transform="translate(161,191)"/>
<path d="M0 0 C5.99995552 5.53068526 6.54641573 13.10449251 7.015625 20.85546875 C6.99541069 24.92359953 6.28217226 28.15348321 5 32 C4.67 32 4.34 32 4 32 C3.98541748 31.37544922 3.97083496 30.75089844 3.95581055 30.10742188 C3.88066898 27.23770448 3.78423065 24.36906763 3.6875 21.5 C3.66494141 20.51773438 3.64238281 19.53546875 3.61914062 18.5234375 C3.39274246 12.34894211 2.42814819 7.67652873 0 2 C0 1.34 0 0.68 0 0 Z " fill="#E16248" transform="translate(401,179)"/>
<path d="M0 0 C2.82738643 2.55376839 4.5736597 4.16293727 5 8 C5.11584531 10.69077067 5.08849927 13.30077215 5 16 C4 17 4 17 1.04077148 17.11352539 C-0.25272217 17.10828857 -1.54621582 17.10305176 -2.87890625 17.09765625 C-3.90889992 17.09553383 -3.90889992 17.09553383 -4.95970154 17.09336853 C-7.16067801 17.08775479 -9.36155409 17.07520007 -11.5625 17.0625 C-13.05143083 17.05748676 -14.54036324 17.05292355 -16.02929688 17.04882812 C-19.68623075 17.03778093 -23.34310558 17.02050713 -27 17 C-27 16.67 -27 16.34 -27 16 C-17.1 16 -7.2 16 3 16 C3.5547002 10.23112508 3.5547002 10.23112508 1 7 C0.34 6.67 -0.32 6.34 -1 6 C-0.67 4.02 -0.34 2.04 0 0 Z " fill="#DD593C" transform="translate(599,109)"/>
<path d="M0 0 C1.32 0.99 2.64 1.98 4 3 C3.01 3.99 2.02 4.98 1 6 C2.32632714 11.63689034 6.46631765 13.93185683 11 17 C8.66682784 17.77772405 6.38564077 18.42415568 4 19 C3.4465236 16.92446352 3 15.15634036 3 13 C1.35 13 -0.3 13 -2 13 C-3.13440466 9.49365834 -3.11362514 8.2519514 -1.5625 4.8125 C-1.046875 3.884375 -0.53125 2.95625 0 2 C0 1.34 0 0.68 0 0 Z " fill="#E76048" transform="translate(139,221)"/>
<path d="M0 0 C8.58 0 17.16 0 26 0 C27.32 2.31 28.64 4.62 30 7 C29.67 7.66 29.34 8.32 29 9 C28.34257813 7.29650391 28.34257813 7.29650391 27.671875 5.55859375 C26.22467106 3.02598685 25.5369103 2.15680791 22.70117188 1.32861328 C19.86602296 1.08479047 17.09533688 1.03029579 14.25 1.0625 C13.26644531 1.04638672 12.28289063 1.03027344 11.26953125 1.01367188 C8.84494071 0.9783623 6.42459487 0.97491579 4 1 C4.50144531 1.60328125 5.00289063 2.2065625 5.51953125 2.828125 C7 5 7 5 6.6875 7.75 C6.460625 8.4925 6.23375 9.235 6 10 C3.38275905 7.63202009 1.67138271 5.10399646 0 2 C0 1.34 0 0.68 0 0 Z " fill="#D8684F" transform="translate(501,190)"/>
<path d="M0 0 C0 3 0 3 -0.9765625 5.26171875 C-3.16896107 11.1276401 -3.07704686 18.63676876 -1.171875 24.5859375 C0.30706743 27.55485923 2.16193 30.24289501 4 33 C0.59271356 31.59008837 -1.14595741 30.2024372 -3 27 C-5.45413088 19.63760736 -6.6088961 11.2514335 -3.625 3.875 C-2 1 -2 1 0 0 Z " fill="#D96955" transform="translate(430,218)"/>
<path d="M0 0 C1.32 0.33 2.64 0.66 4 1 C4.103125 2.010625 4.20625 3.02125 4.3125 4.0625 C4.83257809 8.01348002 4.83257809 8.01348002 6.5625 11.4375 C8.2813998 15.69738212 8.23901906 18.45863788 8 23 C7.67 23 7.34 23 7 23 C6.92523438 22.443125 6.85046875 21.88625 6.7734375 21.3125 C5.42037415 13.45942645 1.6241497 8.47305314 -4 3 C-3.01 2.67 -2.02 2.34 -1 2 C-0.67 1.34 -0.34 0.68 0 0 Z " fill="#E1583D" transform="translate(467,209)"/>
<path d="M0 0 C2.4377963 -0.05397335 4.87439685 -0.09365616 7.3125 -0.125 C8.00279297 -0.14175781 8.69308594 -0.15851563 9.40429688 -0.17578125 C13.17135396 -0.21217794 14.78431704 -0.14378864 18 2 C16.989375 1.938125 15.97875 1.87625 14.9375 1.8125 C9.87726761 2.05346345 5.8962924 3.16909699 2.1875 6.75 C0.61790868 9.72396251 -0.18678345 12.7471338 -1 16 C-1.33 16 -1.66 16 -2 16 C-2.2396943 10.36718401 -1.38529821 5.45461169 0 0 Z " fill="#DE573A" transform="translate(474,109)"/>
<path d="M0 0 C-2.30861917 1.15430958 -4.61904655 2.30293767 -6.9375 3.4375 C-7.948125 3.953125 -8.95875 4.46875 -10 5 C-10.886875 5.433125 -11.77375 5.86625 -12.6875 6.3125 C-15.8015766 8.58493427 -16.67967806 10.36911467 -18 14 C-18.51218036 17.326686 -18.80746779 20.64064497 -19 24 C-21.38621806 20.42067291 -21.4785033 19.22677916 -21 15 C-18.97615266 9.13544236 -16.10247587 5.46968359 -11 2 C-7.19707277 0.37017405 -4.12588355 -0.24269903 0 0 Z " fill="#DA624E" transform="translate(336,75)"/>
<path d="M0 0 C0.33 0 0.66 0 1 0 C1.226875 1.03125 1.45375 2.0625 1.6875 3.125 C3.36819639 8.73108124 5.96204887 11.83887269 10.99609375 14.70703125 C13.9718141 16.20365385 16.96244944 17.63382893 20 19 C20 19.33 20 19.66 20 20 C16.37 19.67 12.74 19.34 9 19 C9 17.68 9 16.36 9 15 C7.35 15 5.7 15 4 15 C4 13.68 4 12.36 4 11 C3.34 10.5875 2.68 10.175 2 9.75 C0 8 0 8 -0.265625 6.03515625 C-0.25146952 4.02153971 -0.13176072 2.00935091 0 0 Z " fill="#E68570" transform="translate(141,171)"/>
<path d="M0 0 C0.6875 2.3125 0.6875 2.3125 1 5 C-0.0625 6.75 -0.0625 6.75 -2 8 C-5.1875 8.6875 -5.1875 8.6875 -8 9 C-7.505 8.566875 -7.01 8.13375 -6.5 7.6875 C-4.66781808 6.00259517 -4.66781808 6.00259517 -5 3 C-6.32 2.34 -7.64 1.68 -9 1 C-5.64919071 -1.10976881 -3.77897651 -1.0497157 0 0 Z " fill="#E55132" transform="translate(602,133)"/>
<path d="M0 0 C0.33 0.99 0.66 1.98 1 3 C1.99 3.33 2.98 3.66 4 4 C3.030625 4.721875 2.06125 5.44375 1.0625 6.1875 C-1.12355156 8.01696159 -1.93913298 8.84402827 -3 11.5625 C-3 14.28256929 -2.43716841 15.7174384 -1 18 C-4.37462715 17.45276317 -6.08235 16.9451 -9 15 C-7.95180903 12.55422108 -7.02345675 11.02194341 -5.0625 9.1875 C-2.37747132 6.33974231 -1.40063567 3.64165273 0 0 Z " fill="#E75134" transform="translate(327,80)"/>
<path d="M0 0 C1.32 0.99 2.64 1.98 4 3 C3.67 4.65 3.34 6.3 3 8 C0.875 8.75 0.875 8.75 -2 9 C-4 7.66666667 -6 6.33333333 -8 5 C-12.24664913 3.94669726 -16.64042639 3.86376332 -21 4 C-18.32848149 1.32848149 -16.90817468 1.70126328 -13.1875 1.6875 C-12.14980469 1.67074219 -11.11210937 1.65398437 -10.04296875 1.63671875 C-6.62793013 2.04441912 -4.72542101 2.92948608 -2 5 C-2 5.66 -2 6.32 -2 7 C-0.68 7 0.64 7 2 7 C1.34 4.69 0.68 2.38 0 0 Z " fill="#DC6249" transform="translate(352,79)"/>
<path d="M0 0 C0.33 0 0.66 0 1 0 C1.30640871 5.8217654 0.96608593 9.78377992 -2 15 C-4.5625 16.875 -4.5625 16.875 -7 18 C-7.66 18.33 -8.32 18.66 -9 19 C-11.125 18.0625 -11.125 18.0625 -13 17 C-7.25 13 -7.25 13 -5 13 C-3.49439503 10.14589666 -2.36783204 7.31875358 -1.375 4.25 C-1.11460937 3.45078125 -0.85421875 2.6515625 -0.5859375 1.828125 C-0.39257812 1.22484375 -0.19921875 0.6215625 0 0 Z " fill="#E35A3F" transform="translate(384,201)"/>
<path d="M0 0 C0.99 0 1.98 0 3 0 C3.67119549 1.4562545 4.33681807 2.91507867 5 4.375 C5.556875 5.59316406 5.556875 5.59316406 6.125 6.8359375 C7 9 7 9 7 11 C7.66 11 8.32 11 9 11 C9 16.61 9 22.22 9 28 C8.01 28.33 7.02 28.66 6 29 C6.165 28.34 6.33 27.68 6.5 27 C8.23836814 16.56979117 4.69461917 9.21373855 0 0 Z " fill="#DE7255" transform="translate(198,198)"/>
<path d="M0 0 C2.375 0.3125 2.375 0.3125 5 1 C5.66 1.99 6.32 2.98 7 4 C7.99 4.33 8.98 4.66 10 5 C10 5.99 10 6.98 10 8 C8.02 8 6.04 8 4 8 C3.67 7.01 3.34 6.02 3 5 C1.35 5 -0.3 5 -2 5 C-1.34 3.35 -0.68 1.7 0 0 Z " fill="#EE4D29" transform="translate(421,132)"/>
<path d="M0 0 C7.50769231 0.61538462 7.50769231 0.61538462 10 2.5625 C10.33 3.036875 10.66 3.51125 11 4 C10.67 4.99 10.34 5.98 10 7 C7.03 6.67 4.06 6.34 1 6 C0 2 0 2 0 0 Z " fill="#EB4D2D" transform="translate(338,106)"/>
<path d="M0 0 C-0.495 0.474375 -0.99 0.94875 -1.5 1.4375 C-3.11542197 2.75923698 -3.11542197 2.75923698 -3 4 C0.3 4.33 3.6 4.66 7 5 C7 5.33 7 5.66 7 6 C3.04 6.66 -0.92 7.32 -5 8 C-5.33 6.68 -5.66 5.36 -6 4 C-6.33 4.99 -6.66 5.98 -7 7 C-7.66 7 -8.32 7 -9 7 C-9.3125 4.6875 -9.3125 4.6875 -9 2 C-5.85636787 -0.61969344 -3.87356388 -1.57811862 0 0 Z " fill="#E4593D" transform="translate(383,103)"/>
<path d="M0 0 C-1.20976305 3.62928915 -2.27875374 4.11351038 -5.4375 6.125 C-6.24058594 6.64320312 -7.04367187 7.16140625 -7.87109375 7.6953125 C-10 9 -10 9 -12 10 C-12 7.69 -12 5.38 -12 3 C-11.34 3 -10.68 3 -10 3 C-10 3.66 -10 4.32 -10 5 C-8.68 4.34 -7.36 3.68 -6 3 C-6 2.34 -6 1.68 -6 1 C-7.65 0.67 -9.3 0.34 -11 0 C-11 -0.33 -11 -0.66 -11 -1 C-6.58937864 -2.0257259 -4.07369424 -2.03684712 0 0 Z " fill="#E45438" transform="translate(538,105)"/>
<path d="M0 0 C2.625 2.375 2.625 2.375 3.5 5.625 C3.54125 6.5325 3.5825 7.44 3.625 8.375 C1.625 7.375 1.625 7.375 0.625 4.375 C-0.035 4.375 -0.695 4.375 -1.375 4.375 C-1.705 3.385 -2.035 2.395 -2.375 1.375 C-9.635 1.375 -16.895 1.375 -24.375 1.375 C-24.375 1.045 -24.375 0.715 -24.375 0.375 C-22.18847261 0.03534526 -20.00071975 -0.29642477 -17.8125 -0.625 C-16.59433594 -0.810625 -15.37617188 -0.99625 -14.12109375 -1.1875 C-4.74147085 -2.28293041 -4.74147085 -2.28293041 0 0 Z " fill="#DA664E" transform="translate(237.375,72.625)"/>
<path d="M0 0 C1.35055201 2.70110402 1 5.00789006 1 8 C1.99 8.33 2.98 8.66 4 9 C2.6875 10.5 2.6875 10.5 1 12 C0.01 12 -0.98 12 -2 12 C-2.33 11.01 -2.66 10.02 -3 9 C-3.99 9.33 -4.98 9.66 -6 10 C-5.49477778 5.62140745 -2.82172778 3.18348776 0 0 Z " fill="#E7592F" transform="translate(570,106)"/>
<path d="M0 0 C1.88323108 0.94496648 3.7040701 2.01251048 5.5078125 3.1015625 C5.5078125 3.4315625 5.5078125 3.7615625 5.5078125 4.1015625 C3.8578125 4.1015625 2.2078125 4.1015625 0.5078125 4.1015625 C0.5078125 3.4415625 0.5078125 2.7815625 0.5078125 2.1015625 C-1.13725968 1.90749772 -2.78328344 1.72148315 -4.4296875 1.5390625 C-5.34621094 1.43464844 -6.26273437 1.33023438 -7.20703125 1.22265625 C-8.33818359 1.16271484 -8.33818359 1.16271484 -9.4921875 1.1015625 C-9.8221875 1.4315625 -10.1521875 1.7615625 -10.4921875 2.1015625 C-12.8228093 2.45335447 -15.15653817 2.78486429 -17.4921875 3.1015625 C-18.83136011 3.41060233 -20.16872004 3.73099161 -21.4921875 4.1015625 C-16.2518948 -1.96614484 -7.25291339 -2.61468664 0 0 Z " fill="#D85D40" transform="translate(494.4921875,102.8984375)"/>
<path d="M0 0 C4.67414404 0.63164109 4.67414404 0.63164109 6.4375 2.625 C6.953125 3.07875 7.46875 3.5325 8 4 C11.14921909 3.76716851 11.14921909 3.76716851 14 3 C14 3.99 14 4.98 14 6 C15.94009522 7.70532323 15.94009522 7.70532323 18 9 C16.3125 9.66796875 16.3125 9.66796875 14 10 C11.5625 8.92578125 11.5625 8.92578125 9 7.3125 C8.154375 6.79300781 7.30875 6.27351562 6.4375 5.73828125 C4.01822039 4.01299371 2.03313168 2.16020241 0 0 Z " fill="#E46C50" transform="translate(144,223)"/>
<path d="M0 0 C3 1 3 1 4.1875 3.125 C5.419962 7.48601937 5.98271017 11.04827597 3.87890625 15.2265625 C2.64622699 17.20303972 1.36981778 19.11650055 0 21 C-1.32 20.67 -2.64 20.34 -4 20 C-3.195625 19.21625 -2.39125 18.4325 -1.5625 17.625 C1.42549275 14.56412938 1.9438756 13.972823 2.1875 9.75 C2.00505593 6.10111859 1.32047013 3.3837047 0 0 Z " fill="#DB644A" transform="translate(496,114)"/>
<path d="M0 0 C0.33 1.32 0.66 2.64 1 4 C3.93756119 4.0269501 6.87487555 4.04681474 9.8125 4.0625 C10.64587891 4.07087891 11.47925781 4.07925781 12.33789062 4.08789062 C13.54155273 4.09272461 13.54155273 4.09272461 14.76953125 4.09765625 C15.50792236 4.10289307 16.24631348 4.10812988 17.00708008 4.11352539 C19.21057409 4.07523213 19.21057409 4.07523213 22 3 C21.67 3.99 21.34 4.98 21 6 C13.41 6 5.82 6 -2 6 C-1 2 -1 2 0 0 Z " fill="#D6614A" transform="translate(519,306)"/>
<path d="M0 0 C0.33 0.66 0.66 1.32 1 2 C-0.24125182 4.61161731 -1.5310524 7.10501786 -2.9375 9.625 C-3.32357422 10.33140625 -3.70964844 11.0378125 -4.10742188 11.765625 C-5.06448696 13.51433651 -6.03134031 15.25768432 -7 17 C-8.078125 15.171875 -8.078125 15.171875 -9 13 C-7.75 10.25 -7.75 10.25 -6 8 C-5.34 8 -4.68 8 -4 8 C-3.71125 7.05125 -3.4225 6.1025 -3.125 5.125 C-2 2 -2 2 0 0 Z " fill="#DE634C" transform="translate(575,243)"/>
<path d="M0 0 C0.33 0 0.66 0 1 0 C1.3470399 5.55263834 0.71711877 10.06853641 -2 15 C-6.1 19 -6.1 19 -9 19 C-9 19.66 -9 20.32 -9 21 C-10.32 20.67 -11.64 20.34 -13 20 C-12.46890625 19.6596875 -11.9378125 19.319375 -11.390625 18.96875 C-4.8948227 14.51177616 -1.90023933 10.20111688 -0.25 2.5 C-0.1675 1.675 -0.085 0.85 0 0 Z " fill="#D86047" transform="translate(474,234)"/>
<path d="M0 0 C0.67804688 0.19335938 1.35609375 0.38671875 2.0546875 0.5859375 C8.32924309 2.34142258 14.59276664 3.81862292 21 5 C21 5.33 21 5.66 21 6 C14.34949576 6.24991456 8.43013467 5.73955334 2 4 C2 3.34 2 2.68 2 2 C1.34 2 0.68 2 0 2 C0 1.34 0 0.68 0 0 Z " fill="#E68874" transform="translate(151,239)"/>
<path d="M0 0 C6.92177985 -0.3643042 12.04712317 0.34998233 17.4375 5.1875 C17.953125 5.785625 18.46875 6.38375 19 7 C18.01 7.495 18.01 7.495 17 8 C17 7.34 17 6.68 17 6 C15.35 5.67 13.7 5.34 12 5 C12 4.34 12 3.68 12 3 C8.04 2.67 4.08 2.34 0 2 C0 1.34 0 0.68 0 0 Z " fill="#D1593E" transform="translate(384,101)"/>
<path d="M0 0 C0.99 0.33 1.98 0.66 3 1 C3.33 2.65 3.66 4.3 4 6 C5.32 6 6.64 6 8 6 C8.433125 7.423125 8.433125 7.423125 8.875 8.875 C9.76825109 12.05211578 9.76825109 12.05211578 12 14 C9 14 9 14 7.24609375 12.4609375 C3.79244185 8.47767591 1.18686562 5.27495833 0 0 Z " fill="#DB6047" transform="translate(412,251)"/>
<path d="M0 0 C-0.65784963 3.29680965 -1.89420573 5.84117922 -3.5625 8.75 C-4.01753906 9.54921875 -4.47257813 10.3484375 -4.94140625 11.171875 C-5.29074219 11.77515625 -5.64007812 12.3784375 -6 13 C-6.66 11.68 -7.32 10.36 -8 9 C-7.34 8.67 -6.68 8.34 -6 8 C-6.2475 7.4225 -6.495 6.845 -6.75 6.25 C-7 4 -7 4 -5.25 1.75 C-3 0 -3 0 0 0 Z " fill="#E35F3D" transform="translate(560,273)"/>
<path d="M0 0 C2.34914492 2.34914492 2.73140357 3.95679446 3.625 7.125 C3.88539062 8.03507812 4.14578125 8.94515625 4.4140625 9.8828125 C4.70410156 10.93082031 4.70410156 10.93082031 5 12 C6.65 12.33 8.3 12.66 10 13 C10.33 14.32 10.66 15.64 11 17 C6.52005094 15.17483557 3.38163231 12.03955246 0.6875 8.0625 C-0.22558643 5.3232407 -0.13022431 2.86493481 0 0 Z " fill="#D8614A" transform="translate(59,256)"/>
<path d="M0 0 C0.66 0 1.32 0 2 0 C3.4783226 2.95664519 3.06032783 5.74229737 3 9 C1.68 9 0.36 9 -1 9 C-1.33 6.69 -1.66 4.38 -2 2 C-1.34 2 -0.68 2 0 2 C0 1.34 0 0.68 0 0 Z " fill="#E8502C" transform="translate(369,134)"/>
<path d="M0 0 C2.475 0.99 2.475 0.99 5 2 C5 2.66 5 3.32 5 4 C5.99 4.33 6.98 4.66 8 5 C11 9.33333333 11 9.33333333 11 12 C9 12 9 12 7.375 10.625 C6 9 6 9 6 7 C5.01 7.33 4.02 7.66 3 8 C3 7.01 3 6.02 3 5 C2.01 4.34 1.02 3.68 0 3 C0 2.01 0 1.02 0 0 Z " fill="#E1654D" transform="translate(443,104)"/>
<path d="M0 0 C0 0.99 0 1.98 0 3 C-1.65385233 4.34919532 -3.321702 5.68133728 -5 7 C-5.69937532 8.31647119 -6.36729133 9.65022151 -7 11 C-8.29470975 12.37086915 -9.62150897 13.71340837 -11 15 C-11.66 14.67 -12.32 14.34 -13 14 C-9.20962911 8.52964787 -5.24972347 4.10037573 0 0 Z " fill="#DD654E" transform="translate(426,197)"/>
<path d="M0 0 C6.83981276 0.51621228 12.63876684 2.48590969 19 5 C18.67 5.66 18.34 6.32 18 7 C13.82423832 6.31583566 10.11919593 4.98634991 6.1875 3.4375 C5.02605469 2.98246094 3.86460937 2.52742187 2.66796875 2.05859375 C1.34732422 1.53458984 1.34732422 1.53458984 0 1 C0 0.67 0 0.34 0 0 Z " fill="#E58973" transform="translate(161,180)"/>
<path d="M0 0 C3 0.125 3 0.125 4 1.125 C4.04080783 3.12458364 4.04254356 5.12545254 4 7.125 C3.34 7.125 2.68 7.125 2 7.125 C2 5.475 2 3.825 2 2.125 C0.35 2.125 -1.3 2.125 -3 2.125 C-3 5.755 -3 9.385 -3 13.125 C-3.33 13.125 -3.66 13.125 -4 13.125 C-4.02686553 11.14590602 -4.04633375 9.16671029 -4.0625 7.1875 C-4.07410156 6.08535156 -4.08570313 4.98320313 -4.09765625 3.84765625 C-3.9605029 0.02382091 -3.85862021 0.16077584 0 0 Z " fill="#D65B44" transform="translate(467,100.875)"/>
<path d="M0 0 C2.97 0.495 2.97 0.495 6 1 C-1.71428571 7 -1.71428571 7 -6 7 C-5.67 5.35 -5.34 3.7 -5 2 C-3.35 2 -1.7 2 0 2 C0 1.34 0 0.68 0 0 Z " fill="#E35A43" transform="translate(471,266)"/>
<path d="M0 0 C0.33 0.66 0.66 1.32 1 2 C1.66 2 2.32 2 3 2 C1.3341708 8.16356805 -1.87805286 13.48259656 -5 19 C-6.04449911 15.86650268 -5.93423645 15.01031744 -5 12 C-4.34 12 -3.68 12 -3 12 C-3 11.01 -3 10.02 -3 9 C-2.34 9 -1.68 9 -1 9 C-0.67 6.03 -0.34 3.06 0 0 Z " fill="#E15F4A" transform="translate(582,224)"/>
<path d="M0 0 C0.93045933 2.55144824 1.08564091 3.74006478 0.22265625 6.359375 C-0.16019531 7.14828125 -0.54304687 7.9371875 -0.9375 8.75 C-1.31777344 9.54921875 -1.69804688 10.3484375 -2.08984375 11.171875 C-2.39019531 11.77515625 -2.69054687 12.3784375 -3 13 C-3.99 13 -4.98 13 -6 13 C-4.58707905 8.1725201 -2.57025846 4.2837641 0 0 Z " fill="#DF5D48" transform="translate(566,217)"/>
<path d="M0 0 C1.62818946 0.22830701 3.2526349 0.48343576 4.875 0.75 C6.23238281 0.95882812 6.23238281 0.95882812 7.6171875 1.171875 C10 2 10 2 11.3203125 4.078125 C11.54460937 4.71234375 11.76890625 5.3465625 12 6 C5.84765625 5.4140625 5.84765625 5.4140625 4 5 C3.67 4.34 3.34 3.68 3 3 C2.01 2.67 1.02 2.34 0 2 C0 1.34 0 0.68 0 0 Z " fill="#E6684F" transform="translate(161,191)"/>
<path d="M0 0 C0.33 0.66 0.66 1.32 1 2 C0.525625 2.845625 0.05125 3.69125 -0.4375 4.5625 C-2.40187069 8.88411552 -2.27971985 12.33800245 -2 17 C-2.66 16.67 -3.32 16.34 -4 16 C-5.14641965 11.25054718 -5.58717061 8.37129857 -3.125 4.0625 C-1 1 -1 1 0 0 Z " fill="#E7917E" transform="translate(154,156)"/>
<path d="M0 0 C0.103125 0.639375 0.20625 1.27875 0.3125 1.9375 C0.6528125 2.9584375 0.6528125 2.9584375 1 4 C1.99 4.33 2.98 4.66 4 5 C4 5.66 4 6.32 4 7 C4.66 7 5.32 7 6 7 C5.67 7.66 5.34 8.32 5 9 C-0.72254335 5.31213873 -0.72254335 5.31213873 -2.5 3.3125 C-4.75239994 1.34165006 -7.09585609 1.32268266 -10 1 C-10 0.67 -10 0.34 -10 0 C-6.33694766 -0.74926071 -3.57644848 -1.2380014 0 0 Z " fill="#E46B4F" transform="translate(190,139)"/>
<path d="M0 0 C0.66 0 1.32 0 2 0 C1.40716379 3.39192363 0.23256811 5.2107757 -2.0625 7.75 C-2.61035156 8.36359375 -3.15820312 8.9771875 -3.72265625 9.609375 C-4.14417969 10.06828125 -4.56570313 10.5271875 -5 11 C-5.578125 9.140625 -5.578125 9.140625 -6 7 C-4.75 4.75 -4.75 4.75 -3 3 C-2.01 3 -1.02 3 0 3 C0 2.01 0 1.02 0 0 Z " fill="#DD634A" transform="translate(401,216)"/>
<path d="M0 0 C0.5 2 0.5 2 1 4 C1.226875 4.680625 1.45375 5.36125 1.6875 6.0625 C2 8 2 8 0 11 C-1.32 10.34 -2.64 9.68 -4 9 C-2.94124926 5.59687262 -1.99097846 2.98646769 0 0 Z " fill="#E25A3D" transform="translate(573,204)"/>
<path d="M0 0 C3.96 0 7.92 0 12 0 C8 2 4 4 0 6 C0 5.01 0 4.02 0 3 C-0.66 2.67 -1.32 2.34 -2 2 C-1.34 2 -0.68 2 0 2 C0 1.34 0 0.68 0 0 Z " fill="#E55E45" transform="translate(434,209)"/>
<path d="M0 0 C1.65 0 3.3 0 5 0 C4.65066406 0.59167969 4.30132812 1.18335938 3.94140625 1.79296875 C3.48636719 2.58316406 3.03132812 3.37335938 2.5625 4.1875 C2.11003906 4.96480469 1.65757812 5.74210938 1.19140625 6.54296875 C-0.02391499 9.04931977 -0.57626575 11.25790365 -1 14 C-1.33 14 -1.66 14 -2 14 C-2.3690205 4.58997722 -2.3690205 4.58997722 0 0 Z " fill="#E37E6A" transform="translate(143,150)"/>
<path d="M0 0 C0.845625 0.639375 1.69125 1.27875 2.5625 1.9375 C5.93509397 4.20184205 8.95145469 4.62513469 13 5 C14.33917261 5.30903983 15.67653254 5.62942911 17 6 C12.34755986 8.32622007 5.9262419 6.98524838 1 6 C0.67 4.02 0.34 2.04 0 0 Z " fill="#D65C44" transform="translate(475,130)"/>
<path d="M0 0 C0 3 0 3 -1.4375 6.125 C-3.33654247 10.30826808 -3.70112319 14.45501126 -4 19 C-4.33 19 -4.66 19 -5 19 C-5.33015923 12.2378499 -5.37864668 6.97760567 -2 1 C-1.34 0.67 -0.68 0.34 0 0 Z " fill="#D95740" transform="translate(430,218)"/>
<path d="M0 0 C0.99 0.66 1.98 1.32 3 2 C3.87245103 6.43495939 4.65449419 10.67286134 3 15 C1.125 16.375 1.125 16.375 -1 17 C-1.99 16.67 -2.98 16.34 -4 16 C-3.195625 15.46375 -2.39125 14.9275 -1.5625 14.375 C1.18912007 12.21101834 1.18912007 12.21101834 1.9375 9.125 C2.00696276 5.65186182 1.29647493 3.20305571 0 0 Z " fill="#D8624A" transform="translate(350,118)"/>
<path d="M0 0 C1.67542976 0.28604898 3.34385343 0.61781233 5 1 C5 1.66 5 2.32 5 3 C4.34 3 3.68 3 3 3 C2.67 4.32 2.34 5.64 2 7 C0.68 6.67 -0.64 6.34 -2 6 C-1.125 1.125 -1.125 1.125 0 0 Z " fill="#DD563B" transform="translate(316,128)"/>
<path d="M0 0 C3.6875 1.5 3.6875 1.5 6 3 C5.01 3.66 4.02 4.32 3 5 C2.236875 4.505 1.47375 4.01 0.6875 3.5 C-4.28101775 1.47890803 -8.70651036 1.74568644 -14 2 C-9.54359745 -0.97093503 -5.2291213 -0.51397346 0 0 Z " fill="#DC624E" transform="translate(543,102)"/>
<path d="M0 0 C4.455 2.97 4.455 2.97 9 6 C6.66682784 6.77772405 4.38564077 7.42415568 2 8 C0 2.25 0 2.25 0 0 Z " fill="#E4755C" transform="translate(141,232)"/>
<path d="M0 0 C1.32 0.33 2.64 0.66 4 1 C3.51789062 1.60328125 3.03578125 2.2065625 2.5390625 2.828125 C1.59160156 4.02695313 1.59160156 4.02695313 0.625 5.25 C-0.00148438 6.03890625 -0.62796875 6.8278125 -1.2734375 7.640625 C-2.78910737 9.71181189 -3.94219634 11.67069497 -5 14 C-5.33 13.34 -5.66 12.68 -6 12 C-4.78515625 9.1796875 -4.78515625 9.1796875 -3.0625 5.875 C-2.49660156 4.77929688 -1.93070313 3.68359375 -1.34765625 2.5546875 C-0.90292969 1.71164063 -0.45820312 0.86859375 0 0 Z " fill="#D96653" transform="translate(580,190)"/>
<path d="M0 0 C0 0.66 0 1.32 0 2 C-0.54269531 2.19335938 -1.08539063 2.38671875 -1.64453125 2.5859375 C-2.71767578 2.97652344 -2.71767578 2.97652344 -3.8125 3.375 C-4.52019531 3.63023437 -5.22789062 3.88546875 -5.95703125 4.1484375 C-8.24773359 5.0265769 -8.24773359 5.0265769 -11 7 C-11.99 7 -12.98 7 -14 7 C-14 6.34 -14 5.68 -14 5 C-5.61290323 0 -5.61290323 0 0 0 Z " fill="#E17966" transform="translate(169,149)"/>
<path d="M0 0 C5.66781474 -0.34700907 9.04562817 0.47424181 14 3 C14.66 3.66 15.32 4.32 16 5 C12.42523541 5 9.71849498 4.07912712 6.3125 3 C5.13300781 2.62875 3.95351562 2.2575 2.73828125 1.875 C1.83464844 1.58625 0.93101562 1.2975 0 1 C0 0.67 0 0.34 0 0 Z " fill="#E17C65" transform="translate(173,149)"/>
<path d="M0 0 C1.28132812 0.00902344 2.56265625 0.01804687 3.8828125 0.02734375 C4.87023437 0.03894531 5.85765625 0.05054687 6.875 0.0625 C6.875 0.7225 6.875 1.3825 6.875 2.0625 C6.15054688 2.02769531 5.42609375 1.99289063 4.6796875 1.95703125 C-1.06498168 1.79618051 -5.13822966 1.82783816 -10.125 5.0625 C-9.75 3.125 -9.75 3.125 -9.125 1.0625 C-6.12186252 -0.43906874 -3.33432478 -0.03031204 0 0 Z " fill="#D95840" transform="translate(584.125,108.9375)"/>
<path d="M0 0 C5.875 2.75 5.875 2.75 7 5 C6.01 6.485 6.01 6.485 5 8 C4.01 8 3.02 8 2 8 C2 6.02 2 4.04 2 2 C1.34 2 0.68 2 0 2 C0 1.34 0 0.68 0 0 Z " fill="#E2573A" transform="translate(472,196)"/>
<path d="M0 0 C-1.57533086 0.86883706 -3.16064509 1.71959068 -4.75 2.5625 C-5.63171875 3.03816406 -6.5134375 3.51382813 -7.421875 4.00390625 C-10.20701188 5.07998186 -11.26980214 5.06528748 -14 4 C-12.42466914 3.13116294 -10.83935491 2.28040932 -9.25 1.4375 C-8.36828125 0.96183594 -7.4865625 0.48617187 -6.578125 -0.00390625 C-3.79298812 -1.07998186 -2.73019786 -1.06528748 0 0 Z " fill="#DD634F" transform="translate(442,192)"/>
<path d="M0 0 C0.99 0.33 1.98 0.66 3 1 C3.33 2.65 3.66 4.3 4 6 C4.99 6.33 5.98 6.66 7 7 C7 8.98 7 10.96 7 13 C4.64283596 10.84545751 3.21033856 8.80280126 1.8125 5.9375 C1.29623047 4.89916016 1.29623047 4.89916016 0.76953125 3.83984375 C0 2 0 2 0 0 Z " fill="#DC6649" transform="translate(525,235)"/>
<path d="M0 0 C0.66 0.33 1.32 0.66 2 1 C2 3.97 2 6.94 2 10 C1.34 10 0.68 10 0 10 C-0.33 10.66 -0.66 11.32 -1 12 C-2.09898702 8.70303895 -1.87124444 7.59505097 -1.0625 4.3125 C-0.86785156 3.50425781 -0.67320312 2.69601563 -0.47265625 1.86328125 C-0.31667969 1.24839844 -0.16070312 0.63351563 0 0 Z " fill="#E84927" transform="translate(412,212)"/>
<path d="M0 0 C4.29 0 8.58 0 13 0 C13 0.33 13 0.66 13 1 C11.98679688 1.19916016 11.98679688 1.19916016 10.953125 1.40234375 C9.61507812 1.66724609 9.61507812 1.66724609 8.25 1.9375 C7.36828125 2.11152344 6.4865625 2.28554687 5.578125 2.46484375 C3.36764947 2.92368488 1.18487932 3.43336074 -1 4 C-0.67 2.68 -0.34 1.36 0 0 Z " fill="#E17D6E" transform="translate(156,140)"/>
<path d="M0 0 C0.625 2.375 0.625 2.375 1 5 C0.34 5.66 -0.32 6.32 -1 7 C-1 5.35 -1 3.7 -1 2 C-2.32 2 -3.64 2 -5 2 C-6.34164079 1.7018576 -7.67851173 1.37756808 -9 1 C-5.64919071 -1.10976881 -3.77897651 -1.0497157 0 0 Z " fill="#DA7150" transform="translate(602,133)"/>
<path d="M0 0 C2.34917898 2.15341406 3.82443004 4.21667937 5.25 7.0625 C5.60578125 7.75472656 5.9615625 8.44695312 6.328125 9.16015625 C6.54984375 9.76730469 6.7715625 10.37445313 7 11 C6.67 11.66 6.34 12.32 6 13 C5.34 12.67 4.68 12.34 4 12 C4 11.01 4 10.02 4 9 C3.34 9 2.68 9 2 9 C2 7.35 2 5.7 2 4 C1.34 4 0.68 4 0 4 C0 2.68 0 1.36 0 0 Z " fill="#E06A4C" transform="translate(533,203)"/>
<path d="M0 0 C1.485 0.99 1.485 0.99 3 2 C3 2.99 3 3.98 3 5 C5.475 5.99 5.475 5.99 8 7 C8 7.66 8 8.32 8 9 C3.58110387 7.64978174 1.65654657 5.73884332 -1 2 C-0.67 1.34 -0.34 0.68 0 0 Z " fill="#E3715A" transform="translate(153,171)"/>
<path d="M0 0 C1.875 0.5625 1.875 0.5625 4 2 C5.25 5.625 5.25 5.625 6 9 C3 7.3125 3 7.3125 0 5 C-0.375 2.25 -0.375 2.25 0 0 Z " fill="#E35738" transform="translate(439,107)"/>
<path d="M0 0 C0.66 0 1.32 0 2 0 C3.38938077 1.96147874 4.7260411 3.96166576 6 6 C1.44615385 6.36923077 1.44615385 6.36923077 -0.8125 4.5 C-1.204375 4.005 -1.59625 3.51 -2 3 C-1.34 2.01 -0.68 1.02 0 0 Z " fill="#E9735D" transform="translate(187,201)"/>
<path d="M0 0 C1.44096586 0.42594588 2.87768712 0.86626633 4.3125 1.3125 C5.11300781 1.55613281 5.91351563 1.79976562 6.73828125 2.05078125 C9.09964573 3.04182023 10.33879993 4.08074943 12 6 C10.68 6 9.36 6 8 6 C8 5.34 8 4.68 8 4 C7.236875 4.04125 6.47375 4.0825 5.6875 4.125 C3 4 3 4 0 2 C0 1.34 0 0.68 0 0 Z " fill="#DE6954" transform="translate(378,161)"/>
<path d="M0 0 C0.66 0 1.32 0 2 0 C3.02611949 1.65071396 4.02308143 3.31970006 5 5 C6.58245275 6.75149165 6.58245275 6.75149165 8 8 C5.37886292 8 3.49064888 7.68707555 1 7 C0.67 4.69 0.34 2.38 0 0 Z " fill="#E1604C" transform="translate(523,128)"/>
<path d="M0 0 C0.33 0.66 0.66 1.32 1 2 C0.0625 4.625 0.0625 4.625 -1 7 C-1.99 7 -2.98 7 -4 7 C-4 7.99 -4 8.98 -4 10 C-4.66 10 -5.32 10 -6 10 C-5.49477778 5.62140745 -2.82172778 3.18348776 0 0 Z " fill="#E06F5E" transform="translate(570,106)"/>
<path d="M0 0 C-0.33 1.98 -0.66 3.96 -1 6 C-2.32 6.33 -3.64 6.66 -5 7 C-4.67 5.68 -4.34 4.36 -4 3 C-4.66 2.67 -5.32 2.34 -6 2 C-2.25 0 -2.25 0 0 0 Z " fill="#EC4C27" transform="translate(575,108)"/>
<path d="M0 0 C2 4 2 4 2.5 6.1875 C2.665 6.785625 2.83 7.38375 3 8 C3.66 8.33 4.32 8.66 5 9 C4.67 9.33 4.34 9.66 4 10 C2.35 10 0.7 10 -1 10 C-0.67 6.7 -0.34 3.4 0 0 Z " fill="#E8624D" transform="translate(75,100)"/>
<path d="M0 0 C0 1.32 0 2.64 0 4 C-1.32 4 -2.64 4 -4 4 C-4.33 3.34 -4.66 2.68 -5 2 C-5.99 1.34 -6.98 0.68 -8 0 C-4.94736336 -0.98120464 -3.05263664 -0.98120464 0 0 Z " fill="#ED4E2C" transform="translate(354,82)"/>
<path d="M0 0 C1 2 1 2 0.4375 4 C-1.62355242 6.86755119 -3.6098778 7.25417312 -7 8 C-9.1953125 7.54296875 -9.1953125 7.54296875 -11 7 C-10.18595703 6.61908203 -10.18595703 6.61908203 -9.35546875 6.23046875 C-8.64003906 5.88628906 -7.92460937 5.54210937 -7.1875 5.1875 C-6.47980469 4.85105469 -5.77210938 4.51460937 -5.04296875 4.16796875 C-2.98870965 2.99354529 -1.58383722 1.74371984 0 0 Z " fill="#E2745E" transform="translate(198,235)"/>
<path d="M0 0 C0.99 0 1.98 0 3 0 C3.70180531 1.4096347 4.38593958 2.82807641 5.0625 4.25 C5.44535156 5.03890625 5.82820312 5.8278125 6.22265625 6.640625 C7.08564091 9.25993522 6.93045933 10.44855176 6 13 C5.18501438 11.3970947 4.37310073 9.79262722 3.5625 8.1875 C3.11003906 7.29417969 2.65757812 6.40085938 2.19140625 5.48046875 C1 3 1 3 0 0 Z " fill="#E57F65" transform="translate(198,198)"/>
<path d="M0 0 C2.0625 1.6875 2.0625 1.6875 4 4 C3.75 6.75 3.75 6.75 3 9 C0.11749016 6.61879622 -0.61038985 4.70129644 -1 1 C-0.67 0.67 -0.34 0.34 0 0 Z " fill="#E05C3F" transform="translate(504,191)"/>
<path d="M0 0 C3.84375 0.796875 3.84375 0.796875 5.25 2.625 C6.25295915 5.8010373 6.12721966 8.69228878 6 12 C4 8 2 4 0 0 Z " fill="#DF6550" transform="translate(379,185)"/>
<path d="M0 0 C2.375 0.3125 2.375 0.3125 5 1 C5.66 1.99 6.32 2.98 7 4 C5.68 3.67 4.36 3.34 3 3 C3 3.66 3 4.32 3 5 C1.68 4.67 0.36 4.34 -1 4 C-0.67 2.68 -0.34 1.36 0 0 Z " fill="#E25535" transform="translate(387,167)"/>
<path d="M0 0 C5.52677733 -0.19392201 9.75614911 0.2520497 15 2 C15 2.33 15 2.66 15 3 C9.47322267 3.19392201 5.24385089 2.7479503 0 1 C0 0.67 0 0.34 0 0 Z " fill="#E06550" transform="translate(326,141)"/>
<path d="M0 0 C2.66666667 0.66666667 5.33333333 1.33333333 8 2 C8 3.32 8 4.64 8 6 C2.33846154 4.52307692 2.33846154 4.52307692 0.625 1.875 C0.41875 1.25625 0.2125 0.6375 0 0 Z " fill="#EB4E27" transform="translate(318,96)"/>
<path d="M0 0 C0.66 0 1.32 0 2 0 C1.69381595 3.67420866 1.24228216 4.78135513 -1.5625 7.3125 C-2.366875 7.869375 -3.17125 8.42625 -4 9 C-4 8.34 -4 7.68 -4 7 C-4.66 6.67 -5.32 6.34 -6 6 C-5.01 6 -4.02 6 -3 6 C-3 5.34 -3 4.68 -3 4 C-2.01 4 -1.02 4 0 4 C0 2.68 0 1.36 0 0 Z " fill="#E98776" transform="translate(194,222)"/>
<path d="M0 0 C1.98 0.66 3.96 1.32 6 2 C6.33 1.34 6.66 0.68 7 0 C7 0.66 7 1.32 7 2 C7.66 2 8.32 2 9 2 C9 2.99 9 3.98 9 5 C5.65626525 4.44271087 2.96687001 3.64826111 0 2 C0 1.34 0 0.68 0 0 Z " fill="#DF634C" transform="translate(472,138)"/>
<path d="M0 0 C0.66 0 1.32 0 2 0 C4.04169485 2.90548882 5 4.40142046 5 8 C4.34 7.34 3.68 6.68 3 6 C0.42938689 5.35232207 0.42938689 5.35232207 -2 5 C-1.34 3.35 -0.68 1.7 0 0 Z " fill="#E3654A" transform="translate(570,127)"/>
<path d="M0 0 C2.71232939 4.06849409 2.30699887 6.16476784 2 11 C1.34 11.66 0.68 12.32 0 13 C-1.06671952 9.79984144 -0.94845472 8.11455706 -0.5625 4.8125 C-0.46066406 3.91144531 -0.35882813 3.01039062 -0.25390625 2.08203125 C-0.17011719 1.39496094 -0.08632813 0.70789063 0 0 Z " fill="#E0644F" transform="translate(359,119)"/>
<path d="M0 0 C3.7952131 1.49097658 5.61042731 3.75700849 8 7 C7.67 7.66 7.34 8.32 7 9 C4 7 4 7 3 4 C2.01 3.67 1.02 3.34 0 3 C0 2.01 0 1.02 0 0 Z " fill="#E0614F" transform="translate(272,113)"/>
<path d="M0 0 C4.8 3.44615385 4.8 3.44615385 5.8125 6.25 C5.874375 6.8275 5.93625 7.405 6 8 C4 7 2 6 0 5 C0 3.35 0 1.7 0 0 Z " fill="#DE5F48" transform="translate(353,111)"/>
<path d="M0 0 C0.99 0.33 1.98 0.66 3 1 C2.34 1 1.68 1 1 1 C1.33 3.31 1.66 5.62 2 8 C1.34 8 0.68 8 0 8 C-1.0064275 6.33720673 -2.00585407 4.67016516 -3 3 C-3.99 2.34 -4.98 1.68 -6 1 C-3.03 1.495 -3.03 1.495 0 2 C0 1.34 0 0.68 0 0 Z " fill="#E46A52" transform="translate(396,108)"/>
<path d="M0 0 C0.33 0.99 0.66 1.98 1 3 C1.99 3.33 2.98 3.66 4 4 C1.69 5.65 -0.62 7.3 -3 9 C-2.01 6.03 -1.02 3.06 0 0 Z " fill="#DF6244" transform="translate(327,80)"/>
<path d="M0 0 C1.32 0.33 2.64 0.66 4 1 C4 1.99 4 2.98 4 4 C2.02 4.33 0.04 4.66 -2 5 C-2 4.34 -2 3.68 -2 3 C-1.34 3 -0.68 3 0 3 C0 2.01 0 1.02 0 0 Z " fill="#E85B36" transform="translate(348,77)"/>
<path d="M0 0 C1.258125 -0.04125 2.51625 -0.0825 3.8125 -0.125 C4.52019531 -0.14820313 5.22789062 -0.17140625 5.95703125 -0.1953125 C8 0 8 0 11 2 C11 2.66 11 3.32 11 4 C7.37 3.01 3.74 2.02 0 1 C0 0.67 0 0.34 0 0 Z " fill="#E06349" transform="translate(452,208)"/>
<path d="M0 0 C0.33 0.66 0.66 1.32 1 2 C1.99 2.33 2.98 2.66 4 3 C2.37660195 4.70884005 0.70680947 6.37446717 -1 8 C-1.66 8 -2.32 8 -3 8 C-2.67 7.01 -2.34 6.02 -2 5 C-1.34 5 -0.68 5 0 5 C-0.2784375 4.0409375 -0.2784375 4.0409375 -0.5625 3.0625 C-0.706875 2.381875 -0.85125 1.70125 -1 1 C-0.67 0.67 -0.34 0.34 0 0 Z " fill="#E0684E" transform="translate(354,133)"/>
<path d="M0 0 C4.05281712 1.22527029 7.44360764 2.69880494 11 5 C9.1875 5.6875 9.1875 5.6875 7 6 C5.5 4.625 5.5 4.625 4 3 C1.89667109 2.28552357 1.89667109 2.28552357 0 2 C0 1.34 0 0.68 0 0 Z " fill="#DC6651" transform="translate(342,105)"/>
<path d="M0 0 C0.66 0.33 1.32 0.66 2 1 C0.25 6.75 0.25 6.75 -2 9 C-2.6875 6.75 -2.6875 6.75 -3 4 C-1.5625 1.6875 -1.5625 1.6875 0 0 Z " fill="#E35A3C" transform="translate(569,251)"/>
<path d="M0 0 C0.33 0 0.66 0 1 0 C1 2.31 1 4.62 1 7 C-0.65 7.33 -2.3 7.66 -4 8 C-2.68 5.36 -1.36 2.72 0 0 Z " fill="#E57C65" transform="translate(203,227)"/>
<path d="M0 0 C2.70931419 0.15481795 4.46584039 0.48172081 6.4453125 2.40234375 C7.67679642 3.89771708 8.8429837 5.4462924 10 7 C6.42032008 5.34784004 3.22017048 3.26875648 0 1 C0 0.67 0 0.34 0 0 Z " fill="#E68574" transform="translate(144,223)"/>
<path d="M0 0 C1.98 0.495 1.98 0.495 4 1 C3.2884375 1.495 3.2884375 1.495 2.5625 2 C0.14208385 5.09813267 0.31801083 8.12026792 0 12 C-0.33 12 -0.66 12 -1 12 C-1.02712066 10.56260487 -1.04645067 9.12506137 -1.0625 7.6875 C-1.07410156 6.88699219 -1.08570313 6.08648437 -1.09765625 5.26171875 C-1 3 -1 3 0 0 Z " fill="#E16A53" transform="translate(374,111)"/>
<path d="M0 0 C7.57142857 1.85714286 7.57142857 1.85714286 10 5 C8.35 5 6.7 5 5 5 C5 4.34 5 3.68 5 3 C3.35 2.67 1.7 2.34 0 2 C0 1.34 0 0.68 0 0 Z " fill="#DC684E" transform="translate(490,102)"/>
<path d="M0 0 C3.93673644 1.31224548 6.22719294 2.91910327 9 6 C8.01 6.495 8.01 6.495 7 7 C7 6.34 7 5.68 7 5 C6.21625 4.9175 5.4325 4.835 4.625 4.75 C2 4 2 4 0.6875 1.9375 C0.460625 1.298125 0.23375 0.65875 0 0 Z " fill="#E47764" transform="translate(394,102)"/>
<path d="M0 0 C2.64 0 5.28 0 8 0 C7.67 1.65 7.34 3.3 7 5 C3.535 3.02 3.535 3.02 0 1 C0 0.67 0 0.34 0 0 Z " fill="#E7725D" transform="translate(189,192)"/>
<path d="M0 0 C2.31 0.33 4.62 0.66 7 1 C7 1.66 7 2.32 7 3 C7.66 3.33 8.32 3.66 9 4 C8.01 4.495 8.01 4.495 7 5 C4.5249829 3.88568235 2.32116581 2.41849022 0 1 C0 0.67 0 0.34 0 0 Z " fill="#E27D61" transform="translate(181,187)"/>
<path d="M0 0 C3.44216672 2.6598561 3.99504674 5.90288286 5 10 C4.34 10 3.68 10 3 10 C2.49596232 8.70990357 1.99690074 7.41786211 1.5 6.125 C1.2215625 5.40570313 0.943125 4.68640625 0.65625 3.9453125 C0 2 0 2 0 0 Z " fill="#DC6654" transform="translate(401,179)"/>
<path d="M0 0 C3.02419525 0.58803797 6.01758453 1.22678118 9 2 C6.59454362 3.20272819 5.05003047 3.10071472 2.375 3.0625 C1.14910156 3.04896484 1.14910156 3.04896484 -0.1015625 3.03515625 C-1.04128906 3.01775391 -1.04128906 3.01775391 -2 3 C-1.34 2.01 -0.68 1.02 0 0 Z " fill="#DF5A3F" transform="translate(262,272)"/>
<path d="M0 0 C0 0.66 0 1.32 0 2 C-5.41538462 3.23076923 -5.41538462 3.23076923 -8.375 2.0625 C-8.91125 1.711875 -9.4475 1.36125 -10 1 C-3.375 0 -3.375 0 0 0 Z " fill="#ED9383" transform="translate(187,243)"/>
</svg>
