<?xml version="1.0" encoding="UTF-8"?>
<svg version="1.1" xmlns="http://www.w3.org/2000/svg" width="268" height="188">
<path d="M0 0 C3.125 2.0625 3.125 2.0625 5 5 C5.25909844 8.56260352 4.97944573 10.71389075 2.77734375 13.60546875 C-4.36735282 20.43418366 -14.20920167 23.33082858 -23.8203125 24.34765625 C-26.11124167 24.8007085 -26.11124167 24.8007085 -27.296875 26.69921875 C-28.1490025 29.4875693 -28.19433025 31.83812964 -28.125 34.75 C-28.09792969 36.22726563 -28.09792969 36.22726563 -28.0703125 37.734375 C-28.04710937 38.48203125 -28.02390625 39.2296875 -28 40 C-13.40499478 41.26913089 -0.98760305 29.8694581 9.51953125 21.12109375 C11.70468053 19.25253303 13.85348471 17.35001362 16 15.4375 C19 13 19 13 22 13 C19.3654478 19.30196862 13.67972094 24.1470144 9 29 C8.21238281 29.82628906 7.42476562 30.65257813 6.61328125 31.50390625 C-2.75395879 40.64849543 -15.35093676 47.3745478 -28.59375 47.21875 C-32.70735764 46.84478567 -34.9367306 45.20849644 -37.6015625 42.1796875 C-40.07710147 38.32116586 -39.55451117 34.42334196 -39 30 C-36.50570357 19.86594027 -29.66228013 11.12817535 -21.12890625 5.25 C-14.69100751 1.46994936 -7.57708505 -1.69702887 0 0 Z M-22 17 C-21.67 17.66 -21.34 18.32 -21 19 C-11.60108853 16.56828337 -11.60108853 16.56828337 -4 11 C-3.11406002 7.86136296 -3.11406002 7.86136296 -3 5 C-10.68167709 5 -16.73835743 12.08436114 -22 17 Z " fill="#C8302B" transform="translate(72,59)"/>
<path d="M0 0 C3.50625 -0.103125 7.0125 -0.20625 10.625 -0.3125 C11.71893066 -0.35802002 12.81286133 -0.40354004 13.93994141 -0.45043945 C22.01837195 -0.56529514 22.01837195 -0.56529514 25.66796875 2.20703125 C28.80213281 5.96067833 28.80853842 7.91751841 28.53515625 12.62109375 C27.72633379 16.21651623 25.90389542 17.85664862 23 20 C20.47524538 21.26237731 18.68799534 21.09856404 15.875 21.0625 C14.26625 21.041875 12.6575 21.02125 11 21 C11 24.96 11 28.92 11 33 C7.37 33 3.74 33 0 33 C0 22.11 0 11.22 0 0 Z M11 7 C11 8.98 11 10.96 11 13 C12.98 13 14.96 13 17 13 C17.33 12.01 17.66 11.02 18 10 C16.7511573 8.4166747 16.7511573 8.4166747 15 7 C13.68 7 12.36 7 11 7 Z " fill="#CF322C" transform="translate(102,71)"/>
<path d="M0 0 C4.33365607 0.36113801 5.79747716 1.18629935 8.75 4.3125 C10.24065574 8.19752152 9.89686705 12.39992881 9.875 16.5 C9.88080078 17.60504883 9.88080078 17.60504883 9.88671875 18.73242188 C9.87668491 24.18581509 9.87668491 24.18581509 8.75 25.3125 C7.25261876 25.4104057 5.75057108 25.44224864 4.25 25.4375 C3.4353125 25.44007812 2.620625 25.44265625 1.78125 25.4453125 C-0.25 25.3125 -0.25 25.3125 -1.25 24.3125 C-1.48653523 21.78653741 -1.67173692 19.28142793 -1.8125 16.75 C-1.85568359 16.03908203 -1.89886719 15.32816406 -1.94335938 14.59570312 C-2.04971777 12.83488088 -2.15038846 11.0737168 -2.25 9.3125 C-3.57 9.3125 -4.89 9.3125 -6.25 9.3125 C-6.23839844 10.38371094 -6.22679687 11.45492187 -6.21484375 12.55859375 C-6.20546701 13.95572743 -6.19636669 15.35286299 -6.1875 16.75 C-6.17912109 17.45705078 -6.17074219 18.16410156 -6.16210938 18.89257812 C-6.15346412 20.69943559 -6.19779989 22.50637603 -6.25 24.3125 C-6.58 24.6425 -6.91 24.9725 -7.25 25.3125 C-10.22 25.3125 -13.19 25.3125 -16.25 25.3125 C-16.25 17.3925 -16.25 9.4725 -16.25 1.3125 C-12.25 1.3125 -8.25 1.3125 -4.25 1.3125 C-3.25 0.3125 -3.25 0.3125 0 0 Z " fill="#C1312C" transform="translate(185.25,78.6875)"/>
<path d="M0 0 C0 2.64 0 5.28 0 8 C1.65 8.33 3.3 8.66 5 9 C5 10.65 5 12.3 5 14 C3.35 14.33 1.7 14.66 0 15 C0 18.3 0 21.6 0 25 C1.32 25 2.64 25 4 25 C4.38133299 26.9914056 4.71325582 28.99279077 5 31 C3.26780072 32.73219928 0.97973192 32.21291761 -1.375 32.25 C-2.35210937 32.27578125 -3.32921875 32.3015625 -4.3359375 32.328125 C-7 32 -7 32 -8.83984375 30.93359375 C-10.64095111 27.93174816 -10.28253973 25.26561019 -10.1875 21.8125 C-10.16042969 20.54019531 -10.13335937 19.26789063 -10.10546875 17.95703125 C-10.07066406 16.98121094 -10.03585938 16.00539063 -10 15 C-11.32 15 -12.64 15 -14 15 C-14 12.69 -14 10.38 -14 8 C-13.01 7.67 -12.02 7.34 -11 7 C-10.9175 6.401875 -10.835 5.80375 -10.75 5.1875 C-9.83194568 2.50984157 -9.00562317 2.12185036 -6.625 0.6875 C-3 -1 -3 -1 0 0 Z " fill="#E4302D" transform="translate(211,72)"/>
<path d="M0 0 C1.47398779 0.20753748 2.95351285 0.38383662 4.4375 0.5 C4.7675 0.17 5.0975 -0.16 5.4375 -0.5 C7.77694736 -0.21269945 10.1114143 0.11936779 12.4375 0.5 C12.06702882 3.24148672 11.75162056 5.08593199 10.0625 7.3125 C8.4375 8.5 8.4375 8.5 5.4375 8.5 C3.9567152 11.4615696 4.08435963 14.33506295 3.875 17.625 C3.79121094 18.90632813 3.70742187 20.18765625 3.62109375 21.5078125 C3.56050781 22.49523437 3.49992188 23.48265625 3.4375 24.5 C0.1375 24.5 -3.1625 24.5 -6.5625 24.5 C-6.5625 16.58 -6.5625 8.66 -6.5625 0.5 C-4.04034162 -0.76107919 -2.76566351 -0.39065552 0 0 Z " fill="#E0312E" transform="translate(140.5625,79.5)"/>
<path d="M0 0 C5.28 0 10.56 0 16 0 C16 0.99 16 1.98 16 3 C10.25 4.125 10.25 4.125 8 3 C8.33 6.3 8.66 9.6 9 13 C10.65 13 12.3 13 14 13 C14 14.32 14 15.64 14 17 C11.69 17 9.38 17 7 17 C7 20.96 7 24.92 7 29 C4.69 29 2.38 29 0 29 C0 19.43 0 9.86 0 0 Z " fill="#E5312E" transform="translate(104,73)"/>
<path d="M0 0 C2.80703896 1.34040619 3.86054551 2.54745461 6 5 C7.125 8.4375 7.125 8.4375 7 12 C5.02061533 15.74669241 3.52983947 17.64677369 0 20 C-7.59668508 20.55248619 -7.59668508 20.55248619 -11 18 C-13.09383612 15.30792498 -13.93418961 13.44186979 -14.4375 10.0625 C-13.88393677 6.1875574 -12.40826469 4.04574652 -10 1 C-6.76022402 -0.61988799 -3.5016641 -0.56520367 0 0 Z M-8 3 C-7.67 3.66 -7.34 4.32 -7 5 C-4.67843403 5.40729228 -2.3431213 5.74438677 0 6 C-0.020625 6.94875 -0.04125 7.8975 -0.0625 8.875 C-0.22551826 11.90666283 -0.22551826 11.90666283 1 14 C1.66 14 2.32 14 3 14 C3.98388172 9.8150658 3.98388172 9.8150658 3.1875 5.6875 C2.09312675 3.84902178 2.09312675 3.84902178 0 3 C-1.37342831 2.9310528 -2.75002102 2.91532292 -4.125 2.9375 C-6.043125 2.9684375 -6.043125 2.9684375 -8 3 Z M-9 4 C-11.34813734 5.93167398 -11.34813734 5.93167398 -11.375 9.375 C-11.27813411 12.96864031 -11.27813411 12.96864031 -9.4375 15.4375 C-6.18129203 17.5248128 -3.79004984 17.2915423 0 17 C0.33 16.34 0.66 15.68 1 15 C-0.32 15 -1.64 15 -3 15 C-3.33 14.34 -3.66 13.68 -4 13 C-4 13.66 -4 14.32 -4 15 C-5.32 15 -6.64 15 -8 15 C-8 11.37 -8 7.74 -8 4 C-8.33 4 -8.66 4 -9 4 Z " fill="#AE2A25" transform="translate(229,62)"/>
<path d="M0 0 C3.3 0 6.6 0 10 0 C10 7.92 10 15.84 10 24 C6.7 24 3.4 24 0 24 C0 16.08 0 8.16 0 0 Z " fill="#D1322C" transform="translate(154,80)"/>
<path d="M0 0 C2 0.3125 2 0.3125 4 1 C4.33 1.66 4.66 2.32 5 3 C5.66 2.34 6.32 1.68 7 1 C7.99 1 8.98 1 10 1 C10 1.99 10 2.98 10 4 C10.8971875 3.6596875 10.8971875 3.6596875 11.8125 3.3125 C12.8953125 3.1578125 12.8953125 3.1578125 14 3 C15.75 4.4375 15.75 4.4375 17 6 C17.66 5.01 18.32 4.02 19 3 C19.99 3.33 20.98 3.66 22 4 C20.25740319 13.59453303 20.25740319 13.59453303 17 17 C15.35 16.67 13.7 16.34 12 16 C12 15.01 12 14.02 12 13 C11.38125 13.185625 10.7625 13.37125 10.125 13.5625 C8 14 8 14 6 13 C5.375 10.4375 5.375 10.4375 5 8 C4.67 9.65 4.34 11.3 4 13 C2.35 13 0.7 13 -1 13 C-1.02686553 11.02090602 -1.04633375 9.04171029 -1.0625 7.0625 C-1.07410156 5.96035156 -1.08570313 4.85820313 -1.09765625 3.72265625 C-1 1 -1 1 0 0 Z M10 7 C10 7.99 10 8.98 10 10 C10.66 10 11.32 10 12 10 C12 10.99 12 11.98 12 13 C12.99 12.67 13.98 12.34 15 12 C14.34 10.35 13.68 8.7 13 7 C12.01 7 11.02 7 10 7 Z " fill="#CB2B23" transform="translate(182,112)"/>
<path d="M0 0 C1.32 0.33 2.64 0.66 4 1 C4 4.96 4 8.92 4 13 C2.576875 13.226875 1.15375 13.45375 -0.3125 13.6875 C-1.51326172 13.87892578 -1.51326172 13.87892578 -2.73828125 14.07421875 C-5 14 -5 14 -6.79296875 12.51953125 C-7.19128906 12.01808594 -7.58960937 11.51664063 -8 11 C-8.33 11.66 -8.66 12.32 -9 13 C-10.32 13 -11.64 13 -13 13 C-13 11.02 -13 9.04 -13 7 C-13.66 7 -14.32 7 -15 7 C-15 8.98 -15 10.96 -15 13 C-16.32 13 -17.64 13 -19 13 C-19 9.7 -19 6.4 -19 3 C-12.375 2.875 -12.375 2.875 -9 4 C-8.3503125 3.2575 -8.3503125 3.2575 -7.6875 2.5 C-6 1 -6 1 -3 1 C-2.34 1.66 -1.68 2.32 -1 3 C-0.67 2.01 -0.34 1.02 0 0 Z M-3 7 C-2.67 8.32 -2.34 9.64 -2 11 C-1.67 9.68 -1.34 8.36 -1 7 C-1.66 7 -2.32 7 -3 7 Z " fill="#B62723" transform="translate(107,112)"/>
<path d="M0 0 C-0.66 0 -1.32 0 -2 0 C-2 0.99 -2 1.98 -2 3 C-2.99 3.495 -2.99 3.495 -4 4 C-4 4.99 -4 5.98 -4 7 C-4.99 7.66 -5.98 8.32 -7 9 C-7.33 9.99 -7.66 10.98 -8 12 C-8.66 12 -9.32 12 -10 12 C-9.67 13.65 -9.34 15.3 -9 17 C-9.66 17.33 -10.32 17.66 -11 18 C-11 20.97 -11 23.94 -11 27 C-11.99 27 -12.98 27 -14 27 C-13.67 27.66 -13.34 28.32 -13 29 C-14.65 28.67 -16.3 28.34 -18 28 C-17.69356418 23.66425917 -17.35467062 19.33204829 -17 15 C-16.95101562 14.25878906 -16.90203125 13.51757812 -16.8515625 12.75390625 C-16.44569941 8.4150365 -15.0615916 6.0615916 -12 3 C-7.86924121 0.178994 -4.92300607 -1.52782947 0 0 Z " fill="#E2302B" transform="translate(53,71)"/>
<path d="M0 0 C0.7425 0.185625 1.485 0.37125 2.25 0.5625 C4.94990963 0.99203108 6.44631077 0.85122974 9 0 C9.66 1.32 10.32 2.64 11 4 C11.33 3.01 11.66 2.02 12 1 C14.8125 0.375 14.8125 0.375 18 0 C18.99 0.66 19.98 1.32 21 2 C21.40843923 4.71203652 21.13336867 7.2437142 21 10 C19.741875 10.185625 18.48375 10.37125 17.1875 10.5625 C16.12595703 10.71912109 16.12595703 10.71912109 15.04296875 10.87890625 C13 11 13 11 10 10 C8.03397896 10.20555864 8.03397896 10.20555864 6 10.625 C2.27632888 11.12560404 2.27632888 11.12560404 -0.0625 10.0625 C-1.618096 6.6401888 -0.65750377 3.64615724 0 0 Z " fill="#C52A23" transform="translate(154,115)"/>
<path d="M0 0 C1.46491133 0.37074916 2.92195569 0.77267189 4.375 1.1875 C5.59316406 1.51814453 5.59316406 1.51814453 6.8359375 1.85546875 C9 3 9 3 10.28125 5.09375 C11.21171018 8.85604552 11.21434372 12.4672836 11.125 16.3125 C11.11597656 17.05306641 11.10695312 17.79363281 11.09765625 18.55664062 C11.07424213 20.37123467 11.03837615 22.18566071 11 24 C8.03 24 5.06 24 2 24 C1.97274659 22.2709226 1.95349013 20.54171824 1.9375 18.8125 C1.92589844 17.84957031 1.91429687 16.88664062 1.90234375 15.89453125 C2 13 2 13 2.56640625 10.26171875 C3.24181671 7.97728422 3.24181671 7.97728422 2 6 C2.66 6 3.32 6 4 6 C4 4.68 4 3.36 4 2 C2.68 2.33 1.36 2.66 0 3 C0 2.01 0 1.02 0 0 Z " fill="#DE312D" transform="translate(183,80)"/>
<path d="M0 0 C2.31 0 4.62 0 7 0 C7.97299156 4.85729645 8.12038805 9.4500625 8.0625 14.375 C8.05798828 15.11105469 8.05347656 15.84710938 8.04882812 16.60546875 C8.03715142 18.40368158 8.01922011 20.20185197 8 22 C5.36 22 2.72 22 0 22 C0 14.74 0 7.48 0 0 Z " fill="#E0302A" transform="translate(170,81)"/>
<path d="M0 0 C0.99 0 1.98 0 3 0 C3 0.66 3 1.32 3 2 C4.32 2 5.64 2 7 2 C6.67 2.99 6.34 3.98 6 5 C6.03688035 7.72914576 6.13802891 10.40516293 6.3125 13.125 C6.34794922 13.86621094 6.38339844 14.60742188 6.41992188 15.37109375 C6.53522505 17.25380523 6.75934589 19.12917586 7 21 C7.66 21.33 8.32 21.66 9 22 C9 21.34 9 20.68 9 20 C10.65 20.33 12.3 20.66 14 21 C14.33 20.01 14.66 19.02 15 18 C14.01 17.67 13.02 17.34 12 17 C11.85714286 9.57142857 11.85714286 9.57142857 13 6 C14.32 6 15.64 6 17 6 C17 4.35 17 2.7 17 1 C16.34 0.67 15.68 0.34 15 0 C16.32 0.33 17.64 0.66 19 1 C19 2.65 19 4.3 19 6 C17.35 6.33 15.7 6.66 14 7 C14 10.3 14 13.6 14 17 C15.32 17 16.64 17 18 17 C18.38133299 18.9914056 18.71325582 20.99279077 19 23 C17.26780072 24.73219928 14.97973192 24.21291761 12.625 24.25 C11.64789063 24.27578125 10.67078125 24.3015625 9.6640625 24.328125 C7 24 7 24 5.16015625 22.93359375 C3.35904889 19.93174816 3.71746027 17.26561019 3.8125 13.8125 C3.83957031 12.54019531 3.86664063 11.26789063 3.89453125 9.95703125 C3.92933594 8.98121094 3.96414062 8.00539063 4 7 C2.68 7 1.36 7 0 7 C0 4.69 0 2.38 0 0 Z " fill="#C6332C" transform="translate(197,80)"/>
<path d="M0 0 C3 0.5625 3 0.5625 5.375 1.9375 C7.86963042 5.9672876 7.31735888 9.94316514 7 14.5625 C-0.06234414 14.92160224 -0.06234414 14.92160224 -3.9375 13.4375 C-6 11.5625 -6 11.5625 -7.0625 8.6875 C-7 5.5625 -7 5.5625 -5.4375 2.6875 C-3 0.5625 -3 0.5625 0 0 Z M-1 4.5625 C-1.33 5.8825 -1.66 7.2025 -2 8.5625 C-0.68 8.5625 0.64 8.5625 2 8.5625 C1.67 7.2425 1.34 5.9225 1 4.5625 C0.34 4.5625 -0.32 4.5625 -1 4.5625 Z " fill="#C52B23" transform="translate(146,111.4375)"/>
<path d="M0 0 C0 1.65 0 3.3 0 5 C-6.79279259 9.15185641 -12.01885115 11.61381538 -20 12 C-20.33 12.33 -20.66 12.66 -21 13 C-23.67058851 13.14115161 -26.32432238 13.04247107 -29 13 C-28.34 12.67 -27.68 12.34 -27 12 C-27 11.01 -27 10.02 -27 9 C-23.7 8.67 -20.4 8.34 -17 8 C-17 7.34 -17 6.68 -17 6 C-15.44148245 5.17988688 -13.87798284 4.36923787 -12.3125 3.5625 C-11.44238281 3.11003906 -10.57226562 2.65757813 -9.67578125 2.19140625 C-6.45859943 0.75893843 -3.52435909 0 0 0 Z " fill="#C92B28" transform="translate(71,92)"/>
<path d="M0 0 C3.4375 0.1875 3.4375 0.1875 4.4375 1.1875 C4.58841913 2.99562724 4.65919008 4.81080617 4.6875 6.625 C4.72617188 8.10806641 4.72617188 8.10806641 4.765625 9.62109375 C4.65734375 10.46800781 4.5490625 11.31492187 4.4375 12.1875 C1.4375 14.1875 1.4375 14.1875 -1.75 13.8125 C-3.1421875 13.503125 -3.1421875 13.503125 -4.5625 13.1875 C-5.44066497 9.45529887 -5.81813551 6.02203269 -5.5625 2.1875 C-3.5625 0.1875 -3.5625 0.1875 0 0 Z M-1.5625 4.1875 C-1.5625 4.8475 -1.5625 5.5075 -1.5625 6.1875 C-0.9025 6.1875 -0.2425 6.1875 0.4375 6.1875 C0.4375 5.5275 0.4375 4.8675 0.4375 4.1875 C-0.2225 4.1875 -0.8825 4.1875 -1.5625 4.1875 Z " fill="#B72E28" transform="translate(128.5625,114.8125)"/>
<path d="M0 0 C1.32 0.33 2.64 0.66 4 1 C4 4.96 4 8.92 4 13 C2.35 13 0.7 13 -1 13 C-1 11.02 -1 9.04 -1 7 C-1.99 7.495 -1.99 7.495 -3 8 C-3.65555119 10.52733235 -3.65555119 10.52733235 -4 13 C-5.32 13 -6.64 13 -8 13 C-8 10.03 -8 7.06 -8 4 C-3.25 3 -3.25 3 -1 3 C-0.67 2.01 -0.34 1.02 0 0 Z " fill="#BE322D" transform="translate(83,112)"/>
<path d="M0 0 C4.62 0 9.24 0 14 0 C14 2.31 14 4.62 14 7 C13 8 13 8 10.05859375 8.09765625 C8.26615234 8.08025391 8.26615234 8.08025391 6.4375 8.0625 C4.64119141 8.04896484 4.64119141 8.04896484 2.80859375 8.03515625 C1.88175781 8.02355469 0.95492187 8.01195313 0 8 C0 5.36 0 2.72 0 0 Z " fill="#CE312E" transform="translate(85,88)"/>
<path d="M0 0 C1.258125 -0.04125 2.51625 -0.0825 3.8125 -0.125 C4.52019531 -0.14820312 5.22789063 -0.17140625 5.95703125 -0.1953125 C8 0 8 0 11 2 C11.375 4.5 11.375 4.5 11 7 C8 9 8 9 5 9 C5 10.32 5 11.64 5 13 C3.35 13 1.7 13 0 13 C0 8.71 0 4.42 0 0 Z " fill="#BD2E26" transform="translate(63,112)"/>
<path d="M0 0 C0.33 0 0.66 0 1 0 C1 7.26 1 14.52 1 22 C-1.64 22 -4.28 22 -7 22 C-7 15.07 -7 8.14 -7 1 C-6.67 1 -6.34 1 -6 1 C-6 4.96 -6 8.92 -6 13 C-4.68 13 -3.36 13 -2 13 C-1.34 8.71 -0.68 4.42 0 0 Z " fill="#DF2C25" transform="translate(162,81)"/>
<path d="M0 0 C6.75 -0.125 6.75 -0.125 9 1 C9 1.66 9 2.32 9 3 C10.32 3 11.64 3 13 3 C13.33 2.01 13.66 1.02 14 0 C14.66 1.32 15.32 2.64 16 4 C15.34 4 14.68 4 14 4 C13.67 5.32 13.34 6.64 13 8 C12.34 7.01 11.68 6.02 11 5 C10.67 6.65 10.34 8.3 10 10 C8.68 10 7.36 10 6 10 C6 8.02 6 6.04 6 4 C5.34 4 4.68 4 4 4 C4 5.98 4 7.96 4 10 C2.68 10 1.36 10 0 10 C0 6.7 0 3.4 0 0 Z " fill="#B2322C" transform="translate(88,115)"/>
<path d="M0 0 C3.5625 0.1875 3.5625 0.1875 5.5625 2.1875 C5.83241906 4.87589385 5.64987357 7.47891936 5.5625 10.1875 C4.2425 10.1875 2.9225 10.1875 1.5625 10.1875 C1.5625 8.2075 1.5625 6.2275 1.5625 4.1875 C0.9025 4.1875 0.2425 4.1875 -0.4375 4.1875 C-0.4375 6.1675 -0.4375 8.1475 -0.4375 10.1875 C-1.7575 10.1875 -3.0775 10.1875 -4.4375 10.1875 C-4.46439216 8.70843108 -4.48384621 7.22922517 -4.5 5.75 C-4.51160156 4.92628906 -4.52320312 4.10257812 -4.53515625 3.25390625 C-4.36839634 -0.27473335 -3.65003385 0.19909276 0 0 Z " fill="#BF2E27" transform="translate(116.4375,114.8125)"/>
<path d="M0 0 C2.64 0.33 5.28 0.66 8 1 C8.84454356 4.37817425 9.10844919 6.67465243 8 10 C5.36 10.33 2.72 10.66 0 11 C-0.19491452 9.54263913 -0.38069358 8.08405407 -0.5625 6.625 C-0.66691406 5.81289062 -0.77132812 5.00078125 -0.87890625 4.1640625 C-1 2 -1 2 0 0 Z " fill="#C52C25" transform="translate(221,66)"/>
<path d="M0 0 C0.66 0.99 1.32 1.98 2 3 C1.67 3.66 1.34 4.32 1 5 C0.84995027 6.3734635 0.75161994 7.7528526 0.68359375 9.1328125 C0.64169922 9.93847656 0.59980469 10.74414062 0.55664062 11.57421875 C0.49766602 12.83685547 0.49766602 12.83685547 0.4375 14.125 C0.39431641 14.97449219 0.35113281 15.82398437 0.30664062 16.69921875 C0.20045764 18.79928223 0.09971503 20.89961948 0 23 C1.98 23 3.96 23 6 23 C6 21.02 6 19.04 6 17 C6.33 17 6.66 17 7 17 C7.33 19.64 7.66 22.28 8 25 C4.7 25 1.4 25 -2 25 C-2 17.08 -2 9.16 -2 1 C-1.34 0.67 -0.68 0.34 0 0 Z " fill="#CB2C25" transform="translate(136,79)"/>
<path d="M0 0 C3.3 0 6.6 0 10 0 C10 2.31 10 4.62 10 7 C6.7 7 3.4 7 0 7 C0 4.69 0 2.38 0 0 Z " fill="#C92E2B" transform="translate(154,71)"/>
<path d="M0 0 C5.75 -0.125 5.75 -0.125 8 1 C8 4.3 8 7.6 8 11 C6.68 10.67 5.36 10.34 4 10 C4 8.35 4 6.7 4 5 C3.34 5 2.68 5 2 5 C1.34 6.65 0.68 8.3 0 10 C-0.66 10 -1.32 10 -2 10 C-1.34 6.7 -0.68 3.4 0 0 Z " fill="#CA2D29" transform="translate(143,112)"/>
<path d="M0 0 C2.33944736 0.28730055 4.6739143 0.61936779 7 1 C6.50168276 4.68754757 5.89932357 6.60490662 3 9 C-0.36016893 7.87994369 -1.69064913 6.62788203 -4 4 C-4 3.34 -4 2.68 -4 2 C-4.99 1.67 -5.98 1.34 -7 1 C-5.5459375 1.0309375 -5.5459375 1.0309375 -4.0625 1.0625 C-1.12534105 1.35618499 -1.12534105 1.35618499 0 0 Z " fill="#C8342F" transform="translate(146,79)"/>
<path d="M0 0 C-1.51553404 3.47775179 -3.5773456 5.9557984 -6.125 8.75 C-7.21167969 9.94882813 -7.21167969 9.94882813 -8.3203125 11.171875 C-8.87460938 11.77515625 -9.42890625 12.3784375 -10 13 C-10.33 12.34 -10.66 11.68 -11 11 C-11.78375 11.515625 -12.5675 12.03125 -13.375 12.5625 C-14.24125 13.036875 -15.1075 13.51125 -16 14 C-16.66 13.67 -17.32 13.34 -18 13 C-15.57302724 10.82129608 -13.13179513 8.65923959 -10.6875 6.5 C-9.65206055 5.56994141 -9.65206055 5.56994141 -8.59570312 4.62109375 C-7.92861328 4.03457031 -7.26152344 3.44804688 -6.57421875 2.84375 C-5.65515747 2.02680664 -5.65515747 2.02680664 -4.7175293 1.19335938 C-3 0 -3 0 0 0 Z " fill="#BB322A" transform="translate(94,72)"/>
<path d="M0 0 C2.97 0.495 2.97 0.495 6 1 C5.4375 2.9375 5.4375 2.9375 4 5 C0.4375 5.6875 0.4375 5.6875 -3 6 C-3.33 6.33 -3.66 6.66 -4 7 C-6.67058851 7.14115161 -9.32432238 7.04247107 -12 7 C-11.34 6.67 -10.68 6.34 -10 6 C-10 5.01 -10 4.02 -10 3 C-6.7 2.67 -3.4 2.34 0 2 C0 1.34 0 0.68 0 0 Z " fill="#E32C26" transform="translate(54,98)"/>
<path d="M0 0 C1.32 0.33 2.64 0.66 4 1 C4 2.65 4 4.3 4 6 C2.35 6.33 0.7 6.66 -1 7 C-1 10.3 -1 13.6 -1 17 C0.32 17 1.64 17 3 17 C3.33 18.98 3.66 20.96 4 23 C3.67 22.34 3.34 21.68 3 21 C2.01 21 1.02 21 0 21 C0 20.01 0 19.02 0 18 C-0.99 17.67 -1.98 17.34 -3 17 C-3.14285714 9.57142857 -3.14285714 9.57142857 -2 6 C-0.68 6 0.64 6 2 6 C2 4.35 2 2.7 2 1 C1.34 0.67 0.68 0.34 0 0 Z " fill="#BD3935" transform="translate(212,80)"/>
<path d="M0 0 C0 2.64 0 5.28 0 8 C-0.99 7.67 -1.98 7.34 -3 7 C-3 7.99 -3 8.98 -3 10 C-3.66 10 -4.32 10 -5 10 C-5 7.69 -5 5.38 -5 3 C-6.32 3.33 -7.64 3.66 -9 4 C-9.33 5.32 -9.66 6.64 -10 8 C-10 6.35 -10 4.7 -10 3 C-3.375 -1.125 -3.375 -1.125 0 0 Z " fill="#C7342F" transform="translate(211,72)"/>
<path d="M0 0 C1.98 0 3.96 0 6 0 C4.515 1.485 4.515 1.485 3 3 C3.33 3.66 3.66 4.32 4 5 C5.32 4.67 6.64 4.34 8 4 C8.33 4.99 8.66 5.98 9 7 C6.0173094 8.52448631 3.181798 9.93940067 0 11 C0 7.37 0 3.74 0 0 Z " fill="#DB2A26" transform="translate(64,113)"/>
<path d="M0 0 C1.32 0 2.64 0 4 0 C4 4.29 4 8.58 4 13 C2.68 13 1.36 13 0 13 C0 8.71 0 4.42 0 0 Z " fill="#CB2E29" transform="translate(176,112)"/>
<path d="M0 0 C1.32564279 2.65128558 0.73206729 3.82980433 0.0625 6.6875 C-1.26039596 12.93300883 -1.86068872 18.09982952 1 24 C-1.93888862 21.79583354 -3.70114918 20.41768899 -4.47265625 16.7578125 C-4.70065124 10.39377844 -3.0024108 5.54909853 0 0 Z " fill="#BD322E" transform="translate(37,80)"/>
<path d="M0 0 C0.99 0.66 1.98 1.32 3 2 C1.35 2.33 -0.3 2.66 -2 3 C-2 3.99 -2 4.98 -2 6 C-5.12180401 6.96661363 -7.52083795 6.98988909 -10.75 6.5625 C-11.94882812 6.40974609 -11.94882812 6.40974609 -13.171875 6.25390625 C-13.77515625 6.17011719 -14.3784375 6.08632812 -15 6 C-14.67 5.34 -14.34 4.68 -14 4 C-11.69 4 -9.38 4 -7 4 C-7 3.34 -7 2.68 -7 2 C-3.6875 0.875 -3.6875 0.875 0 0 Z " fill="#DC2C27" transform="translate(62,75)"/>
<path d="M0 0 C0.66 0.33 1.32 0.66 2 1 C2 3.64 2 6.28 2 9 C-5.75 10.125 -5.75 10.125 -8 9 C-8 8.34 -8 7.68 -8 7 C-7.236875 6.95875 -6.47375 6.9175 -5.6875 6.875 C-2.67594887 6.22176391 -2.67594887 6.22176391 -1.1875 2.9375 C-0.795625 1.968125 -0.40375 0.99875 0 0 Z " fill="#BC322C" transform="translate(173,116)"/>
<path d="M0 0 C4.33365607 0.36113801 5.79747716 1.18629935 8.75 4.3125 C10.07632476 8.32815877 9.86052553 12.38058419 9.8125 16.5625 C9.80798828 17.30757812 9.80347656 18.05265625 9.79882812 18.8203125 C9.78709246 20.6510764 9.7691585 22.48179873 9.75 24.3125 C9.42 24.3125 9.09 24.3125 8.75 24.3125 C8.70101562 23.28769531 8.65203125 22.26289062 8.6015625 21.20703125 C8.52648929 19.8463294 8.45094345 18.48565356 8.375 17.125 C8.3440625 16.45146484 8.313125 15.77792969 8.28125 15.08398438 C8.05108115 11.15193314 7.74362871 7.7531173 5.75 4.3125 C3.89166522 3.32544882 3.89166522 3.32544882 1.75 3.0625 C-2.20348837 2.33575581 -2.20348837 2.33575581 -4.25 1.3125 C-3.25 0.3125 -3.25 0.3125 0 0 Z " fill="#AE3733" transform="translate(185.25,78.6875)"/>
<path d="M0 0 C0.66 0 1.32 0 2 0 C2 1.98 2 3.96 2 6 C2.9590625 5.7215625 2.9590625 5.7215625 3.9375 5.4375 C4.618125 5.293125 5.29875 5.14875 6 5 C7 6 7 6 7.0625 8.5625 C7.041875 9.366875 7.02125 10.17125 7 11 C5.02 11 3.04 11 1 11 C0.67 7.37 0.34 3.74 0 0 Z " fill="#D92923" transform="translate(124,116)"/>
<path d="M0 0 C0.66 0.33 1.32 0.66 2 1 C2 1.33 2 1.66 2 2 C3.65 2.33 5.3 2.66 7 3 C0.63636364 8 0.63636364 8 -4 8 C-4 7.34 -4 6.68 -4 6 C-2.68 5.67 -1.36 5.34 0 5 C-0.99 5 -1.98 5 -3 5 C-5 5 -7 5 -9 5 C-6.06626269 3.04417512 -3.21783702 1.43775696 0 0 Z " fill="#C1302C" transform="translate(64,72)"/>
<path d="M0 0 C0.99 0.99 1.98 1.98 3 3 C2.01 3.495 2.01 3.495 1 4 C0.34786708 6.02463255 0.34786708 6.02463255 0 8 C-0.66 7.01 -1.32 6.02 -2 5 C-2.33 6.32 -2.66 7.64 -3 9 C-3.99 9 -4.98 9 -6 9 C-6 7.02 -6 5.04 -6 3 C-6.66 2.67 -7.32 2.34 -8 2 C-5.36 2.33 -2.72 2.66 0 3 C0 2.01 0 1.02 0 0 Z " fill="#D82D29" transform="translate(101,115)"/>
<path d="M0 0 C1.98 0.495 1.98 0.495 4 1 C4 4.96 4 8.92 4 13 C2.35 13 0.7 13 -1 13 C-0.34 12.01 0.32 11.02 1 10 C1.16699232 6.87478167 1.16699232 6.87478167 1 4 C0.34 3.67 -0.32 3.34 -1 3 C-0.67 2.01 -0.34 1.02 0 0 Z " fill="#B5352F" transform="translate(83,112)"/>
<path d="M0 0 C2.475 0.99 2.475 0.99 5 2 C5 2.99 5 3.98 5 5 C3.68 5 2.36 5 1 5 C1 9.95 1 14.9 1 20 C0.67 20 0.34 20 0 20 C-0.19522373 17.41703983 -0.38144403 14.83395921 -0.5625 12.25 C-0.61857422 11.52039063 -0.67464844 10.79078125 -0.73242188 10.0390625 C-0.97709908 6.45046349 -0.99666259 3.44972775 0 0 Z " fill="#BB312E" transform="translate(178,83)"/>
<path d="M0 0 C2.0625 0.4375 2.0625 0.4375 4 1 C4 1.66 4 2.32 4 3 C3.34 3 2.68 3 2 3 C1.34 5.64 0.68 8.28 0 11 C0.66 11 1.32 11 2 11 C2.66 10.01 3.32 9.02 4 8 C4 9.65 4 11.3 4 13 C2.35 13 0.7 13 -1 13 C-1.02686553 11.02090602 -1.04633375 9.04171029 -1.0625 7.0625 C-1.07410156 5.96035156 -1.08570313 4.85820313 -1.09765625 3.72265625 C-1 1 -1 1 0 0 Z " fill="#AD392D" transform="translate(182,112)"/>
<path d="M0 0 C0.66 0.33 1.32 0.66 2 1 C1.01 2.485 1.01 2.485 0 4 C1.32 4.66 2.64 5.32 4 6 C2.03533587 7.06775224 0.03144641 8.06553465 -2 9 C-2.66 8.67 -3.32 8.34 -4 8 C-3.34 7.01 -2.68 6.02 -2 5 C-3.65 5 -5.3 5 -7 5 C-4.702779 3.25728062 -2.40133271 1.60088848 0 0 Z " fill="#C0312D" transform="translate(62,94)"/>
<path d="M0 0 C-0.24609375 1.859375 -0.24609375 1.859375 -1 4 C-2.84765625 5.265625 -2.84765625 5.265625 -5.0625 6.25 C-6.16271484 6.75273438 -6.16271484 6.75273438 -7.28515625 7.265625 C-8.13400391 7.62914063 -8.13400391 7.62914063 -9 8 C-8.40279244 4.84143557 -8.08036011 4.07613063 -5.625 1.75 C-3 0 -3 0 0 0 Z " fill="#DA2D29" transform="translate(83,83)"/>
<path d="M0 0 C-4.48243367 2.98828911 -9.14250484 5.66840232 -14 8 C-14 7.34 -14 6.68 -14 6 C-13.34 6 -12.68 6 -12 6 C-12 4.68 -12 3.36 -12 2 C-7.82262526 0.40861915 -4.46839215 -0.21278058 0 0 Z " fill="#BF2E2B" transform="translate(69,63)"/>
<path d="M0 0 C1.62463842 -0.05395478 3.24978541 -0.09277195 4.875 -0.125 C5.77992187 -0.14820313 6.68484375 -0.17140625 7.6171875 -0.1953125 C10 0 10 0 12 2 C12.125 5.125 12.125 5.125 12 8 C11.34 7.34 10.68 6.68 10 6 C9.34 6 8.68 6 8 6 C8 4.35 8 2.7 8 1 C5.36 1.33 2.72 1.66 0 2 C0 1.34 0 0.68 0 0 Z " fill="#E7302C" transform="translate(63,61)"/>
<path d="M0 0 C1.25541557 3.76624671 0.37061958 5.37188934 -1 9 C-0.34 9 0.32 9 1 9 C1 9.66 1 10.32 1 11 C2.32 11.33 3.64 11.66 5 12 C4.01 12.495 4.01 12.495 3 13 C0.4375 11.9375 0.4375 11.9375 -2 10 C-3 7.0625 -3 7.0625 -3 4 C-1.5625 1.625 -1.5625 1.625 0 0 Z " fill="#B72C29" transform="translate(142,113)"/>
<path d="M0 0 C0.33 0 0.66 0 1 0 C1 3.3 1 6.6 1 10 C0.01 10.33 -0.98 10.66 -2 11 C-2 9.35 -2 7.7 -2 6 C-2.66 6 -3.32 6 -4 6 C-3.34 4.68 -2.68 3.36 -2 2 C-1.34 2.33 -0.68 2.66 0 3 C0 2.01 0 1.02 0 0 Z " fill="#CF241C" transform="translate(84,113)"/>
<path d="M0 0 C1.32 1.32 2.64 2.64 4 4 C3.34 5.98 2.68 7.96 2 10 C1.01 9.67 0.02 9.34 -1 9 C-0.67 6.03 -0.34 3.06 0 0 Z " fill="#D42B22" transform="translate(183,114)"/>
<path d="M0 0 C2.32590854 3.63423209 2.16265833 6.77088331 2 11 C1.34 11 0.68 11 0 11 C-1.125 3.375 -1.125 3.375 0 0 Z " fill="#D92C26" transform="translate(108,113)"/>
<path d="M0 0 C0.99 0 1.98 0 3 0 C3 2.64 3 5.28 3 8 C1.68 7.67 0.36 7.34 -1 7 C-0.67 4.69 -0.34 2.38 0 0 Z " fill="#E32926" transform="translate(148,115)"/>
<path d="M0 0 C0.66 0 1.32 0 2 0 C2.38133299 1.9914056 2.71325582 3.99279077 3 6 C2.67 6.33 2.34 6.66 2 7 C2.66 7.66 3.32 8.32 4 9 C2.35 8.67 0.7 8.34 -1 8 C-1 7.01 -1 6.02 -1 5 C-0.34 4.67 0.32 4.34 1 4 C0.67 2.68 0.34 1.36 0 0 Z " fill="#B22F28" transform="translate(195,120)"/>
<path d="M0 0 C0.66 0 1.32 0 2 0 C2 2.31 2 4.62 2 7 C1.01 7 0.02 7 -1 7 C-1.04254356 5.00045254 -1.04080783 2.99958364 -1 1 C-0.67 0.67 -0.34 0.34 0 0 Z " fill="#D82C28" transform="translate(89,117)"/>
<path d="M0 0 C0.99 0 1.98 0 3 0 C3 1.98 3 3.96 3 6 C1.68 6 0.36 6 -1 6 C-0.67 4.02 -0.34 2.04 0 0 Z " fill="#DE2B23" transform="translate(160,117)"/>
<path d="M0 0 C1.65 0 3.3 0 5 0 C5 0.66 5 1.32 5 2 C4.34 2 3.68 2 3 2 C2.67 3.32 2.34 4.64 2 6 C1.34 6 0.68 6 0 6 C0 4.02 0 2.04 0 0 Z " fill="#D82920" transform="translate(113,117)"/>
<path d="M0 0 C0.66 0.66 1.32 1.32 2 2 C1.01 2.33 0.02 2.66 -1 3 C-1 3.66 -1 4.32 -1 5 C-2.65 4.67 -4.3 4.34 -6 4 C-4.60804085 1.2160817 -2.84424221 1.02101003 0 0 Z " fill="#E5302D" transform="translate(67,94)"/>
<path d="M0 0 C0.66 0 1.32 0 2 0 C2 0.66 2 1.32 2 2 C3.65 1.67 5.3 1.34 7 1 C7 1.99 7 2.98 7 4 C3.25 5.125 3.25 5.125 1 4 C0.375 1.9375 0.375 1.9375 0 0 Z " fill="#B4352C" transform="translate(187,121)"/>
<path d="M0 0 C0.99 0.495 0.99 0.495 2 1 C2 1.66 2 2.32 2 3 C3.65 3.33 5.3 3.66 7 4 C5.02 4.99 5.02 4.99 3 6 C1.5 4.6875 1.5 4.6875 0 3 C0 2.01 0 1.02 0 0 Z " fill="#B8362E" transform="translate(99,120)"/>
<path d="M0 0 C0.99 0.33 1.98 0.66 3 1 C2.67 2.98 2.34 4.96 2 7 C1.67 6.01 1.34 5.02 1 4 C0.34 4 -0.32 4 -1 4 C-0.67 2.68 -0.34 1.36 0 0 Z " fill="#BF372D" transform="translate(201,115)"/>
<path d="M0 0 C0.99 0.33 1.98 0.66 3 1 C3 2.32 3 3.64 3 5 C1.68 4.67 0.36 4.34 -1 4 C-0.67 2.68 -0.34 1.36 0 0 Z " fill="#E83023" transform="translate(187,97)"/>
<path d="M0 0 C1.98 0.66 3.96 1.32 6 2 C5.67 2.99 5.34 3.98 5 5 C3.68 4.67 2.36 4.34 1 4 C0.67 2.68 0.34 1.36 0 0 Z " fill="#E12C25" transform="translate(51,64)"/>
<path d="M0 0 C6.0546875 -0.1953125 6.0546875 -0.1953125 8 0 C8.66 0.66 9.32 1.32 10 2 C4.58461538 3.23076923 4.58461538 3.23076923 1.625 2.0625 C1.08875 1.711875 0.5525 1.36125 0 1 C0 0.67 0 0.34 0 0 Z " fill="#A02320" transform="translate(221,62)"/>
</svg>
