<?xml version="1.0" encoding="UTF-8"?>
<svg version="1.1" xmlns="http://www.w3.org/2000/svg" width="500" height="500">
<path d="M0 0 C0.99451172 -0.07089844 1.98902344 -0.14179688 3.01367188 -0.21484375 C10.23582817 -0.39743985 10.23582817 -0.39743985 13.35791016 2.56738281 C15.72450215 5.9986978 17.3125 8.39950218 17.3125 12.625 C17.9725 12.625 18.6325 12.625 19.3125 12.625 C20.70370928 14.60039672 21.95806017 16.55182695 23.1875 18.625 C23.54900146 19.22296387 23.91050293 19.82092773 24.28295898 20.43701172 C26.47176405 24.09441842 28.44292214 27.7926365 30.2734375 31.63671875 C31.53634008 34.05332556 33.00327842 36.28324591 34.5 38.5625 C40.10144775 47.1950342 44.71432045 56.4286409 49.3125 65.625 C49.6425 44.175 49.9725 22.725 50.3125 0.625 C57.5725 0.625 64.8325 0.625 72.3125 0.625 C73.3125 1.625 73.3125 1.625 73.43554783 3.37225437 C73.43462604 4.13826434 73.43370424 4.90427431 73.43275452 5.6934967 C73.43481651 7.00816673 73.43481651 7.00816673 73.43692017 8.34939575 C73.43152725 9.80271805 73.43152725 9.80271805 73.42602539 11.28540039 C73.42617142 12.29991776 73.42631744 13.31443512 73.4264679 14.35969543 C73.42576829 17.73070373 73.41797368 21.10165754 73.41015625 24.47265625 C73.40829224 26.80293243 73.40686826 29.133209 73.40586853 31.46348572 C73.40204202 37.61037265 73.3922106 43.75723613 73.38116455 49.90411377 C73.37095329 56.17109866 73.36637152 62.43808732 73.36132812 68.70507812 C73.35058845 81.01172908 73.33351044 93.31836259 73.3125 105.625 C65.6262555 108.1870815 55.89680813 108.64191592 48.3125 105.625 C42.97771753 100.73781267 40.30111625 93.75785663 37.47949219 87.22851562 C35.94332365 83.80138146 34.0931816 80.78383804 32.0625 77.625 C31.43859375 76.62082031 30.8146875 75.61664063 30.171875 74.58203125 C28.89700885 72.55456555 27.61540324 70.53132654 26.328125 68.51171875 C22.56481913 62.53856467 19.17864595 56.5377847 16.0625 50.20703125 C15.69898438 49.47407837 15.33546875 48.74112549 14.9609375 47.98596191 C14.07569028 46.20017948 13.19374681 44.41275994 12.3125 42.625 C12.31472061 43.38477142 12.31694122 44.14454285 12.31922913 44.92733765 C12.33924549 52.07876031 12.35448102 59.23016944 12.36431217 66.38161278 C12.36953632 70.05845711 12.3766255 73.73527834 12.38793945 77.41210938 C12.39878493 80.9587896 12.40478037 84.50544757 12.40737724 88.0521431 C12.40922849 89.40696183 12.41284338 90.76177931 12.41823006 92.11658859 C12.42546238 94.01049365 12.42590824 95.90442098 12.42602539 97.79833984 C12.428246 98.87755707 12.43046661 99.95677429 12.43275452 101.06869507 C12.3125 103.625 12.3125 103.625 11.3125 105.625 C3.7225 105.625 -3.8675 105.625 -11.6875 105.625 C-11.71004853 92.08235525 -11.72841364 78.53972287 -11.73931217 64.99706364 C-11.74454162 58.70937976 -11.75164039 52.42170934 -11.76293945 46.1340332 C-11.77376614 40.07162277 -11.77977637 34.00922531 -11.78237724 27.94680595 C-11.78423189 25.62823723 -11.78785325 23.30966926 -11.79323006 20.99110603 C-11.80043758 17.75585492 -11.80149106 14.52065817 -11.80102539 11.28540039 C-11.80462067 10.31651886 -11.80821594 9.34763733 -11.81192017 8.34939575 C-11.8105455 7.47294907 -11.80917084 6.59650238 -11.80775452 5.6934967 C-11.80867631 4.92748673 -11.8095981 4.16147676 -11.81054783 3.37225437 C-11.47112369 -1.44750005 -3.61854822 0.1150206 0 0 Z M10.3125 38.625 C11.3125 41.625 11.3125 41.625 11.3125 41.625 Z " fill="#0E50A5" transform="translate(387.6875,196.375)"/>
<path d="M0 0 C11.99624044 8.08271282 19.84245878 18.92189258 23.6875 32.828125 C27.13876057 52.28939989 24.84901692 70.53914495 14.75 87.4375 C13.12109375 89.39453125 13.12109375 89.39453125 11.75 90.4375 C11.09 90.4375 10.43 90.4375 9.75 90.4375 C9.48703125 91.03691406 9.2240625 91.63632812 8.953125 92.25390625 C5.21992452 99.02942271 -3.08411866 102.19591074 -10.0625 104.51953125 C-21.58123939 107.44148153 -35.70790987 107.1246802 -46.25 101.4375 C-47.673125 100.67953125 -47.673125 100.67953125 -49.125 99.90625 C-54.01035017 97.1378849 -54.01035017 97.1378849 -56.25 95.4375 C-56.25 94.7775 -56.25 94.1175 -56.25 93.4375 C-56.91 93.4375 -57.57 93.4375 -58.25 93.4375 C-65.90276622 85.96270509 -72.64760865 73.8246921 -73.5246582 63.06933594 C-73.57455037 56.10308445 -73.57455037 56.10308445 -73.56567383 53.28955078 C-73.56252917 51.20681632 -73.58595511 49.12552655 -73.61132812 47.04296875 C-73.6893242 30.9564289 -68.78652822 18.97307677 -57.984375 7.01953125 C-56.25 5.4375 -56.25 5.4375 -54.25 5.4375 C-54.25 4.7775 -54.25 4.1175 -54.25 3.4375 C-52.06623234 2.30472732 -49.87842872 1.18127211 -47.6875 0.0625 C-47.07841797 -0.25460938 -46.46933594 -0.57171875 -45.84179688 -0.8984375 C-31.7971793 -8.03221151 -13.90200681 -7.66782563 0 0 Z M-39.25 19.4375 C-39.58 20.4275 -39.91 21.4175 -40.25 22.4375 C-40.91 22.4375 -41.57 22.4375 -42.25 22.4375 C-50.89652594 32.65352735 -51.15050368 45.4396983 -50.46142578 58.15429688 C-50.00725848 63.05888417 -48.5670624 67.12921209 -46.25 71.4375 C-45.8375 72.25605469 -45.425 73.07460938 -45 73.91796875 C-41.45005581 80.10011588 -37.08109942 83.39013879 -30.25 85.4375 C-22.69560774 86.62917878 -16.86993243 85.09889472 -10.25 81.4375 C-10.25 80.7775 -10.25 80.1175 -10.25 79.4375 C-9.26 79.1075 -8.27 78.7775 -7.25 78.4375 C0.54989076 69.63762324 2.43273914 58.55652269 2.06640625 47.08203125 C1.11950936 36.17518189 -1.93009068 26.85455394 -10.375 19.5 C-19.09963633 13.24102177 -30.36182459 13.33777178 -39.25 19.4375 Z " fill="#0D4FA4" transform="translate(345.25,199.5625)"/>
<path d="M0 0 C5.57482035 5.15777272 9.81068421 11.39333444 11 19 C11 21.64 11 24.28 11 27 C3.41 27 -4.18 27 -12 27 C-13.32 23.7 -14.64 20.4 -16 17 C-20.43905646 12.21049172 -24.66729578 12.11108115 -30.9375 11.8125 C-35.94990585 11.89875555 -40.21604041 12.81069361 -44.4375 15.625 C-46.83484934 19.26897099 -46.4802416 21.67782556 -46 26 C-43.68131368 29.27297559 -40.68545769 29.92787861 -36.9375 31 C-35.76960938 31.33902344 -34.60171875 31.67804688 -33.3984375 32.02734375 C-31.71621094 32.50880859 -31.71621094 32.50880859 -30 33 C-28.35381393 33.51971736 -26.70794474 34.04044029 -25.0625 34.5625 C-21.07883274 35.78027145 -17.09431202 36.55282183 -13 37.3125 C-2.10147227 39.61750315 5.53177062 44.92586525 12 54 C15.7343832 60.45029826 15.92508341 67.45502497 14.4609375 74.6484375 C11.91554508 83.96289549 6.89896335 90.4684493 -1 96 C-15.28378051 102.79064975 -32.01125991 104.80037696 -47.375 100.3125 C-54.82072703 97.55194324 -60.66113185 93.91604309 -66 88 C-66.86625 87.071875 -67.7325 86.14375 -68.625 85.1875 C-73.37851899 78.80777715 -74.93817727 71.92876529 -75 64 C-74 63 -74 63 -71.77514648 62.88647461 C-70.33764038 62.89432983 -70.33764038 62.89432983 -68.87109375 62.90234375 C-67.31938477 62.90717773 -67.31938477 62.90717773 -65.73632812 62.91210938 C-64.64771484 62.92048828 -63.55910156 62.92886719 -62.4375 62.9375 C-60.7987793 62.94426758 -60.7987793 62.94426758 -59.12695312 62.95117188 C-56.41791505 62.96300174 -53.70898401 62.97948457 -51 63 C-50.52799479 64.98771159 -50.05598958 66.97542318 -49.58398438 68.96313477 C-48.81471658 71.64624563 -47.6368382 73.74934747 -46 76 C-45.34 76.33 -44.68 76.66 -44 77 C-44 77.66 -44 78.32 -44 79 C-38.7049561 80.74875792 -34.06176519 81.33737373 -28.5 81.3125 C-27.77941406 81.32861328 -27.05882812 81.34472656 -26.31640625 81.36132812 C-20.46957111 81.36661459 -15.53961071 80.29384193 -11.0625 76.25 C-9.48870179 72.91725085 -9.48938511 70.63813107 -10 67 C-13.70897954 61.683796 -19.10958665 60.05257515 -25 58 C-26.485 57.443125 -26.485 57.443125 -28 56.875 C-30.49500283 56.14729084 -32.82270389 55.68244884 -35.375 55.25 C-46.33506628 53.10780523 -57.41229811 49.51107302 -65 41 C-66.175625 39.7315625 -66.175625 39.7315625 -67.375 38.4375 C-71.75680103 31.86479846 -71.72430986 24.6281747 -71 17 C-68.83896476 8.51114302 -62.32292342 0.66004218 -55 -4 C-36.88889142 -11.87071541 -16.62752045 -10.95032331 0 0 Z " fill="#0D50A5" transform="translate(255,203)"/>
<path d="M0 0 C25.74 0 51.48 0 78 0 C79.46463311 2.92926622 79.13182708 5.55256781 79.125 8.8125 C79.12886719 10.64748047 79.12886719 10.64748047 79.1328125 12.51953125 C79 16 79 16 78 21 C59.85 21 41.7 21 23 21 C23.33 23.64 23.66 26.28 24 29 C24 32.96 24 36.92 24 41 C40.83 41.33 57.66 41.66 75 42 C75 48.27 75 54.54 75 61 C57.84 61 40.68 61 23 61 C23.33 62.65 23.66 64.3 24 66 C23.67 72.27 23.34 78.54 23 85 C41.48 84.67 59.96 84.34 79 84 C79 90.93 79 97.86 79 105 C75.92926022 106.02357993 73.83668169 106.1267553 70.62084961 106.12939453 C69.51797104 106.13254669 68.41509247 106.13569885 67.27879333 106.13894653 C66.08206497 106.1369223 64.88533661 106.13489807 63.65234375 106.1328125 C62.41190811 106.13376923 61.17147247 106.13472595 59.89344788 106.13571167 C57.25632281 106.13639345 54.61928971 106.13504127 51.98217773 106.13037109 C48.00567512 106.12366111 44.02923789 106.13028067 40.05273438 106.13671875 C26.66861364 106.13987471 13.35058132 105.99194469 0 105 C-1.30037303 86.00981442 -1.15403183 66.9972588 -1.13037109 47.97363281 C-1.12459856 43.2629373 -1.12801393 38.55229783 -1.13394356 33.84160423 C-1.13754722 30.1922869 -1.13641279 26.54298304 -1.13381577 22.89366531 C-1.13314985 21.15450661 -1.13396317 19.41534669 -1.13629532 17.67618942 C-1.13882676 15.2650498 -1.13497775 12.85400371 -1.12939453 10.44287109 C-1.13141876 9.72923904 -1.13344299 9.01560699 -1.13552856 8.28034973 C-1.1224389 5.23833476 -0.97039817 2.9111945 0 0 Z " fill="#1052A5" transform="translate(8,197)"/>
<path d="M0 0 C6.75855155 -0.07667264 13.51698908 -0.12885867 20.27587891 -0.16479492 C22.5705179 -0.17979151 24.86512867 -0.20019551 27.15966797 -0.22631836 C30.47630825 -0.2631058 33.79256642 -0.2798182 37.109375 -0.29296875 C38.11925476 -0.30845261 39.12913452 -0.32393646 40.1696167 -0.33988953 C52.6692407 -0.34277933 63.61118796 3.07412531 74 10 C74 10.66 74 11.32 74 12 C74.5775 12.226875 75.155 12.45375 75.75 12.6875 C81.14779959 15.83621643 83.2978795 21.07153407 85.234375 26.7734375 C87.62136283 36.8328862 86.69261234 46.79034924 82 56 C79.875 59.1875 79.875 59.1875 78 61 C77.34 61 76.68 61 76 61 C76 61.66 76 62.32 76 63 C67.00990153 71.52272332 55.16304276 74.94173393 43 75 C41.52733857 75.02574701 40.05468266 75.05181087 38.58203125 75.078125 C26.66214024 75.22071341 26.66214024 75.22071341 23 74 C23 84.23 23 94.46 23 105 C19.225625 105.020625 15.45125 105.04125 11.5625 105.0625 C10.37084229 105.071604 9.17918457 105.08070801 7.95141602 105.09008789 C6.55427368 105.09383423 6.55427368 105.09383423 5.12890625 105.09765625 C4.17056885 105.10289307 3.21223145 105.10812988 2.22485352 105.11352539 C0 105 0 105 -1 104 C-1.10069965 100.84451429 -1.13614014 97.71087201 -1.12939453 94.55493164 C-1.13114685 93.563134 -1.13289917 92.57133636 -1.13470459 91.54948425 C-1.13912553 88.25302407 -1.13618404 84.95661703 -1.1328125 81.66015625 C-1.13348552 79.37951141 -1.13445553 77.09886664 -1.13571167 74.81822205 C-1.13718901 70.03058186 -1.13503311 65.24296029 -1.13037109 60.45532227 C-1.12467701 54.30683184 -1.12795056 48.15838509 -1.13394356 42.00989628 C-1.13755093 37.29772104 -1.13640971 32.58555621 -1.13381577 27.87338066 C-1.13314682 25.60588005 -1.1339738 23.3383785 -1.13629532 21.07087898 C-1.13882436 17.90538135 -1.13497749 14.73995518 -1.12939453 11.57446289 C-1.13141876 10.62944916 -1.13344299 9.68443542 -1.13552856 8.71078491 C-1.13270874 7.85123703 -1.12988892 6.99168915 -1.12698364 6.10609436 C-1.12660662 5.35705369 -1.12622959 4.60801302 -1.12584114 3.83627415 C-1 2 -1 2 0 0 Z M23 21 C23 31.89 23 42.78 23 54 C28.94 54.0928125 28.94 54.0928125 35 54.1875 C36.84851563 54.22846802 36.84851563 54.22846802 38.734375 54.27026367 C48.89020282 54.37751783 48.89020282 54.37751783 57.55053711 49.54736328 C61.8699409 44.53378317 62.35311326 41.20212717 62.27734375 34.76171875 C61.8860997 30.86580964 60.64496521 28.85377825 58 26 C52.58156583 21.82329033 48.85959082 20.86806331 42.140625 20.90234375 C41.13547852 20.90484131 40.13033203 20.90733887 39.09472656 20.90991211 C37.19158691 20.92356812 37.19158691 20.92356812 35.25 20.9375 C29.18625 20.9684375 29.18625 20.9684375 23 21 Z " fill="#0F51A6" transform="translate(94,197)"/>
<path d="M0 0 C3.62531608 1.8741654 5.69121639 4.07364917 7 8 C7.39308695 12.79566077 7.48270142 15.06907584 5.25 19.375 C2.59187085 22.47615068 1.19300276 23.79157412 -2.890625 24.1796875 C-6.74913492 24.3083045 -9.68734987 24.20843342 -13 22 C-13 21.34 -13 20.68 -13 20 C-13.66 20 -14.32 20 -15 20 C-17.42889662 15.68846464 -17.85027068 11.86590548 -17 7 C-13.02714657 -0.11864443 -7.60824315 -1.06026053 0 0 Z M-6 2 C-6.99 2.66 -7.98 3.32 -9 4 C-7.35 4 -5.7 4 -4 4 C-4.66 3.34 -5.32 2.68 -6 2 Z M-12 5 C-14.45811625 8.68717438 -14.31118164 10.64345704 -14 15 C-13.01 16.485 -13.01 16.485 -12 18 C-11.34 17.67 -10.68 17.34 -10 17 C-10.33 16.34 -10.66 15.68 -11 15 C-11.06996014 13.29297265 -11.08440154 11.58331997 -11.0625 9.875 C-11.05347656 8.96492187 -11.04445313 8.05484375 -11.03515625 7.1171875 C-11.02355469 6.41851562 -11.01195312 5.71984375 -11 5 C-11.33 5 -11.66 5 -12 5 Z M0 5 C0.66 8.3 1.32 11.6 2 15 C2.66 15 3.32 15 4 15 C4.80469849 13.29887008 4.80469849 13.29887008 5 11 C3.64185993 7.78287055 3.64185993 7.78287055 2 5 C1.34 5 0.68 5 0 5 Z M-6 8 C-6 8.66 -6 9.32 -6 10 C-5.34 9.67 -4.68 9.34 -4 9 C-4.66 8.67 -5.32 8.34 -6 8 Z M0 12 C1 16 1 16 1 16 Z M-7 16 C-7 16.99 -7 17.98 -7 19 C-7.99 19.33 -8.98 19.66 -10 20 C-8.82963695 21.39287806 -8.82963695 21.39287806 -5.5625 21.1875 C-1.94967279 21.39564928 -1.94967279 21.39564928 0 19 C-1.32 18.67 -2.64 18.34 -4 18 C-4 17.34 -4 16.68 -4 16 C-4.99 16 -5.98 16 -7 16 Z " fill="#6183B0" transform="translate(485,197)"/>
<path d="M0 0 C4.29686609 -0.42968661 7.01214548 -0.41369759 10.375 2.3125 C12.98541658 4.98506935 13.92029296 6.33252868 14.09765625 10.04296875 C14.06510417 12.02864583 14.03255208 14.01432292 14 16 C13.01 16 12.02 16 11 16 C10.77213542 13.94921875 10.54427083 11.8984375 10.31640625 9.84765625 C10.18113386 7.98859771 10.18113386 7.98859771 9 7 C9 9.64 9 12.28 9 15 C8.67 14.01 8.34 13.02 8 12 C7.01 12 6.02 12 5 12 C5 11.34 5 10.68 5 10 C4.01 9.67 3.02 9.34 2 9 C2 8.34 2 7.68 2 7 C0.02 7.99 0.02 7.99 -2 9 C-1.34 9 -0.68 9 0 9 C0 9.66 0 10.32 0 11 C1.32 11 2.64 11 4 11 C4.33 11.99 4.66 12.98 5 14 C3.35 14.33 1.7 14.66 0 15 C0 15.99 0 16.98 0 18 C-0.66 18 -1.32 18 -2 18 C-3.04976964 14.85069107 -3.10131595 12.61185544 -3.0625 9.3125 C-3.05347656 8.31863281 -3.04445313 7.32476562 -3.03515625 6.30078125 C-3.02355469 5.54152344 -3.01195312 4.78226563 -3 4 C-1.35 3.67 0.3 3.34 2 3 C1.34 2.67 0.68 2.34 0 2 C0 1.34 0 0.68 0 0 Z " fill="#5C7CAE" transform="translate(478,197)"/>
<path d="M0 0 C8.25 0 16.5 0 25 0 C25 0.33 25 0.66 25 1 C17.08 1 9.16 1 1 1 C1.33 3.31 1.66 5.62 2 8 C2.01450686 10.12403194 1.97391918 12.24913836 1.87890625 14.37109375 C1.83580322 15.40935303 1.7927002 16.4476123 1.74829102 17.51733398 C1.68697998 18.81098877 1.62566895 20.10464355 1.5625 21.4375 C1.376875 25.583125 1.19125 29.72875 1 34 C10.57 33.67 20.14 33.34 30 33 C30 33.66 30 34.32 30 35 C27.18175808 36.40912096 24.82748718 36.11183553 21.6796875 36.09765625 C20.42285156 36.09443359 19.16601562 36.09121094 17.87109375 36.08789062 C16.55238281 36.07951172 15.23367187 36.07113281 13.875 36.0625 C12.53515789 36.05748489 11.195314 36.05292201 9.85546875 36.04882812 C6.57026794 36.03701086 3.28515603 36.02053617 0 36 C-1.50302481 32.99395038 -1.12994577 30.22334028 -1.1328125 26.875 C-1.13376923 26.1722998 -1.13472595 25.46959961 -1.13571167 24.74560547 C-1.13639238 23.25943919 -1.1345457 21.77326994 -1.13037109 20.28710938 C-1.12502125 18.00904681 -1.13031972 15.73118141 -1.13671875 13.453125 C-1.13605795 12.01041623 -1.13477675 10.56770758 -1.1328125 9.125 C-1.13168457 7.80757812 -1.13055664 6.49015625 -1.12939453 5.1328125 C-1 2 -1 2 0 0 Z " fill="#507AB3" transform="translate(116,217)"/>
<path d="M0 0 C0.91644287 0.00523682 1.83288574 0.01047363 2.77709961 0.01586914 C3.76645508 0.0190918 4.75581055 0.02231445 5.77514648 0.02563477 C6.81606445 0.03401367 7.85698242 0.04239258 8.92944336 0.05102539 C10.49662109 0.05779297 10.49662109 0.05779297 12.09545898 0.06469727 C14.68600996 0.07652627 17.27644895 0.0930085 19.86694336 0.11352539 C19.86694336 0.44352539 19.86694336 0.77352539 19.86694336 1.11352539 C9.47194336 2.10352539 9.47194336 2.10352539 -1.13305664 3.11352539 C-1.46305664 36.77352539 -1.79305664 70.43352539 -2.13305664 105.11352539 C-2.46305664 105.11352539 -2.79305664 105.11352539 -3.13305664 105.11352539 C-3.15617724 91.57088361 -3.17397028 78.02824649 -3.18486881 64.48558903 C-3.19009826 58.19790515 -3.19719703 51.91023473 -3.20849609 45.62255859 C-3.21932278 39.56014816 -3.22533301 33.4977507 -3.22793388 27.43533134 C-3.22978853 25.11676262 -3.23340989 22.79819465 -3.2387867 20.47963142 C-3.24599422 17.24438031 -3.2470477 14.00918356 -3.24658203 10.77392578 C-3.25017731 9.80504425 -3.25377258 8.83616272 -3.25747681 7.83792114 C-3.25610214 6.96147446 -3.25472748 6.08502777 -3.25331116 5.18202209 C-3.25423295 4.41601213 -3.25515474 3.65000216 -3.25610447 2.86077976 C-3.07094599 0.23156665 -2.62120703 0.1395057 0 0 Z " fill="#4F7AB4" transform="translate(379.133056640625,196.886474609375)"/>
<path d="M0 0 C0.66 0 1.32 0 2 0 C2 0.66 2 1.32 2 2 C2.68707031 2.04898437 3.37414062 2.09796875 4.08203125 2.1484375 C4.98308594 2.22320312 5.88414062 2.29796875 6.8125 2.375 C7.70582031 2.44460938 8.59914062 2.51421875 9.51953125 2.5859375 C12 3 12 3 15 5 C17.51502177 5.36696181 17.51502177 5.36696181 20.32421875 5.4140625 C21.35224609 5.45273437 22.38027344 5.49140625 23.43945312 5.53125 C24.51130859 5.5621875 25.58316406 5.593125 26.6875 5.625 C27.77095703 5.66367187 28.85441406 5.70234375 29.97070312 5.7421875 C32.64696467 5.83650509 35.32321843 5.92210005 38 6 C38 5.34 38 4.68 38 4 C39.56116819 3.66048381 41.12401338 3.32867456 42.6875 3 C43.55761719 2.814375 44.42773438 2.62875 45.32421875 2.4375 C47.93712964 2.01027953 50.35813038 1.92383799 53 2 C46.58727522 8.41272478 35.52133599 8.44288261 27 8.5 C16.96100744 8.42429501 7.06311747 7.60569953 -1 1 C-0.67 0.67 -0.34 0.34 0 0 Z " fill="#4471AC" transform="translate(199,297)"/>
<path d="M0 0 C0 6.93 0 13.86 0 21 C-2.83429319 21.9447644 -4.57649549 22.12647915 -7.51220703 22.12939453 C-8.87975632 22.13412277 -8.87975632 22.13412277 -10.27493286 22.13894653 C-11.25928314 22.1369223 -12.24363342 22.13489807 -13.2578125 22.1328125 C-14.27543671 22.13376923 -15.29306091 22.13472595 -16.34152222 22.13571167 C-18.49851544 22.13639269 -20.65551071 22.13454384 -22.8125 22.13037109 C-26.09119368 22.12505482 -29.36974828 22.13030156 -32.6484375 22.13671875 C-34.74739613 22.13605731 -36.84635468 22.13477478 -38.9453125 22.1328125 C-40.40361984 22.13584885 -40.40361984 22.13584885 -41.89138794 22.13894653 C-47.67275005 22.11936397 -53.26509991 21.7402954 -59 21 C-59 20.67 -59 20.34 -59 20 C-58.3426738 19.98969254 -57.6853476 19.97938507 -57.00810242 19.96876526 C-50.17888335 19.86075129 -43.34979759 19.74614903 -36.52075195 19.62768555 C-33.97065006 19.58432033 -31.42051884 19.54264644 -28.87036133 19.50268555 C-25.20905711 19.44502161 -21.54790078 19.38131575 -17.88671875 19.31640625 C-16.7428923 19.29969376 -15.59906586 19.28298126 -14.420578 19.26576233 C-13.35970474 19.24581711 -12.29883148 19.22587189 -11.20581055 19.20532227 C-9.80349434 19.18200584 -9.80349434 19.18200584 -8.37284851 19.15821838 C-5.85013487 19.09027292 -5.85013487 19.09027292 -3 18 C-3.20625 17.21625 -3.4125 16.4325 -3.625 15.625 C-4.12252501 10.81559157 -3.11607929 6.66724068 -2 2 C-4.31 2 -6.62 2 -9 2 C-9 1.67 -9 1.34 -9 1 C-2.25 0 -2.25 0 0 0 Z " fill="#255498" transform="translate(87,281)"/>
<path d="M0 0 C7.26 0 14.52 0 22 0 C22 0.33 22 0.66 22 1 C15.07 1 8.14 1 1 1 C1.33 23.44 1.66 45.88 2 69 C0.68 69 -0.64 69 -2 69 C-1.75885216 68.20864655 -1.75885216 68.20864655 -1.51283264 67.40130615 C-0.87676478 64.42295895 -0.83600802 61.62573384 -0.79467773 58.57910156 C-0.7647599 56.62753143 -0.7647599 56.62753143 -0.73423767 54.63653564 C-0.71725582 53.2212333 -0.70037693 51.80592972 -0.68359375 50.390625 C-0.66301245 48.93902001 -0.64201567 47.48742086 -0.62062073 46.03582764 C-0.56552149 42.22187028 -0.51605885 38.40785993 -0.46777344 34.59381104 C-0.41746951 30.69921166 -0.36182993 26.80468891 -0.30664062 22.91015625 C-0.1992077 15.27350067 -0.09822327 7.6367806 0 0 Z " fill="#6086B7" transform="translate(438,197)"/>
<path d="M0 0 C0 0.33 0 0.66 0 1 C-0.63389648 0.98952637 -1.26779297 0.97905273 -1.92089844 0.96826172 C-18.57841025 0.58845757 -18.57841025 0.58845757 -35 3 C-35.33 3.99 -35.66 4.98 -36 6 C-38.39763185 8.39763185 -39.33273498 8.34280586 -42.625 8.625 C-43.44226563 8.69976562 -44.25953125 8.77453125 -45.1015625 8.8515625 C-45.72804687 8.90054688 -46.35453125 8.94953125 -47 9 C-41.88542341 2.60677926 -34.25514733 -0.0295278 -26.4375 -1.8125 C-17.32290227 -2.30965988 -8.97707085 -1.75468052 0 0 Z " fill="#5680B8" transform="translate(241,196)"/>
<path d="M0 0 C0.66 0 1.32 0 2 0 C2 0.66 2 1.32 2 2 C2.9075 1.979375 3.815 1.95875 4.75 1.9375 C7.42672588 1.9889755 9.46988052 2.2215017 12 3 C12 5.64 12 8.28 12 11 C11.67 10.01 11.34 9.02 11 8 C10.01 8 9.02 8 8 8 C8 7.34 8 6.68 8 6 C7.01 5.67 6.02 5.34 5 5 C5 4.34 5 3.68 5 3 C3.02 3.99 3.02 3.99 1 5 C1.66 5 2.32 5 3 5 C3 5.66 3 6.32 3 7 C4.32 7 5.64 7 7 7 C7.33 7.99 7.66 8.98 8 10 C6.35 10.33 4.7 10.66 3 11 C3 11.99 3 12.98 3 14 C2.34 14 1.68 14 1 14 C-0.04976964 10.85069107 -0.10131595 8.61185544 -0.0625 5.3125 C-0.05347656 4.31863281 -0.04445313 3.32476562 -0.03515625 2.30078125 C-0.02355469 1.54152344 -0.01195312 0.78226563 0 0 Z " fill="#124A97" transform="translate(475,201)"/>
<path d="M0 0 C0.33 0 0.66 0 1 0 C3.70379967 14.3156536 3.46748467 27.70180759 1 42 C0.67 42 0.34 42 0 42 C0 28.14 0 14.28 0 0 Z " fill="#517BB2" transform="translate(367,229)"/>
<path d="M0 0 C-6.73433592 6.73433592 -20.0885243 5.09416617 -29 5.1875 C-30.09501831 5.20707764 -30.09501831 5.20707764 -31.2121582 5.22705078 C-34.97125968 5.23316811 -37.81240119 5.10016276 -41 3 C-37.21408048 2.13404596 -33.62539482 1.82761015 -29.74609375 1.71875 C-27.97008789 1.66267578 -27.97008789 1.66267578 -26.15820312 1.60546875 C-23.67383126 1.53504561 -21.18945624 1.46473346 -18.70507812 1.39453125 C-17.52236328 1.35714844 -16.33964844 1.31976563 -15.12109375 1.28125 C-14.0427124 1.25095703 -12.96433105 1.22066406 -11.85327148 1.18945312 C-7.76303182 0.91786709 -4.14576743 -0.11516021 0 0 Z " fill="#3B69A7" transform="translate(157,267)"/>
<path d="M0 0 C1.32 0.33 2.64 0.66 4 1 C3.67 1.66 3.34 2.32 3 3 C4.65 2.67 6.3 2.34 8 2 C7.67 2.99 7.34 3.98 7 5 C7.66 5 8.32 5 9 5 C9.33 5.99 9.66 6.98 10 8 C11.32303717 8.3721042 12.65737935 8.70630173 14 9 C14.33 9.66 14.66 10.32 15 11 C13.35 12.65 11.7 14.3 10 16 C9.01 15.67 8.02 15.34 7 15 C7 14.01 7 13.02 7 12 C6.34 11.67 5.68 11.34 5 11 C5 10.34 5 9.68 5 9 C4.01 8.67 3.02 8.34 2 8 C3.32 7.34 4.64 6.68 6 6 C6 5.34 6 4.68 6 4 C4.68 4 3.36 4 2 4 C2 3.34 2 2.68 2 2 C1.34 2 0.68 2 0 2 C0 1.34 0 0.68 0 0 Z " fill="#5584B7" transform="translate(476,204)"/>
<path d="M0 0 C1.20527344 -0.01417969 2.41054688 -0.02835938 3.65234375 -0.04296875 C6.92269062 0.17805126 9.13066515 0.77999674 12.0625 2.1875 C12.0625 2.5175 12.0625 2.8475 12.0625 3.1875 C10.64710938 3.13529297 10.64710938 3.13529297 9.203125 3.08203125 C0.22251108 2.89268096 -8.69927406 3.06838703 -16.9375 7.1875 C-19.0625 6.25 -19.0625 6.25 -20.9375 5.1875 C-19.35550369 4.53839846 -17.77184276 3.89335306 -16.1875 3.25 C-15.30578125 2.89035156 -14.4240625 2.53070313 -13.515625 2.16015625 C-8.86652709 0.4061784 -5.00061931 0.0266842 0 0 Z " fill="#3E6EAB" transform="translate(318.9375,193.8125)"/>
<path d="M0 0 C1.32 0 2.64 0 4 0 C3.814375 0.61875 3.62875 1.2375 3.4375 1.875 C2.76313824 4.04160178 2.76313824 4.04160178 4 6 C4.99 5.67 5.98 5.34 7 5 C7.33 7.31 7.66 9.62 8 12 C4.88097199 11.39675942 2.97171103 10.38286953 0.4375 8.5 C-4.44030599 5.30038057 -9.28562355 5.11554805 -15 5 C-15 4.67 -15 4.34 -15 4 C-10.38 3.67 -5.76 3.34 -1 3 C-0.67 2.01 -0.34 1.02 0 0 Z " fill="#2F64A8" transform="translate(332,210)"/>
<path d="M0 0 C0.66 0.99 1.32 1.98 2 3 C1.34 3 0.68 3 0 3 C0 3.99 0 4.98 0 6 C-1.32 6.33 -2.64 6.66 -4 7 C-3.67 10.3 -3.34 13.6 -3 17 C-3.66 17.33 -4.32 17.66 -5 18 C-5.33 17.34 -5.66 16.68 -6 16 C-6.66 16 -7.32 16 -8 16 C-7.79375 17.2375 -7.5875 18.475 -7.375 19.75 C-6.79946687 23.20319878 -7.21810308 24.98029681 -9 28 C-9.56800386 17.79170842 -8.81340971 10.47814438 -2.25 2.4375 C-1.5075 1.633125 -0.765 0.82875 0 0 Z " fill="#477BB6" transform="translate(193,205)"/>
<path d="M0 0 C0.66 0 1.32 0 2 0 C4.72619712 5.45239425 3.56838527 14.51441883 2.24609375 20.296875 C0.54205198 25.24193738 -1.09793376 28.43403611 -5 32 C-5 30.35 -5 28.7 -5 27 C-4.01 27 -3.02 27 -2 27 C-2.04125 26.0925 -2.0825 25.185 -2.125 24.25 C-2 21 -2 21 -1 19.34375 C0.54801849 15.71558167 0.20902408 12.14742448 0.125 8.25 C0.11146484 7.06083984 0.11146484 7.06083984 0.09765625 5.84765625 C0.07417012 3.89830719 0.03830137 1.94911425 0 0 Z " fill="#4D79AC" transform="translate(177,225)"/>
<path d="M0 0 C9.9 0 19.8 0 30 0 C30 0.66 30 1.32 30 2 C27.18175808 3.40912096 24.82748718 3.11183553 21.6796875 3.09765625 C20.42285156 3.09443359 19.16601562 3.09121094 17.87109375 3.08789062 C16.55238281 3.07951172 15.23367187 3.07113281 13.875 3.0625 C12.53515789 3.05748489 11.195314 3.05292201 9.85546875 3.04882812 C6.57026794 3.03701086 3.28515603 3.02053617 0 3 C0 2.01 0 1.02 0 0 Z " fill="#3965A2" transform="translate(116,250)"/>
<path d="M0 0 C0 0.99 0 1.98 0 3 C-2.91705776 4.66123408 -5.02213674 5.25546014 -8.37109375 5.265625 C-9.19287109 5.26820313 -10.01464844 5.27078125 -10.86132812 5.2734375 C-11.71146484 5.26570313 -12.56160156 5.25796875 -13.4375 5.25 C-14.28376953 5.25773437 -15.13003906 5.26546875 -16.00195312 5.2734375 C-20.440718 5.25953377 -23.9672861 5.08674313 -28 3 C-27.67 2.34 -27.34 1.68 -27 1 C-26.42040527 1.16153564 -25.84081055 1.32307129 -25.24365234 1.48950195 C-21.73424813 2.28799643 -18.20552992 2.18442394 -14.625 2.1875 C-13.8825 2.19974609 -13.14 2.21199219 -12.375 2.22460938 C-7.85322517 2.23659288 -4.25941878 1.7105285 0 0 Z " fill="#4876AE" transform="translate(241,282)"/>
<path d="M0 0 C2.46855402 3.70283104 2 5.61885239 2 10 C2.64389782 12.00744615 3.30562253 14.00945124 4 16 C3.67 16.66 3.34 17.32 3 18 C2.01 18 1.02 18 0 18 C0 16.35 0 14.7 0 13 C-0.66 13 -1.32 13 -2 13 C-2 9.04 -2 5.08 -2 1 C-1.34 0.67 -0.68 0.34 0 0 Z " fill="#0D4B9C" transform="translate(187,220)"/>
<path d="M0 0 C1.875 0.625 1.875 0.625 4 2 C4.66 3.98 5.32 5.96 6 8 C13.425 8.99 13.425 8.99 21 10 C21 10.33 21 10.66 21 11 C15.39 11 9.78 11 4 11 C0 1.125 0 1.125 0 0 Z " fill="#7599C5" transform="translate(239,219)"/>
<path d="M0 0 C4 7.71428571 4 7.71428571 4 12 C4.66 12 5.32 12 6 12 C6.625 14.8125 6.625 14.8125 7 18 C6.34 18.99 5.68 19.98 5 21 C-0.74031891 7.55125285 -0.74031891 7.55125285 0 0 Z " fill="#3B69AA" transform="translate(272,258)"/>
<path d="M0 0 C0.33 0 0.66 0 1 0 C1.33851178 2.68693722 1.670936 5.37440289 2 8.0625 C2.09539062 8.81466797 2.19078125 9.56683594 2.2890625 10.34179688 C3.76028963 22.47942073 3.76028963 22.47942073 2 26 C1.34 26 0.68 26 0 26 C0 17.42 0 8.84 0 0 Z " fill="#3C64A1" transform="translate(397,276)"/>
<path d="M0 0 C-1.41573821 3.39187279 -3.04230966 5.09697541 -6 7.25 C-7.051875 8.03117187 -7.051875 8.03117187 -8.125 8.828125 C-10 10 -10 10 -12 10 C-12 9.01 -12 8.02 -12 7 C-10.68 6.67 -9.36 6.34 -8 6 C-7.67 4.35 -7.34 2.7 -7 1 C-4 0 -4 0 0 0 Z " fill="#396CA7" transform="translate(355,290)"/>
<path d="M0 0 C-0.99 0.495 -0.99 0.495 -2 1 C-2.33 1.99 -2.66 2.98 -3 4 C-5.39763185 6.39763185 -6.33273498 6.34280586 -9.625 6.625 C-10.44226563 6.69976562 -11.25953125 6.77453125 -12.1015625 6.8515625 C-12.72804687 6.90054688 -13.35453125 6.94953125 -14 7 C-9.43166501 2.17786862 -6.76869549 -0.37603864 0 0 Z " fill="#3D6BAB" transform="translate(208,198)"/>
<path d="M0 0 C2.64146083 0.52829217 4.66977379 1.32149142 7.125 2.5 C11.58484055 4.49186779 16.17361633 4.71838003 21 5 C21 5.33 21 5.66 21 6 C18.60385874 6.05425226 16.20896147 6.09379027 13.8125 6.125 C12.80219727 6.15013672 12.80219727 6.15013672 11.77148438 6.17578125 C7.73778648 6.2151344 4.56969036 5.94710383 1 4 C0.1875 1.875 0.1875 1.875 0 0 Z " fill="#3161A0" transform="translate(304,280)"/>
<path d="M0 0 C0.33 0 0.66 0 1 0 C1.33 6.93 1.66 13.86 2 21 C2.99 21 3.98 21 5 21 C5.33 22.32 5.66 23.64 6 25 C4.68 24.67 3.36 24.34 2 24 C1.67 24.99 1.34 25.98 1 27 C0.04623433 23.79217914 -0.11621181 20.91812604 -0.09765625 17.578125 C-0.09443359 16.55332031 -0.09121094 15.52851563 -0.08789062 14.47265625 C-0.07951172 13.40917969 -0.07113281 12.34570312 -0.0625 11.25 C-0.05798828 10.17105469 -0.05347656 9.09210938 -0.04882812 7.98046875 C-0.03705727 5.32025617 -0.02061399 2.66015635 0 0 Z " fill="#3065A5" transform="translate(272,235)"/>
<path d="M0 0 C0.66 0 1.32 0 2 0 C3.28317892 3.84953676 3.06643637 6.94738135 3 11 C-0.63 10.67 -4.26 10.34 -8 10 C-8 9.67 -8 9.34 -8 9 C-5.03 9 -2.06 9 1 9 C0.67 8.34 0.34 7.68 0 7 C-0.04022391 4.6670134 -0.04320247 2.33293334 0 0 Z " fill="#3A6EA6" transform="translate(263,219)"/>
<path d="M0 0 C3.98042168 0.58809834 6.86247219 1.82031677 10.3125 3.875 C11.19550781 4.38804687 12.07851562 4.90109375 12.98828125 5.4296875 C13.65214844 5.94789063 14.31601563 6.46609375 15 7 C15 7.99 15 8.98 15 10 C14.67 9.34 14.34 8.68 14 8 C12.35 8 10.7 8 9 8 C9 7.34 9 6.68 9 6 C8.34 6 7.68 6 7 6 C7 5.34 7 4.68 7 4 C5.68 4 4.36 4 3 4 C1.25 2 1.25 2 0 0 Z " fill="#3B6BA8" transform="translate(241,197)"/>
<path d="M0 0 C6.6 0 13.2 0 20 0 C20 0.66 20 1.32 20 2 C19.34 2 18.68 2 18 2 C17.67 2.66 17.34 3.32 17 4 C17 3.34 17 2.68 17 2 C16.09636719 2.01160156 15.19273437 2.02320313 14.26171875 2.03515625 C13.08222656 2.04417969 11.90273437 2.05320312 10.6875 2.0625 C9.51574219 2.07410156 8.34398437 2.08570313 7.13671875 2.09765625 C4 2 4 2 1 1 C1.33 2.98 1.66 4.96 2 7 C1.34 7 0.68 7 0 7 C0 4.69 0 2.38 0 0 Z " fill="#0C4897" transform="translate(182,267)"/>
<path d="M0 0 C0.33 0.99 0.66 1.98 1 3 C0.01 3.33 -0.98 3.66 -2 4 C-2.33 7.63 -2.66 11.26 -3 15 C-3.33 15 -3.66 15 -4 15 C-4.03738281 14.37351563 -4.07476562 13.74703125 -4.11328125 13.1015625 C-4.17902344 12.28429687 -4.24476563 11.46703125 -4.3125 10.625 C-4.37050781 9.81289062 -4.42851562 9.00078125 -4.48828125 8.1640625 C-4.82990528 5.62078662 -4.82990528 5.62078662 -8 4 C-3.375 0 -3.375 0 0 0 Z " fill="#6992C2" transform="translate(478,197)"/>
<path d="M0 0 C0.33 0.66 0.66 1.32 1 2 C1.763125 2.144375 2.52625 2.28875 3.3125 2.4375 C6.26109198 3.05464716 7.73296884 4.06882531 10 6 C6.52128379 7.15957207 5.65780355 6.77456651 2.3125 5.5625 C1.50425781 5.27503906 0.69601563 4.98757812 -0.13671875 4.69140625 C-0.75160156 4.46324219 -1.36648437 4.23507813 -2 4 C-2 3.01 -2 2.02 -2 1 C-1.34 0.67 -0.68 0.34 0 0 Z " fill="#275CA1" transform="translate(207,250)"/>
<path d="M0 0 C7.26 0 14.52 0 22 0 C22 0.33 22 0.66 22 1 C11.605 1.99 11.605 1.99 1 3 C0.67 2.01 0.34 1.02 0 0 Z " fill="#7E9EC6" transform="translate(377,197)"/>
<path d="M0 0 C1.9375 0.3125 1.9375 0.3125 4 1 C4.33 1.99 4.66 2.98 5 4 C5.99 4 6.98 4 8 4 C8 5.32 8 6.64 8 8 C8.99 8.33 9.98 8.66 11 9 C11 9.99 11 10.98 11 12 C10.34 12 9.68 12 9 12 C9 11.34 9 10.68 9 10 C8.34 10 7.68 10 7 10 C5.52734375 8.57421875 5.52734375 8.57421875 3.9375 6.6875 C3.14666016 5.76517578 3.14666016 5.76517578 2.33984375 4.82421875 C1 3 1 3 0 0 Z " fill="#4C76B0" transform="translate(280,283)"/>
<path d="M0 0 C1.89551022 -0.05441656 3.7914792 -0.09298035 5.6875 -0.125 C6.74324219 -0.14820313 7.79898437 -0.17140625 8.88671875 -0.1953125 C12.02251859 0.00141271 14.17645373 0.66942346 17 2 C17 2.33 17 2.66 17 3 C11.06 2.67 5.12 2.34 -1 2 C-0.67 1.34 -0.34 0.68 0 0 Z " fill="#4877B5" transform="translate(314,194)"/>
<path d="M0 0 C0.66 0 1.32 0 2 0 C3.80230168 3.82989106 4.19622241 6.78121808 4 11 C2.68 10.67 1.36 10.34 0 10 C0 6.7 0 3.4 0 0 Z " fill="#2159A1" transform="translate(363,222)"/>
<path d="M0 0 C1.32 0 2.64 0 4 0 C3.375 2.4375 3.375 2.4375 2 5 C-3.37268118 6.92865478 -9.4359957 5.64352363 -15 5 C-15 4.67 -15 4.34 -15 4 C-10.38 3.67 -5.76 3.34 -1 3 C-0.67 2.01 -0.34 1.02 0 0 Z " fill="#386CB4" transform="translate(332,210)"/>
<path d="M0 0 C6.875 5.625 6.875 5.625 8 9 C6.35 9 4.7 9 3 9 C2.01 6.03 1.02 3.06 0 0 Z M0 8 C2 9 2 9 2 9 Z " fill="#3F73AD" transform="translate(257,247)"/>
<path d="M0 0 C2 2 2 2 2 5 C2.66 5 3.32 5 4 5 C4 5.99 4 6.98 4 8 C4.66 8 5.32 8 6 8 C6.33 9.65 6.66 11.3 7 13 C6.01 13 5.02 13 4 13 C3.13372601 11.40233897 2.28233535 9.79660056 1.4375 8.1875 C0.96183594 7.29417969 0.48617188 6.40085938 -0.00390625 5.48046875 C-1 3 -1 3 0 0 Z " fill="#4976AF" transform="translate(404,242)"/>
<path d="M0 0 C0.66 0 1.32 0 2 0 C1.6216851 6.05303839 -0.29717165 10.18382123 -4 15 C-4.33 15 -4.66 15 -5 15 C-5 13.35 -5 11.7 -5 10 C-4.01 10 -3.02 10 -2 10 C-2.04125 9.0925 -2.0825 8.185 -2.125 7.25 C-2.00468444 4.1217954 -1.6085292 2.61385994 0 0 Z " fill="#5679B4" transform="translate(177,242)"/>
<path d="M0 0 C0.33 0 0.66 0 1 0 C1.84681133 5.08086796 2.09038099 9.84828377 2 15 C0.68 15 -0.64 15 -2 15 C-1.84660156 14.45859375 -1.69320313 13.9171875 -1.53515625 13.359375 C-0.92128392 10.65295977 -0.66791243 8.0149491 -0.4375 5.25 C-0.35371094 4.26515625 -0.26992188 3.2803125 -0.18359375 2.265625 C-0.12300781 1.51796875 -0.06242187 0.7703125 0 0 Z " fill="#4270B1" transform="translate(438,251)"/>
<path d="M0 0 C0.928125 0.20625 1.85625 0.4125 2.8125 0.625 C2.8125 3.625 2.8125 3.625 1.8125 5.625 C-0.8275 4.965 -3.4675 4.305 -6.1875 3.625 C-6.1875 2.965 -6.1875 2.305 -6.1875 1.625 C-3.1875 -0.375 -3.1875 -0.375 0 0 Z " fill="#5085C3" transform="translate(483.1875,199.375)"/>
<path d="M0 0 C0.33 0 0.66 0 1 0 C1 1.65 1 3.3 1 5 C2.32 5.33 3.64 5.66 5 6 C4.01 7.485 4.01 7.485 3 9 C2.34 9 1.68 9 1 9 C0.67 9.99 0.34 10.98 0 12 C-0.19573608 10.56359829 -0.38127816 9.12580496 -0.5625 7.6875 C-0.66691406 6.88699219 -0.77132813 6.08648437 -0.87890625 5.26171875 C-1 3 -1 3 0 0 Z " fill="#2960A6" transform="translate(8,206)"/>
<path d="M0 0 C0.66 0 1.32 0 2 0 C1.34 3.63 0.68 7.26 0 11 C-0.66 11 -1.32 11 -2 11 C-2.05399736 9.54207116 -2.09279177 8.08357288 -2.125 6.625 C-2.15980469 5.40683594 -2.15980469 5.40683594 -2.1953125 4.1640625 C-2 2 -2 2 0 0 Z " fill="#5274A4" transform="translate(470,202)"/>
<path d="M0 0 C4.99911924 0.47610659 7.97832683 2.03162219 12 5 C8.71023192 6.09658936 7.28696233 5.79953138 4 5 C4.33 4.01 4.66 3.02 5 2 C3.35 2 1.7 2 0 2 C0 1.34 0 0.68 0 0 Z " fill="#3B69AB" transform="translate(154,201)"/>
<path d="M0 0 C-1.1858237 3.37503669 -2.27573689 5.64722731 -5 8 C-5.99 7.67 -6.98 7.34 -8 7 C-8 6.34 -8 5.68 -8 5 C-6.68 5 -5.36 5 -4 5 C-4.33 3.68 -4.66 2.36 -5 1 C-2 0 -2 0 0 0 Z " fill="#456EAE" transform="translate(362,282)"/>
<path d="M0 0 C3.96 0 7.92 0 12 0 C12 0.33 12 0.66 12 1 C10.02 1 8.04 1 6 1 C6 1.99 6 2.98 6 4 C3.69 3.34 1.38 2.68 -1 2 C-0.67 1.34 -0.34 0.68 0 0 Z " fill="#094B9E" transform="translate(221,196)"/>
<path d="M0 0 C0 3.21534057 -0.26476072 4.35582586 -2 7 C-4.375 8.8125 -4.375 8.8125 -7 10 C-9.3125 9.6875 -9.3125 9.6875 -11 9 C-9.02 8.34 -7.04 7.68 -5 7 C-5 6.34 -5 5.68 -5 5 C-3.37446717 3.29319053 -1.70884005 1.62339805 0 0 Z " fill="#517EB1" transform="translate(340,274)"/>
<path d="M0 0 C1.49767311 2.37131576 2.08237812 3.5098502 1.609375 6.32421875 C1.32578125 7.10410156 1.0421875 7.88398438 0.75 8.6875 C0.47671875 9.47511719 0.2034375 10.26273437 -0.078125 11.07421875 C-1 13 -1 13 -3 14 C-3 12.02 -3 10.04 -3 8 C-2.01 8 -1.02 8 0 8 C0 5.36 0 2.72 0 0 Z " fill="#406AA8" transform="translate(365,267)"/>
<path d="M0 0 C1.97000947 3.51787406 3.14115035 7.06360577 4 11 C3.01 12.485 3.01 12.485 2 14 C0.02905192 9.07262981 -0.1799928 5.21979128 0 0 Z " fill="#7198C9" transform="translate(272,258)"/>
<path d="M0 0 C0.66 0.99 1.32 1.98 2 3 C1.34 3 0.68 3 0 3 C0 3.99 0 4.98 0 6 C-1.32 6.33 -2.64 6.66 -4 7 C-4 7.66 -4 8.32 -4 9 C-4.66 9 -5.32 9 -6 9 C-4.47291037 5.56404834 -2.40072955 2.88087546 0 0 Z " fill="#577DAF" transform="translate(193,205)"/>
<path d="M0 0 C6.625 -0.25 6.625 -0.25 10 2 C9.67 2.99 9.34 3.98 9 5 C6.03 4.01 3.06 3.02 0 2 C0 1.34 0 0.68 0 0 Z " fill="#3B6098" transform="translate(478,197)"/>
<path d="M0 0 C0 2.64 0 5.28 0 8 C-0.66 8 -1.32 8 -2 8 C-2 6.02 -2 4.04 -2 2 C-4.31 2 -6.62 2 -9 2 C-9 1.67 -9 1.34 -9 1 C-2.25 0 -2.25 0 0 0 Z " fill="#3D619C" transform="translate(87,281)"/>
<path d="M0 0 C2.31 0.33 4.62 0.66 7 1 C7 2.65 7 4.3 7 6 C7.66 6.33 8.32 6.66 9 7 C8.34 7.66 7.68 8.32 7 9 C6.401875 8.071875 5.80375 7.14375 5.1875 6.1875 C3.54727155 3.79745282 2.1281083 1.91529747 0 0 Z " fill="#6387BE" transform="translate(148,220)"/>
<path d="M0 0 C1.37562854 1.28965176 2.70766393 2.62689293 4 4 C4 4.66 4 5.32 4 6 C1.6875 7.6875 1.6875 7.6875 -1 9 C-1.99 8.67 -2.98 8.34 -4 8 C-3 6 -3 6 0 5 C0 3.35 0 1.7 0 0 Z " fill="#3266A7" transform="translate(172,212)"/>
<path d="M0 0 C0 1.65 0 3.3 0 5 C-3.16115776 3.63016497 -3.9927092 3.0109362 -6 0 C-3.50907189 -1.24546405 -2.58919267 -0.7767578 0 0 Z " fill="#3D6BAB" transform="translate(198,293)"/>
<path d="M0 0 C2.475 0.99 2.475 0.99 5 2 C5 2.99 5 3.98 5 5 C5.66 5.33 6.32 5.66 7 6 C5.68 6 4.36 6 3 6 C0.75 3.5 0.75 3.5 -1 1 C-0.67 0.67 -0.34 0.34 0 0 Z " fill="#3161A3" transform="translate(192,243)"/>
<path d="M0 0 C0.99 0.33 1.98 0.66 3 1 C3 3.97 3 6.94 3 10 C1.35 10.33 -0.3 10.66 -2 11 C-1.67 9.68 -1.34 8.36 -1 7 C-0.67 7.33 -0.34 7.66 0 8 C0 5.36 0 2.72 0 0 Z " fill="#4880BA" transform="translate(206,220)"/>
<path d="M0 0 C0.33 0 0.66 0 1 0 C1.04898437 0.63808594 1.09796875 1.27617187 1.1484375 1.93359375 C1.22320312 2.75988281 1.29796875 3.58617187 1.375 4.4375 C1.44460938 5.26121094 1.51421875 6.08492187 1.5859375 6.93359375 C1.72257812 7.61550781 1.85921875 8.29742187 2 9 C2.66 9.33 3.32 9.66 4 10 C4 10.66 4 11.32 4 12 C3.34 12 2.68 12 2 12 C2 11.34 2 10.68 2 10 C1.34 10 0.68 10 0 10 C-1.2380014 6.42355152 -0.74926071 3.66305234 0 0 Z " fill="#7196BF" transform="translate(470,207)"/>
<path d="M0 0 C-1.36983503 3.16115776 -1.9890638 3.9927092 -5 6 C-5.33 4.35 -5.66 2.7 -6 1 C-4 0 -4 0 0 0 Z " fill="#467AAF" transform="translate(355,290)"/>
<path d="M0 0 C0.66 0 1.32 0 2 0 C2.33 0.99 2.66 1.98 3 3 C2.34 3.66 1.68 4.32 1 5 C1 5.66 1 6.32 1 7 C1.66 7 2.32 7 3 7 C2.67 7.66 2.34 8.32 2 9 C-1 7 -1 7 -1.8125 4.5 C-1.874375 3.675 -1.93625 2.85 -2 2 C-1.34 1.34 -0.68 0.68 0 0 Z " fill="#235CA4" transform="translate(292,289)"/>
<path d="M0 0 C1.65 0 3.3 0 5 0 C2.97958823 3.03061766 2.24314437 3.72239767 -1 5 C-1.99 5 -2.98 5 -4 5 C-4 4.34 -4 3.68 -4 3 C-3.01 3 -2.02 3 -1 3 C-0.67 2.01 -0.34 1.02 0 0 Z " fill="#4172A8" transform="translate(161,262)"/>
<path d="M0 0 C0.99 0.33 1.98 0.66 3 1 C3.33 1.99 3.66 2.98 4 4 C2.625 5.5 2.625 5.5 1 7 C0.34 7 -0.32 7 -1 7 C-0.67 4.69 -0.34 2.38 0 0 Z " fill="#2D64AA" transform="translate(8,231)"/>
<path d="M0 0 C4.875 3.625 4.875 3.625 6 7 C5.34 7 4.68 7 4 7 C4 6.34 4 5.68 4 5 C1.69 5 -0.62 5 -3 5 C-2.01 4.67 -1.02 4.34 0 4 C0 2.68 0 1.36 0 0 Z " fill="#3867A8" transform="translate(355,209)"/>
<path d="M0 0 C5.53846154 0.61538462 5.53846154 0.61538462 7.875 2.5625 C8.431875 3.2740625 8.431875 3.2740625 9 4 C7.02 4 5.04 4 3 4 C3 3.34 3 2.68 3 2 C2.01 2 1.02 2 0 2 C0 1.34 0 0.68 0 0 Z " fill="#4373AD" transform="translate(336,197)"/>
<path d="M0 0 C2.475 0.99 2.475 0.99 5 2 C4.34 3.32 3.68 4.64 3 6 C2.01 6 1.02 6 0 6 C0 4.02 0 2.04 0 0 Z " fill="#0F4B9A" transform="translate(9,295)"/>
<path d="M0 0 C6.625 -0.25 6.625 -0.25 10 2 C9.67 2.99 9.34 3.98 9 5 C4.545 3.02 4.545 3.02 0 1 C0 0.67 0 0.34 0 0 Z " fill="#5478AF" transform="translate(233,261)"/>
<path d="M0 0 C0.66 0 1.32 0 2 0 C2 3.3 2 6.6 2 10 C1.34 10 0.68 10 0 10 C-0.74926071 6.33694766 -1.2380014 3.57644848 0 0 Z " fill="#3B6FB0" transform="translate(397,233)"/>
<path d="M0 0 C0.33 0.66 0.66 1.32 1 2 C1.66 2 2.32 2 3 2 C3 4.31 3 6.62 3 9 C0.9375 6.75 0.9375 6.75 -1 4 C-0.75 1.6875 -0.75 1.6875 0 0 Z " fill="#3465A8" transform="translate(400,234)"/>
<path d="M0 0 C0.99 0.33 1.98 0.66 3 1 C3.33 2.98 3.66 4.96 4 7 C2.35 6.01 0.7 5.02 -1 4 C-0.67 2.68 -0.34 1.36 0 0 Z " fill="#2F65A9" transform="translate(417,230)"/>
<path d="M0 0 C1.32 0 2.64 0 4 0 C4.33 1.98 4.66 3.96 5 6 C3.68 5.67 2.36 5.34 1 5 C0.67 3.35 0.34 1.7 0 0 Z " fill="#2F63A1" transform="translate(411,222)"/>
<path d="M0 0 C1.32 0 2.64 0 4 0 C4 1.32 4 2.64 4 4 C1.03 4 -1.94 4 -5 4 C-5 3.67 -5 3.34 -5 3 C-3.35 2.67 -1.7 2.34 0 2 C0 1.34 0 0.68 0 0 Z " fill="#0C4894" transform="translate(393,298)"/>
<path d="M0 0 C1.98 0.66 3.96 1.32 6 2 C5.67 3.32 5.34 4.64 5 6 C4.01 5.67 3.02 5.34 2 5 C0.8125 2.4375 0.8125 2.4375 0 0 Z " fill="#255CA2" transform="translate(211,232)"/>
<path d="M0 0 C0.66 0.33 1.32 0.66 2 1 C1.34 4.3 0.68 7.6 0 11 C-0.33 11 -0.66 11 -1 11 C-1.125 3.375 -1.125 3.375 0 0 Z " fill="#5A7CB7" transform="translate(296,229)"/>
<path d="M0 0 C0.99 0 1.98 0 3 0 C3 2.64 3 5.28 3 8 C2.67 7.01 2.34 6.02 2 5 C1.01 5 0.02 5 -1 5 C-0.67 3.35 -0.34 1.7 0 0 Z " fill="#1F4F93" transform="translate(484,204)"/>
<path d="M0 0 C1.9375 0.5625 1.9375 0.5625 4 2 C4.75 5.625 4.75 5.625 5 9 C2.67527795 6.14693203 1.2491742 3.45925163 0 0 Z " fill="#547BB3" transform="translate(410,256)"/>
<path d="M0 0 C4 2 4 2 4.875 4.4375 C5 7 5 7 3 10 C2.01 6.7 1.02 3.4 0 0 Z " fill="#608BB9" transform="translate(239,219)"/>
<path d="M0 0 C0.66 0 1.32 0 2 0 C2.625 3.375 2.625 3.375 3 7 C2.34 7.66 1.68 8.32 1 9 C0.67 6.03 0.34 3.06 0 0 Z " fill="#2F5DA4" transform="translate(202,267)"/>
<path d="M0 0 C0.33 0 0.66 0 1 0 C1 2.31 1 4.62 1 7 C0.01 7.495 0.01 7.495 -1 8 C-1.625 5.6875 -1.625 5.6875 -2 3 C-1.34 2.01 -0.68 1.02 0 0 Z " fill="#0F4B97" transform="translate(206,221)"/>
<path d="M0 0 C0.66 1.32 1.32 2.64 2 4 C1.34 4 0.68 4 0 4 C-0.33 4.99 -0.66 5.98 -1 7 C-1 6.34 -1 5.68 -1 5 C-1.66 5 -2.32 5 -3 5 C-3 4.01 -3 3.02 -3 2 C-2.01 2 -1.02 2 0 2 C0 1.34 0 0.68 0 0 Z " fill="#2660AF" transform="translate(261,211)"/>
</svg>
