<?xml version="1.0" encoding="UTF-8"?>
<svg version="1.1" xmlns="http://www.w3.org/2000/svg" width="853" height="292">
<path d="M0 0 C5 5 5 5 7.3125 7.4375 C14.51958761 14.30937423 21.61672383 17.68401508 31 21 C31.87914062 21.40605469 32.75828125 21.81210937 33.6640625 22.23046875 C37.31112935 23.43192723 39.65727815 21.57675559 43 20 C43.66 20.33 44.32 20.66 45 21 C44.01 24.3 43.02 27.6 42 31 C43.98 31.495 43.98 31.495 46 32 C48.2773501 29.18490007 48.2773501 29.18490007 48 26 C50.64738916 24.5393715 51.89448334 24 55 24 C55 23.34 55 22.68 55 22 C53.35 22 51.7 22 50 22 C50 18 50 18 51 15 C54.23253796 12.84497469 55.25150923 12.53143865 59 13 C60.75 14.125 60.75 14.125 62 16 C62.6875 19.1875 62.6875 19.1875 63 22 C62.01 22.66 61.02 23.32 60 24 C59.65846063 25.66500443 59.32550502 27.33178677 59 29 C57.4375 30.8125 57.4375 30.8125 56 32 C56.33 32.99 56.66 33.98 57 35 C56.84262564 37.10488205 56.67468645 39.20898395 56.5 41.3125 C56.35604721 46.21316195 56.35604721 46.21316195 58.9296875 50.15234375 C61.23427947 51.65805959 63.48288747 52.89138004 66 54 C69.28515619 55.6425781 71.45560502 58.60881988 73.9296875 61.28515625 C76.06536798 63.42526318 76.06536798 63.42526318 80 63 C80.33 63.99 80.66 64.98 81 66 C80.67 66.66 80.34 67.32 80 68 C77.35139573 68.59355614 74.70802678 68.74209269 72 69 C72 67.35 72 65.7 72 64 C69.53721199 62.768606 67.7204945 62.92840804 65 63 C63.68565277 69.03722234 63.68565277 69.03722234 64.8359375 74.9296875 C67.64414963 78.52491449 70.6390529 79.98582626 75 81 C75 81.66 75 82.32 75 83 C72.93918639 83.50690584 70.87626474 84.00524619 68.8125 84.5 C67.66394531 84.7784375 66.51539063 85.056875 65.33203125 85.34375 C62.38852073 85.92348009 59.97239095 86.38012815 57 86 C55 83 55 83 55 80 C51.18586998 81.1678266 51.18586998 81.1678266 48.6875 84.125 C48.460625 84.74375 48.23375 85.3625 48 86 C44.50244327 86.06995113 41.31364266 86.06272853 37.875 85.375 C34.5291673 84.93858704 32.92913776 85.37270125 30 87 C29.34 87.99 28.68 88.98 28 90 C25.8359375 90.29296875 25.8359375 90.29296875 23.375 90.1875 C22.55773437 90.16042969 21.74046875 90.13335937 20.8984375 90.10546875 C20.27195312 90.07066406 19.64546875 90.03585938 19 90 C19.92454123 85.18818314 22.48354384 82.30662647 26 79 C27.60735544 77.99213054 29.23304856 77.01296716 30.875 76.0625 C34.08404598 74.14966334 34.08404598 74.14966334 35.609375 70.91796875 C35.63021432 68.02651367 35.29936053 65.59872106 34 63 C34.33 64.98 34.66 66.96 35 69 C31.39394447 69 29.44760622 68.61788621 26.125 67.5 C22.28177479 66.28904294 19.06590284 65.67900767 15 66 C15 65.01 15 64.02 15 63 C11.71000718 62.58168596 11.71000718 62.58168596 8 63 C5.333492 65.16588845 5.333492 65.16588845 3 68 C-1.83086681 72.83086681 -1.83086681 72.83086681 -5.16015625 73.3125 C-7.375 73.3125 -7.375 73.3125 -11 73 C-11.33 72.34 -11.66 71.68 -12 71 C-12.66 71.66 -13.32 72.32 -14 73 C-14 71.68 -14 70.36 -14 69 C-14.7425 69.309375 -15.485 69.61875 -16.25 69.9375 C-18.50692176 70.8094925 -20.6450153 71.47667007 -23 72 C-23 71.01 -23 70.02 -23 69 C-24.98 69 -26.96 69 -29 69 C-29.061875 69.598125 -29.12375 70.19625 -29.1875 70.8125 C-30.33835414 73.91095345 -32.10634113 74.55317057 -35 76 C-35.99 76.33 -36.98 76.66 -38 77 C-40.42664915 81.66663298 -41.46179265 85.725568 -42 91 C-46.62 91 -51.24 91 -56 91 C-57.13201694 87.60394919 -56.71634649 86.42254433 -56 83 C-55.96227087 81.0003559 -55.95350094 78.99945939 -56 77 C-56.66 77 -57.32 77 -58 77 C-58.495 74.525 -58.495 74.525 -59 72 C-58.938125 72.9075 -58.87625 73.815 -58.8125 74.75 C-59.01672076 78.28982642 -59.64551835 79.44931155 -62 82 C-63.65 81.67 -65.3 81.34 -67 81 C-66.34 79.68 -65.68 78.36 -65 77 C-66.485 77.495 -66.485 77.495 -68 78 C-68.99 77.34 -69.98 76.68 -71 76 C-70.68991116 74.39536551 -70.37683713 72.79130769 -70.0625 71.1875 C-69.88847656 70.29417969 -69.71445312 69.40085937 -69.53515625 68.48046875 C-69 66 -69 66 -68 63 C-67.2575 62.95875 -66.515 62.9175 -65.75 62.875 C-61.89895788 61.64966842 -61.06281416 59.36926312 -59 56 C-58.01 55.34 -57.02 54.68 -56 54 C-56 53.01 -56 52.02 -56 51 C-54.906875 51.04125 -53.81375 51.0825 -52.6875 51.125 C-48.91107771 51.32074666 -48.91107771 51.32074666 -46 49 C-44.68 49 -43.36 49 -42 49 C-42 47.35 -42 45.7 -42 44 C-36.39 44 -30.78 44 -25 44 C-25 43.34 -25 42.68 -25 42 C-25.99 42.495 -25.99 42.495 -27 43 C-29.6754033 43.11103969 -32.3239975 43.16410563 -35 43.16796875 C-36.18722656 43.17296135 -36.18722656 43.17296135 -37.3984375 43.17805481 C-39.07291075 43.1831204 -40.7473941 43.18546325 -42.421875 43.18530273 C-44.98975135 43.18749127 -47.55719959 43.20565609 -50.125 43.22460938 C-51.74999853 43.22754291 -53.3749991 43.22952797 -55 43.23046875 C-55.77085937 43.23765427 -56.54171875 43.24483978 -57.3359375 43.25224304 C-62.7711728 43.2288272 -62.7711728 43.2288272 -65 41 C-64.34 40.01 -63.68 39.02 -63 38 C-59.375 37.3125 -59.375 37.3125 -56 37 C-56 37.66 -56 38.32 -56 39 C-49.07 39.495 -49.07 39.495 -42 40 C-42 38.35 -42 36.7 -42 35 C-37.38 35 -32.76 35 -28 35 C-28.495 32.03 -28.495 32.03 -29 29 C-31.31 29.33 -33.62 29.66 -36 30 C-36.0825 29.2575 -36.165 28.515 -36.25 27.75 C-37.1396946 24.48778646 -38.48503749 23.19045122 -41 21 C-40.67 20.01 -40.34 19.02 -40 18 C-36.23620313 16.1933775 -31.95861815 17.40620728 -28 18 C-28 18.99 -28 19.98 -28 21 C-26.35 21 -24.7 21 -23 21 C-22.34 19.35 -21.68 17.7 -21 16 C-20.01 16 -19.02 16 -18 16 C-18 17.65 -18 19.3 -18 21 C-17.34 21 -16.68 21 -16 21 C-14.4087311 25.873261 -13.78807779 29.80790596 -14 35 C-8.86923708 35.41883779 -6.27343652 34.733322 -1.9765625 31.95703125 C1.76249454 30.14661826 5.90344048 30.16485149 10 30 C10.495 28.515 10.495 28.515 11 27 C11.99 26.505 11.99 26.505 13 26 C13.99 24.515 13.99 24.515 15 23 C15 26.96 15 30.92 15 35 C16.65 34.67 18.3 34.34 20 34 C19.649375 33.38125 19.29875 32.7625 18.9375 32.125 C18.4734375 31.073125 18.4734375 31.073125 18 30 C18.33 29.34 18.66 28.68 19 28 C18.34 28 17.68 28 17 28 C17.875 23.125 17.875 23.125 19 22 C18.35933594 21.49210937 17.71867187 20.98421875 17.05859375 20.4609375 C15.76115234 19.42839844 15.76115234 19.42839844 14.4375 18.375 C13.06851563 17.28638672 13.06851563 17.28638672 11.671875 16.17578125 C9.44424592 14.36176166 7.3117646 12.49407688 5.1875 10.5625 C2.5659016 8.27015448 0.57445352 7.21663355 -3 7 C-2.34 6.34 -1.68 5.68 -1 5 C-1.495 3.515 -1.495 3.515 -2 2 C-1.34 2 -0.68 2 0 2 C0 1.34 0 0.68 0 0 Z M57 18 C58 20 58 20 58 20 Z M-36 19 C-36 19.66 -36 20.32 -36 21 C-34.68 20.67 -33.36 20.34 -32 20 C-33.32 19.67 -34.64 19.34 -36 19 Z M24 21 C25.32 22.32 26.64 23.64 28 25 C28.33 23.68 28.66 22.36 29 21 C27.35 21 25.7 21 24 21 Z M-35 25 C-31.535 24.505 -31.535 24.505 -28 24 C-31.48581856 22.7979936 -31.67992344 22.78661563 -35 25 Z M57 23 C56.67 24.32 56.34 25.64 56 27 C56.66 25.68 57.32 24.36 58 23 C57.67 23 57.34 23 57 23 Z M-18 24 C-17 26 -17 26 -17 26 Z M41 25 C42 27 42 27 42 27 Z M33 26 C33 26.99 33 27.98 33 29 C34.32 29.66 35.64 30.32 37 31 C36.67 29.35 36.34 27.7 36 26 C35.01 26 34.02 26 33 26 Z M-26 26 C-26.66 26.66 -27.32 27.32 -28 28 C-27.34 28 -26.68 28 -26 28 C-25.67 28.99 -25.34 29.98 -25 31 C-25 29.35 -25 27.7 -25 26 C-25.33 26 -25.66 26 -26 26 Z M13 30 C12.67 31.65 12.34 33.3 12 35 C10.02 35 8.04 35 6 35 C6.33 35.99 6.66 36.98 7 38 C6.67 38.66 6.34 39.32 6 40 C6.99 40 7.98 40 9 40 C9.33 39.34 9.66 38.68 10 38 C10.66 38.33 11.32 38.66 12 39 C12.99 39.33 13.98 39.66 15 40 C14.67 36.7 14.34 33.4 14 30 C13.67 30 13.34 30 13 30 Z M-27 32 C-26 34 -26 34 -26 34 Z M-18 32 C-18 34.64 -18 37.28 -18 40 C-16.68 40 -15.36 40 -14 40 C-14 38.35 -14 36.7 -14 35 C-14.99 35 -15.98 35 -17 35 C-16.67 34.01 -16.34 33.02 -16 32 C-16.66 32 -17.32 32 -18 32 Z M24 32 C23.67 33.65 23.34 35.3 23 37 C23.99 37.495 23.99 37.495 25 38 C25 37.01 25 36.02 25 35 C25.66 35 26.32 35 27 35 C27 34.34 27 33.68 27 33 C26.01 32.67 25.02 32.34 24 32 Z M48 33 C48 33.33 48 33.66 48 34 C49.65 34 51.3 34 53 34 C53 33.67 53 33.34 53 33 C51.35 33 49.7 33 48 33 Z M-22 34 C-21 36 -21 36 -21 36 Z M-21 36 C-20 38 -20 38 -20 38 Z M20 37 C20.33 37.99 20.66 38.98 21 40 C21 39.01 21 38.02 21 37 C20.67 37 20.34 37 20 37 Z M-4 38 C-3.34 38.66 -2.68 39.32 -2 40 C-2 39.34 -2 38.68 -2 38 C-2.66 38 -3.32 38 -4 38 Z M27 38 C27 38.66 27 39.32 27 40 C28.32 39.67 29.64 39.34 31 39 C29.68 38.67 28.36 38.34 27 38 Z M35 38 C34.67 38.66 34.34 39.32 34 40 C36.64 40 39.28 40 42 40 C39.35261084 38.5393715 38.10551666 38 35 38 Z M-29 36 C-29 36.99 -29 37.98 -29 39 C-32.96 39 -36.92 39 -41 39 C-41 39.33 -41 39.66 -41 40 C-36.71 40 -32.42 40 -28 40 C-28.33 38.68 -28.66 37.36 -29 36 Z M50 39 C49.67 39.99 49.34 40.98 49 42 C49.66 42 50.32 42 51 42 C50.67 41.01 50.34 40.02 50 39 Z M55 39 C55 40.65 55 42.3 55 44 C55.33 44 55.66 44 56 44 C56 42.35 56 40.7 56 39 C55.67 39 55.34 39 55 39 Z M-20 43 C-19 45 -19 45 -19 45 Z M8 43 C8.33 43.66 8.66 44.32 9 45 C9.99 45.33 10.98 45.66 12 46 C12.73046875 47.84765625 12.73046875 47.84765625 13.1875 50.0625 C13.34605469 50.79597656 13.50460937 51.52945313 13.66796875 52.28515625 C13.83232422 53.13400391 13.83232422 53.13400391 14 54 C15.04702186 50.2735915 15.07442057 46.86986958 15 43 C12.69 43 10.38 43 8 43 Z M-16 44 C-15.34 44.66 -14.68 45.32 -14 46 C-14 45.34 -14 44.68 -14 44 C-14.66 44 -15.32 44 -16 44 Z M-19 45 C-18.67 46.32 -18.34 47.64 -18 49 C-17.67 47.68 -17.34 46.36 -17 45 C-17.66 45 -18.32 45 -19 45 Z M-14 46 C-14.33 46.66 -14.66 47.32 -15 48 C-14.34 48 -13.68 48 -13 48 C-13.33 47.34 -13.66 46.68 -14 46 Z M2 46 C2 46.66 2 47.32 2 48 C2.66 47.67 3.32 47.34 4 47 C3.34 46.67 2.68 46.34 2 46 Z M-29 47 C-29 50 -29 50 -29 50 Z M-34 48 C-36.64 48.33 -39.28 48.66 -42 49 C-42 50.32 -42 51.64 -42 53 C-42.99 53.495 -42.99 53.495 -44 54 C-39.65535464 53.39174965 -35.32448133 52.73832608 -31 52 C-31.99 50.68 -32.98 49.36 -34 48 Z M53 49 C53 49.66 53 50.32 53 51 C53.66 51 54.32 51 55 51 C55 50.34 55 49.68 55 49 C54.34 49 53.68 49 53 49 Z M4 50 C5 53 5 53 5 53 Z M19 50 C19 50.33 19 50.66 19 51 C20.65 51 22.3 51 24 51 C24 50.67 24 50.34 24 50 C22.35 50 20.7 50 19 50 Z M24 51 C24.66 51.66 25.32 52.32 26 53 C26 52.34 26 51.68 26 51 C25.34 51 24.68 51 24 51 Z M55 51 C54.67 51.66 54.34 52.32 54 53 C55.98 53.66 57.96 54.32 60 55 C58.68799596 53.64567325 57.35368596 52.31266518 56 51 C55.67 51 55.34 51 55 51 Z M-27 52 C-27 53.65 -27 55.3 -27 57 C-26.34 55.68 -25.68 54.36 -25 53 C-25.66 52.67 -26.32 52.34 -27 52 Z M-53 53 C-53 53.33 -53 53.66 -53 54 C-51.35 54 -49.7 54 -48 54 C-48 53.67 -48 53.34 -48 53 C-49.65 53 -51.3 53 -53 53 Z M2 53 C1.67 53.99 1.34 54.98 1 56 C1.66 56 2.32 56 3 56 C2.67 55.01 2.34 54.02 2 53 Z M44 53 C44 53.99 44 54.98 44 56 C45.32 55.01 46.64 54.02 48 53 C46.68 53 45.36 53 44 53 Z M15 54 C15 56.97 15 59.94 15 63 C15.66 63 16.32 63 17 63 C17.33 63.66 17.66 64.32 18 65 C17.34 61.37 16.68 57.74 16 54 C15.67 54 15.34 54 15 54 Z M-38 56 C-38 56.66 -38 57.32 -38 58 C-35.69 58 -33.38 58 -31 58 C-31 57.01 -31 56.02 -31 55 C-34.62885324 54.84850702 -34.62885324 54.84850702 -38 56 Z M-24 55 C-23 58 -23 58 -23 58 Z M20 55 C20.99 57.97 21.98 60.94 23 64 C23.66 64 24.32 64 25 64 C24.67 62.68 24.34 61.36 24 60 C25.32 59.67 26.64 59.34 28 59 C24.33019796 56.08828211 24.33019796 56.08828211 20 55 Z M40 55 C41 57 41 57 41 57 Z M46 55 C45.67 57.97 45.34 60.94 45 64 C49.82442184 62.73053486 49.82442184 62.73053486 53 59 C51.18777466 56.9375006 51.18777466 56.9375006 49 55 C48.01 55 47.02 55 46 55 Z M60 55 C60.99 55.99 61.98 56.98 63 58 C63.33 57.34 63.66 56.68 64 56 C62.68 55.67 61.36 55.34 60 55 Z M-46 56 C-46.33 56.66 -46.66 57.32 -47 58 C-46.34 58 -45.68 58 -45 58 C-45.33 57.34 -45.66 56.68 -46 56 Z M-18 56 C-17 60 -17 60 -17 60 Z M35 56 C36 58 36 58 36 58 Z M-48 58 C-48 58.66 -48 59.32 -48 60 C-47.34 59.67 -46.68 59.34 -46 59 C-46.66 58.67 -47.32 58.34 -48 58 Z M-23 58 C-22 62 -22 62 -22 62 Z M40 58 C40.66 58.66 41.32 59.32 42 60 C42 59.34 42 58.68 42 58 C41.34 58 40.68 58 40 58 Z M-10 59 C-10 59.33 -10 59.66 -10 60 C-7.36 60 -4.72 60 -2 60 C-2 59.67 -2 59.34 -2 59 C-4.64 59 -7.28 59 -10 59 Z M37 59 C38 61 38 61 38 61 Z M-56 60 C-58.29045014 64.81209901 -58.29045014 64.81209901 -59 70 C-58.34 70 -57.68 70 -57 70 C-56.34 66.7 -55.68 63.4 -55 60 C-55.33 60 -55.66 60 -56 60 Z M38 61 C39 63 39 63 39 63 Z M-22 62 C-21 66 -21 66 -21 66 Z M53 62 C53.33 62.66 53.66 63.32 54 64 C54.33 63.34 54.66 62.68 55 62 C54.34 62 53.68 62 53 62 Z M-4 63 C-3.67 63.66 -3.34 64.32 -3 65 C-2.01 64.67 -1.02 64.34 0 64 C-1.32 63.67 -2.64 63.34 -4 63 Z M39 63 C38.91435093 68.3958915 39.48602021 72.08341649 43.25 76.125 C46.11126079 78.71851801 46.11126079 78.71851801 49.9375 78.9375 C50.9584375 78.4734375 50.9584375 78.4734375 52 78 C49.64507865 75.28278306 48.45452585 74.09999569 44.875 73.3125 C42 72 42 72 41.171875 69.87890625 C40.67141884 67.58753198 40.27785415 65.32822619 40 63 C39.67 63 39.34 63 39 63 Z M-40 64 C-40.33 65.32 -40.66 66.64 -41 68 C-38.525 68.495 -38.525 68.495 -36 69 C-36.33 68.34 -36.66 67.68 -37 67 C-37.99 67.495 -37.99 67.495 -39 68 C-38.67 66.68 -38.34 65.36 -38 64 C-38.66 64 -39.32 64 -40 64 Z M-11 66 C-9.515 66.99 -9.515 66.99 -8 68 C-6.68 67.34 -5.36 66.68 -4 66 C-4 65.34 -4 64.68 -4 64 C-6.6465335 64 -8.5808163 64.98139634 -11 66 Z M27 64 C28 66 28 66 28 66 Z M46 65 C47 68 47 68 47 68 Z M52 65 C52.11389875 66.79240663 52.24147687 68.58394835 52.375 70.375 C52.44460938 71.37273437 52.51421875 72.37046875 52.5859375 73.3984375 C52.76363964 76.15508879 52.76363964 76.15508879 55 78 C55.16682272 73.07872966 55.24828052 69.49656104 53 65 C52.67 65 52.34 65 52 65 Z M-21 66 C-20 69 -20 69 -20 69 Z M-49 67 C-49 67.99 -49 68.98 -49 70 C-48.34 69.67 -47.68 69.34 -47 69 C-47.66 68.34 -48.32 67.68 -49 67 Z M55 67 C55.99 67.495 55.99 67.495 57 68 C57.4140625 70.06640625 57.4140625 70.06640625 57.625 72.5625 C57.69976562 73.38878906 57.77453125 74.21507813 57.8515625 75.06640625 C57.92503906 76.02353516 57.92503906 76.02353516 58 77 C58.33 77 58.66 77 59 77 C59 74.03 59 71.06 59 68 C57.68 67.67 56.36 67.34 55 67 Z M-66 68 C-65 72 -65 72 -65 72 Z M-35 70 C-35 70.66 -35 71.32 -35 72 C-34.34 71.67 -33.68 71.34 -33 71 C-33.66 70.67 -34.32 70.34 -35 70 Z M-56 73 C-56 74.32 -56 75.64 -56 77 C-55.01 77 -54.02 77 -53 77 C-52.67 75.35 -52.34 73.7 -52 72 C-54.0745356 71.8509288 -54.0745356 71.8509288 -56 73 Z M-48 73 C-48.65772428 76.02934491 -48.65772428 76.02934491 -49 79 C-45.57421051 75.82460444 -45.57421051 75.82460444 -43 72 C-45.9254644 71.7763932 -45.9254644 71.7763932 -48 73 Z M-68 73 C-67 75 -67 75 -67 75 Z M-37 73 C-36 75 -36 75 -36 75 Z M-50 79 C-49 81 -49 81 -49 81 Z M-45 79 C-44 81 -44 81 -44 81 Z M-55 80 C-54 82 -54 82 -54 82 Z M30 80 C29.67 80.66 29.34 81.32 29 82 C29.99 81.67 30.98 81.34 32 81 C31.34 80.67 30.68 80.34 30 80 Z M-46 81 C-45 83 -45 83 -45 83 Z M28 82 C26.515 83.98 26.515 83.98 25 86 C26.32 85.34 27.64 84.68 29 84 C28.67 83.34 28.34 82.68 28 82 Z M62 82 C62.33 82.66 62.66 83.32 63 84 C63.99 83.67 64.98 83.34 66 83 C64.68 82.67 63.36 82.34 62 82 Z M-47 83 C-47.66 84.98 -48.32 86.96 -49 89 C-48.34 89 -47.68 89 -47 89 C-46.67 87.02 -46.34 85.04 -46 83 C-46.33 83 -46.66 83 -47 83 Z " fill="#040914" transform="translate(426,22)"/>
<path d="M0 0 C1.50433594 0.01353516 1.50433594 0.01353516 3.0390625 0.02734375 C3.80992188 0.03894531 4.58078125 0.05054687 5.375 0.0625 C5.375 0.7225 5.375 1.3825 5.375 2.0625 C9.995 2.0625 14.615 2.0625 19.375 2.0625 C19.375 1.4025 19.375 0.7425 19.375 0.0625 C23.995 0.0625 28.615 0.0625 33.375 0.0625 C33.375 0.7225 33.375 1.3825 33.375 2.0625 C37.995 2.0625 42.615 2.0625 47.375 2.0625 C47.375 1.4025 47.375 0.7425 47.375 0.0625 C50.015 0.0625 52.655 0.0625 55.375 0.0625 C55.42898987 2.33307377 55.46778742 4.60401288 55.5 6.875 C55.52320313 8.13957031 55.54640625 9.40414062 55.5703125 10.70703125 C55.375 14.0625 55.375 14.0625 53.375 17.0625 C52.055 17.0625 50.735 17.0625 49.375 17.0625 C48.88 13.1025 48.88 13.1025 48.375 9.0625 C40.49579001 7.19285695 33.11566701 6.90869457 25.07421875 7.08984375 C21.375 7.0625 21.375 7.0625 15.375 6.0625 C15.375 11.6725 15.375 17.2825 15.375 23.0625 C16.035 23.0625 16.695 23.0625 17.375 23.0625 C17.375 24.7125 17.375 26.3625 17.375 28.0625 C16.715 28.0625 16.055 28.0625 15.375 28.0625 C15.045 32.6825 14.715 37.3025 14.375 42.0625 C16.025 42.3925 17.675 42.7225 19.375 43.0625 C19.375 44.0525 19.375 45.0425 19.375 46.0625 C17.395 46.5575 17.395 46.5575 15.375 47.0625 C22.965 46.0725 30.555 45.0825 38.375 44.0625 C39.035 41.0925 39.695 38.1225 40.375 35.0625 C41.695 35.3925 43.015 35.7225 44.375 36.0625 C45.69182379 44.62185463 46.26695063 53.54872217 44.375 62.0625 C42.725 61.7325 41.075 61.4025 39.375 61.0625 C38.88 58.0925 38.88 58.0925 38.375 55.0625 C36.725 54.7325 35.075 54.4025 33.375 54.0625 C33.375 53.4025 33.375 52.7425 33.375 52.0625 C28.755 52.0625 24.135 52.0625 19.375 52.0625 C19.045 53.3825 18.715 54.7025 18.375 56.0625 C17.055 56.0625 15.735 56.0625 14.375 56.0625 C14.375 60.6825 14.375 65.3025 14.375 70.0625 C15.365 70.0625 16.355 70.0625 17.375 70.0625 C17.375 75.0125 17.375 79.9625 17.375 85.0625 C17.045 85.0625 16.715 85.0625 16.375 85.0625 C16.045 87.0425 15.715 89.0225 15.375 91.0625 C16.00148438 90.97871094 16.62796875 90.89492187 17.2734375 90.80859375 C18.09070313 90.70675781 18.90796875 90.60492188 19.75 90.5 C20.96816406 90.34337891 20.96816406 90.34337891 22.2109375 90.18359375 C24.375 90.0625 24.375 90.0625 26.375 91.0625 C27 93.125 27 93.125 27.375 95.0625 C20.46143881 97.75396067 13.74329589 97.07060414 6.4375 96.6875 C4.55321289 96.60242188 4.55321289 96.60242188 2.63085938 96.515625 C-0.4550585 96.37482266 -3.54007958 96.2234745 -6.625 96.0625 C-6.955 94.7425 -7.285 93.4225 -7.625 92.0625 C-4.625 91.0625 -1.625 90.0625 1.375 89.0625 C4.27045481 86.04819221 4.74320781 83.9525954 4.69970703 79.83276367 C4.69625275 78.78614059 4.69279846 77.73951752 4.6892395 76.66117859 C4.66130814 74.96297722 4.66130814 74.96297722 4.6328125 73.23046875 C4.62619598 72.04769852 4.61957947 70.86492828 4.61276245 69.64631653 C4.58934789 65.84728139 4.54578931 62.04882587 4.5 58.25 C4.4529606 53.30603071 4.41490071 48.36205682 4.3828125 43.41796875 C4.37413147 42.21204071 4.36545044 41.00611267 4.35650635 39.76364136 C4.30771044 28.50991846 4.73578653 17.29636984 5.375 6.0625 C4.34439453 6.09730469 4.34439453 6.09730469 3.29296875 6.1328125 C1.94138672 6.15988281 1.94138672 6.15988281 0.5625 6.1875 C-0.33082031 6.21070313 -1.22414063 6.23390625 -2.14453125 6.2578125 C-4.625 6.0625 -4.625 6.0625 -7.625 4.0625 C-7.625 3.0725 -7.625 2.0825 -7.625 1.0625 C-4.98041621 -0.25979189 -2.94738699 -0.03427194 0 0 Z M-6.625 2.0625 C-5.625 4.0625 -5.625 4.0625 -5.625 4.0625 Z " fill="#030914" transform="translate(37.625,127.9375)"/>
<path d="M0 0 C4.29 0 8.58 0 13 0 C13 0.66 13 1.32 13 2 C13.67579102 1.93417725 14.35158203 1.86835449 15.04785156 1.80053711 C18.1146052 1.50581903 21.18224082 1.22155178 24.25 0.9375 C25.31347656 0.83373047 26.37695312 0.72996094 27.47265625 0.62304688 C28.49746094 0.52958984 29.52226562 0.43613281 30.578125 0.33984375 C31.52075195 0.25081787 32.46337891 0.16179199 33.43457031 0.07006836 C39.82838559 -0.10456287 45.01461362 3.25218312 50 7 C52.53066909 11.47733762 52.31962551 15.96589819 52 21 C50.76497457 25.32922891 49.21441193 26.91432436 45.375 29.1875 C43.88693493 30.07705309 42.41918669 31.00423321 41 32 C41 32.66 41 33.32 41 34 C39.02 34.495 39.02 34.495 37 35 C38.3089572 38.12197478 38.3089572 38.12197478 41 40 C40.67 40.99 40.34 41.98 40 43 C42.62500401 45.70221001 45.20785267 48.19388474 48.1875 50.5 C51.0251118 53.0223216 51.83044631 54.49133893 53 58 C53.99 58.495 53.99 58.495 55 59 C55.495 58.01 55.495 58.01 56 57 C56.474375 57.804375 56.94875 58.60875 57.4375 59.4375 C58.76900154 61.84753488 58.76900154 61.84753488 60 63 C62.32817964 63.36760731 64.6618385 63.70241581 67 64 C67.33 65.32 67.66 66.64 68 68 C66.515 68.495 66.515 68.495 65 69 C65 68.34 65 67.68 65 67 C63.98679687 67.08121094 62.97359375 67.16242188 61.9296875 67.24609375 C51.31770601 67.84505059 51.31770601 67.84505059 47.84375 65.6171875 C46.37979166 63.81838762 45.18843502 61.98906493 44 60 C42.3545622 58.31237149 40.68711423 56.6459651 39 55 C32.48257373 48.63002681 32.48257373 48.63002681 29.75 45.0625 C29.1725 44.381875 28.595 43.70125 28 43 C27.01 43 26.02 43 25 43 C24.731875 42.38125 24.46375 41.7625 24.1875 41.125 C23.04443152 38.7004767 23.04443152 38.7004767 20 37 C20.33 45.91 20.66 54.82 21 64 C25.455 63.505 25.455 63.505 30 63 C30 64.65 30 66.3 30 68 C28.515 68.495 28.515 68.495 27 69 C27 68.34 27 67.68 27 67 C22.38 67 17.76 67 13 67 C12.505 67.99 12.505 67.99 12 69 C10.41632253 68.85795259 8.83306682 68.71119847 7.25 68.5625 C5.92742187 68.44068359 5.92742187 68.44068359 4.578125 68.31640625 C2.30649548 68.03761535 0.20148177 67.61209423 -2 67 C-2 65.68 -2 64.36 -2 63 C1.96 63.33 5.92 63.66 10 64 C8.93354885 62.70366379 8.93354885 62.70366379 6.4375 62.9375 C5.633125 62.958125 4.82875 62.97875 4 63 C5.32 62.34 6.64 61.68 8 61 C8 59.68 8 58.36 8 57 C8.99 57 9.98 57 11 57 C10.67 39.84 10.34 22.68 10 5 C5.545 5.495 5.545 5.495 1 6 C0.34 5.34 -0.32 4.68 -1 4 C-0.67 2.68 -0.34 1.36 0 0 Z M1 2 C2 4 2 4 2 4 Z M21 5 C21.01160156 5.69867188 21.02320313 6.39734375 21.03515625 7.1171875 C21.04417969 8.02726563 21.05320312 8.93734375 21.0625 9.875 C21.07410156 10.77992188 21.08570313 11.68484375 21.09765625 12.6171875 C21 15 21 15 20 17 C19.9283265 19.55157655 19.90691558 22.07472971 19.9375 24.625 C19.94201172 25.33140625 19.94652344 26.0378125 19.95117188 26.765625 C19.96296125 28.51045275 19.98089676 30.255237 20 32 C27.38785593 31.83034151 33.00514258 30.45187724 39 26 C42.26505203 22.43812506 42.56262808 18.84463871 42.4375 14.16015625 C41.74040253 10.71823748 39.69040213 9.08506165 37 7 C36.01 7.495 36.01 7.495 35 8 C35 7.34 35 6.68 35 6 C31.85069107 4.95023036 29.61185544 4.89868405 26.3125 4.9375 C25.31863281 4.94652344 24.32476562 4.95554688 23.30078125 4.96484375 C22.54152344 4.97644531 21.78226562 4.98804688 21 5 Z M32 34 C32.33 34.66 32.66 35.32 33 36 C33.66 35.34 34.32 34.68 35 34 C34.01 34 33.02 34 32 34 Z " fill="#030813" transform="translate(286,156)"/>
<path d="M0 0 C5.15947346 -0.07440448 10.31863151 -0.12872191 15.47851562 -0.16479492 C17.23215173 -0.17983995 18.98575047 -0.20028104 20.73925781 -0.22631836 C23.26637009 -0.26289121 25.79298296 -0.2797692 28.3203125 -0.29296875 C29.48785568 -0.31619453 29.48785568 -0.31619453 30.6789856 -0.33988953 C35.56920565 -0.34138631 38.68378494 0.47472709 43 3 C45.23525035 3.68636625 45.23525035 3.68636625 47 4 C48.79266753 14.7560052 48.14160098 19.78759852 42 29 C42.17902289 31.80842159 42.83491793 32.83136013 44.8125 34.8515625 C45.534375 35.43679687 46.25625 36.02203125 47 36.625 C50.91238671 39.82477341 50.91238671 39.82477341 52 42 C52.53526388 47.37018847 52.70645486 51.68128426 50.125 56.5 C49.42375 57.325 48.7225 58.15 48 59 C47.34 59.99 46.68 60.98 46 62 C43.67451993 62.69356423 41.34119555 63.36149212 39 64 C38.67 64.66 38.34 65.32 38 66 C25.46 66 12.92 66 0 66 C0.33 64.68 0.66 63.36 1 62 C3.97 61.505 3.97 61.505 7 61 C7 42.19 7 23.38 7 4 C4.69 3.67 2.38 3.34 0 3 C0 2.01 0 1.02 0 0 Z M20 3 C20.33 3.99 20.66 4.98 21 6 C20.34 6 19.68 6 19 6 C18.67 5.34 18.34 4.68 18 4 C18 12.58 18 21.16 18 30 C27.92491402 30.13211343 27.92491402 30.13211343 35.3125 24.875 C37.60949193 20.96160634 38.19919117 17.51765565 38 13 C36.71951184 9.15853552 35.73972552 7.52322049 32.4375 5.1875 C31.633125 4.795625 30.82875 4.40375 30 4 C29.34 3.67 28.68 3.34 28 3 C26.62657169 2.9310528 25.24997898 2.91532292 23.875 2.9375 C22.59625 2.958125 21.3175 2.97875 20 3 Z M33.75 30.875 C33.1725 31.24625 32.595 31.6175 32 32 C34.64 32 37.28 32 40 32 C37.05590637 30.06403854 37.05590637 30.06403854 33.75 30.875 Z M18 34 C18 43.24 18 52.48 18 62 C31.35675487 62.65670381 31.35675487 62.65670381 39.25 56.1875 C41.70123268 53.12345915 41.86799859 50.89404164 42 47 C41.3145969 42.58295777 40.37209159 39.99416351 37 37.125 C29.76591336 32.0008553 30.66709094 34 18 34 Z " fill="#030813" transform="translate(164,158)"/>
<path d="M0 0 C3.97915159 -0.02886984 7.95827653 -0.04675406 11.9375 -0.0625 C13.07380859 -0.07087891 14.21011719 -0.07925781 15.38085938 -0.08789062 C16.46044922 -0.09111328 17.54003906 -0.09433594 18.65234375 -0.09765625 C20.15269165 -0.10551147 20.15269165 -0.10551147 21.68334961 -0.11352539 C24 0 24 0 25 1 C26.68608966 1.07205511 28.37500659 1.08386068 30.0625 1.0625 C30.98160156 1.05347656 31.90070313 1.04445313 32.84765625 1.03515625 C33.55792969 1.02355469 34.26820313 1.01195313 35 1 C35 1.33 35 1.66 35 2 C37.31 2.33 39.62 2.66 42 3 C41.67 8.94 41.34 14.88 41 21 C39.68 21 38.36 21 37 21 C37 18.03 37 15.06 37 12 C36.319375 11.731875 35.63875 11.46375 34.9375 11.1875 C32.76649664 10.30986034 30.62393284 9.36111168 28.5 8.375 C25.28749681 7.11294518 23.38070861 6.69266285 20 7 C20 6.34 20 5.68 20 5 C3.57274188 4.80255094 3.57274188 4.80255094 -10.4375 12.25 C-10.953125 12.8275 -11.46875 13.405 -12 14 C-12.66 14 -13.32 14 -14 14 C-14.2475 14.556875 -14.495 15.11375 -14.75 15.6875 C-16 18 -16 18 -17.9453125 20.25390625 C-20.18223393 23.243556 -21.09749827 25.67533013 -22.125 29.25 C-22.45242188 30.38308594 -22.77984375 31.51617187 -23.1171875 32.68359375 C-24.20530509 36.77125673 -25.15695577 40.85503256 -26 45 C-25.34 45 -24.68 45 -24 45 C-24.06960938 46.72283203 -24.06960938 46.72283203 -24.140625 48.48046875 C-24.49336506 60.94484845 -23.87860027 72.41582508 -15.3671875 82.31640625 C-14 84 -14 84 -13.08203125 86.11328125 C-11.65711423 88.59788385 -10.52893847 88.84887472 -7.8125 89.625 C-6.59626953 89.97884766 -6.59626953 89.97884766 -5.35546875 90.33984375 C-4.18951172 90.66662109 -4.18951172 90.66662109 -3 91 C-1.88625 91.391875 -0.7725 91.78375 0.375 92.1875 C7.48843932 93.78189157 14.18652423 93.69369972 21 91 C22.3921875 90.7834375 22.3921875 90.7834375 23.8125 90.5625 C28.0400129 89.81646831 31.95710526 88.41693835 36 87 C36.99 86.67 37.98 86.34 39 86 C39.33 87.98 39.66 89.96 40 92 C38.35 92.66 36.7 93.32 35 94 C35 93.34 35 92.68 35 92 C34.05640625 92.50660156 34.05640625 92.50660156 33.09375 93.0234375 C32.2378125 93.46945313 31.381875 93.91546875 30.5 94.375 C29.6646875 94.81585938 28.829375 95.25671875 27.96875 95.7109375 C21.55406067 98.49626313 15.59371906 99.34139415 8.6875 99.25 C7.95128418 99.24395752 7.21506836 99.23791504 6.45654297 99.23168945 C-8.93432364 98.95414924 -8.93432364 98.95414924 -12.6640625 95.42578125 C-13.10492188 94.95527344 -13.54578125 94.48476562 -14 94 C-14.66 94 -15.32 94 -16 94 C-17 93 -18 92 -19 91 C-19.66 91 -20.32 91 -21 91 C-22.39131742 89.40288354 -23.71517335 87.74647316 -25 86.0625 C-27.54336771 82.48783076 -27.54336771 82.48783076 -31 80 C-31 78.68 -31 77.36 -31 76 C-31.66 75.34 -32.32 74.68 -33 74 C-33.81640625 71.86328125 -33.81640625 71.86328125 -34.5625 69.3125 C-34.81128906 68.48363281 -35.06007813 67.65476562 -35.31640625 66.80078125 C-36.78845874 60.76957191 -37.19448369 54.86317552 -37.1875 48.6875 C-37.18669434 47.94346924 -37.18588867 47.19943848 -37.18505859 46.43286133 C-37.10461087 39.17915843 -36.43791458 32.48110563 -33 26 C-32.71382813 25.35804688 -32.42765625 24.71609375 -32.1328125 24.0546875 C-28.35471768 17.20200516 -21.98784098 11.57538848 -15.62890625 7.15625 C-13.85100913 5.96255131 -13.85100913 5.96255131 -12 4 C-9.42906918 3.14302306 -6.95517072 2.51199363 -4.3125 1.9375 C-3.50425781 1.76089844 -2.69601562 1.58429688 -1.86328125 1.40234375 C-1.24839844 1.26957031 -0.63351562 1.13679688 0 1 C0 0.67 0 0.34 0 0 Z " fill="#030914" transform="translate(420,125)"/>
<path d="M0 0 C2.75925649 0.67143542 5.29877359 0.66731374 8.13671875 0.66015625 C9.15636719 0.66273438 10.17601562 0.6653125 11.2265625 0.66796875 C14.00352607 0.54389942 16.48670228 0.10527465 19.19921875 -0.46484375 C25.88910258 -0.89400611 32.54956275 -0.13822664 39.19921875 0.53515625 C39.19921875 4.49515625 39.19921875 8.45515625 39.19921875 12.53515625 C38.20921875 12.53515625 37.21921875 12.53515625 36.19921875 12.53515625 C35.70421875 9.56515625 35.70421875 9.56515625 35.19921875 6.53515625 C32.22921875 6.53515625 29.25921875 6.53515625 26.19921875 6.53515625 C26.19921875 5.87515625 26.19921875 5.21515625 26.19921875 4.53515625 C21.57921875 4.53515625 16.95921875 4.53515625 12.19921875 4.53515625 C12.25908631 7.97454753 12.34605241 11.40952582 12.44921875 14.84765625 C12.46339844 15.82412109 12.47757813 16.80058594 12.4921875 17.80664062 C12.52441406 18.74443359 12.55664062 19.68222656 12.58984375 20.6484375 C12.61079102 21.51251221 12.63173828 22.37658691 12.65332031 23.2668457 C13.02066541 25.68481832 13.02066541 25.68481832 15.0625 27.3359375 C17.92897366 28.94472619 19.72215097 28.64524846 22.94921875 28.22265625 C23.9340625 28.10277344 24.91890625 27.98289063 25.93359375 27.859375 C26.68125 27.75238281 27.42890625 27.64539063 28.19921875 27.53515625 C28.69421875 29.02015625 28.69421875 29.02015625 29.19921875 30.53515625 C29.19921875 27.56515625 29.19921875 24.59515625 29.19921875 21.53515625 C30.51921875 21.86515625 31.83921875 22.19515625 33.19921875 22.53515625 C33.11542969 23.64375 33.03164063 24.75234375 32.9453125 25.89453125 C32.8421157 27.35804953 32.73926949 28.82159256 32.63671875 30.28515625 C32.58064453 31.01476562 32.52457031 31.744375 32.46679688 32.49609375 C32.22211967 36.08469276 32.20255616 39.0854285 33.19921875 42.53515625 C31.21921875 43.03015625 31.21921875 43.03015625 29.19921875 43.53515625 C28.86921875 42.87515625 28.53921875 42.21515625 28.19921875 41.53515625 C27.53921875 41.53515625 26.87921875 41.53515625 26.19921875 41.53515625 C25.86921875 40.87515625 25.53921875 40.21515625 25.19921875 39.53515625 C21.20389951 37.36626866 18.57066657 37.51854048 14.19921875 38.53515625 C14.19921875 37.54515625 14.19921875 36.55515625 14.19921875 35.53515625 C13.20921875 35.53515625 12.21921875 35.53515625 11.19921875 35.53515625 C11.69421875 43.45515625 11.69421875 43.45515625 12.19921875 51.53515625 C12.52921875 51.53515625 12.85921875 51.53515625 13.19921875 51.53515625 C13.19921875 53.18515625 13.19921875 54.83515625 13.19921875 56.53515625 C12.53921875 56.53515625 11.87921875 56.53515625 11.19921875 56.53515625 C11.52921875 58.51515625 11.85921875 60.49515625 12.19921875 62.53515625 C16.65421875 62.04015625 16.65421875 62.04015625 21.19921875 61.53515625 C21.19921875 61.20515625 21.19921875 60.87515625 21.19921875 60.53515625 C22.14796875 60.55578125 23.09671875 60.57640625 24.07421875 60.59765625 C27.10588158 60.76067451 27.10588158 60.76067451 29.19921875 59.53515625 C29.19921875 60.19515625 29.19921875 60.85515625 29.19921875 61.53515625 C33.65421875 61.04015625 33.65421875 61.04015625 38.19921875 60.53515625 C37.70421875 57.56515625 37.70421875 57.56515625 37.19921875 54.53515625 C40.16921875 54.04015625 40.16921875 54.04015625 43.19921875 53.53515625 C42.86921875 57.82515625 42.53921875 62.11515625 42.19921875 66.53515625 C24.70921875 66.86515625 7.21921875 67.19515625 -10.80078125 67.53515625 C-10.80078125 66.21515625 -10.80078125 64.89515625 -10.80078125 63.53515625 C-5.35578125 61.55515625 -5.35578125 61.55515625 0.19921875 59.53515625 C0.19136353 57.62222778 0.19136353 57.62222778 0.18334961 55.6706543 C0.16511266 50.89396886 0.15371905 46.11728644 0.14428711 41.34057617 C0.13928933 39.28165162 0.13248888 37.22273056 0.1237793 35.16381836 C0.11151255 32.18732842 0.10594474 29.2108858 0.1015625 26.234375 C0.09382057 24.87586678 0.09382057 24.87586678 0.08592224 23.48991394 C0.08537586 17.12346675 0.52785516 10.86508101 1.19921875 4.53515625 C-1.44078125 4.86515625 -4.08078125 5.19515625 -6.80078125 5.53515625 C-6.80078125 3.88515625 -6.80078125 2.23515625 -6.80078125 0.53515625 C-2.29277698 -0.59184482 -2.29277698 -0.59184482 0 0 Z M11.19921875 27.53515625 C11.19921875 28.85515625 11.19921875 30.17515625 11.19921875 31.53515625 C15.48921875 31.53515625 19.77921875 31.53515625 24.19921875 31.53515625 C24.19921875 31.20515625 24.19921875 30.87515625 24.19921875 30.53515625 C20.89921875 30.53515625 17.59921875 30.53515625 14.19921875 30.53515625 C14.19921875 29.54515625 14.19921875 28.55515625 14.19921875 27.53515625 C13.20921875 27.53515625 12.21921875 27.53515625 11.19921875 27.53515625 Z " fill="#030814" transform="translate(667.80078125,156.46484375)"/>
<path d="M0 0 C1.65 0 3.3 0 5 0 C6.53015493 3.75357776 8.06009591 7.50724264 9.58984375 11.26098633 C10.10964254 12.53640059 10.62949849 13.81179155 11.14941406 15.0871582 C11.89924114 16.92653285 12.6488416 18.76599988 13.3984375 20.60546875 C13.84880371 21.71043701 14.29916992 22.81540527 14.76318359 23.95385742 C15.37540771 25.461698 15.37540771 25.461698 16 27 C16.3707666 27.89887939 16.7415332 28.79775879 17.12353516 29.72387695 C18.05089411 32.13216873 18.56464689 34.4604402 19 37 C19.66 37 20.32 37 21 37 C22.49821059 40.37097383 23 42.20442119 23 46 C23.95456421 48.82431411 25.31011901 51.45220555 26.625 54.125 C26.95628906 54.85332031 27.28757812 55.58164063 27.62890625 56.33203125 C29.49175536 60.13505528 30.296337 61.67923715 34.2734375 63.4921875 C35.17320312 63.65976563 36.07296875 63.82734375 37 64 C37 64.99 37 65.98 37 67 C30.73 67.33 24.46 67.66 18 68 C18 68.33 18 68.66 18 69 C16.02 69 14.04 69 12 69 C12 65.04 12 61.08 12 57 C13.65 57 15.3 57 17 57 C15.35 52.38 13.7 47.76 12 43 C3.09 43 -5.82 43 -15 43 C-15.66 45.31 -16.32 47.62 -17 50 C-17.99 50.495 -17.99 50.495 -19 51 C-18.67 52.65 -18.34 54.3 -18 56 C-18.66 56 -19.32 56 -20 56 C-20.66 57.98 -21.32 59.96 -22 62 C-20.35 62.66 -18.7 63.32 -17 64 C-16.67 63.34 -16.34 62.68 -16 62 C-16 62.66 -16 63.32 -16 64 C-15.34 64 -14.68 64 -14 64 C-14.33 65.65 -14.66 67.3 -15 69 C-15.66 68.67 -16.32 68.34 -17 68 C-19.37402501 67.92883618 -21.75000677 67.91590915 -24.125 67.9375 C-25.40632813 67.94652344 -26.68765625 67.95554687 -28.0078125 67.96484375 C-28.99523437 67.97644531 -29.98265625 67.98804688 -31 68 C-31 68.33 -31 68.66 -31 69 C-33.97 69 -36.94 69 -40 69 C-40.66 67.35 -41.32 65.7 -42 64 C-39.05313935 62.03542624 -36.95609755 60.9915276 -33.4375 60.3125 C-29.73925279 58.90044198 -29.50804916 58.74874114 -27.9375 55.4375 C-27.48890625 54.36435547 -27.48890625 54.36435547 -27.03125 53.26953125 C-25.91146892 50.80516456 -24.52421336 48.81450888 -22.9375 46.625 C-19.38227365 41.44478383 -17.68118925 35.92887938 -16.61328125 29.76953125 C-16.41089844 29.18558594 -16.20851563 28.60164063 -16 28 C-15.01 27.67 -14.02 27.34 -13 27 C-11.66346741 24.71797275 -10.49751036 22.50795631 -9.375 20.125 C-9.06304687 19.48691406 -8.75109375 18.84882813 -8.4296875 18.19140625 C-7.12152898 15.49051 -5.94988049 12.84964146 -5 10 C-4.525625 9.401875 -4.05125 8.80375 -3.5625 8.1875 C-1.7047323 5.58662522 -0.9010563 3.049729 0 0 Z M-1 12 C0 15 0 15 0 15 Z M-2 15 C-1 17 -1 17 -1 17 Z M0 15 C1 17 1 17 1 17 Z M-3 17 C-4.39489126 19.57426284 -5.76570979 22.15703057 -7.125 24.75 C-7.52332031 25.47960937 -7.92164063 26.20921875 -8.33203125 26.9609375 C-8.69941406 27.66992188 -9.06679688 28.37890625 -9.4453125 29.109375 C-9.79094238 29.75874023 -10.13657227 30.40810547 -10.49267578 31.07714844 C-11.20419361 33.05927728 -11.20419361 33.05927728 -10.26123047 35.19628906 C-9.09196761 37.27211541 -9.09196761 37.27211541 -6.375 37.75 C-5.59125 37.8325 -4.8075 37.915 -4 38 C-4 38.33 -4 38.66 -4 39 C0.62 39 5.24 39 10 39 C9.09905971 34.49529853 7.86297424 31.15586562 6 27 C5.43503273 25.68856015 4.87243671 24.37609559 4.3125 23.0625 C3.879375 22.051875 3.44625 21.04125 3 20 C1.68 20 0.36 20 -1 20 C-1.66 19.01 -2.32 18.02 -3 17 Z M1 17 C2 19 2 19 2 19 Z M-15 29 C-14 31 -14 31 -14 31 Z M-13 38 C-9 39 -9 39 -9 39 Z M20 40 C21 42 21 42 21 42 Z M17 60 C18 63 18 63 18 63 Z " fill="#020712" transform="translate(500,156)"/>
<path d="M0 0 C4.95 0 9.9 0 15 0 C15 0.33 15 0.66 15 1 C19.62 1 24.24 1 29 1 C29 0.67 29 0.34 29 0 C33.62 0 38.24 0 43 0 C43 0.66 43 1.32 43 2 C44.32 2 45.64 2 47 2 C47.495 8.435 47.495 8.435 48 15 C46.68 15 45.36 15 44 15 C42.61876037 13.03277992 41.28511874 11.03131672 40 9 C39.01 8.67 38.02 8.34 37 8 C37 7.34 37 6.68 37 6 C34.69 6.33 32.38 6.66 30 7 C30 6.67 30 6.34 30 6 C24.555 5.505 24.555 5.505 19 5 C19 13.91 19 22.82 19 32 C22.3 31.67 25.6 31.34 29 31 C29 30.01 29 29.02 29 28 C31.64 28 34.28 28 37 28 C37 27.01 37 26.02 37 25 C37.99 25 38.98 25 40 25 C40 31.27 40 37.54 40 44 C38.68 44 37.36 44 36 44 C36 43.34 36 42.68 36 42 C35.01 42 34.02 42 33 42 C32.67 41.34 32.34 40.68 32 40 C28.71508627 37.81005752 27.16904361 37.64722661 23.3125 37.375 C22.31863281 37.30023438 21.32476562 37.22546875 20.30078125 37.1484375 C19.54152344 37.09945312 18.78226563 37.05046875 18 37 C18.33 38.65 18.66 40.3 19 42 C19.33 42 19.66 42 20 42 C20.02726927 44.35424675 20.04696719 46.70816962 20.0625 49.0625 C20.07410156 50.37347656 20.08570313 51.68445313 20.09765625 53.03515625 C20.00452335 56.8163519 19.61448726 60.27920707 19 64 C23.29 63.34 27.58 62.68 32 62 C32 61.67 32 61.34 32 61 C32.9075 61.04125 33.815 61.0825 34.75 61.125 C37.8782046 61.00468444 39.38614006 60.6085292 42 59 C42.33 59.66 42.66 60.32 43 61 C43.99 61 44.98 61 46 61 C46 58.69 46 56.38 46 54 C47.65 54.33 49.3 54.66 51 55 C50.88652381 56.97986082 50.7589065 58.95891598 50.625 60.9375 C50.55539062 62.03964844 50.48578125 63.14179688 50.4140625 64.27734375 C50.20910156 65.62505859 50.20910156 65.62505859 50 67 C46.7439337 68.62803315 43.16468009 68.09892042 39.58984375 68.0625 C38.74837296 68.05871338 37.90690216 68.05492676 37.03993225 68.05102539 C33.43712395 68.0346968 29.83442875 68.00679798 26.23168945 67.97949219 C23.6010797 67.96124574 20.97048936 67.94924444 18.33984375 67.9375 C17.53949203 67.92920166 16.73914032 67.92090332 15.91453552 67.91235352 C10.53277024 67.88937592 5.34024809 68.32352197 0 69 C0 67.35 0 65.7 0 64 C2.97 64 5.94 64 9 64 C9.02900455 60.3958502 9.04680018 56.79173038 9.0625 53.1875 C9.07087891 52.16333984 9.07925781 51.13917969 9.08789062 50.08398438 C9.09111328 49.10107422 9.09433594 48.11816406 9.09765625 47.10546875 C9.10289307 46.19949951 9.10812988 45.29353027 9.11352539 44.36010742 C9.09920981 41.84715961 9.09920981 41.84715961 8 39 C8.05113176 37.07676873 8.17443572 35.15506845 8.33984375 33.23828125 C8.43330078 32.12001953 8.52675781 31.00175781 8.62304688 29.84960938 C8.72681641 28.68236328 8.83058594 27.51511719 8.9375 26.3125 C9.03740234 25.13365234 9.13730469 23.95480469 9.24023438 22.74023438 C9.48797741 19.82630444 9.74145451 16.91298808 10 14 C9.34 13.67 8.68 13.34 8 13 C8.33 10.36 8.66 7.72 9 5 C7.70366379 6.06645115 7.70366379 6.06645115 7.9375 8.5625 C7.958125 9.366875 7.97875 10.17125 8 11 C7.34 10.01 6.68 9.02 6 8 C2.93443402 7.26656572 2.93443402 7.26656572 0 7 C0 4.69 0 2.38 0 0 Z M42 7 C43 9 43 9 43 9 Z " fill="#030813" transform="translate(227,156)"/>
<path d="M0 0 C1.8871875 0.0309375 1.8871875 0.0309375 3.8125 0.0625 C3.72355469 1.52816406 3.72355469 1.52816406 3.6328125 3.0234375 C3.63512059 7.60960336 5.07480001 11.44197352 6.6875 15.6875 C6.95691406 16.42484375 7.22632813 17.1621875 7.50390625 17.921875 C8.5989929 20.90264744 9.73003945 23.86038516 10.9296875 26.80078125 C11.80983905 29.0556828 12.44509444 31.28598279 13.0625 33.625 C14.58675294 38.8465434 16.88816452 43.49423722 19.41015625 48.30078125 C20.8125 51.0625 20.8125 51.0625 21.80859375 53.85546875 C22.13988281 54.58378906 22.47117187 55.31210938 22.8125 56.0625 C24.2975 56.5575 24.2975 56.5575 25.8125 57.0625 C26.83278865 58.38037285 27.83221384 59.71460653 28.8125 61.0625 C30.2975 62.0525 30.2975 62.0525 31.8125 63.0625 C32.5 65.6875 32.5 65.6875 32.8125 68.0625 C24.38008584 69.41770942 16.27584215 68.73749048 7.8125 68.0625 C7.8125 66.7425 7.8125 65.4225 7.8125 64.0625 C9.7925 64.0625 11.7725 64.0625 13.8125 64.0625 C13.21066251 62.04204558 12.53943904 60.04138961 11.8125 58.0625 C10.8225 57.5675 10.8225 57.5675 9.8125 57.0625 C9.8125 54.7525 9.8125 52.4425 9.8125 50.0625 C9.1525 50.0625 8.4925 50.0625 7.8125 50.0625 C7.8125 48.7425 7.8125 47.4225 7.8125 46.0625 C7.173125 45.753125 6.53375 45.44375 5.875 45.125 C3.8125 44.0625 3.8125 44.0625 2.8125 43.0625 C0.62957226 42.82768307 -1.55953174 42.64886677 -3.75 42.5 C-4.94753906 42.41621094 -6.14507812 42.33242187 -7.37890625 42.24609375 C-8.76916016 42.15521484 -8.76916016 42.15521484 -10.1875 42.0625 C-10.1875 42.7225 -10.1875 43.3825 -10.1875 44.0625 C-13.1575 44.0625 -16.1275 44.0625 -19.1875 44.0625 C-22.4209489 50.52939779 -23.88610662 55.84412853 -24.1875 63.0625 C-22.8675 63.3925 -21.5475 63.7225 -20.1875 64.0625 C-20.1875 65.3825 -20.1875 66.7025 -20.1875 68.0625 C-28.11895662 69.50458302 -36.71979593 70.52280976 -44.1875 67.0625 C-43.8575 66.0725 -43.5275 65.0825 -43.1875 64.0625 C-40.8775 64.0625 -38.5675 64.0625 -36.1875 64.0625 C-35.91808594 63.33933594 -35.64867188 62.61617187 -35.37109375 61.87109375 C-34.20168373 59.09615709 -32.83666133 56.68061482 -31.25 54.125 C-26.85440565 47.54098234 -26.85440565 47.54098234 -25.1875 40.0625 C-24.21434093 39.03636092 -23.21042379 38.03903823 -22.1875 37.0625 C-20.98864894 35.13461028 -20.98864894 35.13461028 -20 33.0625 C-19.65582031 32.381875 -19.31164062 31.70125 -18.95703125 31 C-18.00293592 28.94526517 -18.00293592 28.94526517 -18.1875 26.0625 C-17.5275 26.0625 -16.8675 26.0625 -16.1875 26.0625 C-16.1875 25.0725 -16.1875 24.0825 -16.1875 23.0625 C-15.5275 23.0625 -14.8675 23.0625 -14.1875 23.0625 C-14.1875 21.7425 -14.1875 20.4225 -14.1875 19.0625 C-13.5275 19.0625 -12.8675 19.0625 -12.1875 19.0625 C-12.249375 18.299375 -12.31125 17.53625 -12.375 16.75 C-12.15051146 13.53233093 -11.47051597 13.16287469 -9.1875 11.0625 C-8.49590599 9.21524948 -8.49590599 9.21524948 -8.1875 7.0625 C-7.9090625 5.45375 -7.9090625 5.45375 -7.625 3.8125 C-7.480625 2.905 -7.33625 1.9975 -7.1875 1.0625 C-4.43671116 0.14557039 -2.82801087 -0.04636083 0 0 Z M1.8125 3.0625 C2.8125 6.0625 2.8125 6.0625 2.8125 6.0625 Z M-6.1875 12.0625 C-6.5175 13.2175 -6.8475 14.3725 -7.1875 15.5625 C-9.0338535 21.17326353 -11.71202423 26.32514623 -14.40625 31.56445312 C-15.85073452 34.37468146 -17.18643286 37.05929858 -18.1875 40.0625 C-10.2675 40.0625 -2.3475 40.0625 5.8125 40.0625 C3.60900776 32.39495503 3.60900776 32.39495503 0.76953125 25.1484375 C0.41826172 24.36855469 0.06699219 23.58867187 -0.29492188 22.78515625 C-0.82956055 21.62306641 -0.82956055 21.62306641 -1.375 20.4375 C-1.74302734 19.62410156 -2.11105469 18.81070313 -2.49023438 17.97265625 C-3.38370832 16.00005144 -4.28478402 14.03089256 -5.1875 12.0625 C-5.5175 12.0625 -5.8475 12.0625 -6.1875 12.0625 Z M10.8125 53.0625 C11.8125 55.0625 11.8125 55.0625 11.8125 55.0625 Z M-26.1875 60.0625 C-25.1875 62.0625 -25.1875 62.0625 -25.1875 62.0625 Z M25.8125 61.0625 C26.8125 63.0625 26.8125 63.0625 26.8125 63.0625 Z " fill="#030712" transform="translate(124.1875,155.9375)"/>
<path d="M0 0 C0.54140625 0.36867187 1.0828125 0.73734375 1.640625 1.1171875 C1.640625 1.7771875 1.640625 2.4371875 1.640625 3.1171875 C-0.34537837 4.4712807 -2.34755043 5.80176374 -4.359375 7.1171875 C-5.72824451 8.41401124 -7.0763041 9.73541884 -8.359375 11.1171875 C-7.39 11.5090625 -6.420625 11.9009375 -5.421875 12.3046875 C-4.41125 12.9028125 -3.400625 13.5009375 -2.359375 14.1171875 C-1.864375 16.5921875 -1.864375 16.5921875 -1.359375 19.1171875 C-1.029375 14.4971875 -0.699375 9.8771875 -0.359375 5.1171875 C1.950625 5.1171875 4.260625 5.1171875 6.640625 5.1171875 C6.640625 4.4571875 6.640625 3.7971875 6.640625 3.1171875 C9.610625 2.1271875 12.580625 1.1371875 15.640625 0.1171875 C16.135625 2.5921875 16.135625 2.5921875 16.640625 5.1171875 C15.980625 5.4471875 15.320625 5.7771875 14.640625 6.1171875 C14.7025 7.1484375 14.764375 8.1796875 14.828125 9.2421875 C14.62926905 13.35187723 13.69594697 15.60601246 11.640625 19.1171875 C10.980625 19.1171875 10.320625 19.1171875 9.640625 19.1171875 C8.320625 22.7471875 7.000625 26.3771875 5.640625 30.1171875 C6.630625 30.4471875 7.620625 30.7771875 8.640625 31.1171875 C5.670625 31.1171875 2.700625 31.1171875 -0.359375 31.1171875 C-0.359375 31.7771875 -0.359375 32.4371875 -0.359375 33.1171875 C-7.1215251 33.44734673 -12.38176933 33.49583418 -18.359375 30.1171875 C-19.56210319 27.71173112 -19.46008972 26.16721797 -19.421875 23.4921875 C-19.41285156 22.67492187 -19.40382813 21.85765625 -19.39453125 21.015625 C-19.38292969 20.38914062 -19.37132812 19.76265625 -19.359375 19.1171875 C-21.009375 19.1171875 -22.659375 19.1171875 -24.359375 19.1171875 C-27.97531057 24.66421588 -27.97531057 24.66421588 -28.359375 31.1171875 C-29.019375 31.1171875 -29.679375 31.1171875 -30.359375 31.1171875 C-30.359375 31.7771875 -30.359375 32.4371875 -30.359375 33.1171875 C-32.275963 33.14430903 -34.1926623 33.16363847 -36.109375 33.1796875 C-37.71039063 33.19708984 -37.71039063 33.19708984 -39.34375 33.21484375 C-41.92155145 33.13136572 -43.8998331 32.78418191 -46.359375 32.1171875 C-48.69238433 32.07830401 -51.02647301 32.072324 -53.359375 32.1171875 C-53.359375 31.4571875 -53.359375 30.7971875 -53.359375 30.1171875 C-52.369375 29.7871875 -51.379375 29.4571875 -50.359375 29.1171875 C-49.11438891 26.79448791 -49.11438891 26.79448791 -48.171875 24.0546875 C-47.82769531 23.13558594 -47.48351562 22.21648437 -47.12890625 21.26953125 C-46.87496094 20.55925781 -46.62101562 19.84898437 -46.359375 19.1171875 C-47.349375 18.7871875 -48.339375 18.4571875 -49.359375 18.1171875 C-49.08222656 17.52550781 -48.80507813 16.93382812 -48.51953125 16.32421875 C-46.22646086 11.44072741 -46.22646086 11.44072741 -44.921875 6.2421875 C-44.359375 4.1171875 -44.359375 4.1171875 -42.421875 2.3046875 C-34.47034504 -0.77855881 -24.65743978 1.38883072 -16.359375 2.1171875 C-16.359375 3.1071875 -16.359375 4.0971875 -16.359375 5.1171875 C-15.699375 5.1171875 -15.039375 5.1171875 -14.359375 5.1171875 C-14.029375 3.7971875 -13.699375 2.4771875 -13.359375 1.1171875 C-13.359375 1.7771875 -13.359375 2.4371875 -13.359375 3.1171875 C-12.61171875 2.80523437 -11.8640625 2.49328125 -11.09375 2.171875 C-10.10890625 1.78257812 -9.1240625 1.39328125 -8.109375 0.9921875 C-7.13484375 0.59773437 -6.1603125 0.20328125 -5.15625 -0.203125 C-2.359375 -0.8828125 -2.359375 -0.8828125 0 0 Z M-36.359375 3.1171875 C-39.52298921 8.54052614 -40.44016505 14.98912117 -41.359375 21.1171875 C-41.029375 20.4571875 -40.699375 19.7971875 -40.359375 19.1171875 C-39.699375 19.1171875 -39.039375 19.1171875 -38.359375 19.1171875 C-38.359375 20.4371875 -38.359375 21.7571875 -38.359375 23.1171875 C-36.709375 22.7871875 -35.059375 22.4571875 -33.359375 22.1171875 C-33.029375 21.1271875 -32.699375 20.1371875 -32.359375 19.1171875 C-30.709375 18.7871875 -29.059375 18.4571875 -27.359375 18.1171875 C-27.359375 14.4871875 -27.359375 10.8571875 -27.359375 7.1171875 C-29.009375 7.4471875 -30.659375 7.7771875 -32.359375 8.1171875 C-32.029375 7.1271875 -31.699375 6.1371875 -31.359375 5.1171875 C-32.679375 5.1171875 -33.999375 5.1171875 -35.359375 5.1171875 C-35.689375 4.4571875 -36.019375 3.7971875 -36.359375 3.1171875 Z M-31.359375 3.1171875 C-30.359375 5.1171875 -30.359375 5.1171875 -30.359375 5.1171875 Z M-43.359375 5.1171875 C-42.369375 6.6021875 -42.369375 6.6021875 -41.359375 8.1171875 C-41.359375 7.1271875 -41.359375 6.1371875 -41.359375 5.1171875 C-42.019375 5.1171875 -42.679375 5.1171875 -43.359375 5.1171875 Z M-14.359375 5.1171875 C-14.359375 6.7671875 -14.359375 8.4171875 -14.359375 10.1171875 C-12.049375 8.4671875 -9.739375 6.8171875 -7.359375 5.1171875 C-10.0260169 3.78386655 -11.52617803 4.44616717 -14.359375 5.1171875 Z M7.640625 5.1171875 C8.640625 9.1171875 8.640625 9.1171875 8.640625 9.1171875 Z M-26.359375 6.1171875 C-25.72 6.2409375 -25.080625 6.3646875 -24.421875 6.4921875 C-23.4009375 6.8015625 -23.4009375 6.8015625 -22.359375 7.1171875 C-22.029375 7.7771875 -21.699375 8.4371875 -21.359375 9.1171875 C-21.029375 8.1271875 -20.699375 7.1371875 -20.359375 6.1171875 C-22.339375 6.1171875 -24.319375 6.1171875 -26.359375 6.1171875 Z M-18.359375 6.1171875 C-17.359375 8.1171875 -17.359375 8.1171875 -17.359375 8.1171875 Z M-43.359375 8.1171875 C-42.359375 11.1171875 -42.359375 11.1171875 -42.359375 11.1171875 Z M-19.359375 8.1171875 C-18.359375 10.1171875 -18.359375 10.1171875 -18.359375 10.1171875 Z M12.640625 9.1171875 C13.640625 11.1171875 13.640625 11.1171875 13.640625 11.1171875 Z M-24.359375 10.1171875 C-23.359375 12.1171875 -23.359375 12.1171875 -23.359375 12.1171875 Z M6.640625 10.1171875 C7.640625 12.1171875 7.640625 12.1171875 7.640625 12.1171875 Z M-16.359375 11.1171875 C-15.359375 13.1171875 -15.359375 13.1171875 -15.359375 13.1171875 Z M11.640625 12.1171875 C12.640625 14.1171875 12.640625 14.1171875 12.640625 14.1171875 Z M-45.359375 13.1171875 C-44.359375 16.1171875 -44.359375 16.1171875 -44.359375 16.1171875 Z M-26.359375 13.1171875 C-25.359375 15.1171875 -25.359375 15.1171875 -25.359375 15.1171875 Z M5.640625 13.1171875 C6.640625 15.1171875 6.640625 15.1171875 6.640625 15.1171875 Z M-22.359375 14.1171875 C-21.359375 16.1171875 -21.359375 16.1171875 -21.359375 16.1171875 Z M-18.359375 14.1171875 C-17.359375 16.1171875 -17.359375 16.1171875 -17.359375 16.1171875 Z M-12.046875 15.4921875 C-13.5688207 17.02836008 -13.5688207 17.02836008 -13.359375 19.1171875 C-11.379375 19.1171875 -9.399375 19.1171875 -7.359375 19.1171875 C-7.029375 19.7771875 -6.699375 20.4371875 -6.359375 21.1171875 C-6.689375 18.8071875 -7.019375 16.4971875 -7.359375 14.1171875 C-10.33455073 13.80135102 -10.33455073 13.80135102 -12.046875 15.4921875 Z M10.640625 14.1171875 C11.640625 16.1171875 11.640625 16.1171875 11.640625 16.1171875 Z M4.640625 15.1171875 C5.640625 17.1171875 5.640625 17.1171875 5.640625 17.1171875 Z M-23.359375 16.1171875 C-22.359375 18.1171875 -22.359375 18.1171875 -22.359375 18.1171875 Z M-19.359375 16.1171875 C-18.359375 18.1171875 -18.359375 18.1171875 -18.359375 18.1171875 Z M-46.359375 17.1171875 C-45.359375 19.1171875 -45.359375 19.1171875 -45.359375 19.1171875 Z M-14.359375 19.1171875 C-13.359375 22.1171875 -13.359375 22.1171875 -13.359375 22.1171875 Z M3.640625 18.1171875 C2.320625 18.4471875 1.000625 18.7771875 -0.359375 19.1171875 C-0.359375 22.4171875 -0.359375 25.7171875 -0.359375 29.1171875 C-1.349375 29.6121875 -1.349375 29.6121875 -2.359375 30.1171875 C-0.40223479 29.91399976 -0.40223479 29.91399976 1.640625 29.1171875 C2.81014507 27.37918174 2.81014507 27.37918174 3.453125 25.2421875 C3.70707031 24.54351562 3.96101563 23.84484375 4.22265625 23.125 C4.85612774 20.92547157 4.85612774 20.92547157 3.640625 18.1171875 Z M-31.359375 21.1171875 C-30.359375 23.1171875 -30.359375 23.1171875 -30.359375 23.1171875 Z M-42.359375 22.1171875 C-41.359375 24.1171875 -41.359375 24.1171875 -41.359375 24.1171875 Z M-15.359375 22.1171875 C-15.359375 24.0971875 -15.359375 26.0771875 -15.359375 28.1171875 C-15.029375 28.1171875 -14.699375 28.1171875 -14.359375 28.1171875 C-14.359375 26.1371875 -14.359375 24.1571875 -14.359375 22.1171875 C-14.689375 22.1171875 -15.019375 22.1171875 -15.359375 22.1171875 Z M-8.359375 22.1171875 C-7.359375 25.1171875 -7.359375 25.1171875 -7.359375 25.1171875 Z M-32.359375 23.1171875 C-31.359375 25.1171875 -31.359375 25.1171875 -31.359375 25.1171875 Z M-43.359375 24.1171875 C-43.689375 26.0971875 -44.019375 28.0771875 -44.359375 30.1171875 C-43.699375 30.1171875 -43.039375 30.1171875 -42.359375 30.1171875 C-42.359375 28.1371875 -42.359375 26.1571875 -42.359375 24.1171875 C-42.689375 24.1171875 -43.019375 24.1171875 -43.359375 24.1171875 Z M-9.359375 25.1171875 C-8.359375 27.1171875 -8.359375 27.1171875 -8.359375 27.1171875 Z M-3.359375 25.1171875 C-2.359375 27.1171875 -2.359375 27.1171875 -2.359375 27.1171875 Z M-34.359375 26.1171875 C-33.359375 28.1171875 -33.359375 28.1171875 -33.359375 28.1171875 Z M-14.359375 28.1171875 C-14.359375 28.7771875 -14.359375 29.4371875 -14.359375 30.1171875 C-13.039375 30.1171875 -11.719375 30.1171875 -10.359375 30.1171875 C-10.689375 29.4571875 -11.019375 28.7971875 -11.359375 28.1171875 C-12.349375 28.1171875 -13.339375 28.1171875 -14.359375 28.1171875 Z M-32.359375 30.1171875 C-31.359375 32.1171875 -31.359375 32.1171875 -31.359375 32.1171875 Z " fill="#03050F" transform="translate(483.359375,235.8828125)"/>
<path d="M0 0 C0.9796875 0.00322266 1.959375 0.00644531 2.96875 0.00976562 C3.98453125 0.01814453 5.0003125 0.02652344 6.046875 0.03515625 C7.59375 0.04192383 7.59375 0.04192383 9.171875 0.04882812 C11.71356654 0.06059522 14.25522818 0.07853015 16.796875 0.09765625 C16.796875 4.71765625 16.796875 9.33765625 16.796875 14.09765625 C15.146875 14.09765625 13.496875 14.09765625 11.796875 14.09765625 C9.82077114 12.05341087 8.796875 10.97997375 8.796875 8.09765625 C7.806875 7.76765625 6.816875 7.43765625 5.796875 7.09765625 C5.796875 6.43765625 5.796875 5.77765625 5.796875 5.09765625 C0.81840144 4.85847692 -3.87317814 4.81766744 -8.765625 5.84765625 C-12.83670054 9.60557213 -12.72412053 14.7707962 -13.203125 20.09765625 C-12.543125 20.09765625 -11.883125 20.09765625 -11.203125 20.09765625 C-10.72875 21.00515625 -10.254375 21.91265625 -9.765625 22.84765625 C-6.79801086 27.5913425 -1.39806355 28.84497603 3.796875 30.09765625 C6.52904287 30.23440354 6.52904287 30.23440354 8.796875 30.09765625 C8.796875 30.75765625 8.796875 31.41765625 8.796875 32.09765625 C9.51875 32.15953125 10.240625 32.22140625 10.984375 32.28515625 C14.73825119 33.36960937 16.21410937 35.19204492 18.796875 38.09765625 C19.76625 38.92265625 20.735625 39.74765625 21.734375 40.59765625 C24.32885598 43.77878739 24.00105193 46.55917998 23.609375 50.53515625 C22.45389256 56.37935933 20.54871227 59.33008542 15.8671875 62.92578125 C13.796875 64.09765625 13.796875 64.09765625 11.6015625 64.64453125 C11.00601563 64.7940625 10.41046875 64.94359375 9.796875 65.09765625 C9.466875 65.75765625 9.136875 66.41765625 8.796875 67.09765625 C4.92041779 69.10655625 1.82692295 69.29235557 -2.4921875 69.109375 C-3.68070313 69.06232422 -4.86921875 69.01527344 -6.09375 68.96679688 C-7.32609375 68.90685547 -8.5584375 68.84691406 -9.828125 68.78515625 C-11.68824219 68.71264648 -11.68824219 68.71264648 -13.5859375 68.63867188 C-22.76199411 68.24469988 -22.76199411 68.24469988 -26.203125 67.09765625 C-26.203125 63.79765625 -26.203125 60.49765625 -26.203125 57.09765625 C-24.883125 57.09765625 -23.563125 57.09765625 -22.203125 57.09765625 C-22.203125 56.43765625 -22.203125 55.77765625 -22.203125 55.09765625 C-21.213125 55.09765625 -20.223125 55.09765625 -19.203125 55.09765625 C-18.873125 57.07765625 -18.543125 59.05765625 -18.203125 61.09765625 C-11.37226855 63.53932409 -5.4516195 64.51405913 1.796875 64.09765625 C2.126875 63.43765625 2.456875 62.77765625 2.796875 62.09765625 C4.12764489 61.75423176 5.46119479 61.42145751 6.796875 61.09765625 C7.456875 60.43765625 8.116875 59.77765625 8.796875 59.09765625 C8.796875 58.43765625 8.796875 57.77765625 8.796875 57.09765625 C9.786875 57.09765625 10.776875 57.09765625 11.796875 57.09765625 C12.63541021 52.6762888 13.09492928 50.04441691 11.734375 45.72265625 C9.37643209 42.52802391 7.61295981 41.9456751 3.796875 41.09765625 C3.796875 40.43765625 3.796875 39.77765625 3.796875 39.09765625 C3.04664063 38.95070312 2.29640625 38.80375 1.5234375 38.65234375 C-7.22381766 36.73543897 -14.69259259 34.03630237 -20.765625 27.22265625 C-23.59580854 21.07008333 -23.79974714 16.98819286 -21.515625 10.72265625 C-19.80927826 6.4666717 -19.80927826 6.4666717 -17.24609375 4.90625 C-16.23482422 4.50599609 -16.23482422 4.50599609 -15.203125 4.09765625 C-13.718125 3.32421875 -13.718125 3.32421875 -12.203125 2.53515625 C-7.97028463 0.50692024 -4.68101127 -0.02721518 0 0 Z M8.796875 6.09765625 C9.786875 7.58265625 9.786875 7.58265625 10.796875 9.09765625 C10.796875 8.10765625 10.796875 7.11765625 10.796875 6.09765625 C10.136875 6.09765625 9.476875 6.09765625 8.796875 6.09765625 Z M-12.203125 22.09765625 C-11.203125 24.09765625 -11.203125 24.09765625 -11.203125 24.09765625 Z " fill="#030813" transform="translate(566.203125,155.90234375)"/>
<path d="M0 0 C1.75570312 0.02707031 1.75570312 0.02707031 3.546875 0.0546875 C4.88492188 0.08949219 4.88492188 0.08949219 6.25 0.125 C6.25 0.455 6.25 0.785 6.25 1.125 C19.45 1.125 32.65 1.125 46.25 1.125 C47.14377528 4.70010111 47.2758444 6.37417563 46.8125 9.875 C46.71066406 10.67421875 46.60882812 11.4734375 46.50390625 12.296875 C46.42011719 12.90015625 46.33632813 13.5034375 46.25 14.125 C44.93 13.795 43.61 13.465 42.25 13.125 C42.25 11.145 42.25 9.165 42.25 7.125 C35.98 6.795 29.71 6.465 23.25 6.125 C23.745 10.085 23.745 10.085 24.25 14.125 C23.92 14.125 23.59 14.125 23.25 14.125 C23.25 29.305 23.25 44.485 23.25 60.125 C24.24 60.62 24.24 60.62 25.25 61.125 C25.25 61.785 25.25 62.445 25.25 63.125 C26.9 63.125 28.55 63.125 30.25 63.125 C30.58 64.445 30.91 65.765 31.25 67.125 C22.01 67.455 12.77 67.785 3.25 68.125 C2.92 66.805 2.59 65.485 2.25 64.125 C3.6875 62.375 3.6875 62.375 5.25 61.125 C5.58 61.785 5.91 62.445 6.25 63.125 C9.27934491 63.78272428 9.27934491 63.78272428 12.25 64.125 C12.29241723 61.79205225 12.29092937 59.45797433 12.25 57.125 C11.755 56.63 11.755 56.63 11.25 56.125 C11.17728259 53.77186445 11.16629132 51.41666332 11.1875 49.0625 C11.19652344 47.77214844 11.20554687 46.48179687 11.21484375 45.15234375 C11.22644531 44.15332031 11.23804688 43.15429688 11.25 42.125 C11.58 42.125 11.91 42.125 12.25 42.125 C12.24214478 41.02212646 12.24214478 41.02212646 12.23413086 39.89697266 C12.21314084 36.51465739 12.20027049 33.1323559 12.1875 29.75 C12.17912109 28.59371094 12.17074219 27.43742187 12.16210938 26.24609375 C12.14297068 19.47099441 12.39777999 12.84860274 13.25 6.125 C3.9683861 6.40925911 3.9683861 6.40925911 -4.75 9.125 C-5.71877057 11.15743548 -5.71877057 11.15743548 -5.75 13.125 C-7.4 13.455 -9.05 13.785 -10.75 14.125 C-10.75 10.165 -10.75 6.205 -10.75 2.125 C-6.52746115 0.01373057 -4.60998477 -0.0921997 0 0 Z " fill="#030813" transform="translate(604.75,155.875)"/>
<path d="M0 0 C11.55 0 23.1 0 35 0 C34.01 1.65 33.02 3.3 32 5 C28.10664693 5.97333827 25.82146654 6.27382218 22 5 C22.33 7.97 22.66 10.94 23 14 C22.67 14 22.34 14 22 14 C22 30.17 22 46.34 22 63 C26.51351534 62.42650606 26.51351534 62.42650606 30.9375 61.4375 C33.64065704 60.86410305 36.2762755 60.99011253 39.02734375 61.03125 C41.43669375 60.99308208 43.66608421 60.58347895 46 60 C46.33 58.02 46.66 56.04 47 54 C47.99 54 48.98 54 50 54 C50.495 53.01 50.495 53.01 51 52 C50.98839844 52.66386719 50.97679687 53.32773438 50.96484375 54.01171875 C50.95582031 54.89472656 50.94679688 55.77773437 50.9375 56.6875 C50.92589844 57.55761719 50.91429687 58.42773438 50.90234375 59.32421875 C50.94347642 62.41167679 50.94347642 62.41167679 52 67 C35.17 67 18.34 67 1 67 C0.67 66.01 0.34 65.02 0 64 C0.66 64 1.32 64 2 64 C2.33 63.34 2.66 62.68 3 62 C5.64 62.33 8.28 62.66 11 63 C11 43.86 11 24.72 11 5 C10.01 5 9.02 5 8 5 C7.67 5.66 7.34 6.32 7 7 C4.69 6.01 2.38 5.02 0 4 C0 2.68 0 1.36 0 0 Z " fill="#030813" transform="translate(774,156)"/>
<path d="M0 0 C9.24 0 18.48 0 28 0 C28 1.32 28 2.64 28 4 C26.68 4 25.36 4 24 4 C24 4.66 24 5.32 24 6 C21.525 5.505 21.525 5.505 19 5 C19 24.14 19 43.28 19 63 C22.3 63 25.6 63 29 63 C29.33 62.34 29.66 61.68 30 61 C34.29 61 38.58 61 43 61 C42.34 59.02 41.68 57.04 41 55 C44 53 44 53 48 53 C48.6649742 57.82106297 49 62.08167159 49 67 C32.17 67 15.34 67 -2 67 C-1.67 65.68 -1.34 64.36 -1 63 C1.97 63 4.94 63 8 63 C8 51.45 8 39.9 8 28 C7.67 28 7.34 28 7 28 C7 23.38 7 18.76 7 14 C7.33 14 7.66 14 8 14 C8 11.03 8 8.06 8 5 C7.01 5 6.02 5 5 5 C4.67 5.66 4.34 6.32 4 7 C1.525 6.01 1.525 6.01 -1 5 C-0.67 3.35 -0.34 1.7 0 0 Z " fill="#030813" transform="translate(720,156)"/>
<path d="M0 0 C0.598125 0.33 1.19625 0.66 1.8125 1 C4.05386471 2.20787988 4.05386471 2.20787988 7 2 C7.433125 2.9590625 7.433125 2.9590625 7.875 3.9375 C8.82823451 6.15206079 8.82823451 6.15206079 11 7 C11.625 10.0625 11.625 10.0625 12 13 C12.556875 12.505 13.11375 12.01 13.6875 11.5 C16.38162983 9.75245633 17.85375007 9.73781251 21 10 C21 11.98 21 13.96 21 16 C21.99 16 22.98 16 24 16 C24.33 13.69 24.66 11.38 25 9 C27.97 9 30.94 9 34 9 C34 8.67 34 8.34 34 8 C35.65 8 37.3 8 39 8 C38.125 13.75 38.125 13.75 37 16 C35.329375 15.9071875 35.329375 15.9071875 33.625 15.8125 C31.830625 15.9053125 31.830625 15.9053125 30 16 C27.5705484 19.6441774 27.83820425 21.71241272 28 26 C29.98 26 31.96 26 34 26 C32.609375 27.984375 32.609375 27.984375 30 30 C26.74024388 30.5096196 23.53931183 30.37632512 20.25 30.25 C19.36183594 30.23195313 18.47367187 30.21390625 17.55859375 30.1953125 C15.37193225 30.14828752 13.18582719 30.07654648 11 30 C10.505 25.545 10.505 25.545 10 21 C9.67386719 21.5775 9.34773438 22.155 9.01171875 22.75 C8.57472656 23.4925 8.13773437 24.235 7.6875 25 C7.25824219 25.7425 6.82898438 26.485 6.38671875 27.25 C5.92910156 27.8275 5.47148437 28.405 5 29 C4.01 29 3.02 29 2 29 C3.53472968 24.27775484 5.23945126 19.64144669 7 15 C6.67 15.33 6.34 15.66 6 16 C3.66702567 16.04092937 1.33294775 16.04241723 -1 16 C-1.72256829 20.48133574 -1.72256829 20.48133574 -2 25 C-1.67 24.34 -1.34 23.68 -1 23 C-0.34 23 0.32 23 1 23 C-0.40815374 26.4030382 -1.81432567 28.13107106 -5 30 C-8.234375 30.29296875 -8.234375 30.29296875 -11.75 30.1875 C-12.92046875 30.16042969 -14.0909375 30.13335937 -15.296875 30.10546875 C-16.18890625 30.07066406 -17.0809375 30.03585937 -18 30 C-18 30.66 -18 31.32 -18 32 C-19.32 31.34 -20.64 30.68 -22 30 C-21.34 29.67 -20.68 29.34 -20 29 C-20 28.01 -20 27.02 -20 26 C-19.34 26 -18.68 26 -18 26 C-18.03480469 25.18015625 -18.06960938 24.3603125 -18.10546875 23.515625 C-18.13253906 22.43796875 -18.15960938 21.3603125 -18.1875 20.25 C-18.23970703 18.64898437 -18.23970703 18.64898437 -18.29296875 17.015625 C-17.96649381 13.65510966 -17.44024243 12.3071383 -15 10 C-11.3125 9.75 -11.3125 9.75 -8 10 C-8 11.32 -8 12.64 -8 14 C-10.16874252 13.49396008 -11.99967627 13.00016187 -14 12 C-13.67 13.32 -13.34 14.64 -13 16 C-10.03 16 -7.06 16 -4 16 C-4.66 15.67 -5.32 15.34 -6 15 C-5.67902344 14.43539062 -5.35804688 13.87078125 -5.02734375 13.2890625 C-3.63995408 10.1977684 -3.61384787 7.37214248 -3.44140625 4.0234375 C-3 2 -3 2 0 0 Z M5 10 C6 12 6 12 6 12 Z M0 13 C1 15 1 15 1 15 Z M14 14 C14 14.66 14 15.32 14 16 C14.66 16 15.32 16 16 16 C16.33 16.66 16.66 17.32 17 18 C17.33 16.35 17.66 14.7 18 13 C15.9254644 12.8509288 15.9254644 12.8509288 14 14 Z M-13 17 C-12 19 -12 19 -12 19 Z M-6 18 C-5 20 -5 20 -5 20 Z M11 18 C12 20 12 20 12 20 Z M15 18 C16 20 16 20 16 20 Z M19 18 C20 20 20 20 20 20 Z M22 18 C23 21 23 21 23 21 Z M-11 20 C-10 22 -10 22 -10 22 Z M-7 20 C-6 23 -6 23 -6 23 Z M14 20 C15 22 15 22 15 22 Z M18 20 C19 22 19 22 19 22 Z M-16 22 C-15 24 -15 24 -15 24 Z M17 22 C17.33 22.99 17.66 23.98 18 25 C18 24.01 18 23.02 18 22 C17.67 22 17.34 22 17 22 Z M21 22 C22 26 22 26 22 26 Z M-8 23 C-7 25 -7 25 -7 25 Z M13 23 C14 25 14 25 14 25 Z M-15 24 C-14 26 -14 26 -14 26 Z M-9 25 C-8 27 -8 27 -8 27 Z M12 25 C13 27 13 27 13 27 Z " fill="#03060F" transform="translate(373,239)"/>
<path d="M0 0 C0.66 0 1.32 0 2 0 C2 0.66 2 1.32 2 2 C4.31 2.33 6.62 2.66 9 3 C9 5.97 9 8.94 9 12 C7.948125 11.896875 6.89625 11.79375 5.8125 11.6875 C0.9838482 12.08329113 0.11200587 13.409224 -3 17 C-7.83086681 21.83086681 -7.83086681 21.83086681 -11.16015625 22.3125 C-13.375 22.3125 -13.375 22.3125 -17 22 C-17.33 21.34 -17.66 20.68 -18 20 C-18.66 20.66 -19.32 21.32 -20 22 C-20 20.68 -20 19.36 -20 18 C-21.65 18.66 -23.3 19.32 -25 20 C-25.50559908 18.56445975 -26.0042749 17.1264798 -26.5 15.6875 C-26.7784375 14.88699219 -27.056875 14.08648437 -27.34375 13.26171875 C-28 11 -28 11 -28 8 C-27.34 8 -26.68 8 -26 8 C-25.67 5.69 -25.34 3.38 -25 1 C-24.34 1.33 -23.68 1.66 -23 2 C-23 2.99 -23 3.98 -23 5 C-22.01 4.01 -21.02 3.02 -20 2 C-18 3.8125 -18 3.8125 -16 6 C-16 6.99 -16 7.98 -16 9 C-11.71 9 -7.42 9 -3 9 C-2.67 7.35 -2.34 5.7 -2 4 C-1.34 3.67 -0.68 3.34 0 3 C0 2.01 0 1.02 0 0 Z M-10 12 C-9.67 12.66 -9.34 13.32 -9 14 C-8.01 13.67 -7.02 13.34 -6 13 C-7.32 12.67 -8.64 12.34 -10 12 Z M-17 15 C-15.515 15.99 -15.515 15.99 -14 17 C-12.68 16.34 -11.36 15.68 -10 15 C-10 14.34 -10 13.68 -10 13 C-12.6465335 13 -14.5808163 13.98139634 -17 15 Z " fill="#020614" transform="translate(432,73)"/>
<path d="M0 0 C0.144375 0.804375 0.28875 1.60875 0.4375 2.4375 C0.74135249 4.92103706 0.74135249 4.92103706 2 6 C2.07244053 8.01964199 2.08377188 10.04167124 2.0625 12.0625 C2.05347656 13.16722656 2.04445313 14.27195312 2.03515625 15.41015625 C2.02355469 16.26480469 2.01195312 17.11945313 2 18 C1.01 18 0.02 18 -1 18 C-1 18.66 -1 19.32 -1 20 C-2.77049689 20.05410687 -4.54146849 20.09284119 -6.3125 20.125 C-7.79169922 20.15980469 -7.79169922 20.15980469 -9.30078125 20.1953125 C-12 20 -12 20 -15 18 C-15.97426761 14.08669178 -15.59710781 10.32248323 -13.9453125 6.6640625 C-9.90327091 0.03894108 -7.54825631 -0.12174607 0 0 Z M-5 1 C-7.0624994 2.81222534 -7.0624994 2.81222534 -9 5 C-9 5.99 -9 6.98 -9 8 C-6.49034386 7.29660434 -6.49034386 7.29660434 -4 6 C-3.11306697 3.95894361 -3.11306697 3.95894361 -3 2 C-3.66 1.67 -4.32 1.34 -5 1 Z M-11 11 C-11 12.65 -11 14.3 -11 16 C-10.67 16 -10.34 16 -10 16 C-10 14.35 -10 12.7 -10 11 C-10.33 11 -10.66 11 -11 11 Z " fill="#050A15" transform="translate(424,249)"/>
<path d="M0 0 C5 5 5 5 7.3125 7.4375 C14.51958761 14.30937423 21.61672383 17.68401508 31 21 C31.87914062 21.40605469 32.75828125 21.81210937 33.6640625 22.23046875 C37.31112935 23.43192723 39.65727815 21.57675559 43 20 C43.66 20.33 44.32 20.66 45 21 C44.01 23.64 43.02 26.28 42 29 C41.34 28.01 40.68 27.02 40 26 C38.39125 26.2475 38.39125 26.2475 36.75 26.5 C29.84210526 27.42105263 29.84210526 27.42105263 27 26 C26.67 26.99 26.34 27.98 26 29 C25.17048828 27.88044922 25.17048828 27.88044922 24.32421875 26.73828125 C21.99179883 23.99033778 19.77467215 22.21784888 16.8125 20.1875 C12.20738882 16.95346999 8.10398566 13.48505071 4.0703125 9.56640625 C1.70190036 7.77445669 -0.08079254 7.36108664 -3 7 C-2.34 6.34 -1.68 5.68 -1 5 C-1.33 4.01 -1.66 3.02 -2 2 C-1.34 2 -0.68 2 0 2 C0 1.34 0 0.68 0 0 Z M24 21 C25.32 22.32 26.64 23.64 28 25 C28.33 23.68 28.66 22.36 29 21 C27.35 21 25.7 21 24 21 Z " fill="#02040C" transform="translate(426,22)"/>
<path d="M0 0 C0.66 0.33 1.32 0.66 2 1 C2.25 7.625 2.25 7.625 0 11 C1.43725871 11.16873478 2.87481838 11.33490737 4.3125 11.5 C5.11300781 11.5928125 5.91351563 11.685625 6.73828125 11.78125 C9.11896555 12.04813463 9.11896555 12.04813463 12 12 C12 11.01 12 10.02 12 9 C18.75 7.875 18.75 7.875 21 9 C21.625 11.0625 21.625 11.0625 22 13 C15.08643881 15.69146067 8.36829589 15.00810414 1.0625 14.625 C-0.82178711 14.53992188 -0.82178711 14.53992188 -2.74414062 14.453125 C-5.8300585 14.31232266 -8.91507958 14.1609745 -12 14 C-12.33 12.68 -12.66 11.36 -13 10 C-10 9 -7 8 -4 7 C-1.96549827 4.652498 -0.99212333 2.97637 0 0 Z " fill="#01040D" transform="translate(43,210)"/>
<path d="M0 0 C1.98 0.66 3.96 1.32 6 2 C5.67 3.65 5.34 5.3 5 7 C-10.345 7.495 -10.345 7.495 -26 8 C-26.33 6.35 -26.66 4.7 -27 3 C-24.33821779 1.6691089 -22.31260604 1.88731007 -19.3359375 1.90234375 C-18.21445312 1.90556641 -17.09296875 1.90878906 -15.9375 1.91210938 C-14.761875 1.92048828 -13.58625 1.92886719 -12.375 1.9375 C-11.19164062 1.94201172 -10.00828125 1.94652344 -8.7890625 1.95117188 C-5.85932493 1.96298533 -2.92968728 1.97945742 0 2 C0 1.34 0 0.68 0 0 Z " fill="#020710" transform="translate(370,185)"/>
<path d="M0 0 C0 3.96 0 7.92 0 12 C-0.99 12 -1.98 12 -3 12 C-3 12.66 -3 13.32 -3 14 C-6.63 14 -10.26 14 -14 14 C-14.33 12.02 -14.66 10.04 -15 8 C-14.34 8 -13.68 8 -13 8 C-12.34 7.01 -11.68 6.02 -11 5 C-9.66666667 4.66666667 -8.33333333 4.33333333 -7 4 C-0.81818182 0 -0.81818182 0 0 0 Z " fill="#01030F" transform="translate(426,255)"/>
<path d="M0 0 C6 0 6 0 8 1 C8 1.99 8 2.98 8 4 C8.66 4.33 9.32 4.66 10 5 C9.01 5.66 8.02 6.32 7 7 C6.71125 7.825 6.4225 8.65 6.125 9.5 C5 12 5 12 0 14 C0 9.38 0 4.76 0 0 Z " fill="#000005" transform="translate(483,241)"/>
<path d="M0 0 C0.37769531 0.48082031 0.75539062 0.96164063 1.14453125 1.45703125 C3.64531405 3.53662958 5.47306804 3.49841577 8.6875 3.6875 C9.68136719 3.75324219 10.67523438 3.81898438 11.69921875 3.88671875 C12.45847656 3.92410156 13.21773437 3.96148437 14 4 C14.33 3.34 14.66 2.68 15 2 C16.32 2 17.64 2 19 2 C19 3.32 19 4.64 19 6 C10.56758584 7.35520942 2.46334215 6.67499048 -6 6 C-6 4.68 -6 3.36 -6 2 C-4.02 2 -2.04 2 0 2 C0 1.34 0 0.68 0 0 Z " fill="#00020B" transform="translate(138,218)"/>
<path d="M0 0 C-1.0625 2.4375 -1.0625 2.4375 -3 5 C-6.89335307 5.97333827 -9.17853346 6.27382218 -13 5 C-12.67 7.97 -12.34 10.94 -12 14 C-12.33 14 -12.66 14 -13 14 C-13.50512244 12.39743892 -14.00391627 10.79288208 -14.5 9.1875 C-14.7784375 8.29417969 -15.056875 7.40085938 -15.34375 6.48046875 C-16 4 -16 4 -16 1 C-14.27111445 0.83044205 -12.54187557 0.66448486 -10.8125 0.5 C-9.84957031 0.4071875 -8.88664063 0.314375 -7.89453125 0.21875 C-5.24812333 0.01875156 -2.65239135 -0.03879183 0 0 Z " fill="#02060D" transform="translate(809,156)"/>
<path d="M0 0 C1.50433594 0.01353516 1.50433594 0.01353516 3.0390625 0.02734375 C3.80992188 0.03894531 4.58078125 0.05054687 5.375 0.0625 C5.705 1.0525 6.035 2.0425 6.375 3.0625 C5.385 4.5475 5.385 4.5475 4.375 6.0625 C2.31640625 6.42578125 2.31640625 6.42578125 -0.0625 6.375 C-0.84496094 6.37113281 -1.62742187 6.36726562 -2.43359375 6.36328125 C-4.625 6.0625 -4.625 6.0625 -7.625 4.0625 C-7.625 3.0725 -7.625 2.0825 -7.625 1.0625 C-4.98041621 -0.25979189 -2.94738699 -0.03427194 0 0 Z M-6.625 2.0625 C-5.625 4.0625 -5.625 4.0625 -5.625 4.0625 Z " fill="#01040D" transform="translate(37.625,127.9375)"/>
<path d="M0 0 C0.66 0.99 1.32 1.98 2 3 C2.66 3.33 3.32 3.66 4 4 C3.01 5.485 3.01 5.485 2 7 C-0.8203125 7.51171875 -0.8203125 7.51171875 -4.125 7.6875 C-5.76855469 7.78611328 -5.76855469 7.78611328 -7.4453125 7.88671875 C-8.28835938 7.92410156 -9.13140625 7.96148437 -10 8 C-10 6.68 -10 5.36 -10 4 C-6.7 2.68 -3.4 1.36 0 0 Z " fill="#01030B" transform="translate(667,216)"/>
<path d="M0 0 C0.33 0 0.66 0 1 0 C1 3.96 1 7.92 1 12 C-4.37704918 13.3442623 -4.37704918 13.3442623 -7.375 11.6875 C-9 10 -9 10 -9 8 C-7.02 7.34 -5.04 6.68 -3 6 C-3 5.34 -3 4.68 -3 4 C-2.34 3.67 -1.68 3.34 -1 3 C-0.67 2.01 -0.34 1.02 0 0 Z " fill="#040611" transform="translate(440,45)"/>
<path d="M0 0 C4.62 0 9.24 0 14 0 C13.67 1.32 13.34 2.64 13 4 C6.565 4.495 6.565 4.495 0 5 C0 3.35 0 1.7 0 0 Z " fill="#00000D" transform="translate(384,57)"/>
<path d="M0 0 C1.98 0 3.96 0 6 0 C6.33 0.99 6.66 1.98 7 3 C6.34 3 5.68 3 5 3 C4.9175 3.78375 4.835 4.5675 4.75 5.375 C4 8 4 8 1.9375 9.3125 C1.298125 9.539375 0.65875 9.76625 0 10 C-0.33 9.67 -0.66 9.34 -1 9 C-0.91062197 7.47480724 -0.75462854 5.95318071 -0.5625 4.4375 C-0.46066406 3.61121094 -0.35882813 2.78492188 -0.25390625 1.93359375 C-0.17011719 1.29550781 -0.08632813 0.65742188 0 0 Z " fill="#00000D" transform="translate(470,255)"/>
<path d="M0 0 C0.33 0 0.66 0 1 0 C1 5.28 1 10.56 1 16 C-0.32 16 -1.64 16 -3 16 C-3 15.34 -3 14.68 -3 14 C-3.99 14 -4.98 14 -6 14 C-6.33 13.34 -6.66 12.68 -7 12 C-7.99 11.34 -8.98 10.68 -10 10 C-8.68 10 -7.36 10 -6 10 C-6 9.34 -6 8.68 -6 8 C-5.01 7.67 -4.02 7.34 -3 7 C-2.34 8.32 -1.68 9.64 -1 11 C-0.67 7.37 -0.34 3.74 0 0 Z " fill="#00010A" transform="translate(266,184)"/>
<path d="M0 0 C12.14285714 -0.23809524 12.14285714 -0.23809524 17 3 C17.66 3.33 18.32 3.66 19 4 C18.195625 4.12375 17.39125 4.2475 16.5625 4.375 C15.2940625 4.684375 15.2940625 4.684375 14 5 C13.67 5.66 13.34 6.32 13 7 C13 6.34 13 5.68 13 5 C12.34 5 11.68 5 11 5 C10.67 5.66 10.34 6.32 10 7 C4.125 4.25 4.125 4.25 3 2 C2.01 1.34 1.02 0.68 0 0 Z " fill="#0D1220" transform="translate(449,61)"/>
<path d="M0 0 C1.65 0.33 3.3 0.66 5 1 C4.88652381 2.97986082 4.7589065 4.95891598 4.625 6.9375 C4.55539062 8.03964844 4.48578125 9.14179688 4.4140625 10.27734375 C4.27742188 11.17582031 4.14078125 12.07429687 4 13 C3.01 13.495 3.01 13.495 2 14 C1.67 13.01 1.34 12.02 1 11 C1.66 11 2.32 11 3 11 C2.34 10.01 1.68 9.02 1 8 C0.01 8.33 -0.98 8.66 -2 9 C-5.1875 8.0625 -5.1875 8.0625 -8 7 C-6.68 6.34 -5.36 5.68 -4 5 C-3.67 5.66 -3.34 6.32 -3 7 C-2.01 7 -1.02 7 0 7 C0 4.69 0 2.38 0 0 Z " fill="#01030A" transform="translate(273,210)"/>
<path d="M0 0 C1.65 0 3.3 0 5 0 C6.231394 2.46278801 6.07159196 4.2795055 6 7 C5.360625 7.103125 4.72125 7.20625 4.0625 7.3125 C3.381875 7.539375 2.70125 7.76625 2 8 C1.67 8.99 1.34 9.98 1 11 C2.65 11 4.3 11 6 11 C6 11.33 6 11.66 6 12 C4.02 12 2.04 12 0 12 C0 8.04 0 4.08 0 0 Z " fill="#00010B" transform="translate(512,213)"/>
<path d="M0 0 C0.99 0.33 1.98 0.66 3 1 C3.02691685 3.45840605 3.04679802 5.91651882 3.0625 8.375 C3.07087891 9.07367188 3.07925781 9.77234375 3.08789062 10.4921875 C3.11328125 15.7734375 3.11328125 15.7734375 2 18 C1.34 18 0.68 18 0 18 C-1.2380014 14.42355152 -0.74926071 11.66305234 0 8 C-0.66 8 -1.32 8 -2 8 C-2 7.34 -2 6.68 -2 6 C-1.34 6 -0.68 6 0 6 C-0.66 5.34 -1.32 4.68 -2 4 C-1 1 -1 1 0 0 Z " fill="#00020A" transform="translate(244,197)"/>
<path d="M0 0 C0.99 0 1.98 0 3 0 C3.05791844 3.12492251 3.09356746 6.24970766 3.125 9.375 C3.14175781 10.26445312 3.15851562 11.15390625 3.17578125 12.0703125 C3.18222656 12.92109375 3.18867187 13.771875 3.1953125 14.6484375 C3.20578613 15.43395996 3.21625977 16.21948242 3.22705078 17.02880859 C3 19 3 19 1 21 C0.83138242 18.43761495 0.66504227 15.87511576 0.5 13.3125 C0.45230469 12.59126953 0.40460937 11.87003906 0.35546875 11.12695312 C0.11796481 7.41171286 -0.05874637 3.72305126 0 0 Z " fill="#000207" transform="translate(42,157)"/>
<path d="M0 0 C0.33 0 0.66 0 1 0 C1 3.96 1 7.92 1 12 C0.01 12 -0.98 12 -2 12 C-2 12.66 -2 13.32 -2 14 C-3.65 14 -5.3 14 -7 14 C-7 13.01 -7 12.02 -7 11 C-6.01 11 -5.02 11 -4 11 C-2.49069817 7.6136749 -2.49069817 7.6136749 -2 4 C-1.34 4 -0.68 4 0 4 C0 2.68 0 1.36 0 0 Z " fill="#000000" transform="translate(425,255)"/>
<path d="M0 0 C0.66 0 1.32 0 2 0 C2.24042276 4.08718695 1.42258812 7.17679443 0 11 C-1 9 -2 7 -3 5 C-1.6875 2.375 -1.6875 2.375 0 0 Z M-6 11 C-5.01 11 -4.02 11 -3 11 C-2.67 12.65 -2.34 14.3 -2 16 C-2.33 15.34 -2.66 14.68 -3 14 C-5.02463255 13.34786708 -5.02463255 13.34786708 -7 13 C-6.67 12.34 -6.34 11.68 -6 11 Z " fill="#000007" transform="translate(467,241)"/>
<path d="M0 0 C0.33 1.98 0.66 3.96 1 6 C-0.65 6.66 -2.3 7.32 -4 8 C-4 7.34 -4 6.68 -4 6 C-5.32 6.33 -6.64 6.66 -8 7 C-7.8125 5.1875 -7.8125 5.1875 -7 3 C-2.82142857 0 -2.82142857 0 0 0 Z " fill="#010208" transform="translate(459,211)"/>
<path d="M0 0 C2 0.66666667 4 1.33333333 6 2 C8.33006911 2.35543427 10.66327016 2.6913753 13 3 C13 3.33 13 3.66 13 4 C4.75 4 -3.5 4 -12 4 C-11.67 3.34 -11.34 2.68 -11 2 C-7.7 2.33 -4.4 2.66 -1 3 C-0.67 2.01 -0.34 1.02 0 0 Z " fill="#0F1723" transform="translate(436,59)"/>
<path d="M0 0 C0.78375 0.474375 1.5675 0.94875 2.375 1.4375 C3.88948678 2.33898023 5.4235897 3.21179485 7 4 C5.35 5.65 3.7 7.3 2 9 C-0.2477975 6.94766315 -1.0022242 5.99332739 -2 3 C-1.34 2.01 -0.68 1.02 0 0 Z " fill="#070F1D" transform="translate(389,188)"/>
<path d="M0 0 C2 2 2 2 2 6 C-2.62 6 -7.24 6 -12 6 C-12 5.34 -12 4.68 -12 4 C-10.95199219 3.94392578 -10.95199219 3.94392578 -9.8828125 3.88671875 C-8.97273438 3.82097656 -8.06265625 3.75523437 -7.125 3.6875 C-6.22007813 3.62949219 -5.31515625 3.57148438 -4.3828125 3.51171875 C-1.63778399 3.2117961 -1.63778399 3.2117961 0 0 Z " fill="#020511" transform="translate(126,189)"/>
<path d="M0 0 C0.90105469 0.11085937 1.80210937 0.22171875 2.73046875 0.3359375 C3.76107422 0.47902344 3.76107422 0.47902344 4.8125 0.625 C4.4825 1.615 4.1525 2.605 3.8125 3.625 C0.8425 3.13 0.8425 3.13 -2.1875 2.625 C-2.5175 3.945 -2.8475 5.265 -3.1875 6.625 C-6.1875 5.625 -6.1875 5.625 -7.375 3.5625 C-7.7771875 2.6034375 -7.7771875 2.6034375 -8.1875 1.625 C-4.73535147 -0.67643236 -3.95270676 -0.51333854 0 0 Z " fill="#010109" transform="translate(393.1875,39.375)"/>
<path d="M0 0 C0.33 0.66 0.66 1.32 1 2 C0.21625 2.2475 -0.5675 2.495 -1.375 2.75 C-4.32317108 4.15389099 -4.9024777 5.00675737 -6 8 C-3.36 8 -0.72 8 2 8 C2 8.33 2 8.66 2 9 C-0.97 9 -3.94 9 -7 9 C-7.66 7.35 -8.32 5.7 -9 4 C-6.02819057 2.10134397 -3.48539917 0.64544429 0 0 Z " fill="#000000" transform="translate(467,216)"/>
<path d="M0 0 C0.33 0 0.66 0 1 0 C1 2.97 1 5.94 1 9 C2.32 9.33 3.64 9.66 5 10 C5 12.33333333 5 14.66666667 5 17 C0.20890208 13.56023739 0.20890208 13.56023739 -0.6875 11.15625 C-1.03994031 8.72441188 -0.8845485 6.68325537 -0.5625 4.25 C-0.46066406 3.45078125 -0.35882813 2.6515625 -0.25390625 1.828125 C-0.17011719 1.22484375 -0.08632813 0.6215625 0 0 Z " fill="#00040D" transform="translate(305,179)"/>
<path d="M0 0 C0.33 0.66 0.66 1.32 1 2 C1.66 2 2.32 2 3 2 C2.67 3.65 2.34 5.3 2 7 C-3.75 5.25 -3.75 5.25 -6 3 C-6 2.34 -6 1.68 -6 1 C-3.03 1.495 -3.03 1.495 0 2 C0 1.34 0 0.68 0 0 Z " fill="#020208" transform="translate(483,218)"/>
<path d="M0 0 C0.66 0.33 1.32 0.66 2 1 C2.05382106 3.62527189 2.09358313 6.24944713 2.125 8.875 C2.14175781 9.62136719 2.15851562 10.36773437 2.17578125 11.13671875 C2.1933959 13.09194461 2.10320189 15.04742021 2 17 C1.34 17.66 0.68 18.32 0 19 C-0.19425873 16.20865148 -0.38069517 13.41716313 -0.5625 10.625 C-0.61857422 9.8309375 -0.67464844 9.036875 -0.73242188 8.21875 C-1.11328125 2.2265625 -1.11328125 2.2265625 0 0 Z " fill="#00010D" transform="translate(669,174)"/>
<path d="M0 0 C0.66 0.33 1.32 0.66 2 1 C0.33333333 6 -1.33333333 11 -3 16 C-3.99 15.67 -4.98 15.34 -6 15 C-5.72285156 14.40832031 -5.44570313 13.81664062 -5.16015625 13.20703125 C-3.29652233 9.1415238 -1.69529506 5.44988835 -1 1 C-0.67 0.67 -0.34 0.34 0 0 Z " fill="#000104" transform="translate(440,239)"/>
<path d="M0 0 C0.919102 3.24388943 1.28279255 6.39351063 1.5625 9.75 C1.64628906 10.73484375 1.73007813 11.7196875 1.81640625 12.734375 C1.87699219 13.48203125 1.93757812 14.2296875 2 15 C1.01 15 0.02 15 -1 15 C-2.09318411 11.72044768 -1.95793255 9.78530914 -1.625 6.375 C-1.53476563 5.39273438 -1.44453125 4.41046875 -1.3515625 3.3984375 C-1 1 -1 1 0 0 Z " fill="#000008" transform="translate(237,183)"/>
<path d="M0 0 C0.66 0 1.32 0 2 0 C2 4.62 2 9.24 2 14 C0.35 14 -1.3 14 -3 14 C-2.01 13.67 -1.02 13.34 0 13 C0 12.34 0 11.68 0 11 C-0.66 10.67 -1.32 10.34 -2 10 C-1.34 6.7 -0.68 3.4 0 0 Z " fill="#00010A" transform="translate(581,156)"/>
<path d="M0 0 C0.78375 0.04125 1.5675 0.0825 2.375 0.125 C2.705 2.105 3.035 4.085 3.375 6.125 C2.385 5.795 1.395 5.465 0.375 5.125 C-0.615 5.785 -1.605 6.445 -2.625 7.125 C-3.285 5.475 -3.945 3.825 -4.625 2.125 C-2.625 0.125 -2.625 0.125 0 0 Z " fill="#010207" transform="translate(765.625,208.875)"/>
<path d="M0 0 C0.33 1.65 0.66 3.3 1 5 C0.34 4.34 -0.32 3.68 -1 3 C-1.99 3.495 -1.99 3.495 -3 4 C-3.66 3.34 -4.32 2.68 -5 2 C-6.98 2.99 -6.98 2.99 -9 4 C-9.33 3.01 -9.66 2.02 -10 1 C-6.78548731 -0.60725635 -3.56387464 -0.05748185 0 0 Z " fill="#030510" transform="translate(424,249)"/>
<path d="M0 0 C0.66 0 1.32 0 2 0 C2 4.62 2 9.24 2 14 C1.34 14 0.68 14 0 14 C0 9.38 0 4.76 0 0 Z " fill="#000000" transform="translate(268,184)"/>
<path d="M0 0 C0.99 0 1.98 0 3 0 C3.3125 2.6875 3.3125 2.6875 3 6 C0.5 8.875 0.5 8.875 -2 11 C-2.33 10.34 -2.66 9.68 -3 9 C-2.34 9 -1.68 9 -1 9 C-1.020625 7.88625 -1.04125 6.7725 -1.0625 5.625 C-1 2 -1 2 0 0 Z " fill="#080F1B" transform="translate(373,100)"/>
<path d="M0 0 C2.475 0.99 2.475 0.99 5 2 C5 4.31 5 6.62 5 9 C4.01 8.67 3.02 8.34 2 8 C0.89786379 5.27366306 0 2.95855967 0 0 Z " fill="#000000" transform="translate(434,75)"/>
<path d="M0 0 C0.66 0 1.32 0 2 0 C3.5912689 4.873261 4.21192221 8.80790596 4 14 C3.01 14 2.02 14 1 14 C1.020625 12.989375 1.04125 11.97875 1.0625 10.9375 C1.00312266 7.19672743 0.60204915 3.68755102 0 0 Z " fill="#000000" transform="translate(408,43)"/>
<path d="M0 0 C2.97 0.33 5.94 0.66 9 1 C8.01 2.32 7.02 3.64 6 5 C3.03 4.505 3.03 4.505 0 4 C0 2.68 0 1.36 0 0 Z " fill="#000207" transform="translate(284,219)"/>
<path d="M0 0 C1.98 0 3.96 0 6 0 C4.02 0.99 4.02 0.99 2 2 C3.3089572 5.12197478 3.3089572 5.12197478 6 7 C6 7.66 6 8.32 6 9 C2.2047869 7.50902342 0.38957269 5.24299151 -2 2 C-1.34 2 -0.68 2 0 2 C0 1.34 0 0.68 0 0 Z " fill="#000007" transform="translate(321,189)"/>
<path d="M0 0 C1.98 0 3.96 0 6 0 C5.54625 0.556875 5.0925 1.11375 4.625 1.6875 C2.96266232 4.05313439 1.97855457 6.29015658 1 9 C0.34 9 -0.32 9 -1 9 C-0.67 6.03 -0.34 3.06 0 0 Z " fill="#00030D" transform="translate(172,189)"/>
<path d="M0 0 C4.62 0 9.24 0 14 0 C14 0.66 14 1.32 14 2 C9.38 2.33 4.76 2.66 0 3 C0 2.01 0 1.02 0 0 Z " fill="#000004" transform="translate(398,269)"/>
<path d="M0 0 C1.19625 0.185625 2.3925 0.37125 3.625 0.5625 C7.28283707 1.0311197 10.37862166 0.81481013 14 0 C14 0.66 14 1.32 14 2 C10.85069107 3.04976964 8.61185544 3.10131595 5.3125 3.0625 C4.31863281 3.05347656 3.32476563 3.04445312 2.30078125 3.03515625 C1.16189453 3.01775391 1.16189453 3.01775391 0 3 C0 2.01 0 1.02 0 0 Z " fill="#000002" transform="translate(682,184)"/>
<path d="M0 0 C1.98 0 3.96 0 6 0 C6.33 1.32 6.66 2.64 7 4 C4.125 4.125 4.125 4.125 1 4 C0.34 3.34 -0.32 2.68 -1 2 C-0.67 1.34 -0.34 0.68 0 0 Z " fill="#020712" transform="translate(74,131)"/>
<path d="M0 0 C3.05936637 3.75467691 5 7.08113061 5 12 C4.01 11.67 3.02 11.34 2 11 C1.26953125 9.2578125 1.26953125 9.2578125 0.8125 7.125 C0.65394531 6.42632812 0.49539063 5.72765625 0.33203125 5.0078125 C0 3 0 3 0 0 Z " fill="#01030B" transform="translate(513,179)"/>
<path d="M0 0 C0 0.66 0 1.32 0 2 C-1.32 2 -2.64 2 -4 2 C-4 3.32 -4 4.64 -4 6 C-5.65 5.67 -7.3 5.34 -9 5 C-8.25 3.0625 -8.25 3.0625 -7 1 C-4.50529228 0.03430669 -2.70254461 0 0 0 Z " fill="#010208" transform="translate(370,59)"/>
<path d="M0 0 C4.62 0 9.24 0 14 0 C13.67 0.99 13.34 1.98 13 3 C8.71 2.34 4.42 1.68 0 1 C0 0.67 0 0.34 0 0 Z " fill="#000002" transform="translate(498,199)"/>
<path d="M0 0 C2.64 0 5.28 0 8 0 C7.67 0.99 7.34 1.98 7 3 C4.69 3 2.38 3 0 3 C0 2.01 0 1.02 0 0 Z " fill="#01010A" transform="translate(256,184)"/>
<path d="M0 0 C1.98 0 3.96 0 6 0 C5.34 0.66 4.68 1.32 4 2 C4.33 2.99 4.66 3.98 5 5 C3.35 5 1.7 5 0 5 C0 3.35 0 1.7 0 0 Z " fill="#000118" transform="translate(384,66)"/>
<path d="M0 0 C0.33 0 0.66 0 1 0 C1 3.96 1 7.92 1 12 C-2.375 7.5 -2.375 7.5 -3 4 C-2.34 3.67 -1.68 3.34 -1 3 C-0.67 2.01 -0.34 1.02 0 0 Z " fill="#000005" transform="translate(440,45)"/>
<path d="M0 0 C2.64 0.33 5.28 0.66 8 1 C7.67 1.639375 7.34 2.27875 7 2.9375 C5.92728775 4.76794567 5.92728775 4.76794567 6 6 C4.35 6 2.7 6 1 6 C1.66 4.68 2.32 3.36 3 2 C2.01 1.34 1.02 0.68 0 0 Z " fill="#01050B" transform="translate(803,217)"/>
<path d="M0 0 C1.98 0 3.96 0 6 0 C6.33 0.99 6.66 1.98 7 3 C4.36 3 1.72 3 -1 3 C-0.67 2.01 -0.34 1.02 0 0 Z " fill="#0F1621" transform="translate(57,128)"/>
<path d="M0 0 C1.32 0.66 2.64 1.32 4 2 C3.01 3.32 2.02 4.64 1 6 C-0.32 5.67 -1.64 5.34 -3 5 C-2.01 3.35 -1.02 1.7 0 0 Z " fill="#09111F" transform="translate(467,66)"/>
<path d="M0 0 C0.66 0.33 1.32 0.66 2 1 C2 2.98 2 4.96 2 7 C1.01 7.33 0.02 7.66 -1 8 C-1.04241723 5.66705225 -1.04092937 3.33297433 -1 1 C-0.67 0.67 -0.34 0.34 0 0 Z " fill="#070A14" transform="translate(596,161)"/>
<path d="M0 0 C0.433125 0.474375 0.86625 0.94875 1.3125 1.4375 C3.02309613 3.23686957 3.02309613 3.23686957 6 4 C1.25 6 1.25 6 -1 6 C-0.67 4.02 -0.34 2.04 0 0 Z " fill="#000007" transform="translate(499,171)"/>
<path d="M0 0 C0.66 0.33 1.32 0.66 2 1 C1.67 2.32 1.34 3.64 1 5 C0.01 5 -0.98 5 -2 5 C-1.67 4.34 -1.34 3.68 -1 3 C-2.32 3.33 -3.64 3.66 -5 4 C-5 3.34 -5 2.68 -5 2 C-2.625 0.9375 -2.625 0.9375 0 0 Z " fill="#000008" transform="translate(498,236)"/>
<path d="M0 0 C3 0 3 0 5 1 C4.34 2.65 3.68 4.3 3 6 C1.68 5.01 0.36 4.02 -1 3 C-0.67 2.01 -0.34 1.02 0 0 Z " fill="#00040C" transform="translate(390,202)"/>
<path d="M0 0 C1.41377341 2.63904371 2.37240135 5.07120629 3 8 C1.68 7.67 0.36 7.34 -1 7 C-1.33 5.68 -1.66 4.36 -2 3 C-1.34 3 -0.68 3 0 3 C0 2.01 0 1.02 0 0 Z " fill="#00020C" transform="translate(679,176)"/>
<path d="M0 0 C1.65 0 3.3 0 5 0 C5 3 5 3 4 5 C3.01 5 2.02 5 1 5 C0.67 3.35 0.34 1.7 0 0 Z " fill="#050F1A" transform="translate(63,128)"/>
<path d="M0 0 C1.65 0 3.3 0 5 0 C3.625 2.5 3.625 2.5 2 5 C1.34 5 0.68 5 0 5 C0 3.35 0 1.7 0 0 Z " fill="#000000" transform="translate(804,156)"/>
<path d="M0 0 C0.33 0 0.66 0 1 0 C1.33 3.3 1.66 6.6 2 10 C1.34 10 0.68 10 0 10 C-0.95024979 6.30458414 -0.95024979 3.69541586 0 0 Z " fill="#00000A" transform="translate(91,130)"/>
<path d="M0 0 C0.99 0.33 1.98 0.66 3 1 C2.67 2.65 2.34 4.3 2 6 C0.68 5.34 -0.64 4.68 -2 4 C-1.34 2.68 -0.68 1.36 0 0 Z " fill="#060B15" transform="translate(479,60)"/>
<path d="M0 0 C0.99 0 1.98 0 3 0 C3 1.32 3 2.64 3 4 C1.68 3.67 0.36 3.34 -1 3 C-0.67 2.01 -0.34 1.02 0 0 Z " fill="#050816" transform="translate(405,33)"/>
<path d="M0 0 C0.33 0 0.66 0 1 0 C1 4.29 1 8.58 1 13 C0.67 13 0.34 13 0 13 C0 8.71 0 4.42 0 0 Z " fill="#000000" transform="translate(295,185)"/>
<path d="M0 0 C0.66 0 1.32 0 2 0 C3.625 2.5 3.625 2.5 5 5 C2.525 4.01 2.525 4.01 0 3 C0 2.01 0 1.02 0 0 Z " fill="#000001" transform="translate(549,213)"/>
<path d="M0 0 C0.33 0.66 0.66 1.32 1 2 C-2.3 2 -5.6 2 -9 2 C-9 1.67 -9 1.34 -9 1 C-4.545 0.505 -4.545 0.505 0 0 Z " fill="#000000" transform="translate(354,185)"/>
<path d="M0 0 C0.33 0 0.66 0 1 0 C1 1.98 1 3.96 1 6 C-0.65 6 -2.3 6 -4 6 C-2.68 5.67 -1.36 5.34 0 5 C0 3.35 0 1.7 0 0 Z " fill="#000000" transform="translate(234,213)"/>
<path d="M0 0 C2 2 2 2 2 6 C1.34 6 0.68 6 0 6 C0 4.02 0 2.04 0 0 Z " fill="#000003" transform="translate(183,213)"/>
<path d="M0 0 C0.99 1.485 0.99 1.485 2 3 C2.99 3.66 3.98 4.32 5 5 C3.35 4.67 1.7 4.34 0 4 C0 2.68 0 1.36 0 0 Z " fill="#000002" transform="translate(739,213)"/>
<path d="M0 0 C0.66 0 1.32 0 2 0 C1.67 1.65 1.34 3.3 1 5 C0.67 5 0.34 5 0 5 C0 3.35 0 1.7 0 0 Z " fill="#000003" transform="translate(183,193)"/>
<path d="M0 0 C2.475 0.495 2.475 0.495 5 1 C4.67 2.32 4.34 3.64 4 5 C3.67 4.01 3.34 3.02 3 2 C2.01 1.34 1.02 0.68 0 0 Z " fill="#000000" transform="translate(291,162)"/>
<path d="M0 0 C0.33 0 0.66 0 1 0 C1 2.64 1 5.28 1 8 C0.67 8 0.34 8 0 8 C0 5.36 0 2.72 0 0 Z " fill="#000000" transform="translate(217,201)"/>
<path d="M0 0 C0.33 0 0.66 0 1 0 C1 2.64 1 5.28 1 8 C0.67 8 0.34 8 0 8 C0 5.36 0 2.72 0 0 Z " fill="#000000" transform="translate(727,198)"/>
<path d="M0 0 C2.475 0.99 2.475 0.99 5 2 C4.01 2.33 3.02 2.66 2 3 C1.34 2.01 0.68 1.02 0 0 Z " fill="#00020C" transform="translate(470,96)"/>
<path d="M0 0 C0.625 1.875 0.625 1.875 1 4 C0.34 4.66 -0.32 5.32 -1 6 C-0.67 4.02 -0.34 2.04 0 0 Z " fill="#000002" transform="translate(354,249)"/>
<path d="M0 0 C1.32 0 2.64 0 4 0 C4 0.66 4 1.32 4 2 C2.68 1.67 1.36 1.34 0 1 C0 0.67 0 0.34 0 0 Z " fill="#000004" transform="translate(494,99)"/>
<path d="M0 0 C1.98 0 3.96 0 6 0 C6 0.33 6 0.66 6 1 C4.02 1 2.04 1 0 1 C0 0.67 0 0.34 0 0 Z " fill="#000000" transform="translate(429,269)"/>
<path d="M0 0 C1.98 0 3.96 0 6 0 C6 0.33 6 0.66 6 1 C4.02 1 2.04 1 0 1 C0 0.67 0 0.34 0 0 Z " fill="#000000" transform="translate(627,224)"/>
<path d="M0 0 C2.475 0.495 2.475 0.495 5 1 C3.68 1.33 2.36 1.66 1 2 C0.67 1.34 0.34 0.68 0 0 Z " fill="#000000" transform="translate(345,217)"/>
<path d="M0 0 C1.65 0 3.3 0 5 0 C3.02 0.99 3.02 0.99 1 2 C0.67 1.34 0.34 0.68 0 0 Z " fill="#000003" transform="translate(105,200)"/>
<path d="M0 0 C1.65 0 3.3 0 5 0 C4.67 0.66 4.34 1.32 4 2 C2.68 1.34 1.36 0.68 0 0 Z " fill="#000002" transform="translate(663,162)"/>
<path d="M0 0 C1.65 0 3.3 0 5 0 C5 0.33 5 0.66 5 1 C3.35 1 1.7 1 0 1 C0 0.67 0 0.34 0 0 Z " fill="#000000" transform="translate(777,217)"/>
<path d="M0 0 C0.33 0 0.66 0 1 0 C1 1.65 1 3.3 1 5 C0.67 5 0.34 5 0 5 C0 3.35 0 1.7 0 0 Z " fill="#000000" transform="translate(825,213)"/>
<path d="M0 0 C0.66 0.33 1.32 0.66 2 1 C0.68 1.33 -0.64 1.66 -2 2 C-1.34 1.34 -0.68 0.68 0 0 Z " fill="#000000" transform="translate(453,211)"/>
<path d="M0 0 C0.33 0 0.66 0 1 0 C1 1.65 1 3.3 1 5 C0.67 5 0.34 5 0 5 C0 3.35 0 1.7 0 0 Z " fill="#000000" transform="translate(307,198)"/>
<path d="M0 0 C0.99 0.495 0.99 0.495 2 1 C2 1.66 2 2.32 2 3 C1.34 3 0.68 3 0 3 C0 2.01 0 1.02 0 0 Z " fill="#000000" transform="translate(183,184)"/>
<path d="M0 0 C0.33 0 0.66 0 1 0 C1 1.65 1 3.3 1 5 C0.67 5 0.34 5 0 5 C0 3.35 0 1.7 0 0 Z " fill="#000000" transform="translate(396,179)"/>
<path d="M0 0 C1.65 0 3.3 0 5 0 C5 0.33 5 0.66 5 1 C3.35 1 1.7 1 0 1 C0 0.67 0 0.34 0 0 Z " fill="#000000" transform="translate(71,171)"/>
<path d="M0 0 C0.33 0.66 0.66 1.32 1 2 C0.34 2.66 -0.32 3.32 -1 4 C-0.67 2.68 -0.34 1.36 0 0 Z " fill="#000002" transform="translate(115,163)"/>
<path d="M0 0 C1.65 0 3.3 0 5 0 C5 0.33 5 0.66 5 1 C3.35 1 1.7 1 0 1 C0 0.67 0 0.34 0 0 Z " fill="#000000" transform="translate(635,156)"/>
<path d="M0 0 C1 4 1 4 1 4 Z " fill="#000005" transform="translate(426,251)"/>
<path d="M0 0 C4 1 4 1 4 1 Z " fill="#000000" transform="translate(721,217)"/>
<path d="M0 0 C1 4 1 4 1 4 Z " fill="#000000" transform="translate(382,184)"/>
<path d="M0 0 C1 4 1 4 1 4 Z " fill="#000000" transform="translate(739,164)"/>
<path d="M0 0 C4 1 4 1 4 1 Z " fill="#000000" transform="translate(725,155)"/>
<path d="M0 0 C1 4 1 4 1 4 Z " fill="#000000" transform="translate(462,138)"/>
<path d="M0 0 C1 4 1 4 1 4 Z " fill="#00000C" transform="translate(455,138)"/>
<path d="M0 0 C4 1 4 1 4 1 Z " fill="#000005" transform="translate(366,66)"/>
<path d="M0 0 C4 1 4 1 4 1 Z " fill="#000000" transform="translate(432,51)"/>
<path d="M0 0 C3 1 3 1 3 1 Z " fill="#000000" transform="translate(483,269)"/>
<path d="M0 0 C3 1 3 1 3 1 Z " fill="#000000" transform="translate(438,269)"/>
<path d="M0 0 C3 1 3 1 3 1 Z " fill="#000000" transform="translate(797,217)"/>
<path d="M0 0 C3 1 3 1 3 1 Z " fill="#000006" transform="translate(682,217)"/>
<path d="M0 0 C0.66 0 1.32 0 2 0 C1.67 0.66 1.34 1.32 1 2 C0.67 1.34 0.34 0.68 0 0 Z " fill="#000000" transform="translate(331,203)"/>
<path d="" fill="#000000" transform="translate(0,0)"/>
<path d="M0 0 C0.99 0.495 0.99 0.495 2 1 C1.01 1.495 1.01 1.495 0 2 C0 1.34 0 0.68 0 0 Z " fill="#000000" transform="translate(216,198)"/>
<path d="M0 0 C0.66 0 1.32 0 2 0 C1.67 0.66 1.34 1.32 1 2 C0.67 1.34 0.34 0.68 0 0 Z " fill="#000000" transform="translate(211,193)"/>
<path d="" fill="#000000" transform="translate(0,0)"/>
<path d="M0 0 C3 1 3 1 3 1 Z " fill="#000000" transform="translate(313,185)"/>
<path d="" fill="#000000" transform="translate(0,0)"/>
<path d="M0 0 C3 1 3 1 3 1 Z " fill="#000000" transform="translate(704,170)"/>
<path d="" fill="#000000" transform="translate(0,0)"/>
<path d="M0 0 C0.99 0.495 0.99 0.495 2 1 C1.01 1.495 1.01 1.495 0 2 C0 1.34 0 0.68 0 0 Z " fill="#000005" transform="translate(629,163)"/>
<path d="M0 0 C3 1 3 1 3 1 Z " fill="#000007" transform="translate(682,162)"/>
<path d="M0 0 C3 1 3 1 3 1 Z " fill="#000000" transform="translate(569,161)"/>
<path d="M0 0 C3 1 3 1 3 1 Z " fill="#000000" transform="translate(782,155)"/>
<path d="M0 0 C0.33 0.66 0.66 1.32 1 2 C0.34 1.67 -0.32 1.34 -1 1 C-0.67 0.67 -0.34 0.34 0 0 Z " fill="#000000" transform="translate(454,97)"/>
<path d="M0 0 C0.66 0 1.32 0 2 0 C1.67 0.66 1.34 1.32 1 2 C0.67 1.34 0.34 0.68 0 0 Z " fill="#000000" transform="translate(496,78)"/>
<path d="M0 0 C0.66 0 1.32 0 2 0 C1.67 0.66 1.34 1.32 1 2 C0.67 1.34 0.34 0.68 0 0 Z " fill="#000000" transform="translate(486,71)"/>
<path d="M0 0 C0.66 0 1.32 0 2 0 C1.67 0.66 1.34 1.32 1 2 C0.67 1.34 0.34 0.68 0 0 Z " fill="#00080C" transform="translate(460,49)"/>
<path d="M0 0 C2 1 2 1 2 1 Z " fill="#000000" transform="translate(467,269)"/>
<path d="M0 0 C2 1 2 1 2 1 Z " fill="#000000" transform="translate(552,225)"/>
<path d="M0 0 C2 1 2 1 2 1 Z " fill="#000000" transform="translate(660,224)"/>
<path d="M0 0 C2 1 2 1 2 1 Z " fill="#000000" transform="translate(239,224)"/>
<path d="" fill="#000000" transform="translate(0,0)"/>
<path d="M0 0 C2 1 2 1 2 1 Z " fill="#000000" transform="translate(227,218)"/>
<path d="M0 0 C2 1 2 1 2 1 Z " fill="#000000" transform="translate(85,218)"/>
<path d="M0 0 C2 1 2 1 2 1 Z " fill="#000000" transform="translate(57,217)"/>
<path d="" fill="#000000" transform="translate(0,0)"/>
<path d="" fill="#000000" transform="translate(0,0)"/>
<path d="" fill="#000000" transform="translate(0,0)"/>
<path d="M0 0 C2 1 2 1 2 1 Z " fill="#000000" transform="translate(338,212)"/>
<path d="" fill="#000000" transform="translate(0,0)"/>
<path d="" fill="#000000" transform="translate(0,0)"/>
<path d="" fill="#000000" transform="translate(0,0)"/>
<path d="M0 0 C2 1 2 1 2 1 Z " fill="#000000" transform="translate(207,190)"/>
<path d="M0 0 C2 1 2 1 2 1 Z " fill="#000000" transform="translate(575,187)"/>
<path d="M0 0 C2 1 2 1 2 1 Z " fill="#000000" transform="translate(316,184)"/>
<path d="" fill="#000000" transform="translate(0,0)"/>
<path d="M0 0 C2 1 2 1 2 1 Z " fill="#000000" transform="translate(797,162)"/>
<path d="M0 0 C2 1 2 1 2 1 Z " fill="#000000" transform="translate(567,154)"/>
<path d="" fill="#000000" transform="translate(0,0)"/>
<path d="M0 0 C2 1 2 1 2 1 Z " fill="#000000" transform="translate(40,135)"/>
<path d="M0 0 C2 1 2 1 2 1 Z " fill="#000000" transform="translate(406,129)"/>
<path d="M0 0 C2 1 2 1 2 1 Z " fill="#000000" transform="translate(412,127)"/>
<path d="M0 0 C2 1 2 1 2 1 Z " fill="#000000" transform="translate(416,126)"/>
<path d="" fill="#000000" transform="translate(0,0)"/>
<path d="" fill="#000000" transform="translate(0,0)"/>
<path d="M0 0 C2 1 2 1 2 1 Z " fill="#000000" transform="translate(426,51)"/>
<path d="M0 0 C2 1 2 1 2 1 Z " fill="#000006" transform="translate(461,43)"/>
<path d="M0 0 C2 1 2 1 2 1 Z " fill="#000000" transform="translate(481,33)"/>
<path d="" fill="#000000" transform="translate(0,0)"/>
<path d="" fill="#000000" transform="translate(0,0)"/>
<path d="" fill="#000B16" transform="translate(0,0)"/>
<path d="" fill="#000000" transform="translate(0,0)"/>
<path d="" fill="#000000" transform="translate(0,0)"/>
<path d="" fill="#000000" transform="translate(0,0)"/>
<path d="" fill="#000000" transform="translate(0,0)"/>
<path d="" fill="#000000" transform="translate(0,0)"/>
<path d="" fill="#000000" transform="translate(0,0)"/>
<path d="" fill="#000000" transform="translate(0,0)"/>
<path d="" fill="#000000" transform="translate(0,0)"/>
<path d="" fill="#000000" transform="translate(0,0)"/>
<path d="" fill="#000000" transform="translate(0,0)"/>
<path d="" fill="#000000" transform="translate(0,0)"/>
<path d="" fill="#000000" transform="translate(0,0)"/>
<path d="" fill="#000000" transform="translate(0,0)"/>
<path d="" fill="#000000" transform="translate(0,0)"/>
<path d="" fill="#000000" transform="translate(0,0)"/>
<path d="" fill="#000000" transform="translate(0,0)"/>
<path d="" fill="#000000" transform="translate(0,0)"/>
<path d="" fill="#000000" transform="translate(0,0)"/>
<path d="" fill="#000000" transform="translate(0,0)"/>
<path d="" fill="#000000" transform="translate(0,0)"/>
<path d="" fill="#000000" transform="translate(0,0)"/>
<path d="" fill="#000000" transform="translate(0,0)"/>
<path d="" fill="#000014" transform="translate(0,0)"/>
<path d="" fill="#000000" transform="translate(0,0)"/>
<path d="" fill="#000000" transform="translate(0,0)"/>
<path d="" fill="#000000" transform="translate(0,0)"/>
<path d="" fill="#000000" transform="translate(0,0)"/>
<path d="" fill="#000000" transform="translate(0,0)"/>
<path d="" fill="#000000" transform="translate(0,0)"/>
<path d="" fill="#000000" transform="translate(0,0)"/>
<path d="" fill="#000000" transform="translate(0,0)"/>
<path d="" fill="#000000" transform="translate(0,0)"/>
<path d="" fill="#000000" transform="translate(0,0)"/>
<path d="" fill="#000000" transform="translate(0,0)"/>
<path d="" fill="#000000" transform="translate(0,0)"/>
<path d="" fill="#000000" transform="translate(0,0)"/>
<path d="" fill="#000000" transform="translate(0,0)"/>
<path d="" fill="#000000" transform="translate(0,0)"/>
<path d="" fill="#000000" transform="translate(0,0)"/>
<path d="" fill="#000000" transform="translate(0,0)"/>
<path d="" fill="#000000" transform="translate(0,0)"/>
<path d="" fill="#000000" transform="translate(0,0)"/>
<path d="" fill="#000000" transform="translate(0,0)"/>
<path d="" fill="#000000" transform="translate(0,0)"/>
<path d="" fill="#000012" transform="translate(0,0)"/>
<path d="" fill="#000000" transform="translate(0,0)"/>
<path d="" fill="#000000" transform="translate(0,0)"/>
<path d="" fill="#000000" transform="translate(0,0)"/>
<path d="" fill="#000000" transform="translate(0,0)"/>
<path d="" fill="#000000" transform="translate(0,0)"/>
<path d="" fill="#000000" transform="translate(0,0)"/>
<path d="" fill="#000000" transform="translate(0,0)"/>
<path d="" fill="#000000" transform="translate(0,0)"/>
<path d="" fill="#000000" transform="translate(0,0)"/>
<path d="" fill="#000000" transform="translate(0,0)"/>
<path d="" fill="#000000" transform="translate(0,0)"/>
<path d="" fill="#000000" transform="translate(0,0)"/>
<path d="" fill="#000000" transform="translate(0,0)"/>
<path d="" fill="#000000" transform="translate(0,0)"/>
<path d="" fill="#000000" transform="translate(0,0)"/>
<path d="" fill="#000000" transform="translate(0,0)"/>
<path d="" fill="#000000" transform="translate(0,0)"/>
<path d="" fill="#000000" transform="translate(0,0)"/>
<path d="" fill="#000000" transform="translate(0,0)"/>
<path d="" fill="#000000" transform="translate(0,0)"/>
<path d="" fill="#000000" transform="translate(0,0)"/>
<path d="" fill="#000000" transform="translate(0,0)"/>
<path d="" fill="#000000" transform="translate(0,0)"/>
<path d="" fill="#000000" transform="translate(0,0)"/>
<path d="" fill="#000000" transform="translate(0,0)"/>
<path d="" fill="#000000" transform="translate(0,0)"/>
<path d="" fill="#000000" transform="translate(0,0)"/>
<path d="" fill="#000000" transform="translate(0,0)"/>
<path d="" fill="#000000" transform="translate(0,0)"/>
<path d="" fill="#000000" transform="translate(0,0)"/>
<path d="" fill="#000000" transform="translate(0,0)"/>
<path d="" fill="#000000" transform="translate(0,0)"/>
<path d="" fill="#000000" transform="translate(0,0)"/>
<path d="" fill="#000000" transform="translate(0,0)"/>
<path d="" fill="#000000" transform="translate(0,0)"/>
<path d="" fill="#000000" transform="translate(0,0)"/>
<path d="" fill="#000000" transform="translate(0,0)"/>
<path d="" fill="#000000" transform="translate(0,0)"/>
<path d="" fill="#000000" transform="translate(0,0)"/>
<path d="" fill="#000000" transform="translate(0,0)"/>
<path d="" fill="#000011" transform="translate(0,0)"/>
<path d="" fill="#000000" transform="translate(0,0)"/>
<path d="" fill="#00000C" transform="translate(0,0)"/>
<path d="" fill="#000000" transform="translate(0,0)"/>
<path d="" fill="#000000" transform="translate(0,0)"/>
<path d="" fill="#000000" transform="translate(0,0)"/>
<path d="" fill="#000000" transform="translate(0,0)"/>
<path d="" fill="#000000" transform="translate(0,0)"/>
<path d="" fill="#000000" transform="translate(0,0)"/>
<path d="" fill="#000012" transform="translate(0,0)"/>
<path d="" fill="#000000" transform="translate(0,0)"/>
<path d="" fill="#000000" transform="translate(0,0)"/>
<path d="" fill="#000000" transform="translate(0,0)"/>
<path d="" fill="#000000" transform="translate(0,0)"/>
<path d="" fill="#000000" transform="translate(0,0)"/>
<path d="" fill="#000000" transform="translate(0,0)"/>
<path d="" fill="#000000" transform="translate(0,0)"/>
</svg>
