<?xml version="1.0" encoding="UTF-8"?>
<svg version="1.1" xmlns="http://www.w3.org/2000/svg" width="343" height="200">
<path d="M0 0 C1.03688965 0.05236816 2.0737793 0.10473633 3.14208984 0.15869141 C4.82431641 0.23603516 4.82431641 0.23603516 6.54052734 0.31494141 C7.71615234 0.37939453 8.89177734 0.44384766 10.10302734 0.51025391 C11.87806641 0.59533203 11.87806641 0.59533203 13.68896484 0.68212891 C16.61923847 0.82391634 19.54869507 0.97535724 22.47802734 1.13525391 C25.73719035 7.91832686 28.03810827 14.80182518 30.16552734 22.01025391 C32.33250031 29.26704486 34.56306588 36.47910553 37.06787109 43.62744141 C37.70172729 45.44912842 37.70172729 45.44912842 38.34838867 47.30761719 C39.17067048 49.6523764 40.00726524 51.99217616 40.85961914 54.32617188 C41.23127197 55.3923877 41.6029248 56.45860352 41.98583984 57.55712891 C42.32244629 58.49137695 42.65905273 59.425625 43.00585938 60.38818359 C43.93746327 65.80824926 41.16057529 69.95695618 38.22802734 74.32275391 C35.25773226 78.75775872 32.69338238 83.3370037 30.15966797 88.02905273 C27.4251032 93.08013687 24.62737625 98.0961247 21.83642578 103.11621094 C20.84652893 104.89694396 19.85755189 106.67818565 18.86865234 108.45947266 C17.61427249 110.71684854 16.34625147 112.96671681 15.0625 115.20751953 C13.46924176 117.98024186 13.46924176 117.98024186 12.62402344 120.48486328 C11.89990234 122.40087891 11.89990234 122.40087891 9.47802734 125.13525391 C4.77127113 126.16919968 0.1564406 126.15919914 -4.64697266 126.13525391 C-5.94763672 126.15974609 -7.24830078 126.18423828 -8.58837891 126.20947266 C-18.11577015 126.33835516 -18.11577015 126.33835516 -20.52197266 125.13525391 C-18.99733102 119.91850711 -16.66766335 115.4414948 -14.08447266 110.69775391 C-9.65672732 102.4405413 -5.55321602 94.06247138 -1.58789062 85.57421875 C0.54708173 81.03730687 2.7320864 76.59018597 5.24365234 72.24853516 C5.88838501 71.11955811 5.88838501 71.11955811 6.54614258 69.96777344 C7.34354367 68.59324608 8.16418794 67.23178979 9.01342773 65.88867188 C11.67679743 61.2761861 11.66576215 58.21687507 10.35668945 53.10083008 C10.06673096 52.12218994 9.77677246 51.1435498 9.47802734 50.13525391 C9.13070557 48.93167236 8.78338379 47.72809082 8.42553711 46.48803711 C7.1945479 42.29443245 5.90138136 38.12089979 4.60302734 33.94775391 C2.86816707 28.35145113 1.15032251 22.75060535 -0.52197266 17.13525391 C-0.84180115 16.06352936 -0.84180115 16.06352936 -1.16809082 14.97015381 C-1.78221302 12.88707628 -2.37785365 10.79965428 -2.96728516 8.70947266 C-3.31549316 7.49219482 -3.66370117 6.27491699 -4.02246094 5.02075195 C-4.1872998 4.0685376 -4.35213867 3.11632324 -4.52197266 2.13525391 C-2.52197266 0.13525391 -2.52197266 0.13525391 0 0 Z " fill="#E91C22" transform="translate(249.52197265625,36.86474609375)"/>
<path d="M0 0 C1.77503906 0.03480469 1.77503906 0.03480469 3.5859375 0.0703125 C5.36871094 0.09738281 5.36871094 0.09738281 7.1875 0.125 C8.10273437 0.14820313 9.01796875 0.17140625 9.9609375 0.1953125 C12.67916338 7.76226564 14.45738994 15.40383605 16.1484375 23.2578125 C16.42107422 24.50498047 16.69371094 25.75214844 16.97460938 27.03710938 C17.64109666 30.08891959 18.30308882 33.14163066 18.9609375 36.1953125 C19.26583883 34.46753831 19.57071531 32.73975973 19.87548828 31.01196289 C20.14298425 29.49675414 20.41089455 27.98161849 20.67919922 26.46655273 C21.3934498 22.42982846 22.10065522 18.39211121 22.79296875 14.3515625 C22.92598389 13.58126709 23.05899902 12.81097168 23.19604492 12.01733398 C23.45264058 10.53030031 23.70677684 9.04283982 23.95825195 7.55493164 C24.84850509 2.42017731 24.84850509 2.42017731 25.9609375 0.1953125 C30.2509375 0.1953125 34.5409375 0.1953125 38.9609375 0.1953125 C39.96180958 4.19880082 39.8567932 5.99285527 39.171875 9.95703125 C38.97948242 11.11251465 38.78708984 12.26799805 38.58886719 13.45849609 C38.38165039 14.69164551 38.17443359 15.92479492 37.9609375 17.1953125 C37.57299498 19.74271362 37.19033166 22.29092337 36.8125 24.83984375 C36.61199285 26.17892453 36.4111408 27.51795371 36.20996094 28.85693359 C36.05714661 29.87433624 36.05714661 29.87433624 35.90124512 30.91229248 C34.23655077 41.97577504 32.53902324 53.03240964 30.7109375 64.0703125 C30.54803223 65.06135986 30.38512695 66.05240723 30.21728516 67.07348633 C30.06565918 67.97736084 29.9140332 68.88123535 29.7578125 69.8125 C29.56203613 70.98208252 29.56203613 70.98208252 29.36230469 72.17529297 C28.9609375 74.1953125 28.9609375 74.1953125 27.9609375 77.1953125 C24.73139101 78.02874385 21.59514618 78.33816061 18.2734375 78.4453125 C17.50644531 78.47109375 16.73945312 78.496875 15.94921875 78.5234375 C15.29308594 78.41515625 14.63695313 78.306875 13.9609375 78.1953125 C11.7234994 74.83915535 11.14851092 72.30133124 10.26953125 68.375 C10.1193605 67.71573517 9.96918976 67.05647034 9.81446838 66.37722778 C9.33655883 64.27620541 8.8668986 62.17346008 8.3984375 60.0703125 C7.92550908 57.96025034 7.45078244 55.85064648 6.97169495 53.74197388 C6.5385984 51.83399894 6.11180454 49.92459664 5.68530273 48.01513672 C5.24540261 45.31013125 5.24540261 45.31013125 3.9609375 44.1953125 C3.75730591 45.58036987 3.75730591 45.58036987 3.54956055 46.9934082 C3.03942749 50.4222882 2.51824682 53.84910716 1.98950195 57.27514648 C1.7630489 58.75754677 1.54100529 60.24062769 1.32348633 61.72436523 C1.00982357 63.85855806 0.68031879 65.98979046 0.34765625 68.12109375 C0.15389404 69.40411377 -0.03986816 70.68713379 -0.23950195 72.0090332 C-1.022547 75.12949759 -1.39004155 76.43146011 -4.0390625 78.1953125 C-6.95703125 78.26953125 -6.95703125 78.26953125 -10.2265625 77.8828125 C-11.31324219 77.76292969 -12.39992187 77.64304687 -13.51953125 77.51953125 C-14.35097656 77.41253906 -15.18242188 77.30554688 -16.0390625 77.1953125 C-16.41985065 69.2675324 -14.99269378 61.61882947 -13.703125 53.828125 C-13.46097149 52.34224605 -13.21914536 50.85631372 -12.97763062 49.37033081 C-12.47241431 46.27156263 -11.96245004 43.17362228 -11.44921875 40.07617188 C-10.79142124 36.10311582 -10.14689348 32.12803541 -9.50599098 28.15222359 C-9.01072983 25.09043814 -8.5079045 22.02993195 -8.00281906 18.96975327 C-7.76191068 17.50370779 -7.52351789 16.03724667 -7.28767776 14.57037735 C-6.95819182 12.52747558 -6.61842173 10.48654794 -6.27587891 8.44580078 C-6.08490631 7.28412384 -5.89393372 6.1224469 -5.69717407 4.92556763 C-4.7629628 1.04987965 -4.01116559 0.25778699 0 0 Z " fill="#E91C22" transform="translate(60.0390625,60.8046875)"/>
<path d="M0 0 C4.52071021 -0.08751499 9.0412007 -0.1405661 13.5625 -0.1875 C15.47772461 -0.22520508 15.47772461 -0.22520508 17.43164062 -0.26367188 C29.80318349 -0.36007351 29.80318349 -0.36007351 35 3 C38.6539864 7.10232829 38.50533327 11.45402765 38.4375 16.6875 C38.43065186 17.48897461 38.42380371 18.29044922 38.41674805 19.11621094 C38.16566338 28.40352252 35.50898886 35.31972196 29 42 C28.01 42.495 28.01 42.495 27 43 C27.19625977 43.58845703 27.39251953 44.17691406 27.59472656 44.78320312 C29.67439682 51.31056081 30.88111468 57.71354831 31.75 64.5 C31.88792969 65.48742187 32.02585938 66.47484375 32.16796875 67.4921875 C33.1308171 74.7383658 33.1308171 74.7383658 32 77 C29.48905397 77.34091947 27.0852383 77.5593831 24.5625 77.6875 C23.86833984 77.73455078 23.17417969 77.78160156 22.45898438 77.83007812 C17.27267316 78.13633658 17.27267316 78.13633658 15 77 C14.39740298 74.55044313 13.91602755 72.16980714 13.5 69.6875 C13.30772827 68.61230103 13.30772827 68.61230103 13.11157227 67.51538086 C12.14845984 62.07950902 11.29982405 56.62637399 10.52734375 51.16015625 C10.35332031 50.44730469 10.17929688 49.73445313 10 49 C9.34 48.67 8.68 48.34 8 48 C7.80664062 49.09957031 7.61328125 50.19914062 7.4140625 51.33203125 C6.87698291 54.38446816 6.33756321 57.43648161 5.796875 60.48828125 C5.32149512 63.17214987 4.85264443 65.85674042 4.390625 68.54296875 C4.22046875 69.51878906 4.0503125 70.49460937 3.875 71.5 C3.72804687 72.3559375 3.58109375 73.211875 3.4296875 74.09375 C3 76 3 76 2 77 C-0.34987262 77.23527773 -2.70556039 77.41386417 -5.0625 77.5625 C-6.35285156 77.64628906 -7.64320313 77.73007813 -8.97265625 77.81640625 C-9.97167969 77.87699219 -10.97070312 77.93757813 -12 78 C-13.21534737 74.35395788 -12.78548863 72.19066567 -12.25 68.38671875 C-12.10984467 67.38140106 -12.10984467 67.38140106 -11.96685791 66.35577393 C-11.65306852 64.13170834 -11.32736184 61.90960594 -11 59.6875 C-10.83510071 58.54657394 -10.83510071 58.54657394 -10.66687012 57.38259888 C-8.80179549 44.51790655 -6.60836094 31.72028872 -4.25 18.9375 C-4.01869385 17.67962173 -4.01869385 17.67962173 -3.78271484 16.39633179 C-3.34410907 14.02244808 -2.9000917 11.64966608 -2.453125 9.27734375 C-2.32101624 8.56749329 -2.18890747 7.85764282 -2.05279541 7.12628174 C-1.11736054 2.23472108 -1.11736054 2.23472108 0 0 Z M12 18 C11.34 22.29 10.68 26.58 10 31 C15.62019508 31.26479776 15.62019508 31.26479776 20 29 C22.30066711 25.77906604 22.25831152 22.87467279 22 19 C20.99163938 17.76732652 20.99163938 17.76732652 18.93359375 17.90234375 C16.62239583 17.93489583 14.31119792 17.96744792 12 18 Z " fill="#E51C22" transform="translate(199,61)"/>
<path d="M0 0 C1.00509109 -0.00143509 1.00509109 -0.00143509 2.03048706 -0.00289917 C3.45457045 -0.00358135 4.87865692 -0.00172444 6.30273438 0.00244141 C8.46231283 0.00773921 10.62167849 0.00252399 12.78125 -0.00390625 C14.16666712 -0.00324449 15.55208411 -0.00196132 16.9375 0 C18.19320801 0.00112793 19.44891602 0.00225586 20.74267578 0.00341797 C24.35009204 0.13220219 27.80630203 0.55603726 31.3671875 1.1328125 C30.89273995 3.77957339 30.41287422 6.42514614 29.9296875 9.0703125 C29.79498047 9.82505859 29.66027344 10.57980469 29.52148438 11.35742188 C28.48046875 17.01953125 28.48046875 17.01953125 27.3671875 18.1328125 C25.73461992 18.28995904 24.09583412 18.38366664 22.45703125 18.44921875 C21.46767578 18.49111328 20.47832031 18.53300781 19.45898438 18.57617188 C18.41806641 18.61548828 17.37714844 18.65480469 16.3046875 18.6953125 C15.25990234 18.73849609 14.21511719 18.78167969 13.13867188 18.82617188 C10.54831866 18.93262475 7.95786564 19.0346401 5.3671875 19.1328125 C5.0371875 22.1028125 4.7071875 25.0728125 4.3671875 28.1328125 C5.64335937 28.12121094 6.91953125 28.10960938 8.234375 28.09765625 C9.90364437 28.08827833 11.57291533 28.07917813 13.2421875 28.0703125 C14.08394531 28.06193359 14.92570312 28.05355469 15.79296875 28.04492188 C16.59863281 28.04169922 17.40429688 28.03847656 18.234375 28.03515625 C19.34981689 28.02730103 19.34981689 28.02730103 20.48779297 28.01928711 C22.3671875 28.1328125 22.3671875 28.1328125 24.3671875 29.1328125 C24.22608764 31.23730188 24.07914575 33.3414002 23.9296875 35.4453125 C23.84847656 36.61707031 23.76726562 37.78882813 23.68359375 38.99609375 C23.3671875 42.1328125 23.3671875 42.1328125 22.3671875 45.1328125 C17.74259506 46.30981298 13.28852288 46.24689662 8.5546875 46.1953125 C7.76642578 46.19080078 6.97816406 46.18628906 6.16601562 46.18164062 C4.23303989 46.16992562 2.30010357 46.15199248 0.3671875 46.1328125 C0.0371875 49.7628125 -0.2928125 53.3928125 -0.6328125 57.1328125 C1.60628906 57.18888672 1.60628906 57.18888672 3.890625 57.24609375 C5.84117166 57.31173715 7.79169135 57.37818504 9.7421875 57.4453125 C10.72703125 57.46787109 11.711875 57.49042969 12.7265625 57.51367188 C13.66757813 57.54912109 14.60859375 57.58457031 15.578125 57.62109375 C16.88209229 57.66036987 16.88209229 57.66036987 18.21240234 57.70043945 C20.3671875 58.1328125 20.3671875 58.1328125 22.3671875 61.1328125 C22.02580875 63.94195457 21.58853431 66.56701775 20.9921875 69.3203125 C20.84007812 70.06990234 20.68796875 70.81949219 20.53125 71.59179688 C20.15432242 73.44109783 19.76220147 75.28729025 19.3671875 77.1328125 C13.97388884 77.30003775 8.58044999 77.46063618 3.18676758 77.61499023 C1.35045 77.66848784 -0.48581497 77.72382296 -2.32202148 77.78100586 C-4.95545097 77.86270114 -7.58899655 77.93786988 -10.22265625 78.01171875 C-11.04869858 78.03875381 -11.87474091 78.06578888 -12.72581482 78.09364319 C-14.6941706 78.14564261 -16.66380581 78.14469087 -18.6328125 78.1328125 C-19.6328125 77.1328125 -19.6328125 77.1328125 -19.77075195 73.58984375 C-19.7136714 69.25099827 -19.15073231 65.09181583 -18.42578125 60.8203125 C-18.29972 60.0483252 -18.17365875 59.27633789 -18.04377747 58.48095703 C-17.77685982 56.85351491 -17.50693142 55.22656399 -17.23413086 53.60009766 C-16.82621213 51.16798755 -16.42687183 48.73460136 -16.02929688 46.30078125 C-14.37151512 36.21666835 -12.55986032 26.1688947 -10.6328125 16.1328125 C-10.46773193 15.26285645 -10.30265137 14.39290039 -10.13256836 13.49658203 C-9.76397131 11.5616106 -9.38650965 9.62833259 -9.0078125 7.6953125 C-8.64816406 5.84099609 -8.64816406 5.84099609 -8.28125 3.94921875 C-7.10885761 -1.14291926 -4.87286709 0.00440073 0 0 Z " fill="#E71C22" transform="translate(160.6328125,60.8671875)"/>
<path d="M0 0 C1.33278992 0.00303635 1.33278992 0.00303635 2.69250488 0.00613403 C3.5987561 0.00517731 4.50500732 0.00422058 5.4387207 0.00323486 C7.35876535 0.002553 9.27881229 0.00440771 11.19885254 0.00857544 C14.14861192 0.01392361 17.09821902 0.00863066 20.04797363 0.00222778 C21.90865105 0.00288856 23.76932838 0.00416972 25.63000488 0.00613403 C26.51853149 0.0041098 27.40705811 0.00208557 28.32250977 0 C34.546305 0.02399665 34.546305 0.02399665 35.66125488 1.13894653 C35.52697273 7.68778392 34.77505745 13.93845901 32.66125488 20.13894653 C28.04125488 20.46894653 23.42125488 20.79894653 18.66125488 21.13894653 C18.52767578 22.5724646 18.39409668 24.00598267 18.25646973 25.48294067 C17.41487392 33.87723668 16.06331945 42.19472128 14.7598877 50.52737427 C14.44231485 52.5717904 14.13019971 54.61706127 13.82336426 56.66311646 C13.37758532 59.63489699 12.9158329 62.60379549 12.45031738 65.57254028 C12.31582184 66.48813217 12.18132629 67.40372406 12.04275513 68.34706116 C11.90606415 69.19547073 11.76937317 70.04388031 11.62854004 70.91799927 C11.51386383 71.66283066 11.39918762 72.40766205 11.28103638 73.17506409 C10.5252638 75.56985728 9.64592505 76.61669952 7.66125488 78.13894653 C4.52453613 78.43191528 4.52453613 78.43191528 0.97375488 78.32644653 C-0.7954834 78.28584106 -0.7954834 78.28584106 -2.60046387 78.24441528 C-3.50409668 78.2096106 -4.40772949 78.17480591 -5.33874512 78.13894653 C-6.36514522 74.91106632 -6.28272605 72.57466643 -5.71789551 69.25027466 C-5.47753319 67.79856873 -5.47753319 67.79856873 -5.23231506 66.3175354 C-5.05216354 65.27891357 -4.87201202 64.24029175 -4.68640137 63.17019653 C-4.50741806 62.09773682 -4.32843475 61.0252771 -4.14402771 59.9203186 C-3.57070129 56.49186561 -2.9865665 53.06537033 -2.40124512 49.63894653 C-1.82116521 46.21227159 -1.24339694 42.78523583 -0.66917419 39.35757446 C-0.31128628 37.22452845 0.05027781 35.0920953 0.4158783 32.96035767 C0.579272 31.99255371 0.74266571 31.02474976 0.91101074 30.02761841 C1.05614609 29.17808594 1.20128143 28.32855347 1.35081482 27.45327759 C1.74988649 24.86737433 1.74988649 24.86737433 1.66125488 21.13894653 C-2.29874512 20.80894653 -6.25874512 20.47894653 -10.33874512 20.13894653 C-8.83087777 0.03404859 -8.83087777 0.03404859 0 0 Z " fill="#E91C22" transform="translate(112.3387451171875,60.861053466796875)"/>
<path d="M0 0 C1.74796875 0.02126953 1.74796875 0.02126953 3.53125 0.04296875 C5.27921875 0.05263672 5.27921875 0.05263672 7.0625 0.0625 C10.03125 0.23046875 10.03125 0.23046875 12.03125 1.23046875 C11.88091309 2.1220166 11.73057617 3.01356445 11.57568359 3.93212891 C10.9855534 7.43767177 10.3971078 10.94348984 9.8097229 14.44949341 C9.54103957 16.05169634 9.27181467 17.65380854 9.00204468 19.25582886 C7.3927126 28.81863621 5.83931509 38.3862311 4.40234375 47.9765625 C4.13831904 49.71990984 3.87416066 51.46323694 3.60986328 53.20654297 C3.22576733 55.74172142 2.84603051 58.27716052 2.47991943 60.81500244 C2.13930913 63.17529206 1.78395393 65.53294667 1.42578125 67.890625 C1.32905624 68.59215195 1.23233124 69.29367889 1.13267517 70.01646423 C0.70062392 72.78531088 0.28044527 74.88042331 -1.35986328 77.18457031 C-4.05112692 78.93409587 -6.55268622 78.25598065 -9.65625 77.91796875 C-10.83574219 77.79808594 -12.01523437 77.67820312 -13.23046875 77.5546875 C-14.13410156 77.44769531 -15.03773437 77.34070313 -15.96875 77.23046875 C-16.34953815 69.30268865 -14.92238128 61.65398572 -13.6328125 53.86328125 C-13.39065899 52.3774023 -13.14883286 50.89146997 -12.90731812 49.40548706 C-12.40210181 46.30671888 -11.89213754 43.20877853 -11.37890625 40.11132812 C-10.72110874 36.13827207 -10.07658098 32.16319166 -9.43567848 28.18737984 C-8.94041733 25.12559439 -8.437592 22.0650882 -7.93250656 19.00490952 C-7.69159818 17.53886404 -7.45320539 16.07240292 -7.21736526 14.6055336 C-6.88787932 12.56263183 -6.54810923 10.52170419 -6.20556641 8.48095703 C-6.01459381 7.31928009 -5.82362122 6.15760315 -5.62686157 4.96072388 C-4.70479614 1.13542439 -3.95674011 0.30716798 0 0 Z " fill="#E91D22" transform="translate(35.96875,60.76953125)"/>
<path d="M0 0 C1.28825684 0.05236816 2.57651367 0.10473633 3.90380859 0.15869141 C4.58905609 0.18371735 5.27430359 0.20874329 5.98031616 0.23452759 C8.17145919 0.316777 10.3617072 0.41334439 12.55224609 0.51025391 C14.0365844 0.56848863 15.52095955 0.62579202 17.00537109 0.68212891 C20.64648583 0.82236148 24.28693229 0.97544141 27.92724609 1.13525391 C27.16031269 3.17838874 26.38851408 5.21969763 25.61474609 7.26025391 C25.18548828 8.39720703 24.75623047 9.53416016 24.31396484 10.70556641 C23.00352537 13.94659698 21.53505319 17.03279916 19.92724609 20.13525391 C19.26724609 20.13525391 18.60724609 20.13525391 17.92724609 20.13525391 C17.59724609 22.11525391 17.26724609 24.09525391 16.92724609 26.13525391 C16.26724609 26.13525391 15.60724609 26.13525391 14.92724609 26.13525391 C14.83443359 27.31087891 14.83443359 27.31087891 14.73974609 28.51025391 C13.80929763 32.66148549 12.16113805 35.92912373 10.18115234 39.67041016 C8.9383809 42.11336585 7.90760478 44.57720171 6.92724609 47.13525391 C6.26724609 47.13525391 5.60724609 47.13525391 4.92724609 47.13525391 C4.61787109 48.08400391 4.30849609 49.03275391 3.98974609 50.01025391 C2.92724609 53.13525391 2.92724609 53.13525391 1.92724609 55.13525391 C1.26724609 55.13525391 0.60724609 55.13525391 -0.07275391 55.13525391 C-2.57576353 48.98489996 -4.74120835 42.73068317 -6.88525391 36.44775391 C-7.330625 35.21863281 -7.77599609 33.98951172 -8.23486328 32.72314453 C-10.92673795 24.72430934 -11.48587746 19.8747693 -8.07275391 12.13525391 C-7.78271484 11.11431641 -7.49267578 10.09337891 -7.19384766 9.04150391 C-6.96826172 8.24744141 -6.74267578 7.45337891 -6.51025391 6.63525391 C-6.28208984 5.82056641 -6.05392578 5.00587891 -5.81884766 4.16650391 C-4.56264567 0.74647755 -3.64516358 0.16044976 0 0 Z " fill="#020202" transform="translate(296.07275390625,36.86474609375)"/>
<path d="M0 0 C1 3 1 3 0 8 C3.63 8 7.26 8 11 8 C11 9.65 11 11.3 11 13 C11.33 12.67 11.66 12.34 12 12 C12.99 11.34 13.98 10.68 15 10 C15 10.99 15 11.98 15 13 C15.66 13 16.32 13 17 13 C17.495 13.99 17.495 13.99 18 15 C18.66 15.33 19.32 15.66 20 16 C19.01 16.33 18.02 16.66 17 17 C17.88175522 24.75944591 19.78224765 32.34674295 22.25 39.75 C23.20334897 43.88117887 22.72959816 46.84129047 22 51 C17.71 51 13.42 51 9 51 C8.73445313 49.34871094 8.46890625 47.69742188 8.1953125 45.99609375 C7.83875941 43.80986031 7.48197646 41.62366435 7.125 39.4375 C6.95097656 38.35146484 6.77695313 37.26542969 6.59765625 36.14648438 C5.69365528 30.63877477 4.69469757 25.32073965 3 20 C1.02 20.33 -0.96 20.66 -3 21 C-3.03738281 21.825 -3.07476562 22.65 -3.11328125 23.5 C-3.64684065 32.87390624 -5.10407134 41.8184587 -7 51 C-10.96 51 -14.92 51 -19 51 C-18.74605469 49.52273437 -18.49210938 48.04546875 -18.23046875 46.5234375 C-17.88191488 44.4741108 -17.53433215 42.42461879 -17.1875 40.375 C-17.00590332 39.3022583 -16.82430664 38.2295166 -16.63720703 37.12426758 C-15.23825219 28.72992336 -14.04539373 20.32115105 -13.03979492 11.87060547 C-12.93127197 11.00967285 -12.82274902 10.14874023 -12.7109375 9.26171875 C-12.62118652 8.50850342 -12.53143555 7.75528809 -12.43896484 6.97924805 C-12 5 -12 5 -10 2 C-8.47700477 4.93720508 -7.19899698 7.9168649 -6 11 C-5.34 10.34 -4.68 9.68 -4 9 C-3.34 8.67 -2.68 8.34 -2 8 C-1.62599214 5.67284 -1.29235267 3.33882138 -1 1 C-0.67 0.67 -0.34 0.34 0 0 Z " fill="#E91C23" transform="translate(207,85)"/>
<path d="M0 0 C0.66 0 1.32 0 2 0 C2.33773438 1.09699219 2.67546875 2.19398437 3.0234375 3.32421875 C3.47385102 4.77867907 3.92437784 6.23310431 4.375 7.6875 C4.59671875 8.40873047 4.8184375 9.12996094 5.046875 9.87304688 C5.9922044 12.91756363 6.95463003 15.88841439 8.15625 18.84375 C9.13649108 21.34881054 9.1523744 23.33344796 9 26 C9.66 26.33 10.32 26.66 11 27 C11.81640625 29.3984375 11.81640625 29.3984375 12.5625 32.375 C13.92134262 37.71879021 13.92134262 37.71879021 15.7890625 42.90234375 C16.06492187 43.57394531 16.34078125 44.24554688 16.625 44.9375 C16.90601563 45.60652344 17.18703125 46.27554688 17.4765625 46.96484375 C18.09138353 49.35530463 17.66512675 50.66169236 17 53 C13.06754915 53.12368591 9.13585202 53.21437336 5.2019043 53.2746582 C3.20646445 53.31214374 1.21156948 53.37567535 -0.78320312 53.43945312 C-2.03681641 53.45556641 -3.29042969 53.47167969 -4.58203125 53.48828125 C-5.73936768 53.51446533 -6.8967041 53.54064941 -8.08911133 53.56762695 C-11 53 -11 53 -12.84399414 50.62353516 C-13.94835609 48.11720495 -14.86838755 45.69401473 -15.625 43.0625 C-15.86476563 42.24910156 -16.10453125 41.43570313 -16.3515625 40.59765625 C-16.56554687 39.74042969 -16.77953125 38.88320312 -17 38 C-17.28746094 37.07316406 -17.57492187 36.14632812 -17.87109375 35.19140625 C-18.06114296 30.48624863 -15.93830903 27.73885473 -13.4375 23.875 C-12.50598552 22.37172611 -11.57760838 20.86650372 -10.65234375 19.359375 C-10.19714355 18.62267578 -9.74194336 17.88597656 -9.27294922 17.12695312 C-6.98806055 13.30916446 -5.07813187 9.33168221 -3.15625 5.3203125 C-2 3 -2 3 0 0 Z " fill="#030203" transform="translate(294,110)"/>
<path d="M0 0 C1.85625 0.061875 1.85625 0.061875 3.75 0.125 C3.00087176 5.50018821 2.17529885 10.86197964 1.34130859 16.22460938 C-0.15316847 25.83452465 -1.58599081 35.43860938 -2.81640625 45.0859375 C-3.32137347 48.62525731 -4.05761361 52.08340459 -4.8203125 55.57421875 C-5.53191065 59.79852412 -5.65058625 64.06344725 -5.80859375 68.33984375 C-6.25 71.125 -6.25 71.125 -7.56640625 72.98828125 C-10.34624404 74.86515549 -13.00296178 74.3569313 -16.25 74.125 C-19.25 73.125 -19.25 73.125 -20.3046875 71.08984375 C-21.50561851 67.32328739 -22.47241353 63.53519268 -23.375 59.6875 C-23.55675781 58.94951172 -23.73851563 58.21152344 -23.92578125 57.45117188 C-24.91820606 53.25388648 -25.45663984 49.4713246 -25.25 45.125 C-23.27 44.63 -23.27 44.63 -21.25 44.125 C-20.92 41.815 -20.59 39.505 -20.25 37.125 C-19.59 37.125 -18.93 37.125 -18.25 37.125 C-17.92 36.465 -17.59 35.805 -17.25 35.125 C-17.58 36.445 -17.91 37.765 -18.25 39.125 C-16.93 39.125 -15.61 39.125 -14.25 39.125 C-13.26 36.485 -12.27 33.845 -11.25 31.125 C-10.25 35.125 -10.25 35.125 -11.25 37.125 C-10.26 37.125 -9.27 37.125 -8.25 37.125 C-7.59 38.115 -6.93 39.105 -6.25 40.125 C-6.25 39.465 -6.25 38.805 -6.25 38.125 C-5.59 37.465 -4.93 36.805 -4.25 36.125 C-4.5685177 34.01679203 -4.5685177 34.01679203 -5.25 32.125 C-6.24 33.445 -7.23 34.765 -8.25 36.125 C-9.23120464 33.07236336 -9.23120464 31.17763664 -8.25 28.125 C-8.91 28.125 -9.57 28.125 -10.25 28.125 C-10.25 27.465 -10.25 26.805 -10.25 26.125 C-9.59 26.125 -8.93 26.125 -8.25 26.125 C-7.05011955 20.84300407 -7.05011955 20.84300407 -9.25 16.125 C-9.3671875 12.83984375 -9.3671875 12.83984375 -9.125 9.0625 C-9.06054688 7.81339844 -8.99609375 6.56429687 -8.9296875 5.27734375 C-8.25 2.125 -8.25 2.125 -6.4609375 0.69921875 C-4.19394802 0.11044233 -2.33707395 -0.07790246 0 0 Z " fill="#E91C23" transform="translate(94.25,62.875)"/>
<path d="M0 0 C1.77503906 0.03480469 1.77503906 0.03480469 3.5859375 0.0703125 C5.36871094 0.09738281 5.36871094 0.09738281 7.1875 0.125 C8.10273437 0.14820313 9.01796875 0.17140625 9.9609375 0.1953125 C10.2909375 1.5153125 10.6209375 2.8353125 10.9609375 4.1953125 C10.3009375 3.8653125 9.6409375 3.5353125 8.9609375 3.1953125 C8.9609375 2.5353125 8.9609375 1.8753125 8.9609375 1.1953125 C5.3309375 1.5253125 1.7009375 1.8553125 -2.0390625 2.1953125 C-2.14935791 3.00581055 -2.25965332 3.81630859 -2.37329102 4.65136719 C-3.71376139 14.28646461 -5.30971208 23.86237814 -6.9765625 33.4453125 C-7.51122717 36.53631849 -8.04461161 39.62754512 -8.578125 42.71875 C-8.70671402 43.46258942 -8.83530304 44.20642883 -8.9677887 44.97280884 C-10.17739394 51.97640511 -11.34575814 58.98643862 -12.49609375 66 C-12.96240305 68.74417991 -13.47429863 71.46993821 -14.0390625 74.1953125 C-10.7390625 74.5253125 -7.4390625 74.8553125 -4.0390625 75.1953125 C-3.94109375 74.463125 -3.843125 73.7309375 -3.7421875 72.9765625 C-2.08950471 61.00885951 -0.05598887 49.10604069 1.9609375 37.1953125 C3.4459375 37.6903125 3.4459375 37.6903125 4.9609375 38.1953125 C5.2909375 37.5353125 5.6209375 36.8753125 5.9609375 36.1953125 C6.2909375 38.8353125 6.6209375 41.4753125 6.9609375 44.1953125 C8.4459375 44.6903125 8.4459375 44.6903125 9.9609375 45.1953125 C9.92097656 46.33613281 9.88101563 47.47695312 9.83984375 48.65234375 C9.8408613 53.27301987 10.7478581 57.42780092 11.8984375 61.8828125 C12.26235072 63.34489493 12.62564813 64.8071308 12.98828125 66.26953125 C13.15827637 66.9454834 13.32827148 67.62143555 13.50341797 68.31787109 C14.05901066 70.59775788 14.5287938 72.88902979 14.9609375 75.1953125 C16.58557592 75.24926728 18.21072291 75.28808445 19.8359375 75.3203125 C20.74085937 75.34351563 21.64578125 75.36671875 22.578125 75.390625 C25.14900744 75.43856086 25.14900744 75.43856086 26.9609375 73.1953125 C27.38976783 71.23409262 27.38976783 71.23409262 27.5234375 68.9765625 C27.59820312 68.12578125 27.67296875 67.275 27.75 66.3984375 C27.81960937 65.50640625 27.88921875 64.614375 27.9609375 63.6953125 C28.45503464 57.58314793 29.18897475 51.68350098 30.46142578 45.68261719 C31.30013801 41.506273 31.83264072 37.29071083 32.3984375 33.0703125 C33.83198826 22.70527807 35.42094467 12.35528381 37.9609375 2.1953125 C34.3309375 2.8553125 30.7009375 3.5153125 26.9609375 4.1953125 C26.87005859 5.44248047 26.87005859 5.44248047 26.77734375 6.71484375 C26.69355469 7.80152344 26.60976562 8.88820313 26.5234375 10.0078125 C26.44222656 11.08675781 26.36101562 12.16570312 26.27734375 13.27734375 C25.9609375 16.1953125 25.9609375 16.1953125 24.9609375 19.1953125 C24.3009375 19.1953125 23.6409375 19.1953125 22.9609375 19.1953125 C23.07607899 17.15306613 23.20351076 15.11151091 23.3359375 13.0703125 C23.40554687 11.93335937 23.47515625 10.79640625 23.546875 9.625 C23.9609375 6.1953125 23.9609375 6.1953125 25.9609375 0.1953125 C30.2509375 0.1953125 34.5409375 0.1953125 38.9609375 0.1953125 C39.96180958 4.19880082 39.8567932 5.99285527 39.171875 9.95703125 C38.97948242 11.11251465 38.78708984 12.26799805 38.58886719 13.45849609 C38.38165039 14.69164551 38.17443359 15.92479492 37.9609375 17.1953125 C37.57299498 19.74271362 37.19033166 22.29092337 36.8125 24.83984375 C36.61199285 26.17892453 36.4111408 27.51795371 36.20996094 28.85693359 C36.05714661 29.87433624 36.05714661 29.87433624 35.90124512 30.91229248 C34.23655077 41.97577504 32.53902324 53.03240964 30.7109375 64.0703125 C30.54803223 65.06135986 30.38512695 66.05240723 30.21728516 67.07348633 C30.06565918 67.97736084 29.9140332 68.88123535 29.7578125 69.8125 C29.56203613 70.98208252 29.56203613 70.98208252 29.36230469 72.17529297 C28.9609375 74.1953125 28.9609375 74.1953125 27.9609375 77.1953125 C24.73139101 78.02874385 21.59514618 78.33816061 18.2734375 78.4453125 C17.50644531 78.47109375 16.73945312 78.496875 15.94921875 78.5234375 C15.29308594 78.41515625 14.63695313 78.306875 13.9609375 78.1953125 C11.7234994 74.83915535 11.14851092 72.30133124 10.26953125 68.375 C10.1193605 67.71573517 9.96918976 67.05647034 9.81446838 66.37722778 C9.33655883 64.27620541 8.8668986 62.17346008 8.3984375 60.0703125 C7.92550908 57.96025034 7.45078244 55.85064648 6.97169495 53.74197388 C6.5385984 51.83399894 6.11180454 49.92459664 5.68530273 48.01513672 C5.24540261 45.31013125 5.24540261 45.31013125 3.9609375 44.1953125 C3.75730591 45.58036987 3.75730591 45.58036987 3.54956055 46.9934082 C3.03942749 50.4222882 2.51824682 53.84910716 1.98950195 57.27514648 C1.7630489 58.75754677 1.54100529 60.24062769 1.32348633 61.72436523 C1.00982357 63.85855806 0.68031879 65.98979046 0.34765625 68.12109375 C0.15389404 69.40411377 -0.03986816 70.68713379 -0.23950195 72.0090332 C-1.022547 75.12949759 -1.39004155 76.43146011 -4.0390625 78.1953125 C-6.95703125 78.26953125 -6.95703125 78.26953125 -10.2265625 77.8828125 C-11.31324219 77.76292969 -12.39992187 77.64304687 -13.51953125 77.51953125 C-14.35097656 77.41253906 -15.18242188 77.30554688 -16.0390625 77.1953125 C-16.41985065 69.2675324 -14.99269378 61.61882947 -13.703125 53.828125 C-13.46097149 52.34224605 -13.21914536 50.85631372 -12.97763062 49.37033081 C-12.47241431 46.27156263 -11.96245004 43.17362228 -11.44921875 40.07617188 C-10.79142124 36.10311582 -10.14689348 32.12803541 -9.50599098 28.15222359 C-9.01072983 25.09043814 -8.5079045 22.02993195 -8.00281906 18.96975327 C-7.76191068 17.50370779 -7.52351789 16.03724667 -7.28767776 14.57037735 C-6.95819182 12.52747558 -6.61842173 10.48654794 -6.27587891 8.44580078 C-6.08490631 7.28412384 -5.89393372 6.1224469 -5.69717407 4.92556763 C-4.7629628 1.04987965 -4.01116559 0.25778699 0 0 Z " fill="#B11923" transform="translate(60.0390625,60.8046875)"/>
<path d="M0 0 C0.66 0.33 1.32 0.66 2 1 C2 1.66 2 2.32 2 3 C2.66 3.33 3.32 3.66 4 4 C5.34275169 4.98731742 6.67732273 5.98594743 8 7 C8.66 6.01 9.32 5.02 10 4 C9.01 3.67 8.02 3.34 7 3 C8.32 2.34 9.64 1.68 11 1 C11 4.96 11 8.92 11 13 C18.26 13.33 25.52 13.66 33 14 C32.125 24.625 32.125 24.625 31 28 C19.45 28 7.9 28 -4 28 C-4 21 -4 21 -3 20 C-2.70420295 18.51730105 -2.4625458 17.02368615 -2.24609375 15.52734375 C-2.11396484 14.62822266 -1.98183594 13.72910156 -1.84570312 12.80273438 C-1.64364258 11.38444336 -1.64364258 11.38444336 -1.4375 9.9375 C-1.29892578 8.98810547 -1.16035156 8.03871094 -1.01757812 7.06054688 C-0.67467814 4.7075435 -0.33566063 2.35404517 0 0 Z " fill="#EA1D23" transform="translate(147,108)"/>
<path d="M0 0 C1.33278992 0.00303635 1.33278992 0.00303635 2.69250488 0.00613403 C3.5987561 0.00517731 4.50500732 0.00422058 5.4387207 0.00323486 C7.35876535 0.002553 9.27881229 0.00440771 11.19885254 0.00857544 C14.14861192 0.01392361 17.09821902 0.00863066 20.04797363 0.00222778 C21.90865105 0.00288856 23.76932838 0.00416972 25.63000488 0.00613403 C26.51853149 0.0041098 27.40705811 0.00208557 28.32250977 0 C34.546305 0.02399665 34.546305 0.02399665 35.66125488 1.13894653 C35.52697273 7.68778392 34.77505745 13.93845901 32.66125488 20.13894653 C28.04125488 20.46894653 23.42125488 20.79894653 18.66125488 21.13894653 C18.53879395 22.51824341 18.41633301 23.89754028 18.29016113 25.31863403 C17.65429566 31.67728873 16.63591975 37.96032965 15.59875488 44.26394653 C15.41248535 45.41121216 15.22621582 46.55847778 15.03430176 47.74050903 C14.57931314 50.54043898 14.12157975 53.33988984 13.66125488 56.13894653 C13.33125488 56.13894653 13.00125488 56.13894653 12.66125488 56.13894653 C12.2737011 47.59840938 12.82384156 39.40814624 13.97375488 30.95144653 C14.0914624 30.03081421 14.20916992 29.11018188 14.33044434 28.16165161 C14.45636963 27.29435425 14.58229492 26.42705688 14.71203613 25.53347778 C14.82200928 24.75850952 14.93198242 23.98354126 15.04528809 23.18508911 C15.78394876 20.73137723 16.64613948 19.69999411 18.66125488 18.13894653 C21.57922363 17.62722778 21.57922363 17.62722778 24.84875488 17.45144653 C26.47877441 17.35283325 26.47877441 17.35283325 28.14172363 17.25222778 C29.3888916 17.19615356 29.3888916 17.19615356 30.66125488 17.13894653 C30.86041504 15.87437622 30.86041504 15.87437622 31.06359863 14.58425903 C31.2402002 13.48855591 31.41680176 12.39285278 31.59875488 11.26394653 C31.77277832 10.17339966 31.94680176 9.08285278 32.12609863 7.95925903 C32.66125488 5.13894653 32.66125488 5.13894653 33.66125488 3.13894653 C20.46125488 3.13894653 7.26125488 3.13894653 -6.33874512 3.13894653 C-6.66874512 7.42894653 -6.99874512 11.71894653 -7.33874512 16.13894653 C-7.66874512 16.79894653 -7.99874512 17.45894653 -8.33874512 18.13894653 C-4.37874512 18.13894653 -0.41874512 18.13894653 3.66125488 18.13894653 C3.66125488 19.12894653 3.66125488 20.11894653 3.66125488 21.13894653 C4.32125488 21.46894653 4.98125488 21.79894653 5.66125488 22.13894653 C5.0091533 26.03181885 4.35172028 29.92375352 3.68981934 33.81497192 C3.35796613 35.77212194 3.03006171 37.72994022 2.70227051 39.68777466 C1.46698959 46.93352694 0.05569813 54.08097434 -1.70983887 61.21707153 C-2.70438821 65.83771073 -3.02463242 70.42725611 -3.33874512 75.13894653 C0.29125488 75.13894653 3.92125488 75.13894653 7.66125488 75.13894653 C7.78242676 73.94656372 7.90359863 72.75418091 8.02844238 71.52566528 C8.19728161 69.95921245 8.3665762 68.39280866 8.53625488 66.82644653 C8.6148877 66.04076294 8.69352051 65.25507935 8.77453613 64.44558716 C8.8583252 63.68826294 8.94211426 62.93093872 9.02844238 62.15066528 C9.13841553 61.10592041 9.13841553 61.10592041 9.25061035 60.04006958 C9.66125488 58.13894653 9.66125488 58.13894653 11.66125488 55.13894653 C14.63624604 61.08892884 11.17860097 70.96840578 9.66125488 77.13894653 C6.3505465 78.14004169 3.36040719 78.24250787 -0.08874512 78.20144653 C-1.07358887 78.1924231 -2.05843262 78.18339966 -3.07312012 78.17410278 C-3.82077637 78.16250122 -4.56843262 78.15089966 -5.33874512 78.13894653 C-6.36514522 74.91106632 -6.28272605 72.57466643 -5.71789551 69.25027466 C-5.47753319 67.79856873 -5.47753319 67.79856873 -5.23231506 66.3175354 C-5.05216354 65.27891357 -4.87201202 64.24029175 -4.68640137 63.17019653 C-4.50741806 62.09773682 -4.32843475 61.0252771 -4.14402771 59.9203186 C-3.57070129 56.49186561 -2.9865665 53.06537033 -2.40124512 49.63894653 C-1.82116521 46.21227159 -1.24339694 42.78523583 -0.66917419 39.35757446 C-0.31128628 37.22452845 0.05027781 35.0920953 0.4158783 32.96035767 C0.579272 31.99255371 0.74266571 31.02474976 0.91101074 30.02761841 C1.05614609 29.17808594 1.20128143 28.32855347 1.35081482 27.45327759 C1.74988649 24.86737433 1.74988649 24.86737433 1.66125488 21.13894653 C-2.29874512 20.80894653 -6.25874512 20.47894653 -10.33874512 20.13894653 C-8.83087777 0.03404859 -8.83087777 0.03404859 0 0 Z " fill="#AD1A23" transform="translate(112.3387451171875,60.861053466796875)"/>
<path d="M0 0 C1.74796875 0.02126953 1.74796875 0.02126953 3.53125 0.04296875 C5.27921875 0.05263672 5.27921875 0.05263672 7.0625 0.0625 C10.03125 0.23046875 10.03125 0.23046875 12.03125 1.23046875 C11.88091309 2.12725342 11.73057617 3.02403809 11.57568359 3.94799805 C7.65355317 27.36367996 3.81083576 50.79136564 0.03125 74.23046875 C-0.95875 73.57046875 -1.94875 72.91046875 -2.96875 72.23046875 C-3.34533094 66.77004519 -2.67822194 61.64019226 -1.96875 56.23046875 C-1.93403531 54.56416366 -1.91669208 52.89632221 -1.96875 51.23046875 C-0.97875 51.23046875 0.01125 51.23046875 1.03125 51.23046875 C1.10118164 50.68447021 1.17111328 50.13847168 1.24316406 49.57592773 C2.67144774 38.52739575 4.24756522 27.51965733 6.15625 16.54296875 C6.32672852 15.55804443 6.49720703 14.57312012 6.67285156 13.55834961 C7.8986248 6.62834435 7.8986248 6.62834435 9.03125 3.23046875 C5.07125 3.23046875 1.11125 3.23046875 -2.96875 3.23046875 C-2.94039062 4.39320312 -2.91203125 5.5559375 -2.8828125 6.75390625 C-2.88464363 10.91973004 -3.50296633 14.76809469 -4.34375 18.85546875 C-5.59834054 25.13357833 -6.61398905 31.40249418 -7.44140625 37.75390625 C-7.85958568 40.51079287 -8.36201685 43.19858221 -8.9296875 45.92578125 C-10.26799301 52.47946026 -11.06798801 59.09089251 -11.91210938 65.72265625 C-12.03521484 66.66367188 -12.15832031 67.6046875 -12.28515625 68.57421875 C-12.39287354 69.42177734 -12.50059082 70.26933594 -12.61157227 71.14257812 C-12.96875 73.23046875 -12.96875 73.23046875 -13.96875 75.23046875 C-10.00875 75.23046875 -6.04875 75.23046875 -1.96875 75.23046875 C-1.96875 76.22046875 -1.96875 77.21046875 -1.96875 78.23046875 C-8.89875 77.73546875 -8.89875 77.73546875 -15.96875 77.23046875 C-16.34953815 69.30268865 -14.92238128 61.65398572 -13.6328125 53.86328125 C-13.39065899 52.3774023 -13.14883286 50.89146997 -12.90731812 49.40548706 C-12.40210181 46.30671888 -11.89213754 43.20877853 -11.37890625 40.11132812 C-10.72110874 36.13827207 -10.07658098 32.16319166 -9.43567848 28.18737984 C-8.94041733 25.12559439 -8.437592 22.0650882 -7.93250656 19.00490952 C-7.69159818 17.53886404 -7.45320539 16.07240292 -7.21736526 14.6055336 C-6.88787932 12.56263183 -6.54810923 10.52170419 -6.20556641 8.48095703 C-6.01459381 7.31928009 -5.82362122 6.15760315 -5.62686157 4.96072388 C-4.70479614 1.13542439 -3.95674011 0.30716798 0 0 Z " fill="#AF1E27" transform="translate(35.96875,60.76953125)"/>
<path d="M0 0 C0.66 0 1.32 0 2 0 C2.12900753 5.0308879 1.67537713 9.61421527 0.7578125 14.55859375 C0.62937958 15.26540787 0.50094666 15.97222198 0.36862183 16.70045471 C-0.04012694 18.94724453 -0.45676554 21.19245813 -0.875 23.4375 C-1.41950751 26.37272565 -1.95912311 29.30876767 -2.4921875 32.24609375 C-2.68865875 33.32605118 -2.68865875 33.32605118 -2.88909912 34.42782593 C-3.93176315 40.30002098 -4.71277772 46.18825923 -5.3600769 52.11656189 C-5.89945576 56.89945576 -5.89945576 56.89945576 -7 58 C-7.33 60.31 -7.66 62.62 -8 65 C3.55 65 15.1 65 27 65 C27.66 60.38 28.32 55.76 29 51 C21.41 51 13.82 51 6 51 C6.57274434 45.2725566 7.13714521 39.67018863 8 34 C12.89154337 32.79483714 17.80275122 32.66538566 22.8125 32.4375 C23.69615234 32.39431641 24.57980469 32.35113281 25.49023438 32.30664062 C27.65999623 32.20108464 29.8299791 32.10008929 32 32 C32 32.99 32 33.98 32 35 C27.37540756 36.17700048 22.92133538 36.11408412 18.1875 36.0625 C17.39923828 36.05798828 16.61097656 36.05347656 15.79882812 36.04882812 C13.86585239 36.03711312 11.93291607 36.01917998 10 36 C9.67 39.63 9.34 43.26 9 47 C11.23910156 47.05607422 11.23910156 47.05607422 13.5234375 47.11328125 C15.47398416 47.17892465 17.42450385 47.24537254 19.375 47.3125 C20.35984375 47.33505859 21.3446875 47.35761719 22.359375 47.38085938 C23.30039063 47.41630859 24.24140625 47.45175781 25.2109375 47.48828125 C26.51490479 47.52755737 26.51490479 47.52755737 27.84521484 47.56762695 C30 48 30 48 32 51 C31.65862125 53.80914207 31.22134681 56.43420525 30.625 59.1875 C30.47289062 59.93708984 30.32078125 60.68667969 30.1640625 61.45898438 C29.78713492 63.30828533 29.39501397 65.15447775 29 67 C23.60670134 67.16722525 18.21326249 67.32782368 12.81958008 67.48217773 C10.9832625 67.53567534 9.14699753 67.59101046 7.31079102 67.64819336 C4.67736153 67.72988864 2.04381595 67.80505738 -0.58984375 67.87890625 C-1.41588608 67.90594131 -2.24192841 67.93297638 -3.09300232 67.96083069 C-5.0613581 68.01283011 -7.03099331 68.01187837 -9 68 C-10 67 -10 67 -10.13574219 63.44384766 C-10.07984543 59.19911382 -9.53782947 55.07850824 -8.828125 50.8984375 C-8.70561371 50.14697952 -8.58310242 49.39552155 -8.45687866 48.62129211 C-8.06099534 46.20475367 -7.65580207 43.78989077 -7.25 41.375 C-6.97539429 39.71335606 -6.70114462 38.05165324 -6.42724609 36.38989258 C-4.41470994 24.2363434 -2.28898679 12.10470071 0 0 Z " fill="#BA181F" transform="translate(151,71)"/>
<path d="M0 0 C1.51400391 0.01740234 1.51400391 0.01740234 3.05859375 0.03515625 C4.07050781 0.04417969 5.08242187 0.05320313 6.125 0.0625 C7.29869141 0.07990234 7.29869141 0.07990234 8.49609375 0.09765625 C12.53672802 7.12484629 14.11183551 14.20152076 15.74609375 22.09765625 C16.01421875 23.34933594 16.28234375 24.60101563 16.55859375 25.890625 C17.21412578 28.95757844 17.85644672 32.02735051 18.49609375 35.09765625 C19.48609375 29.48765625 20.47609375 23.87765625 21.49609375 18.09765625 C25.49609375 17.09765625 25.49609375 17.09765625 27.49609375 18.09765625 C27.18811049 19.57776996 26.87457575 21.0567295 26.55859375 22.53515625 C26.38457031 23.35886719 26.21054688 24.18257812 26.03125 25.03125 C25.49609375 27.09765625 25.49609375 27.09765625 24.49609375 28.09765625 C25.15609375 28.42765625 25.81609375 28.75765625 26.49609375 29.09765625 C26.16609375 30.74765625 25.83609375 32.39765625 25.49609375 34.09765625 C26.81609375 33.43765625 28.13609375 32.77765625 29.49609375 32.09765625 C30.84035605 37.47470543 30.84035605 37.47470543 29.18359375 40.47265625 C27.49609375 42.09765625 27.49609375 42.09765625 25.49609375 42.09765625 C25.49609375 40.77765625 25.49609375 39.45765625 25.49609375 38.09765625 C24.50609375 38.09765625 23.51609375 38.09765625 22.49609375 38.09765625 C22.49609375 36.44765625 22.49609375 34.79765625 22.49609375 33.09765625 C21.83609375 35.73765625 21.17609375 38.37765625 20.49609375 41.09765625 C18.51609375 41.09765625 16.53609375 41.09765625 14.49609375 41.09765625 C14.82609375 40.43765625 15.15609375 39.77765625 15.49609375 39.09765625 C14.83748009 27.24680934 14.83748009 27.24680934 11.49609375 16.09765625 C10.50609375 15.43765625 9.51609375 14.77765625 8.49609375 14.09765625 C8.82609375 13.10765625 9.15609375 12.11765625 9.49609375 11.09765625 C8.83609375 11.09765625 8.17609375 11.09765625 7.49609375 11.09765625 C7.49609375 10.10765625 7.49609375 9.11765625 7.49609375 8.09765625 C6.83609375 8.75765625 6.17609375 9.41765625 5.49609375 10.09765625 C4.50609375 10.09765625 3.51609375 10.09765625 2.49609375 10.09765625 C2.16609375 12.40765625 1.83609375 14.71765625 1.49609375 17.09765625 C0.50609375 17.42765625 -0.48390625 17.75765625 -1.50390625 18.09765625 C-1.99890625 19.33515625 -1.99890625 19.33515625 -2.50390625 20.59765625 C-2.99890625 21.83515625 -2.99890625 21.83515625 -3.50390625 23.09765625 C-4.49390625 23.42765625 -5.48390625 23.75765625 -6.50390625 24.09765625 C-5.93344107 18.58315949 -5.2564995 13.0904637 -4.50390625 7.59765625 C-4.33890625 6.39109375 -4.17390625 5.18453125 -4.00390625 3.94140625 C-3.33377282 0.13002234 -3.33377282 0.13002234 0 0 Z " fill="#E51C23" transform="translate(60.50390625,61.90234375)"/>
<path d="M0 0 C0.33 0 0.66 0 1 0 C1.41933988 7.35750883 0.0129268 14.33745001 -1.33605957 21.53823853 C-3.81095274 34.76205762 -5.97561489 47.98581738 -7.70605469 61.32910156 C-7.84946289 62.40256836 -7.99287109 63.47603516 -8.140625 64.58203125 C-8.25954102 65.51249268 -8.37845703 66.4429541 -8.50097656 67.40161133 C-9 70 -9 70 -11 75 C-7.04 75 -3.08 75 1 75 C1.1546875 72.3084375 1.1546875 72.3084375 1.3125 69.5625 C1.93525125 61.2652554 3.44504484 53.16595947 5 45 C7.97 44.505 7.97 44.505 11 44 C13.64538519 49.49825157 14.82664506 54.60371952 15.6875 60.625 C15.88182617 61.87410156 15.88182617 61.87410156 16.08007812 63.1484375 C16.69101745 67.20843643 17 70.85627504 17 75 C21.29 75 25.58 75 30 75 C30.33 72.36 30.66 69.72 31 67 C31.33 67 31.66 67 32 67 C33.125 74.75 33.125 74.75 32 77 C29.48905397 77.34091947 27.0852383 77.5593831 24.5625 77.6875 C23.86833984 77.73455078 23.17417969 77.78160156 22.45898438 77.83007812 C17.27267316 78.13633658 17.27267316 78.13633658 15 77 C14.39740298 74.55044313 13.91602755 72.16980714 13.5 69.6875 C13.30772827 68.61230103 13.30772827 68.61230103 13.11157227 67.51538086 C12.14845984 62.07950902 11.29982405 56.62637399 10.52734375 51.16015625 C10.35332031 50.44730469 10.17929688 49.73445313 10 49 C9.34 48.67 8.68 48.34 8 48 C7.80664062 49.09957031 7.61328125 50.19914062 7.4140625 51.33203125 C6.87698291 54.38446816 6.33756321 57.43648161 5.796875 60.48828125 C5.32149512 63.17214987 4.85264443 65.85674042 4.390625 68.54296875 C4.22046875 69.51878906 4.0503125 70.49460937 3.875 71.5 C3.72804687 72.3559375 3.58109375 73.211875 3.4296875 74.09375 C3 76 3 76 2 77 C-0.34987262 77.23527773 -2.70556039 77.41386417 -5.0625 77.5625 C-6.35285156 77.64628906 -7.64320313 77.73007813 -8.97265625 77.81640625 C-9.97167969 77.87699219 -10.97070312 77.93757813 -12 78 C-13.21534737 74.35395788 -12.78548863 72.19066567 -12.25 68.38671875 C-12.10984467 67.38140106 -12.10984467 67.38140106 -11.96685791 66.35577393 C-11.65306852 64.13170834 -11.32736184 61.90960594 -11 59.6875 C-10.83510071 58.54657394 -10.83510071 58.54657394 -10.66687012 57.38259888 C-8.80179549 44.51790655 -6.60836094 31.72028872 -4.25 18.9375 C-4.01869385 17.67962173 -4.01869385 17.67962173 -3.78271484 16.39633179 C-3.34410907 14.02244808 -2.9000917 11.64966608 -2.453125 9.27734375 C-2.32101624 8.56749329 -2.18890747 7.85764282 -2.05279541 7.12628174 C-1.11736054 2.23472108 -1.11736054 2.23472108 0 0 Z " fill="#B31620" transform="translate(199,61)"/>
<path d="M0 0 C2.34384801 3.51577201 3.74494828 6.78295173 4 11 C2.79242903 13.8408107 1.72865206 15.84185728 0 18.3125 C-0.79461583 19.51498343 -1.58620823 20.71946941 -2.375 21.92578125 C-2.79861816 22.56692871 -3.22223633 23.20807617 -3.65869141 23.86865234 C-5.7210799 27.14580042 -7.52911542 30.55048909 -9.36230469 33.9597168 C-12.07378906 38.99342504 -14.86342102 43.98384008 -17.64160156 48.98095703 C-18.63149842 50.76169005 -19.62047545 52.54293174 -20.609375 54.32421875 C-21.86375485 56.58159464 -23.13177587 58.8314629 -24.41552734 61.07226562 C-26.00878558 63.84498796 -26.00878558 63.84498796 -26.85400391 66.34960938 C-27.578125 68.265625 -27.578125 68.265625 -30 71 C-34.70675621 72.03394577 -39.32158674 72.02394523 -44.125 72 C-45.42566406 72.02449219 -46.72632813 72.04898438 -48.06640625 72.07421875 C-57.59379749 72.20310125 -57.59379749 72.20310125 -60 71 C-58.45454854 65.52067211 -55.84456788 60.88570819 -53 56 C-52.34 56 -51.68 56 -51 56 C-52.31226492 60.23962514 -53.98193624 64.05233556 -56 68 C-48.13157697 69.16951528 -39.72452232 70.3566116 -32 68 C-26.16565167 63.24185241 -23.66603862 55.8277676 -21 49 C-19.47350096 45.80127409 -17.96567714 42.94851572 -16 40 C-15.34 40 -14.68 40 -14 40 C-13.67 38.02 -13.34 36.04 -13 34 C-12.01 33.67 -11.02 33.34 -10 33 C-9.89300781 32.28585938 -9.78601563 31.57171875 -9.67578125 30.8359375 C-8.93234159 27.71606932 -7.76485848 25.41233219 -6.1875 22.625 C-5.65382813 21.65949219 -5.12015625 20.69398437 -4.5703125 19.69921875 C-3 17 -3 17 -1.6796875 15.08203125 C1.77542225 9.99601305 1.0646102 5.75120945 0 0 Z " fill="#AE1620" transform="translate(289,91)"/>
<path d="M0 0 C-0.41044485 6.57791873 -0.86608597 12.74051886 -3 19 C-7.62 19.33 -12.24 19.66 -17 20 C-17.12246094 21.37929687 -17.24492187 22.75859375 -17.37109375 24.1796875 C-18.00695922 30.5383422 -19.02533513 36.82138311 -20.0625 43.125 C-20.24876953 44.27226563 -20.43503906 45.41953125 -20.62695312 46.6015625 C-21.08194174 49.40149245 -21.53967513 52.20094331 -22 55 C-22.33 55 -22.66 55 -23 55 C-23.38755379 46.45946285 -22.83741333 38.2691997 -21.6875 29.8125 C-21.56979248 28.89186768 -21.45208496 27.97123535 -21.33081055 27.02270508 C-21.20488525 26.15540771 -21.07895996 25.28811035 -20.94921875 24.39453125 C-20.83924561 23.61956299 -20.72927246 22.84459473 -20.6159668 22.04614258 C-19.87730613 19.5924307 -19.0151154 18.56104758 -17 17 C-14.08203125 16.48828125 -14.08203125 16.48828125 -10.8125 16.3125 C-9.18248047 16.21388672 -9.18248047 16.21388672 -7.51953125 16.11328125 C-6.27236328 16.05720703 -6.27236328 16.05720703 -5 16 C-4.80083984 14.73542969 -4.80083984 14.73542969 -4.59765625 13.4453125 C-4.42105469 12.34960938 -4.24445313 11.25390625 -4.0625 10.125 C-3.88847656 9.03445312 -3.71445313 7.94390625 -3.53515625 6.8203125 C-3 4 -3 4 -2 2 C-15.2 2 -28.4 2 -42 2 C-41.67 1.34 -41.34 0.68 -41 0 C-35.48259702 -0.1674126 -29.96505413 -0.32799286 -24.44726562 -0.48217773 C-22.56928117 -0.53562556 -20.69134937 -0.59095705 -18.81347656 -0.64819336 C-16.11795404 -0.7300268 -13.42231625 -0.80513683 -10.7265625 -0.87890625 C-9.88380768 -0.90594131 -9.04105286 -0.93297638 -8.17276001 -0.96083069 C-2.22774341 -1.11387171 -2.22774341 -1.11387171 0 0 Z " fill="#BC171D" transform="translate(148,62)"/>
<path d="M0 0 C0.90105469 0.11085937 1.80210938 0.22171875 2.73046875 0.3359375 C3.76107422 0.47902344 3.76107422 0.47902344 4.8125 0.625 C5.76723473 4.41563814 5.76324294 7.31164148 5.1315918 11.15869141 C4.95778488 12.24397125 4.78397797 13.3292511 4.60490417 14.44741821 C4.40915298 15.61203583 4.21340179 16.77665344 4.01171875 17.9765625 C3.81528275 19.18637787 3.61884674 20.39619324 3.41645813 21.64266968 C2.78586215 25.51317705 2.14298053 29.3815328 1.5 33.25 C1.07799236 35.83190328 0.65675974 38.41393336 0.23632812 40.99609375 C-1.48959848 51.55481839 -3.23833165 62.10485827 -5.1875 72.625 C-6.1775 71.965 -7.1675 71.305 -8.1875 70.625 C-8.56408094 65.16457644 -7.89697194 60.03472351 -7.1875 54.625 C-7.15278531 52.95869491 -7.13544208 51.29085346 -7.1875 49.625 C-6.1975 49.625 -5.2075 49.625 -4.1875 49.625 C-4.11756836 49.07900146 -4.04763672 48.53300293 -3.97558594 47.97045898 C-2.54730226 36.921927 -0.97118478 25.91418858 0.9375 14.9375 C1.10797852 13.95257568 1.27845703 12.96765137 1.45410156 11.95288086 C2.6798748 5.0228756 2.6798748 5.0228756 3.8125 1.625 C-0.1475 1.625 -4.1075 1.625 -8.1875 1.625 C-4.73535147 -0.67643236 -3.95270676 -0.51333854 0 0 Z " fill="#B21923" transform="translate(41.1875,62.375)"/>
<path d="M0 0 C1.48663983 2.75545698 2.4150229 5.27010688 3.0703125 8.328125 C3.33134766 9.52695313 3.33134766 9.52695313 3.59765625 10.75 C3.77167969 11.575 3.94570312 12.4 4.125 13.25 C4.30675781 14.09046875 4.48851563 14.9309375 4.67578125 15.796875 C5.12199541 17.86355111 5.56164445 19.93164277 6 22 C6.99 16.39 7.98 10.78 9 5 C13 4 13 4 15 5 C14.69201674 6.48011371 14.378482 7.95907325 14.0625 9.4375 C13.88847656 10.26121094 13.71445313 11.08492187 13.53515625 11.93359375 C13 14 13 14 12 15 C12.66 15.33 13.32 15.66 14 16 C13.67 17.65 13.34 19.3 13 21 C14.32 20.34 15.64 19.68 17 19 C18.3442623 24.37704918 18.3442623 24.37704918 16.6875 27.375 C15 29 15 29 13 29 C13 27.68 13 26.36 13 25 C12.01 25 11.02 25 10 25 C10 23.35 10 21.7 10 20 C9.34 22.64 8.68 25.28 8 28 C6.02 28 4.04 28 2 28 C2.33 27.34 2.66 26.68 3 26 C2.50501765 19.86221882 1.49986669 13.85327894 0.40234375 7.796875 C0.02167416 5.15066695 -0.07304195 2.6684659 0 0 Z " fill="#E61C1F" transform="translate(73,75)"/>
<path d="M0 0 C2.75 0.125 2.75 0.125 6 1 C10.17611183 5.82205718 10.64625375 9.6571583 10.5 15.75 C10.48864014 16.54696289 10.47728027 17.34392578 10.46557617 18.16503906 C10.16130812 27.41554131 7.48291695 34.34647997 1 41 C0.01 41.495 0.01 41.495 -1 42 C-0.79503906 42.55945313 -0.59007812 43.11890625 -0.37890625 43.6953125 C2.10268428 51.08071589 2.67593448 58.24477697 3 66 C2.67 66 2.34 66 2 66 C0.1431185 59.71517032 -1.48017315 53.37458804 -3 47 C-3.26296875 46.14277344 -3.5259375 45.28554687 -3.796875 44.40234375 C-4 42 -4 42 -2.63671875 39.76171875 C-1.67185547 38.73498047 -1.67185547 38.73498047 -0.6875 37.6875 C-0.05199219 36.99011719 0.58351562 36.29273438 1.23828125 35.57421875 C3 34 3 34 5 34 C5.144375 32.72125 5.28875 31.4425 5.4375 30.125 C5.70642746 27.74307106 5.92226346 26.15547309 7 24 C7.66 24 8.32 24 9 24 C9 19.05 9 14.1 9 9 C8.34 9 7.68 9 7 9 C6.5978125 7.5459375 6.5978125 7.5459375 6.1875 6.0625 C5.795625 5.051875 5.40375 4.04125 5 3 C4.01 2.67 3.02 2.34 2 2 C1.34 1.34 0.68 0.68 0 0 Z " fill="#AE1E28" transform="translate(227,62)"/>
<path d="M0 0 C3.33759478 0.10843507 6.67355325 0.22474764 10.00976562 0.37036133 C11.17636719 0.40194336 12.34296875 0.43352539 13.54492188 0.46606445 C14.65738281 0.51053711 15.76984375 0.55500977 16.91601562 0.60083008 C18.45225586 0.65920044 18.45225586 0.65920044 20.01953125 0.71875 C20.84130859 0.87190674 21.66308594 1.02506348 22.50976562 1.18286133 C24.50976562 4.18286133 24.50976562 4.18286133 24.50976562 7.18286133 C23.84976562 7.18286133 23.18976563 7.18286133 22.50976562 7.18286133 C22.17976563 6.19286133 21.84976562 5.20286133 21.50976562 4.18286133 C10.12476563 3.68786133 10.12476563 3.68786133 -1.49023438 3.18286133 C-0.85085937 4.89473633 -0.21148437 6.60661133 0.44726562 8.37036133 C2.88398181 14.8944724 3.62684596 20.27512159 3.50976562 27.18286133 C1.93588341 24.24890731 0.90036836 21.40153194 0.00195312 18.19848633 C-0.26230469 17.26391602 -0.5265625 16.3293457 -0.79882812 15.36645508 C-1.06824219 14.39836914 -1.33765625 13.4302832 -1.61523438 12.43286133 C-1.89238281 11.44930664 -2.16953125 10.46575195 -2.45507812 9.45239258 C-3.13705489 7.03019926 -3.81530337 4.60702554 -4.49023438 2.18286133 C-2.49023438 0.18286133 -2.49023438 0.18286133 0 0 Z " fill="#AF181F" transform="translate(249.490234375,36.817138671875)"/>
<path d="M0 0 C1.43739513 -0.02712066 2.87493863 -0.04645067 4.3125 -0.0625 C5.51326172 -0.07990234 5.51326172 -0.07990234 6.73828125 -0.09765625 C9 0 9 0 12 1 C12.02693575 3.12493141 12.04636628 5.24995912 12.0625 7.375 C12.07410156 8.55835937 12.08570313 9.74171875 12.09765625 10.9609375 C12 14 12 14 11 16 C10.34 16 9.68 16 9 16 C8.67 16.66 8.34 17.32 8 18 C4.37 17.67 0.74 17.34 -3 17 C-2.88506243 15.10353002 -2.75760358 13.20781668 -2.625 11.3125 C-2.55539063 10.25675781 -2.48578125 9.20101562 -2.4140625 8.11328125 C-2.01239911 5.09322731 -1.25930981 2.75921946 0 0 Z M1 3 C0.34 7.29 -0.32 11.58 -1 16 C4.62019508 16.26479776 4.62019508 16.26479776 9 14 C11.30066711 10.77906604 11.25831152 7.87467279 11 4 C9.99163938 2.76732652 9.99163938 2.76732652 7.93359375 2.90234375 C5.62239583 2.93489583 3.31119792 2.96744792 1 3 Z " fill="#B11B22" transform="translate(210,76)"/>
<path d="M0 0 C1.95896235 2.93844352 2.77161767 5.13380917 3.76953125 8.48828125 C4.09896729 9.58124512 4.42840332 10.67420898 4.76782227 11.80029297 C5.11256592 12.95932129 5.45730957 14.11834961 5.8125 15.3125 C8.37023871 23.8196218 11.01173955 32.19895925 14.28515625 40.4609375 C15.04001815 43.14214098 14.96973674 44.4262333 14 47 C11.0554321 42.00703705 10.36504064 37.66442374 10 32 C9.34 32 8.68 32 8 32 C3.60546875 18.81640625 3.60546875 18.81640625 2.8112793 16.41821289 C2.26005634 14.7751604 1.69592731 13.13639307 1.12036133 11.50170898 C0.84345459 10.70708252 0.56654785 9.91245605 0.28125 9.09375 C-0.09870117 8.02350586 -0.09870117 8.02350586 -0.48632812 6.93164062 C-1.16427636 4.38224594 -0.8757158 2.46792634 0 0 Z " fill="#B41723" transform="translate(274,44)"/>
<path d="M0 0 C0.33 0 0.66 0 1 0 C1.33 2.64 1.66 5.28 2 8 C2.99 8.33 3.98 8.66 5 9 C4.938125 10.093125 4.87625 11.18625 4.8125 12.3125 C4.7873788 17.00179067 5.98498133 21.12199891 7.34375 25.58203125 C8 28 8 28 8 31 C7.01 31 6.02 31 5 31 C3.35 23.74 1.7 16.48 0 9 C-0.66 9 -1.32 9 -2 9 C-2.66 9.99 -3.32 10.98 -4 12 C-3.67 8.37 -3.34 4.74 -3 1 C-2.01 1.33 -1.02 1.66 0 2 C0 1.34 0 0.68 0 0 Z " fill="#B5181F" transform="translate(65,97)"/>
<path d="M0 0 C0.66 0.99 1.32 1.98 2 3 C2.66 2.01 3.32 1.02 4 0 C4.33 1.32 4.66 2.64 5 4 C7.64 4.33 10.28 4.66 13 5 C13.33 4.34 13.66 3.68 14 3 C15.62490954 2.97301811 17.24994633 2.95361243 18.875 2.9375 C20.23238281 2.92009766 20.23238281 2.92009766 21.6171875 2.90234375 C24 3 24 3 26 4 C25.67 7.96 25.34 11.92 25 16 C24.67 16 24.34 16 24 16 C23.505 11.05 23.505 11.05 23 6 C19.91590024 6.11400369 16.83322863 6.24075202 13.75 6.375 C12.87730469 6.4059375 12.00460938 6.436875 11.10546875 6.46875 C10.26113281 6.50742188 9.41679687 6.54609375 8.546875 6.5859375 C7.77182617 6.6173584 6.99677734 6.6487793 6.19824219 6.68115234 C3.79134258 7.03026506 2.10397705 7.80551104 0 9 C-1.10844919 5.67465243 -0.84454356 3.37817425 0 0 Z " fill="#DF171C" transform="translate(159,86)"/>
<path d="M0 0 C0.33 0 0.66 0 1 0 C2.34687399 7.04779346 1.41576082 13.00158319 0.0625 20 C-0.13279297 21.06089844 -0.32808594 22.12179688 -0.52929688 23.21484375 C-1.00896389 25.81206515 -1.4994074 28.40674527 -2 31 C-2.99 30.34 -3.98 29.68 -5 29 C-5.37658094 23.53957644 -4.70947194 18.40972351 -4 13 C-3.96528531 11.33369491 -3.94794208 9.66585346 -4 8 C-3.01 8 -2.02 8 -1 8 C-0.67 5.36 -0.34 2.72 0 0 Z " fill="#C61B1D" transform="translate(38,104)"/>
<path d="M0 0 C1.48663983 2.75545698 2.4150229 5.27010688 3.0703125 8.328125 C3.33134766 9.52695313 3.33134766 9.52695313 3.59765625 10.75 C3.77167969 11.575 3.94570312 12.4 4.125 13.25 C4.30675781 14.09046875 4.48851563 14.9309375 4.67578125 15.796875 C5.12199541 17.86355111 5.56164445 19.93164277 6 22 C6.99 16.72 7.98 11.44 9 6 C9.33 6 9.66 6 10 6 C10.19355213 13.65606218 10.3479743 20.66258031 8 28 C6.02 28 4.04 28 2 28 C2.33 27.34 2.66 26.68 3 26 C2.50501765 19.86221882 1.49986669 13.85327894 0.40234375 7.796875 C0.02167416 5.15066695 -0.07304195 2.6684659 0 0 Z " fill="#B3141F" transform="translate(73,75)"/>
<path d="M0 0 C2.64 0.33 5.28 0.66 8 1 C7.52555245 3.64676089 7.04568672 6.29233364 6.5625 8.9375 C6.42779297 9.69224609 6.29308594 10.44699219 6.15429688 11.22460938 C5.11328125 16.88671875 5.11328125 16.88671875 4 18 C2.29436222 18.15740605 0.58272756 18.25093392 -1.12890625 18.31640625 C-2.16337891 18.35830078 -3.19785156 18.40019531 -4.26367188 18.44335938 C-5.35228516 18.48267578 -6.44089844 18.52199219 -7.5625 18.5625 C-9.2012207 18.62727539 -9.2012207 18.62727539 -10.87304688 18.69335938 C-13.58189564 18.79982068 -16.29083992 18.90183516 -19 19 C-19 18.34 -19 17.68 -19 17 C-16.17588235 16.05862745 -14.47081968 15.88274618 -11.55078125 15.90234375 C-10.70322266 15.90556641 -9.85566406 15.90878906 -8.98242188 15.91210938 C-8.10134766 15.92048828 -7.22027344 15.92886719 -6.3125 15.9375 C-4.97348633 15.94426758 -4.97348633 15.94426758 -3.60742188 15.95117188 C-1.40491927 15.96294996 0.79754885 15.98088519 3 16 C3.66 11.38 4.32 6.76 5 2 C3.35 2 1.7 2 0 2 C0 1.34 0 0.68 0 0 Z " fill="#AC1821" transform="translate(184,61)"/>
<path d="M0 0 C3.96 0 7.92 0 12 0 C12 0.99 12 1.98 12 3 C12.66 3.33 13.32 3.66 14 4 C12.35 13.57 10.7 23.14 9 33 C8.67 33 8.34 33 8 33 C7.71237918 22.77348206 8.57689331 13.10151627 10 3 C10 2.67 10 2.34 10 2 C6.7 1.67 3.4 1.34 0 1 C0 0.67 0 0.34 0 0 Z " fill="#C4151F" transform="translate(104,79)"/>
<path d="M0 0 C1.21042969 -0.01224609 2.42085937 -0.02449219 3.66796875 -0.03710938 C4.82683594 -0.03904297 5.98570312 -0.04097656 7.1796875 -0.04296875 C8.24687012 -0.04707764 9.31405273 -0.05118652 10.41357422 -0.05541992 C13.125 0.1875 13.125 0.1875 16.125 2.1875 C6.885 2.5175 -2.355 2.8475 -11.875 3.1875 C-12.205 4.8375 -12.535 6.4875 -12.875 8.1875 C-13.865 8.6825 -13.865 8.6825 -14.875 9.1875 C-13.64995248 -1.83792766 -10.68649008 0.00565423 0 0 Z " fill="#B11C20" transform="translate(166.875,60.8125)"/>
<path d="M0 0 C0.042721 1.66611905 0.04063832 3.33382885 0 5 C-0.33 5.33 -0.66 5.66 -1 6 C-1.33 8.31 -1.66 10.62 -2 13 C9.55 13 21.1 13 33 13 C33.33 12.01 33.66 11.02 34 10 C34 11.32 34 12.64 34 14 C29.07040958 14.14296383 24.14080336 14.28536564 19.21118164 14.42724609 C17.53409384 14.47559399 15.85701046 14.5240956 14.17993164 14.57275391 C11.76970548 14.64265688 9.35946396 14.7120075 6.94921875 14.78125 C6.19912033 14.80312378 5.44902191 14.82499756 4.67619324 14.84753418 C1.78283704 14.93022824 -1.10527988 15 -4 15 C-4.08252495 10.21355271 -4.14242743 5.68395246 -3 1 C-1 0 -1 0 0 0 Z " fill="#B61119" transform="translate(145,123)"/>
<path d="M0 0 C0.99 0.99 1.98 1.98 3 3 C2.01 8.28 1.02 13.56 0 19 C-12.21 19 -24.42 19 -37 19 C-37 18.67 -37 18.34 -37 18 C-25.12 18 -13.24 18 -1 18 C-1 14.7 -1 11.4 -1 8 C-0.71115123 5.32814884 -0.39383769 2.65840443 0 0 Z " fill="#AB2227" transform="translate(180,119)"/>
<path d="M0 0 C0.33 0 0.66 0 1 0 C1.15639125 5.06316683 0.62766071 9.50398438 -0.5 14.4375 C-0.7784375 15.67371094 -1.056875 16.90992188 -1.34375 18.18359375 C-1.5603125 19.11300781 -1.776875 20.04242188 -2 21 C-5.2579524 21.71501964 -8.35151946 22.18203435 -11.6875 22.25 C-12.83798828 22.28867188 -12.83798828 22.28867188 -14.01171875 22.328125 C-14.66785156 22.21984375 -15.32398437 22.1115625 -16 22 C-18.56616632 18.15075052 -18.55097676 15.5650696 -19 11 C-18.34 11 -17.68 11 -17 11 C-15.23537317 14.08809695 -15 15.23312136 -15 19 C-13.37536158 19.05395478 -11.75021459 19.09277195 -10.125 19.125 C-9.22007813 19.14820313 -8.31515625 19.17140625 -7.3828125 19.1953125 C-4.81193006 19.24324836 -4.81193006 19.24324836 -3 17 C-2.45051478 15.17203399 -2.45051478 15.17203399 -2.1484375 13.0859375 C-2.01953125 12.32539063 -1.890625 11.56484375 -1.7578125 10.78125 C-1.56832031 9.59015625 -1.56832031 9.59015625 -1.375 8.375 C-1.2409375 7.57320313 -1.106875 6.77140625 -0.96875 5.9453125 C-0.63865211 3.96472516 -0.31838917 1.98250325 0 0 Z " fill="#AD1C28" transform="translate(90,117)"/>
<path d="M0 0 C0.33 0 0.66 0 1 0 C3.16988027 10.87554447 0.53603021 21.67301638 -3 32 C-3.36920191 33.99369031 -3.71325582 35.99279077 -4 38 C-4.33 38 -4.66 38 -5 38 C-4.60429124 30.77310845 -4.11580146 23.73589678 -2.54296875 16.6640625 C-1.42063274 11.15734913 -0.75404472 5.5670961 0 0 Z " fill="#B61626" transform="translate(93,90)"/>
<path d="M0 0 C0.33 0 0.66 0 1 0 C1.40392629 6.59746277 0.16898194 12.49985522 -1.19921875 18.9453125 C-2.4945936 25.24240162 -3.23087681 31.62080174 -4 38 C-4.33 38 -4.66 38 -5 38 C-4.07913278 9.71140816 -4.07913278 9.71140816 0 0 Z " fill="#B2141D" transform="translate(28,89)"/>
<path d="M0 0 C0.66 0 1.32 0 2 0 C2.32613281 1.26714844 2.65226563 2.53429687 2.98828125 3.83984375 C3.42952576 5.53910451 3.87094117 7.23832089 4.3125 8.9375 C4.52583984 9.76830078 4.73917969 10.59910156 4.95898438 11.45507812 C6.24145625 16.37441052 7.68042954 21.17523835 9.40771484 25.95776367 C10.41590152 29.4340545 10.31053159 32.39783358 10 36 C9.34 36.99 8.68 37.98 8 39 C7.34 39 6.68 39 6 39 C6.40992188 37.80117187 6.81984375 36.60234375 7.2421875 35.3671875 C8.76122486 28.52750077 6.27518363 22.59642645 4.125 16.125 C3.35372701 13.71190825 2.58535281 11.29788748 1.8203125 8.8828125 C1.47242676 7.82465332 1.12454102 6.76649414 0.76611328 5.67626953 C0 3 0 3 0 0 Z " fill="#A9262B" transform="translate(253,64)"/>
<path d="M0 0 C1.03387225 3.1981115 1.11048522 3.75894134 -0.375 7 C-0.91125 7.99 -1.4475 8.98 -2 10 C-2.68636625 12.23525035 -2.68636625 12.23525035 -3 14 C-3.66 14 -4.32 14 -5 14 C-5.103125 14.556875 -5.20625 15.11375 -5.3125 15.6875 C-6.14178408 18.4769101 -7.34299056 20.6139064 -9 23 C-9.66 23 -10.32 23 -11 23 C-9.44347945 17.6462535 -7.0182491 12.99849053 -4.375 8.125 C-3.95476562 7.34125 -3.53453125 6.5575 -3.1015625 5.75 C-2.0718978 3.83107943 -1.03652433 1.91522397 0 0 Z " fill="#BD171E" transform="translate(248,123)"/>
<path d="M0 0 C0.33 0 0.66 0 1 0 C1.1956742 5.10927066 1.15248353 9.87549397 0 14.875 C-1.12013268 19.80985029 -1.12212671 24.48824669 -0.97265625 29.53125 C-1 32 -1 32 -2 34 C-2.66 34 -3.32 34 -4 34 C-5.37972294 30.15858294 -4.69220373 27.00878246 -4.00390625 23.046875 C-3.89151108 22.38665344 -3.77911591 21.72643188 -3.66331482 21.04620361 C-3.3039936 18.94607298 -2.93341931 16.84811001 -2.5625 14.75 C-2.31631144 13.32304515 -2.07086032 11.89596285 -1.82617188 10.46875 C-1.22598527 6.97764948 -0.61569365 3.4884031 0 0 Z " fill="#A41E27" transform="translate(111,105)"/>
<path d="M0 0 C2.75 0.125 2.75 0.125 6 1 C10.29113528 5.90635181 10.56926435 9.80398965 10.375 16 C10.37371094 16.78117187 10.37242187 17.56234375 10.37109375 18.3671875 C10.30174286 22.94434629 9.72390082 26.69714355 8 31 C7.06576355 27.98968256 6.95550089 27.13349732 8 24 C8.22718496 21.43365139 8.41608184 18.88321893 8.5625 16.3125 C8.60568359 15.61060547 8.64886719 14.90871094 8.69335938 14.18554688 C8.7991736 12.45724794 8.90006581 10.7286489 9 9 C8.34 9 7.68 9 7 9 C6.731875 8.030625 6.46375 7.06125 6.1875 6.0625 C5.795625 5.051875 5.40375 4.04125 5 3 C4.01 2.67 3.02 2.34 2 2 C1.34 1.34 0.68 0.68 0 0 Z " fill="#9B222A" transform="translate(227,62)"/>
<path d="M0 0 C0.33 0 0.66 0 1 0 C2.125 7.625 2.125 7.625 1 11 C4.3 10.34 7.6 9.68 11 9 C11.33 7.68 11.66 6.36 12 5 C12.66 5 13.32 5 14 5 C13.67 6.98 13.34 8.96 13 11 C12.34 11 11.68 11 11 11 C10.67 11.66 10.34 12.32 10 13 C6.37 12.67 2.74 12.34 -1 12 C-0.67 8.04 -0.34 4.08 0 0 Z " fill="#BA1517" transform="translate(208,81)"/>
<path d="M0 0 C0.33 0 0.66 0 1 0 C1.23181633 8.10069283 1.31448388 16.15647131 -1 24 C-1.66 24.66 -2.32 25.32 -3 26 C-2.45520982 17.24034738 -1.45892001 8.65437017 0 0 Z " fill="#A91B23" transform="translate(146,99)"/>
<path d="M0 0 C0.90105469 0.11085937 1.80210938 0.22171875 2.73046875 0.3359375 C3.76107422 0.47902344 3.76107422 0.47902344 4.8125 0.625 C6.60218184 6.53095006 4.54574922 11.3545574 1.8125 16.625 C1.95370714 14.68715735 2.10062873 12.74973045 2.25 10.8125 C2.33121094 9.73355469 2.41242187 8.65460938 2.49609375 7.54296875 C2.8125 4.625 2.8125 4.625 3.8125 1.625 C-0.1475 1.625 -4.1075 1.625 -8.1875 1.625 C-4.73535147 -0.67643236 -3.95270676 -0.51333854 0 0 Z " fill="#BD141E" transform="translate(41.1875,62.375)"/>
<path d="M0 0 C2.86237248 2.86237248 3.90730493 4.06081905 4.09765625 8.04296875 C4.06510417 10.02864583 4.03255208 12.01432292 4 14 C2.68 13.34 1.36 12.68 0 12 C0.33 11.01 0.66 10.02 1 9 C0.34 9 -0.32 9 -1 9 C-0.67 6.03 -0.34 3.06 0 0 Z " fill="#CE1A24" transform="translate(69,64)"/>
<path d="M0 0 C3.05227053 3.05227053 3.84346654 6.83341231 5.1875 10.875 C5.47302734 11.69097656 5.75855469 12.50695312 6.05273438 13.34765625 C6.31763672 14.13785156 6.58253906 14.92804688 6.85546875 15.7421875 C7.09934326 16.4626123 7.34321777 17.18303711 7.59448242 17.92529297 C8.05438478 20.27824316 7.74371194 21.74376667 7 24 C4.0554321 19.00703705 3.36504064 14.66442374 3 9 C2.34 9 1.68 9 1 9 C0.67 6.03 0.34 3.06 0 0 Z " fill="#9F1A23" transform="translate(281,67)"/>
<path d="M0 0 C1.45823212 -0.0270043 2.91660675 -0.04639787 4.375 -0.0625 C5.18710938 -0.07410156 5.99921875 -0.08570312 6.8359375 -0.09765625 C9 0 9 0 11 1 C10.67 4.96 10.34 8.92 10 13 C9.67 13 9.34 13 9 13 C8.67 9.7 8.34 6.4 8 3 C6.35 3 4.7 3 3 3 C3 2.34 3 1.68 3 1 C2.01 1.33 1.02 1.66 0 2 C0 1.34 0 0.68 0 0 Z " fill="#B11722" transform="translate(174,89)"/>
<path d="M0 0 C1.28282164 3.84846491 0.48702089 5.28244777 -1 9 C-3.46428571 13.82142857 -3.46428571 13.82142857 -7 15 C-5.45454854 9.52067211 -2.84456788 4.88570819 0 0 Z " fill="#B81E2A" transform="translate(256,107)"/>
<path d="M0 0 C0.99 0 1.98 0 3 0 C1.45614871 4.14032846 -0.51028938 7.93553053 -2.625 11.8125 C-3.11226563 12.7087207 -3.11226563 12.7087207 -3.609375 13.62304688 C-4.40379151 15.08337135 -5.20155376 16.54187491 -6 18 C-7.42600325 13.72199024 -5.45637064 11.13234078 -3.5625 7.3125 C-3.22412109 6.61060547 -2.88574219 5.90871094 -2.53710938 5.18554688 C-1.70018652 3.45276294 -0.85122607 1.72580248 0 0 Z " fill="#9E1E21" transform="translate(285,109)"/>
<path d="M0 0 C9.57 0.33 19.14 0.66 29 1 C28.34 2.32 27.68 3.64 27 5 C26.34 4.34 25.68 3.68 25 3 C22.3817233 2.62826984 22.3817233 2.62826984 19.3359375 2.5859375 C18.21445312 2.54726563 17.09296875 2.50859375 15.9375 2.46875 C14.761875 2.4378125 13.58625 2.406875 12.375 2.375 C10.59996094 2.31699219 10.59996094 2.31699219 8.7890625 2.2578125 C5.85953309 2.16331155 2.93001403 2.07775442 0 2 C0 1.34 0 0.68 0 0 Z " fill="#0C0C0C" transform="translate(295,37)"/>
<path d="M0 0 C0.33 0 0.66 0 1 0 C2.125 7.75 2.125 7.75 1 10 C-1.54941373 10.31241371 -4.00361513 10.51303421 -6.5625 10.625 C-7.62887695 10.68300781 -7.62887695 10.68300781 -8.71679688 10.7421875 C-10.47742425 10.83671783 -12.23867728 10.91945817 -14 11 C-14 10.34 -14 9.68 -14 9 C-9.71 9 -5.42 9 -1 9 C-0.67 6.03 -0.34 3.06 0 0 Z " fill="#A5212C" transform="translate(230,128)"/>
<path d="M0 0 C0.66 0 1.32 0 2 0 C1.85820962 2.22942748 1.71140302 4.45853628 1.5625 6.6875 C1.48128906 7.92886719 1.40007812 9.17023438 1.31640625 10.44921875 C1.05508683 13.38180337 0.65201621 16.13441617 0 19 C-0.33 19 -0.66 19 -1 19 C-1.02714735 16.77090129 -1.04646254 14.54170633 -1.0625 12.3125 C-1.07990234 10.45044922 -1.07990234 10.45044922 -1.09765625 8.55078125 C-1.01478673 5.53764546 -0.70839449 2.91724661 0 0 Z " fill="#B3121A" transform="translate(113,93)"/>
<path d="M0 0 C1.34625706 4.03877118 0.49771243 7.13939174 -1 11 C-2.49424379 13.35021788 -4.00638015 15.00638015 -6 17 C-6.66 17 -7.32 17 -8 17 C-7.25 14.625 -7.25 14.625 -6 12 C-5.319375 11.731875 -4.63875 11.46375 -3.9375 11.1875 C-1.82298435 10.20439551 -1.82298435 10.20439551 -1.5546875 8.17578125 C-1.39547849 6.74546809 -1.26818236 5.31117732 -1.17578125 3.875 C-1 2 -1 2 0 0 Z " fill="#B2101B" transform="translate(234,86)"/>
<path d="M0 0 C0.66 0.33 1.32 0.66 2 1 C2.484375 2.92578125 2.484375 2.92578125 2.75 5.3125 C2.84796875 6.09238281 2.9459375 6.87226562 3.046875 7.67578125 C2.99392264 10.30133568 2.32990442 11.76473757 1 14 C-1.97 13.505 -1.97 13.505 -5 13 C-5 12.34 -5 11.68 -5 11 C-3.02 10.67 -1.04 10.34 1 10 C0.67 6.7 0.34 3.4 0 0 Z " fill="#D11A22" transform="translate(227,121)"/>
<path d="M0 0 C1.15837573 3.47512718 0.77265943 5.13670286 0.0625 8.6875 C-0.13214844 9.68136719 -0.32679687 10.67523438 -0.52734375 11.69921875 C-0.68332031 12.45847656 -0.83929688 13.21773437 -1 14 C-1.66 14 -2.32 14 -3 14 C-2.88655624 11.8535247 -2.75893655 9.70779408 -2.625 7.5625 C-2.52058594 5.77005859 -2.52058594 5.77005859 -2.4140625 3.94140625 C-2.27742188 2.97074219 -2.14078125 2.00007813 -2 1 C-1.34 0.67 -0.68 0.34 0 0 Z " fill="#BA1620" transform="translate(86,66)"/>
<path d="M0 0 C0.99 0.99 1.98 1.98 3 3 C2.92578125 5.8828125 2.92578125 5.8828125 2.3125 9.125 C2.12300781 10.20007813 1.93351563 11.27515625 1.73828125 12.3828125 C1.49464844 13.24648437 1.25101563 14.11015625 1 15 C0.01 15.495 0.01 15.495 -1 16 C-0.67 10.72 -0.34 5.44 0 0 Z " fill="#A61720" transform="translate(180,119)"/>
<path d="M0 0 C0.66 0 1.32 0 2 0 C1.42085333 6.01326751 0.77662055 12.00892722 0 18 C-0.33 18 -0.66 18 -1 18 C-1.02698422 15.56242587 -1.04683099 13.12515085 -1.0625 10.6875 C-1.07087891 9.99720703 -1.07925781 9.30691406 -1.08789062 8.59570312 C-1.10307906 5.4516975 -1.00193327 3.00579981 0 0 Z " fill="#AA1720" transform="translate(95,80)"/>
<path d="M0 0 C-0.66 2.97 -1.32 5.94 -2 9 C-2.99 8.67 -3.98 8.34 -5 8 C-5.33 5.36 -5.66 2.72 -6 0 C-3 -1 -3 -1 0 0 Z " fill="#DE1417" transform="translate(88,80)"/>
<path d="M0 0 C0.33 0 0.66 0 1 0 C1 1.65 1 3.3 1 5 C0.34 5 -0.32 5 -1 5 C-1.12375 5.598125 -1.2475 6.19625 -1.375 6.8125 C-2 9 -2 9 -4 12 C-3.67 8.37 -3.34 4.74 -3 1 C-2.01 1.33 -1.02 1.66 0 2 C0 1.34 0 0.68 0 0 Z " fill="#C00913" transform="translate(65,97)"/>
<path d="M0 0 C0.33 0 0.66 0 1 0 C1.05423638 1.91635217 1.09289963 3.83314925 1.125 5.75 C1.14820313 6.81734375 1.17140625 7.8846875 1.1953125 8.984375 C1.00487687 11.92470106 0.52670104 13.52361878 -1 16 C-1.33 16 -1.66 16 -2 16 C-1.50130596 10.63108121 -0.97772468 5.30764827 0 0 Z " fill="#AD222B" transform="translate(193,91)"/>
<path d="M0 0 C0.66 0 1.32 0 2 0 C2 1.32 2 2.64 2 4 C2.66 4 3.32 4 4 4 C4.33 2.68 4.66 1.36 5 0 C5.33 2.97 5.66 5.94 6 9 C3 8 3 8 2 7 C1.63837971 5.67405895 1.30271961 4.34061543 1 3 C0.34 3 -0.32 3 -1 3 C-0.67 2.01 -0.34 1.02 0 0 Z " fill="#DA141A" transform="translate(178,94)"/>
<path d="M0 0 C2.375 0.3125 2.375 0.3125 5 1 C7 4 7 4 7 7 C5.68 6.67 4.36 6.34 3 6 C3 5.34 3 4.68 3 4 C2.01 3.67 1.02 3.34 0 3 C0 2.01 0 1.02 0 0 Z " fill="#E12128" transform="translate(227,64)"/>
<path d="M0 0 C1.28222189 3.03070628 0.98589446 4.03596914 -0.25 7.1875 C-2 10 -2 10 -5 11 C-3.77472971 6.94718288 -2.30119506 3.55639236 0 0 Z " fill="#B11F24" transform="translate(248,123)"/>
<path d="M0 0 C2.09715785 3.14573677 2.52004559 5.01456251 3.125 8.6875 C3.29257813 9.68136719 3.46015625 10.67523438 3.6328125 11.69921875 C3.75398438 12.45847656 3.87515625 13.21773437 4 14 C3.01 14 2.02 14 1 14 C0.67 9.38 0.34 4.76 0 0 Z " fill="#C1101C" transform="translate(69,114)"/>
<path d="M0 0 C0.33 0.99 0.66 1.98 1 3 C1.66 3.33 2.32 3.66 3 4 C3.703125 5.77734375 3.703125 5.77734375 4.25 7.9375 C4.44078125 8.64777344 4.6315625 9.35804687 4.828125 10.08984375 C4.88484375 10.72019531 4.9415625 11.35054687 5 12 C4.34 12.66 3.68 13.32 3 14 C-0.44419134 4.58997722 -0.44419134 4.58997722 0 0 Z " fill="#D31522" transform="translate(258,75)"/>
<path d="M0 0 C5.75 0.75 5.75 0.75 8 3 C8.125 6.125 8.125 6.125 8 9 C5 5.25 5 5.25 5 3 C4.01 2.67 3.02 2.34 2 2 C1.34 1.34 0.68 0.68 0 0 Z " fill="#B41D28" transform="translate(227,62)"/>
<path d="M0 0 C1.32 0 2.64 0 4 0 C4 3.63 4 7.26 4 11 C1.6870518 8.6870518 1.50419025 7.52095125 0.875 4.375 C0.70742187 3.55773438 0.53984375 2.74046875 0.3671875 1.8984375 C0.24601563 1.27195313 0.12484375 0.64546875 0 0 Z " fill="#E2212A" transform="translate(248,40)"/>
<path d="M0 0 C1.87978657 2.73177617 2.01655381 3.88384275 1.5390625 7.234375 C1.23742187 8.39453125 0.93578125 9.5546875 0.625 10.75 C0.32851562 11.92046875 0.03203125 13.0909375 -0.2734375 14.296875 C-0.51320313 15.18890625 -0.75296875 16.0809375 -1 17 C-1.33 17 -1.66 17 -2 17 C-1.85899143 14.72886197 -1.71203245 12.45809275 -1.5625 10.1875 C-1.48128906 8.92292969 -1.40007812 7.65835938 -1.31640625 6.35546875 C-1 3 -1 3 0 0 Z " fill="#C60E13" transform="translate(90,111)"/>
<path d="M0 0 C0.66 0.66 1.32 1.32 2 2 C1.9765625 4.6015625 1.9765625 4.6015625 1.625 7.625 C1.51414062 8.62789062 1.40328125 9.63078125 1.2890625 10.6640625 C1.19367188 11.43492188 1.09828125 12.20578125 1 13 C0.67 13 0.34 13 0 13 C-0.19551338 11.39679026 -0.38111983 9.79237014 -0.5625 8.1875 C-0.71912109 6.84751953 -0.71912109 6.84751953 -0.87890625 5.48046875 C-1 3 -1 3 0 0 Z " fill="#AA1C1F" transform="translate(123,116)"/>
<path d="M0 0 C1.61949011 2.57213134 2.04408751 3.67669159 1.625 6.75 C1.41875 7.4925 1.2125 8.235 1 9 C-0.98 9 -2.96 9 -5 9 C-4.34 8.01 -3.68 7.02 -3 6 C-2.01 6 -1.02 6 0 6 C0 4.02 0 2.04 0 0 Z " fill="#C81119" transform="translate(80,94)"/>
<path d="M0 0 C0.99 0 1.98 0 3 0 C2.34 3.3 1.68 6.6 1 10 C-1 8 -1 8 -1.1875 4.4375 C-1 1 -1 1 0 0 Z " fill="#DF2126" transform="translate(87,64)"/>
<path d="M0 0 C0.33 0 0.66 0 1 0 C1.25 7.625 1.25 7.625 -1 11 C-1.66 11 -2.32 11 -3 11 C-2.01 7.37 -1.02 3.74 0 0 Z " fill="#B62227" transform="translate(262,92)"/>
<path d="M0 0 C1.125 1.5625 1.125 1.5625 2 4 C1.125 7.75 1.125 7.75 0 11 C-0.33 11 -0.66 11 -1 11 C-1.14285714 3.57142857 -1.14285714 3.57142857 0 0 Z " fill="#D31419" transform="translate(110,121)"/>
<path d="M0 0 C0.33 0 0.66 0 1 0 C1.07654536 4.51617599 1.10228696 8.59085217 0 13 C-0.33 13 -0.66 13 -1 13 C-2.42857143 4.57142857 -2.42857143 4.57142857 0 0 Z " fill="#BE0D17" transform="translate(28,89)"/>
<path d="M0 0 C0.99 0 1.98 0 3 0 C3.33 1.98 3.66 3.96 4 6 C1.525 5.01 1.525 5.01 -1 4 C-0.67 2.68 -0.34 1.36 0 0 Z " fill="#D7191D" transform="translate(281,76)"/>
<path d="" fill="#000000" transform="translate(0,0)"/>
<path d="" fill="#000000" transform="translate(0,0)"/>
</svg>
