<?xml version="1.0" encoding="UTF-8"?>
<svg version="1.1" xmlns="http://www.w3.org/2000/svg" width="600" height="315">
<path d="M0 0 C0.93328125 0.67675781 1.8665625 1.35351562 2.828125 2.05078125 C3.57578125 2.57285156 4.3234375 3.09492187 5.09375 3.6328125 C15.92625095 12.05572171 23.07037924 26.64998558 24.828125 40.05078125 C26.14346301 58.83417211 23.09724155 74.51701285 10.640625 89.17578125 C-1.71936063 102.36529612 -16.85185381 108.50361887 -34.75 109.1875 C-48.27464156 108.6471319 -60.70182137 104.70163887 -71.171875 96.05078125 C-72.40550781 95.10332031 -72.40550781 95.10332031 -73.6640625 94.13671875 C-82.95807952 86.40618123 -87.35448074 77.20257892 -91.171875 66.05078125 C-91.54441406 65.11621094 -91.91695313 64.18164062 -92.30078125 63.21875 C-96.04484929 49.60243079 -93.37061447 35.41065064 -87.171875 23.05078125 C-86.61886719 21.93832031 -86.06585938 20.82585937 -85.49609375 19.6796875 C-76.98076501 3.99973734 -63.85297549 -3.80676484 -47.171875 -8.94921875 C-46.21861328 -9.25279297 -46.21861328 -9.25279297 -45.24609375 -9.5625 C-29.43443063 -12.51043719 -13.19031803 -8.88559601 0 0 Z M-47.921875 37.92578125 C-51.60096488 43.0356283 -52.81734506 46.70365899 -52.171875 53.05078125 C-50.19746172 58.9403663 -47.21152645 62.51230257 -42.171875 66.05078125 C-36.27825099 68.01532259 -30.19199302 68.04311993 -24.609375 65.30078125 C-22.38664842 63.24903363 -21.17930626 61.87158877 -20.171875 59.05078125 C-19.511875 59.05078125 -18.851875 59.05078125 -18.171875 59.05078125 C-15.80105975 54.4573267 -15.59955361 50.10330599 -16.171875 45.05078125 C-17.88475636 40.36289543 -20.37454291 37.27851353 -24.171875 34.05078125 C-25.161875 34.05078125 -26.151875 34.05078125 -27.171875 34.05078125 C-27.171875 33.39078125 -27.171875 32.73078125 -27.171875 32.05078125 C-38.71789183 31.52005212 -38.71789183 31.52005212 -47.921875 37.92578125 Z " fill="#F2131F" transform="translate(517.171875,119.94921875)"/>
<path d="M0 0 C0.86882812 0.350625 1.73765625 0.70125 2.6328125 1.0625 C19.14272457 8.51525028 28.5583479 21.49167349 35.109375 37.75390625 C39.96252583 52.74831094 37.20150602 69.27227334 30.75 83.3125 C22.46742811 98.49301931 9.70754238 108.11455249 -6.73046875 113.140625 C-11.69112304 114.30387003 -16.61067421 114.383788 -21.6875 114.375 C-22.65703613 114.37338867 -23.62657227 114.37177734 -24.62548828 114.37011719 C-32.40073512 114.23773942 -38.80792432 113.0961402 -46 110 C-46.72832031 109.71125 -47.45664063 109.4225 -48.20703125 109.125 C-57.3388743 105.09041845 -64.96529405 97.81874498 -71 90 C-71.67482422 89.14921875 -71.67482422 89.14921875 -72.36328125 88.28125 C-81.35486432 75.58725037 -82.90638935 59.02553918 -81 44 C-79.06238467 34.59713736 -75.23877073 25.35384514 -69 18 C-67.99066406 16.79150391 -67.99066406 16.79150391 -66.9609375 15.55859375 C-49.9119859 -3.11542515 -23.49770713 -9.67927231 0 0 Z M-36.4921875 43.5625 C-40.2364673 49.02860189 -40.82857878 54.57137152 -40 61 C-38.27995016 65.52766482 -35.7306429 68.85177908 -31.625 71.4375 C-26.5990122 73.60387405 -22.92024885 74.30861142 -17.5 73.4375 C-11.75845123 71.0793639 -8.15674143 68.01496894 -5.0625 62.625 C-3.50503867 57.31130841 -3.23843406 53.23989982 -5.0625 47.875 C-8.33422928 43.02017591 -12.60784803 39.33837878 -18 37 C-24.7778854 36.05109604 -31.72732883 38.57311919 -36.4921875 43.5625 Z " fill="#F2131F" transform="translate(186,114)"/>
<path d="M0 0 C0.71353638 0.00202423 1.42707275 0.00404846 2.16223145 0.00613403 C2.89091431 0.00517731 3.61959717 0.00422058 4.37036133 0.00323486 C5.91377855 0.00255318 7.45719861 0.00440666 9.00061035 0.00857544 C11.37095544 0.01392391 13.74111104 0.00863011 16.1114502 0.00222778 C17.60754437 0.00288857 19.10363842 0.00416973 20.59973145 0.00613403 C21.31326782 0.0041098 22.0268042 0.00208557 22.76196289 0 C27.76602953 0.02399462 27.76602953 0.02399462 28.88098145 1.13894653 C29.03940794 3.20979373 29.13222567 5.28572683 29.1973877 7.36160278 C29.23928223 8.62166138 29.28117676 9.88171997 29.32434082 11.17996216 C29.36415741 12.52045389 29.40386958 13.86094873 29.44348145 15.20144653 C29.48666187 16.54586176 29.530276 17.89026313 29.57434082 19.23464966 C29.68083502 22.53596994 29.78284605 25.83736889 29.88098145 29.13894653 C30.10882324 28.53453735 30.33666504 27.93012817 30.57141113 27.30740356 C33.02604918 20.96564468 35.90645731 14.9954709 39.13098145 9.01394653 C40.69848145 6.08519653 42.26598145 3.15644653 43.88098145 0.13894653 C57.41098145 0.13894653 70.94098145 0.13894653 84.88098145 0.13894653 C83.99587003 5.44961502 83.37109184 7.49380101 80.69348145 11.82644653 C76.4174023 18.90409477 72.47218281 26.12062298 68.6114502 33.43191528 C68.01276123 34.56560547 68.01276123 34.56560547 67.40197754 35.72219849 C66.6129041 37.21856866 65.82539782 38.71576658 65.03967285 40.21389771 C64.6740625 40.90846069 64.30845215 41.60302368 63.9317627 42.31863403 C63.58452148 42.98217896 63.23728027 43.64572388 62.8795166 44.32937622 C61.88098145 46.13894653 61.88098145 46.13894653 60.0489502 48.83425903 C58.68518571 51.06592793 58.68518571 51.06592793 58.9630127 53.54129028 C60.1365814 56.86224002 61.76209777 59.67704416 63.56848145 62.70144653 C66.05731236 66.93185513 68.43946952 71.14965954 70.56848145 75.57644653 C74.62392611 83.86707855 79.29319005 91.82839664 83.85754395 99.84597778 C84.37478027 100.7594397 84.8920166 101.67290161 85.42492676 102.61404419 C86.32553937 104.17577048 87.24794808 105.7254161 88.20422363 107.25369263 C90.96185213 111.70022063 90.96185213 111.70022063 90.47717285 114.32962036 C90.28042969 114.926698 90.08368652 115.52377563 89.88098145 116.13894653 C84.11527329 116.26258438 78.35033723 116.35330359 72.58361816 116.41360474 C70.62221841 116.43874257 68.66091228 116.47285819 66.6998291 116.5161438 C63.87977 116.57682861 61.06094951 116.60516294 58.24035645 116.62722778 C57.36417664 116.65303421 56.48799683 116.67884064 55.58526611 116.70542908 C49.49646881 116.70823143 49.49646881 116.70823143 46.49377441 113.93093872 C45.96155273 113.0095813 45.42933105 112.08822388 44.88098145 111.13894653 C44.34779297 110.30613159 43.81460449 109.47331665 43.26525879 108.61526489 C42.49883057 107.31020996 42.49883057 107.31020996 41.71691895 105.97879028 C41.15230957 105.02037231 40.5877002 104.06195435 40.00598145 103.07449341 C39.42848145 102.08513794 38.85098145 101.09578247 38.25598145 100.07644653 C37.67074707 99.08322388 37.0855127 98.09000122 36.48254395 97.06668091 C31.80757737 89.10529862 31.80757737 89.10529862 29.88098145 85.13894653 C29.84339722 86.4942749 29.84339722 86.4942749 29.80505371 87.87698364 C29.71010827 91.21858934 29.61086524 94.56000905 29.50866699 97.90139771 C29.46526514 99.34958893 29.423594 100.79783307 29.38366699 102.24612427 C29.32609082 104.32384213 29.26236117 106.40129227 29.1973877 108.47879028 C29.16072998 109.7303894 29.12407227 110.98198853 29.08630371 112.27151489 C28.88098145 115.13894653 28.88098145 115.13894653 27.88098145 116.13894653 C25.36004068 116.22742396 22.86667252 116.25421955 20.3458252 116.23660278 C19.21594933 116.23448036 19.21594933 116.23448036 18.06324768 116.23231506 C15.64828585 116.22670029 13.23341544 116.21414536 10.81848145 116.20144653 C9.18501924 116.19643343 7.55155558 116.1918702 5.91809082 116.18777466 C1.9056856 116.17672607 -2.10665096 116.1594516 -6.11901855 116.13894653 C-7.57452658 113.22793048 -7.28412846 110.64577455 -7.32434082 107.39431763 C-7.33424042 106.70152206 -7.34414001 106.0087265 -7.3543396 105.29493713 C-7.38597353 103.00078775 -7.41071941 100.70661764 -7.4354248 98.41238403 C-7.45599271 96.82339941 -7.47698913 95.23442029 -7.49839783 93.64544678 C-7.55363546 89.45991458 -7.60303725 85.27433288 -7.65124512 81.0887146 C-7.70144781 76.81895533 -7.7571403 72.54926811 -7.81237793 68.27957153 C-7.91998019 59.89942409 -8.02142054 51.51921643 -8.11901855 43.13894653 C-8.75710449 42.96879028 -9.39519043 42.79863403 -10.0526123 42.62332153 C-10.87890137 42.38097778 -11.70519043 42.13863403 -12.55651855 41.88894653 C-13.38022949 41.65691528 -14.20394043 41.42488403 -15.0526123 41.18582153 C-17.11901855 40.13894653 -17.11901855 40.13894653 -17.9649353 38.25776672 C-18.22618159 34.66533269 -16.81637721 31.46323331 -15.62683105 28.12722778 C-15.36143524 27.35839767 -15.09603943 26.58956757 -14.82260132 25.79743958 C-14.26081506 24.17607694 -13.69397041 22.55645937 -13.12243652 20.93850708 C-12.24476527 18.45356069 -11.38174394 15.96391018 -10.5213623 13.47293091 C-9.97402731 11.8990701 -9.42587822 10.32549211 -8.87683105 8.75222778 C-8.61636993 8.00435501 -8.35590881 7.25648224 -8.08755493 6.48594666 C-5.80193023 0.0278204 -5.80193023 0.0278204 0 0 Z " fill="#F1141E" transform="translate(341.1190185546875,109.86105346679688)"/>
<path d="M0 0 C11.88 0 23.76 0 36 0 C36 1.98 36 3.96 36 6 C36.65597168 5.99476318 37.31194336 5.98952637 37.98779297 5.98413086 C40.95018563 5.96338728 43.91256303 5.95034824 46.875 5.9375 C48.42380859 5.92493164 48.42380859 5.92493164 50.00390625 5.91210938 C50.99003906 5.90888672 51.97617188 5.90566406 52.9921875 5.90234375 C54.35899658 5.89448853 54.35899658 5.89448853 55.75341797 5.88647461 C58 6 58 6 60 7 C60.11611949 18.95288206 60.20482991 30.90562875 60.25906086 42.85896111 C60.28509602 48.41008376 60.32038308 53.96081901 60.37719727 59.51171875 C60.43173368 64.87395127 60.46146623 70.23581237 60.47438622 75.59830093 C60.48358732 77.63875292 60.50155479 79.67918578 60.52865028 81.71947861 C60.80884752 103.70313077 60.80884752 103.70313077 53.0539093 112.10958862 C46.13447023 118.88630228 37.65964878 121.12191956 28.13989258 121.12939453 C26.985522 121.13254669 25.83115143 121.13569885 24.64179993 121.13894653 C23.40520126 121.1369223 22.1686026 121.13489807 20.89453125 121.1328125 C19.61897873 121.13376923 18.34342621 121.13472595 17.02922058 121.13571167 C14.33690987 121.13639152 11.64469025 121.13505421 8.95239258 121.13037109 C5.49889656 121.12465693 2.04547797 121.12796757 -1.40801525 121.13394356 C-4.70300256 121.13841909 -7.99798043 121.13528947 -11.29296875 121.1328125 C-13.15697578 121.13584885 -13.15697578 121.13584885 -15.05863953 121.13894653 C-16.20355362 121.13579437 -17.34846771 121.13264221 -18.52807617 121.12939453 C-19.53891769 121.12859894 -20.54975922 121.12780334 -21.5912323 121.12698364 C-24 121 -24 121 -26 120 C-23.76188601 112.99593453 -21.12994735 106.22723357 -18.3125 99.4375 C-17.89677734 98.42880859 -17.48105469 97.42011719 -17.05273438 96.38085938 C-16.03784021 93.9194494 -15.02021747 91.45920717 -14 89 C-12.86570557 88.97812622 -12.86570557 88.97812622 -11.70849609 88.95581055 C-8.26349723 88.88108 -4.81944079 88.78450072 -1.375 88.6875 C-0.18519531 88.66494141 1.00460938 88.64238281 2.23046875 88.61914062 C8.28995378 88.43295533 12.84312361 88.28244862 18 85 C18.66 85 19.32 85 20 85 C22.12260463 80.69236119 22.26327038 76.7801683 22.1953125 72.07421875 C22.19329834 71.41087524 22.19128418 70.74753174 22.18920898 70.06408691 C22.17880824 67.60515346 22.15088592 65.1463192 22.125 62.6875 C22.063125 54.4271875 22.063125 54.4271875 22 46 C4.675 45.505 4.675 45.505 -13 45 C-14.16366321 40.34534716 -13.52662765 38.67372776 -12.05078125 34.1796875 C-11.7299482 33.1916362 -11.7299482 33.1916362 -11.40263367 32.18362427 C-10.94750285 30.78846942 -10.48740099 29.39492783 -10.02270508 28.00292969 C-9.3229462 25.9062991 -8.63762933 23.80541238 -7.95507812 21.703125 C-5.54237978 14.34062495 -2.88465331 7.21163326 0 0 Z " fill="#F0141F" transform="translate(31,105)"/>
<path d="M0 0 C5.46243138 -0.19809361 10.92276519 -0.34307407 16.38793945 -0.43945312 C18.2457318 -0.47963212 20.10327196 -0.53418925 21.96020508 -0.60351562 C24.6342581 -0.70083198 27.30496552 -0.7459756 29.98046875 -0.78125 C31.2213752 -0.84318542 31.2213752 -0.84318542 32.48735046 -0.90637207 C34.89816171 -0.90823864 36.72537315 -0.80659126 39 0 C41.3121687 2.37987892 42.64149654 4.9945728 44 8 C44.48500977 9.02150146 44.97001953 10.04300293 45.46972656 11.09545898 C46.04932129 12.53127319 46.04932129 12.53127319 46.640625 13.99609375 C47.07117188 15.04861328 47.50171875 16.10113281 47.9453125 17.18554688 C48.37585938 18.25869141 48.80640625 19.33183594 49.25 20.4375 C50.12815425 22.60369842 51.00825351 24.76910974 51.890625 26.93359375 C52.27250977 27.88290771 52.65439453 28.83222168 53.04785156 29.81030273 C53.81259016 31.93475235 53.81259016 31.93475235 55 33 C55.33733154 32.28457031 55.67466309 31.56914062 56.0222168 30.83203125 C57.57221076 27.55224932 59.12978914 24.27612343 60.6875 21 C61.21794922 19.87464844 61.74839844 18.74929687 62.29492188 17.58984375 C62.82021484 16.48769531 63.34550781 15.38554688 63.88671875 14.25 C64.60154419 12.74179688 64.60154419 12.74179688 65.33081055 11.203125 C65.88164307 10.14609375 66.43247559 9.0890625 67 8 C67.3268428 7.2929895 67.65368561 6.585979 67.99043274 5.85754395 C70.8088352 0.42218546 70.8088352 0.42218546 73.94868469 -0.69067383 C76.34567625 -0.92778663 78.61389667 -0.90131868 81.01953125 -0.78125 C81.87810226 -0.76993042 82.73667328 -0.75861084 83.6212616 -0.74694824 C86.35397984 -0.7022875 89.08137882 -0.60196314 91.8125 -0.5 C93.6685438 -0.45985882 95.52467017 -0.42335914 97.38085938 -0.390625 C101.92261122 -0.30258799 106.46040515 -0.16462719 111 0 C112 3 112 3 111.13671875 5.13671875 C106.71639658 12.91696235 102.00325658 20.49424214 97.22412109 28.05712891 C92.46947912 35.60348727 87.84465101 43.23049212 83.25 50.875 C82.70267212 51.78487671 82.70267212 51.78487671 82.14428711 52.71313477 C81.09024915 54.47195652 80.04504019 56.23582134 79 58 C78.6277832 58.61464111 78.25556641 59.22928223 77.87207031 59.86254883 C75.34490653 64.11766368 74.3967131 67.14026448 74 72 C74.66 71.67 75.32 71.34 76 71 C82.53333333 70.76666667 82.53333333 70.76666667 85 72 C83.47346746 80.40009981 81.31909276 88.5731944 79.05883789 96.79858398 C78.43059297 99.08766656 77.80973159 101.37866929 77.18945312 103.66992188 C76.79210152 105.12511881 76.39433084 106.58020139 75.99609375 108.03515625 C75.71795082 109.06311058 75.71795082 109.06311058 75.43418884 110.11183167 C74.11500094 114.88499906 74.11500094 114.88499906 73 116 C70.40640678 116.08851529 67.83960309 116.11525945 65.24609375 116.09765625 C64.47064713 116.0962413 63.6952005 116.09482635 62.89625549 116.09336853 C60.40996506 116.08775345 57.9237634 116.07519846 55.4375 116.0625 C53.75586067 116.05748694 52.07421994 116.0529237 50.39257812 116.04882812 C46.26168434 116.03777913 42.13085724 116.02050445 38 116 C36.84770249 112.35086887 36.90140392 108.94560735 36.9375 105.13671875 C36.94128662 104.46768021 36.94507324 103.79864166 36.94897461 103.10932922 C36.96513736 100.26738597 36.99280496 97.42559116 37.02050781 94.58374023 C37.08801593 86.99529475 37.06216392 79.421578 36.70703125 71.83984375 C36.65264893 70.66929443 36.5982666 69.49874512 36.54223633 68.29272461 C35.61458492 62.65957086 32.51215954 58.58937317 29.30664062 53.98046875 C26.62467213 49.91542233 24.31856479 45.62055708 21.9375 41.375 C18.2926297 34.9365415 14.56805452 28.61704448 10.5234375 22.421875 C8.29360534 18.87701362 6.32373294 15.20477828 4.359375 11.5078125 C3.01569555 8.94925721 3.01569555 8.94925721 1.328125 6.4296875 C0 4 0 4 0 0 Z " fill="#F1131F" transform="translate(212,110)"/>
<path d="M0 0 C6.19015379 3.24300337 10.54988026 8.33990174 13.125 14.8125 C14.81723408 20.99607232 14.66607582 27.11494726 11.9921875 32.98828125 C8.05051058 39.39619865 2.93058424 43.59720788 -3.75 46.9375 C-12.30016483 48.47652967 -19.69808454 46.23778583 -26.875 41.5 C-31.6807947 37.32654671 -34.42685397 31.9817499 -35.23046875 25.73828125 C-35.61431753 17.63595971 -33.91941536 11.01066164 -28.41796875 4.875 C-26.9375 3.5625 -26.9375 3.5625 -23.875 1.5 C-23.029375 0.901875 -22.18375 0.30375 -21.3125 -0.3125 C-14.48700223 -2.67039923 -6.77007602 -2.61280807 0 0 Z M-18.875 8.5 C-18.05515625 8.54898438 -17.2353125 8.59796875 -16.390625 8.6484375 C-15.31296875 8.72320312 -14.2353125 8.79796875 -13.125 8.875 C-12.05765625 8.94460937 -10.9903125 9.01421875 -9.890625 9.0859375 C-7.04737969 9.47633129 -5.26362903 9.94850731 -2.875 11.5 C-1.45935166 14.33129669 -1.63275505 16.35081562 -1.875 19.5 C-3.375 22.875 -3.375 22.875 -4.875 25.5 C-4.215 26.44875 -3.555 27.3975 -2.875 28.375 C-0.875 31.5 -0.875 31.5 -0.875 33.5 C-6.24805699 33.85233161 -6.24805699 33.85233161 -8.875 33.5 C-10.875 31.5 -10.875 31.5 -11.875 29.5 C-12.205 30.82 -12.535 32.14 -12.875 33.5 C-15.185 33.5 -17.495 33.5 -19.875 33.5 C-20.205 25.58 -20.535 17.66 -20.875 9.5 C-25.49800273 14.12300273 -27.15728744 16.35748358 -27.3125 22.8125 C-27.20835087 28.38447866 -25.86766573 31.63968783 -21.875 35.5 C-17.94633717 38.6854023 -13.84505963 39.5 -8.875 39.5 C-3.31941565 38.30173671 0.34143333 35.72945834 3.875 31.3125 C6.13917769 26.2181002 6.86925786 21.53691624 4.9375 16.25 C0.75426766 9.86381113 0.75426766 9.86381113 -5.875 6.5 C-8.70156918 6.18710845 -8.70156918 6.18710845 -11.5625 6.25 C-12.51511719 6.24484375 -13.46773437 6.2396875 -14.44921875 6.234375 C-17.05601364 6.26372259 -17.05601364 6.26372259 -18.875 8.5 Z M-11.875 15.5 C-11.545 16.82 -11.215 18.14 -10.875 19.5 C-10.875 18.18 -10.875 16.86 -10.875 15.5 C-11.205 15.5 -11.535 15.5 -11.875 15.5 Z " fill="#E61721" transform="translate(581.875,87.5)"/>
<path d="M0 0 C11.91315237 5.27033469 18.22892586 16.26241404 22.8125 27.8125 C28.5840234 43.14719487 26.78451831 58.77478952 20.90234375 73.8046875 C17.00091471 82.2952551 11.29729447 90.43648804 3 95 C3.33 93.68 3.66 92.36 4 91 C4.639375 90.896875 5.27875 90.79375 5.9375 90.6875 C6.618125 90.460625 7.29875 90.23375 8 90 C8.33 89.01 8.66 88.02 9 87 C10.4375 84.3125 10.4375 84.3125 12 82 C12.66 82 13.32 82 14 82 C14.33 80.35 14.66 78.7 15 77 C16.485 76.505 16.485 76.505 18 76 C18.03738281 75.31292969 18.07476562 74.62585938 18.11328125 73.91796875 C18.21189453 72.56638672 18.21189453 72.56638672 18.3125 71.1875 C18.37050781 70.29417969 18.42851562 69.40085937 18.48828125 68.48046875 C19.07079356 65.65684039 19.91617439 64.88509565 22 63 C21.65213292 61.02463255 21.65213292 61.02463255 21 59 C21.32044483 57.66351057 21.65532995 56.33044784 22 55 C22.21062019 52.14795477 22.18508724 49.29662475 22.1875 46.4375 C22.19974609 45.66986328 22.21199219 44.90222656 22.22460938 44.11132812 C22.23479815 40.21582126 22.20892006 38.3133801 20 35 C19.65625 33.02734375 19.65625 33.02734375 19.5 30.9375 C19.40838115 27.00011598 19.40838115 27.00011598 17 25 C16.1624193 22.95211518 15.47965013 20.8763398 14.78125 18.77734375 C14.13945096 16.80353553 14.13945096 16.80353553 12 16 C11.87625 15.195625 11.7525 14.39125 11.625 13.5625 C11.41875 12.716875 11.2125 11.87125 11 11 C9.08333333 9.83333333 9.08333333 9.83333333 7 9 C6.34 8.01 5.68 7.02 5 6 C4.175 5.835 3.35 5.67 2.5 5.5 C1.675 5.335 0.85 5.17 0 5 C-0.66 4.01 -1.32 3.02 -2 2 C-1.34 2 -0.68 2 0 2 C0 1.34 0 0.68 0 0 Z " fill="#CD191D" transform="translate(197,121)"/>
<path d="M0 0 C0.66 0.33 1.32 0.66 2 1 C2 2.65 2 4.3 2 6 C1.30132812 6.23074219 0.60265625 6.46148437 -0.1171875 6.69921875 C-1.02726562 7.02535156 -1.93734375 7.35148437 -2.875 7.6875 C-3.77992187 8.00074219 -4.68484375 8.31398437 -5.6171875 8.63671875 C-8.58896973 10.33696793 -9.06955722 11.77553449 -10 15 C-10.99 15 -11.98 15 -13 15 C-12.67 16.32 -12.34 17.64 -12 19 C-12.66 19 -13.32 19 -14 19 C-14.268125 19.886875 -14.53625 20.77375 -14.8125 21.6875 C-16 25 -16 25 -17.5625 27.25 C-19.69109218 31.32208938 -19.74458501 35.46418209 -20 40 C-20.66 40 -21.32 40 -22 40 C-22 45.61 -22 51.22 -22 57 C-21.34 57.33 -20.68 57.66 -20 58 C-19.25 59.9375 -19.25 59.9375 -19 62 C-19.66 62.66 -20.32 63.32 -21 64 C-20.690625 64.515625 -20.38125 65.03125 -20.0625 65.5625 C-18.70634957 68.67366864 -18.41972569 71.64219444 -18 75 C-17.69096017 76.33917261 -17.37057089 77.67653254 -17 79 C-22.82301049 74.3040238 -24.45811422 64.44908052 -25.3203125 57.37011719 C-26.51928488 41.90004297 -24.18960055 26.84519359 -14.77734375 14.0625 C-10.33516912 8.90762482 -5.67923947 3.78615965 0 0 Z " fill="#CC1A21" transform="translate(130,120)"/>
<path d="M0 0 C0.66 0.33 1.32 0.66 2 1 C1.84144531 1.71285156 1.68289063 2.42570312 1.51953125 3.16015625 C0.42924711 9.11982973 0.04996632 14.82283948 2.5 20.4375 C5.63505734 23.65093378 8.88540541 25.30223039 13 27 C13 27.33 13 27.66 13 28 C10.69 28.33 8.38 28.66 6 29 C7.05270463 30.15811388 7.05270463 30.15811388 9 31 C11 32 11 32 12 33 C13.84891946 33.23363881 15.70488031 33.41303635 17.5625 33.5625 C18.57441406 33.64628906 19.58632813 33.73007813 20.62890625 33.81640625 C21.80259766 33.90728516 21.80259766 33.90728516 23 34 C19.14542433 36.56971711 17.2244926 36.16218036 12.765625 35.6015625 C5.1791696 33.9514013 -0.73030375 30.46923675 -5 24 C-8.50230515 17.96154285 -8.80723938 11.90871103 -8 5 C-7.34 4.34 -6.68 3.68 -6 3 C-6 5.64 -6 8.28 -6 11 C-5.34 10.67 -4.68 10.34 -4 10 C-3.67 9.01 -3.34 8.02 -3 7 C-2.34 7 -1.68 7 -1 7 C-0.67 4.69 -0.34 2.38 0 0 Z " fill="#D31823" transform="translate(555,99)"/>
<path d="M0 0 C0.33 0 0.66 0 1 0 C0.67 2.64 0.34 5.28 0 8 C20.79 8.33 41.58 8.66 63 9 C63 8.01 63 7.02 63 6 C65.75 4.375 65.75 4.375 69 3 C71.203125 3.9140625 71.203125 3.9140625 73 5 C71.86648814 5.8092101 70.71714141 6.59623601 69.5625 7.375 C68.92441406 7.81585938 68.28632812 8.25671875 67.62890625 8.7109375 C59.69422285 12.60164407 51.13148291 12.28145227 42.50390625 12.23046875 C40.59906715 12.22978142 40.59906715 12.22978142 38.65574646 12.2290802 C35.98723544 12.22607224 33.3190784 12.21932295 30.65063477 12.20581055 C27.22863195 12.18870105 23.80677667 12.1850003 20.38473606 12.18575573 C17.11194483 12.18541921 13.83918464 12.17659221 10.56640625 12.16796875 C9.33628311 12.16685593 8.10615997 12.1657431 6.83876038 12.16459656 C5.70675705 12.15821671 4.57475372 12.15183685 3.40844727 12.14526367 C1.91028221 12.13954597 1.91028221 12.13954597 0.3818512 12.13371277 C-2 12 -2 12 -4 11 C-3.52269162 9.5410574 -3.04308958 8.08286504 -2.5625 6.625 C-2.29566406 5.81289062 -2.02882813 5.00078125 -1.75390625 4.1640625 C-1 2 -1 2 0 0 Z " fill="#D11016" transform="translate(9,214)"/>
<path d="M0 0 C9.30479852 7.89498056 14.38316293 20.11976238 16 32 C17.34202106 50.99970907 14.18419431 66.7428059 1.4375 81.4375 C-1.46448675 84.66020543 -4.19012467 86.91762526 -8 89 C-7.67 87.68 -7.34 86.36 -7 85 C-6.34 85 -5.68 85 -5 85 C-5 84.01 -5 83.02 -5 82 C-3.68 82 -2.36 82 -1 82 C-0.67 80.68 -0.34 79.36 0 78 C0.66 78 1.32 78 2 78 C2.66 76.68 3.32 75.36 4 74 C4.66 74 5.32 74 6 74 C6 72.35 6 70.7 6 69 C7.485 68.505 7.485 68.505 9 68 C9 66.68 9 65.36 9 64 C9.66 64 10.32 64 11 64 C13.30368557 49.49912205 14.22726203 36.33471893 9.875 22.14453125 C9 19 9 19 9 15 C7.35 14.67 5.7 14.34 4 14 C3.31292445 11.50935112 3 9.62113708 3 7 C2.01810813 5.32260138 1.01866229 3.65532623 0 2 C0 1.34 0 0.68 0 0 Z " fill="#C61519" transform="translate(526,128)"/>
<path d="M0 0 C11 0 11 0 15 1 C16.50934217 4.01868434 16.17510672 6.67297229 16 10 C15.01 11.485 15.01 11.485 14 13 C12.68 12.67 11.36 12.34 10 12 C9.67 10.02 9.34 8.04 9 6 C8.01 5.67 7.02 5.34 6 5 C5.95875 6.258125 5.9175 7.51625 5.875 8.8125 C5.85179687 9.52019531 5.82859375 10.22789063 5.8046875 10.95703125 C5.86745538 13.31359719 5.86745538 13.31359719 8 16 C8.99 16.66 9.98 17.32 11 18 C9.5459375 18.680625 9.5459375 18.680625 8.0625 19.375 C4.92920418 20.65786221 4.92920418 20.65786221 4 23 C2.68 23 1.36 23 0 23 C0 15.41 0 7.82 0 0 Z " fill="#EE1320" transform="translate(563,97)"/>
<path d="M0 0 C4.68139254 -0.02465288 9.36274759 -0.04283739 14.04418945 -0.05493164 C15.63794614 -0.05997157 17.23169819 -0.0668035 18.82543945 -0.07543945 C21.11150253 -0.08751999 23.39750467 -0.09323155 25.68359375 -0.09765625 C26.7586039 -0.10539818 26.7586039 -0.10539818 27.85533142 -0.11329651 C29.57063672 -0.11349263 31.28581266 -0.06192007 33 0 C34.83219646 1.83219646 34.23901328 4.75713741 34.31640625 7.22265625 C34.35830078 8.48271484 34.40019531 9.74277344 34.44335938 11.04101562 C34.48317596 12.38150736 34.52288814 13.7220022 34.5625 15.0625 C34.60568042 16.40691523 34.64929456 17.7513166 34.69335938 19.09570312 C34.79985358 22.3970234 34.9018646 25.69842236 35 29 C35.66 27.35 36.32 25.7 37 24 C37.66 24.99 38.32 25.98 39 27 C38.34 27.928125 37.68 28.85625 37 29.8125 C34.73425446 32.79636556 34.73425446 32.79636556 35 36 C34.01 35.67 33.02 35.34 32 35 C32 24.44 32 13.88 32 3 C21.4472717 2.89345111 21.4472717 2.89345111 10.9375 3.5625 C6.89463315 4.01170743 3.95224581 3.75681303 0 3 C-0.0825 4.216875 -0.165 5.43375 -0.25 6.6875 C-0.73758372 10.78465871 -2.09510536 13.00139908 -5 16 C-4.62775172 11.62608267 -3.7938568 8.24784469 -1.953125 4.24609375 C-1.58864258 3.44743896 -1.22416016 2.64878418 -0.84863281 1.82592773 C-0.56858398 1.22337158 -0.28853516 0.62081543 0 0 Z " fill="#CD1318" transform="translate(336,110)"/>
<path d="M0 0 C1.62449285 0.00125776 3.24935249 0.04597313 4.87182617 0.12695312 C5.73039719 0.13827271 6.5889682 0.14959229 7.47355652 0.16125488 C10.20627477 0.20591563 12.93367374 0.30623999 15.66479492 0.40820312 C17.52083872 0.4483443 19.37696509 0.48484399 21.2331543 0.51757812 C25.77490614 0.60561514 30.31270008 0.74357593 34.85229492 0.90820312 C35.34729492 2.39320312 35.34729492 2.39320312 35.85229492 3.90820312 C34.86229492 4.89820312 33.87229492 5.88820313 32.85229492 6.90820312 C33.18229492 5.25820312 33.51229492 3.60820313 33.85229492 1.90820312 C28.57229492 1.90820312 23.29229492 1.90820312 17.85229492 1.90820312 C17.85229492 2.56820312 17.85229492 3.22820312 17.85229492 3.90820312 C10.26229492 3.90820312 2.67229492 3.90820312 -5.14770508 3.90820312 C-5.14770508 5.88820313 -5.14770508 7.86820312 -5.14770508 9.90820312 C-6.24145508 12.68164062 -6.24145508 12.68164062 -7.64770508 15.28320312 C-8.11176758 16.1571875 -8.57583008 17.03117187 -9.05395508 17.93164062 C-9.41489258 18.58390625 -9.77583008 19.23617187 -10.14770508 19.90820312 C-11.13770508 19.90820312 -12.12770508 19.90820312 -13.14770508 19.90820312 C-13.31718086 21.32453648 -13.48316015 22.74128845 -13.64770508 24.15820312 C-13.74051758 24.94710937 -13.83333008 25.73601562 -13.92895508 26.54882812 C-14.20925127 29.17710709 -14.20925127 29.17710709 -14.14770508 32.90820312 C-19.77270508 35.90820312 -19.77270508 35.90820312 -23.14770508 35.90820312 C-22.81770508 34.91820312 -22.48770508 33.92820313 -22.14770508 32.90820312 C-21.81770508 33.23820312 -21.48770508 33.56820312 -21.14770508 33.90820312 C-20.81037354 33.19277344 -20.47304199 32.47734375 -20.12548828 31.74023438 C-18.57549432 28.46045245 -17.01791594 25.18432656 -15.46020508 21.90820312 C-14.92975586 20.78285156 -14.39930664 19.6575 -13.8527832 18.49804688 C-13.06484375 16.84482422 -13.06484375 16.84482422 -12.26098633 15.15820312 C-11.78443604 14.15273437 -11.30788574 13.14726563 -10.81689453 12.11132812 C-10.26606201 11.05429688 -9.71522949 9.99726562 -9.14770508 8.90820312 C-8.82086227 8.20119263 -8.49401947 7.49418213 -8.15727234 6.76574707 C-6.07155893 2.74339746 -4.69795953 0.46472686 0 0 Z " fill="#CB151D" transform="translate(288.147705078125,109.091796875)"/>
<path d="M0 0 C0.99 0.33 1.98 0.66 3 1 C3 1.99 3 2.98 3 4 C3.63446045 4.21462891 4.2689209 4.42925781 4.92260742 4.65039062 C7 6 7 6 7.8215332 8.45898438 C8.92847748 16.7853842 9.28071192 24.99286743 9.20581055 33.37792969 C9.18727989 35.52550896 9.1853036 37.67266066 9.18554688 39.8203125 C9.14523288 51.1791693 9.14523288 51.1791693 8 56 C10.9528472 57.4764236 13.68448983 57.22272939 16.9765625 57.31640625 C17.66181 57.33718735 18.3470575 57.35796844 19.05307007 57.37937927 C21.24361069 57.44480185 23.43427189 57.50372554 25.625 57.5625 C27.1093875 57.60569218 28.59376278 57.6493067 30.078125 57.69335938 C33.71862084 57.80047553 37.35925251 57.90176362 41 58 C41 58.33 41 58.66 41 59 C29.45 59 17.9 59 6 59 C5.02740735 55.10962942 4.89970649 52.12472148 4.9375 48.13671875 C4.94128662 47.46768021 4.94507324 46.79864166 4.94897461 46.10932922 C4.96513736 43.26738597 4.99280496 40.42559116 5.02050781 37.58374023 C5.08801208 29.99572784 5.06914866 22.41459508 4.75 14.83203125 C4.70359375 13.66003174 4.6571875 12.48803223 4.609375 11.28051758 C3.88978929 7.40669018 2.2894857 5.16263831 0 2 C0 1.34 0 0.68 0 0 Z " fill="#C9171D" transform="translate(244,167)"/>
<path d="M0 0 C2.05022003 3.3971886 2.26479529 6.05350047 2.30297852 9.99023438 C2.31962051 11.19828735 2.33626251 12.40634033 2.35340881 13.65100098 C2.36182297 14.95210815 2.37023712 16.25321533 2.37890625 17.59375 C2.39509038 18.94609772 2.41227134 20.29843385 2.43040466 21.65075684 C2.47603486 25.20671211 2.51086498 28.76268317 2.54260254 32.31878662 C2.59452225 38.0103658 2.65978137 43.70177352 2.73081779 49.3931427 C2.75358662 51.37838137 2.76961022 53.36369368 2.78553772 55.34899902 C2.79902756 56.557052 2.8125174 57.76510498 2.82641602 59.00976562 C2.83592789 60.07247681 2.84543976 61.13518799 2.85523987 62.23010254 C2.92374535 65.23777065 2.92374535 65.23777065 4 69 C14.23 69.33 24.46 69.66 35 70 C35 70.33 35 70.66 35 71 C23.78 71 12.56 71 1 71 C-0.43872134 68.12255732 -0.11937153 65.65434078 -0.11352539 62.43896484 C-0.11367142 61.76567642 -0.11381744 61.092388 -0.1139679 60.3986969 C-0.11327027 58.16941119 -0.10548489 55.94020865 -0.09765625 53.7109375 C-0.09579154 52.16679937 -0.09436789 50.62266066 -0.09336853 49.07852173 C-0.08954754 45.01129528 -0.07972082 40.94410445 -0.06866455 36.87689209 C-0.05844144 32.7278288 -0.05386898 28.57875975 -0.04882812 24.4296875 C-0.03809819 16.28644197 -0.02102677 8.14322542 0 0 Z " fill="#C31A11" transform="translate(334,155)"/>
<path d="M0 0 C0 0.33 0 0.66 0 1 C-6.75 1.125 -6.75 1.125 -9 0 C-10.86326754 -0.07306932 -12.72916991 -0.08362174 -14.59375 -0.0625 C-15.70621094 -0.05476563 -16.81867188 -0.04703125 -17.96484375 -0.0390625 C-19.71474609 -0.01972656 -19.71474609 -0.01972656 -21.5 0 C-23.80203707 0.02543687 -26.10412804 0.04649452 -28.40625 0.0625 C-29.43041016 0.07410156 -30.45457031 0.08570312 -31.50976562 0.09765625 C-34 0 -34 0 -36 -1 C-36.33 -0.01 -36.66 0.98 -37 2 C-37.99 2 -38.98 2 -40 2 C-40 2.66 -40 3.32 -40 4 C-40.969375 3.979375 -41.93875 3.95875 -42.9375 3.9375 C-45.87465895 3.64381501 -45.87465895 3.64381501 -47 5 C-48.66617115 5.04063832 -50.33388095 5.042721 -52 5 C-39.93428092 -8.31782201 -14.9401715 -5.91271805 0 0 Z " fill="#C71D1E" transform="translate(186,114)"/>
<path d="M0 0 C6.19015379 3.24300337 10.54988026 8.33990174 13.125 14.8125 C14.59326209 19.97393667 14.36071874 25.29697372 13.125 30.5 C12.135 30.995 12.135 30.995 11.125 31.5 C11.125 25.56 11.125 19.62 11.125 13.5 C10.135 13.17 9.145 12.84 8.125 12.5 C5.4375 10.0625 5.4375 10.0625 3.125 7.5 C3.125 6.84 3.125 6.18 3.125 5.5 C2.465 5.5 1.805 5.5 1.125 5.5 C0.795 4.18 0.465 2.86 0.125 1.5 C-6.145 1.17 -12.415 0.84 -18.875 0.5 C-18.875 1.16 -18.875 1.82 -18.875 2.5 C-19.535 2.5 -20.195 2.5 -20.875 2.5 C-20.875 3.16 -20.875 3.82 -20.875 4.5 C-22.298125 4.9640625 -22.298125 4.9640625 -23.75 5.4375 C-26.73580408 6.37394742 -26.73580408 6.37394742 -28.875 7.5 C-27.06917787 3.16602689 -24.72082911 1.61254477 -20.63671875 -0.51171875 C-13.97631962 -2.89514305 -6.58310785 -2.50517585 0 0 Z " fill="#C8212C" transform="translate(581.875,87.5)"/>
<path d="M0 0 C0.45375 0.61875 0.9075 1.2375 1.375 1.875 C2.97108919 4.05919833 2.97108919 4.05919833 5 6 C3 9 3 9 1.4375 10.3125 C-1.16227696 13.36441209 -1 17.13294078 -1 21 C0.98 20.34 2.96 19.68 5 19 C6.25 25.625 6.25 25.625 4 29 C3.67 28.34 3.34 27.68 3 27 C0.7039415 26.19637952 -1.61640867 25.59442431 -3.96875 24.9765625 C-6 24 -6 24 -6.71655273 22.23681641 C-7.06682471 19.47265463 -6.52040541 17.84532007 -5.56640625 15.234375 C-5.24736328 14.34492188 -4.92832031 13.45546875 -4.59960938 12.5390625 C-4.25736328 11.61867187 -3.91511719 10.69828125 -3.5625 9.75 C-3.22412109 8.81414062 -2.88574219 7.87828125 -2.53710938 6.9140625 C-1.70092178 4.60571366 -0.85495944 2.30144809 0 0 Z " fill="#E71B21" transform="translate(330,126)"/>
<path d="M0 0 C13.53 0 27.06 0 41 0 C40.13939979 5.16360126 39.42190508 7.54050604 36.9375 11.875 C36.38964844 12.84179688 35.84179688 13.80859375 35.27734375 14.8046875 C34.85582031 15.52914062 34.43429687 16.25359375 34 17 C32.95550089 13.86650268 33.06576355 13.01031744 34 10 C34.66 10 35.32 10 36 10 C36.33 7.69 36.66 5.38 37 3 C36.01 3.33 35.02 3.66 34 4 C33.34 3.67 32.68 3.34 32 3 C29.59161322 2.91360131 27.21266119 2.88432236 24.8046875 2.90234375 C24.09724396 2.9037587 23.38980042 2.90517365 22.66091919 2.90663147 C20.39890331 2.912234 18.13698602 2.92478682 15.875 2.9375 C14.34244935 2.94251468 12.80989714 2.94707764 11.27734375 2.95117188 C7.51819112 2.96220423 3.75911228 2.97947048 0 3 C0 3.99 0 4.98 0 6 C-0.66 6 -1.32 6 -2 6 C-1.34 4.02 -0.68 2.04 0 0 Z " fill="#D2131B" transform="translate(385,110)"/>
<path d="M0 0 C0.66 0 1.32 0 2 0 C3.48131672 2.96263344 3.18327691 5.98857928 3.203125 9.23828125 C3.20882507 9.95606247 3.21452515 10.67384369 3.22039795 11.41337585 C3.22984952 12.93401617 3.23638256 14.45467699 3.24023438 15.9753418 C3.24991925 18.29317389 3.2809308 20.61011125 3.3125 22.92773438 C3.31903237 24.40624474 3.32428192 25.88476145 3.328125 27.36328125 C3.3404718 28.05303543 3.3528186 28.74278961 3.36553955 29.45344543 C3.34558481 33.80100136 2.72816556 36.57947713 0 40 C-3.1875 41.3125 -3.1875 41.3125 -6 42 C-5.67 41.34 -5.34 40.68 -5 40 C-4.34 40 -3.68 40 -3 40 C-0.87664226 35.66015479 -0.65999745 31.59850192 -0.5859375 26.85546875 C-0.56657135 26.08568192 -0.5472052 25.31589508 -0.5272522 24.52278137 C-0.46774377 22.07779829 -0.42118705 19.63276738 -0.375 17.1875 C-0.33679369 15.52406866 -0.29774043 13.86065653 -0.2578125 12.19726562 C-0.16206617 8.13166759 -0.07792991 4.06597699 0 0 Z " fill="#EF1E23" transform="translate(54,150)"/>
<path d="M0 0 C0.66 0.33 1.32 0.66 2 1 C1.5359375 1.7734375 1.5359375 1.7734375 1.0625 2.5625 C-0.29059287 5.66665423 -0.61359424 8.65115007 -1 12 C-0.34 11.67 0.32 11.34 1 11 C7.53333333 10.76666667 7.53333333 10.76666667 10 12 C8.54883901 19.99623987 6.52348073 27.79090563 4.375 35.625 C3.88773437 37.41744141 3.88773437 37.41744141 3.390625 39.24609375 C2.59671391 42.16488453 1.79978098 45.08281325 1 48 C0.67 48 0.34 48 0 48 C-0.39451406 39.97821413 0.89107795 32.87311631 4.09375 25.47265625 C5.05415628 22.8522374 5.2077868 20.96085786 5.125 18.1875 C5.10695313 17.39730469 5.08890625 16.60710937 5.0703125 15.79296875 C5.04710937 15.20128906 5.02390625 14.60960937 5 14 C2.69 14 0.38 14 -2 14 C-2.05437607 12.41705218 -2.09296271 10.83355744 -2.125 9.25 C-2.14820313 8.36828125 -2.17140625 7.4865625 -2.1953125 6.578125 C-1.99139502 3.8864142 -1.36551721 2.30095026 0 0 Z " fill="#C3161A" transform="translate(287,170)"/>
<path d="M0 0 C1.14982602 4.09003859 1.11094256 8.03177051 1.0625 12.25 C1.05798828 12.99507812 1.05347656 13.74015625 1.04882812 14.5078125 C1.03709246 16.3385764 1.0191585 18.16929873 1 20 C1.66 20 2.32 20 3 20 C3 21.32 3 22.64 3 24 C3.99 24 4.98 24 6 24 C6 29.28 6 34.56 6 40 C6.66 40 7.32 40 8 40 C8 41.32 8 42.64 8 44 C8.66 44 9.32 44 10 44 C10 44.66 10 45.32 10 46 C10.99 46 11.98 46 13 46 C13.66 47.65 14.32 49.3 15 51 C12 51 12 51 10.53076172 49.55541992 C6.96931836 44.69981662 4.23502016 39.95524185 2.125 34.3125 C1.82400391 33.508125 1.52300781 32.70375 1.21289062 31.875 C-2.04009728 22.27094047 -3.25965838 9.77897514 0 0 Z " fill="#CC1C26" transform="translate(425,156)"/>
<path d="M0 0 C2.55343705 -0.2780675 4.82798977 -0.37279854 7.375 -0.3125 C8.04789063 -0.31572266 8.72078125 -0.31894531 9.4140625 -0.32226562 C13.09653854 -0.2823963 15.87193292 -0.01319189 19 2 C18.01 2.495 18.01 2.495 17 3 C16.01 2.67 15.02 2.34 14 2 C12.10529184 1.9314505 10.2083166 1.91519628 8.3125 1.9375 C7.31863281 1.94652344 6.32476563 1.95554687 5.30078125 1.96484375 C4.54152344 1.97644531 3.78226563 1.98804687 3 2 C3.69867187 2.04898438 4.39734375 2.09796875 5.1171875 2.1484375 C6.02726563 2.22320312 6.93734375 2.29796875 7.875 2.375 C8.77992188 2.44460937 9.68484375 2.51421875 10.6171875 2.5859375 C13 3 13 3 15 5 C8.07 4.505 8.07 4.505 1 4 C1 11.59 1 19.18 1 27 C2.32 27 3.64 27 5 27 C5.66 25.68 6.32 24.36 7 23 C7.33 23 7.66 23 8 23 C8.042721 24.66611905 8.04063832 26.33382885 8 28 C7 29 7 29 3.5 29.125 C0 29 0 29 -1 28 C-1.41287998 23.88820862 -1.51701218 19.75307853 -1.6875 15.625 C-1.74744141 14.46226563 -1.80738281 13.29953125 -1.86914062 12.1015625 C-1.91619141 10.9878125 -1.96324219 9.8740625 -2.01171875 8.7265625 C-2.08072388 7.18863037 -2.08072388 7.18863037 -2.15112305 5.61962891 C-2 3 -2 3 0 0 Z " fill="#BE1E24" transform="translate(562,93)"/>
<path d="M0 0 C0.66 0.33 1.32 0.66 2 1 C1.84144531 1.71414062 1.68289063 2.42828125 1.51953125 3.1640625 C0.39265955 9.31525688 -0.21235581 15.61411942 3 21.1875 C3.66 22.115625 4.32 23.04375 5 24 C4.01 24 3.02 24 2 24 C2 23.34 2 22.68 2 22 C1.34 22 0.68 22 0 22 C-2.1519437 18.77208445 -2.20086443 17.71599191 -2 14 C-2.99 14 -3.98 14 -5 14 C-4.34 17.63 -3.68 21.26 -3 25 C-6.60272364 21.39727636 -7.8239296 19.01704181 -8.265625 13.95703125 C-8.26046875 12.91933594 -8.2553125 11.88164063 -8.25 10.8125 C-8.25515625 9.76707031 -8.2603125 8.72164062 -8.265625 7.64453125 C-8 5 -8 5 -6 3 C-6 5.64 -6 8.28 -6 11 C-5.34 10.67 -4.68 10.34 -4 10 C-3.67 9.01 -3.34 8.02 -3 7 C-2.34 7 -1.68 7 -1 7 C-0.67 4.69 -0.34 2.38 0 0 Z " fill="#C52227" transform="translate(555,99)"/>
<path d="M0 0 C11.88 0 23.76 0 36 0 C36 1.65 36 3.3 36 5 C35.34 5 34.68 5 34 5 C34 4.01 34 3.02 34 2 C17.665 2.495 17.665 2.495 1 3 C0.34 4.98 -0.32 6.96 -1 9 C-1.66 9 -2.32 9 -3 9 C-2.01 6.03 -1.02 3.06 0 0 Z " fill="#B41E1D" transform="translate(31,105)"/>
<path d="M0 0 C1.8692711 4.92162518 -0.40522235 8.83798732 -2.27734375 13.46875 C-6.20172652 21.51328973 -11.70141755 28.75999209 -19 34 C-19.495 32.515 -19.495 32.515 -20 31 C-19.195625 30.731875 -18.39125 30.46375 -17.5625 30.1875 C-16.716875 29.795625 -15.87125 29.40375 -15 29 C-14.67 28.01 -14.34 27.02 -14 26 C-12.5625 23.3125 -12.5625 23.3125 -11 21 C-10.34 21 -9.68 21 -9 21 C-8.67 19.35 -8.34 17.7 -8 16 C-7.01 15.67 -6.02 15.34 -5 15 C-4.93941406 14.30132812 -4.87882813 13.60265625 -4.81640625 12.8828125 C-4.73261719 11.97273437 -4.64882812 11.06265625 -4.5625 10.125 C-4.48128906 9.22007812 -4.40007812 8.31515625 -4.31640625 7.3828125 C-4 5 -4 5 -3 3 C-2.01 3 -1.02 3 0 3 C0 2.01 0 1.02 0 0 Z " fill="#C6141A" transform="translate(220,182)"/>
<path d="M0 0 C0.66 0 1.32 0 2 0 C2 0.66 2 1.32 2 2 C2.66 2 3.32 2 4 2 C4 2.99 4 3.98 4 5 C4.66 5 5.32 5 6 5 C6.66 6.32 7.32 7.64 8 9 C26.315 9.495 26.315 9.495 45 10 C44.67 6.7 44.34 3.4 44 0 C45.72046505 2.2939534 47.4094295 4.61414424 49 7 C48.625 9.1875 48.625 9.1875 48 11 C42.23429185 11.12363784 36.46935578 11.21435706 30.70263672 11.2746582 C28.74123697 11.29979604 26.77993084 11.33391165 24.81884766 11.37719727 C21.99878856 11.43788208 19.17996806 11.46621641 16.359375 11.48828125 C15.48319519 11.51408768 14.60701538 11.5398941 13.70428467 11.56648254 C7.60655569 11.56928901 7.60655569 11.56928901 4.52441406 8.67651367 C2.90255105 5.8289025 1.38222243 2.97177822 0 0 Z " fill="#B81924" transform="translate(383,215)"/>
<path d="M0 0 C5.48083637 -0.1483981 10.96050242 -0.25723763 16.44287109 -0.32958984 C18.30733611 -0.35975078 20.17165937 -0.40068691 22.03564453 -0.45263672 C24.71682678 -0.52548717 27.39613323 -0.55946118 30.078125 -0.5859375 C31.32677338 -0.63238907 31.32677338 -0.63238907 32.60064697 -0.67977905 C34.88731997 -0.68110676 36.79859242 -0.62168118 39 0 C43 4.55364643 43 4.55364643 43 8 C42.34 8 41.68 8 41 8 C41 7.34 41 6.68 41 6 C40.34 6 39.68 6 39 6 C38.505 3.525 38.505 3.525 38 1 C26.12 1 14.24 1 2 1 C2.33 2.98 2.66 4.96 3 7 C3.66 7 4.32 7 5 7 C8.22265625 12.17578125 8.22265625 12.17578125 9 14 C8.67 14.99 8.34 15.98 8 17 C6.65546882 14.92317952 5.32444163 12.83957514 4 10.75 C3.6184375 10.16347656 3.236875 9.57695313 2.84375 8.97265625 C0.72252389 5.6014219 0 4.09419282 0 0 Z " fill="#BD1E22" transform="translate(212,110)"/>
<path d="M0 0 C0.556875 0.721875 1.11375 1.44375 1.6875 2.1875 C6.53393348 8.13031106 6.53393348 8.13031106 13 12 C15.68416737 12.278156 15.68416737 12.278156 18.5 12.1875 C19.4384375 12.18105469 20.376875 12.17460937 21.34375 12.16796875 C23.70620585 12.01857816 25.73716665 11.66710889 28 11 C27 14 27 14 25 15 C22.75344413 15.14977039 20.50136232 15.22150174 18.25 15.25 C17.03828125 15.27578125 15.8265625 15.3015625 14.578125 15.328125 C10.68763501 14.97135518 8.30042737 14.05657261 5 12 C4.125 9.8125 4.125 9.8125 4 8 C2.68 8 1.36 8 0 8 C0 5.36 0 2.72 0 0 Z " fill="#C8191C" transform="translate(465,174)"/>
<path d="M0 0 C0.33 0 0.66 0 1 0 C1 4.62 1 9.24 1 14 C0.34 14 -0.32 14 -1 14 C-1 15.98 -1 17.96 -1 20 C-0.34 19.34 0.32 18.68 1 18 C2.32392972 16.98758315 3.65599167 15.98560611 5 15 C4.49477778 19.37859255 1.82172778 21.81651224 -1 25 C-4 21.25 -4 21.25 -4 19 C-4.66 18.67 -5.32 18.34 -6 18 C-5.360625 17.195625 -4.72125 16.39125 -4.0625 15.5625 C-1.76022808 12.15773167 -1.4201432 9.09322612 -1.17578125 5.05078125 C-1 3 -1 3 0 0 Z " fill="#CB1F25" transform="translate(588,104)"/>
<path d="M0 0 C1 4 1 4 0 14 C16.335 14.495 16.335 14.495 33 15 C31 17 31 17 27.65185547 17.13525391 C26.22328097 17.09291058 24.79501414 17.03924547 23.3671875 16.9765625 C22.61535187 16.95153656 21.86351624 16.92651062 21.08889771 16.90072632 C18.68381161 16.81844911 16.27953743 16.72189139 13.875 16.625 C12.24612709 16.5667682 10.6172207 16.50946475 8.98828125 16.453125 C4.99171918 16.31285922 0.99582746 16.15978257 -3 16 C-4.22302797 11.96134065 -3.49136428 9.73350043 -2.0625 5.75 C-1.68222656 4.67234375 -1.30195313 3.5946875 -0.91015625 2.484375 C-0.45962891 1.25460938 -0.45962891 1.25460938 0 0 Z " fill="#BD1A21" transform="translate(21,134)"/>
<path d="M0 0 C-6.75 0.125 -6.75 0.125 -9 -1 C-10.8863912 -1.084915 -12.77578515 -1.107193 -14.6640625 -1.09765625 C-16.34628906 -1.09282227 -16.34628906 -1.09282227 -18.0625 -1.08789062 C-19.8259375 -1.07532227 -19.8259375 -1.07532227 -21.625 -1.0625 C-22.80835938 -1.05798828 -23.99171875 -1.05347656 -25.2109375 -1.04882812 C-28.14067507 -1.03701467 -31.07031272 -1.02054258 -34 -1 C-32.68 -1.33 -31.36 -1.66 -30 -2 C-30 -2.66 -30 -3.32 -30 -4 C-6.47761194 -6.47761194 -6.47761194 -6.47761194 0 0 Z " fill="#E0161B" transform="translate(186,115)"/>
<path d="M0 0 C1.24210545 0.64223765 2.4772869 1.2995149 3.6875 2 C2.3675 2.33 1.0475 2.66 -0.3125 3 C-0.3125 2.34 -0.3125 1.68 -0.3125 1 C-6.5825 0.67 -12.8525 0.34 -19.3125 0 C-19.3125 0.66 -19.3125 1.32 -19.3125 2 C-19.9725 2 -20.6325 2 -21.3125 2 C-21.3125 2.66 -21.3125 3.32 -21.3125 4 C-22.735625 4.4640625 -22.735625 4.4640625 -24.1875 4.9375 C-27.17330408 5.87394742 -27.17330408 5.87394742 -29.3125 7 C-27.50667787 2.66602689 -25.15832911 1.11254477 -21.07421875 -1.01171875 C-14.08414467 -3.51311725 -6.74054422 -2.96159345 0 0 Z " fill="#BD1D25" transform="translate(582.3125,88)"/>
<path d="M0 0 C4.07020359 1.35673453 4.99734015 3.98533028 6.9375 7.5625 C7.28941406 8.19639648 7.64132812 8.83029297 8.00390625 9.48339844 C15 22.16057943 15 22.16057943 15 25 C14.34 25 13.68 25 13 25 C13 24.01 13 23.02 13 22 C12.34 22 11.68 22 11 22 C8.63785462 19.35153397 7.12827868 17.38483604 6 14 C6.33 13.01 6.66 12.02 7 11 C6.01 10.67 5.02 10.34 4 10 C2.8125 6.9375 2.8125 6.9375 2 4 C1.34 4 0.68 4 0 4 C0 2.68 0 1.36 0 0 Z " fill="#C61A22" transform="translate(398,165)"/>
<path d="M0 0 C1.0051958 3.01558739 0.99128683 4.63814268 0.8125 7.75 C0.78116681 13.12364243 1.68313702 15.74761156 5 20 C9.18660174 23.30575732 13.88207001 24.74662939 19 26 C19 26.33 19 26.66 19 27 C14.05 27.495 14.05 27.495 9 28 C8.67 27.01 8.34 26.02 8 25 C7.360625 24.87625 6.72125 24.7525 6.0625 24.625 C5.0415625 24.315625 5.0415625 24.315625 4 24 C2.875 21.5 2.875 21.5 2 19 C1.34 18.67 0.68 18.34 0 18 C-1.2202704 14.67901093 -1.13361337 11.38064325 -1.125 7.875 C-1.12886719 6.29332031 -1.12886719 6.29332031 -1.1328125 4.6796875 C-1 2 -1 2 0 0 Z " fill="#C01C26" transform="translate(146,162)"/>
<path d="M0 0 C2.953125 2.640625 2.953125 2.640625 3.375 5.875 C2.96268104 9.31099136 1.97801861 11.19780697 0 14 C-3.3 13.34 -6.6 12.68 -10 12 C-9.67 9.36 -9.34 6.72 -9 4 C-7.02 4.495 -7.02 4.495 -5 5 C-4.87625 5.804375 -4.7525 6.60875 -4.625 7.4375 C-4.315625 8.7059375 -4.315625 8.7059375 -4 10 C-3.34 10.33 -2.68 10.66 -2 11 C-1.67 10.67 -1.34 10.34 -1 10 C-0.67 9.67 -0.34 9.34 0 9 C0.07179964 7.48071962 0.08392007 5.95832518 0.0625 4.4375 C0.05347656 3.61121094 0.04445313 2.78492187 0.03515625 1.93359375 C0.02355469 1.29550781 0.01195312 0.65742187 0 0 Z M-8 5 C-7.67 6.32 -7.34 7.64 -7 9 C-7 7.68 -7 6.36 -7 5 C-7.33 5 -7.66 5 -8 5 Z " fill="#DB141E" transform="translate(578,98)"/>
<path d="M0 0 C3.20541395 3.20541395 2.42442343 6.95042982 2.44921875 11.31079102 C2.35858254 15.21900565 2.07270072 17.92751304 -0.5 20.9375 C-1.7375 21.9584375 -1.7375 21.9584375 -3 23 C-3.66 22.34 -4.32 21.68 -5 21 C-4.625 18.375 -4.625 18.375 -4 16 C-3.34 16 -2.68 16 -2 16 C-2 14.35 -2 12.7 -2 11 C-1.34 11.33 -0.68 11.66 0 12 C-0.185625 11.505 -0.37125 11.01 -0.5625 10.5 C-1.20139296 6.84918311 -0.54905291 3.66035276 0 0 Z " fill="#E8171F" transform="translate(591,102)"/>
<path d="M0 0 C0.66 0 1.32 0 2 0 C1.690625 0.9075 1.38125 1.815 1.0625 2.75 C-0.024447 5.79922784 -0.024447 5.79922784 -0.375 8.25 C-1.25240316 10.70672884 -2.73228273 10.86614136 -5 12 C-5.80528889 14.05000871 -5.80528889 14.05000871 -6 16 C-8.64 16 -11.28 16 -14 16 C-14.33 15.01 -14.66 14.02 -15 13 C-13.948125 12.5875 -12.89625 12.175 -11.8125 11.75 C-5.7703353 9.12562543 -2.63910262 6.11160607 0 0 Z " fill="#CC1A25" transform="translate(181,174)"/>
<path d="M0 0 C-0.61262631 2.82080379 -1.47154809 5.13808856 -2.84765625 7.671875 C-3.20537109 8.33574219 -3.56308594 8.99960938 -3.93164062 9.68359375 C-4.30482422 10.36550781 -4.67800781 11.04742187 -5.0625 11.75 C-5.43955078 12.44738281 -5.81660156 13.14476562 -6.20507812 13.86328125 C-7.13273388 15.57768302 -8.06583454 17.28913661 -9 19 C-9.33 19 -9.66 19 -10 19 C-10.50544307 12.09227798 -7.8152583 6.63994705 -4 1 C-2 0 -2 0 0 0 Z " fill="#D8161C" transform="translate(417,128)"/>
<path d="M0 0 C0.45375 0.61875 0.9075 1.2375 1.375 1.875 C2.97108919 4.05919833 2.97108919 4.05919833 5 6 C3.40931644 8.38602535 1.98664367 10.01335633 0 12 C-0.33 12.66 -0.66 13.32 -1 14 C-1.66 14 -2.32 14 -3 14 C-3 15.32 -3 16.64 -3 18 C-3.66 18 -4.32 18 -5 18 C-3.75971762 11.82777121 -2.10396411 5.93317878 0 0 Z " fill="#DB1419" transform="translate(330,126)"/>
<path d="M0 0 C0.66 0 1.32 0 2 0 C-0.41926392 6.32730565 -3.57051941 12.12012666 -7.125 17.875 C-7.48464844 18.46796875 -7.84429687 19.0609375 -8.21484375 19.671875 C-9.11380102 21.13310142 -10.05325679 22.56927147 -11 24 C-11.33 24 -11.66 24 -12 24 C-12.3636198 19.75776898 -11.5393228 17.41831915 -9 14 C-8.34 14 -7.68 14 -7 14 C-6.690625 13.21625 -6.38125 12.4325 -6.0625 11.625 C-5 9 -5 9 -4 7 C-3.34 7 -2.68 7 -2 7 C-2 5.35 -2 3.7 -2 2 C-1.34 2 -0.68 2 0 2 C0 1.34 0 0.68 0 0 Z " fill="#D0191E" transform="translate(319,116)"/>
<path d="M0 0 C0.99 0.33 1.98 0.66 3 1 C3.73046875 2.84765625 3.73046875 2.84765625 4.1875 5.0625 C4.34605469 5.79597656 4.50460937 6.52945313 4.66796875 7.28515625 C4.83232422 8.13400391 4.83232422 8.13400391 5 9 C5.66 9 6.32 9 7 9 C7.33 10.65 7.66 12.3 8 14 C7.34 14 6.68 14 6 14 C6 13.34 6 12.68 6 12 C5.01 12 4.02 12 3 12 C2.67 12.66 2.34 13.32 2 14 C1.2721926 11.10861969 0.5562994 8.21521928 -0.125 5.3125 C-0.31320312 4.52488281 -0.50140625 3.73726563 -0.6953125 2.92578125 C-0.79585937 2.29027344 -0.89640625 1.65476562 -1 1 C-0.67 0.67 -0.34 0.34 0 0 Z " fill="#E7141D" transform="translate(550,112)"/>
<path d="M0 0 C1.875 0.125 1.875 0.125 4 1 C6.8936475 6.35324787 6.56174643 13.0686186 6 19 C4.984375 21.3671875 4.984375 21.3671875 4 23 C3.01 23 2.02 23 1 23 C1.33 22.030625 1.66 21.06125 2 20.0625 C4.06681975 12.70224262 3.45426635 6.76460493 0 0 Z " fill="#C41A21" transform="translate(497,158)"/>
<path d="M0 0 C0.33 0 0.66 0 1 0 C1.0741205 5.35682133 1.12858776 10.71334462 1.16479492 16.07055664 C1.1798876 17.89320067 1.20036395 19.71580836 1.22631836 21.53833008 C1.26268103 24.157155 1.27972124 26.77550007 1.29296875 29.39453125 C1.30845261 30.21025101 1.32393646 31.02597076 1.33988953 31.8664093 C1.34159221 37.58149034 1.34159221 37.58149034 -0.38456726 39.69633484 C-2.2324735 41.18760769 -3.68017421 41.60003004 -6 42 C-5.67 41.34 -5.34 40.68 -5 40 C-4.34 40 -3.68 40 -3 40 C-0.87664226 35.66015479 -0.65999745 31.59850192 -0.5859375 26.85546875 C-0.56657135 26.08568192 -0.5472052 25.31589508 -0.5272522 24.52278137 C-0.46774377 22.07779829 -0.42118705 19.63276738 -0.375 17.1875 C-0.33679369 15.52406866 -0.29774043 13.86065653 -0.2578125 12.19726562 C-0.16206617 8.13166759 -0.07792991 4.06597699 0 0 Z " fill="#C12122" transform="translate(54,150)"/>
<path d="M0 0 C5.52212598 0.60241374 12.67017998 3.11629041 16.4375 7.375 C16.6875 10.5625 16.6875 10.5625 16.4375 13.375 C15.7775 12.653125 15.1175 11.93125 14.4375 11.1875 C8.7565759 5.57058631 3.42634078 2.80297361 -4.5625 2.375 C-2.5625 0.375 -2.5625 0.375 0 0 Z " fill="#CB1A26" transform="translate(164.5625,148.625)"/>
<path d="M0 0 C0.66 0 1.32 0 2 0 C1.34 1.32 0.68 2.64 0 4 C-0.66 4 -1.32 4 -2 4 C-2 4.99 -2 5.98 -2 7 C-1.01 7 -0.02 7 1 7 C1.33 7.99 1.66 8.98 2 10 C0.02 9.34 -1.96 8.68 -4 8 C-4 7.34 -4 6.68 -4 6 C-4.67546875 6.02320313 -5.3509375 6.04640625 -6.046875 6.0703125 C-7.38492187 6.09738281 -7.38492187 6.09738281 -8.75 6.125 C-9.63171875 6.14820313 -10.5134375 6.17140625 -11.421875 6.1953125 C-14.1135858 5.99139502 -15.69904974 5.36551721 -18 4 C-16.865625 4.061875 -15.73125 4.12375 -14.5625 4.1875 C-9.69348829 4.20488933 -5.46114746 2.88402945 -1 1 C-0.67 0.67 -0.34 0.34 0 0 Z " fill="#E51017" transform="translate(494,146)"/>
<path d="M0 0 C0.33 0.99 0.66 1.98 1 3 C1.66 3 2.32 3 3 3 C3.33 3.99 3.66 4.98 4 6 C4.515625 6.495 5.03125 6.99 5.5625 7.5 C7 9 7 9 7 12 C7.99 12.33 8.98 12.66 10 13 C10.33 15.64 10.66 18.28 11 21 C7.54678751 17.77364542 5.54225258 14.02667613 3.25 9.9375 C2.82589844 9.20466797 2.40179688 8.47183594 1.96484375 7.71679688 C1.56910156 7.01490234 1.17335938 6.31300781 0.765625 5.58984375 C0.40243164 4.94909912 0.03923828 4.30835449 -0.33496094 3.64819336 C-0.55442383 3.10428955 -0.77388672 2.56038574 -1 2 C-0.67 1.34 -0.34 0.68 0 0 Z " fill="#D01924" transform="translate(372,193)"/>
<path d="M0 0 C0.66 0.33 1.32 0.66 2 1 C1.5359375 1.7734375 1.5359375 1.7734375 1.0625 2.5625 C-0.29059287 5.66665423 -0.61359424 8.65115007 -1 12 C-0.34 11.67 0.32 11.34 1 11 C4.5 10.8125 4.5 10.8125 8 11 C8.66 11.66 9.32 12.32 10 13 C9.01 14.485 9.01 14.485 8 16 C7.01 16 6.02 16 5 16 C5 15.34 5 14.68 5 14 C2.69 14 0.38 14 -2 14 C-2.05437607 12.41705218 -2.09296271 10.83355744 -2.125 9.25 C-2.14820313 8.36828125 -2.17140625 7.4865625 -2.1953125 6.578125 C-1.99139502 3.8864142 -1.36551721 2.30095026 0 0 Z " fill="#CA1B16" transform="translate(287,170)"/>
<path d="M0 0 C0.66 0 1.32 0 2 0 C2.66 1.98 3.32 3.96 4 6 C3.21625 6.70125 2.4325 7.4025 1.625 8.125 C-1.10316409 11.11298925 -1.8741956 13.18958511 -3 17 C-3.66 17.33 -4.32 17.66 -5 18 C-3.9007105 11.68878497 -2.41862058 5.93661416 0 0 Z " fill="#D8161B" transform="translate(27,116)"/>
<path d="M0 0 C12.21 0 24.42 0 37 0 C37 0.33 37 0.66 37 1 C26.11 1 15.22 1 4 1 C4 1.66 4 2.32 4 3 C2.68 3 1.36 3 0 3 C0 3.99 0 4.98 0 6 C-0.66 6 -1.32 6 -2 6 C-1.34 4.02 -0.68 2.04 0 0 Z " fill="#C01B22" transform="translate(385,110)"/>
<path d="M0 0 C0.33 0 0.66 0 1 0 C1.20086443 3.71599191 1.1519437 4.77208445 -1 8 C-1.99 8.33 -2.98 8.66 -4 9 C-4.33 9.99 -4.66 10.98 -5 12 C-5.66 12 -6.32 12 -7 12 C-7.12375 12.94875 -7.2475 13.8975 -7.375 14.875 C-8 18 -8 18 -10 20 C-11 17 -11 17 -9.9609375 14.51171875 C-7.0089615 9.25487479 -4.15392602 4.39129322 0 0 Z " fill="#BF1723" transform="translate(440,128)"/>
<path d="M0 0 C2.31 0 4.62 0 7 0 C1.48365961 5.51634039 -7.30979809 5.16977301 -14.63769531 5.20654297 C-19.09297468 5.17872422 -23.54610993 5.11492769 -28 5 C-28 4.67 -28 4.34 -28 4 C-27.37955811 3.98018066 -26.75911621 3.96036133 -26.11987305 3.93994141 C-23.30865463 3.84468155 -20.49817834 3.73500698 -17.6875 3.625 C-16.71103516 3.5940625 -15.73457031 3.563125 -14.72851562 3.53125 C-13.32182617 3.47324219 -13.32182617 3.47324219 -11.88671875 3.4140625 C-11.02264404 3.3826416 -10.15856934 3.3512207 -9.26831055 3.31884766 C-6.72257555 3.12811963 -6.72257555 3.12811963 -4 1 C-1.8125 1.375 -1.8125 1.375 0 2 C0 1.34 0 0.68 0 0 Z " fill="#BE191D" transform="translate(181,223)"/>
<path d="M0 0 C0.99 0 1.98 0 3 0 C3.50341475 5.2858549 2.26910671 7.86554151 -1 12 C-1.99 12.495 -1.99 12.495 -3 13 C-3.625 10.1875 -3.625 10.1875 -4 7 C-3.34 6.01 -2.68 5.02 -2 4 C-1.34 4 -0.68 4 0 4 C0 2.68 0 1.36 0 0 Z " fill="#D5151B" transform="translate(86,204)"/>
<path d="M0 0 C0.99 0 1.98 0 3 0 C3 0.99 3 1.98 3 3 C3.66 3 4.32 3 5 3 C5 3.66 5 4.32 5 5 C5.66 5 6.32 5 7 5 C7.33 5.99 7.66 6.98 8 8 C10.01508358 8.73323796 10.01508358 8.73323796 12 9 C12 10.32 12 11.64 12 13 C12.61875 13.309375 13.2375 13.61875 13.875 13.9375 C15.25 14.625 16.625 15.3125 18 16 C17.67 16.66 17.34 17.32 17 18 C2.49052841 7.47158524 2.49052841 7.47158524 0 0 Z " fill="#C61822" transform="translate(114,201)"/>
<path d="M0 0 C-1.77925221 6.47000805 -5.32439209 11.48658813 -9 17 C-8.41029674 11.45678937 -7.29366159 6.11409714 -5 1 C-3 0 -3 0 0 0 Z " fill="#CF171F" transform="translate(407,147)"/>
<path d="M0 0 C3.18970738 3.18970738 4.45161227 7.3204469 6.1875 11.4375 C6.56841797 12.30955078 6.94933594 13.18160156 7.34179688 14.08007812 C7.69693359 14.91861328 8.05207031 15.75714844 8.41796875 16.62109375 C8.74563232 17.3886499 9.0732959 18.15620605 9.41088867 18.94702148 C10 21 10 21 9 24 C3.76442039 16.59155138 1.18289312 8.98998769 0 0 Z " fill="#BE1D1D" transform="translate(255,118)"/>
<path d="M0 0 C0.99 1.32 1.98 2.64 3 4 C2.01 5.485 2.01 5.485 1 7 C-1.64 6.34 -4.28 5.68 -7 5 C-7.33 3.68 -7.66 2.36 -8 1 C-5.36 0.67 -2.72 0.34 0 0 Z " fill="#EA141D" transform="translate(568,126)"/>
<path d="M0 0 C0.99 0 1.98 0 3 0 C3 0.99 3 1.98 3 3 C4.98 2.67 6.96 2.34 9 2 C9.66 3.65 10.32 5.3 11 7 C12.32 7 13.64 7 15 7 C15 7.66 15 8.32 15 9 C8.95616788 7.42334814 3.99011142 5.80824293 -1 2 C-0.67 1.34 -0.34 0.68 0 0 Z " fill="#CC151C" transform="translate(449,216)"/>
<path d="M0 0 C8.89543642 -0.19865739 17.32910197 -0.33447255 26 2 C26 2.33 26 2.66 26 3 C21.38 3 16.76 3 12 3 C12 2.34 12 1.68 12 1 C8.04 1 4.08 1 0 1 C0 0.67 0 0.34 0 0 Z " fill="#BE1E1C" transform="translate(475,110)"/>
<path d="M0 0 C0.99 0.33 1.98 0.66 3 1 C2.67 2.98 2.34 4.96 2 7 C1.34 7 0.68 7 0 7 C-0.33 8.32 -0.66 9.64 -1 11 C-1.66 11 -2.32 11 -3 11 C-3.22025867 7.14547324 -2.64857946 4.49110944 -1 1 C-0.67 0.67 -0.34 0.34 0 0 Z " fill="#EB171B" transform="translate(552,99)"/>
<path d="M0 0 C0.66 0 1.32 0 2 0 C3.0625 1.8125 3.0625 1.8125 4 4 C3.67 4.99 3.34 5.98 3 7 C2.01 6.67 1.02 6.34 0 6 C0 6.66 0 7.32 0 8 C-2.9375 7.625 -2.9375 7.625 -6 7 C-6.33 6.34 -6.66 5.68 -7 5 C-5.02 4.67 -3.04 4.34 -1 4 C-0.67 2.68 -0.34 1.36 0 0 Z " fill="#F1151E" transform="translate(582,123)"/>
<path d="M0 0 C0.86625 0.391875 1.7325 0.78375 2.625 1.1875 C2.625 0.5275 2.625 -0.1325 2.625 -0.8125 C3.945 -0.4825 5.265 -0.1525 6.625 0.1875 C2.06172206 3.72036034 -1.87133208 3.51124517 -7.375 3.1875 C-7.375 3.8475 -7.375 4.5075 -7.375 5.1875 C-8.365 4.8575 -9.355 4.5275 -10.375 4.1875 C-8.23229427 -0.09791145 -4.39479715 -1.05800672 0 0 Z " fill="#DF1720" transform="translate(188.375,219.8125)"/>
<path d="M0 0 C-0.928125 0.680625 -1.85625 1.36125 -2.8125 2.0625 C-7.80996352 6.23491058 -9.23164612 11.69949816 -10 18 C-10.33 18 -10.66 18 -11 18 C-11.65643889 10.91045996 -9.85063835 5.98599234 -6 0 C-3.50907189 -1.24546405 -2.58919267 -0.7767578 0 0 Z " fill="#B91C1E" transform="translate(475,154)"/>
<path d="M0 0 C-3.25413668 3.93208182 -7.05951428 5.9145134 -12 7 C-12.99 6.67 -13.98 6.34 -15 6 C-13.35 5.67 -11.7 5.34 -10 5 C-10 4.01 -10 3.02 -10 2 C-6.42454167 -0.86036666 -4.36137826 -1.37071888 0 0 Z " fill="#D0181A" transform="translate(82,218)"/>
<path d="M0 0 C0.66 0 1.32 0 2 0 C2 1.32 2 2.64 2 4 C2.66 4 3.32 4 4 4 C4 5.32 4 6.64 4 8 C4.66 8 5.32 8 6 8 C6 8.66 6 9.32 6 10 C6.99 10 7.98 10 9 10 C9.66 11.65 10.32 13.3 11 15 C8 15 8 15 6.46484375 13.49609375 C3.1686765 9.05343354 1.13099643 5.42878287 0 0 Z " fill="#C81722" transform="translate(429,192)"/>
<path d="M0 0 C3.62206536 -0.20122585 5.88433995 0.10834925 9 2 C9.33 2.33 9.66 2.66 10 3 C11.84891946 3.23363881 13.70488031 3.41303635 15.5625 3.5625 C16.57441406 3.64628906 17.58632813 3.73007813 18.62890625 3.81640625 C19.80259766 3.90728516 19.80259766 3.90728516 21 4 C17.12085677 6.58609549 15.13419183 6.091677 10.65234375 5.55859375 C6.63796585 4.71315039 3.54788404 3.03674824 0 1 C0 0.67 0 0.34 0 0 Z " fill="#C11A25" transform="translate(557,129)"/>
<path d="M0 0 C3.39192363 0.59283621 5.2107757 1.76743189 7.75 4.0625 C8.67039062 4.88427734 8.67039062 4.88427734 9.609375 5.72265625 C10.29773438 6.35494141 10.29773438 6.35494141 11 7 C10.67 8.65 10.34 10.3 10 12 C7.72006402 9.87730098 6.01107334 8.01904614 4.4375 5.3125 C3.15227904 2.69589558 3.15227904 2.69589558 0 2 C0 1.34 0 0.68 0 0 Z " fill="#DC121B" transform="translate(577,92)"/>
<path d="M0 0 C0.33 0 0.66 0 1 0 C0.5978125 1.85625 0.5978125 1.85625 0.1875 3.75 C-0.17476807 5.92171907 -0.17476807 5.92171907 0 8 C2.28075185 10.56034753 2.28075185 10.56034753 5 12 C-1.75 12.125 -1.75 12.125 -4 11 C-3.52269162 9.5410574 -3.04308958 8.08286504 -2.5625 6.625 C-2.29566406 5.81289062 -2.02882813 5.00078125 -1.75390625 4.1640625 C-1 2 -1 2 0 0 Z " fill="#B61518" transform="translate(9,214)"/>
<path d="M0 0 C0.99 0 1.98 0 3 0 C1.64737628 4.74130209 -0.33354354 8.32288579 -3.125 12.375 C-3.84945313 13.43460938 -4.57390625 14.49421875 -5.3203125 15.5859375 C-5.87460937 16.38257813 -6.42890625 17.17921875 -7 18 C-7.5859375 16.09765625 -7.5859375 16.09765625 -8 14 C-6.625 12.4375 -6.625 12.4375 -5 11 C-4.67 10.01 -4.34 9.02 -4 8 C-3.34 8 -2.68 8 -2 8 C-1.34 5.36 -0.68 2.72 0 0 Z " fill="#BF1A1C" transform="translate(297,151)"/>
<path d="M0 0 C0.66 0 1.32 0 2 0 C2.66 2.31 3.32 4.62 4 7 C4.66 7 5.32 7 6 7 C6 7.99 6 8.98 6 10 C6.99 10.33 7.98 10.66 9 11 C9.73046875 12.84765625 9.73046875 12.84765625 10.1875 15.0625 C10.34605469 15.79597656 10.50460938 16.52945313 10.66796875 17.28515625 C10.77753906 17.85105469 10.88710937 18.41695312 11 19 C7.93424806 16.29208031 5.92968988 12.95335492 3.8125 9.5 C3.44447266 8.91863281 3.07644531 8.33726562 2.69726562 7.73828125 C0.96833215 4.93477874 0 3.35570548 0 0 Z " fill="#C11B27" transform="translate(221,127)"/>
<path d="M0 0 C1.27182008 2.54364016 0.82067275 3.24463053 0.00390625 5.9140625 C-0.33930664 7.05488281 -0.33930664 7.05488281 -0.68945312 8.21875 C-0.93630859 9.0128125 -1.18316406 9.806875 -1.4375 10.625 C-1.68048828 11.42679688 -1.92347656 12.22859375 -2.17382812 13.0546875 C-2.77604073 15.03844668 -3.38718689 17.01948982 -4 19 C-4.33 19 -4.66 19 -5 19 C-4.67 13.72 -4.34 8.44 -4 3 C-3.01 3 -2.02 3 -1 3 C-0.67 2.01 -0.34 1.02 0 0 Z " fill="#BE1E21" transform="translate(296,183)"/>
<path d="M0 0 C0.66 0.33 1.32 0.66 2 1 C2 2.65 2 4.3 2 6 C-0.64 6.66 -3.28 7.32 -6 8 C-4.73058503 4.08597051 -3.48832306 2.20927127 0 0 Z " fill="#D6181D" transform="translate(130,120)"/>
<path d="M0 0 C0.93423645 3.01031744 1.04449911 3.86650268 0 7 C-3.3 7 -6.6 7 -10 7 C-9.67 6.01 -9.34 5.02 -9 4 C-7.88625 3.896875 -6.7725 3.79375 -5.625 3.6875 C-4.42875 3.460625 -3.2325 3.23375 -2 3 C-1.34 2.01 -0.68 1.02 0 0 Z " fill="#D61621" transform="translate(286,218)"/>
<path d="M0 0 C4 4.5 4 4.5 4 9 C1.36 9 -1.28 9 -4 9 C-4.66 7.68 -5.32 6.36 -6 5 C-3.36 5.66 -0.72 6.32 2 7 C1.67 6.401875 1.34 5.80375 1 5.1875 C0 3 0 3 0 0 Z " fill="#C21C23" transform="translate(577,113)"/>
<path d="M0 0 C0.33 1.32 0.66 2.64 1 4 C0.01 4.33 -0.98 4.66 -2 5 C-2.33 6.65 -2.66 8.3 -3 10 C-6.10551666 10 -7.35261084 9.4606285 -10 8 C-8.6078125 7.6596875 -8.6078125 7.6596875 -7.1875 7.3125 C-3.46594147 5.78009354 -2.72303022 4.53674625 -1 1 C-0.67 0.67 -0.34 0.34 0 0 Z " fill="#E01822" transform="translate(496,181)"/>
<path d="M0 0 C2.31 0 4.62 0 7 0 C6.01 1.98 5.02 3.96 4 6 C3.34 6 2.68 6 2 6 C1.67 6.99 1.34 7.98 1 9 C0.67 9 0.34 9 0 9 C0 6.03 0 3.06 0 0 Z " fill="#DB1216" transform="translate(144,156)"/>
<path d="M0 0 C4.29 0 8.58 0 13 0 C12.67 1.65 12.34 3.3 12 5 C11.34 5 10.68 5 10 5 C10 4.34 10 3.68 10 3 C9.36191406 2.95101562 8.72382813 2.90203125 8.06640625 2.8515625 C7.24011719 2.77679688 6.41382813 2.70203125 5.5625 2.625 C4.73878906 2.55539063 3.91507812 2.48578125 3.06640625 2.4140625 C2.38449219 2.27742188 1.70257813 2.14078125 1 2 C0.67 1.34 0.34 0.68 0 0 Z " fill="#E5111C" transform="translate(309,111)"/>
<path d="M0 0 C2 3 2 3 2 5 C1.01 5 0.02 5 -1 5 C-1.66 7.64 -2.32 10.28 -3 13 C-3.66 13 -4.32 13 -5 13 C-5 13.66 -5 14.32 -5 15 C-5.66 15 -6.32 15 -7 15 C-5.63408831 11.45756548 -4.09068516 8.07372071 -2.375 4.6875 C-1.70597656 3.36298828 -1.70597656 3.36298828 -1.0234375 2.01171875 C-0.68570312 1.34785156 -0.34796875 0.68398437 0 0 Z " fill="#C0151B" transform="translate(382,116)"/>
<path d="M0 0 C1.3921875 0.2784375 1.3921875 0.2784375 2.8125 0.5625 C6.01343771 1.24123881 6.01343771 1.24123881 9 0 C10.32 1.65 11.64 3.3 13 5 C12.01 5.495 12.01 5.495 11 6 C8.90625 5.29296875 8.90625 5.29296875 6.5 4.1875 C5.7059375 3.83042969 4.911875 3.47335938 4.09375 3.10546875 C2 2 2 2 0 0 Z " fill="#CA171D" transform="translate(132,219)"/>
<path d="M0 0 C3.37503669 1.1858237 5.64722731 2.27573689 8 5 C7.34 6.32 6.68 7.64 6 9 C5.01 8.34 4.02 7.68 3 7 C3 6.01 3 5.02 3 4 C2.34 4 1.68 4 1 4 C0.67 2.68 0.34 1.36 0 0 Z " fill="#CC1A1F" transform="translate(514,119)"/>
<path d="M0 0 C2.64 0 5.28 0 8 0 C4.80009492 2.74277578 1.99500618 4.6302836 -2 6 C-1.34 4.02 -0.68 2.04 0 0 Z " fill="#CC181E" transform="translate(510,217)"/>
<path d="M0 0 C0.6875 1.625 0.6875 1.625 1 4 C-0.25 6.875 -0.25 6.875 -2 10 C-2.556875 11.11375 -3.11375 12.2275 -3.6875 13.375 C-4.120625 14.24125 -4.55375 15.1075 -5 16 C-6.24913556 12.25259333 -5.60145433 11.52319953 -4 8 C-3.47841477 6.75031356 -2.95760555 5.50030299 -2.4375 4.25 C-1 1 -1 1 0 0 Z " fill="#E11621" transform="translate(27,125)"/>
<path d="M0 0 C1.98 0 3.96 0 6 0 C5.67 0.78375 5.34 1.5675 5 2.375 C3.88133489 4.84332497 3.88133489 4.84332497 4 7 C2.68 7 1.36 7 0 7 C-1.125 2.25 -1.125 2.25 0 0 Z " fill="#E81115" transform="translate(132,119)"/>
<path d="M0 0 C2.97 0.495 2.97 0.495 6 1 C6 1.99 6 2.98 6 4 C6.66 4 7.32 4 8 4 C8.33 5.65 8.66 7.3 9 9 C1.33257403 3.9977221 1.33257403 3.9977221 0 0 Z " fill="#C81622" transform="translate(439,208)"/>
<path d="M0 0 C2.25 0 2.25 0 5 1 C7.05695657 3.99014453 9 7.313902 9 11 C8.34 11 7.68 11 7 11 C7 10.01 7 9.02 7 8 C6.34 8 5.68 8 5 8 C2.63785462 5.35153397 1.12827868 3.38483604 0 0 Z " fill="#D31523" transform="translate(404,179)"/>
<path d="M0 0 C1.65 0 3.3 0 5 0 C4.34 1.98 3.68 3.96 3 6 C1.35 6.33 -0.3 6.66 -2 7 C-1.34 4.69 -0.68 2.38 0 0 Z " fill="#D81925" transform="translate(16,196)"/>
<path d="M0 0 C0.33 0.66 0.66 1.32 1 2 C1.99 2 2.98 2 4 2 C4.66 3.65 5.32 5.3 6 7 C3.03 6.505 3.03 6.505 0 6 C-1.125 2.25 -1.125 2.25 0 0 Z " fill="#CC1C1F" transform="translate(324,144)"/>
<path d="M0 0 C5.28137429 0.51525603 8.57221156 2.25477117 13 5 C12.67 5.66 12.34 6.32 12 7 C10.02 6.34 8.04 5.68 6 5 C6 4.34 6 3.68 6 3 C3.03 2.505 3.03 2.505 0 2 C0 1.34 0 0.68 0 0 Z " fill="#BF1C1B" transform="translate(501,113)"/>
<path d="M0 0 C5.23880078 0.55145271 9.97350697 1.42922093 15 3 C15 3.33 15 3.66 15 4 C11.7 4.33 8.4 4.66 5 5 C4.67 4.01 4.34 3.02 4 2 C1.99983534 0.79117904 1.99983534 0.79117904 0 0 Z " fill="#CC1822" transform="translate(150,185)"/>
<path d="M0 0 C0.66 0.99 1.32 1.98 2 3 C1.34 3.928125 0.68 4.85625 0 5.8125 C-2.26574554 8.79636556 -2.26574554 8.79636556 -2 12 C-2.99 11.67 -3.98 11.34 -5 11 C-4.67 9.02 -4.34 7.04 -4 5 C-3.34 5 -2.68 5 -2 5 C-1.34 3.35 -0.68 1.7 0 0 Z " fill="#CB0D10" transform="translate(373,134)"/>
<path d="M0 0 C0.66 0.66 1.32 1.32 2 2 C1.02526874 3.66926454 0.04510211 5.33535642 -0.9375 7 C-1.48277344 7.928125 -2.02804687 8.85625 -2.58984375 9.8125 C-3.05519531 10.534375 -3.52054687 11.25625 -4 12 C-4.33 12 -4.66 12 -5 12 C-5.3636198 7.75776898 -4.5393228 5.41831915 -2 2 C-1.34 2 -0.68 2 0 2 C0 1.34 0 0.68 0 0 Z " fill="#C51417" transform="translate(312,128)"/>
<path d="M0 0 C0.66 0.33 1.32 0.66 2 1 C-0.35700047 4.79738964 -2.90552223 6.2939676 -7 8 C-7.99 8 -8.98 8 -10 8 C-8.89764064 7.03958829 -7.79303376 6.08175593 -6.6875 5.125 C-5.76517578 4.32449219 -5.76517578 4.32449219 -4.82421875 3.5078125 C-3 2 -3 2 0 0 Z " fill="#BF1A22" transform="translate(451,119)"/>
<path d="M0 0 C1.32 0 2.64 0 4 0 C3.56802365 4.7517398 2.67230705 6.92000054 -1 10 C-0.67 6.7 -0.34 3.4 0 0 Z " fill="#DF1521" transform="translate(374,131)"/>
<path d="M0 0 C2.79872437 2.52788007 4.45773019 4.20411134 5 8 C3.35 7.67 1.7 7.34 0 7 C-1.125 2.25 -1.125 2.25 0 0 Z " fill="#E0121A" transform="translate(522,124)"/>
<path d="M0 0 C2.49361571 1.20381448 4.68143083 2.45428722 7 4 C6.67 4.99 6.34 5.98 6 7 C0.25 5.375 0.25 5.375 -2 2 C-1.34 2 -0.68 2 0 2 C0 1.34 0 0.68 0 0 Z " fill="#D8171B" transform="translate(197,121)"/>
<path d="M0 0 C1.29221628 4.20893303 0.48195994 6.85051218 -1 11 C-2.625 13.4375 -2.625 13.4375 -4 15 C-3.43179252 9.54520815 -2.05362055 5.08940744 0 0 Z " fill="#BE1922" transform="translate(335,111)"/>
<path d="M0 0 C2.953125 2.640625 2.953125 2.640625 3.375 5.875 C2.96268104 9.31099136 1.97801861 11.19780697 0 14 C-0.5625 12.0625 -0.5625 12.0625 -1 10 C-0.67 9.67 -0.34 9.34 0 9 C0.07179964 7.48071962 0.08392007 5.95832518 0.0625 4.4375 C0.05347656 3.61121094 0.04445313 2.78492187 0.03515625 1.93359375 C0.02355469 1.29550781 0.01195312 0.65742187 0 0 Z " fill="#B72227" transform="translate(578,98)"/>
<path d="M0 0 C5 6.66666667 5 6.66666667 5 10 C3.68 10 2.36 10 1 10 C0.67 6.7 0.34 3.4 0 0 Z " fill="#C41E1F" transform="translate(427,215)"/>
<path d="M0 0 C-0.33 0.99 -0.66 1.98 -1 3 C-1.99 3.33 -2.98 3.66 -4 4 C-4.66 4.66 -5.32 5.32 -6 6 C-6.99 5.67 -7.98 5.34 -9 5 C-9 4.34 -9 3.68 -9 3 C-6.04341306 0.15291628 -4.05047276 -0.3375394 0 0 Z " fill="#EC1116" transform="translate(450,125)"/>
<path d="M0 0 C1.98 0.66 3.96 1.32 6 2 C5.67 2.99 5.34 3.98 5 5 C4.01 4.67 3.02 4.34 2 4 C1.67 6.97 1.34 9.94 1 13 C0.67 13 0.34 13 0 13 C0 8.71 0 4.42 0 0 Z " fill="#DE0F14" transform="translate(368,190)"/>
<path d="M0 0 C0.33 0 0.66 0 1 0 C1.33 2.31 1.66 4.62 2 7 C1.01 7.33 0.02 7.66 -1 8 C-1 9.32 -1 10.64 -1 12 C-1.66 12 -2.32 12 -3 12 C-2.68950274 10.56206608 -2.3765224 9.1246682 -2.0625 7.6875 C-1.88847656 6.88699219 -1.71445312 6.08648437 -1.53515625 5.26171875 C-1 3 -1 3 0 0 Z " fill="#C81823" transform="translate(328,132)"/>
<path d="M0 0 C1.32 0 2.64 0 4 0 C4 0.66 4 1.32 4 2 C6.97 2.495 6.97 2.495 10 3 C9.67 3.99 9.34 4.98 9 6 C8.67 5.34 8.34 4.68 8 4 C5.67843403 3.59270772 3.3431213 3.25561323 1 3 C0.67 2.01 0.34 1.02 0 0 Z " fill="#DF1819" transform="translate(497,113)"/>
<path d="M0 0 C1.4540625 0.0309375 1.4540625 0.0309375 2.9375 0.0625 C0.41269307 2.58730693 -1.20073034 2.61988633 -4.6875 3.1875 C-5.69039063 3.35507813 -6.69328125 3.52265625 -7.7265625 3.6953125 C-8.49742187 3.81648437 -9.26828125 3.93765625 -10.0625 4.0625 C-10.3925 3.4025 -10.7225 2.7425 -11.0625 2.0625 C-9.928125 1.918125 -8.79375 1.77375 -7.625 1.625 C-3.97252634 1.04829363 -3.54680005 0.07238367 0 0 Z " fill="#C2151B" transform="translate(504.0625,222.9375)"/>
<path d="M0 0 C2.02350324 3.03525486 2.32124018 4.19426202 2.625 7.6875 C2.69976563 8.49574219 2.77453125 9.30398437 2.8515625 10.13671875 C2.90054688 10.75160156 2.94953125 11.36648437 3 12 C0.2159368 9.4180059 -0.62531069 7.84056546 -1 4 C-0.5625 1.6875 -0.5625 1.6875 0 0 Z " fill="#C11720" transform="translate(538,148)"/>
<path d="M0 0 C2.9719385 1.12451727 5.33440687 2.22293791 8 4 C6.329375 4.2165625 6.329375 4.2165625 4.625 4.4375 C1.17857953 4.78372035 1.17857953 4.78372035 -1 6 C-0.67 4.02 -0.34 2.04 0 0 Z " fill="#CC1F2D" transform="translate(560,123)"/>
<path d="M0 0 C4.71403788 0.47939368 8.66579301 0.96834048 13 3 C13 3.33 13 3.66 13 4 C6.25 4.125 6.25 4.125 4 3 C4 2.34 4 1.68 4 1 C2.68 0.67 1.36 0.34 0 0 Z " fill="#BF1A1D" transform="translate(173,111)"/>
<path d="M0 0 C0.99 0.33 1.98 0.66 3 1 C3 1.99 3 2.98 3 4 C2.01 4.66 1.02 5.32 0 6 C-0.66 6.99 -1.32 7.98 -2 9 C-2.6875 7.3125 -2.6875 7.3125 -3 5 C-1.5625 2.25 -1.5625 2.25 0 0 Z " fill="#EB1718" transform="translate(212,193)"/>
<path d="M0 0 C2.31 0 4.62 0 7 0 C5.29374499 2.78388975 4.52373261 3.85384206 1.3125 4.75 C0.1678125 4.87375 0.1678125 4.87375 -1 5 C-0.67 3.35 -0.34 1.7 0 0 Z " fill="#DF131D" transform="translate(157,148)"/>
<path d="M0 0 C0.99 0.33 1.98 0.66 3 1 C3 1.66 3 2.32 3 3 C-2.28 3 -7.56 3 -13 3 C-13 2.67 -13 2.34 -13 2 C-12.14535156 1.93941406 -11.29070313 1.87882813 -10.41015625 1.81640625 C-8.75306641 1.69072266 -8.75306641 1.69072266 -7.0625 1.5625 C-5.96035156 1.48128906 -4.85820313 1.40007812 -3.72265625 1.31640625 C-1.08890097 1.29581916 -1.08890097 1.29581916 0 0 Z " fill="#E91316" transform="translate(49,146)"/>
<path d="M0 0 C1.37871915 3.82977542 0.87113444 7.07989501 0 11 C-0.99 11.66 -1.98 12.32 -3 13 C-2.68991116 11.39536551 -2.37683713 9.79130769 -2.0625 8.1875 C-1.88847656 7.29417969 -1.71445312 6.40085937 -1.53515625 5.48046875 C-1 3 -1 3 0 0 Z " fill="#BB272D" transform="translate(25,121)"/>
<path d="M0 0 C1.32 0.66 2.64 1.32 4 2 C4 1.34 4 0.68 4 0 C4.99 0.33 5.98 0.66 7 1 C7 1.99 7 2.98 7 4 C4.69 3.67 2.38 3.34 0 3 C0 2.01 0 1.02 0 0 Z " fill="#E4181E" transform="translate(572,116)"/>
<path d="M0 0 C-1 3 -1 3 -4 5 C-6.6875 5.125 -6.6875 5.125 -9 5 C-6.45523312 2.20075644 -3.92372883 0 0 0 Z " fill="#C21A1F" transform="translate(143,114)"/>
<path d="M0 0 C1.65 1.32 3.3 2.64 5 4 C1.535 5.485 1.535 5.485 -2 7 C-2.33 5.68 -2.66 4.36 -3 3 C-2.01 2.67 -1.02 2.34 0 2 C0 1.34 0 0.68 0 0 Z " fill="#EC0F15" transform="translate(569,111)"/>
<path d="M0 0 C0.33 0 0.66 0 1 0 C1.36630156 3.93774177 1.30233203 5.56539771 -1 8.875 C-1.66 9.57625 -2.32 10.2775 -3 11 C-2.44894091 7.0507432 -1.61064629 3.65079826 0 0 Z " fill="#B8191E" transform="translate(110,144)"/>
<path d="M0 0 C0.99 0.33 1.98 0.66 3 1 C1.68 3.64 0.36 6.28 -1 9 C-1.33 9 -1.66 9 -2 9 C-2.25 3.375 -2.25 3.375 0 0 Z " fill="#C41E1F" transform="translate(409,138)"/>
<path d="M0 0 C0 0.99 0 1.98 0 3 C0.99 3 1.98 3 3 3 C3.33 3.99 3.66 4.98 4 6 C2.02 5.34 0.04 4.68 -2 4 C-2 3.34 -2 2.68 -2 2 C-3.32 1.67 -4.64 1.34 -6 1 C-3.92446352 0.4465236 -2.15634036 0 0 0 Z " fill="#C2191F" transform="translate(492,150)"/>
<path d="M0 0 C0.33 0 0.66 0 1 0 C1 1.65 1 3.3 1 5 C-0.8125 5.625 -0.8125 5.625 -3 6 C-3.99 5.34 -4.98 4.68 -6 4 C-4.68 4 -3.36 4 -2 4 C-1.34 2.68 -0.68 1.36 0 0 Z " fill="#DD1E24" transform="translate(569,116)"/>
<path d="M0 0 C-3.44615385 4.8 -3.44615385 4.8 -6.25 5.8125 C-7.11625 5.9053125 -7.11625 5.9053125 -8 6 C-6.53781513 1.3697479 -6.53781513 1.3697479 -4 -0.375 C-2 -1 -2 -1 0 0 Z " fill="#D31C23" transform="translate(558,93)"/>
<path d="M0 0 C0.33 0 0.66 0 1 0 C1.20086443 3.71599191 1.1519437 4.77208445 -1 8 C-1.66 8 -2.32 8 -3 8 C-3 3.75589918 -2.68429577 3.00641127 0 0 Z " fill="#D61922" transform="translate(440,128)"/>
<path d="M0 0 C0.99 0.33 1.98 0.66 3 1 C4.1875 4.0625 4.1875 4.0625 5 7 C4.34 7 3.68 7 3 7 C3 6.34 3 5.68 3 5 C2.34 5 1.68 5 1 5 C0.67 3.35 0.34 1.7 0 0 Z " fill="#C81823" transform="translate(250,111)"/>
<path d="M0 0 C3.465 1.485 3.465 1.485 7 3 C7 3.33 7 3.66 7 4 C4.69 4 2.38 4 0 4 C0 2.68 0 1.36 0 0 Z " fill="#C81318" transform="translate(7,222)"/>
<path d="M0 0 C1.32 1.65 2.64 3.3 4 5 C3.67 5.66 3.34 6.32 3 7 C1.68 6.34 0.36 5.68 -1 5 C-0.67 3.35 -0.34 1.7 0 0 Z " fill="#D21D21" transform="translate(413,190)"/>
<path d="M0 0 C-4.75 4 -4.75 4 -7 4 C-6.625 2.0625 -6.625 2.0625 -6 0 C-3.50907189 -1.24546405 -2.58919267 -0.7767578 0 0 Z " fill="#C8151A" transform="translate(475,154)"/>
<path d="" fill="#800080" transform="translate(0,0)"/>
<path d="" fill="#FF0000" transform="translate(0,0)"/>
</svg>
