<?xml version="1.0" encoding="UTF-8"?>
<svg version="1.1" xmlns="http://www.w3.org/2000/svg" width="280" height="84">
<path d="M0 0 C5.64064038 4.27721074 10.27274457 10.06010368 11.4375 17.1640625 C11.9489533 21.88079848 12.11230755 25.87600158 11.00390625 30.51953125 C12.65390625 30.18953125 14.30390625 29.85953125 16.00390625 29.51953125 C14.19140625 31.51953125 14.19140625 31.51953125 12.00390625 33.51953125 C11.01390625 33.51953125 10.02390625 33.51953125 9.00390625 33.51953125 C8.72546875 34.54046875 8.72546875 34.54046875 8.44140625 35.58203125 C5.09726733 42.41570643 -0.2929457 46.37894547 -7.390625 48.859375 C-15.48668736 50.91070115 -22.78579749 49.71867606 -29.99609375 45.51953125 C-36.23068107 40.63982878 -40.09546263 35.58558132 -41.49609375 27.70703125 C-41.81881972 25.14116425 -41.81881972 25.14116425 -44.99609375 23.51953125 C-44.99609375 22.85953125 -44.99609375 22.19953125 -44.99609375 21.51953125 C-46.97609375 21.51953125 -48.95609375 21.51953125 -50.99609375 21.51953125 C-51.32609375 20.52953125 -51.65609375 19.53953125 -51.99609375 18.51953125 C-45.37109375 14.51953125 -45.37109375 14.51953125 -41.99609375 14.51953125 C-41.66609375 15.83953125 -41.33609375 17.15953125 -40.99609375 18.51953125 C-40.95484375 17.52953125 -40.91359375 16.53953125 -40.87109375 15.51953125 C-39.97232714 9.26614106 -35.50272774 5.06040692 -31.24609375 0.70703125 C-21.4586636 -5.88066212 -10.06694157 -6.24906749 0 0 Z M-11.99609375 -2.48046875 C-11.37734375 -1.38734375 -10.75859375 -0.29421875 -10.12109375 0.83203125 C-9.77304687 1.44691406 -9.425 2.06179687 -9.06640625 2.6953125 C-8.10180794 4.33935414 -7.05342316 5.93353713 -5.99609375 7.51953125 C-1.86635747 6.95213257 -1.86635747 6.95213257 2.00390625 5.51953125 C0.78873513 1.87401789 -0.78416548 1.152073 -4.07421875 -0.62890625 C-6.66708389 -1.77777739 -9.18575456 -2.20628932 -11.99609375 -2.48046875 Z M-31.99609375 3.51953125 C-31.99609375 4.17953125 -31.99609375 4.83953125 -31.99609375 5.51953125 C-28.9079968 7.28415808 -27.76297239 7.51953125 -23.99609375 7.51953125 C-22.18699234 5.31477255 -22.18699234 5.31477255 -20.74609375 2.51953125 C-19.96492188 1.12734375 -19.96492188 1.12734375 -19.16796875 -0.29296875 C-18.78125 -1.01484375 -18.39453125 -1.73671875 -17.99609375 -2.48046875 C-22.87820869 -2.48046875 -28.51650815 0.18492838 -31.99609375 3.51953125 Z M-16.99609375 -1.48046875 C-17.89122657 -0.40924423 -18.73792977 0.7027415 -19.55859375 1.83203125 C-20.01363281 2.44691406 -20.46867187 3.06179687 -20.9375 3.6953125 C-22.2470498 5.60047027 -22.2470498 5.60047027 -21.99609375 8.51953125 C-19.02609375 9.01453125 -19.02609375 9.01453125 -15.99609375 9.51953125 C-15.99609375 5.88953125 -15.99609375 2.25953125 -15.99609375 -1.48046875 C-16.32609375 -1.48046875 -16.65609375 -1.48046875 -16.99609375 -1.48046875 Z M-13.99609375 -1.48046875 C-13.99609375 2.14953125 -13.99609375 5.77953125 -13.99609375 9.51953125 C-12.01609375 9.18953125 -10.03609375 8.85953125 -7.99609375 8.51953125 C-8.41031344 3.6869682 -10.46023361 1.69273907 -13.99609375 -1.48046875 Z M-34.99609375 6.51953125 C-35.83428533 8.14203066 -36.66650535 9.76761622 -37.49609375 11.39453125 C-37.96015625 12.29945312 -38.42421875 13.204375 -38.90234375 14.13671875 C-40.13514964 16.38549984 -40.13514964 16.38549984 -39.99609375 18.51953125 C-38.41140698 18.06589954 -36.82839451 17.60641673 -35.24609375 17.14453125 C-34.364375 16.88929687 -33.48265625 16.6340625 -32.57421875 16.37109375 C-30.21280694 15.59111227 -28.1276999 14.79849494 -25.99609375 13.51953125 C-25.19080486 11.46952254 -25.19080486 11.46952254 -24.99609375 9.51953125 C-29.80819276 7.22908111 -29.80819276 7.22908111 -34.99609375 6.51953125 Z M-4.99609375 9.51953125 C-4.00609375 13.47953125 -3.01609375 17.43953125 -1.99609375 21.51953125 C1.96390625 21.51953125 5.92390625 21.51953125 10.00390625 21.51953125 C9.57217121 15.36730689 8.34985283 11.70035176 5.00390625 6.51953125 C1.13694947 6.51953125 -1.50493895 7.93863096 -4.99609375 9.51953125 Z M-23.99609375 9.51953125 C-24.32609375 11.16953125 -24.65609375 12.81953125 -24.99609375 14.51953125 C-20.54109375 15.50953125 -20.54109375 15.50953125 -15.99609375 16.51953125 C-15.99609375 14.53953125 -15.99609375 12.55953125 -15.99609375 10.51953125 C-18.63609375 10.18953125 -21.27609375 9.85953125 -23.99609375 9.51953125 Z M-13.99609375 10.51953125 C-14.32609375 12.82953125 -14.65609375 15.13953125 -14.99609375 17.51953125 C-13.92502258 18.38902442 -12.83863431 19.2396733 -11.74609375 20.08203125 C-11.1428125 20.55769531 -10.53953125 21.03335938 -9.91796875 21.5234375 C-8.01797821 22.74842223 -8.01797821 22.74842223 -5.76171875 22.171875 C-5.1790625 21.95660156 -4.59640625 21.74132813 -3.99609375 21.51953125 C-4.13777512 20.08161609 -4.28460418 18.64420755 -4.43359375 17.20703125 C-4.51480469 16.40652344 -4.59601562 15.60601562 -4.6796875 14.78125 C-4.94875068 12.35865946 -4.94875068 12.35865946 -5.99609375 9.51953125 C-8.72447055 9.51953125 -11.31263438 10.05284266 -13.99609375 10.51953125 Z M-18.99609375 23.51953125 C-19.65609375 24.83953125 -20.31609375 26.15953125 -20.99609375 27.51953125 C-19.69202491 29.53873462 -18.35785956 31.53878098 -16.99609375 33.51953125 C-16.66609375 33.51953125 -16.33609375 33.51953125 -15.99609375 33.51953125 C-15.66609375 30.54953125 -15.33609375 27.57953125 -14.99609375 24.51953125 C-16.31609375 24.18953125 -17.63609375 23.85953125 -18.99609375 23.51953125 Z M-6.99609375 23.51953125 C-6.00609375 24.50953125 -5.01609375 25.49953125 -3.99609375 26.51953125 C-3.99609375 25.52953125 -3.99609375 24.53953125 -3.99609375 23.51953125 C-4.98609375 23.51953125 -5.97609375 23.51953125 -6.99609375 23.51953125 Z M-1.99609375 23.51953125 C-2.32609375 24.83953125 -2.65609375 26.15953125 -2.99609375 27.51953125 C1.2334062 29.93638837 4.12726616 30.86786269 9.00390625 30.51953125 C9.33390625 28.20953125 9.66390625 25.89953125 10.00390625 23.51953125 C6.04390625 23.51953125 2.08390625 23.51953125 -1.99609375 23.51953125 Z M-13.99609375 26.51953125 C-13.99609375 29.48953125 -13.99609375 32.45953125 -13.99609375 35.51953125 C-11.35609375 35.51953125 -8.71609375 35.51953125 -5.99609375 35.51953125 C-5.66609375 33.86953125 -5.33609375 32.21953125 -4.99609375 30.51953125 C-6.66671875 29.52953125 -6.66671875 29.52953125 -8.37109375 28.51953125 C-8.99757813 28.14828125 -9.6240625 27.77703125 -10.26953125 27.39453125 C-11.97082042 26.36884777 -11.97082042 26.36884777 -13.99609375 26.51953125 Z M-38.99609375 28.51953125 C-38.46494269 33.03431523 -36.62989083 35.86619982 -33.99609375 39.51953125 C-31.02609375 38.52953125 -28.05609375 37.53953125 -24.99609375 36.51953125 C-25.32609375 34.53953125 -25.65609375 32.55953125 -25.99609375 30.51953125 C-26.98609375 30.51953125 -27.97609375 30.51953125 -28.99609375 30.51953125 C-28.99609375 31.17953125 -28.99609375 31.83953125 -28.99609375 32.51953125 C-30.72135417 31.77083333 -32.44661458 31.02213542 -34.171875 30.2734375 C-35.75320396 29.61991183 -37.37284781 29.06061323 -38.99609375 28.51953125 Z M-3.99609375 31.51953125 C-4.32609375 33.16953125 -4.65609375 34.81953125 -4.99609375 36.51953125 C-2.02609375 37.50953125 0.94390625 38.49953125 4.00390625 39.51953125 C6.34678043 36.84705491 6.34678043 36.84705491 7.00390625 33.51953125 C3.37390625 32.85953125 -0.25609375 32.19953125 -3.99609375 31.51953125 Z M-23.99609375 33.51953125 C-23.99609375 34.50953125 -23.99609375 35.49953125 -23.99609375 36.51953125 C-22.01609375 36.51953125 -20.03609375 36.51953125 -17.99609375 36.51953125 C-20.66857009 34.17665707 -20.66857009 34.17665707 -23.99609375 33.51953125 Z M-5.99609375 37.51953125 C-8.96609375 42.46953125 -8.96609375 42.46953125 -11.99609375 47.51953125 C-5.83152899 47.14210892 -2.8223386 45.36082817 2.00390625 41.51953125 C-0.65399814 38.30206804 -1.40774413 38.43720117 -5.99609375 37.51953125 Z M-31.99609375 39.51953125 C-30.61696972 42.92089414 -29.36997516 44.2155869 -26.05859375 45.76953125 C-25.02412109 46.27226563 -25.02412109 46.27226563 -23.96875 46.78515625 C-21.87833069 47.69397392 -21.87833069 47.69397392 -18.99609375 47.51953125 C-20.12061102 44.54759275 -21.21903166 42.18512438 -22.99609375 39.51953125 C-25.20334448 39.15590307 -25.20334448 39.15590307 -27.62109375 39.33203125 C-28.43835938 39.35910156 -29.255625 39.38617188 -30.09765625 39.4140625 C-31.03738281 39.46626953 -31.03738281 39.46626953 -31.99609375 39.51953125 Z M-20.99609375 39.51953125 C-19.74632619 43.17269796 -19.32510622 44.30018961 -15.99609375 46.51953125 C-15.99609375 44.20953125 -15.99609375 41.89953125 -15.99609375 39.51953125 C-17.64609375 39.51953125 -19.29609375 39.51953125 -20.99609375 39.51953125 Z M-13.99609375 39.51953125 C-13.99609375 41.82953125 -13.99609375 44.13953125 -13.99609375 46.51953125 C-12.34609375 44.86953125 -10.69609375 43.21953125 -8.99609375 41.51953125 C-11.67251864 39.33463118 -11.67251864 39.33463118 -13.99609375 39.51953125 Z " fill="#19367E" transform="translate(67.99609375,14.48046875)"/>
<path d="M0 0 C0.99 0 1.98 0 3 0 C4.32 0 5.64 0 7 0 C7.09913574 4.75050819 7.17159264 9.50040976 7.21972656 14.25170898 C7.23979892 15.86672458 7.2670633 17.48166789 7.30175781 19.09643555 C7.35047215 21.42254501 7.37301154 23.74769093 7.390625 26.07421875 C7.41127014 26.79212082 7.43191528 27.51002289 7.45318604 28.24967957 C7.45479752 31.87845015 7.10675 33.8354708 5.11230469 36.90942383 C2.67048583 39.32612458 1.36126562 40.25305208 -2 41 C-6.80745346 40.91384492 -10.76134097 40.3451991 -15 38 C-15 36.68 -15 35.36 -15 34 C-14.10796875 34.11859375 -13.2159375 34.2371875 -12.296875 34.359375 C-10.54117188 34.55273438 -10.54117188 34.55273438 -8.75 34.75 C-7.58984375 34.88921875 -6.4296875 35.0284375 -5.234375 35.171875 C-1.9316281 35.29498076 -1.9316281 35.29498076 0.421875 33.203125 C2.29116423 31.04519412 2.29116423 31.04519412 2 28 C1.34 28.33 0.68 28.66 0 29 C-5.34243433 29.35032356 -8.64786539 29.4561069 -13 26 C-15.44882793 22.32675811 -15.40276624 19.44431556 -15.4375 15.1875 C-15.47037109 14.48818359 -15.50324219 13.78886719 -15.53710938 13.06835938 C-15.57814516 9.08042718 -15.15017738 6.69241788 -12.59765625 3.55078125 C-8.49223509 -0.48055712 -5.49746483 -0.09797462 0 0 Z M-9.4375 6.3125 C-11.91786802 10.578733 -11.78568464 15.18679678 -11 20 C-9.602249 22.52621053 -8.86470535 23.74721315 -6.0625 24.56640625 C-1.56392042 24.60170854 -1.56392042 24.60170854 2 22.0625 C3.71292335 16.81667226 3.74875599 12.15817902 1.9375 6.9375 C0.04017784 4.66324623 0.04017784 4.66324623 -3.4375 4.4375 C-6.9264983 4.78697711 -6.9264983 4.78697711 -9.4375 6.3125 Z " fill="#072A8E" transform="translate(184,27)"/>
<path d="M0 0 C0.33 1.32 0.66 2.64 1 4 C5.64586892 3.51515724 5.64586892 3.51515724 10 2 C11.99960012 1.960008 14.00047242 1.95653201 16 2 C16 1.34 16 0.68 16 0 C20.90513446 0.11755224 24.0624139 0.22200303 27.9375 3.4375 C28.9584375 4.7059375 28.9584375 4.7059375 30 6 C30.66 6.66 31.32 7.32 32 8 C32 8.99 32 9.98 32 11 C29.03 10.01 26.06 9.02 23 8 C21.97785104 11.25229215 21.81328702 12.58923143 23.25 15.75 C24.87288121 18.26579384 24.87288121 18.26579384 28 19 C28.66 19.99 29.32 20.98 30 22 C32.56282742 22.72965366 32.56282742 22.72965366 35 23 C30.94565057 24.35144981 27.94232829 23.72837311 24 22.25 C22 21 22 21 19.5 18.375 C17.09138014 15.54083369 17.09138014 15.54083369 13 16 C13 16.66 13 17.32 13 18 C8.06562452 17.52971495 5.42172342 16.21503461 1.625 13.0625 C0.31402344 11.99708984 0.31402344 11.99708984 -1.0234375 10.91015625 C-1.67570312 10.27980469 -2.32796875 9.64945313 -3 9 C-3 8.34 -3 7.68 -3 7 C-4.98 7 -6.96 7 -9 7 C-9.33 6.01 -9.66 5.02 -10 4 C-3.375 0 -3.375 0 0 0 Z " fill="#0330A8" transform="translate(26,29)"/>
<path d="M0 0 C1.12148437 -0.03996094 2.24296875 -0.07992188 3.3984375 -0.12109375 C6.625 0.4375 6.625 0.4375 9.49609375 2.3671875 C12.42821056 6.59589174 12.33166421 9.96747858 12.3125 15 C12.32914573 16.68890125 12.3536078 18.37774755 12.38671875 20.06640625 C12.38631592 20.80963135 12.38591309 21.55285645 12.38549805 22.31860352 C12.65739113 24.72406741 13.43288413 26.34782576 14.625 28.4375 C11.86235711 29.03482819 9.46467231 29.4375 6.625 29.4375 C5.64789063 29.49550781 4.67078125 29.55351563 3.6640625 29.61328125 C-5.50309069 29.98038693 -5.50309069 29.98038693 -9.6875 27.375 C-11.80792123 23.68389637 -12.06113138 21.63052511 -11.375 17.4375 C-8.84767474 14.23622134 -6.84811569 12.61666272 -2.7734375 12.12109375 C-1.77570313 12.03988281 -0.77796875 11.95867188 0.25 11.875 C1.25289062 11.79121094 2.25578125 11.70742188 3.2890625 11.62109375 C4.05992187 11.56050781 4.83078125 11.49992187 5.625 11.4375 C5.625 9.7875 5.625 8.1375 5.625 6.4375 C2.60631566 4.92815783 -0.04797229 5.26239328 -3.375 5.4375 C-4.365 6.0975 -5.355 6.7575 -6.375 7.4375 C-8.5625 7.0625 -8.5625 7.0625 -10.375 6.4375 C-10.0625 4.5625 -10.0625 4.5625 -9.375 2.4375 C-5.86838953 0.09975969 -4.16006512 0.0809166 0 0 Z M0.0625 16.875 C-0.92878906 16.95621094 -1.92007813 17.03742187 -2.94140625 17.12109375 C-5.3195193 17.17867361 -5.3195193 17.17867361 -6.375 18.4375 C-6.54166667 20.9375 -6.54166667 20.9375 -6.375 23.4375 C-4.63395647 25.17854353 -2.30135979 24.65061272 0.0625 24.6875 C1.05121094 24.71328125 2.03992188 24.7390625 3.05859375 24.765625 C3.90550781 24.65734375 4.75242188 24.5490625 5.625 24.4375 C7.7769437 21.20958445 7.82586443 20.15349191 7.625 16.4375 C5.086123 16.4375 2.59242654 16.66059945 0.0625 16.875 Z " fill="#092A8C" transform="translate(205.375,26.5625)"/>
<path d="M0 0 C1.66869141 -0.03287109 1.66869141 -0.03287109 3.37109375 -0.06640625 C7.65917699 0.77861383 9.05014787 1.99643242 11.5625 5.5625 C12.23101837 8.56955896 12.2624673 11.49055684 12.25 14.5625 C12.25722511 21.78030938 12.25722511 21.78030938 14.5625 28.5625 C10.8125 29.6875 10.8125 29.6875 8.5625 28.5625 C7.9025 28.8925 7.2425 29.2225 6.5625 29.5625 C-4.7530211 30.64310911 -4.7530211 30.64310911 -9.75 27.4375 C-11.75236677 24.02606032 -12.16612574 22.44850392 -11.4375 18.5625 C-9.63756226 15.86259338 -8.353727 14.0206135 -5.4375 12.5625 C-3.56693209 12.3349985 -1.69064042 12.15287189 0.1875 12 C1.19039062 11.91621094 2.19328125 11.83242188 3.2265625 11.74609375 C3.99742187 11.68550781 4.76828125 11.62492187 5.5625 11.5625 C6.15320014 9.61646726 6.15320014 9.61646726 6.5625 7.5625 C5.51887611 6.29677038 5.51887611 6.29677038 3.19921875 6.4296875 C2.22597656 6.43226562 1.25273438 6.43484375 0.25 6.4375 C-1.19826172 6.43363281 -1.19826172 6.43363281 -2.67578125 6.4296875 C-5.09893705 6.54621833 -7.12394969 6.87008352 -9.4375 7.5625 C-9.7675 6.5725 -10.0975 5.5825 -10.4375 4.5625 C-7.20596299 0.58826255 -5.06823389 -0.00585923 0 0 Z M1.125 17 C0.13628906 17.08121094 -0.85242188 17.16242187 -1.87109375 17.24609375 C-4.42190371 17.41536442 -4.42190371 17.41536442 -6.4375 18.5625 C-6.68780977 20.97869823 -6.68780977 20.97869823 -6.4375 23.5625 C-2.62727687 26.10264875 0.09720816 26.14856955 4.5625 25.5625 C6.69120693 24.60132095 6.69120693 24.60132095 7.5625 22.5625 C7.81298636 19.43700983 7.81298636 19.43700983 7.5625 16.5625 C5.41368529 16.5625 3.2640402 16.81919686 1.125 17 Z " fill="#062C9D" transform="translate(126.4375,26.4375)"/>
<path d="M0 0 C0.99 0.33 1.98 0.66 3 1 C3.33 8.59 3.66 16.18 4 24 C8.84151041 19.24539174 8.84151041 19.24539174 13.1875 14.0625 C13.785625 13.381875 14.38375 12.70125 15 12 C16.32 12 17.64 12 19 12 C18.63268527 15.30583253 18.34672541 16.67367021 15.875 19 C15.25625 19.66 14.6375 20.32 14 21 C14.44541664 26.32644068 17.32461652 30.64595034 19.8203125 35.2578125 C21 38 21 38 20 41 C18.234375 40.91015625 18.234375 40.91015625 16 40 C14.56741392 37.80744448 13.39517726 35.76963138 12.25 33.4375 C11.93417969 32.82197266 11.61835937 32.20644531 11.29296875 31.57226562 C10.51638111 30.05438979 9.75654439 28.52796466 9 27 C5.33090385 30.18328796 5.33090385 30.18328796 3.29296875 34.45703125 C3.25816406 35.23433594 3.22335938 36.01164062 3.1875 36.8125 C3.13980469 37.60269531 3.09210938 38.39289062 3.04296875 39.20703125 C3.02878906 39.79871094 3.01460938 40.39039063 3 41 C1.68 41 0.36 41 -1 41 C-2.60349894 37.79300212 -2.1630236 34.30398791 -2.16796875 30.78125 C-2.17129715 29.96756958 -2.17462555 29.15388916 -2.17805481 28.31555176 C-2.18312075 26.5939999 -2.18546324 24.87243821 -2.18530273 23.15087891 C-2.18749123 20.51057877 -2.20565567 17.87069503 -2.22460938 15.23046875 C-2.22754291 13.55989727 -2.22952797 11.88932379 -2.23046875 10.21875 C-2.24124702 9.02965027 -2.24124702 9.02965027 -2.25224304 7.81652832 C-2.22882682 2.22882682 -2.22882682 2.22882682 0 0 Z " fill="#092A8F" transform="translate(93,15)"/>
<path d="M0 0 C5.64064038 4.27721074 10.27274457 10.06010368 11.4375 17.1640625 C11.9489533 21.88079848 12.11230755 25.87600158 11.00390625 30.51953125 C13.47890625 30.02453125 13.47890625 30.02453125 16.00390625 29.51953125 C15.34390625 30.50953125 14.68390625 31.49953125 14.00390625 32.51953125 C11.03390625 32.02453125 11.03390625 32.02453125 8.00390625 31.51953125 C8.66390625 28.87953125 9.32390625 26.23953125 10.00390625 23.51953125 C6.04390625 23.51953125 2.08390625 23.51953125 -1.99609375 23.51953125 C-1.99609375 24.50953125 -1.99609375 25.49953125 -1.99609375 26.51953125 C-2.65609375 26.51953125 -3.31609375 26.51953125 -3.99609375 26.51953125 C-3.99609375 25.52953125 -3.99609375 24.53953125 -3.99609375 23.51953125 C-4.98609375 23.51953125 -5.97609375 23.51953125 -6.99609375 23.51953125 C-6.99609375 22.85953125 -6.99609375 22.19953125 -6.99609375 21.51953125 C-6.00609375 21.51953125 -5.01609375 21.51953125 -3.99609375 21.51953125 C-4.65609375 17.55953125 -5.31609375 13.59953125 -5.99609375 9.51953125 C-6.65609375 9.84953125 -7.31609375 10.17953125 -7.99609375 10.51953125 C-9.99569387 10.55952325 -11.99656617 10.56299924 -13.99609375 10.51953125 C-13.99609375 12.49953125 -13.99609375 14.47953125 -13.99609375 16.51953125 C-14.65609375 16.51953125 -15.31609375 16.51953125 -15.99609375 16.51953125 C-15.99609375 14.53953125 -15.99609375 12.55953125 -15.99609375 10.51953125 C-18.30609375 10.51953125 -20.61609375 10.51953125 -22.99609375 10.51953125 C-23.32609375 11.46828125 -23.65609375 12.41703125 -23.99609375 13.39453125 C-25.99609375 16.51953125 -25.99609375 16.51953125 -29.74609375 17.83203125 C-31.15765032 18.09081662 -32.57497151 18.31984802 -33.99609375 18.51953125 C-34.681875 18.62910156 -35.36765625 18.73867188 -36.07421875 18.8515625 C-37.71097565 19.10106812 -39.35321412 19.3141713 -40.99609375 19.51953125 C-40.69012581 10.95242884 -37.09803919 6.69197546 -31.24609375 0.70703125 C-21.4586636 -5.88066212 -10.06694157 -6.24906749 0 0 Z M-11.99609375 -2.48046875 C-11.37734375 -1.38734375 -10.75859375 -0.29421875 -10.12109375 0.83203125 C-9.77304687 1.44691406 -9.425 2.06179687 -9.06640625 2.6953125 C-8.10180794 4.33935414 -7.05342316 5.93353713 -5.99609375 7.51953125 C-1.86635747 6.95213257 -1.86635747 6.95213257 2.00390625 5.51953125 C0.78873513 1.87401789 -0.78416548 1.152073 -4.07421875 -0.62890625 C-6.66708389 -1.77777739 -9.18575456 -2.20628932 -11.99609375 -2.48046875 Z M-31.99609375 3.51953125 C-31.99609375 4.17953125 -31.99609375 4.83953125 -31.99609375 5.51953125 C-28.9079968 7.28415808 -27.76297239 7.51953125 -23.99609375 7.51953125 C-22.18699234 5.31477255 -22.18699234 5.31477255 -20.74609375 2.51953125 C-19.96492188 1.12734375 -19.96492188 1.12734375 -19.16796875 -0.29296875 C-18.78125 -1.01484375 -18.39453125 -1.73671875 -17.99609375 -2.48046875 C-22.87820869 -2.48046875 -28.51650815 0.18492838 -31.99609375 3.51953125 Z M-16.99609375 -1.48046875 C-17.89122657 -0.40924423 -18.73792977 0.7027415 -19.55859375 1.83203125 C-20.01363281 2.44691406 -20.46867187 3.06179687 -20.9375 3.6953125 C-22.2470498 5.60047027 -22.2470498 5.60047027 -21.99609375 8.51953125 C-19.02609375 9.01453125 -19.02609375 9.01453125 -15.99609375 9.51953125 C-15.99609375 5.88953125 -15.99609375 2.25953125 -15.99609375 -1.48046875 C-16.32609375 -1.48046875 -16.65609375 -1.48046875 -16.99609375 -1.48046875 Z M-13.99609375 -1.48046875 C-13.99609375 2.14953125 -13.99609375 5.77953125 -13.99609375 9.51953125 C-12.01609375 9.18953125 -10.03609375 8.85953125 -7.99609375 8.51953125 C-8.41031344 3.6869682 -10.46023361 1.69273907 -13.99609375 -1.48046875 Z M-34.99609375 6.51953125 C-35.83428533 8.14203066 -36.66650535 9.76761622 -37.49609375 11.39453125 C-37.96015625 12.29945312 -38.42421875 13.204375 -38.90234375 14.13671875 C-40.13514964 16.38549984 -40.13514964 16.38549984 -39.99609375 18.51953125 C-38.41140698 18.06589954 -36.82839451 17.60641673 -35.24609375 17.14453125 C-34.364375 16.88929687 -33.48265625 16.6340625 -32.57421875 16.37109375 C-30.21280694 15.59111227 -28.1276999 14.79849494 -25.99609375 13.51953125 C-25.19080486 11.46952254 -25.19080486 11.46952254 -24.99609375 9.51953125 C-29.80819276 7.22908111 -29.80819276 7.22908111 -34.99609375 6.51953125 Z M-4.99609375 9.51953125 C-4.00609375 13.47953125 -3.01609375 17.43953125 -1.99609375 21.51953125 C1.96390625 21.51953125 5.92390625 21.51953125 10.00390625 21.51953125 C9.57217121 15.36730689 8.34985283 11.70035176 5.00390625 6.51953125 C1.13694947 6.51953125 -1.50493895 7.93863096 -4.99609375 9.51953125 Z " fill="#193683" transform="translate(67.99609375,14.48046875)"/>
<path d="M0 0 C3.72695073 1.40795916 4.77554261 2.62074442 6.8125 6.0625 C8.71252801 11.22751868 9.10981108 16.90391165 7.23828125 22.125 C5.91741963 24.63098253 4.44281476 26.6362593 2.25 28.4375 C-1.95737074 29.48934269 -5.96799331 30.17550494 -9.81640625 27.94921875 C-11.98949346 26.1740945 -13.73685603 24.52628794 -15 22 C-16.2209029 7.41893111 -16.2209029 7.41893111 -12.625 3.125 C-8.48841482 -0.2236642 -5.22321845 -0.5323665 0 0 Z M-8.6953125 6.0859375 C-10.69130616 9.01419167 -10.39669264 11.56636948 -10.375 15.0625 C-10.38273438 16.31160156 -10.39046875 17.56070313 -10.3984375 18.84765625 C-10.26695312 19.88792969 -10.13546875 20.92820312 -10 22 C-6.29584707 24.46943529 -4.37855495 24.46913089 0 24 C2.20625346 21.81408067 2.93593797 20.42708021 3.3984375 17.34375 C3.39070313 16.4053125 3.38296875 15.466875 3.375 14.5 C3.38273437 13.5615625 3.39046875 12.623125 3.3984375 11.65625 C2.93585776 8.57238505 2.20379681 7.18856319 0 5 C-4.55908546 4.40359227 -4.55908546 4.40359227 -8.6953125 6.0859375 Z " fill="#0A2681" transform="translate(253,27)"/>
<path d="M0 0 C1.2065625 0.2475 1.2065625 0.2475 2.4375 0.5 C4.97658116 1.26597109 4.97658116 1.26597109 7 0 C11.77255923 -0.39771327 14.08482672 -0.47453429 18.375 1.75 C21.49761818 4.42652987 22.83424688 6.26119626 23.22705078 10.38183594 C23.21657715 11.24067383 23.20610352 12.09951172 23.1953125 12.984375 C23.18886719 13.91894531 23.18242187 14.85351562 23.17578125 15.81640625 C23.15902344 16.78449219 23.14226562 17.75257812 23.125 18.75 C23.11597656 19.73355469 23.10695312 20.71710937 23.09765625 21.73046875 C23.07412785 24.15389407 23.04125368 26.57682222 23 29 C21.68 29 20.36 29 19 29 C17.8534782 26.70695639 17.83290709 25.27018444 17.75390625 22.71875 C17.70459961 21.45611328 17.70459961 21.45611328 17.65429688 20.16796875 C17.59310343 18.38945288 17.53581094 16.6107985 17.48242188 14.83203125 C17.43118164 13.56939453 17.43118164 13.56939453 17.37890625 12.28125 C17.3538501 11.50845703 17.32879395 10.73566406 17.30297852 9.93945312 C17.15857928 7.76558335 17.15857928 7.76558335 15 6 C10.38545951 5.44867894 10.38545951 5.44867894 6.30932617 7.24145508 C4.67651832 9.43446552 4.57942528 10.73312653 4.48828125 13.44921875 C4.45283203 14.29677734 4.41738281 15.14433594 4.38085938 16.01757812 C4.35830078 16.89865234 4.33574219 17.77972656 4.3125 18.6875 C4.27833984 19.58017578 4.24417969 20.47285156 4.20898438 21.39257812 C4.12654352 23.59492671 4.05738449 25.79687938 4 28 C2.0625 28.5625 2.0625 28.5625 0 29 C-1.80279191 27.19720809 -1.13036605 24.45952299 -1.1328125 22.03125 C-1.13410156 20.82082031 -1.13539063 19.61039063 -1.13671875 18.36328125 C-1.13285156 17.08839844 -1.12898437 15.81351563 -1.125 14.5 C-1.12886719 13.22511719 -1.13273438 11.95023438 -1.13671875 10.63671875 C-1.13542969 9.42628906 -1.13414062 8.21585938 -1.1328125 6.96875 C-1.13168457 5.84919922 -1.13055664 4.72964844 -1.12939453 3.57617188 C-1 1 -1 1 0 0 Z " fill="#0A298A" transform="translate(143,27)"/>
<path d="M0 0 C1.88332031 -0.03867187 1.88332031 -0.03867187 3.8046875 -0.078125 C7.125 0.25 7.125 0.25 9.0703125 1.765625 C9.41835937 2.25546875 9.76640625 2.7453125 10.125 3.25 C9.135 4.24 8.145 5.23 7.125 6.25 C4.155 6.25 1.185 6.25 -1.875 6.25 C-2.205 13.51 -2.535 20.77 -2.875 28.25 C-4.195 28.58 -5.515 28.91 -6.875 29.25 C-8.67779191 27.44720809 -8.00536605 24.70952299 -8.0078125 22.28125 C-8.00910156 21.07082031 -8.01039063 19.86039063 -8.01171875 18.61328125 C-8.00785156 17.33839844 -8.00398437 16.06351563 -8 14.75 C-8.00386719 13.47511719 -8.00773438 12.20023438 -8.01171875 10.88671875 C-8.01042969 9.67628906 -8.00914062 8.46585938 -8.0078125 7.21875 C-8.00668457 6.09919922 -8.00555664 4.97964844 -8.00439453 3.82617188 C-7.74912177 -1.25616426 -4.39197059 0.05388921 0 0 Z " fill="#092C90" transform="translate(228.875,26.75)"/>
<path d="M0 0 C1.32 0 2.64 0 4 0 C4.09913574 4.75050819 4.17159264 9.50040976 4.21972656 14.25170898 C4.23979892 15.86672458 4.2670633 17.48166789 4.30175781 19.09643555 C4.35047215 21.42254501 4.37301154 23.74769093 4.390625 26.07421875 C4.41127014 26.79212082 4.43191528 27.51002289 4.45318604 28.24967957 C4.45479752 31.87845015 4.10675 33.8354708 2.11230469 36.90942383 C-0.32951417 39.32612458 -1.63873438 40.25305208 -5 41 C-9.80745346 40.91384492 -13.76134097 40.3451991 -18 38 C-18 36.68 -18 35.36 -18 34 C-17.10796875 34.11859375 -16.2159375 34.2371875 -15.296875 34.359375 C-13.54117188 34.55273438 -13.54117188 34.55273438 -11.75 34.75 C-10.58984375 34.88921875 -9.4296875 35.0284375 -8.234375 35.171875 C-4.92600757 35.30443918 -4.92600757 35.30443918 -2.625 33.15625 C-1.01624854 31.02156056 -0.37442727 29.62099092 0 27 C0.99 27 1.98 27 3 27 C3 18.42 3 9.84 3 1 C2.01 0.67 1.02 0.34 0 0 Z " fill="#092887" transform="translate(187,27)"/>
<path d="M0 0 C2.92903361 1.59004681 5.09745602 3.09995489 7.4375 5.5 C12.51620668 10.45483578 18.24024644 11.72315766 25 13 C25 13.66 25 14.32 25 15 C24.01 15 23.02 15 22 15 C21.67 15.66 21.34 16.32 21 17 C13.3180931 14.99602429 5.64599754 12.43066503 -1 8 C-1 10.31 -1 12.62 -1 15 C-1.66 15 -2.32 15 -3 15 C-2.938125 13.741875 -2.87625 12.48375 -2.8125 11.1875 C-2.76367078 7.83041021 -2.76367078 7.83041021 -4.5 5 C-4.995 4.67 -5.49 4.34 -6 4 C-2.65626525 4.55728913 0.03312999 5.35173889 3 7 C2.505 6.21625 2.01 5.4325 1.5 4.625 C0 2 0 2 0 0 Z " fill="#0A298C" transform="translate(55,33)"/>
<path d="M0 0 C-2.22825644 2.22825644 -3.65761628 2.69239369 -6.625 3.625 C-7.44226563 3.88539062 -8.25953125 4.14578125 -9.1015625 4.4140625 C-9.72804687 4.60742188 -10.35453125 4.80078125 -11 5 C-10.01 6.98 -9.02 8.96 -8 11 C-3.71 11 0.58 11 5 11 C5.33 11.99 5.66 12.98 6 14 C1.56141383 16.21929309 -4.18032335 15.51895033 -9 15 C-12.3125 12.9375 -12.3125 12.9375 -14 10 C-14.625 6.375 -14.625 6.375 -14 3 C-10.06749315 -0.93250685 -5.19593717 -0.30564336 0 0 Z " fill="#062D9B" transform="translate(208,41)"/>
<path d="M0 0 C-0.33 1.32 -0.66 2.64 -1 4 C-2.98567708 4.09765625 -4.97135417 4.1953125 -6.95703125 4.29296875 C-9.18050328 4.87047584 -9.18050328 4.87047584 -10.71875 7 C-12.41619588 10.97450743 -12.56189742 14.53124634 -12.6875 18.8125 C-12.72166016 19.60076172 -12.75582031 20.38902344 -12.79101562 21.20117188 C-12.87299875 23.13363119 -12.93818845 25.06679035 -13 27 C-13.66 27 -14.32 27 -15 27 C-15 18.75 -15 10.5 -15 2 C-8.92329596 0.26379884 -5.93321622 -0.20818303 0 0 Z " fill="#062C9F" transform="translate(158,27)"/>
<path d="M0 0 C0.99 0 1.98 0 3 0 C3 8.58 3 17.16 3 26 C1.68 26 0.36 26 -1 26 C-1.33 25.01 -1.66 24.02 -2 23 C-1.34 22.34 -0.68 21.68 0 21 C0.73618516 15.0627145 0.77388442 9.87460071 -3 5 C-3 4.34 -3 3.68 -3 3 C-5.64 3 -8.28 3 -11 3 C-11 2.34 -11 1.68 -11 1 C-10.28972656 1.01160156 -9.57945312 1.02320312 -8.84765625 1.03515625 C-7.92855469 1.04417969 -7.00945312 1.05320312 -6.0625 1.0625 C-4.68771484 1.07990234 -4.68771484 1.07990234 -3.28515625 1.09765625 C-1.03406673 1.25949049 -1.03406673 1.25949049 0 0 Z " fill="#062EA1" transform="translate(187,28)"/>
<path d="M0 0 C-0.99 0.33 -1.98 0.66 -3 1 C-4.68208635 0.02616054 -6.34738161 -0.97695052 -8 -2 C-10.69254991 -2.70670728 -10.69254991 -2.70670728 -13 -3 C-11.35 -0.36 -9.7 2.28 -8 5 C-8.99 5.495 -8.99 5.495 -10 6 C-11.65 3.36 -13.3 0.72 -15 -2 C-15.66 -0.68 -16.32 0.64 -17 2 C-17.66 0.68 -18.32 -0.64 -19 -2 C-20.65 -0.35 -22.3 1.3 -24 3 C-23.67 2.195625 -23.34 1.39125 -23 0.5625 C-21.93940959 -1.69681125 -21.93940959 -1.69681125 -22 -3 C-22.53109375 -2.79503906 -23.0621875 -2.59007812 -23.609375 -2.37890625 C-24.66898438 -1.97478516 -24.66898438 -1.97478516 -25.75 -1.5625 C-26.79414062 -1.16224609 -26.79414062 -1.16224609 -27.859375 -0.75390625 C-29.89059003 -0.03853307 -31.9035291 0.51365652 -34 1 C-25.63582598 -10.02550212 -9.850127 -6.59107263 0 0 Z " fill="#122D76" transform="translate(70,16)"/>
<path d="M0 0 C0.66 0 1.32 0 2 0 C1.96519531 1.66289063 1.96519531 1.66289063 1.9296875 3.359375 C1.91092423 4.82290992 1.89272463 6.28645214 1.875 7.75 C1.85824219 8.47960938 1.84148437 9.20921875 1.82421875 9.9609375 C1.78927761 13.8044624 1.82500316 16.74606772 4 20 C5.98 20 7.96 20 10 20 C10.33 21.32 10.66 22.64 11 24 C7.8125 24.375 7.8125 24.375 4 24 C0.95808359 21.57416793 -0.77083674 18.68748979 -2 15 C-2.11880354 13.1903182 -2.1751965 11.37603553 -2.1875 9.5625 C-2.20167969 8.61503906 -2.21585938 7.66757812 -2.23046875 6.69140625 C-1.99614518 3.95498356 -1.39701383 2.33571877 0 0 Z " fill="#062B9F" transform="translate(241,32)"/>
<path d="M0 0 C0.6875 1.8125 0.6875 1.8125 1 4 C-0.1015625 5.609375 -0.1015625 5.609375 -2 7 C-5.11178321 7.40551359 -8.14910744 7.43907468 -11.28515625 7.49609375 C-12.62900391 7.74552734 -12.62900391 7.74552734 -14 8 C-15.43853133 9.93079785 -15.43853133 9.93079785 -16 12 C-15.34 11.67 -14.68 11.34 -14 11 C-13.87625 11.804375 -13.7525 12.60875 -13.625 13.4375 C-13.315625 14.7059375 -13.315625 14.7059375 -13 16 C-10.59454362 17.20272819 -9.05003047 17.10071472 -6.375 17.0625 C-5.55773437 17.05347656 -4.74046875 17.04445313 -3.8984375 17.03515625 C-3.27195313 17.02355469 -2.64546875 17.01195313 -2 17 C-2 17.66 -2 18.32 -2 19 C-3.77007714 19.08114106 -5.54122098 19.13925505 -7.3125 19.1875 C-8.29863281 19.22230469 -9.28476563 19.25710937 -10.30078125 19.29296875 C-13 19 -13 19 -14.85546875 17.48828125 C-15.23316406 16.99714844 -15.61085938 16.50601563 -16 16 C-15.34 17.65 -14.68 19.3 -14 21 C-17.875 19.25 -17.875 19.25 -19 17 C-19.43023798 13.12785818 -19.31669086 11.47503629 -17.125 8.1875 C-13.30591074 4.25608459 -9.78789354 4.7748012 -4.53125 4.57421875 C-1.84027478 4.27125969 -1.84027478 4.27125969 -0.65625 1.95703125 C-0.4396875 1.31121094 -0.223125 0.66539063 0 0 Z " fill="#092885" transform="translate(134,34)"/>
<path d="M0 0 C0 1.65 0 3.3 0 5 C2.97 5.495 2.97 5.495 6 6 C5.01 6.495 5.01 6.495 4 7 C3.34227572 10.02934491 3.34227572 10.02934491 3 13 C0.96166576 11.7260411 -1.03852126 10.38938077 -3 9 C-3 8.34 -3 7.68 -3 7 C-4.98 7 -6.96 7 -9 7 C-9.33 6.01 -9.66 5.02 -10 4 C-3.375 0 -3.375 0 0 0 Z " fill="#062EA5" transform="translate(26,29)"/>
<path d="M0 0 C1.1240625 0.00128906 2.248125 0.00257812 3.40625 0.00390625 C6.69782863 0.46522598 8.09175311 1.21223266 10.5 3.4375 C10.17 4.0975 9.84 4.7575 9.5 5.4375 C8.9225 4.9425 8.345 4.4475 7.75 3.9375 C5.39599371 2.06769987 5.39599371 2.06769987 1.5 2.4375 C4.47 3.9225 4.47 3.9225 7.5 5.4375 C7.17 6.0975 6.84 6.7575 6.5 7.4375 C6.17 7.1075 5.84 6.7775 5.5 6.4375 C3.73146708 6.33811137 1.95881725 6.30780777 0.1875 6.3125 C-1.26076172 6.30863281 -1.26076172 6.30863281 -2.73828125 6.3046875 C-5.16143705 6.42121833 -7.18644969 6.74508352 -9.5 7.4375 C-9.83 6.4475 -10.16 5.4575 -10.5 4.4375 C-7.24368504 0.40701212 -5.11356027 -0.08796262 0 0 Z " fill="#0B2784" transform="translate(126.5,26.5625)"/>
<path d="M0 0 C4.31392226 0.4793247 6.16569547 1.7457985 9 5 C7.68 4.67 6.36 4.34 5 4 C5 4.99 5 5.98 5 7 C6.918125 6.938125 6.918125 6.938125 8.875 6.875 C11.0546875 6.8046875 11.0546875 6.8046875 13 7 C13.66 7.66 14.32 8.32 15 9 C12.69 9.33 10.38 9.66 8 10 C8.66 11.65 9.32 13.3 10 15 C9.34 15 8.68 15 8 15 C7.34 13.35 6.68 11.7 6 10 C3.69 10 1.38 10 -1 10 C-1.33 9.34 -1.66 8.68 -2 8 C-0.35 7.34 1.3 6.68 3 6 C2.42655063 3.13275314 2.1385485 2.1385485 0 0 Z " fill="#133081" transform="translate(39,44)"/>
<path d="M0 0 C-0.99 0.495 -0.99 0.495 -2 1 C-2.309375 1.78375 -2.61875 2.5675 -2.9375 3.375 C-4.02543587 6.06284156 -4.61240131 7.37984375 -7 9 C-10.1875 9.1875 -10.1875 9.1875 -13 9 C-13.33 7.68 -13.66 6.36 -14 5 C-13.01 5.33 -12.02 5.66 -11 6 C-10.67 4.02 -10.34 2.04 -10 0 C-10.66 -0.33 -11.32 -0.66 -12 -1 C-7.28400182 -1.92470553 -4.32734391 -2.22923777 0 0 Z M-8 0 C-8 2.31 -8 4.62 -8 7 C-6.35 5.35 -4.7 3.7 -3 2 C-5.67642489 -0.18490007 -5.67642489 -0.18490007 -8 0 Z " fill="#113287" transform="translate(62,54)"/>
<path d="M0 0 C0.33 0 0.66 0 1 0 C1 2.97 1 5.94 1 9 C-2.3 9 -5.6 9 -9 9 C-9.33 7.35 -9.66 5.7 -10 4 C-6.47652211 3.0604059 -3.68770169 3 0 3 C0 2.01 0 1.02 0 0 Z M-2 4 C-2 5.32 -2 6.64 -2 8 C-1.34 7.34 -0.68 6.68 0 6 C-0.66 5.34 -1.32 4.68 -2 4 Z " fill="#040406" transform="translate(255,62)"/>
<path d="M0 0 C1.9451 2.91765 2.45276317 4.62537285 3 8 C4.65 8 6.3 8 8 8 C8 8.66 8 9.32 8 10 C6.02 10 4.04 10 2 10 C2 11.98 2 13.96 2 16 C1.34 16 0.68 16 0 16 C0 14.02 0 12.04 0 10 C-2.31 10 -4.62 10 -7 10 C-6.67 9.34 -6.34 8.68 -6 8 C-4.35 8 -2.7 8 -1 8 C-0.67 5.36 -0.34 2.72 0 0 Z " fill="#203A7E" transform="translate(52,15)"/>
<path d="M0 0 C2.85373834 2.85373834 2.30010758 4.90116254 2.3125 8.875 C2.32925781 10.10992187 2.34601563 11.34484375 2.36328125 12.6171875 C1.98583035 16.13194532 1.39726471 17.48255579 -1 20 C-1.66 19.67 -2.32 19.34 -3 19 C-2.67 18.34 -2.34 17.68 -2 17 C-1.79413422 14.87843877 -1.63385378 12.75231896 -1.5 10.625 C-1.26856896 6.96343029 -1.04234665 3.52660615 0 0 Z " fill="#0931A3" transform="translate(257,33)"/>
<path d="M0 0 C2.31 0 4.62 0 7 0 C7.33 0.66 7.66 1.32 8 2 C8.33 1.34 8.66 0.68 9 0 C9.66 0.33 10.32 0.66 11 1 C10.01 3.31 9.02 5.62 8 8 C7.01 7.67 6.02 7.34 5 7 C5.66 7 6.32 7 7 7 C6.67 6.34 6.34 5.68 6 5 C5.67 5.33 5.34 5.66 5 6 C3.33382885 6.04063832 1.66611905 6.042721 0 6 C-1.24546405 3.50907189 -0.7767578 2.58919267 0 0 Z " fill="#040407" transform="translate(211,65)"/>
<path d="M0 0 C0.52078125 0.65484375 1.0415625 1.3096875 1.578125 1.984375 C4.78306217 4.6517098 6.64157237 4.41433711 10.75 4.25 C11.92046875 4.21390625 13.0909375 4.1778125 14.296875 4.140625 C15.63492188 4.07101563 15.63492188 4.07101563 17 4 C17 4.66 17 5.32 17 6 C15 8 15 8 12.1796875 8.1953125 C11.08914062 8.17210937 9.99859375 8.14890625 8.875 8.125 C7.77929688 8.10695313 6.68359375 8.08890625 5.5546875 8.0703125 C4.71164063 8.04710937 3.86859375 8.02390625 3 8 C0 2.25 0 2.25 0 0 Z " fill="#092FA3" transform="translate(117,48)"/>
<path d="M0 0 C0.33 0 0.66 0 1 0 C1 6.27 1 12.54 1 19 C0.01 19.33 -0.98 19.66 -2 20 C-1.85953745 17.04132082 -1.71287776 14.08317736 -1.5625 11.125 C-1.52318359 10.28324219 -1.48386719 9.44148438 -1.44335938 8.57421875 C-1.40146484 7.76855469 -1.35957031 6.96289062 -1.31640625 6.1328125 C-1.27974854 5.38918457 -1.24309082 4.64555664 -1.20532227 3.87939453 C-1 2 -1 2 0 0 Z " fill="#06238C" transform="translate(225,36)"/>
<path d="M0 0 C1.258125 -0.04125 2.51625 -0.0825 3.8125 -0.125 C4.52019531 -0.14820312 5.22789062 -0.17140625 5.95703125 -0.1953125 C8 0 8 0 11 2 C10.67 3.32 10.34 4.64 10 6 C9.484375 5.67 8.96875 5.34 8.4375 5 C5.21973488 3.67989123 2.4429472 3.86757895 -1 4 C-0.67 2.68 -0.34 1.36 0 0 Z " fill="#0B2D85" transform="translate(245,27)"/>
<path d="M0 0 C3.8125 0.375 3.8125 0.375 5.8125 1.375 C5.4825 2.035 5.1525 2.695 4.8125 3.375 C1.8425 3.045 -1.1275 2.715 -4.1875 2.375 C-4.1875 3.035 -4.1875 3.695 -4.1875 4.375 C-1.5475 4.375 1.0925 4.375 3.8125 4.375 C3.8125 4.705 3.8125 5.035 3.8125 5.375 C-0.6425 5.87 -0.6425 5.87 -5.1875 6.375 C-5.1875 5.715 -5.1875 5.055 -5.1875 4.375 C-6.5075 4.705 -7.8275 5.035 -9.1875 5.375 C-6.36084606 1.84168257 -4.54337338 0.01655145 0 0 Z " fill="#0B2B88" transform="translate(180.1875,26.625)"/>
<path d="M0 0 C-2.31 0.33 -4.62 0.66 -7 1 C-6.34 2.65 -5.68 4.3 -5 6 C-5.66 6 -6.32 6 -7 6 C-7.66 4.35 -8.32 2.7 -9 1 C-10.65 1 -12.3 1 -14 1 C-14 0.34 -14 -0.32 -14 -1 C-12.41870971 -1.22331199 -10.83478911 -1.42804644 -9.25 -1.625 C-8.36828125 -1.74101563 -7.4865625 -1.85703125 -6.578125 -1.9765625 C-3.77140122 -2.00207817 -2.36615134 -1.44843844 0 0 Z " fill="#092487" transform="translate(54,53)"/>
<path d="M0 0 C0 0.66 0 1.32 0 2 C-2.76452033 3.38226016 -5.0461363 3.09525387 -8.125 3.0625 C-9.22070312 3.05347656 -10.31640625 3.04445313 -11.4453125 3.03515625 C-12.70988281 3.01775391 -12.70988281 3.01775391 -14 3 C-14 2.67 -14 2.34 -14 2 C-12.42085985 1.46658816 -10.83645613 0.94874237 -9.25 0.4375 C-8.36828125 0.14746094 -7.4865625 -0.14257812 -6.578125 -0.44140625 C-3.92165684 -1.01697435 -2.52968894 -0.89248371 0 0 Z " fill="#0C339A" transform="translate(214,53)"/>
<path d="M0 0 C0.99 0.33 1.98 0.66 3 1 C3 3.64 3 6.28 3 9 C2.67 8.01 2.34 7.02 2 6 C0.02 6 -1.96 6 -4 6 C-2.84826645 3.53199953 -1.95216435 1.95216435 0 0 Z " fill="#052FA8" transform="translate(103,35)"/>
<path d="M0 0 C1.32 0.66 2.64 1.32 4 2 C4 2.66 4 3.32 4 4 C4.66 4.33 5.32 4.66 6 5 C6 5.66 6 6.32 6 7 C1.2482602 6.56802365 -0.92000054 5.67230705 -4 2 C-2.68 2.33 -1.36 2.66 0 3 C0 2.01 0 1.02 0 0 Z " fill="#102C8B" transform="translate(33,40)"/>
<path d="M0 0 C0.33 0 0.66 0 1 0 C0.67 3.63 0.34 7.26 0 11 C1.65 10.67 3.3 10.34 5 10 C4.01 11.485 4.01 11.485 3 13 C0.03 12.505 0.03 12.505 -3 12 C-2.01 8.04 -1.02 4.08 0 0 Z " fill="#1C3581" transform="translate(79,34)"/>
<path d="M0 0 C-0.33 1.32 -0.66 2.64 -1 4 C-2.98 4 -4.96 4 -7 4 C-7.33 4.99 -7.66 5.98 -8 7 C-8.66 6.67 -9.32 6.34 -10 6 C-10 5.34 -10 4.68 -10 4 C-3.375 0 -3.375 0 0 0 Z " fill="#0C2C83" transform="translate(26,29)"/>
<path d="M0 0 C1.32 0 2.64 0 4 0 C4 3.11257569 3.82638376 5.10765685 3 8 C1.68 8 0.36 8 -1 8 C-0.67 7.34 -0.34 6.68 0 6 C0.66 6.33 1.32 6.66 2 7 C1.484375 6.5875 0.96875 6.175 0.4375 5.75 C-0.036875 5.1725 -0.51125 4.595 -1 4 C-0.6875 1.8125 -0.6875 1.8125 0 0 Z " fill="#06050E" transform="translate(202,63)"/>
<path d="M0 0 C0 1.98 0 3.96 0 6 C-0.99 5.67 -1.98 5.34 -3 5 C-3.33 4.01 -3.66 3.02 -4 2 C-4.66 2 -5.32 2 -6 2 C-6.33 3.32 -6.66 4.64 -7 6 C-7 4.02 -7 2.04 -7 0 C-3.98968256 -0.93423645 -3.13349732 -1.04449911 0 0 Z " fill="#040407" transform="translate(244,65)"/>
<path d="M0 0 C0.66 0 1.32 0 2 0 C2.66 0.99 3.32 1.98 4 3 C7.55672179 4.2188121 7.55672179 4.2188121 11 5 C11 5.66 11 6.32 11 7 C8.03 6.67 5.06 6.34 2 6 C1.34 4.02 0.68 2.04 0 0 Z " fill="#062DA7" transform="translate(171,48)"/>
<path d="M0 0 C1.65 0.33 3.3 0.66 5 1 C4.67 2.65 4.34 4.3 4 6 C2.35 5.67 0.7 5.34 -1 5 C-0.67 3.35 -0.34 1.7 0 0 Z M1 1 C1 2.32 1 3.64 1 5 C1.66 5 2.32 5 3 5 C2.67 3.68 2.34 2.36 2 1 C1.67 1 1.34 1 1 1 Z " fill="#050507" transform="translate(231,65)"/>
<path d="M0 0 C1.32 0 2.64 0 4 0 C4 2.66666667 4 5.33333333 4 8 C2.68 8 1.36 8 0 8 C0.33 7.34 0.66 6.68 1 6 C0.67 5.34 0.34 4.68 0 4 C0 2.68 0 1.36 0 0 Z " fill="#040507" transform="translate(225,63)"/>
<path d="M0 0 C1.11375 0.185625 2.2275 0.37125 3.375 0.5625 C6.82568861 1.31680657 6.82568861 1.31680657 9 0 C8.34 1.32 7.68 2.64 7 4 C5.02 4 3.04 4 1 4 C0.67 2.68 0.34 1.36 0 0 Z " fill="#153B9F" transform="translate(48,59)"/>
<path d="M0 0 C2.475 0.495 2.475 0.495 5 1 C4.67 2.32 4.34 3.64 4 5 C2.68 4.67 1.36 4.34 0 4 C0 2.68 0 1.36 0 0 Z " fill="#223A84" transform="translate(259,51)"/>
<path d="M0 0 C1.43836751 0.11458693 2.87570966 0.24209116 4.3125 0.375 C5.51326172 0.47941406 5.51326172 0.47941406 6.73828125 0.5859375 C9 1 9 1 12 3 C11.67 3.66 11.34 4.32 11 5 C10.484375 4.67 9.96875 4.34 9.4375 4 C6.21973488 2.67989123 3.4429472 2.86757895 0 3 C0 2.01 0 1.02 0 0 Z " fill="#072FA6" transform="translate(244,28)"/>
<path d="M0 0 C1.32 0 2.64 0 4 0 C3.67 1.65 3.34 3.3 3 5 C1.68 4.67 0.36 4.34 -1 4 C-0.67 2.68 -0.34 1.36 0 0 Z " fill="#0D2566" transform="translate(75,16)"/>
<path d="M0 0 C0.99 0.33 1.98 0.66 3 1 C3 2.98 3 4.96 3 7 C2.01 7 1.02 7 0 7 C-0.38133299 5.0085944 -0.71325582 3.00720923 -1 1 C-0.67 0.67 -0.34 0.34 0 0 Z " fill="#05040B" transform="translate(207,64)"/>
<path d="M0 0 C0.99 0 1.98 0 3 0 C3 2.31 3 4.62 3 7 C2.01 7 1.02 7 0 7 C0 4.69 0 2.38 0 0 Z " fill="#0E34A0" transform="translate(93,48)"/>
<path d="M0 0 C0.99 0.66 1.98 1.32 3 2 C2.67 2.99 2.34 3.98 2 5 C0.68 5 -0.64 5 -2 5 C-2 4.01 -2 3.02 -2 2 C-1.34 2 -0.68 2 0 2 C0 1.34 0 0.68 0 0 Z " fill="#062281" transform="translate(217,51)"/>
<path d="M0 0 C1.32 0.33 2.64 0.66 4 1 C3.67 1.99 3.34 2.98 3 4 C3.33 4.99 3.66 5.98 4 7 C3.34 7 2.68 7 2 7 C2 6.34 2 5.68 2 5 C1.34 5 0.68 5 0 5 C0 3.35 0 1.7 0 0 Z " fill="#03268F" transform="translate(45,38)"/>
<path d="M0 0 C0.66 0 1.32 0 2 0 C2 0.66 2 1.32 2 2 C1.34 2 0.68 2 0 2 C0 1.34 0 0.68 0 0 Z " fill="#010101" transform="translate(257,69)"/>
</svg>
