<?xml version="1.0" encoding="UTF-8"?>
<svg version="1.1" xmlns="http://www.w3.org/2000/svg" width="450" height="240">
<path d="M0 0 C1.01840973 -0.00637985 2.03681946 -0.0127597 3.08609009 -0.01933289 C4.19640594 -0.02044571 5.3067218 -0.02155853 6.45068359 -0.02270508 C7.58686127 -0.02603348 8.72303894 -0.02936188 9.89364624 -0.03279114 C12.30637201 -0.0378674 14.71910483 -0.04019925 17.13183594 -0.04003906 C20.81245671 -0.04221466 24.49277261 -0.06033298 28.17333984 -0.0793457 C30.51578673 -0.0822817 32.85823505 -0.08426512 35.20068359 -0.08520508 C36.29885406 -0.09239059 37.39702454 -0.09957611 38.5284729 -0.10697937 C47.49774138 -0.08037712 53.70245388 0.7991816 60.43115234 7.09838867 C68.29951728 16.08101008 68.53615974 28.96161917 68.34912109 40.27026367 C68.34009766 41.32213867 68.33107422 42.37401367 68.32177734 43.45776367 C68.29847963 46.02051245 68.26577221 48.58275879 68.22412109 51.14526367 C69.21412109 51.14526367 70.20412109 51.14526367 71.22412109 51.14526367 C73.00971221 54.89769011 73.40145359 57.1422132 72.59912109 61.20776367 C72.40060547 62.23901367 72.20208984 63.27026367 71.99755859 64.33276367 C71.74232422 65.59088867 71.48708984 66.84901367 71.22412109 68.14526367 C70.90217182 69.8532893 70.58198333 71.56164739 70.26318359 73.27026367 C69.91789138 75.08296628 69.57153362 76.89546624 69.22412109 78.70776367 C68.9754126 80.02949585 68.9754126 80.02949585 68.72167969 81.37792969 C68.55748535 82.20993896 68.39329102 83.04194824 68.22412109 83.89916992 C68.07974609 84.64497314 67.93537109 85.39077637 67.78662109 86.15917969 C67.22412109 88.14526367 67.22412109 88.14526367 65.22412109 91.14526367 C62.36669922 91.51757812 62.36669922 91.51757812 58.75537109 91.50854492 C57.46244141 91.50790039 56.16951172 91.50725586 54.83740234 91.5065918 C54.16273926 91.49829346 53.48807617 91.48999512 52.79296875 91.48144531 C50.73186158 91.45785228 48.67204769 91.46088342 46.61083984 91.4675293 C36.49089349 91.41203607 36.49089349 91.41203607 34.22412109 89.14526367 C33.98120117 86.98828125 33.98120117 86.98828125 33.99365234 84.28979492 C33.99518311 83.2852124 33.99671387 82.28062988 33.99829102 81.24560547 C34.01093994 80.16061768 34.02358887 79.07562988 34.03662109 77.95776367 C34.04089111 76.84892822 34.04516113 75.74009277 34.04956055 74.59765625 C34.09282432 68.89290302 34.24482656 63.20877917 34.56005859 57.51245117 C34.61701904 56.47241943 34.67397949 55.4323877 34.73266602 54.36083984 C34.84998852 52.37564059 34.9824359 50.39126468 35.1315918 48.40820312 C35.18661865 47.51061279 35.24164551 46.61302246 35.29833984 45.68823242 C35.35594482 44.90472412 35.4135498 44.12121582 35.47290039 43.31396484 C35.14754396 40.47771245 34.16919559 39.20095317 32.22412109 37.14526367 C28.75086929 35.98751307 25.86344662 36.07659715 22.22412109 36.14526367 C22.36849609 37.26803711 22.51287109 38.39081055 22.66162109 39.54760742 C23.82554107 48.8247648 24.73964147 57.62675037 23.72412109 66.95776367 C22.3467933 77.88012733 22.3467933 77.88012733 25.22412109 88.14526367 C25.22412109 89.13526367 25.22412109 90.12526367 25.22412109 91.14526367 C24.65048828 91.07307617 24.07685547 91.00088867 23.48583984 90.92651367 C16.14286733 90.12424657 8.88771913 90.07657754 1.51196289 90.18237305 C-0.58390558 90.20435694 -2.68016882 90.17913373 -4.77587891 90.14526367 C-5.77587891 89.14526367 -5.77587891 89.14526367 -5.87594604 87.29454041 C-5.86467682 86.4859407 -5.85340759 85.677341 -5.84179688 84.84423828 C-5.83203827 83.92916 -5.82227966 83.01408173 -5.81222534 82.0712738 C-5.79036667 80.57455894 -5.79036667 80.57455894 -5.76806641 79.04760742 C-5.75053481 76.94539883 -5.73362802 74.84318496 -5.71728516 72.7409668 C-5.68642985 69.41863436 -5.65107242 66.09656528 -5.60449219 62.77441406 C-5.56192865 59.57377939 -5.53863751 56.37344922 -5.51806641 53.17260742 C-5.4994455 52.18896713 -5.48082458 51.20532684 -5.4616394 50.19187927 C-5.43933684 44.14122014 -6.11934569 39.6204862 -8.77587891 34.14526367 C-11.30632496 32.56148965 -11.30632496 32.56148965 -13.77587891 32.14526367 C-13.56169318 27.51885207 -13.21678927 23.53270519 -10.90087891 19.45776367 C-8.19689354 14.62008803 -7.41382819 9.42228138 -6.38916016 4.02416992 C-5.42360586 -0.50840023 -4.3419723 0.0183807 0 0 Z " fill="#E91C24" transform="translate(176.77587890625,65.854736328125)"/>
<path d="M0 0 C1.98690902 1.47376103 3.79514369 3.06788035 5.640625 4.71484375 C6.53523438 5.37484375 7.42984375 6.03484375 8.3515625 6.71484375 C17.28228556 13.41887179 22.66409903 21.01267145 24.3984375 32.1796875 C25.64881471 45.26831349 23.87401328 55.8909474 15.55859375 66.328125 C6.33833362 76.93063878 -3.51433785 82.30180266 -17.359375 84.71484375 C-23.19177735 85.0437607 -27.83442549 84.34910198 -33.359375 82.52734375 C-34.05417969 82.30393311 -34.74898438 82.08052246 -35.46484375 81.8503418 C-40.63557667 80.11686086 -45.01040816 78.06717236 -49.359375 74.71484375 C-49.359375 74.05484375 -49.359375 73.39484375 -49.359375 72.71484375 C-50.23916016 72.35712891 -50.23916016 72.35712891 -51.13671875 71.9921875 C-53.81610741 70.45236309 -55.09887074 68.76103412 -56.921875 66.27734375 C-59.28209063 63.06744899 -59.28209063 63.06744899 -61.97265625 60.14453125 C-67.85064538 54.08440725 -67.59629329 44.96360732 -67.5 37.171875 C-67.04057382 25.87764797 -61.6314598 15.38674574 -53.359375 7.71484375 C-52.78574219 7.16699219 -52.21210938 6.61914062 -51.62109375 6.0546875 C-37.62452129 -6.4137232 -16.602577 -9.04345668 0 0 Z M-32.359375 36.71484375 C-34.29164044 39.84265804 -34.57744328 41.62545888 -33.796875 45.21484375 C-32.97935354 48.34096355 -32.37556065 49.69580181 -30.234375 52.21484375 C-24.95967072 54.96686337 -21.1159412 55.23317476 -15.546875 53.58984375 C-12.14337991 51.58778781 -10.88863734 50.31310809 -9.359375 46.71484375 C-9.359375 45.72484375 -9.359375 44.73484375 -9.359375 43.71484375 C-10.349375 43.05484375 -11.339375 42.39484375 -12.359375 41.71484375 C-13.03876674 39.71913052 -13.70499059 37.71889602 -14.359375 35.71484375 C-17.07930717 32.42825904 -18.85086117 31.7648615 -23.171875 31.33984375 C-27.75698671 31.38977237 -29.5492201 33.0781727 -32.359375 36.71484375 Z " fill="#EA1C25" transform="translate(397.359375,70.28515625)"/>
<path d="M0 0 C1.25159912 0.00523682 2.50319824 0.01047363 3.79272461 0.01586914 C4.78942421 0.01799156 4.78942421 0.01799156 5.80625916 0.02015686 C7.93590735 0.02577021 10.06545175 0.03832485 12.19506836 0.05102539 C13.63582205 0.05603868 15.07657739 0.06060188 16.51733398 0.06469727 C20.05577938 0.07574394 23.59416375 0.09301747 27.13256836 0.11352539 C27.13256836 1.10352539 27.13256836 2.09352539 27.13256836 3.11352539 C26.47256836 3.77352539 25.81256836 4.43352539 25.13256836 5.11352539 C24.89003023 7.32425516 24.89003023 7.32425516 25.00756836 9.73852539 C25.02561523 10.55579102 25.04366211 11.37305664 25.06225586 12.21508789 C25.08545898 12.84157227 25.10866211 13.46805664 25.13256836 14.11352539 C26.78256836 14.11352539 28.43256836 14.11352539 30.13256836 14.11352539 C31.78256836 10.81352539 33.43256836 7.51352539 35.13256836 4.11352539 C34.14256836 3.12352539 33.15256836 2.13352539 32.13256836 1.11352539 C33.13256836 0.11352539 33.13256836 0.11352539 36.64257812 0 C38.20305258 0.00015913 39.76353229 0.00585397 41.32397461 0.01586914 C42.14381332 0.01728409 42.96365204 0.01869904 43.80833435 0.02015686 C46.43728218 0.0257725 49.06614609 0.0383276 51.69506836 0.05102539 C53.47306192 0.05603838 55.25105682 0.06060163 57.02905273 0.06469727 C61.39692381 0.07574701 65.76473184 0.09302208 70.13256836 0.11352539 C69.35517497 4.59753804 67.84267008 7.68262056 65.50756836 11.61352539 C64.78093783 12.85230607 64.05570896 14.09190985 63.33178711 15.33227539 C62.78143799 16.27200195 62.78143799 16.27200195 62.2199707 17.23071289 C59.39616884 22.12006178 56.75785126 27.11551844 54.13256836 32.11352539 C53.57182617 33.12930664 53.01108398 34.14508789 52.43334961 35.19165039 C50.40853882 39.73987402 50.96994443 43.35733659 52.13256836 48.11352539 C53.22379348 50.68946572 54.47278305 53.10163826 55.81616211 55.55493164 C57.1557557 58.15859278 58.08725971 60.71166335 59.00756836 63.48852539 C62.15020502 72.39688657 65.90678949 80.21722844 74.13256836 85.11352539 C75.00756836 87.86352539 75.00756836 87.86352539 75.13256836 90.11352539 C72.36980659 89.59084073 69.80648076 89.00482953 67.13256836 88.11352539 C65.11460084 88.02127136 63.09402992 87.98185917 61.07397461 87.97290039 C59.88352539 87.95356445 58.69307617 87.93422852 57.46655273 87.91430664 C54.95629742 87.88050724 52.44578423 87.86222743 49.93530273 87.85961914 C48.74356445 87.83512695 47.55182617 87.81063477 46.32397461 87.78540039 C45.23286377 87.77605469 44.14175293 87.76670898 43.01757812 87.75708008 C39.19200775 86.90371598 38.23987193 85.3334045 36.13256836 82.11352539 C34.84472535 80.07444063 33.5947045 78.01100315 32.38256836 75.92602539 C31.76897461 74.8805957 31.15538086 73.83516602 30.52319336 72.75805664 C29.13256836 70.11352539 29.13256836 70.11352539 29.13256836 68.11352539 C27.48256836 68.11352539 25.83256836 68.11352539 24.13256836 68.11352539 C24.13256836 73.72352539 24.13256836 79.33352539 24.13256836 85.11352539 C20.0146268 86.48617258 15.8859951 86.46303444 11.58178711 86.63110352 C7.94402635 86.82124288 6.23641907 87.04429158 3.13256836 89.11352539 C0.80057448 89.19257603 -1.53575786 89.20151308 -3.86743164 89.11352539 C-5.38406196 86.08026476 -4.96819364 82.9449776 -4.92993164 79.62133789 C-4.92425171 78.50781448 -4.92425171 78.50781448 -4.91845703 77.37179565 C-4.90209224 74.19172483 -4.87402056 71.01178172 -4.84692383 67.83178711 C-4.82882375 65.51164343 -4.81673615 63.19152078 -4.80493164 60.87133789 C-4.7966333 60.15454865 -4.78833496 59.4377594 -4.77978516 58.69924927 C-4.76325522 55.32668911 -4.93839599 52.35415151 -5.86743164 49.11352539 C-5.6720907 46.12938073 -5.42192523 43.15927201 -5.12133789 40.18383789 C-6.28030664 35.41446912 -9.864083 33.64569271 -13.86743164 31.11352539 C-13.63556152 30.45344482 -13.40369141 29.79336426 -13.16479492 29.11328125 C-12.10525752 26.09325547 -11.0488213 23.0721536 -9.99243164 20.05102539 C-9.62762695 19.01268555 -9.26282227 17.9743457 -8.88696289 16.90454102 C-6.63373745 10.46345265 -6.63373745 10.46345265 -4.67211914 3.92993164 C-3.58988966 0.14212845 -3.58988966 0.14212845 0 0 Z " fill="#E91C24" transform="translate(262.867431640625,66.886474609375)"/>
<path d="M0 0 C4.23582327 -0.04938628 8.47149465 -0.08571263 12.70751953 -0.10986328 C14.14895547 -0.11992963 15.59037095 -0.1335838 17.03173828 -0.15087891 C19.10193934 -0.17510012 21.17187076 -0.18647641 23.2421875 -0.1953125 C25.11173096 -0.21102295 25.11173096 -0.21102295 27.01904297 -0.22705078 C30 0 30 0 32 2 C30.35 2.33 28.7 2.66 27 3 C27.24447876 3.86963379 27.24447876 3.86963379 27.49389648 4.75683594 C28.27677556 8.22673123 28.10312359 11.712623 28.0625 15.25 C28.05798828 15.99507812 28.05347656 16.74015625 28.04882812 17.5078125 C28.03709246 19.3385764 28.0191585 21.16929873 28 23 C28.66 23.33 29.32 23.66 30 24 C30.26554687 23.15179688 30.53109375 22.30359375 30.8046875 21.4296875 C32.04440466 17.87259054 33.52482616 14.53406601 35.125 11.125 C35.66382813 9.97257812 36.20265625 8.82015625 36.7578125 7.6328125 C37.16773438 6.76398438 37.57765625 5.89515625 38 5 C37.01 4.67 36.02 4.34 35 4 C35.33 2.68 35.66 1.36 36 0 C49.2 0 62.4 0 76 0 C75.34 1.32 74.68 2.64 74 4 C73.06929688 4.24363281 72.13859375 4.48726563 71.1796875 4.73828125 C66.48274352 6.60205632 65.30322514 9.80511847 63.125 14.1875 C62.7228125 14.93064453 62.320625 15.67378906 61.90625 16.43945312 C59.44446955 21.21647948 58.761113 24.54541357 59 30 C58.1953125 32.29296875 58.1953125 32.29296875 57.125 34.1875 C56.77695313 34.82042969 56.42890625 35.45335937 56.0703125 36.10546875 C55.71710938 36.73066406 55.36390625 37.35585937 55 38 C54.3268418 39.33006776 53.65835022 40.66254076 53 42 C52.01 41.01 51.02 40.02 50 39 C49.67 39.99 49.34 40.98 49 42 C50.37168238 44.19038423 50.37168238 44.19038423 52 46 C52.66 45.67 53.32 45.34 54 45 C57.94996237 48.61747883 60.12818478 53.23190684 62.6875 57.875 C63.19861328 58.77347656 63.70972656 59.67195313 64.23632812 60.59765625 C64.96045898 61.90669922 64.96045898 61.90669922 65.69921875 63.2421875 C66.14096436 64.0347998 66.58270996 64.82741211 67.0378418 65.64404297 C68.12730337 68.3117172 68.16757256 70.14187783 68 73 C68 76.88836727 68.06454992 77.55852019 70 80.5625 C72 84 72 84 72 87 C67.94343719 87.1238616 63.88761022 87.21445733 59.82958984 87.2746582 C58.45016298 87.2997593 57.07086858 87.33384873 55.69189453 87.37719727 C53.70664128 87.43802875 51.72040641 87.46357937 49.734375 87.48828125 C47.94338379 87.52755737 47.94338379 87.52755737 46.11621094 87.56762695 C43 87 43 87 40.72216797 84.70288086 C40.15385254 83.81093018 39.58553711 82.91897949 39 82 C38.3819751 81.04528809 38.3819751 81.04528809 37.75146484 80.07128906 C37.40809082 79.47541992 37.0647168 78.87955078 36.7109375 78.265625 C36.32679687 77.60949219 35.94265625 76.95335937 35.546875 76.27734375 C34.7568984 74.91068423 33.96785553 73.5434846 33.1796875 72.17578125 C31.2120667 68.48021045 31.2120667 68.48021045 28 66 C27.67 72.6 27.34 79.2 27 86 C22.98038839 88.00980581 21.46807628 88.23947017 17.140625 88.1953125 C16.02558594 88.18886719 14.91054688 88.18242187 13.76171875 88.17578125 C12.60285156 88.15902344 11.44398437 88.14226562 10.25 88.125 C9.07566406 88.11597656 7.90132812 88.10695313 6.69140625 88.09765625 C3.79406464 88.07410063 0.89713559 88.04120652 -2 88 C-1.125 83.25 -1.125 83.25 0 81 C0.21377721 75.39296787 0.21377721 75.39296787 -1 70 C-1.06938235 68.53013497 -1.08455626 67.05727384 -1.0625 65.5859375 C-1.05476563 64.74289063 -1.04703125 63.89984375 -1.0390625 63.03125 C-1.02617187 62.1546875 -1.01328125 61.278125 -1 60.375 C-0.97460456 58.63287303 -0.95353287 56.89067579 -0.9375 55.1484375 C-0.92589844 54.37677246 -0.91429687 53.60510742 -0.90234375 52.81005859 C-0.79907045 50.97826772 -0.79907045 50.97826772 -2 50 C-2.21035905 47.87887958 -2.36850101 45.75246581 -2.5 43.625 C-2.71580047 40.14907092 -2.8975492 37.3073524 -4 34 C-4.825 33.67 -5.65 33.34 -6.5 33 C-7.325 32.67 -8.15 32.34 -9 32 C-10.28497537 28.14507389 -9.4052209 26.59653164 -8.0625 22.8125 C-7.68222656 21.72582031 -7.30195313 20.63914062 -6.91015625 19.51953125 C-6.60980469 18.68808594 -6.30945313 17.85664062 -6 17 C-4.68 17 -3.36 17 -2 17 C-1.505 15.2984375 -1.505 15.2984375 -1 13.5625 C-0.7215625 12.60537109 -0.7215625 12.60537109 -0.4375 11.62890625 C0.20689356 7.75679138 0.07613328 3.91610555 0 0 Z " fill="#EA1B23" transform="translate(21,66)"/>
<path d="M0 0 C-0.4790727 5.38956787 -1.96417769 9.95523582 -3.8828125 15.00390625 C-5.44086803 19.1823279 -6.79893978 23.42061812 -8.16796875 27.6640625 C-9 30 -9 30 -10 31 C-11.41327947 31.15620555 -12.8335459 31.25056173 -14.25390625 31.31640625 C-15.10791016 31.35830078 -15.96191406 31.40019531 -16.84179688 31.44335938 C-18.18854492 31.50233398 -18.18854492 31.50233398 -19.5625 31.5625 C-20.46419922 31.60568359 -21.36589844 31.64886719 -22.29492188 31.69335938 C-24.52978485 31.79978142 -26.76476308 31.90179988 -29 32 C-29.33 33.98 -29.66 35.96 -30 38 C-25.8744331 37.89051894 -21.74981122 37.75979775 -17.625 37.625 C-16.449375 37.5940625 -15.27375 37.563125 -14.0625 37.53125 C-12.94101563 37.49257812 -11.81953125 37.45390625 -10.6640625 37.4140625 C-9.62717285 37.3826416 -8.5902832 37.3512207 -7.52197266 37.31884766 C-4.83190165 37.24045528 -4.83190165 37.24045528 -3 35 C-1.68 35 -0.36 35 1 35 C0.26905294 40.05485927 -1.68380904 44.59903179 -3.5625 49.3125 C-3.89185547 50.14845703 -4.22121094 50.98441406 -4.56054688 51.84570312 C-5.36998877 53.89863546 -6.18323457 55.94997286 -7 58 C-5.68 58.33 -4.36 58.66 -3 59 C-1.26371004 64.12519326 -2.92372142 68.38815976 -4.375 73.375 C-4.8449493 75.02756895 -5.31116309 76.68120524 -5.7734375 78.3359375 C-5.99483398 79.12581055 -6.21623047 79.91568359 -6.44433594 80.72949219 C-6.95775767 82.82739293 -7.25550561 84.83153309 -7.4765625 86.9765625 C-7.64929688 87.97429687 -7.82203125 88.97203125 -8 90 C-8.99 90.66 -9.98 91.32 -11 92 C-11.33 91.67 -11.66 91.34 -12 91 C-14.90691851 90.7927307 -17.79596234 90.64488369 -20.70703125 90.53515625 C-22.50847379 90.45661499 -24.30990578 90.37783129 -26.11132812 90.29882812 C-28.96187359 90.17924714 -31.81247876 90.06250084 -34.66333008 89.95043945 C-37.40746233 89.84073128 -40.15093144 89.71986794 -42.89453125 89.59765625 C-44.17128471 89.55222435 -44.17128471 89.55222435 -45.47383118 89.50587463 C-46.27113144 89.46921188 -47.0684317 89.43254913 -47.88989258 89.39477539 C-48.58858963 89.36670303 -49.28728668 89.33863068 -50.00715637 89.30970764 C-52.35604858 88.94466652 -53.99318912 88.27009019 -56 87 C-57.7380415 80.20812233 -57.02717618 72.6695912 -56.81640625 65.6875 C-56.79701996 64.97811279 -56.77763367 64.26872559 -56.75765991 63.5378418 C-56.59198533 57.59398356 -56.59198533 57.59398356 -56.45141602 54.76220703 C-55.63964534 46.32129254 -55.63964534 46.32129254 -58.76806641 38.98071289 C-60.89168427 37.61412775 -60.89168427 37.61412775 -63.14331055 36.78149414 C-65 36 -65 36 -66.25 33.4375 C-66 31 -66 31 -64.1875 29.41796875 C-61.07869655 25.98163065 -60.10417477 22.24843178 -58.75 17.875 C-58.481875 17.05128906 -58.21375 16.22757813 -57.9375 15.37890625 C-56.51621844 11.26778501 -56.51621844 11.26778501 -56 7 C-56.99 7 -57.98 7 -59 7 C-58.67 5.35 -58.34 3.7 -58 2 C-46.78 1.67 -35.56 1.34 -24 1 C-24.99 2.65 -25.98 4.3 -27 6 C-25.35 5.67 -23.7 5.34 -22 5 C-21.67 3.68 -21.34 2.36 -21 1 C-18.43761495 0.83138242 -15.87511576 0.66504227 -13.3125 0.5 C-12.59126953 0.45230469 -11.87003906 0.40460938 -11.12695312 0.35546875 C-7.41171286 0.11796481 -3.72305126 -0.05874637 0 0 Z M-29 57 C-29.74664647 59.97980236 -29.74664647 59.97980236 -30 63 C-28.44393249 64.55606751 -26.94042629 64.12970769 -24.78125 64.1328125 C-23.93175781 64.13410156 -23.08226562 64.13539063 -22.20703125 64.13671875 C-21.31371094 64.13285156 -20.42039062 64.12898438 -19.5 64.125 C-18.16001953 64.13080078 -18.16001953 64.13080078 -16.79296875 64.13671875 C-15.51873047 64.13478516 -15.51873047 64.13478516 -14.21875 64.1328125 C-13.43435547 64.13168457 -12.64996094 64.13055664 -11.84179688 64.12939453 C-9.98247012 64.20107442 -9.98247012 64.20107442 -9 63 C-8.83333333 60 -8.83333333 60 -9 57 C-10.87634259 55.12365741 -13.540825 55.86753809 -16.03320312 55.86328125 C-16.82662109 55.86714844 -17.62003906 55.87101562 -18.4375 55.875 C-19.22705078 55.87113281 -20.01660156 55.86726563 -20.83007812 55.86328125 C-25.04870745 55.75867531 -25.04870745 55.75867531 -29 57 Z " fill="#E91B23" transform="translate(158,64)"/>
<path d="M0 0 C1.01840973 -0.00637985 2.03681946 -0.0127597 3.08609009 -0.01933289 C4.19640594 -0.02044571 5.3067218 -0.02155853 6.45068359 -0.02270508 C7.58686127 -0.02603348 8.72303894 -0.02936188 9.89364624 -0.03279114 C12.30637201 -0.0378674 14.71910483 -0.04019925 17.13183594 -0.04003906 C20.81245671 -0.04221466 24.49277261 -0.06033298 28.17333984 -0.0793457 C30.51578673 -0.0822817 32.85823505 -0.08426512 35.20068359 -0.08520508 C36.29885406 -0.09239059 37.39702454 -0.09957611 38.5284729 -0.10697937 C47.49774138 -0.08037712 53.70245388 0.7991816 60.43115234 7.09838867 C68.29951728 16.08101008 68.53615974 28.96161917 68.34912109 40.27026367 C68.34009766 41.32213867 68.33107422 42.37401367 68.32177734 43.45776367 C68.29847963 46.02051245 68.26577221 48.58275879 68.22412109 51.14526367 C69.21412109 51.14526367 70.20412109 51.14526367 71.22412109 51.14526367 C73.00971221 54.89769011 73.40145359 57.1422132 72.59912109 61.20776367 C72.40060547 62.23901367 72.20208984 63.27026367 71.99755859 64.33276367 C71.74232422 65.59088867 71.48708984 66.84901367 71.22412109 68.14526367 C70.90217182 69.8532893 70.58198333 71.56164739 70.26318359 73.27026367 C69.91789138 75.08296628 69.57153362 76.89546624 69.22412109 78.70776367 C68.9754126 80.02949585 68.9754126 80.02949585 68.72167969 81.37792969 C68.55748535 82.20993896 68.39329102 83.04194824 68.22412109 83.89916992 C68.07974609 84.64497314 67.93537109 85.39077637 67.78662109 86.15917969 C67.22412109 88.14526367 67.22412109 88.14526367 65.22412109 91.14526367 C62.36669922 91.51757812 62.36669922 91.51757812 58.75537109 91.50854492 C57.46244141 91.50790039 56.16951172 91.50725586 54.83740234 91.5065918 C54.16273926 91.49829346 53.48807617 91.48999512 52.79296875 91.48144531 C50.73186158 91.45785228 48.67204769 91.46088342 46.61083984 91.4675293 C36.49089349 91.41203607 36.49089349 91.41203607 34.22412109 89.14526367 C33.98120117 86.97241211 33.98120117 86.97241211 33.99365234 84.25463867 C33.99494141 83.24457764 33.99623047 82.2345166 33.99755859 81.19384766 C34.01044922 80.10531494 34.02333984 79.01678223 34.03662109 77.89526367 C34.04306641 76.78675049 34.04951172 75.6782373 34.05615234 74.53613281 C34.15453605 63.72545411 34.62391114 52.93832481 35.22412109 42.14526367 C35.88412109 41.81526367 36.54412109 41.48526367 37.22412109 41.14526367 C38.02233925 43.95720168 38.34665741 46.44349652 38.33764648 49.36303711 C38.33757095 50.18358582 38.33749542 51.00413452 38.3374176 51.84954834 C38.33225632 52.72572815 38.32709503 53.60190796 38.32177734 54.50463867 C38.3203624 55.40901672 38.31894745 56.31339478 38.31748962 57.24517822 C38.3119002 60.12857394 38.29934962 63.0118915 38.28662109 65.89526367 C38.28160473 67.8522938 38.27704206 69.80932515 38.27294922 71.76635742 C38.2627859 76.55938038 38.24320838 81.35223472 38.22412109 86.14526367 C46.47412109 86.14526367 54.72412109 86.14526367 63.22412109 86.14526367 C63.55412109 83.50526367 63.88412109 80.86526367 64.22412109 78.14526367 C64.81316818 75.96247448 65.45704793 73.79354713 66.16162109 71.64526367 C67.70086154 66.83723624 69.0681098 62.05831169 70.22412109 57.14526367 C67.91412109 56.81526367 65.60412109 56.48526367 63.22412109 56.14526367 C63.22001221 55.13737793 63.21590332 54.12949219 63.21166992 53.09106445 C63.18969356 49.30719717 63.13521752 45.52434272 63.0715332 41.7409668 C63.04851286 40.11183471 63.03399541 38.48255716 63.02856445 36.85327148 C63.10491061 21.89240944 63.10491061 21.89240944 55.51831055 9.44970703 C50.01303934 5.33837362 44.35017062 5.55015657 37.72412109 5.83276367 C36.71091797 5.85532227 35.69771484 5.87788086 34.65380859 5.90112305 C32.17659825 5.95954782 29.70015792 6.04921052 27.22412109 6.14526367 C25.57412109 10.43526367 23.92412109 14.72526367 22.22412109 19.14526367 C21.89412109 19.14526367 21.56412109 19.14526367 21.22412109 19.14526367 C21.22412109 14.52526367 21.22412109 9.90526367 21.22412109 5.14526367 C13.30412109 5.47526367 5.38412109 5.80526367 -2.77587891 6.14526367 C-5.41587891 14.39526367 -8.05587891 22.64526367 -10.77587891 31.14526367 C-8.46587891 31.80526367 -6.15587891 32.46526367 -3.77587891 33.14526367 C-3.77587891 50.63526367 -3.77587891 68.12526367 -3.77587891 86.14526367 C4.47412109 86.14526367 12.72412109 86.14526367 21.22412109 86.14526367 C21.22412109 85.48526367 21.22412109 84.82526367 21.22412109 84.14526367 C21.88412109 84.14526367 22.54412109 84.14526367 23.22412109 84.14526367 C24.6847496 86.79265284 25.22412109 88.03974701 25.22412109 91.14526367 C24.65048828 91.07307617 24.07685547 91.00088867 23.48583984 90.92651367 C16.14286733 90.12424657 8.88771913 90.07657754 1.51196289 90.18237305 C-0.58390558 90.20435694 -2.68016882 90.17913373 -4.77587891 90.14526367 C-5.77587891 89.14526367 -5.77587891 89.14526367 -5.87594604 87.29454041 C-5.86467682 86.4859407 -5.85340759 85.677341 -5.84179688 84.84423828 C-5.83203827 83.92916 -5.82227966 83.01408173 -5.81222534 82.0712738 C-5.79036667 80.57455894 -5.79036667 80.57455894 -5.76806641 79.04760742 C-5.75053481 76.94539883 -5.73362802 74.84318496 -5.71728516 72.7409668 C-5.68642985 69.41863436 -5.65107242 66.09656528 -5.60449219 62.77441406 C-5.56192865 59.57377939 -5.53863751 56.37344922 -5.51806641 53.17260742 C-5.4994455 52.18896713 -5.48082458 51.20532684 -5.4616394 50.19187927 C-5.43933684 44.14122014 -6.11934569 39.6204862 -8.77587891 34.14526367 C-11.30632496 32.56148965 -11.30632496 32.56148965 -13.77587891 32.14526367 C-13.56169318 27.51885207 -13.21678927 23.53270519 -10.90087891 19.45776367 C-8.19689354 14.62008803 -7.41382819 9.42228138 -6.38916016 4.02416992 C-5.42360586 -0.50840023 -4.3419723 0.0183807 0 0 Z " fill="#F6F1F3" transform="translate(176.77587890625,65.854736328125)"/>
<path d="M0 0 C1.98690902 1.47376103 3.79514369 3.06788035 5.640625 4.71484375 C6.53523438 5.37484375 7.42984375 6.03484375 8.3515625 6.71484375 C17.28228556 13.41887179 22.66409903 21.01267145 24.3984375 32.1796875 C25.64881471 45.26831349 23.87401328 55.8909474 15.55859375 66.328125 C9.50178472 73.29293947 3.46372729 78.66069296 -5.359375 81.71484375 C-6.349375 81.38484375 -7.339375 81.05484375 -8.359375 80.71484375 C-7.51375 80.31394531 -6.668125 79.91304688 -5.796875 79.5 C5.68441152 73.74630983 13.98966463 66.03693065 18.38671875 53.60546875 C21.40336073 42.20464252 20.11291806 32.06429986 14.640625 21.71484375 C13.98900391 20.47541016 13.98900391 20.47541016 13.32421875 19.2109375 C7.82758014 9.95591352 -1.28452712 4.86429199 -11.359375 1.71484375 C-22.59603292 -0.99870897 -32.73175502 0.58321626 -42.796875 6.03515625 C-52.07906052 11.77380473 -59.22925796 20.39788994 -61.97265625 31.109375 C-63.38608524 40.63217436 -62.44388632 49.03241778 -59.234375 58.0703125 C-58.359375 60.71484375 -58.359375 60.71484375 -58.359375 63.71484375 C-63.40090449 59.21834448 -66.06054753 54.32599258 -67.359375 47.71484375 C-68.09922082 33.74380183 -65.94312697 24.58440345 -58.359375 12.71484375 C-55.8359375 10.01171875 -55.8359375 10.01171875 -53.359375 7.71484375 C-52.78574219 7.16699219 -52.21210938 6.61914062 -51.62109375 6.0546875 C-37.62452129 -6.4137232 -16.602577 -9.04345668 0 0 Z " fill="#FAF0F2" transform="translate(397.359375,70.28515625)"/>
<path d="M0 0 C4.58401389 2.68447389 7.39810065 5.65174545 9.5625 10.5 C10.0512205 14.40976399 10.05736549 17.19348423 9 21 C5.89695717 24.90096813 2.6530057 27.23185784 -2 29 C-6.78558726 29.42728458 -10.63064971 29.03903014 -15 27 C-17.50925948 24.82090624 -18.79369881 23.23548915 -19.34765625 19.91796875 C-19.58291751 13.91369218 -18.44568776 8.99580181 -14.55859375 4.234375 C-10.22948189 -0.06460383 -5.99996344 -1.70546906 0 0 Z " fill="#D06D71" transform="translate(434,64)"/>
<path d="M0 0 C4.23582327 -0.04938628 8.47149465 -0.08571263 12.70751953 -0.10986328 C14.14895547 -0.11992963 15.59037095 -0.1335838 17.03173828 -0.15087891 C19.10193934 -0.17510012 21.17187076 -0.18647641 23.2421875 -0.1953125 C25.11173096 -0.21102295 25.11173096 -0.21102295 27.01904297 -0.22705078 C30 0 30 0 32 2 C30.35 2.33 28.7 2.66 27 3 C27 3.66 27 4.32 27 5 C19.08 5 11.16 5 3 5 C2.34 7.97 1.68 10.94 1 14 C0.16878896 16.47348256 -0.70346137 18.933731 -1.625 21.375 C-3.4608762 26.06966232 -3.4608762 26.06966232 -4 31 C-1.69 31.66 0.62 32.32 3 33 C3 50.49 3 67.98 3 86 C9.6 86 16.2 86 23 86 C23 86.66 23 87.32 23 88 C14.75 88 6.5 88 -2 88 C-1 83 -1 83 0 81 C0.21377721 75.39296787 0.21377721 75.39296787 -1 70 C-1.06938235 68.53013497 -1.08455626 67.05727384 -1.0625 65.5859375 C-1.05476563 64.74289063 -1.04703125 63.89984375 -1.0390625 63.03125 C-1.02617187 62.1546875 -1.01328125 61.278125 -1 60.375 C-0.97460456 58.63287303 -0.95353287 56.89067579 -0.9375 55.1484375 C-0.92589844 54.37677246 -0.91429687 53.60510742 -0.90234375 52.81005859 C-0.79907045 50.97826772 -0.79907045 50.97826772 -2 50 C-2.21035905 47.87887958 -2.36850101 45.75246581 -2.5 43.625 C-2.71580047 40.14907092 -2.8975492 37.3073524 -4 34 C-4.825 33.67 -5.65 33.34 -6.5 33 C-7.325 32.67 -8.15 32.34 -9 32 C-10.28497537 28.14507389 -9.4052209 26.59653164 -8.0625 22.8125 C-7.68222656 21.72582031 -7.30195313 20.63914062 -6.91015625 19.51953125 C-6.60980469 18.68808594 -6.30945313 17.85664062 -6 17 C-4.68 17 -3.36 17 -2 17 C-1.505 15.2984375 -1.505 15.2984375 -1 13.5625 C-0.7215625 12.60537109 -0.7215625 12.60537109 -0.4375 11.62890625 C0.20689356 7.75679138 0.07613328 3.91610555 0 0 Z " fill="#F1E3E7" transform="translate(21,66)"/>
<path d="M0 0 C1.25159912 0.00523682 2.50319824 0.01047363 3.79272461 0.01586914 C4.78942421 0.01799156 4.78942421 0.01799156 5.80625916 0.02015686 C7.93590735 0.02577021 10.06545175 0.03832485 12.19506836 0.05102539 C13.63582205 0.05603868 15.07657739 0.06060188 16.51733398 0.06469727 C20.05577938 0.07574394 23.59416375 0.09301747 27.13256836 0.11352539 C27.13256836 1.10352539 27.13256836 2.09352539 27.13256836 3.11352539 C26.13256836 4.11352539 26.13256836 4.11352539 23.54052734 4.22705078 C22.41461182 4.22181396 21.28869629 4.21657715 20.12866211 4.21118164 C18.9137207 4.20795898 17.6987793 4.20473633 16.44702148 4.20141602 C15.16762695 4.19303711 13.88823242 4.1846582 12.57006836 4.17602539 C11.28680664 4.17151367 10.00354492 4.16700195 8.68139648 4.16235352 C5.49840814 4.15052085 2.31551074 4.13403607 -0.86743164 4.11352539 C-0.98135254 4.8126001 -1.09527344 5.5116748 -1.21264648 6.23193359 C-2.21927138 12.11893639 -3.49171575 17.67691997 -5.49243164 23.30102539 C-5.72188477 23.96682617 -5.95133789 24.63262695 -6.18774414 25.31860352 C-6.74053139 26.91938326 -7.30288667 28.51685432 -7.86743164 30.11352539 C-5.55743164 30.77352539 -3.24743164 31.43352539 -0.86743164 32.11352539 C-0.86743164 49.60352539 -0.86743164 67.09352539 -0.86743164 85.11352539 C1.77256836 85.11352539 4.41256836 85.11352539 7.13256836 85.11352539 C5.57006836 87.11352539 5.57006836 87.11352539 3.13256836 89.11352539 C-0.61743164 89.36352539 -0.61743164 89.36352539 -3.86743164 89.11352539 C-5.38406196 86.08026476 -4.96819364 82.9449776 -4.92993164 79.62133789 C-4.92425171 78.50781448 -4.92425171 78.50781448 -4.91845703 77.37179565 C-4.90209224 74.19172483 -4.87402056 71.01178172 -4.84692383 67.83178711 C-4.82882375 65.51164343 -4.81673615 63.19152078 -4.80493164 60.87133789 C-4.7966333 60.15454865 -4.78833496 59.4377594 -4.77978516 58.69924927 C-4.76325522 55.32668911 -4.93839599 52.35415151 -5.86743164 49.11352539 C-5.6720907 46.12938073 -5.42192523 43.15927201 -5.12133789 40.18383789 C-6.28030664 35.41446912 -9.864083 33.64569271 -13.86743164 31.11352539 C-13.63556152 30.45344482 -13.40369141 29.79336426 -13.16479492 29.11328125 C-12.10525752 26.09325547 -11.0488213 23.0721536 -9.99243164 20.05102539 C-9.62762695 19.01268555 -9.26282227 17.9743457 -8.88696289 16.90454102 C-6.63373745 10.46345265 -6.63373745 10.46345265 -4.67211914 3.92993164 C-3.58988966 0.14212845 -3.58988966 0.14212845 0 0 Z " fill="#FCEAE9" transform="translate(262.867431640625,66.886474609375)"/>
<path d="M0 0 C1.56047445 0.00015913 3.12095416 0.00585397 4.68139648 0.01586914 C5.91115456 0.01799156 5.91115456 0.01799156 7.16575623 0.02015686 C9.79470406 0.0257725 12.42356797 0.0383276 15.05249023 0.05102539 C16.8304838 0.05603838 18.60847869 0.06060163 20.38647461 0.06469727 C24.75434569 0.07574701 29.12215371 0.09302208 33.48999023 0.11352539 C32.71259685 4.59753804 31.20009196 7.68262056 28.86499023 11.61352539 C28.1383597 12.85230607 27.41313083 14.09190985 26.68920898 15.33227539 C26.32230957 15.95875977 25.95541016 16.58524414 25.57739258 17.23071289 C22.75359071 22.12006178 20.11527314 27.11551844 17.48999023 32.11352539 C16.92924805 33.12930664 16.36850586 34.14508789 15.79077148 35.19165039 C13.7688627 39.7333554 14.31512899 43.36512785 15.48999023 48.11352539 C16.6530505 50.75005727 17.96066019 53.2475213 19.34545898 55.77368164 C20.89624481 58.9440595 21.26182778 61.61503437 21.48999023 65.11352539 C18.35614447 61.04123527 15.7985545 56.74960252 13.23999023 52.30102539 C12.76819336 51.51920898 12.29639648 50.73739258 11.81030273 49.93188477 C11.36944336 49.16038086 10.92858398 48.38887695 10.47436523 47.59399414 C9.8667334 46.55601685 9.8667334 46.55601685 9.24682617 45.49707031 C7.84096176 41.06950442 8.97015484 37.27315089 10.82519531 33.13500977 C11.38102295 32.16885742 11.93685059 31.20270508 12.50952148 30.20727539 C13.11989258 29.13348633 13.73026367 28.05969727 14.35913086 26.95336914 C15.00043945 25.8512207 15.64174805 24.74907227 16.30249023 23.61352539 C17.24705078 21.96030273 17.24705078 21.96030273 18.21069336 20.27368164 C19.96063024 17.21450552 21.7238269 14.16335172 23.48999023 11.11352539 C24.82652891 8.78200252 26.15845256 6.44790883 27.48999023 4.11352539 C26.66273438 4.12923584 25.83547852 4.14494629 24.9831543 4.16113281 C21.23550246 4.22348843 17.48795978 4.26251885 13.73999023 4.30102539 C11.78706055 4.33873047 11.78706055 4.33873047 9.79467773 4.37719727 C8.54428711 4.38686523 7.29389648 4.3965332 6.00561523 4.40649414 C4.85351562 4.42220459 3.70141602 4.43791504 2.5144043 4.45410156 C-0.77759763 4.0833926 -2.11696054 3.33967741 -4.51000977 1.11352539 C-3.51000977 0.11352539 -3.51000977 0.11352539 0 0 Z " fill="#FBECED" transform="translate(299.510009765625,66.886474609375)"/>
<path d="M0 0 C4.58401389 2.68447389 7.39810065 5.65174545 9.5625 10.5 C10.0512205 14.40976399 10.05736549 17.19348423 9 21 C5.89695717 24.90096813 2.6530057 27.23185784 -2 29 C-6.78558726 29.42728458 -10.63064971 29.03903014 -15 27 C-17.50925948 24.82090624 -18.79369881 23.23548915 -19.34765625 19.91796875 C-19.58291751 13.91369218 -18.44568776 8.99580181 -14.55859375 4.234375 C-10.22948189 -0.06460383 -5.99996344 -1.70546906 0 0 Z M-14 9 C-15.61429923 12.22859847 -15.59570657 15.50993653 -15 19 C-13.26397895 22.02508145 -11.16419863 24.41790069 -8 26 C-3.33379264 26.12834362 0.12846859 25.56916337 4.0625 23 C6.71090419 18.89924513 7.01002604 15.7496266 6 11 C4.69596583 7.99884959 3.68973864 7.19570501 1 5 C-5.65498036 2.61448314 -9.32279895 3.97200887 -14 9 Z " fill="#F9F0EF" transform="translate(434,64)"/>
<path d="M0 0 C2 3 2 3 1.609375 5.453125 C1.32578125 6.37609375 1.0421875 7.2990625 0.75 8.25 C0.45996094 9.22066406 0.16992188 10.19132812 -0.12890625 11.19140625 C-0.41636719 12.11824219 -0.70382813 13.04507813 -1 14 C-1.39953353 15.39477872 -1.79608907 16.79042011 -2.1875 18.1875 C-2.455625 19.115625 -2.72375 20.04375 -3 21 C-0.69 21.66 1.62 22.32 4 23 C4 40.49 4 57.98 4 76 C12.25 76 20.5 76 29 76 C29 75.34 29 74.68 29 74 C29.66 74 30.32 74 31 74 C32.4606285 76.64738916 33 77.89448334 33 81 C32.42636719 80.9278125 31.85273438 80.855625 31.26171875 80.78125 C23.91874623 79.9789829 16.66359804 79.93131387 9.2878418 80.03710938 C7.19197332 80.05909327 5.09571009 80.03387006 3 80 C2 79 2 79 1.89993286 77.14927673 C1.91120209 76.34067703 1.92247131 75.53207733 1.93408203 74.69897461 C1.94384064 73.78389633 1.95359924 72.86881805 1.96365356 71.92601013 C1.98551224 70.42929527 1.98551224 70.42929527 2.0078125 68.90234375 C2.0253441 66.80013516 2.04225089 64.69792129 2.05859375 62.59570312 C2.08944905 59.27337069 2.12480649 55.95130161 2.17138672 52.62915039 C2.21395026 49.42851572 2.2372414 46.22818555 2.2578125 43.02734375 C2.27643341 42.04370346 2.29505432 41.06006317 2.3142395 40.0466156 C2.33654206 33.99595647 1.65653321 29.47522253 -1 24 C-3.53044606 22.41622598 -3.53044606 22.41622598 -6 22 C-5.73130772 16.19624677 -4.73209508 11.88785341 -1.921875 6.796875 C-0.78706821 4.58496345 -0.30733093 2.45864742 0 0 Z " fill="#F9CBCE" transform="translate(169,76)"/>
<path d="M0 0 C1.32 0 2.64 0 4 0 C3.26905294 5.05485927 1.31619096 9.59903179 -0.5625 14.3125 C-0.89185547 15.14845703 -1.22121094 15.98441406 -1.56054688 16.84570312 C-2.36998877 18.89863546 -3.18323457 20.94997286 -4 23 C-2.68 23.33 -1.36 23.66 0 24 C1.73628996 29.12519326 0.07627858 33.38815976 -1.375 38.375 C-1.8449493 40.02756895 -2.31116309 41.68120524 -2.7734375 43.3359375 C-2.99483398 44.12581055 -3.21623047 44.91568359 -3.44433594 45.72949219 C-3.95775767 47.82739293 -4.25550561 49.83153309 -4.4765625 51.9765625 C-4.64929688 52.97429687 -4.82203125 53.97203125 -5 55 C-5.99 55.66 -6.98 56.32 -8 57 C-8.33 56.67 -8.66 56.34 -9 56 C-12.62266294 55.71471529 -16.24530434 55.55087772 -19.875 55.37890625 C-21.421875 55.19134766 -21.421875 55.19134766 -23 55 C-23.33 54.34 -23.66 53.68 -24 53 C-19.05 53 -14.1 53 -9 53 C-8.62875 50.40125 -8.62875 50.40125 -8.25 47.75 C-7.1795886 41.23445238 -5.26099022 35.1902839 -3 29 C-3.99 29 -4.98 29 -6 29 C-6.2165625 27.39125 -6.2165625 27.39125 -6.4375 25.75 C-6.81526397 22.26916252 -6.81526397 22.26916252 -7.7109375 20.203125 C-8.16276656 16.7594549 -6.60358683 14.05593456 -5.1875 11 C-4.91357422 10.38382813 -4.63964844 9.76765625 -4.35742188 9.1328125 C-2.97856102 6.05104196 -1.53982274 3.00453217 0 0 Z " fill="#F9E7E9" transform="translate(155,99)"/>
<path d="M0 0 C0.99 0 1.98 0 3 0 C3 1.98 3 3.96 3 6 C4.423125 5.9690625 4.423125 5.9690625 5.875 5.9375 C9 6 9 6 11 7 C12.33744923 23.98082856 12.09843897 40.98065853 12 58 C14.64 58 17.28 58 20 58 C18.4375 60 18.4375 60 16 62 C12.25 62.25 12.25 62.25 9 62 C7.48336968 58.96673937 7.899238 55.83145221 7.9375 52.5078125 C7.94317993 51.39428909 7.94317993 51.39428909 7.94897461 50.25827026 C7.9653394 47.07819944 7.99341108 43.89825633 8.02050781 40.71826172 C8.03860789 38.39811804 8.05069549 36.07799539 8.0625 33.7578125 C8.07079834 33.04102325 8.07909668 32.32423401 8.08764648 31.58572388 C8.10417642 28.21316372 7.92903565 25.24062612 7 22 C7.12827216 20.04043804 7.27565536 18.08207514 7.4375 16.125 C7.55140101 11.5931124 7.55140101 11.5931124 5.22265625 7.8828125 C3.20659086 6.40176622 1.22786242 5.13382284 -1 4 C-0.67 2.68 -0.34 1.36 0 0 Z " fill="#F8F0F0" transform="translate(250,94)"/>
<path d="M0 0 C2.1875 0 2.1875 0 5 1 C14.8008162 11.17227571 13.3168241 27.48375309 13.10546875 40.42578125 C13.0724152 41.95056787 13.03810207 43.47533119 13 45 C13.99 45 14.98 45 16 45 C16.66 46.65 17.32 48.3 18 50 C15.03 49.67 12.06 49.34 9 49 C8.9906543 48.14881592 8.98130859 47.29763184 8.97167969 46.4206543 C8.92720244 43.20891746 8.8653856 39.99807309 8.79248047 36.78686523 C8.7645611 35.40710265 8.74320489 34.02718876 8.72900391 32.6472168 C8.60664788 21.41901209 7.61488685 11.70272782 0 3 C0 2.01 0 1.02 0 0 Z " fill="#F8F1F2" transform="translate(232,72)"/>
<path d="M0 0 C13.2 0 26.4 0 40 0 C38 4 38 4 35.82275391 4.74169922 C32.4794758 5.04763143 29.19397751 5.12979074 25.8359375 5.1328125 C25.16204987 5.13376923 24.48816223 5.13472595 23.79385376 5.13571167 C22.37689113 5.13638914 20.95992533 5.13456518 19.54296875 5.13037109 C17.3749294 5.12499983 15.20709561 5.1303393 13.0390625 5.13671875 C11.65885371 5.13605822 10.27864505 5.13477758 8.8984375 5.1328125 C7.02164307 5.13112061 7.02164307 5.13112061 5.10693359 5.12939453 C2 5 2 5 -1 4 C-0.67 2.68 -0.34 1.36 0 0 Z " fill="#FDCED2" transform="translate(57,66)"/>
<path d="M0 0 C0.66 0.33 1.32 0.66 2 1 C1.67386719 1.54527344 1.34773438 2.09054688 1.01171875 2.65234375 C-5.37047265 13.66585989 -8.22750211 23.90677709 -5.09765625 36.68359375 C-4.39690189 38.92052137 -3.65944328 41.14649826 -2.875 43.35546875 C-2 46 -2 46 -2 49 C-7.04152949 44.50350073 -9.70117253 39.61114883 -11 33 C-11.52567704 23.0732615 -11.48576158 13.65062404 -6 5 C-3.9375 4.375 -3.9375 4.375 -2 4 C-0.71563266 2.0162233 -0.71563266 2.0162233 0 0 Z " fill="#FBF4F5" transform="translate(341,85)"/>
<path d="M0 0 C0.33 1.32 0.66 2.64 1 4 C3.64 4.99 6.28 5.98 9 7 C9 23.5 9 40 9 57 C8.34 57 7.68 57 7 57 C6.21839247 50.22470973 5.94940441 43.59110698 6.18359375 36.78515625 C6.22362281 35.34310768 6.26333301 33.90105023 6.30273438 32.45898438 C6.36476979 30.24325727 6.43905514 28.03106572 6.54858398 25.81713867 C7.36768207 17.34389023 7.36768207 17.34389023 4.22314453 9.98510742 C2.0924797 8.62473088 2.0924797 8.62473088 -0.16772461 7.80371094 C-0.77237549 7.53848633 -1.37702637 7.27326172 -2 7 C-3 4.1875 -3 4.1875 -3 2 C-2.01 1.34 -1.02 0.68 0 0 Z " fill="#D94F53" transform="translate(95,93)"/>
<path d="M0 0 C-0.99 1.32 -1.98 2.64 -3 4 C-1.68 4.33 -0.36 4.66 1 5 C-10.88 5 -22.76 5 -35 5 C-34.67 3.35 -34.34 1.7 -34 0 C-29.47954554 -0.16749457 -24.95891882 -0.32806608 -20.43798828 -0.48217773 C-18.89950922 -0.53560391 -17.36109506 -0.59093379 -15.82275391 -0.64819336 C-13.61374914 -0.73008748 -11.40460276 -0.80517099 -9.1953125 -0.87890625 C-8.50567413 -0.90594131 -7.81603577 -0.93297638 -7.10549927 -0.96083069 C-2.22774341 -1.11387171 -2.22774341 -1.11387171 0 0 Z " fill="#F7E2E4" transform="translate(134,66)"/>
<path d="M0 0 C5.16351243 1.72117081 6.71003834 7.13941176 9.1875 11.75 C9.74630859 12.75289062 10.30511719 13.75578125 10.88085938 14.7890625 C11.40873047 15.76101562 11.93660156 16.73296875 12.48046875 17.734375 C12.96410889 18.62350586 13.44774902 19.51263672 13.94604492 20.42871094 C15.06802021 23.16594601 15.21232977 25.07281191 15 28 C14.01 28.33 13.02 28.66 12 29 C11.20449608 27.60635 10.41378162 26.20996569 9.625 24.8125 C9.18414062 24.03519531 8.74328125 23.25789063 8.2890625 22.45703125 C7 20 7 20 6.02734375 17.484375 C4.59962271 14.03178723 2.4916109 11.21921635 0.33984375 8.18359375 C-0.9742095 6.04203174 -1.74132987 4.4969586 -2 2 C-1.34 1.34 -0.68 0.68 0 0 Z " fill="#F9E2E1" transform="translate(74,111)"/>
<path d="M0 0 C3.40586558 1.71321206 6.11817475 3.84979315 8.4375 6.875 C9.24864361 9.93932029 9.12115626 12.84993725 9 16 C6.525 15.505 6.525 15.505 4 15 C3.34 12.03 2.68 9.06 2 6 C-1.40887983 5.14778004 -3.80434631 4.89216245 -7.25 4.9375 C-8.58804687 4.95103516 -8.58804687 4.95103516 -9.953125 4.96484375 C-10.62859375 4.97644531 -11.3040625 4.98804687 -12 5 C-12.309375 5.61875 -12.61875 6.2375 -12.9375 6.875 C-13.625 8.25 -14.3125 9.625 -15 11 C-15.66 11 -16.32 11 -17 11 C-16.77581061 7.07668566 -16.04047908 6.03871912 -13.125 3.25 C-8.64549117 0.02475364 -5.46455624 -0.54645562 0 0 Z " fill="#FCE3E4" transform="translate(380,98)"/>
<path d="M0 0 C0.99 0.495 0.99 0.495 2 1 C2.4858431 3.68713221 2.84529745 6.290095 3.125 9 C3.21136719 9.73089844 3.29773438 10.46179688 3.38671875 11.21484375 C4.40286343 20.39240446 3.94287803 29.32023466 3.125 38.5 C3.04636719 39.5003125 2.96773437 40.500625 2.88671875 41.53125 C2.80292969 42.48 2.71914062 43.42875 2.6328125 44.40625 C2.55949707 45.26541016 2.48618164 46.12457031 2.41064453 47.00976562 C2.27513184 47.66654297 2.13961914 48.32332031 2 49 C1.01 49.495 1.01 49.495 0 50 C0 33.5 0 17 0 0 Z " fill="#D2393F" transform="translate(197,101)"/>
<path d="M0 0 C0.33 0 0.66 0 1 0 C1 9.9 1 19.8 1 30 C3.64 30 6.28 30 9 30 C9.22875012 36.96973021 8.4042249 43.24536763 7 50.0625 C6.80921875 51.02349609 6.6184375 51.98449219 6.421875 52.97460938 C5.95551945 55.318046 5.48145534 57.65962765 5 60 C4.34 59.34 3.68 58.68 3 58 C2.01 58.99 1.02 59.98 0 61 C0.49264433 54.71878483 2.0931872 49.13732617 4.01171875 43.14453125 C5.17071309 39.45682197 6.11496122 35.76141483 7 32 C4.69 31.67 2.38 31.34 0 31 C0 20.77 0 10.54 0 0 Z " fill="#FBD3D6" transform="translate(240,91)"/>
<path d="M0 0 C0.66 0 1.32 0 2 0 C2 1.32 2 2.64 2 4 C10.25 4 18.5 4 27 4 C27 3.34 27 2.68 27 2 C27.66 2 28.32 2 29 2 C30.4606285 4.64738916 31 5.89448334 31 9 C30.42636719 8.9278125 29.85273438 8.855625 29.26171875 8.78125 C21.91874623 7.9789829 14.66359804 7.93131387 7.2878418 8.03710938 C5.19197332 8.05909327 3.09571009 8.03387006 1 8 C0 7 0 7 -0.0625 3.4375 C-0.041875 2.303125 -0.02125 1.16875 0 0 Z " fill="#FCE2E1" transform="translate(171,148)"/>
<path d="M0 0 C6.93 0 13.86 0 21 0 C21 0.33 21 0.66 21 1 C11.595 1.495 11.595 1.495 2 2 C1.67 3.98 1.34 5.96 1 8 C9.25 8 17.5 8 26 8 C26.33 8.66 26.66 9.32 27 10 C26.22265625 11.9453125 26.22265625 11.9453125 25.0625 14.125 C24.68222656 14.84945312 24.30195313 15.57390625 23.91015625 16.3203125 C23.60980469 16.87460938 23.30945313 17.42890625 23 18 C21 16.25 21 16.25 19 14 C19 12.68 19 11.36 19 10 C17.71222656 10.01160156 16.42445313 10.02320312 15.09765625 10.03515625 C13.41927228 10.0445327 11.74088674 10.05363305 10.0625 10.0625 C8.78729492 10.07506836 8.78729492 10.07506836 7.48632812 10.08789062 C6.67744141 10.09111328 5.86855469 10.09433594 5.03515625 10.09765625 C4.2862915 10.10289307 3.53742676 10.10812988 2.76586914 10.11352539 C1 10 1 10 0 9 C0 6.03 0 3.06 0 0 Z " fill="#D5262D" transform="translate(127,94)"/>
<path d="M0 0 C0.99 0 1.98 0 3 0 C3 0.66 3 1.32 3 2 C2.34 2 1.68 2 1 2 C1 3.98 1 5.96 1 8 C1.59014893 7.99476318 2.18029785 7.98952637 2.78833008 7.98413086 C5.46304255 7.96333953 8.13773801 7.95033299 10.8125 7.9375 C11.74126953 7.92912109 12.67003906 7.92074219 13.62695312 7.91210938 C14.51962891 7.90888672 15.41230469 7.90566406 16.33203125 7.90234375 C17.56530151 7.89448853 17.56530151 7.89448853 18.82348633 7.88647461 C21 8 21 8 24 9 C23.38221953 11.60607392 22.75612789 14.20965697 22.125 16.8125 C21.86396484 17.91948242 21.86396484 17.91948242 21.59765625 19.04882812 C20.75507489 22.49717037 19.98714425 25.01928362 18 28 C18.29296875 25.94921875 18.5859375 23.8984375 18.87890625 21.84765625 C18.91886719 21.23792969 18.95882812 20.62820312 19 20 C18.67 19.67 18.34 19.34 18 19 C18 16.36 18 13.72 18 11 C12.06 11 6.12 11 0 11 C-1.62651522 7.74696956 -1.11453156 4.60774398 -1 1 C-0.67 0.67 -0.34 0.34 0 0 Z " fill="#DD1C21" transform="translate(128,119)"/>
<path d="M0 0 C9.57 0 19.14 0 29 0 C26.36 5.28 23.72 10.56 21 16 C20 12 20 12 20.77734375 10.1484375 C21.35162109 9.27058594 21.35162109 9.27058594 21.9375 8.375 C24.17381667 5.37479219 24.17381667 5.37479219 24 3 C12.615 2.505 12.615 2.505 1 2 C0.34 3.65 -0.32 5.3 -1 7 C-1.69133648 8.4457511 -2.39865295 9.88401747 -3.125 11.3125 C-3.47820313 12.00988281 -3.83140625 12.70726563 -4.1953125 13.42578125 C-4.46085937 13.94527344 -4.72640625 14.46476562 -5 15 C-5.66 15 -6.32 15 -7 15 C-5.37866455 9.25162886 -3.08315311 5.5496756 0 0 Z " fill="#BD171F" transform="translate(60,71)"/>
<path d="M0 0 C0.33 0.66 0.66 1.32 1 2 C1.66 2 2.32 2 3 2 C2.96519531 2.56847656 2.93039062 3.13695313 2.89453125 3.72265625 C2.69890318 9.30271407 3.49892286 12.90852153 6 18 C6.76945903 19.72059588 7.5185854 21.45039032 8.25 23.1875 C8.78367187 24.41533203 8.78367187 24.41533203 9.328125 25.66796875 C10.08182429 28.28400641 9.74707193 29.44413903 9 32 C8.70754395 31.44014404 8.41508789 30.88028809 8.11376953 30.3034668 C6.78591523 27.76389935 5.45548744 25.22568886 4.125 22.6875 C3.66480469 21.80642578 3.20460938 20.92535156 2.73046875 20.01757812 C2.28574219 19.17001953 1.84101563 18.32246094 1.3828125 17.44921875 C0.97434082 16.66893311 0.56586914 15.88864746 0.14501953 15.0847168 C-1.06940211 12.80312614 -1.06940211 12.80312614 -3 10 C-2.70295038 5.84130536 -2.33061852 3.49592778 0 0 Z " fill="#FBE7E8" transform="translate(311,100)"/>
<path d="M0 0 C2.375 -0.1875 2.375 -0.1875 5 0 C7.6229788 3.93446819 8.20293898 7.29337669 8 12 C6.582405 16.04700507 4.60140846 18.59906103 1 21 C-2.06640625 21.23046875 -2.06640625 21.23046875 -5.5625 21.1875 C-6.71878906 21.18105469 -7.87507813 21.17460938 -9.06640625 21.16796875 C-12 21 -12 21 -14 20 C-14 19.34 -14 18.68 -14 18 C-14.66 18 -15.32 18 -16 18 C-15.505 16.515 -15.505 16.515 -15 15 C-14.360625 15.680625 -13.72125 16.36125 -13.0625 17.0625 C-8.82293808 19.74467183 -5.75447219 19.0417102 -1 18 C-0.01 17.67 0.98 17.34 2 17 C3.7146471 11.85605871 3.90374625 6.84514859 1.5 1.9375 C1.005 1.298125 0.51 0.65875 0 0 Z " fill="#FCE6E6" transform="translate(436,70)"/>
<path d="M0 0 C5.75 2.75 5.75 2.75 8 5 C8 6.32 8 7.64 8 9 C5.23723823 8.47731534 2.6739124 7.89130413 0 7 C-2.06362991 6.84970012 -4.13123915 6.75155552 -6.19921875 6.68359375 C-7.40771484 6.64169922 -8.61621094 6.59980469 -9.86132812 6.55664062 C-11.12396484 6.51732422 -12.38660156 6.47800781 -13.6875 6.4375 C-14.96173828 6.39431641 -16.23597656 6.35113281 -17.54882812 6.30664062 C-20.69910852 6.2004514 -23.84946839 6.09840467 -27 6 C-27 5.34 -27 4.68 -27 4 C-17.76 4 -8.52 4 1 4 C0.67 2.68 0.34 1.36 0 0 Z " fill="#F5AFB1" transform="translate(330,148)"/>
<path d="M0 0 C0.99 0.33 1.98 0.66 3 1 C3.70284641 2.90772596 4.40399973 4.81610376 5.09399414 6.72851562 C6.75332888 10.88870166 8.3680634 14.24815152 12 17 C20.67107149 19.4107044 30.10602047 18.61728885 39 18 C39.495 16.515 39.495 16.515 40 15 C40.495 17.475 40.495 17.475 41 20 C36.94343719 20.1238616 32.88761022 20.21445733 28.82958984 20.2746582 C27.45016298 20.2997593 26.07086858 20.33384873 24.69189453 20.37719727 C22.70664128 20.43802875 20.72040641 20.46357937 18.734375 20.48828125 C16.94338379 20.52755737 16.94338379 20.52755737 15.11621094 20.56762695 C12 20 12 20 9.71289062 17.68920898 C9.14763672 16.80177002 8.58238281 15.91433105 8 15 C7.4117041 14.09072754 7.4117041 14.09072754 6.81152344 13.16308594 C6.49731445 12.60911133 6.18310547 12.05513672 5.859375 11.484375 C5.33730469 10.56785156 5.33730469 10.56785156 4.8046875 9.6328125 C4.45664062 9.01148438 4.10859375 8.39015625 3.75 7.75 C3.38648438 7.11320313 3.02296875 6.47640625 2.6484375 5.8203125 C0 1.14074248 0 1.14074248 0 0 Z " fill="#C02326" transform="translate(52,133)"/>
<path d="M0 0 C0 0.99 0 1.98 0 3 C-6.75 3.125 -6.75 3.125 -9 2 C-10.44848582 1.91657841 -11.90070869 1.89267139 -13.3515625 1.90234375 C-14.62773437 1.90717773 -14.62773437 1.90717773 -15.9296875 1.91210938 C-16.81914062 1.92048828 -17.70859375 1.92886719 -18.625 1.9375 C-19.97078125 1.94426758 -19.97078125 1.94426758 -21.34375 1.95117188 C-23.56256648 1.96297409 -25.78125018 1.97943845 -28 2 C-25.2734375 -1.90625 -25.2734375 -1.90625 -22.8125 -2.75 C-14.56352849 -3.48324191 -7.96503663 -2.23021026 0 0 Z " fill="#F5F7F7" transform="translate(392,68)"/>
<path d="M0 0 C0.33 0 0.66 0 1 0 C1 7.92 1 15.84 1 24 C7.6 24 14.2 24 21 24 C21 24.66 21 25.32 21 26 C12.75 26 4.5 26 -4 26 C-3.38718649 22.93593243 -2.74540968 19.95990331 -2 16.9375 C-0.73481528 11.3480272 -0.36700757 5.7079335 0 0 Z " fill="#D68687" transform="translate(23,128)"/>
<path d="M0 0 C9.57 0 19.14 0 29 0 C28.67 0.99 28.34 1.98 28 3 C27.34 2.67 26.68 2.34 26 2 C24.40321678 1.98389829 22.8054601 2.03464373 21.2109375 2.12109375 C19.79941406 2.19360352 19.79941406 2.19360352 18.359375 2.26757812 C17.37453125 2.32365234 16.3896875 2.37972656 15.375 2.4375 C14.38242187 2.48970703 13.38984375 2.54191406 12.3671875 2.59570312 C9.91115432 2.72558949 7.4555064 2.86056164 5 3 C5 3.66 5 4.32 5 5 C-1.75 8.875 -1.75 8.875 -4 10 C-2.8741386 6.46157845 -1.66905241 3.33810482 0 0 Z " fill="#CE1B23" transform="translate(298,71)"/>
<path d="M0 0 C0.33 0 0.66 0 1 0 C1.63091934 5.67827409 1.56361579 8.93199202 -1.9375 13.5625 C-7.99053898 20.52897545 -14.76301749 27.64438398 -24 30 C-24.99 29.67 -25.98 29.34 -27 29 C-26.154375 28.59910156 -25.30875 28.19820312 -24.4375 27.78515625 C-13.47693484 22.29241848 -6.0909263 15.42727233 -1 4 C-0.63180486 2.67586963 -0.28693874 1.34408149 0 0 Z " fill="#FCE1E6" transform="translate(416,122)"/>
<path d="M0 0 C4.23582327 -0.04938628 8.47149465 -0.08571263 12.70751953 -0.10986328 C14.14895547 -0.11992963 15.59037095 -0.1335838 17.03173828 -0.15087891 C19.10193934 -0.17510012 21.17187076 -0.18647641 23.2421875 -0.1953125 C25.11173096 -0.21102295 25.11173096 -0.21102295 27.01904297 -0.22705078 C30 0 30 0 32 2 C27.95936297 2.74016884 24.04917891 3.1683286 19.9453125 3.31640625 C18.28242187 3.37924805 18.28242187 3.37924805 16.5859375 3.44335938 C15.44382812 3.48267578 14.30171875 3.52199219 13.125 3.5625 C11.9596875 3.60568359 10.794375 3.64886719 9.59375 3.69335938 C6.72927375 3.79901629 3.86471679 3.90111799 1 4 C0.67 2.68 0.34 1.36 0 0 Z " fill="#EEEFF1" transform="translate(21,66)"/>
<path d="M0 0 C0.33 0 0.66 0 1 0 C1.0251057 3.91030885 1.04304746 7.82058515 1.05493164 11.73095703 C1.06231093 13.6995611 1.07503058 15.66814286 1.08789062 17.63671875 C1.10779903 25.4806314 0.80895594 33.19681283 0 41 C-2 40 -2 40 -3 37 C-3.3508205 30.6130033 -3.05090874 24.30545246 -2 18 C-1.67 17.67 -1.34 17.34 -1 17 C-0.76298761 14.14122091 -0.57780818 11.30116703 -0.4375 8.4375 C-0.39431641 7.63119141 -0.35113281 6.82488281 -0.30664062 5.99414062 C-0.20024738 3.99631195 -0.09959112 1.9981793 0 0 Z " fill="#F1959C" transform="translate(23,99)"/>
<path d="M0 0 C4.24994263 -0.05805933 8.49978324 -0.09361654 12.75 -0.125 C13.9565625 -0.14175781 15.163125 -0.15851563 16.40625 -0.17578125 C17.56640625 -0.18222656 18.7265625 -0.18867187 19.921875 -0.1953125 C20.99018555 -0.20578613 22.05849609 -0.21625977 23.15917969 -0.22705078 C25.97979105 -0.00161519 27.60787463 0.54151006 30 2 C29 3 29 3 26.31616211 3.11352539 C25.14835205 3.10828857 23.98054199 3.10305176 22.77734375 3.09765625 C21.51728516 3.09443359 20.25722656 3.09121094 18.95898438 3.08789062 C17.61848891 3.07953403 16.27799412 3.07106907 14.9375 3.0625 C13.59310058 3.0574866 12.2486994 3.05292342 10.90429688 3.04882812 C7.60282059 3.03699488 4.30143197 3.02050971 1 3 C0.67 2.01 0.34 1.02 0 0 Z " fill="#F4F6F8" transform="translate(61,66)"/>
<path d="M0 0 C-0.99 0 -1.98 0 -3 0 C-3 0.66 -3 1.32 -3 2 C-10.92 2 -18.84 2 -27 2 C-27.66 4.97 -28.32 7.94 -29 11 C-29.63484067 13.01032877 -30.28771856 15.01578741 -31 17 C-31.66 16.67 -32.32 16.34 -33 16 C-32.54287762 14.45797384 -32.08423653 12.91639786 -31.625 11.375 C-31.36976562 10.51648438 -31.11453125 9.65796875 -30.8515625 8.7734375 C-29.94843312 5.83205281 -28.98322773 2.91548396 -28 0 C-24.08375299 -0.19706355 -20.16699634 -0.38099159 -16.25 -0.5625 C-15.13882813 -0.61857422 -14.02765625 -0.67464844 -12.8828125 -0.73242188 C-11.81289063 -0.78076172 -10.74296875 -0.82910156 -9.640625 -0.87890625 C-8.65610352 -0.9260376 -7.67158203 -0.97316895 -6.65722656 -1.02172852 C-4.2293192 -1.00187518 -2.30838443 -0.71119313 0 0 Z " fill="#F3B4B6" transform="translate(51,69)"/>
<path d="M0 0 C2.64 0 5.28 0 8 0 C8.98248524 4.0527516 9.08159574 7.83861737 9 12 C8.34 12 7.68 12 7 12 C6.67 10.68 6.34 9.36 6 8 C4.68 7.67 3.36 7.34 2 7 C2 8.65 2 10.3 2 12 C1.34 12 0.68 12 0 12 C0 8.04 0 4.08 0 0 Z " fill="#DE6568" transform="translate(425,73)"/>
<path d="M0 0 C0.33 0 0.66 0 1 0 C1 10.89 1 21.78 1 33 C0.34 33 -0.32 33 -1 33 C-1.33 33.99 -1.66 34.98 -2 36 C-1.88205038 31.03360043 -1.75782482 26.06741349 -1.62768555 21.10131836 C-1.58427561 19.41060701 -1.54260511 17.71985009 -1.50268555 16.02905273 C-1.44512906 13.60386394 -1.38139351 11.17890585 -1.31640625 8.75390625 C-1.29969376 7.99348526 -1.28298126 7.23306427 -1.26576233 6.44960022 C-1.11387171 1.11387171 -1.11387171 1.11387171 0 0 Z " fill="#FCFBFA" transform="translate(260,117)"/>
<path d="M0 0 C0.66 0.33 1.32 0.66 2 1 C1.65682018 6.43170818 1.24409332 10.45826935 -2 15 C-2.68096422 16.32608822 -3.35330586 17.65686601 -4 19 C-5.625 17.375 -5.625 17.375 -7 15 C-5.98510009 9.54491298 -2.76614156 4.7510065 0 0 Z " fill="#FADCDC" transform="translate(78,89)"/>
<path d="M0 0 C1.71875 1.515625 1.71875 1.515625 3 3 C1.94039063 3.09796875 0.88078125 3.1959375 -0.2109375 3.296875 C-1.59906397 3.44694273 -2.98707963 3.59803792 -4.375 3.75 C-5.07367188 3.811875 -5.77234375 3.87375 -6.4921875 3.9375 C-8.78363782 4.16118253 -8.78363782 4.16118253 -12 5 C-13.51155876 6.8541888 -13.51155876 6.8541888 -14 9 C-14.33 9.66 -14.66 10.32 -15 11 C-15.66 11 -16.32 11 -17 11 C-16.77581061 7.07668566 -16.04047908 6.03871912 -13.125 3.25 C-8.63663179 0.01837489 -5.46765826 -0.39054702 0 0 Z " fill="#FCD7D7" transform="translate(380,98)"/>
<path d="M0 0 C0.33 0.33 0.66 0.66 1 1 C4.40035333 1.02635933 7.78696641 0.97048663 11.18554688 0.87304688 C13.12392963 0.84317153 15.06324025 0.91525384 17 1 C17.66 1.66 18.32 2.32 19 3 C17.91203125 2.95359375 16.8240625 2.9071875 15.703125 2.859375 C6.35982294 2.58660897 -1.26569197 3.23027939 -10 7 C-10 6 -10 5 -10 4 C-10.99 3.67 -11.98 3.34 -13 3 C-11.5903653 2.29819469 -10.17192359 1.61406042 -8.75 0.9375 C-7.96109375 0.55464844 -7.1721875 0.17179687 -6.359375 -0.22265625 C-3.72207289 -1.0915687 -2.55676051 -0.98989621 0 0 Z " fill="#F6E9EB" transform="translate(366,68)"/>
<path d="M0 0 C3.73487777 0.4979837 5.81237635 0.87491756 9 3 C9 3.66 9 4.32 9 5 C9.639375 5.12375 10.27875 5.2475 10.9375 5.375 C13.24953497 5.84684387 15.53942998 6.42902147 17.8125 7.0625 C24.74326563 8.65374721 31.93604532 8.15601372 39 8 C33.76739051 11.48840632 28.11601424 11.79308931 21.9777832 10.61035156 C19.96046658 10.07147078 17.98304961 9.46613626 16 8.8125 C15.30519531 8.58981445 14.61039062 8.36712891 13.89453125 8.13769531 C8.7256166 6.40906673 4.38479143 4.28859357 0 1 C0 0.67 0 0.34 0 0 Z " fill="#D56162" transform="translate(348,144)"/>
<path d="M0 0 C8.91 0 17.82 0 27 0 C25 2 25 2 22.75341797 2.22705078 C21.84221191 2.21657715 20.93100586 2.20610352 19.9921875 2.1953125 C19.00605469 2.18886719 18.01992187 2.18242188 17.00390625 2.17578125 C15.45509766 2.15064453 15.45509766 2.15064453 13.875 2.125 C12.83472656 2.11597656 11.79445312 2.10695313 10.72265625 2.09765625 C8.14834003 2.07403867 5.57414162 2.03816684 3 2 C2.01 5.3 1.02 8.6 0 12 C-0.33 12 -0.66 12 -1 12 C-1.07329796 7.60212211 -1.07396066 4.29584263 0 0 Z " fill="#FCFDFC" transform="translate(171,67)"/>
<path d="M0 0 C6.4 0.49230769 6.4 0.49230769 9.4375 3.0625 C10.2109375 4.0215625 10.2109375 4.0215625 11 5 C10.01 5 9.02 5 8 5 C8 5.66 8 6.32 8 7 C7.24460938 6.68289062 6.48921875 6.36578125 5.7109375 6.0390625 C0.68212016 4.63099364 -4.17551401 4.53601634 -9.375 4.375 C-10.39722656 4.33632812 -11.41945312 4.29765625 -12.47265625 4.2578125 C-14.98159597 4.16402036 -17.49053764 4.07832121 -20 4 C-20 3.67 -20 3.34 -20 3 C-10.1 2.505 -10.1 2.505 0 2 C0 1.34 0 0.68 0 0 Z " fill="#F9D7D9" transform="translate(224,67)"/>
<path d="M0 0 C7.92 0.33 15.84 0.66 24 1 C24 1.66 24 2.32 24 3 C16.08 3.33 8.16 3.66 0 4 C-0.66 5.98 -1.32 7.96 -2 10 C-2.6875 8.375 -2.6875 8.375 -3 6 C-2.01 4.02 -1.02 2.04 0 0 Z " fill="#FED2D3" transform="translate(174,68)"/>
<path d="M0 0 C0.99 0 1.98 0 3 0 C2.02616977 2.50794635 1.02473576 4.95036412 -0.17578125 7.359375 C-2.42607242 12.09194613 -3.4750994 15.03796269 -1.75 20.125 C-1.1988032 21.43070389 -0.6264459 22.72868332 0 24 C-3.55386925 20.5456789 -5.89787157 17.80426899 -6.1875 12.6875 C-6.125625 11.800625 -6.06375 10.91375 -6 10 C-5.01 10 -4.02 10 -3 10 C-2.87625 8.72125 -2.7525 7.4425 -2.625 6.125 C-2.25 2.25 -2.25 2.25 0 0 Z " fill="#D22128" transform="translate(73,93)"/>
<path d="M0 0 C0.99 0.495 0.99 0.495 2 1 C4.36674266 8.57357653 2.90224475 17.28258508 2 25 C1.34 25 0.68 25 0 25 C0 16.75 0 8.5 0 0 Z " fill="#F4D7D7" transform="translate(198,113)"/>
<path d="M0 0 C0.33 1.32 0.66 2.64 1 4 C3.31 4.66 5.62 5.32 8 6 C8 7.65 8 9.3 8 11 C3.12637153 10.54663921 0.60957611 9.2910841 -3 6 C-2.625 3.5625 -2.625 3.5625 -2 1 C-1.34 0.67 -0.68 0.34 0 0 Z " fill="#FAE5E7" transform="translate(95,93)"/>
<path d="M0 0 C1.32 0 2.64 0 4 0 C3.36511918 4.92032635 1.54680948 9.74946279 -1 14 C-1.99 14.33 -2.98 14.66 -4 15 C-3.71848084 12.87363187 -3.42446737 10.74891472 -3.125 8.625 C-2.96257812 7.44164063 -2.80015625 6.25828125 -2.6328125 5.0390625 C-2 2 -2 2 0 0 Z " fill="#F8E7E9" transform="translate(155,99)"/>
<path d="M0 0 C6.27 0 12.54 0 19 0 C19.33 1.32 19.66 2.64 20 4 C16.33170301 3.68306993 12.6656314 3.34635887 9 3 C7.77410156 2.89171875 7.77410156 2.89171875 6.5234375 2.78125 C4.67353007 2.59289579 2.83417154 2.30569526 1 2 C0.67 1.34 0.34 0.68 0 0 Z " fill="#FEF9FA" transform="translate(182,153)"/>
<path d="M0 0 C1.63270104 2.87581413 2.24741973 4.91800375 2.22705078 8.21777344 C2.22689972 9.03832214 2.22674866 9.85887085 2.22659302 10.70428467 C2.21627045 11.58046448 2.20594788 12.45664429 2.1953125 13.359375 C2.1924826 14.26375305 2.18965271 15.1681311 2.18673706 16.09991455 C2.17555782 18.98341195 2.15045733 21.86659675 2.125 24.75 C2.11496728 26.70702676 2.10584194 28.66405839 2.09765625 30.62109375 C2.07562585 35.41418262 2.04111144 40.20703834 2 45 C1.67 45 1.34 45 1 45 C0.96241577 43.32659546 0.96241577 43.32659546 0.92407227 41.61938477 C0.83016579 37.4950741 0.72990486 33.3709385 0.62768555 29.24682617 C0.584273 27.4591073 0.54260271 25.67134526 0.50268555 23.88354492 C0.4451354 21.31936609 0.38139797 18.75540588 0.31640625 16.19140625 C0.29969376 15.3872377 0.28298126 14.58306915 0.26576233 13.75453186 C0.50779304 10.07330002 0.50779304 10.07330002 -1 7 C-1.125 4 -1.125 4 -1 1 C-0.67 0.67 -0.34 0.34 0 0 Z " fill="#FCB0BB" transform="translate(213,107)"/>
<path d="M0 0 C0.33 0 0.66 0 1 0 C1.09796875 1.05058594 1.1959375 2.10117188 1.296875 3.18359375 C2.0467456 10.44704624 2.73238372 16.88118293 6.29296875 23.3984375 C6.64294922 24.19121094 6.64294922 24.19121094 7 25 C6.67 25.66 6.34 26.32 6 27 C2.56703017 23.8380541 0.27503044 21.51164617 -1 17 C-1.09047357 14.0422382 -0.87198782 11.13406469 -0.625 8.1875 C-0.56828125 7.39923828 -0.5115625 6.61097656 -0.453125 5.79882812 C-0.31249026 3.86510039 -0.15766112 1.93241405 0 0 Z " fill="#FDD7D7" transform="translate(333,107)"/>
<path d="M0 0 C8.58 0 17.16 0 26 0 C25.18663133 4.88021201 24.77939233 6.9117976 22.4375 10.875 C21.98246094 11.65617187 21.52742188 12.43734375 21.05859375 13.2421875 C20.70925781 13.82226562 20.35992187 14.40234375 20 15 C19.17882113 12.65525026 18.79706146 11.48338124 19.77734375 9.1484375 C20.35162109 8.27058594 20.35162109 8.27058594 20.9375 7.375 C23.17381667 4.37479219 23.17381667 4.37479219 23 2 C11.615 1.505 11.615 1.505 0 1 C0 0.67 0 0.34 0 0 Z " fill="#D01B23" transform="translate(61,72)"/>
<path d="M0 0 C0.99 0.33 1.98 0.66 3 1 C3 1.66 3 2.32 3 3 C10.12950371 4.90120099 16.63740707 5.22424141 24 5 C17.34857547 8.90713049 8.97892514 7.27367915 1.77734375 5.6328125 C0 5 0 5 -2 3 C-1.34 2.01 -0.68 1.02 0 0 Z " fill="#D9161B" transform="translate(362,146)"/>
<path d="M0 0 C2.0625 0.4375 2.0625 0.4375 4 1 C4 1.99 4 2.98 4 4 C4.66 4 5.32 4 6 4 C6 4.66 6 5.32 6 6 C10.29 6.33 14.58 6.66 19 7 C14.57927887 9.94714742 10.9097972 9.37447004 5.8125 8.375 C2.2075497 6.61257985 0.94648075 4.44377363 -1 1 C-0.67 0.67 -0.34 0.34 0 0 Z " fill="#F8F8F8" transform="translate(416,84)"/>
<path d="M0 0 C0.33 0 0.66 0 1 0 C0.52013969 5.56890517 -0.29915181 10.67067568 -2 16 C-1.34 16 -0.68 16 0 16 C0 16.66 0 17.32 0 18 C0.99 18.33 1.98 18.66 3 19 C0.42143135 19.92091738 -0.5943287 20.18506902 -3.140625 19.0234375 C-3.75421875 18.68570313 -4.3678125 18.34796875 -5 18 C-1.92482916 5.33029613 -1.92482916 5.33029613 0 0 Z " fill="#D12A30" transform="translate(100,79)"/>
<path d="M0 0 C4.17632581 6.26448871 7.5049728 12.40958294 8 20 C5.64583257 16.98638205 3.64720254 13.88260445 1.75 10.5625 C1.20859375 9.63566406 0.6671875 8.70882812 0.109375 7.75390625 C-1.14953423 4.62879706 -0.98878778 3.16757016 0 0 Z " fill="#F8C6CA" transform="translate(313,112)"/>
<path d="M0 0 C1.32 0.66 2.64 1.32 4 2 C3.67 3.32 3.34 4.64 3 6 C-0.38932461 6 -3.74147551 5.82648298 -7.125 5.625 C-8.38570312 5.55539063 -9.64640625 5.48578125 -10.9453125 5.4140625 C-11.95335937 5.27742187 -12.96140625 5.14078125 -14 5 C-14.33 4.34 -14.66 3.68 -15 3 C-10.05 3 -5.1 3 0 3 C0 2.01 0 1.02 0 0 Z " fill="#E4BBB8" transform="translate(146,149)"/>
<path d="M0 0 C2.375 -0.1875 2.375 -0.1875 5 0 C7.02350324 3.03525486 7.32124018 4.19426202 7.625 7.6875 C7.69976562 8.49574219 7.77453125 9.30398437 7.8515625 10.13671875 C7.92503906 11.05904297 7.92503906 11.05904297 8 12 C6.68 12 5.36 12 4 12 C3.87882812 11.38511719 3.75765625 10.77023438 3.6328125 10.13671875 C3.46523438 9.32847656 3.29765625 8.52023438 3.125 7.6875 C2.96257812 6.88699219 2.80015625 6.08648437 2.6328125 5.26171875 C2.05521001 2.74698882 2.05521001 2.74698882 0 0 Z " fill="#F5D9DC" transform="translate(436,70)"/>
<path d="M0 0 C0.66 0 1.32 0 2 0 C2.99 2.31 3.98 4.62 5 7 C3.68 7.33 2.36 7.66 1 8 C1 13.61 1 19.22 1 25 C0.67 25 0.34 25 0 25 C0 16.75 0 8.5 0 0 Z " fill="#D8777B" transform="translate(286,127)"/>
<path d="M0 0 C1.65 0.33 3.3 0.66 5 1 C5 3.31 5 5.62 5 8 C3.02 8 1.04 8 -1 8 C-1.33 7.34 -1.66 6.68 -2 6 C-1.34 6 -0.68 6 0 6 C0 4.02 0 2.04 0 0 Z " fill="#FEEDEE" transform="translate(427,80)"/>
<path d="M0 0 C0 0.66 0 1.32 0 2 C-0.99 2 -1.98 2 -3 2 C-3.0825 2.94875 -3.165 3.8975 -3.25 4.875 C-4 8 -4 8 -5.875 9.1875 C-6.57625 9.455625 -7.2775 9.72375 -8 10 C-9.70921589 11.5412312 -9.70921589 11.5412312 -11 13 C-11.33 12.34 -11.66 11.68 -12 11 C-11.06981474 9.53699018 -10.13055973 8.07974421 -9.1875 6.625 C-8.66542969 5.81289062 -8.14335937 5.00078125 -7.60546875 4.1640625 C-5.32439864 1.08933539 -3.86996947 0 0 0 Z " fill="#F8F9FA" transform="translate(348,77)"/>
<path d="M0 0 C1.98 0 3.96 0 6 0 C4.77782954 4.04256383 3.37245704 7.49288959 1 11 C0.67 11 0.34 11 0 11 C0 7.37 0 3.74 0 0 Z " fill="#FCDEE1" transform="translate(287,82)"/>
<path d="M0 0 C-0.43820891 4.55737263 -0.85041169 7.57653445 -4 11 C-3.34 8.03 -2.68 5.06 -2 2 C-8.27 2 -14.54 2 -21 2 C-21 1.67 -21 1.34 -21 1 C-18.43761495 0.83138242 -15.87511576 0.66504227 -13.3125 0.5 C-12.59126953 0.45230469 -11.87003906 0.40460938 -11.12695312 0.35546875 C-7.41171286 0.11796481 -3.72305126 -0.05874637 0 0 Z " fill="#E48081" transform="translate(158,64)"/>
<path d="M0 0 C0.33 0.99 0.66 1.98 1 3 C-3.69997768 7.53374052 -8.62479365 11.20851759 -15 13 C-15.99 12.67 -16.98 12.34 -18 12 C-17.11957031 11.55269531 -16.23914063 11.10539063 -15.33203125 10.64453125 C-14.17058594 10.03996094 -13.00914062 9.43539062 -11.8125 8.8125 C-10.08966797 7.92498047 -10.08966797 7.92498047 -8.33203125 7.01953125 C-4.89608408 4.93701697 -2.69054746 2.93376079 0 0 Z " fill="#FAC0C4" transform="translate(407,139)"/>
<path d="M0 0 C2.64 0 5.28 0 8 0 C7.67 0.66 7.34 1.32 7 2 C5.35 2 3.7 2 2 2 C2 3.32 2 4.64 2 6 C3.65 6 5.3 6 7 6 C7 6.33 7 6.66 7 7 C5.35 7 3.7 7 2 7 C2 8.65 2 10.3 2 12 C1.34 12 0.68 12 0 12 C0 8.04 0 4.08 0 0 Z " fill="#B42228" transform="translate(425,73)"/>
<path d="M0 0 C0.99 0.33 1.98 0.66 3 1 C3 5.62 3 10.24 3 15 C1 14 1 14 0 11 C-0.0685495 9.10529184 -0.08480372 7.2083166 -0.0625 5.3125 C-0.05347656 4.31863281 -0.04445313 3.32476562 -0.03515625 2.30078125 C-0.02355469 1.54152344 -0.01195313 0.78226562 0 0 Z " fill="#FADCE4" transform="translate(20,125)"/>
<path d="M0 0 C2.31 0.66 4.62 1.32 7 2 C7 2.99 7 3.98 7 5 C6.34 5 5.68 5 5 5 C5.33 5.680625 5.66 6.36125 6 7.0625 C7.17307315 10.50840238 7.14180493 13.38397422 7 17 C6.67 17 6.34 17 6 17 C5.62875 15.2365625 5.62875 15.2365625 5.25 13.4375 C4.18417247 9.08923261 2.29359685 5.82266141 0 2 C0 1.34 0 0.68 0 0 Z " fill="#DC1920" transform="translate(384,98)"/>
<path d="M0 0 C1 3 1 3 0.28735352 4.80932617 C-0.09493408 5.46392822 -0.47722168 6.11853027 -0.87109375 6.79296875 C-1.48500977 7.8612793 -1.48500977 7.8612793 -2.11132812 8.95117188 C-2.54896484 9.68916016 -2.98660156 10.42714844 -3.4375 11.1875 C-3.87126953 11.93708984 -4.30503906 12.68667969 -4.75195312 13.45898438 C-5.82557231 15.31127243 -6.91162681 17.1563425 -8 19 C-8.33 19 -8.66 19 -9 19 C-9 16.69 -9 14.38 -9 12 C-8.34 12 -7.68 12 -7 12 C-7 11.34 -7 10.68 -7 10 C-6.34 9.67 -5.68 9.34 -5 9 C-4.34786708 6.97536745 -4.34786708 6.97536745 -4 5 C-3.34 5.33 -2.68 5.66 -2 6 C-1.34 4.02 -0.68 2.04 0 0 Z " fill="#D1212B" transform="translate(322,77)"/>
<path d="M0 0 C0.33 0 0.66 0 1 0 C1.19601608 1.74906659 1.38147403 3.49931846 1.5625 5.25 C1.66691406 6.22453125 1.77132812 7.1990625 1.87890625 8.203125 C1.99133925 10.79996463 2.00376885 12.608507 1 15 C0.01 15.33 -0.98 15.66 -2 16 C-2.20674944 10.21101581 -1.59162079 5.57067277 0 0 Z " fill="#FBDDDB" transform="translate(149,136)"/>
<path d="M0 0 C0.99 0 1.98 0 3 0 C3 0.66 3 1.32 3 2 C2.34 2 1.68 2 1 2 C1 3.98 1 5.96 1 8 C7.27 8.33 13.54 8.66 20 9 C20 9.33 20 9.66 20 10 C16.68751813 10.02888146 13.37506833 10.04675799 10.0625 10.0625 C9.11697266 10.07087891 8.17144531 10.07925781 7.19726562 10.08789062 C5.84858398 10.09272461 5.84858398 10.09272461 4.47265625 10.09765625 C3.64000244 10.10289307 2.80734863 10.10812988 1.94946289 10.11352539 C0 10 0 10 -1 9 C-1.1328125 7.1875 -1.1328125 7.1875 -1.125 5 C-1.12757812 4.278125 -1.13015625 3.55625 -1.1328125 2.8125 C-1 1 -1 1 0 0 Z " fill="#D5353B" transform="translate(128,119)"/>
<path d="M0 0 C0.99 0.33 1.98 0.66 3 1 C3.33 1.99 3.66 2.98 4 4 C3.01 4 2.02 4 1 4 C1.66 4.721875 2.32 5.44375 3 6.1875 C5.1535853 9.21597933 5.41176754 10.39703406 5 14 C1.68132765 11.1791285 -0.1539589 7.89719789 -2 4 C-1.25 1.5625 -1.25 1.5625 0 0 Z " fill="#FBCED4" transform="translate(74,111)"/>
<path d="M0 0 C2.86724686 0.57344937 3.8614515 0.8614515 6 3 C6 4.32 6 5.64 6 7 C2.62537285 6.45276317 0.91765 5.9451 -2 4 C-1.34 2.68 -0.68 1.36 0 0 Z " fill="#F4EFEF" transform="translate(332,150)"/>
<path d="M0 0 C2.33294775 -0.04241723 4.66702567 -0.04092937 7 0 C8 1 8 1 8.0625 4.0625 C8.041875 5.031875 8.02125 6.00125 8 7 C6.68 6.34 5.36 5.68 4 5 C4 4.34 4 3.68 4 3 C2.68 2.67 1.36 2.34 0 2 C0 1.34 0 0.68 0 0 Z " fill="#FBF1F3" transform="translate(378,101)"/>
<path d="M0 0 C1.32 0.33 2.64 0.66 4 1 C4.125 6.75 4.125 6.75 3 9 C2.01 9 1.02 9 0 9 C0 6.03 0 3.06 0 0 Z " fill="#FEE3E3" transform="translate(435,75)"/>
<path d="M0 0 C2.40928735 0.96371494 3.76007009 1.65210163 5.25 3.8125 C6.11081611 6.32321365 6.14647297 8.36348649 6 11 C5.34 11 4.68 11 4 11 C0.71428571 3.57142857 0.71428571 3.57142857 0 0 Z " fill="#F9EDEF" transform="translate(83,128)"/>
<path d="M0 0 C0.66 0 1.32 0 2 0 C2 1.65 2 3.3 2 5 C1.34 5 0.68 5 0 5 C0.33 6.32 0.66 7.64 1 9 C2.65 9.33 4.3 9.66 6 10 C4.25 10.625 4.25 10.625 2 11 C0.68 10.34 -0.64 9.68 -2 9 C-1.34 6.03 -0.68 3.06 0 0 Z " fill="#D22730" transform="translate(18,88)"/>
<path d="M0 0 C0.99 0.33 1.98 0.66 3 1 C3 4.3 3 7.6 3 11 C1.35 11 -0.3 11 -2 11 C-2 8.36 -2 5.72 -2 3 C-1.34 4.32 -0.68 5.64 0 7 C0 4.69 0 2.38 0 0 Z " fill="#F6DDDF" transform="translate(417,74)"/>
<path d="M0 0 C0.66 0.33 1.32 0.66 2 1 C2 5.29 2 9.58 2 14 C1.34 14 0.68 14 0 14 C-0.19393875 11.85473901 -0.37998676 9.70876323 -0.5625 7.5625 C-0.71912109 5.77005859 -0.71912109 5.77005859 -0.87890625 3.94140625 C-0.91886719 2.97074219 -0.95882813 2.00007813 -1 1 C-0.67 0.67 -0.34 0.34 0 0 Z " fill="#FEFBFB" transform="translate(20,100)"/>
<path d="M0 0 C0.99 0 1.98 0 3 0 C1.66511872 3.59391114 0.03977277 6.75490696 -2 10 C-3.26066301 6.21801096 -2.42292658 4.63636792 -1 1 C-0.67 0.67 -0.34 0.34 0 0 Z " fill="#D81C1F" transform="translate(73,93)"/>
<path d="M0 0 C-1.4566677 1.14795006 -2.91538937 2.29329419 -4.375 3.4375 C-5.18710937 4.07558594 -5.99921875 4.71367188 -6.8359375 5.37109375 C-9 7 -9 7 -11 8 C-10.67 6.35 -10.34 4.7 -10 3 C-9.01 3 -8.02 3 -7 3 C-7 2.01 -7 1.02 -7 0 C-3.98968256 -0.93423645 -3.13349732 -1.04449911 0 0 Z " fill="#FEE3E1" transform="translate(355,76)"/>
<path d="M0 0 C0.66 0 1.32 0 2 0 C2 3.3 2 6.6 2 10 C1.01 9.67 0.02 9.34 -1 9 C-1.09765625 2.84765625 -1.09765625 2.84765625 -1 1 C-0.67 0.67 -0.34 0.34 0 0 Z " fill="#FFEDEB" transform="translate(422,74)"/>
<path d="M0 0 C2 3 2 3 1.9375 4.9375 C0.61848701 7.83932859 -1.44878816 9.16836073 -4 11 C-4 7.80389448 -3.45328458 6.58282374 -2 3.8125 C-1.62875 3.09707031 -1.2575 2.38164063 -0.875 1.64453125 C-0.441875 0.83048828 -0.441875 0.83048828 0 0 Z " fill="#FCE5E2" transform="translate(324,76)"/>
<path d="M0 0 C0.66 0.33 1.32 0.66 2 1 C1.55123384 2.64846769 1.09069512 4.29373455 0.625 5.9375 C0.36976563 6.85402344 0.11453125 7.77054688 -0.1484375 8.71484375 C-1 11 -1 11 -3 12 C-3.2954439 6.97745369 -2.98514628 4.10457614 0 0 Z " fill="#FAFAF9" transform="translate(153,131)"/>
<path d="M0 0 C0.66 0.33 1.32 0.66 2 1 C1.21258141 2.46063143 0.4199095 3.91843173 -0.375 5.375 C-0.81585938 6.18710938 -1.25671875 6.99921875 -1.7109375 7.8359375 C-3 10 -3 10 -5 12 C-4.979375 11.21625 -4.95875 10.4325 -4.9375 9.625 C-4.81315937 7.01885039 -4.81315937 7.01885039 -6 5 C-5.38125 4.9175 -4.7625 4.835 -4.125 4.75 C-1.81562433 4.18741541 -1.81562433 4.18741541 -0.75 1.9375 C-0.5025 1.298125 -0.255 0.65875 0 0 Z " fill="#FDDFE1" transform="translate(341,85)"/>
<path d="M0 0 C2.48982535 2.27745789 4.10368997 4.62335238 5.75 7.5625 C6.19859375 8.34753906 6.6471875 9.13257812 7.109375 9.94140625 C7.40328125 10.62074219 7.6971875 11.30007812 8 12 C7.67 12.66 7.34 13.32 7 14 C3.8582069 11.90547127 3.52306827 11.46827573 2.375 8.125 C2.13523437 7.44695312 1.89546875 6.76890625 1.6484375 6.0703125 C1.01899676 4.06065231 0.4868497 2.0484431 0 0 Z " fill="#CD252D" transform="translate(309,112)"/>
<path d="M0 0 C0 0.99 0 1.98 0 3 C-2.875 3.1875 -2.875 3.1875 -6 3 C-6.66 2.01 -7.32 1.02 -8 0 C-4.94736336 -0.98120464 -3.05263664 -0.98120464 0 0 Z " fill="#F5F4F7" transform="translate(202,154)"/>
<path d="M0 0 C0.33 0 0.66 0 1 0 C1.08131463 1.43655854 1.13933559 2.8744483 1.1875 4.3125 C1.22230469 5.11300781 1.25710938 5.91351563 1.29296875 6.73828125 C0.93801608 9.47851584 0.10633718 10.29171079 -2 12 C-3.12377697 8.69564916 -2.89554742 6.9493138 -1.5625 3.75 C-1.27503906 3.04359375 -0.98757813 2.3371875 -0.69140625 1.609375 C-0.46324219 1.07828125 -0.23507812 0.5471875 0 0 Z " fill="#FEECEA" transform="translate(416,122)"/>
<path d="M0 0 C1.32 0.33 2.64 0.66 4 1 C2.54744301 4.82946843 0.57104439 6.12050295 -3 8 C-1.125 2.25 -1.125 2.25 0 0 Z " fill="#D01924" transform="translate(297,73)"/>
<path d="M0 0 C1.65 0 3.3 0 5 0 C5 2.31 5 4.62 5 7 C4.34 7 3.68 7 3 7 C2.01 4.69 1.02 2.38 0 0 Z " fill="#FDE9E7" transform="translate(168,99)"/>
<path d="M0 0 C2 3 2 3 1.6875 5 C1.460625 5.66 1.23375 6.32 1 7 C0.67 7.99 0.34 8.98 0 10 C-0.66 10 -1.32 10 -2 10 C-2.66 10.66 -3.32 11.32 -4 12 C-3.33501617 7.61110675 -1.81242323 4.0188515 0 0 Z " fill="#D02228" transform="translate(293,81)"/>
<path d="M0 0 C1.8125 0.125 1.8125 0.125 4 1 C5.75 4.0625 5.75 4.0625 7 7 C6.01 7 5.02 7 4 7 C0 2.65714286 0 2.65714286 0 0 Z " fill="#FAF5F7" transform="translate(75,115)"/>
<path d="M0 0 C0.66 0.33 1.32 0.66 2 1 C1.44271087 4.34373475 0.64826111 7.03312999 -1 10 C-1.66 10 -2.32 10 -3 10 C-2.01 6.7 -1.02 3.4 0 0 Z " fill="#D62D33" transform="translate(203,72)"/>
<path d="M0 0 C3.68754757 0.49831724 5.60490662 1.10067643 8 4 C7.67 4.66 7.34 5.32 7 6 C6.01 5.67 5.02 5.34 4 5 C4 4.34 4 3.68 4 3 C2.35 2.67 0.7 2.34 -1 2 C-0.67 1.34 -0.34 0.68 0 0 Z " fill="#FBF9F8" transform="translate(432,65)"/>
<path d="M0 0 C0.99 0 1.98 0 3 0 C2.67 2.64 2.34 5.28 2 8 C1.01 7.67 0.02 7.34 -1 7 C-0.67 4.69 -0.34 2.38 0 0 Z " fill="#F6D6D5" transform="translate(246,126)"/>
<path d="M0 0 C1.95582488 2.93373731 3.56224304 5.78216298 5 9 C4.67 9.66 4.34 10.32 4 11 C1.4375 8.875 1.4375 8.875 -1 6 C-0.8125 2.6875 -0.8125 2.6875 0 0 Z " fill="#F8C1C1" transform="translate(335,123)"/>
<path d="M0 0 C0.33 0 0.66 0 1 0 C1 2.31 1 4.62 1 7 C1.66 7 2.32 7 3 7 C2.01 10.465 2.01 10.465 1 14 C0.67 14 0.34 14 0 14 C0 9.38 0 4.76 0 0 Z " fill="#FFDEDC" transform="translate(198,71)"/>
<path d="M0 0 C2.625 -0.1875 2.625 -0.1875 5 0 C4.34 1.32 3.68 2.64 3 4 C1.35 3.67 -0.3 3.34 -2 3 C-1.34 2.01 -0.68 1.02 0 0 Z " fill="#F3F6F8" transform="translate(92,66)"/>
<path d="M0 0 C2.4375 1.5625 2.4375 1.5625 5 4 C5.8125 7.75 5.8125 7.75 6 11 C0 3.28571429 0 3.28571429 0 0 Z " fill="#FBA9A5" transform="translate(81,129)"/>
<path d="M0 0 C0.66 0.99 1.32 1.98 2 3 C-3.29230769 7.92307692 -3.29230769 7.92307692 -6.875 8.3125 C-7.926875 8.1578125 -7.926875 8.1578125 -9 8 C-8.4225 7.7525 -7.845 7.505 -7.25 7.25 C-4.04247707 5.46804282 -1.64929455 3.2985891 0 0 Z " fill="#C9262A" transform="translate(387,117)"/>
<path d="M0 0 C0.66 0.33 1.32 0.66 2 1 C1.75 3.375 1.75 3.375 1 6 C-1.0625 7.3125 -1.0625 7.3125 -3 8 C-1.125 2.25 -1.125 2.25 0 0 Z " fill="#FBD6D6" transform="translate(78,89)"/>
<path d="M0 0 C0.66 0 1.32 0 2 0 C1.38722388 2.96175123 0.74627478 4.38058783 -1 7 C-1.66 7 -2.32 7 -3 7 C-2.25 2.25 -2.25 2.25 0 0 Z " fill="#F9E0DD" transform="translate(366,102)"/>
<path d="M0 0 C0.66 0.99 1.32 1.98 2 3 C0.7260411 5.03833424 -0.61061923 7.03852126 -2 9 C-2.66 9 -3.32 9 -4 9 C-2.94124926 5.59687262 -1.99097846 2.98646769 0 0 Z " fill="#FDDBDE" transform="translate(316,91)"/>
<path d="M0 0 C0.33 0 0.66 0 1 0 C1 3.96 1 7.92 1 12 C1.66 12.33 2.32 12.66 3 13 C2.01 13.33 1.02 13.66 0 14 C-0.66 13.01 -1.32 12.02 -2 11 C-1.34 11 -0.68 11 0 11 C0 7.37 0 3.74 0 0 Z " fill="#FEA8A9" transform="translate(424,73)"/>
<path d="M0 0 C0 1.65 0 3.3 0 5 C-1.32 5.33 -2.64 5.66 -4 6 C-3.625 3.5625 -3.625 3.5625 -3 1 C-1 0 -1 0 0 0 Z " fill="#EAC9CF" transform="translate(23,148)"/>
<path d="M0 0 C0.99 0 1.98 0 3 0 C3 0.66 3 1.32 3 2 C2.34 2 1.68 2 1 2 C1 4.31 1 6.62 1 9 C0.34 9 -0.32 9 -1 9 C-1.09765625 2.84765625 -1.09765625 2.84765625 -1 1 C-0.67 0.67 -0.34 0.34 0 0 Z " fill="#E55864" transform="translate(128,119)"/>
<path d="M0 0 C3.875 1.875 3.875 1.875 5 3 C5.04063832 4.66617115 5.042721 6.33388095 5 8 C2.27573689 5.64722731 1.1858237 3.37503669 0 0 Z " fill="#FCBCB9" transform="translate(74,117)"/>
<path d="M0 0 C0 3.63 0 7.26 0 11 C-0.33 11 -0.66 11 -1 11 C-1.12375 9.88625 -1.2475 8.7725 -1.375 7.625 C-1.6465813 3.96896323 -1.6465813 3.96896323 -4 2 C-1 0 -1 0 0 0 Z " fill="#E4141F" transform="translate(197,101)"/>
<path d="M0 0 C1 3 1 3 0 6 C-0.66 6 -1.32 6 -2 6 C-2.66 4.35 -3.32 2.7 -4 1 C-2 0 -2 0 0 0 Z " fill="#D91D1F" transform="translate(214,101)"/>
<path d="M0 0 C0.33 0.99 0.66 1.98 1 3 C-0.4375 5.6875 -0.4375 5.6875 -2 8 C-2.66 7.67 -3.32 7.34 -4 7 C-4 4 -4 4 -2 1.8125 C-1.34 1.214375 -0.68 0.61625 0 0 Z " fill="#FAF8FB" transform="translate(79,93)"/>
<path d="M0 0 C1.32 0 2.64 0 4 0 C4.33 1.32 4.66 2.64 5 4 C3.68 4.33 2.36 4.66 1 5 C0.67 3.35 0.34 1.7 0 0 Z " fill="#E51618" transform="translate(145,88)"/>
<path d="M0 0 C0 1.32 0 2.64 0 4 C-2 4 -4 4 -6 4 C-6 3.01 -6 2.02 -6 1 C-4 0 -4 0 0 0 Z " fill="#DF1D22" transform="translate(80,85)"/>
<path d="M0 0 C1.32 0 2.64 0 4 0 C4.33 0.99 4.66 1.98 5 3 C3.02 3.33 1.04 3.66 -1 4 C-0.67 2.68 -0.34 1.36 0 0 Z " fill="#F6F5F6" transform="translate(57,66)"/>
<path d="M0 0 C0.33 0 0.66 0 1 0 C1.36923077 6.52307692 1.36923077 6.52307692 -0.5 8.9375 C-0.995 9.288125 -1.49 9.63875 -2 10 C-1.125 2.25 -1.125 2.25 0 0 Z " fill="#FCD2D3" transform="translate(242,142)"/>
<path d="M0 0 C5.53846154 0.61538462 5.53846154 0.61538462 7.875 2.5625 C8.431875 3.2740625 8.431875 3.2740625 9 4 C8.01 4.495 8.01 4.495 7 5 C4.5249829 3.88568235 2.32116581 2.41849022 0 1 C0 0.67 0 0.34 0 0 Z " fill="#C7282B" transform="translate(348,144)"/>
<path d="M0 0 C0.66 0.66 1.32 1.32 2 2 C1.1875 3.9375 1.1875 3.9375 0 6 C-0.99 6.33 -1.98 6.66 -3 7 C-2.625 4.0625 -2.625 4.0625 -2 1 C-1.34 0.67 -0.68 0.34 0 0 Z " fill="#FBFCFB" transform="translate(154,107)"/>
<path d="M0 0 C0 0.66 0 1.32 0 2 C1.32 2.33 2.64 2.66 4 3 C1.36 3.33 -1.28 3.66 -4 4 C-4 3.01 -4 2.02 -4 1 C-2 0 -2 0 0 0 Z " fill="#F3CCD0" transform="translate(372,99)"/>
<path d="M0 0 C2.475 0.495 2.475 0.495 5 1 C4.67 2.32 4.34 3.64 4 5 C3.34 4.34 2.68 3.68 2 3 C1.34 3.66 0.68 4.32 0 5 C0 3.35 0 1.7 0 0 Z " fill="#FDC3C9" transform="translate(427,80)"/>
<path d="M0 0 C1.98 0 3.96 0 6 0 C6 0.99 6 1.98 6 3 C4.35 3 2.7 3 1 3 C0.67 2.01 0.34 1.02 0 0 Z " fill="#FAFBFC" transform="translate(386,68)"/>
<path d="" fill="#D2D2C3" transform="translate(0,0)"/>
<path d="" fill="#9595AA" transform="translate(0,0)"/>
</svg>
