<?xml version="1.0" encoding="UTF-8"?>
<!DOCTYPE svg PUBLIC "-//W3C//DTD SVG 1.1//EN" "http://www.w3.org/Graphics/SVG/1.1/DTD/svg11.dtd">
<svg xmlns="http://www.w3.org/2000/svg" version="1.1" width="874px" height="285px" style="shape-rendering:geometricPrecision; text-rendering:geometricPrecision; image-rendering:optimizeQuality; fill-rule:evenodd; clip-rule:evenodd" xmlns:xlink="http://www.w3.org/1999/xlink">
<g><path style="opacity:1" fill="#fdf108" d="M 520.5,-0.5 C 521.5,-0.5 522.5,-0.5 523.5,-0.5C 534.167,10.5 544.833,21.5 555.5,32.5C 555.631,33.2389 555.464,33.9056 555,34.5C 543.631,45.7016 532.465,57.0349 521.5,68.5C 517.165,70.9655 513.832,74.4655 511.5,79C 514.651,84.6508 518.984,89.1508 524.5,92.5C 527.57,95.5638 530.237,98.8971 532.5,102.5C 521.8,114.034 510.633,125.034 499,135.5C 479.54,117.041 460.374,98.2078 441.5,79C 468.035,52.632 494.368,26.132 520.5,-0.5 Z"/></g>
<g><path style="opacity:1" fill="#f6941e" d="M 607.5,16.5 C 613.167,21.5 618.5,26.8333 623.5,32.5C 623.672,33.4916 623.338,34.1583 622.5,34.5C 607.895,48.6043 593.395,62.9376 579,77.5C 578.686,80.705 580.186,82.705 583.5,83.5C 588.831,90.1627 594.498,96.496 600.5,102.5C 589.746,114.089 578.579,125.089 567,135.5C 555.34,124.673 543.84,113.673 532.5,102.5C 530.237,98.8971 527.57,95.5638 524.5,92.5C 522.905,89.0687 520.405,86.402 517,84.5C 514.539,78.0513 516.039,72.718 521.5,68.5C 532.465,57.0349 543.631,45.7016 555,34.5C 555.464,33.9056 555.631,33.2389 555.5,32.5C 561.5,26.8333 567.5,21.1667 573.5,15.5C 575.06,15.4809 576.56,15.1476 578,14.5C 579.618,12.2167 581.785,10.7167 584.5,10C 584.167,9.66667 583.833,9.33333 583.5,9C 584.531,5.96053 586.365,3.46053 589,1.5C 590.82,2.90191 592.654,4.23525 594.5,5.5C 594.291,6.08605 593.957,6.58605 593.5,7C 595.1,8.60803 596.433,10.4414 597.5,12.5C 597.023,13.4776 596.357,14.3109 595.5,15C 597.677,15.3449 599.677,14.8449 601.5,13.5C 603.332,14.8214 605.332,15.8214 607.5,16.5 Z"/></g>
<g><path style="opacity:1" fill="#f0952e" d="M 588.5,-0.5 C 589.5,-0.5 590.5,-0.5 591.5,-0.5C 596.833,5.16667 602.167,10.8333 607.5,16.5C 605.332,15.8214 603.332,14.8214 601.5,13.5C 599.677,14.8449 597.677,15.3449 595.5,15C 596.357,14.3109 597.023,13.4776 597.5,12.5C 596.433,10.4414 595.1,8.60803 593.5,7C 593.957,6.58605 594.291,6.08605 594.5,5.5C 592.654,4.23525 590.82,2.90191 589,1.5C 586.365,3.46053 584.531,5.96053 583.5,9C 583.833,9.33333 584.167,9.66667 584.5,10C 581.785,10.7167 579.618,12.2167 578,14.5C 576.56,15.1476 575.06,15.4809 573.5,15.5C 578.5,10.1667 583.5,4.83333 588.5,-0.5 Z"/></g>
<g><path style="opacity:1" fill="#ec1c24" d="M 656.5,-0.5 C 657.5,-0.5 658.5,-0.5 659.5,-0.5C 663.833,4.16667 668.167,8.83333 672.5,13.5C 675.833,18.8333 680.167,23.1667 685.5,26.5C 695.132,35.6311 704.632,44.9644 714,54.5C 714.667,55.5 714.667,56.5 714,57.5C 689.031,82.4686 664.198,107.302 639.5,132C 637.694,132.81 636.194,133.976 635,135.5C 623.34,124.673 611.84,113.673 600.5,102.5C 594.498,96.496 588.831,90.1627 583.5,83.5C 583.1,81.6233 582.1,80.1233 580.5,79C 582.733,75.5889 585.733,74.5889 589.5,76C 591.278,73.8646 591.945,71.3646 591.5,68.5C 595.192,68.3048 597.026,66.3048 597,62.5C 601.187,57.2948 606.187,53.2948 612,50.5C 612.42,46.2458 614.586,43.2458 618.5,41.5C 619.889,39.1324 621.222,36.7991 622.5,34.5C 623.338,34.1583 623.672,33.4916 623.5,32.5C 634.833,21.8333 645.833,10.8333 656.5,-0.5 Z"/></g>
<g><path style="opacity:0.835" fill="#c8333a" d="M 672.5,13.5 C 677.167,17.5 681.5,21.8333 685.5,26.5C 680.167,23.1667 675.833,18.8333 672.5,13.5 Z"/></g>
<g><path style="opacity:1" fill="#e72f1b" d="M 622.5,34.5 C 621.222,36.7991 619.889,39.1324 618.5,41.5C 614.586,43.2458 612.42,46.2458 612,50.5C 606.187,53.2948 601.187,57.2948 597,62.5C 597.026,66.3048 595.192,68.3048 591.5,68.5C 591.945,71.3646 591.278,73.8646 589.5,76C 585.733,74.5889 582.733,75.5889 580.5,79C 582.1,80.1233 583.1,81.6233 583.5,83.5C 580.186,82.705 578.686,80.705 579,77.5C 593.395,62.9376 607.895,48.6043 622.5,34.5 Z"/></g>
<g><path style="opacity:1" fill="#f1a211" d="M 521.5,68.5 C 516.039,72.718 514.539,78.0513 517,84.5C 520.405,86.402 522.905,89.0687 524.5,92.5C 518.984,89.1508 514.651,84.6508 511.5,79C 513.832,74.4655 517.165,70.9655 521.5,68.5 Z"/></g>
<g><path style="opacity:1" fill="#211e1f" d="M 236.5,284.5 C 231.167,284.5 225.833,284.5 220.5,284.5C 220.667,252.165 220.5,219.832 220,187.5C 219.727,185.671 218.893,184.171 217.5,183C 213.371,181.051 209.037,179.884 204.5,179.5C 204.286,177.856 204.62,176.356 205.5,175C 224.851,174.277 244.184,174.61 263.5,176C 281.573,178.74 290.073,189.24 289,207.5C 286.756,222.076 278.256,230.243 263.5,232C 254.506,232.5 245.506,232.666 236.5,232.5C 236.5,249.833 236.5,267.167 236.5,284.5 Z M 244.5,182.5 C 268.296,182.472 276.462,193.805 269,216.5C 266.736,219.433 263.902,221.6 260.5,223C 252.573,224.353 244.573,225.186 236.5,225.5C 236.333,212.163 236.5,198.829 237,185.5C 239.48,184.188 241.98,183.188 244.5,182.5 Z"/></g>
<g><path style="opacity:0.993" fill="#211e1f" d="M 30.5,284.5 C 25.5,284.5 20.5,284.5 15.5,284.5C 15.6666,253.832 15.5,223.165 15,192.5C 15.0372,188.841 13.8705,185.674 11.5,183C 7.67315,181.21 3.67315,180.044 -0.5,179.5C -0.5,178.167 -0.5,176.833 -0.5,175.5C 18.7793,174.242 38.1126,174.408 57.5,176C 77.2883,179.055 85.7883,190.555 83,210.5C 79.7094,223.596 71.2094,230.763 57.5,232C 48.5062,232.5 39.5062,232.666 30.5,232.5C 30.5,249.833 30.5,267.167 30.5,284.5 Z M 38.5,182.5 C 60.2654,181.098 69.0987,191.098 65,212.5C 63.5671,217.598 60.4005,221.098 55.5,223C 47.2372,224.34 38.9039,225.174 30.5,225.5C 30.3334,212.496 30.5001,199.496 31,186.5C 31.3076,185.692 31.8076,185.025 32.5,184.5C 34.6568,183.95 36.6568,183.283 38.5,182.5 Z"/></g>
<g><path style="opacity:1" fill="#211e1f" d="M 593.5,284.5 C 573.167,284.5 552.833,284.5 532.5,284.5C 532.667,252.498 532.5,220.498 532,188.5C 527.795,184.315 522.628,182.648 516.5,183.5C 516.5,181.833 516.5,180.167 516.5,178.5C 527.184,177.632 537.851,176.632 548.5,175.5C 548.333,208.502 548.5,241.502 549,274.5C 549.903,275.701 551.069,276.535 552.5,277C 561.833,277.667 571.167,277.667 580.5,277C 583,275.833 584.833,274 586,271.5C 586.972,267.857 587.806,264.19 588.5,260.5C 590.396,259.534 592.396,259.201 594.5,259.5C 594.621,267.858 594.288,276.191 593.5,284.5 Z"/></g>
<g><path style="opacity:1" fill="#221e1f" d="M 387.5,284.5 C 366.167,284.5 344.833,284.5 323.5,284.5C 323.667,252.165 323.5,219.832 323,187.5C 322.727,185.671 321.893,184.171 320.5,183C 316.371,181.051 312.037,179.884 307.5,179.5C 307.286,177.856 307.62,176.356 308.5,175C 333.833,174.333 359.167,174.333 384.5,175C 385.258,182.119 385.925,189.286 386.5,196.5C 384.167,196.5 381.833,196.5 379.5,196.5C 379.477,191.289 377.477,187.122 373.5,184C 362.825,182.028 352.158,182.028 341.5,184C 340.874,184.75 340.374,185.584 340,186.5C 339.5,199.162 339.333,211.829 339.5,224.5C 348.559,224.846 357.559,224.346 366.5,223C 368.081,222.293 369.581,221.46 371,220.5C 372.372,217.382 373.538,214.216 374.5,211C 376.134,210.506 377.801,210.34 379.5,210.5C 379.5,222.167 379.5,233.833 379.5,245.5C 377.533,245.739 375.699,245.406 374,244.5C 373.722,239.809 371.889,235.976 368.5,233C 358.891,231.641 349.224,231.141 339.5,231.5C 339.176,246.412 339.509,261.245 340.5,276C 346.395,277.124 352.395,277.624 358.5,277.5C 364.911,277.603 371.244,277.103 377.5,276C 380.619,271.705 382.285,266.871 382.5,261.5C 384.527,261.338 386.527,261.505 388.5,262C 389.022,262.561 389.355,263.228 389.5,264C 388.771,270.829 388.104,277.663 387.5,284.5 Z"/></g>
<g><path style="opacity:1" fill="#211e1f" d="M 642.5,284.5 C 637.167,284.5 631.833,284.5 626.5,284.5C 626.193,254.913 626.527,225.247 627.5,195.5C 626.77,192.891 626.27,190.224 626,187.5C 621.686,184.543 616.853,183.043 611.5,183C 610.62,181.644 610.286,180.144 610.5,178.5C 621.182,177.632 631.848,176.632 642.5,175.5C 642.5,211.833 642.5,248.167 642.5,284.5 Z"/></g>
<g><path style="opacity:1" fill="#211d1e" d="M 873.5,261.5 C 873.5,269.167 873.5,276.833 873.5,284.5C 852.167,284.5 830.833,284.5 809.5,284.5C 809.667,253.498 809.5,222.498 809,191.5C 808.941,188.178 807.774,185.344 805.5,183C 801.401,180.91 797.067,179.744 792.5,179.5C 792.286,177.856 792.62,176.356 793.5,175C 818.833,174.333 844.167,174.333 869.5,175C 870.184,181.802 870.851,188.636 871.5,195.5C 869.257,196.474 866.924,196.808 864.5,196.5C 864.797,191.112 862.797,186.945 858.5,184C 847.825,182.028 837.158,182.028 826.5,184C 825.874,184.75 825.374,185.584 825,186.5C 824.5,199.162 824.333,211.829 824.5,224.5C 833.559,224.846 842.559,224.346 851.5,223C 856.807,220.648 859.473,216.481 859.5,210.5C 861.167,210.5 862.833,210.5 864.5,210.5C 864.5,222.167 864.5,233.833 864.5,245.5C 862.833,245.5 861.167,245.5 859.5,245.5C 859.473,240.283 857.473,236.116 853.5,233C 843.891,231.641 834.224,231.141 824.5,231.5C 824.333,245.837 824.5,260.171 825,274.5C 825.308,275.308 825.808,275.975 826.5,276.5C 837.787,277.645 849.12,277.811 860.5,277C 862.286,276.215 863.786,275.049 865,273.5C 866.283,269.586 867.116,265.586 867.5,261.5C 869.5,261.5 871.5,261.5 873.5,261.5 Z"/></g>
<g><path style="opacity:1" fill="#201d1e" d="M 764.5,284.5 C 759.833,284.5 755.167,284.5 750.5,284.5C 733.012,254.194 715.512,223.861 698,193.5C 697.5,223.832 697.333,254.165 697.5,284.5C 694.167,284.5 690.833,284.5 687.5,284.5C 687.667,252.832 687.5,221.165 687,189.5C 686.907,186.993 686.074,184.826 684.5,183C 680.371,181.051 676.037,179.884 671.5,179.5C 671.5,177.833 671.5,176.167 671.5,174.5C 682.172,174.333 692.839,174.5 703.5,175C 704.308,175.308 704.975,175.808 705.5,176.5C 721.931,204.411 738.098,232.411 754,260.5C 754.333,232.167 754.667,203.833 755,175.5C 758.057,174.549 761.223,174.216 764.5,174.5C 764.5,211.167 764.5,247.833 764.5,284.5 Z"/></g>
<g><path style="opacity:1" fill="#211d1e" d="M 192.5,284.5 C 186.833,284.5 181.167,284.5 175.5,284.5C 170.885,272.936 166.551,261.27 162.5,249.5C 149.163,249.333 135.829,249.5 122.5,250C 117.997,261.342 113.997,272.842 110.5,284.5C 106.5,284.5 102.5,284.5 98.5,284.5C 109.687,253.108 121.187,221.775 133,190.5C 133.769,187.901 133.602,185.401 132.5,183C 128.979,181.326 125.313,180.16 121.5,179.5C 121.286,177.856 121.62,176.356 122.5,175C 131.5,174.333 140.5,174.333 149.5,175C 164.524,211.217 178.857,247.717 192.5,284.5 Z M 141.5,196.5 C 143.136,197.749 144.303,199.416 145,201.5C 149.682,214.568 154.516,227.568 159.5,240.5C 148.167,241.833 136.833,241.833 125.5,240.5C 131.144,225.908 136.477,211.242 141.5,196.5 Z"/></g>
<g><path style="opacity:1" fill="#211d1e" d="M 497.5,284.5 C 491.833,284.5 486.167,284.5 480.5,284.5C 470.226,267.053 459.726,249.719 449,232.5C 446.959,231.577 444.792,231.244 442.5,231.5C 442.5,249.167 442.5,266.833 442.5,284.5C 437.167,284.5 431.833,284.5 426.5,284.5C 426.667,252.165 426.5,219.832 426,187.5C 425.727,185.671 424.893,184.171 423.5,183C 419.224,181.514 414.891,180.181 410.5,179C 409.167,177.667 409.167,176.333 410.5,175C 430.189,174.171 449.856,174.504 469.5,176C 488.351,179.843 496.185,191.343 493,210.5C 490.659,218.841 485.493,224.674 477.5,228C 473.5,229 469.5,230 465.5,231C 476.819,248.475 487.485,266.308 497.5,284.5 Z M 448.5,182.5 C 472.969,182.453 480.802,193.786 472,216.5C 469.592,218.956 466.759,220.789 463.5,222C 456.625,223.883 449.625,224.716 442.5,224.5C 442.333,211.496 442.5,198.496 443,185.5C 444.719,184.131 446.552,183.131 448.5,182.5 Z"/></g>
</svg>
