<?xml version="1.0" encoding="UTF-8"?>
<!DOCTYPE svg PUBLIC "-//W3C//DTD SVG 1.1//EN" "http://www.w3.org/Graphics/SVG/1.1/DTD/svg11.dtd">
<svg xmlns="http://www.w3.org/2000/svg" version="1.1" width="444px" height="276px" style="shape-rendering:geometricPrecision; text-rendering:geometricPrecision; image-rendering:optimizeQuality; fill-rule:evenodd; clip-rule:evenodd" xmlns:xlink="http://www.w3.org/1999/xlink">
<g><path style="opacity:0.155" fill="#142e73" d="M 242.5,83.5 C 228.323,83.1709 214.323,83.5042 200.5,84.5C 199.391,84.5569 198.391,84.8902 197.5,85.5C 197.577,84.2502 198.244,83.4169 199.5,83C 214.006,82.1725 228.339,82.3392 242.5,83.5 Z"/></g>
<g><path style="opacity:0.824" fill="#0c2f7d" d="M 251.5,84.5 C 256.654,85.5452 261.321,87.5452 265.5,90.5C 264.5,90.5 263.5,90.5 262.5,90.5C 258.789,88.493 255.122,86.493 251.5,84.5 Z"/></g>
<g><path style="opacity:1" fill="#0f3092" d="M 182.5,103.5 C 182.657,102.127 182.49,100.793 182,99.5C 178.779,102.728 177.279,102.062 177.5,97.5C 179.5,97.5 181.5,97.5 183.5,97.5C 183.403,93.5543 181.737,90.3876 178.5,88C 180.158,87.2747 180.658,86.108 180,84.5C 178.951,85.5171 177.784,85.6838 176.5,85C 177.38,83.6439 177.714,82.1439 177.5,80.5C 173.116,80.1744 168.783,80.5078 164.5,81.5C 163.332,83.2174 161.665,83.8841 159.5,83.5C 162.237,79.9672 165.904,78.3005 170.5,78.5C 183.489,80.3394 188.322,87.6727 185,100.5C 184.623,101.942 183.79,102.942 182.5,103.5 Z"/></g>
<g><path style="opacity:1" fill="#0631a0" d="M 304.5,86.5 C 313.167,86.5 321.833,86.5 330.5,86.5C 329.843,111.19 330.51,135.523 332.5,159.5C 333.11,160.391 333.443,161.391 333.5,162.5C 334.891,164.921 335.725,167.588 336,170.5C 338.115,167.682 339.948,167.849 341.5,171C 340.022,173.039 338.022,173.872 335.5,173.5C 335.923,176.243 334.756,177.576 332,177.5C 328.702,176.361 327.202,174.028 327.5,170.5C 326.5,170.5 325.5,170.5 324.5,170.5C 324.414,172.677 323.747,174.677 322.5,176.5C 324.369,177.624 326.369,178.457 328.5,179C 329.337,180.011 329.67,181.178 329.5,182.5C 326.085,181.068 322.585,179.735 319,178.5C 316.878,179.22 316.378,180.387 317.5,182C 316.584,182.374 315.75,182.874 315,183.5C 314.329,182.748 313.496,182.414 312.5,182.5C 310.396,180.628 309.063,178.295 308.5,175.5C 307.578,170.849 306.578,166.182 305.5,161.5C 304.5,136.509 304.167,111.509 304.5,86.5 Z"/></g>
<g><path style="opacity:1" fill="#07309f" d="M 182.5,103.5 C 182.5,103.833 182.5,104.167 182.5,104.5C 180.549,104.773 179.049,104.107 178,102.5C 175.306,105.671 172.306,105.671 169,102.5C 168.691,104.391 169.525,105.725 171.5,106.5C 170.562,107.553 169.395,108.22 168,108.5C 165.756,106.816 163.256,105.816 160.5,105.5C 153.007,98.4111 152.674,91.0777 159.5,83.5C 161.665,83.8841 163.332,83.2174 164.5,81.5C 168.783,80.5078 173.116,80.1744 177.5,80.5C 177.714,82.1439 177.38,83.6439 176.5,85C 177.784,85.6838 178.951,85.5171 180,84.5C 180.658,86.108 180.158,87.2747 178.5,88C 181.737,90.3876 183.403,93.5543 183.5,97.5C 181.5,97.5 179.5,97.5 177.5,97.5C 177.279,102.062 178.779,102.728 182,99.5C 182.49,100.793 182.657,102.127 182.5,103.5 Z"/></g>
<g><path style="opacity:1" fill="#06319d" d="M 242.5,83.5 C 245.57,83.3677 248.57,83.701 251.5,84.5C 255.122,86.493 258.789,88.493 262.5,90.5C 262.083,91.1239 261.416,91.4573 260.5,91.5C 257.349,89.7113 254.016,89.2113 250.5,90C 253.577,92.8528 257.244,94.0195 261.5,93.5C 261.5,94.5 261.5,95.5 261.5,96.5C 259.5,96.5 257.5,96.5 255.5,96.5C 255.5,98.1667 255.5,99.8333 255.5,101.5C 252.755,101.373 250.755,102.54 249.5,105C 236.572,105.509 236.572,104.009 249.5,100.5C 249,100.167 248.5,99.8333 248,99.5C 242.498,98.1634 236.998,97.83 231.5,98.5C 232.924,100.718 234.924,102.218 237.5,103C 235.027,104.402 235.027,105.902 237.5,107.5C 241.796,108.459 246.129,109.125 250.5,109.5C 250.5,110.5 250.5,111.5 250.5,112.5C 252.619,112.468 253.952,113.468 254.5,115.5C 245.944,110.321 236.611,108.321 226.5,109.5C 229.305,108.681 232.305,108.181 235.5,108C 232.048,106.215 229.214,103.715 227,100.5C 225.182,102.645 223.682,102.645 222.5,100.5C 224.287,99.684 225.954,98.684 227.5,97.5C 226.197,95.4106 226.697,93.7439 229,92.5C 232,92.8333 235,93.1667 238,93.5C 239.786,91.9007 241.953,91.0674 244.5,91C 244.167,90.6667 243.833,90.3333 243.5,90C 231.437,90.049 219.77,89.8823 208.5,89.5C 208.167,90 207.833,90.5 207.5,91C 210.235,94.4696 209.235,95.9696 204.5,95.5C 204.589,127.165 204.755,158.831 205,190.5C 204.586,190.957 204.086,191.291 203.5,191.5C 202.667,159.839 202.167,128.172 202,96.5C 201.075,95.9535 200.242,95.2868 199.5,94.5C 201.396,93.5344 203.396,93.2011 205.5,93.5C 205.299,89.65 203.466,88.65 200,90.5C 199.722,89.5842 199.222,88.9175 198.5,88.5C 198.733,86.9382 199.4,85.6049 200.5,84.5C 214.323,83.5042 228.323,83.1709 242.5,83.5 Z"/></g>
<g><path style="opacity:1" fill="#06309f" d="M 198.5,88.5 C 199.222,88.9175 199.722,89.5842 200,90.5C 203.466,88.65 205.299,89.65 205.5,93.5C 203.396,93.2011 201.396,93.5344 199.5,94.5C 200.242,95.2868 201.075,95.9535 202,96.5C 202.167,128.172 202.667,159.839 203.5,191.5C 204.086,191.291 204.586,190.957 205,190.5C 204.755,158.831 204.589,127.165 204.5,95.5C 209.235,95.9696 210.235,94.4696 207.5,91C 207.833,90.5 208.167,90 208.5,89.5C 219.77,89.8823 231.437,90.049 243.5,90C 243.833,90.3333 244.167,90.6667 244.5,91C 241.953,91.0674 239.786,91.9007 238,93.5C 235,93.1667 232,92.8333 229,92.5C 226.697,93.7439 226.197,95.4106 227.5,97.5C 225.954,98.684 224.287,99.684 222.5,100.5C 223.682,102.645 225.182,102.645 227,100.5C 229.214,103.715 232.048,106.215 235.5,108C 232.305,108.181 229.305,108.681 226.5,109.5C 225.503,128.993 225.17,148.66 225.5,168.5C 238.529,170.407 249.529,166.74 258.5,157.5C 257.797,159.716 256.464,161.549 254.5,163C 256.107,164.049 256.773,165.549 256.5,167.5C 253.786,167.25 251.119,167.083 248.5,167C 249.747,168.458 249.747,169.958 248.5,171.5C 251.404,172.681 253.904,172.014 256,169.5C 256.72,171.112 256.554,172.612 255.5,174C 260.681,176.031 260.347,177.197 254.5,177.5C 254.5,178.833 254.5,180.167 254.5,181.5C 255.822,181.33 256.989,181.663 258,182.5C 258.483,181.552 258.649,180.552 258.5,179.5C 261.894,180.572 265.394,181.572 269,182.5C 273.086,181.142 273.252,179.642 269.5,178C 271.107,178.019 272.774,178.185 274.5,178.5C 274.421,177.07 274.754,175.736 275.5,174.5C 273.952,174.788 272.285,174.788 270.5,174.5C 272.445,169.742 275.111,165.409 278.5,161.5C 280.227,165.307 282.061,165.307 284,161.5C 284.414,161.957 284.914,162.291 285.5,162.5C 287.387,159.794 289.054,157.127 290.5,154.5C 285.795,171.867 275.129,183.867 258.5,190.5C 255.784,190.678 253.117,191.178 250.5,192C 233.17,192.5 215.837,192.667 198.5,192.5C 198.5,157.833 198.5,123.167 198.5,88.5 Z"/></g>
<g><path style="opacity:1" fill="#06319f" d="M 381.5,85.5 C 382.117,85.6107 382.617,85.944 383,86.5C 383.667,112.833 383.667,139.167 383,165.5C 380.784,175.299 375.617,182.965 367.5,188.5C 363.571,190.954 359.238,192.621 354.5,193.5C 345.048,194.979 335.715,194.646 326.5,192.5C 324.217,192.392 322.217,191.559 320.5,190C 317.334,188 314.668,185.5 312.5,182.5C 313.496,182.414 314.329,182.748 315,183.5C 315.75,182.874 316.584,182.374 317.5,182C 316.378,180.387 316.878,179.22 319,178.5C 322.585,179.735 326.085,181.068 329.5,182.5C 329.67,181.178 329.337,180.011 328.5,179C 326.369,178.457 324.369,177.624 322.5,176.5C 323.747,174.677 324.414,172.677 324.5,170.5C 325.5,170.5 326.5,170.5 327.5,170.5C 327.202,174.028 328.702,176.361 332,177.5C 334.756,177.576 335.923,176.243 335.5,173.5C 338.022,173.872 340.022,173.039 341.5,171C 339.948,167.849 338.115,167.682 336,170.5C 335.725,167.588 334.891,164.921 333.5,162.5C 339.188,169.507 345.521,170.174 352.5,164.5C 354.532,163.952 355.532,162.619 355.5,160.5C 356.498,136.006 356.831,111.339 356.5,86.5C 364.792,85.5929 373.125,85.2596 381.5,85.5 Z"/></g>
<g><path style="opacity:1" fill="#103087" d="M 332.5,159.5 C 330.51,135.523 329.843,111.19 330.5,86.5C 321.833,86.5 313.167,86.5 304.5,86.5C 304.611,85.8826 304.944,85.3826 305.5,85C 313.833,84.3333 322.167,84.3333 330.5,85C 331,85.5 331.5,86 332,86.5C 332.5,110.831 332.667,135.164 332.5,159.5 Z"/></g>
<g><path style="opacity:1" fill="#0c3192" d="M 182.5,104.5 C 177.824,109.123 172.157,110.623 165.5,109C 163.416,108.303 161.749,107.136 160.5,105.5C 163.256,105.816 165.756,106.816 168,108.5C 169.395,108.22 170.562,107.553 171.5,106.5C 169.525,105.725 168.691,104.391 169,102.5C 172.306,105.671 175.306,105.671 178,102.5C 179.049,104.107 180.549,104.773 182.5,104.5 Z"/></g>
<g><path style="opacity:0.462" fill="#0b2a7f" d="M 130.5,110.5 C 117.598,111.184 104.598,111.851 91.5,112.5C 104.124,110.519 117.124,109.852 130.5,110.5 Z"/></g>
<g><path style="opacity:1" fill="#0630a0" d="M 262.5,90.5 C 263.5,90.5 264.5,90.5 265.5,90.5C 274.941,95.9404 281.941,103.607 286.5,113.5C 287.074,117.325 288.241,120.991 290,124.5C 289.815,134.539 289.981,144.539 290.5,154.5C 289.054,157.127 287.387,159.794 285.5,162.5C 284.914,162.291 284.414,161.957 284,161.5C 282.061,165.307 280.227,165.307 278.5,161.5C 275.111,165.409 272.445,169.742 270.5,174.5C 272.285,174.788 273.952,174.788 275.5,174.5C 274.754,175.736 274.421,177.07 274.5,178.5C 272.774,178.185 271.107,178.019 269.5,178C 273.252,179.642 273.086,181.142 269,182.5C 265.394,181.572 261.894,180.572 258.5,179.5C 258.649,180.552 258.483,181.552 258,182.5C 256.989,181.663 255.822,181.33 254.5,181.5C 254.5,180.167 254.5,178.833 254.5,177.5C 260.347,177.197 260.681,176.031 255.5,174C 256.554,172.612 256.72,171.112 256,169.5C 253.904,172.014 251.404,172.681 248.5,171.5C 249.747,169.958 249.747,168.458 248.5,167C 251.119,167.083 253.786,167.25 256.5,167.5C 256.773,165.549 256.107,164.049 254.5,163C 256.464,161.549 257.797,159.716 258.5,157.5C 266.685,142.754 265.352,128.754 254.5,115.5C 253.952,113.468 252.619,112.468 250.5,112.5C 250.5,111.5 250.5,110.5 250.5,109.5C 246.129,109.125 241.796,108.459 237.5,107.5C 235.027,105.902 235.027,104.402 237.5,103C 234.924,102.218 232.924,100.718 231.5,98.5C 236.998,97.83 242.498,98.1634 248,99.5C 248.5,99.8333 249,100.167 249.5,100.5C 236.572,104.009 236.572,105.509 249.5,105C 250.755,102.54 252.755,101.373 255.5,101.5C 255.5,99.8333 255.5,98.1667 255.5,96.5C 257.5,96.5 259.5,96.5 261.5,96.5C 261.5,95.5 261.5,94.5 261.5,93.5C 257.244,94.0195 253.577,92.8528 250.5,90C 254.016,89.2113 257.349,89.7113 260.5,91.5C 261.416,91.4573 262.083,91.1239 262.5,90.5 Z"/></g>
<g><path style="opacity:0.494" fill="#0b2c7f" d="M 304.5,86.5 C 304.167,111.509 304.5,136.509 305.5,161.5C 306.578,166.182 307.578,170.849 308.5,175.5C 305.941,172 304.441,168 304,163.5C 303.17,137.663 303.337,111.997 304.5,86.5 Z"/></g>
<g><path style="opacity:1" fill="#0d308d" d="M 381.5,85.5 C 373.125,85.2596 364.792,85.5929 356.5,86.5C 356.831,111.339 356.498,136.006 355.5,160.5C 355.5,136.167 355.5,111.833 355.5,87.5C 355.414,86.5041 355.748,85.6708 356.5,85C 365.01,84.1768 373.344,84.3434 381.5,85.5 Z"/></g>
<g><path style="opacity:1" fill="#06319f" d="M 130.5,110.5 C 117.124,109.852 104.124,110.519 91.5,112.5C 87.627,115.951 87.627,119.451 91.5,123C 101.485,124.029 111.485,125.029 121.5,126C 129.957,129.627 136.29,135.46 140.5,143.5C 142.234,151.694 142.901,160.027 142.5,168.5C 139.193,181.807 130.86,190.14 117.5,193.5C 100.497,193.667 83.4967,193.5 66.5,193C 65.5168,184.585 65.1834,176.085 65.5,167.5C 80.295,166.865 94.9617,166.198 109.5,165.5C 116.125,160.88 115.791,156.713 108.5,153C 99.7727,152.877 91.1061,152.21 82.5,151C 70.4201,146.584 62.9201,138.084 60,125.5C 56.9952,105.003 65.1618,91.1693 84.5,84C 99.4594,82.437 114.459,82.1037 129.5,83C 130.801,87.414 131.468,92.0806 131.5,97C 131.499,101.68 131.166,106.18 130.5,110.5 Z"/></g>
<g><path style="opacity:1" fill="#07319b" d="M 183.5,119.5 C 183.5,119.833 183.5,120.167 183.5,120.5C 183.667,144.502 183.5,168.502 183,192.5C 175.068,193.827 167.235,193.827 159.5,192.5C 158.833,192.5 158.167,192.5 157.5,192.5C 157.5,192.167 157.5,191.833 157.5,191.5C 157.333,168.164 157.5,144.831 158,121.5C 158.5,121 159,120.5 159.5,120C 167.493,119.5 175.493,119.334 183.5,119.5 Z"/></g>
<g><path style="opacity:1" fill="#0630a1" d="M 159.5,192.5 C 158.182,168.207 158.182,145.874 159.5,125.5C 167.488,125.899 175.155,125.899 182.5,125.5C 182.649,126.552 182.483,127.552 182,128.5C 181.333,127.167 180.667,127.167 180,128.5C 179.178,149.543 179.345,170.543 180.5,191.5C 173.532,192.497 166.532,192.83 159.5,192.5 Z"/></g>
<g><path style="opacity:0.984" fill="#0f2e88" d="M 286.5,113.5 C 288.656,116.437 290.156,119.771 291,123.5C 291.907,128.662 292.74,133.829 293.5,139C 292.895,144.372 291.895,149.539 290.5,154.5C 289.981,144.539 289.815,134.539 290,124.5C 288.241,120.991 287.074,117.325 286.5,113.5 Z"/></g>
<g><path style="opacity:0.086" fill="#0f276a" d="M 183.5,119.5 C 175.493,119.334 167.493,119.5 159.5,120C 159,120.5 158.5,121 158,121.5C 157.5,144.831 157.333,168.164 157.5,191.5C 156.337,168.004 156.17,144.337 157,120.5C 157.5,120 158,119.5 158.5,119C 167.01,118.177 175.344,118.343 183.5,119.5 Z"/></g>
<g><path style="opacity:0.383" fill="#132b72" d="M 183.5,120.5 C 184.663,144.663 184.83,168.997 184,193.5C 175.579,194.649 167.079,194.816 158.5,194C 157.944,193.617 157.611,193.117 157.5,192.5C 158.167,192.5 158.833,192.5 159.5,192.5C 167.235,193.827 175.068,193.827 183,192.5C 183.5,168.502 183.667,144.502 183.5,120.5 Z"/></g>
<g><path style="opacity:1" fill="#102e84" d="M 200.5,84.5 C 199.4,85.6049 198.733,86.9382 198.5,88.5C 198.5,123.167 198.5,157.833 198.5,192.5C 215.837,192.667 233.17,192.5 250.5,192C 253.117,191.178 255.784,190.678 258.5,190.5C 255.497,192.262 252.163,193.428 248.5,194C 231.833,194.667 215.167,194.667 198.5,194C 198,193.5 197.5,193 197,192.5C 196.169,156.664 196.336,120.998 197.5,85.5C 198.391,84.8902 199.391,84.5569 200.5,84.5 Z"/></g>
<g><path style="opacity:0.216" fill="#0d2970" d="M 355.5,87.5 C 355.5,111.833 355.5,136.167 355.5,160.5C 355.532,162.619 354.532,163.952 352.5,164.5C 352.461,163.244 352.961,162.244 354,161.5C 354.168,136.663 354.668,111.997 355.5,87.5 Z"/></g>
<g><path style="opacity:0.998" fill="#0f2e82" d="M 140.5,143.5 C 144.698,151.599 145.364,159.932 142.5,168.5C 142.901,160.027 142.234,151.694 140.5,143.5 Z"/></g>
<g><path style="opacity:0.373" fill="#102b7f" d="M 109.5,165.5 C 94.9617,166.198 80.295,166.865 65.5,167.5C 65.6107,166.883 65.944,166.383 66.5,166C 80.8295,165.5 95.1628,165.333 109.5,165.5 Z"/></g>
<g><path style="opacity:0.867" fill="#1e377a" d="M 65.5,167.5 C 65.1834,176.085 65.5168,184.585 66.5,193C 83.4967,193.5 100.497,193.667 117.5,193.5C 100.338,194.662 83.0049,194.829 65.5,194C 64.1719,185.068 64.1719,176.235 65.5,167.5 Z"/></g>
<g><path style="opacity:1" fill="#112f85" d="M 367.5,188.5 C 363.054,192.607 357.721,195.107 351.5,196C 346.167,196.667 340.833,196.667 335.5,196C 332.135,195.495 329.135,194.328 326.5,192.5C 335.715,194.646 345.048,194.979 354.5,193.5C 359.238,192.621 363.571,190.954 367.5,188.5 Z"/></g>
</svg>
