<?xml version="1.0" encoding="UTF-8"?>
<!DOCTYPE svg PUBLIC "-//W3C//DTD SVG 1.1//EN" "http://www.w3.org/Graphics/SVG/1.1/DTD/svg11.dtd">
<svg xmlns="http://www.w3.org/2000/svg" version="1.1" width="690px" height="362px" style="shape-rendering:geometricPrecision; text-rendering:geometricPrecision; image-rendering:optimizeQuality; fill-rule:evenodd; clip-rule:evenodd" xmlns:xlink="http://www.w3.org/1999/xlink">
<g><path style="opacity:0.024" fill="#a03124" d="M 344.5,109.5 C 339.213,105.234 333.213,102.4 326.5,101C 317.806,100.289 309.139,100.456 300.5,101.5C 300.918,100.778 301.584,100.278 302.5,100C 310.833,99.3333 319.167,99.3333 327.5,100C 332.518,100.798 337.184,102.465 341.5,105C 343.141,106.129 344.141,107.629 344.5,109.5 Z"/></g>
<g><path style="opacity:0.047" fill="#8f402b" d="M 279.5,108.5 C 279.5,106.167 279.5,103.833 279.5,101.5C 273.642,101.178 267.975,101.511 262.5,102.5C 261.065,107.374 259.065,112.041 256.5,116.5C 257.686,111.11 259.353,105.944 261.5,101C 267.833,100.333 274.167,100.333 280.5,101C 281.378,103.658 281.044,106.158 279.5,108.5 Z"/></g>
<g><path style="opacity:0.039" fill="#854936" d="M 553.5,101.5 C 544.651,101.174 535.984,101.507 527.5,102.5C 526.833,102.5 526.5,102.833 526.5,103.5C 526.167,103.5 525.833,103.5 525.5,103.5C 525.414,102.504 525.748,101.671 526.5,101C 535.676,100.176 544.676,100.343 553.5,101.5 Z"/></g>
<g><path style="opacity:0.059" fill="#834333" d="M 594.5,101.5 C 586.648,101.175 578.982,101.508 571.5,102.5C 570.833,102.5 570.167,102.5 569.5,102.5C 569.611,101.883 569.944,101.383 570.5,101C 578.677,100.177 586.677,100.344 594.5,101.5 Z"/></g>
<g><path style="opacity:0.035" fill="#804232" d="M 632.5,101.5 C 626.642,101.178 620.975,101.511 615.5,102.5C 614.5,102.833 613.833,103.5 613.5,104.5C 612.355,103.207 612.689,102.041 614.5,101C 620.681,100.181 626.681,100.347 632.5,101.5 Z"/></g>
<g><path style="opacity:0.027" fill="#9b3928" d="M 105.5,111.5 C 103.517,110.529 101.517,109.529 99.5,108.5C 90.9742,103.259 81.6408,100.925 71.5,101.5C 72.9461,100.06 74.7794,99.3932 77,99.5C 85.2516,100.71 93.085,103.21 100.5,107C 102.618,108.049 104.284,109.549 105.5,111.5 Z"/></g>
<g><path style="opacity:0.629" fill="#a63427" d="M 244.5,113.5 C 243.501,109.956 242.168,106.456 240.5,103C 233.144,102.169 225.811,102.335 218.5,103.5C 214.935,112.92 212.102,122.586 210,132.5C 209.617,133.056 209.117,133.389 208.5,133.5C 210.437,125.556 212.27,117.556 214,109.5C 214.78,106.488 215.947,103.655 217.5,101C 225.5,100.333 233.5,100.333 241.5,101C 243.926,104.801 244.926,108.968 244.5,113.5 Z"/></g>
<g><path style="opacity:0.617" fill="#b23227" d="M 375.5,106.5 C 376.701,109.405 376.534,112.405 375,115.5C 373.149,118.284 371.316,120.951 369.5,123.5C 369.167,120.833 368.833,120.833 368.5,123.5C 367.853,122.726 367.52,121.726 367.5,120.5C 368.936,114.571 369.936,108.571 370.5,102.5C 364.5,102.5 358.5,102.5 352.5,102.5C 352.665,106.182 352.499,109.848 352,113.5C 351.623,114.942 350.79,115.942 349.5,116.5C 349.874,111.164 350.874,105.998 352.5,101C 358.5,100.333 364.5,100.333 370.5,101C 371.148,104.358 371.481,107.691 371.5,111C 370.477,113.449 369.977,115.949 370,118.5C 372.102,114.628 373.936,110.628 375.5,106.5 Z"/></g>
<g><path style="opacity:0.624" fill="#a5382c" d="M 400.5,112.5 C 399.521,109.375 399.187,106.042 399.5,102.5C 392.5,102.5 385.5,102.5 378.5,102.5C 378.715,104.179 378.048,105.179 376.5,105.5C 376.751,103.83 377.418,102.33 378.5,101C 385.5,100.333 392.5,100.333 399.5,101C 400.46,104.73 400.793,108.563 400.5,112.5 Z"/></g>
<g><path style="opacity:0.626" fill="#b22d29" d="M 571.5,102.5 C 578.982,101.508 586.648,101.175 594.5,101.5C 598.435,113.055 601.101,125.055 602.5,137.5C 598.9,126.235 595.9,114.569 593.5,102.5C 586.167,102.5 578.833,102.5 571.5,102.5 Z"/></g>
<g><path style="opacity:1" fill="#ea1c24" d="M 432.5,101.5 C 432.31,104.877 430.81,107.544 428,109.5C 427.163,114.18 426.329,118.846 425.5,123.5C 424.5,123.5 423.5,123.5 422.5,123.5C 420.108,131.558 417.275,139.558 414,147.5C 413.505,149.473 413.338,151.473 413.5,153.5C 408.921,163.461 404.588,173.461 400.5,183.5C 393.159,183.666 385.826,183.5 378.5,183C 378.398,176.743 378.065,170.576 377.5,164.5C 378.511,162.598 378.678,160.598 378,158.5C 377.297,162.236 375.797,165.569 373.5,168.5C 372.5,168.5 371.5,168.5 370.5,168.5C 370.262,173.376 368.928,177.876 366.5,182C 358.611,183.435 350.611,183.935 342.5,183.5C 342.751,178.493 343.084,173.493 343.5,168.5C 343.552,164.802 343.886,161.135 344.5,157.5C 347.07,149.16 348.07,140.493 347.5,131.5C 347.5,130.5 347.5,129.5 347.5,128.5C 348.117,128.389 348.617,128.056 349,127.5C 349.755,123.745 349.589,120.078 348.5,116.5C 348.833,116.5 349.167,116.5 349.5,116.5C 350.79,115.942 351.623,114.942 352,113.5C 352.499,109.848 352.665,106.182 352.5,102.5C 358.5,102.5 364.5,102.5 370.5,102.5C 369.936,108.571 368.936,114.571 367.5,120.5C 367.52,121.726 367.853,122.726 368.5,123.5C 368.833,123.5 369.167,123.5 369.5,123.5C 371.316,120.951 373.149,118.284 375,115.5C 376.534,112.405 376.701,109.405 375.5,106.5C 375.5,105.833 375.833,105.5 376.5,105.5C 378.048,105.179 378.715,104.179 378.5,102.5C 385.5,102.5 392.5,102.5 399.5,102.5C 399.187,106.042 399.521,109.375 400.5,112.5C 399.244,114.941 399.244,117.274 400.5,119.5C 399.374,120.858 399.374,122.192 400.5,123.5C 401.429,122.311 401.762,120.978 401.5,119.5C 403.451,119.773 404.951,119.107 406,117.5C 407.671,112.331 408.838,106.998 409.5,101.5C 417.167,100.167 424.833,100.167 432.5,101.5 Z"/></g>
<g><path style="opacity:1" fill="#ec1b24" d="M 463.5,131.5 C 464.5,131.5 465.5,131.5 466.5,131.5C 469.011,125.306 471.345,118.973 473.5,112.5C 473.654,110.03 474.654,108.03 476.5,106.5C 478.026,105.895 479.026,104.729 479.5,103C 487.827,102.5 496.16,102.334 504.5,102.5C 500.261,118.966 496.094,135.632 492,152.5C 491.22,154.387 491.387,156.054 492.5,157.5C 492.5,157.833 492.5,158.167 492.5,158.5C 490.801,158.34 489.134,158.506 487.5,159C 489.011,164.074 488.344,168.907 485.5,173.5C 484.516,176.428 484.183,179.428 484.5,182.5C 477.833,182.5 471.167,182.5 464.5,182.5C 464.5,180.833 464.5,179.167 464.5,177.5C 468.775,177.416 469.442,175.916 466.5,173C 468.258,170.733 468.758,168.233 468,165.5C 466.989,164.663 465.822,164.33 464.5,164.5C 461.147,170.036 458.147,175.869 455.5,182C 451.179,182.499 446.846,182.666 442.5,182.5C 442.097,175.798 441.43,169.132 440.5,162.5C 439.167,162.5 437.833,162.5 436.5,162.5C 436.46,169.322 435.46,175.989 433.5,182.5C 427.402,183.117 421.735,182.45 416.5,180.5C 418.876,174.438 419.876,168.105 419.5,161.5C 419.328,160.508 419.662,159.842 420.5,159.5C 422.095,157.889 423.261,155.889 424,153.5C 424.425,148.431 425.259,143.431 426.5,138.5C 426.457,137.584 426.124,136.917 425.5,136.5C 425.328,135.508 425.662,134.842 426.5,134.5C 427.528,133.47 428.695,131.803 430,129.5C 431.987,120.386 434.153,111.386 436.5,102.5C 444.5,102.5 452.5,102.5 460.5,102.5C 460.5,113.5 460.5,124.5 460.5,135.5C 461.5,135.5 462.5,135.5 463.5,135.5C 463.5,134.167 463.5,132.833 463.5,131.5 Z"/></g>
<g><path style="opacity:0.949" fill="#e11b1e" d="M 649.5,113.5 C 648.199,114.884 648.199,116.384 649.5,118C 648.223,118.127 647.057,117.627 646,116.5C 644.421,116.697 644.255,117.031 645.5,117.5C 645.5,118.167 645.167,118.5 644.5,118.5C 643.85,118.804 643.183,119.137 642.5,119.5C 641.509,115.555 641.176,111.555 641.5,107.5C 639.876,107.36 638.71,108.027 638,109.5C 637.667,112.833 637.333,116.167 637,119.5C 635.633,115.3 635.133,110.967 635.5,106.5C 635.5,105.833 635.833,105.5 636.5,105.5C 640.727,103.32 644.727,103.986 648.5,107.5C 649.466,109.396 649.799,111.396 649.5,113.5 Z M 639.5,112.5 C 640.622,114.288 640.789,116.288 640,118.5C 638.2,116.635 638.034,114.635 639.5,112.5 Z"/></g>
<g><path style="opacity:1" fill="#ba2e29" d="M 203.5,109.5 C 199.576,106.871 195.242,104.704 190.5,103C 180.349,100.689 170.349,101.022 160.5,104C 159.333,105.167 158.167,106.333 157,107.5C 156.805,109.207 156.805,110.874 157,112.5C 153.742,111.445 151.076,112.445 149,115.5C 145.237,124.936 146.07,133.936 151.5,142.5C 146.318,139.006 143.985,134.006 144.5,127.5C 145.308,113.185 152.641,104.019 166.5,100C 178.912,97.9288 190.578,99.9288 201.5,106C 202.823,106.816 203.489,107.983 203.5,109.5 Z"/></g>
<g><path style="opacity:1" fill="#ea1c24" d="M 344.5,109.5 C 346.834,111.176 347.834,113.509 347.5,116.5C 347.366,118.292 347.699,119.958 348.5,121.5C 347.167,122.833 347.167,124.167 348.5,125.5C 348.5,126.167 348.167,126.5 347.5,126.5C 346.054,129.254 345.054,132.254 344.5,135.5C 341.155,139.055 339.655,143.389 340,148.5C 336.645,153.24 335.145,159.24 335.5,166.5C 335.405,168.786 334.738,170.786 333.5,172.5C 331.394,173.783 329.06,174.616 326.5,175C 326.957,175.414 327.291,175.914 327.5,176.5C 324.383,178.899 321.05,181.065 317.5,183C 307.167,183.667 296.833,183.667 286.5,183C 284.103,181.282 281.436,180.115 278.5,179.5C 277.03,176.204 274.863,173.537 272,171.5C 271.371,167.129 271.537,162.796 272.5,158.5C 272.5,158.167 272.5,157.833 272.5,157.5C 273.966,156.653 274.8,155.32 275,153.5C 275.369,149.137 275.869,144.804 276.5,140.5C 277.804,139.013 278.97,137.346 280,135.5C 281.274,129.335 282.774,123.335 284.5,117.5C 285.5,117.5 286.5,117.5 287.5,117.5C 288.112,113.252 289.446,109.252 291.5,105.5C 293.64,102.387 296.64,101.054 300.5,101.5C 309.139,100.456 317.806,100.289 326.5,101C 333.213,102.4 339.213,105.234 344.5,109.5 Z M 321.5,121.5 C 319.251,126.497 317.917,131.83 317.5,137.5C 316.195,140.053 315.195,142.72 314.5,145.5C 312.428,150.223 311.094,155.223 310.5,160.5C 310.5,160.833 310.5,161.167 310.5,161.5C 309.994,164.197 308.661,166.364 306.5,168C 302.779,168.678 299.112,168.511 295.5,167.5C 297.977,154.795 300.977,142.128 304.5,129.5C 306.053,124.966 307.553,120.299 309,115.5C 316.793,110.481 320.96,112.481 321.5,121.5 Z"/></g>
<g><path style="opacity:1" fill="#eb1b23" d="M 244.5,113.5 C 244.5,114.833 244.5,116.167 244.5,117.5C 245.928,125.385 246.761,133.385 247,141.5C 248.667,144.167 250.333,144.167 252,141.5C 253.108,137.914 253.608,134.247 253.5,130.5C 254.501,125.829 255.501,121.162 256.5,116.5C 259.065,112.041 261.065,107.374 262.5,102.5C 267.833,102.5 273.167,102.5 278.5,102.5C 275.785,114.077 273.451,125.743 271.5,137.5C 269.882,140.171 269.215,143.171 269.5,146.5C 267.712,149.548 266.212,152.882 265,156.5C 264.333,154.5 263.667,152.5 263,150.5C 262.564,152.847 262.064,155.181 261.5,157.5C 262.515,161.131 262.681,164.798 262,168.5C 260.227,172.699 259.061,177.033 258.5,181.5C 249.874,182.411 241.208,182.745 232.5,182.5C 229.957,169.983 227.791,157.317 226,144.5C 224.284,143.448 223.284,144.114 223,146.5C 221.199,151.34 220.365,156.34 220.5,161.5C 219.275,162.152 218.608,163.319 218.5,165C 217.969,167.817 217.636,170.65 217.5,173.5C 217.5,173.833 217.5,174.167 217.5,174.5C 215.916,176.529 214.583,178.862 213.5,181.5C 208.544,182.494 203.544,182.827 198.5,182.5C 198.446,176.648 199.112,170.981 200.5,165.5C 204,156.288 206.334,146.621 207.5,136.5C 207.263,135.209 207.596,134.209 208.5,133.5C 209.117,133.389 209.617,133.056 210,132.5C 212.102,122.586 214.935,112.92 218.5,103.5C 225.811,102.335 233.144,102.169 240.5,103C 242.168,106.456 243.501,109.956 244.5,113.5 Z"/></g>
<g><path style="opacity:0.478" fill="#a1382b" d="M 321.5,121.5 C 320.96,112.481 316.793,110.481 309,115.5C 307.553,120.299 306.053,124.966 304.5,129.5C 305.114,124.428 306.114,119.428 307.5,114.5C 311.985,111.021 316.652,110.687 321.5,113.5C 322.8,116.309 322.8,118.976 321.5,121.5 Z"/></g>
<g><path style="opacity:1" fill="#ec1b23" d="M 527.5,102.5 C 535.833,102.5 544.167,102.5 552.5,102.5C 551.128,129.247 549.462,155.914 547.5,182.5C 541.167,182.5 534.833,182.5 528.5,182.5C 528.8,177.901 528.467,173.401 527.5,169C 522.833,168.333 518.167,168.333 513.5,169C 511.771,170.789 511.104,172.956 511.5,175.5C 508.636,177.023 506.969,179.357 506.5,182.5C 500.833,182.5 495.167,182.5 489.5,182.5C 489.691,179.017 490.357,175.684 491.5,172.5C 491.427,170.973 492.094,169.973 493.5,169.5C 499.16,161.519 503.16,152.852 505.5,143.5C 506.496,143.586 507.329,143.252 508,142.5C 509.69,137.646 512.856,134.313 517.5,132.5C 518.386,133.325 518.719,134.325 518.5,135.5C 521.535,137.179 524.535,138.179 527.5,138.5C 525.1,141.759 523.767,145.426 523.5,149.5C 521.72,150.99 521.054,152.99 521.5,155.5C 524.044,155.896 526.211,155.229 528,153.5C 530.154,146.75 529.987,140.084 527.5,133.5C 521.833,134.49 521.166,132.823 525.5,128.5C 524.311,127.571 522.978,127.238 521.5,127.5C 521.719,128.675 521.386,129.675 520.5,130.5C 519.723,128.223 518.723,126.057 517.5,124C 517.867,121.756 518.867,121.256 520.5,122.5C 522.002,118.626 522.669,118.959 522.5,123.5C 523.5,123.5 524.5,123.5 525.5,123.5C 524.529,120.514 523.529,117.514 522.5,114.5C 524.139,110.899 525.472,107.233 526.5,103.5C 526.5,102.833 526.833,102.5 527.5,102.5 Z M 523.5,149.5 C 524.315,148.571 525.148,147.571 526,146.5C 526.497,148.81 526.663,151.143 526.5,153.5C 525.127,153.657 523.793,153.49 522.5,153C 523.337,151.989 523.67,150.822 523.5,149.5 Z"/></g>
<g><path style="opacity:0.999" fill="#eb1c24" d="M 571.5,102.5 C 578.833,102.5 586.167,102.5 593.5,102.5C 595.9,114.569 598.9,126.235 602.5,137.5C 603.268,138.263 603.768,139.263 604,140.5C 606.199,131.034 608.699,121.7 611.5,112.5C 612.363,110.579 613.029,108.579 613.5,106.5C 613.5,105.833 613.5,105.167 613.5,104.5C 613.833,103.5 614.5,102.833 615.5,102.5C 620.206,102.085 624.706,102.752 629,104.5C 629.333,104.167 629.667,103.833 630,103.5C 631.04,107.533 630.374,111.199 628,114.5C 626.935,112.604 626.102,112.437 625.5,114C 626.628,115.468 627.294,117.135 627.5,119C 626.784,121.792 626.451,124.626 626.5,127.5C 625.539,129.265 625.205,131.265 625.5,133.5C 625.5,133.833 625.5,134.167 625.5,134.5C 621.659,138.92 619.993,144.253 620.5,150.5C 619.12,150.962 618.453,151.962 618.5,153.5C 617.698,156.449 617.364,159.449 617.5,162.5C 617.5,162.833 617.5,163.167 617.5,163.5C 616.069,163.881 615.236,164.881 615,166.5C 614.541,170.419 613.708,174.252 612.5,178C 612.528,179.07 612.861,179.903 613.5,180.5C 613.5,181.167 613.167,181.5 612.5,181.5C 604.766,183.582 596.766,184.082 588.5,183C 587.692,174.066 585.692,165.566 582.5,157.5C 581.129,153.345 579.962,149.012 579,144.5C 577.803,149.385 576.303,154.051 574.5,158.5C 571.347,166.048 569.681,174.048 569.5,182.5C 568.833,182.5 568.167,182.5 567.5,182.5C 561.824,182.666 556.157,182.499 550.5,182C 552.351,177.054 553.351,171.887 553.5,166.5C 554.465,160.988 555.798,155.655 557.5,150.5C 558.676,145.596 560.676,140.93 563.5,136.5C 564.492,132.217 564.826,127.884 564.5,123.5C 567.07,116.666 569.404,109.666 571.5,102.5 Z"/></g>
<g><path style="opacity:0.286" fill="#6e2721" d="M 613.5,106.5 C 613.029,108.579 612.363,110.579 611.5,112.5C 610.957,112.44 610.624,112.107 610.5,111.5C 610.957,109.402 611.957,107.736 613.5,106.5 Z"/></g>
<g><path style="opacity:0.039" fill="#ab3424" d="M 463.5,131.5 C 463.5,132.833 463.5,134.167 463.5,135.5C 462.5,135.5 461.5,135.5 460.5,135.5C 460.5,124.5 460.5,113.5 460.5,102.5C 452.5,102.5 444.5,102.5 436.5,102.5C 434.153,111.386 431.987,120.386 430,129.5C 428.695,131.803 427.528,133.47 426.5,134.5C 428.395,126.98 430.395,119.48 432.5,112C 432.333,110.833 432.167,109.667 432,108.5C 429.906,113.642 427.74,118.642 425.5,123.5C 426.329,118.846 427.163,114.18 428,109.5C 430.81,107.544 432.31,104.877 432.5,101.5C 433.268,102.263 433.768,103.263 434,104.5C 434.465,103.069 435.299,101.903 436.5,101C 444.5,100.333 452.5,100.333 460.5,101C 461.321,111.757 461.821,122.59 462,133.5C 462.278,132.584 462.778,131.918 463.5,131.5 Z"/></g>
<g><path style="opacity:1" fill="#c32a27" d="M 615.5,102.5 C 620.975,101.511 626.642,101.178 632.5,101.5C 633.497,101.47 634.164,101.97 634.5,103C 631.318,110.889 628.985,119.055 627.5,127.5C 627.167,127.5 626.833,127.5 626.5,127.5C 626.451,124.626 626.784,121.792 627.5,119C 627.294,117.135 626.628,115.468 625.5,114C 626.102,112.437 626.935,112.604 628,114.5C 630.374,111.199 631.04,107.533 630,103.5C 629.667,103.833 629.333,104.167 629,104.5C 624.706,102.752 620.206,102.085 615.5,102.5 Z"/></g>
<g><path style="opacity:0.188" fill="#9b2c20" d="M 107.5,113.5 C 111.43,117.021 114.097,121.355 115.5,126.5C 113.953,123.44 111.786,120.774 109,118.5C 107.991,116.975 107.491,115.308 107.5,113.5 Z"/></g>
<g><path style="opacity:0.294" fill="#62321b" d="M 244.5,113.5 C 246.175,116.507 246.841,119.84 246.5,123.5C 245.833,121.5 245.167,119.5 244.5,117.5C 244.5,116.167 244.5,114.833 244.5,113.5 Z"/></g>
<g><path style="opacity:1" fill="#ca2e26" d="M 53.5,108.5 C 51.3952,111.153 49.3952,113.986 47.5,117C 48.448,117.483 49.448,117.649 50.5,117.5C 50.7381,121.099 49.7381,121.433 47.5,118.5C 46.3279,118.919 45.3279,119.585 44.5,120.5C 42.0939,124.443 40.0939,128.443 38.5,132.5C 39.1495,130.565 39.4828,128.565 39.5,126.5C 41.5112,122.97 43.3446,119.303 45,115.5C 47.4356,112.553 50.2689,110.22 53.5,108.5 Z"/></g>
<g><path style="opacity:1" fill="#c52e28" d="M 409.5,101.5 C 408.838,106.998 407.671,112.331 406,117.5C 404.951,119.107 403.451,119.773 401.5,119.5C 401.762,120.978 401.429,122.311 400.5,123.5C 399.374,122.192 399.374,120.858 400.5,119.5C 403.145,113.169 406.145,107.169 409.5,101.5 Z"/></g>
<g><path style="opacity:0.984" fill="#ae2c24" d="M 569.5,102.5 C 570.167,102.5 570.833,102.5 571.5,102.5C 569.404,109.666 567.07,116.666 564.5,123.5C 565.532,116.338 567.199,109.338 569.5,102.5 Z"/></g>
<g><path style="opacity:0.825" fill="#b12f28" d="M 262.5,102.5 C 267.975,101.511 273.642,101.178 279.5,101.5C 279.5,103.833 279.5,106.167 279.5,108.5C 277.065,118.329 274.398,127.996 271.5,137.5C 273.451,125.743 275.785,114.077 278.5,102.5C 273.167,102.5 267.833,102.5 262.5,102.5 Z"/></g>
<g><path style="opacity:0.996" fill="#be2c25" d="M 635.5,106.5 C 635.133,110.967 635.633,115.3 637,119.5C 637.333,116.167 637.667,112.833 638,109.5C 638.71,108.027 639.876,107.36 641.5,107.5C 641.176,111.555 641.509,115.555 642.5,119.5C 643.183,119.137 643.85,118.804 644.5,118.5C 644.586,119.496 644.252,120.329 643.5,121C 649.32,122.24 649.987,121.073 645.5,117.5C 644.255,117.031 644.421,116.697 646,116.5C 647.057,117.627 648.223,118.127 649.5,118C 648.199,116.384 648.199,114.884 649.5,113.5C 649.799,111.396 649.466,109.396 648.5,107.5C 644.727,103.986 640.727,103.32 636.5,105.5C 644.169,98.4061 651.335,99.0728 658,107.5C 661.065,118.614 656.899,125.281 645.5,127.5C 634.27,124.237 630.937,117.237 635.5,106.5 Z M 645.5,117.5 C 649.987,121.073 649.32,122.24 643.5,121C 644.252,120.329 644.586,119.496 644.5,118.5C 645.167,118.5 645.5,118.167 645.5,117.5 Z M 639.5,112.5 C 638.034,114.635 638.2,116.635 640,118.5C 640.789,116.288 640.622,114.288 639.5,112.5 Z M 651.5,107.5 C 655.256,111.249 655.422,115.249 652,119.5C 651.764,117.189 650.931,115.189 649.5,113.5C 651.308,112.082 651.975,110.082 651.5,107.5 Z"/></g>
<g><path style="opacity:0.016" fill="#953d3a" d="M 347.5,116.5 C 347.833,116.5 348.167,116.5 348.5,116.5C 349.589,120.078 349.755,123.745 349,127.5C 348.617,128.056 348.117,128.389 347.5,128.5C 347.5,127.833 347.5,127.167 347.5,126.5C 348.167,126.5 348.5,126.167 348.5,125.5C 348.5,124.167 348.5,122.833 348.5,121.5C 347.699,119.958 347.366,118.292 347.5,116.5 Z"/></g>
<g><path style="opacity:1" fill="#e2282b" d="M 99.5,108.5 C 98.1779,108.33 97.0113,108.663 96,109.5C 91.8385,107.394 87.8385,105.728 84,104.5C 81.7999,104.893 81.2999,105.893 82.5,107.5C 86.9093,109.705 91.2426,111.871 95.5,114C 96.3567,114.689 97.0233,115.522 97.5,116.5C 95.5787,117.641 93.5787,117.808 91.5,117C 87.5234,114.928 83.8568,112.428 80.5,109.5C 79.5481,111.045 79.2148,112.712 79.5,114.5C 83.5393,113.66 86.5393,114.993 88.5,118.5C 91.7063,119.808 95.0396,120.475 98.5,120.5C 98.5,122.5 98.5,124.5 98.5,126.5C 100.199,126.34 101.866,126.506 103.5,127C 102.565,129.381 102.232,131.881 102.5,134.5C 100.833,134.5 99.1667,134.5 97.5,134.5C 97.3379,136.527 97.5045,138.527 98,140.5C 99.0674,141.191 100.234,141.691 101.5,142C 100.833,142.333 100.167,142.667 99.5,143C 100.641,143.741 100.641,144.575 99.5,145.5C 101.078,146.298 102.744,146.798 104.5,147C 105.255,149.133 106.588,150.8 108.5,152C 107.594,153.699 107.261,155.533 107.5,157.5C 104.944,157.132 102.944,157.966 101.5,160C 102.996,161.331 104.329,162.831 105.5,164.5C 107.416,163.752 109.416,163.752 111.5,164.5C 106.85,171.655 100.517,176.655 92.5,179.5C 92.3379,177.473 92.5045,175.473 93,173.5C 94.4007,175.192 96.2341,175.859 98.5,175.5C 98.4399,171.515 100.44,169.848 104.5,170.5C 104.702,165.855 102.702,164.022 98.5,165C 97.3659,163.984 97.6992,163.317 99.5,163C 98.4479,161.881 97.2812,161.381 96,161.5C 95.5172,160.552 95.3505,159.552 95.5,158.5C 97.1765,157.817 97.8432,156.483 97.5,154.5C 99.9418,154.881 100.609,154.214 99.5,152.5C 100.313,151.186 101.313,150.019 102.5,149C 99.5928,149.736 96.5928,150.07 93.5,150C 92.273,148.413 92.6063,147.079 94.5,146C 92.8214,145.605 91.1547,145.772 89.5,146.5C 87.5061,145.511 85.5061,144.511 83.5,143.5C 84.4054,142.036 84.4054,140.702 83.5,139.5C 85.5806,138.377 87.7473,137.377 90,136.5C 92.0503,137.791 94.217,138.291 96.5,138C 94.8258,136.494 93.8258,134.661 93.5,132.5C 96.214,132.75 98.8806,132.917 101.5,133C 99.6063,131.921 99.273,130.587 100.5,129C 99.552,128.517 98.552,128.351 97.5,128.5C 97.762,127.022 97.4287,125.689 96.5,124.5C 95.3764,126.369 94.5431,128.369 94,130.5C 92.2859,131.925 90.9525,131.592 90,129.5C 89.6667,127.833 89.3333,126.167 89,124.5C 88.8236,127.882 88.3236,131.215 87.5,134.5C 84.2877,135.23 81.2877,135.23 78.5,134.5C 78.1924,132.076 78.5258,129.743 79.5,127.5C 87.6935,123.784 87.3602,122.784 78.5,124.5C 78.1878,121.112 79.5211,118.612 82.5,117C 81.9056,116.536 81.2389,116.369 80.5,116.5C 79.0014,115.322 78.0014,113.655 77.5,111.5C 76.5481,113.045 76.2148,114.712 76.5,116.5C 74.5168,116.157 73.1834,116.824 72.5,118.5C 70.0882,118.306 69.0882,116.973 69.5,114.5C 70.8734,114.657 72.2068,114.49 73.5,114C 68.0403,107.646 61.3736,105.813 53.5,108.5C 58.6379,104.227 64.6379,101.893 71.5,101.5C 81.6408,100.925 90.9742,103.259 99.5,108.5 Z"/></g>
<g><path style="opacity:1" fill="#fea6a6" d="M 80.5,116.5 C 78.5,117.167 76.5,117.833 74.5,118.5C 73.8333,118.5 73.1667,118.5 72.5,118.5C 73.1834,116.824 74.5168,116.157 76.5,116.5C 76.2148,114.712 76.5481,113.045 77.5,111.5C 78.0014,113.655 79.0014,115.322 80.5,116.5 Z"/></g>
<g><path style="opacity:0.918" fill="#a93222" d="M 473.5,112.5 C 471.345,118.973 469.011,125.306 466.5,131.5C 465.5,131.5 464.5,131.5 463.5,131.5C 466.139,126.765 468.306,121.765 470,116.5C 470.949,114.907 472.115,113.574 473.5,112.5 Z"/></g>
<g><path style="opacity:1" fill="#ffd6d6" d="M 80.5,116.5 C 81.2389,116.369 81.9056,116.536 82.5,117C 79.5211,118.612 78.1878,121.112 78.5,124.5C 87.3602,122.784 87.6935,123.784 79.5,127.5C 78.5258,129.743 78.1924,132.076 78.5,134.5C 77.8333,134.833 77.1667,135.167 76.5,135.5C 76.8134,132.753 76.48,130.086 75.5,127.5C 67.3065,123.784 67.6398,122.784 76.5,124.5C 76.7475,122.142 76.0808,120.142 74.5,118.5C 76.5,117.833 78.5,117.167 80.5,116.5 Z"/></g>
<g><path style="opacity:1" fill="#eb1c24" d="M 72.5,118.5 C 72.5,119.833 72.5,121.167 72.5,122.5C 69.1667,122.5 65.8333,122.5 62.5,122.5C 62.6633,124.857 62.4966,127.19 62,129.5C 60.6253,127.063 60.1253,124.397 60.5,121.5C 59.1667,121.5 57.8333,121.5 56.5,121.5C 56.5,123.5 56.5,125.5 56.5,127.5C 54.857,127.52 53.5237,126.853 52.5,125.5C 52.1667,125.833 51.8333,126.167 51.5,126.5C 52.4669,127.984 53.8002,128.984 55.5,129.5C 54.8333,130.833 54.1667,132.167 53.5,133.5C 52.7109,133.783 52.0442,134.283 51.5,135C 53.9359,134.947 56.2692,135.113 58.5,135.5C 57.3554,136.891 57.3554,138.224 58.5,139.5C 61.0841,138.607 63.7508,138.274 66.5,138.5C 66.8333,140.5 67.1667,142.5 67.5,144.5C 64.1194,144.54 60.7861,144.207 57.5,143.5C 57.1367,145.911 58.1367,147.411 60.5,148C 58.1339,148.562 55.8006,148.396 53.5,147.5C 51.0943,147.81 51.0943,148.477 53.5,149.5C 53.5,149.833 53.5,150.167 53.5,150.5C 53.528,152.582 52.8613,154.416 51.5,156C 53.1075,155.981 54.7741,155.815 56.5,155.5C 56.3379,157.527 56.5045,159.527 57,161.5C 58.3561,162.38 59.8561,162.714 61.5,162.5C 60.5508,159.792 60.5508,157.126 61.5,154.5C 62.9684,156.333 64.6351,156.666 66.5,155.5C 67.3169,152.533 68.6503,149.866 70.5,147.5C 71.8221,147.33 72.9887,147.663 74,148.5C 74.4955,150.473 74.6621,152.473 74.5,154.5C 72.8008,154.34 71.1341,154.506 69.5,155C 70.3081,155.308 70.9747,155.808 71.5,156.5C 67.4236,159.481 67.7569,160.814 72.5,160.5C 72.3713,162.216 72.038,163.883 71.5,165.5C 70.537,166.363 70.537,167.03 71.5,167.5C 73.0709,166.691 74.7376,166.357 76.5,166.5C 77.1667,171.833 77.8333,171.833 78.5,166.5C 80.4147,166.784 82.0813,166.451 83.5,165.5C 83.5,164.5 83.5,163.5 83.5,162.5C 82.325,162.719 81.325,162.386 80.5,161.5C 85.1458,160.682 89.1458,158.682 92.5,155.5C 93.2876,156.77 94.2876,157.77 95.5,158.5C 95.3505,159.552 95.5172,160.552 96,161.5C 97.2812,161.381 98.4479,161.881 99.5,163C 97.6992,163.317 97.3659,163.984 98.5,165C 102.702,164.022 104.702,165.855 104.5,170.5C 100.44,169.848 98.4399,171.515 98.5,175.5C 96.2341,175.859 94.4007,175.192 93,173.5C 92.5045,175.473 92.3379,177.473 92.5,179.5C 87.6422,179.932 82.8089,180.599 78,181.5C 70.429,179.766 62.929,177.766 55.5,175.5C 48.3709,172.368 43.7043,167.035 41.5,159.5C 39.6164,153.129 38.2831,146.629 37.5,140C 37.725,137.472 38.0584,134.972 38.5,132.5C 40.0939,128.443 42.0939,124.443 44.5,120.5C 45.3279,119.585 46.3279,118.919 47.5,118.5C 49.7381,121.433 50.7381,121.099 50.5,117.5C 49.448,117.649 48.448,117.483 47.5,117C 49.3952,113.986 51.3952,111.153 53.5,108.5C 61.3736,105.813 68.0403,107.646 73.5,114C 72.2068,114.49 70.8734,114.657 69.5,114.5C 69.0882,116.973 70.0882,118.306 72.5,118.5 Z"/></g>
<g><path style="opacity:1" fill="#d72424" d="M 525.5,103.5 C 525.833,103.5 526.167,103.5 526.5,103.5C 525.472,107.233 524.139,110.899 522.5,114.5C 523.529,117.514 524.529,120.514 525.5,123.5C 524.5,123.5 523.5,123.5 522.5,123.5C 522.669,118.959 522.002,118.626 520.5,122.5C 518.867,121.256 517.867,121.756 517.5,124C 518.723,126.057 519.723,128.223 520.5,130.5C 521.386,129.675 521.719,128.675 521.5,127.5C 522.978,127.238 524.311,127.571 525.5,128.5C 521.166,132.823 521.833,134.49 527.5,133.5C 529.987,140.084 530.154,146.75 528,153.5C 526.211,155.229 524.044,155.896 521.5,155.5C 521.054,152.99 521.72,150.99 523.5,149.5C 523.767,145.426 525.1,141.759 527.5,138.5C 524.535,138.179 521.535,137.179 518.5,135.5C 518.719,134.325 518.386,133.325 517.5,132.5C 512.856,134.313 509.69,137.646 508,142.5C 507.329,143.252 506.496,143.586 505.5,143.5C 511.659,129.849 518.325,116.516 525.5,103.5 Z M 523.5,149.5 C 523.67,150.822 523.337,151.989 522.5,153C 523.793,153.49 525.127,153.657 526.5,153.5C 526.663,151.143 526.497,148.81 526,146.5C 525.148,147.571 524.315,148.571 523.5,149.5 Z"/></g>
<g><path style="opacity:0.99" fill="#c82625" d="M 203.5,109.5 C 207.049,116.006 207.382,122.673 204.5,129.5C 197.5,129.5 190.5,129.5 183.5,129.5C 183.5,124.833 183.5,120.167 183.5,115.5C 184.485,119.634 184.818,123.968 184.5,128.5C 190.833,128.5 197.167,128.5 203.5,128.5C 204.768,122.161 204.768,115.828 203.5,109.5 Z"/></g>
<g><path style="opacity:0.098" fill="#ad2720" d="M 244.5,117.5 C 245.167,119.5 245.833,121.5 246.5,123.5C 247.237,127.443 247.904,131.443 248.5,135.5C 247.527,137.464 247.694,139.464 249,141.5C 250.659,137.823 252.159,134.156 253.5,130.5C 253.608,134.247 253.108,137.914 252,141.5C 250.333,144.167 248.667,144.167 247,141.5C 246.761,133.385 245.928,125.385 244.5,117.5 Z"/></g>
<g><path style="opacity:0.243" fill="#844a28" d="M 626.5,127.5 C 626.833,127.5 627.167,127.5 627.5,127.5C 627.125,129.698 626.458,131.698 625.5,133.5C 625.205,131.265 625.539,129.265 626.5,127.5 Z"/></g>
<g><path style="opacity:1" fill="#e22f31" d="M 72.5,118.5 C 73.1667,118.5 73.8333,118.5 74.5,118.5C 76.0808,120.142 76.7475,122.142 76.5,124.5C 67.6398,122.784 67.3065,123.784 75.5,127.5C 76.48,130.086 76.8134,132.753 76.5,135.5C 75.5084,135.328 74.8417,135.662 74.5,136.5C 69.4211,136.715 66.2544,134.381 65,129.5C 64.2747,131.158 63.108,131.658 61.5,131C 59.9981,128.426 58.9981,125.593 58.5,122.5C 57.8647,125.099 56.8647,127.432 55.5,129.5C 53.8002,128.984 52.4669,127.984 51.5,126.5C 51.8333,126.167 52.1667,125.833 52.5,125.5C 53.5237,126.853 54.857,127.52 56.5,127.5C 56.5,125.5 56.5,123.5 56.5,121.5C 57.8333,121.5 59.1667,121.5 60.5,121.5C 60.1253,124.397 60.6253,127.063 62,129.5C 62.4966,127.19 62.6633,124.857 62.5,122.5C 65.8333,122.5 69.1667,122.5 72.5,122.5C 72.5,121.167 72.5,119.833 72.5,118.5 Z"/></g>
<g><path style="opacity:0.278" fill="#b33424" d="M 182.5,115.5 C 182.833,115.5 183.167,115.5 183.5,115.5C 183.5,120.167 183.5,124.833 183.5,129.5C 190.5,129.5 197.5,129.5 204.5,129.5C 201.814,130.991 198.814,131.657 195.5,131.5C 191.169,131.071 186.835,130.738 182.5,130.5C 182.5,125.5 182.5,120.5 182.5,115.5 Z"/></g>
<g><path style="opacity:0.992" fill="#ab3224" d="M 425.5,123.5 C 422.015,133.789 418.015,143.789 413.5,153.5C 413.338,151.473 413.505,149.473 414,147.5C 417.275,139.558 420.108,131.558 422.5,123.5C 423.5,123.5 424.5,123.5 425.5,123.5 Z"/></g>
<g><path style="opacity:1" fill="#fcd5d3" d="M 74.5,136.5 C 73.1311,138.732 72.1311,141.066 71.5,143.5C 70.3157,142.312 70.3157,141.145 71.5,140C 68.3961,136.716 64.7294,135.716 60.5,137C 62.3937,135.921 62.727,134.587 61.5,133C 58.8078,132.57 56.1411,132.737 53.5,133.5C 54.1667,132.167 54.8333,130.833 55.5,129.5C 56.8647,127.432 57.8647,125.099 58.5,122.5C 58.9981,125.593 59.9981,128.426 61.5,131C 63.108,131.658 64.2747,131.158 65,129.5C 66.2544,134.381 69.4211,136.715 74.5,136.5 Z"/></g>
<g><path style="opacity:0.22" fill="#b23428" d="M 321.5,121.5 C 321.142,125.509 320.642,129.509 320,133.5C 319.392,135.066 318.558,136.4 317.5,137.5C 317.917,131.83 319.251,126.497 321.5,121.5 Z"/></g>
<g><path style="opacity:1" fill="#fdd0cf" d="M 83.5,139.5 C 81.6925,138 80.0258,136.333 78.5,134.5C 81.2877,135.23 84.2877,135.23 87.5,134.5C 88.3236,131.215 88.8236,127.882 89,124.5C 89.3333,126.167 89.6667,127.833 90,129.5C 90.9525,131.592 92.2859,131.925 94,130.5C 94.5431,128.369 95.3764,126.369 96.5,124.5C 97.4287,125.689 97.762,127.022 97.5,128.5C 98.552,128.351 99.552,128.517 100.5,129C 99.273,130.587 99.6063,131.921 101.5,133C 98.8806,132.917 96.214,132.75 93.5,132.5C 93.8258,134.661 94.8258,136.494 96.5,138C 94.217,138.291 92.0503,137.791 90,136.5C 87.7473,137.377 85.5806,138.377 83.5,139.5 Z"/></g>
<g><path style="opacity:1" fill="#ec1b23" d="M 99.5,108.5 C 101.517,109.529 103.517,110.529 105.5,111.5C 106.167,112.167 106.833,112.833 107.5,113.5C 107.491,115.308 107.991,116.975 109,118.5C 111.786,120.774 113.953,123.44 115.5,126.5C 117.311,136.322 116.811,145.989 114,155.5C 113.549,153.071 112.715,152.904 111.5,155C 112.573,158.112 112.573,161.279 111.5,164.5C 109.416,163.752 107.416,163.752 105.5,164.5C 104.329,162.831 102.996,161.331 101.5,160C 102.944,157.966 104.944,157.132 107.5,157.5C 107.261,155.533 107.594,153.699 108.5,152C 106.588,150.8 105.255,149.133 104.5,147C 102.744,146.798 101.078,146.298 99.5,145.5C 100.641,144.575 100.641,143.741 99.5,143C 100.167,142.667 100.833,142.333 101.5,142C 100.234,141.691 99.0674,141.191 98,140.5C 97.5045,138.527 97.3379,136.527 97.5,134.5C 99.1667,134.5 100.833,134.5 102.5,134.5C 102.232,131.881 102.565,129.381 103.5,127C 101.866,126.506 100.199,126.34 98.5,126.5C 98.5,124.5 98.5,122.5 98.5,120.5C 95.0396,120.475 91.7063,119.808 88.5,118.5C 86.5393,114.993 83.5393,113.66 79.5,114.5C 79.2148,112.712 79.5481,111.045 80.5,109.5C 83.8568,112.428 87.5234,114.928 91.5,117C 93.5787,117.808 95.5787,117.641 97.5,116.5C 97.0233,115.522 96.3567,114.689 95.5,114C 91.2426,111.871 86.9093,109.705 82.5,107.5C 81.2999,105.893 81.7999,104.893 84,104.5C 87.8385,105.728 91.8385,107.394 96,109.5C 97.0113,108.663 98.1779,108.33 99.5,108.5 Z"/></g>
<g><path style="opacity:0.408" fill="#963720" d="M 39.5,126.5 C 39.4828,128.565 39.1495,130.565 38.5,132.5C 38.0584,134.972 37.725,137.472 37.5,140C 38.2831,146.629 39.6164,153.129 41.5,159.5C 34.4677,148.901 33.801,137.901 39.5,126.5 Z"/></g>
<g><path style="opacity:0.71" fill="#b52f28" d="M 115.5,126.5 C 116.41,128.019 117.243,129.685 118,131.5C 120.369,143.565 118.203,154.565 111.5,164.5C 112.573,161.279 112.573,158.112 111.5,155C 112.715,152.904 113.549,153.071 114,155.5C 116.811,145.989 117.311,136.322 115.5,126.5 Z"/></g>
<g><path style="opacity:1" fill="#bd2b25" d="M 291.5,105.5 C 289.446,109.252 288.112,113.252 287.5,117.5C 286.5,117.5 285.5,117.5 284.5,117.5C 282.774,123.335 281.274,129.335 280,135.5C 278.97,137.346 277.804,139.013 276.5,140.5C 278.721,128.403 282.888,117.069 289,106.5C 289.671,105.748 290.504,105.414 291.5,105.5 Z"/></g>
<g><path style="opacity:1" fill="#bc2f26" d="M 564.5,123.5 C 564.826,127.884 564.492,132.217 563.5,136.5C 560.676,140.93 558.676,145.596 557.5,150.5C 559.078,141.183 561.412,132.183 564.5,123.5 Z"/></g>
<g><path style="opacity:0.671" fill="#b13b2f" d="M 177.5,131.5 C 182.322,132.998 186.322,135.664 189.5,139.5C 185.65,137.44 181.65,135.773 177.5,134.5C 177.5,133.5 177.5,132.5 177.5,131.5 Z"/></g>
<g><path style="opacity:1" fill="#fdf9f8" d="M 78.5,134.5 C 80.0258,136.333 81.6925,138 83.5,139.5C 84.4054,140.702 84.4054,142.036 83.5,143.5C 82.3748,145 81.0414,146.333 79.5,147.5C 78.6618,147.842 78.3284,148.508 78.5,149.5C 77.8333,149.167 77.1667,148.833 76.5,148.5C 75.4549,147.122 74.1216,146.122 72.5,145.5C 72.1667,144.833 71.8333,144.167 71.5,143.5C 72.1311,141.066 73.1311,138.732 74.5,136.5C 74.8417,135.662 75.5084,135.328 76.5,135.5C 77.1667,135.167 77.8333,134.833 78.5,134.5 Z"/></g>
<g><path style="opacity:1" fill="#db3f42" d="M 71.5,143.5 C 70.0267,144.072 68.6934,144.905 67.5,146C 65.102,146.374 62.7687,146.374 60.5,146C 62.3937,147.079 62.727,148.413 61.5,150C 58.7431,150.782 56.2431,150.282 54,148.5C 53.6012,148.728 53.4346,149.062 53.5,149.5C 51.0943,148.477 51.0943,147.81 53.5,147.5C 55.8006,148.396 58.1339,148.562 60.5,148C 58.1367,147.411 57.1367,145.911 57.5,143.5C 60.7861,144.207 64.1194,144.54 67.5,144.5C 67.1667,142.5 66.8333,140.5 66.5,138.5C 63.7508,138.274 61.0841,138.607 58.5,139.5C 57.3554,138.224 57.3554,136.891 58.5,135.5C 56.2692,135.113 53.9359,134.947 51.5,135C 52.0442,134.283 52.7109,133.783 53.5,133.5C 56.1411,132.737 58.8078,132.57 61.5,133C 62.727,134.587 62.3937,135.921 60.5,137C 64.7294,135.716 68.3961,136.716 71.5,140C 70.3157,141.145 70.3157,142.312 71.5,143.5 Z"/></g>
<g><path style="opacity:1" fill="#e91d24" d="M 203.5,109.5 C 204.768,115.828 204.768,122.161 203.5,128.5C 197.167,128.5 190.833,128.5 184.5,128.5C 184.818,123.968 184.485,119.634 183.5,115.5C 183.167,115.5 182.833,115.5 182.5,115.5C 173.723,112.456 169.889,115.456 171,124.5C 172.694,127.358 174.861,129.691 177.5,131.5C 177.5,132.5 177.5,133.5 177.5,134.5C 181.65,135.773 185.65,137.44 189.5,139.5C 190.08,141.749 191.413,143.415 193.5,144.5C 195.677,147.52 197.343,150.853 198.5,154.5C 195.778,157.908 194.278,161.908 194,166.5C 193.667,166.167 193.333,165.833 193,165.5C 192.456,168.625 191.623,171.625 190.5,174.5C 189.5,174.5 188.5,174.5 187.5,174.5C 186.957,177.038 185.957,179.372 184.5,181.5C 184.167,181.5 183.833,181.5 183.5,181.5C 170.836,183.335 158.169,183.502 145.5,182C 142.721,181.439 140.054,180.606 137.5,179.5C 135.836,176.701 134.169,174.034 132.5,171.5C 131.249,166.305 131.582,161.305 133.5,156.5C 134.627,155.878 135.627,155.045 136.5,154C 140.821,153.501 145.154,153.334 149.5,153.5C 151.5,153.5 153.5,153.5 155.5,153.5C 155.187,157.042 155.521,160.375 156.5,163.5C 156.5,163.833 156.5,164.167 156.5,164.5C 154.348,165.077 154.015,166.244 155.5,168C 158.595,169.534 161.595,169.701 164.5,168.5C 169.955,168.885 172.788,166.218 173,160.5C 172.215,158.714 171.049,157.214 169.5,156C 163.263,151.726 157.263,147.226 151.5,142.5C 146.07,133.936 145.237,124.936 149,115.5C 151.076,112.445 153.742,111.445 157,112.5C 156.805,110.874 156.805,109.207 157,107.5C 158.167,106.333 159.333,105.167 160.5,104C 170.349,101.022 180.349,100.689 190.5,103C 195.242,104.704 199.576,106.871 203.5,109.5 Z"/></g>
<g><path style="opacity:0.525" fill="#9a3b2e" d="M 189.5,139.5 C 191.587,140.585 192.92,142.251 193.5,144.5C 191.413,143.415 190.08,141.749 189.5,139.5 Z"/></g>
<g><path style="opacity:0.327" fill="#a53827" d="M 347.5,131.5 C 348.07,140.493 347.07,149.16 344.5,157.5C 344.861,148.621 345.861,139.954 347.5,131.5 Z"/></g>
<g><path style="opacity:0.865" fill="#ab3428" d="M 492.5,157.5 C 491.387,156.054 491.22,154.387 492,152.5C 496.094,135.632 500.261,118.966 504.5,102.5C 496.16,102.334 487.827,102.5 479.5,103C 479.026,104.729 478.026,105.895 476.5,106.5C 476.84,104.321 477.84,102.488 479.5,101C 488.412,100.184 497.245,100.35 506,101.5C 502.46,120.296 497.96,138.963 492.5,157.5 Z"/></g>
<g><path style="opacity:0.361" fill="#8c492e" d="M 271.5,137.5 C 271.324,140.727 270.657,143.727 269.5,146.5C 269.215,143.171 269.882,140.171 271.5,137.5 Z"/></g>
<g><path style="opacity:0.82" fill="#96342b" d="M 625.5,134.5 C 623.802,139.923 622.135,145.256 620.5,150.5C 619.993,144.253 621.659,138.92 625.5,134.5 Z"/></g>
<g><path style="opacity:0.216" fill="#a5322a" d="M 304.5,129.5 C 300.977,142.128 297.977,154.795 295.5,167.5C 294.362,164.696 294.195,161.696 295,158.5C 297.53,151.006 299.53,143.339 301,135.5C 301.941,133.273 303.108,131.273 304.5,129.5 Z"/></g>
<g><path style="opacity:1" fill="#ffd8d7" d="M 71.5,143.5 C 71.8333,144.167 72.1667,144.833 72.5,145.5C 71.8333,146.167 71.1667,146.833 70.5,147.5C 68.9826,147.511 67.8159,148.177 67,149.5C 66.5291,151.246 65.8624,152.913 65,154.5C 64.7676,150.25 63.2676,149.583 60.5,152.5C 59.7868,154.776 59.2868,157.109 59,159.5C 58.5065,157.866 58.3398,156.199 58.5,154.5C 57.1266,154.657 55.7932,154.49 54.5,154C 55.7996,152.421 55.4663,151.255 53.5,150.5C 53.5,150.167 53.5,149.833 53.5,149.5C 53.4346,149.062 53.6012,148.728 54,148.5C 56.2431,150.282 58.7431,150.782 61.5,150C 62.727,148.413 62.3937,147.079 60.5,146C 62.7687,146.374 65.102,146.374 67.5,146C 68.6934,144.905 70.0267,144.072 71.5,143.5 Z"/></g>
<g><path style="opacity:1" fill="#ad2b26" d="M 207.5,136.5 C 206.334,146.621 204,156.288 200.5,165.5C 201.743,155.531 204.076,145.864 207.5,136.5 Z"/></g>
<g><path style="opacity:1" fill="#d24947" d="M 86.5,148.5 C 84.5,148.5 82.5,148.5 80.5,148.5C 80.3651,151.417 81.0318,154.084 82.5,156.5C 81.4168,156.461 80.4168,156.127 79.5,155.5C 78.5344,153.604 78.2011,151.604 78.5,149.5C 78.3284,148.508 78.6618,147.842 79.5,147.5C 80.8175,147.179 82.1508,146.846 83.5,146.5C 85.0377,146.453 86.0377,147.12 86.5,148.5 Z"/></g>
<g><path style="opacity:1" fill="#eb1c23" d="M 86.5,148.5 C 86.8333,148.5 87.1667,148.5 87.5,148.5C 87.8204,151.898 87.487,155.232 86.5,158.5C 85.3777,157.37 84.0443,156.703 82.5,156.5C 81.0318,154.084 80.3651,151.417 80.5,148.5C 82.5,148.5 84.5,148.5 86.5,148.5 Z"/></g>
<g><path style="opacity:0.247" fill="#a93628" d="M 276.5,140.5 C 275.869,144.804 275.369,149.137 275,153.5C 274.8,155.32 273.966,156.653 272.5,157.5C 273.738,152.611 274.571,147.611 275,142.5C 275.278,141.584 275.778,140.918 276.5,140.5 Z"/></g>
<g><path style="opacity:0.678" fill="#ac312c" d="M 314.5,145.5 C 315.622,147.288 315.789,149.288 315,151.5C 314.167,154 313.333,156.5 312.5,159C 312.164,160.03 311.497,160.53 310.5,160.5C 311.094,155.223 312.428,150.223 314.5,145.5 Z"/></g>
<g><path style="opacity:0.996" fill="#ba3128" d="M 344.5,135.5 C 342.369,146.203 339.369,156.536 335.5,166.5C 335.145,159.24 336.645,153.24 340,148.5C 339.655,143.389 341.155,139.055 344.5,135.5 Z"/></g>
<g><path style="opacity:0.984" fill="#b43728" d="M 505.5,143.5 C 503.16,152.852 499.16,161.519 493.5,169.5C 497.006,160.494 501.006,151.828 505.5,143.5 Z"/></g>
<g><path style="opacity:1" fill="#fed9d8" d="M 83.5,143.5 C 85.5061,144.511 87.5061,145.511 89.5,146.5C 91.1547,145.772 92.8214,145.605 94.5,146C 92.6063,147.079 92.273,148.413 93.5,150C 96.5928,150.07 99.5928,149.736 102.5,149C 101.313,150.019 100.313,151.186 99.5,152.5C 100.609,154.214 99.9418,154.881 97.5,154.5C 97.8432,156.483 97.1765,157.817 95.5,158.5C 95.9167,155.921 95.25,153.754 93.5,152C 90.6168,151.205 89.1168,152.371 89,155.5C 88.8138,152.964 88.3138,150.631 87.5,148.5C 87.1667,148.5 86.8333,148.5 86.5,148.5C 86.0377,147.12 85.0377,146.453 83.5,146.5C 82.1508,146.846 80.8175,147.179 79.5,147.5C 81.0414,146.333 82.3748,145 83.5,143.5 Z"/></g>
<g><path style="opacity:0.425" fill="#a0332b" d="M 149.5,152.5 C 149.5,152.833 149.5,153.167 149.5,153.5C 145.154,153.334 140.821,153.501 136.5,154C 135.627,155.045 134.627,155.878 133.5,156.5C 133.624,154.418 134.624,152.918 136.5,152C 141.02,151.186 145.354,151.353 149.5,152.5 Z"/></g>
<g><path style="opacity:0.047" fill="#754731" d="M 149.5,153.5 C 149.5,153.167 149.5,152.833 149.5,152.5C 151.833,152.5 154.167,152.5 156.5,152.5C 156.5,156.167 156.5,159.833 156.5,163.5C 155.521,160.375 155.187,157.042 155.5,153.5C 153.5,153.5 151.5,153.5 149.5,153.5 Z"/></g>
<g><path style="opacity:0.6" fill="#953529" d="M 620.5,150.5 C 619.918,154.713 618.918,158.713 617.5,162.5C 617.364,159.449 617.698,156.449 618.5,153.5C 618.453,151.962 619.12,150.962 620.5,150.5 Z"/></g>
<g><path style="opacity:0.851" fill="#b53027" d="M 425.5,136.5 C 426.124,136.917 426.457,137.584 426.5,138.5C 425.259,143.431 424.425,148.431 424,153.5C 423.261,155.889 422.095,157.889 420.5,159.5C 422.317,151.894 423.984,144.228 425.5,136.5 Z"/></g>
<g><path style="opacity:1" fill="#db3e3d" d="M 72.5,145.5 C 74.1216,146.122 75.4549,147.122 76.5,148.5C 77.2832,153.558 75.2832,157.058 70.5,159C 72.4884,159.18 74.4884,159.014 76.5,158.5C 76.7868,162.215 75.1201,164.548 71.5,165.5C 72.038,163.883 72.3713,162.216 72.5,160.5C 67.7569,160.814 67.4236,159.481 71.5,156.5C 70.9747,155.808 70.3081,155.308 69.5,155C 71.1341,154.506 72.8008,154.34 74.5,154.5C 74.6621,152.473 74.4955,150.473 74,148.5C 72.9887,147.663 71.8221,147.33 70.5,147.5C 71.1667,146.833 71.8333,146.167 72.5,145.5 Z"/></g>
<g><path style="opacity:1" fill="#ffd2d2" d="M 76.5,148.5 C 77.1667,148.833 77.8333,149.167 78.5,149.5C 78.2011,151.604 78.5344,153.604 79.5,155.5C 80.4168,156.127 81.4168,156.461 82.5,156.5C 82.6107,157.117 82.944,157.617 83.5,158C 81.8659,158.494 80.1992,158.66 78.5,158.5C 78.2258,162.202 79.8925,164.535 83.5,165.5C 82.0813,166.451 80.4147,166.784 78.5,166.5C 77.8333,171.833 77.1667,171.833 76.5,166.5C 74.7376,166.357 73.0709,166.691 71.5,167.5C 70.537,167.03 70.537,166.363 71.5,165.5C 75.1201,164.548 76.7868,162.215 76.5,158.5C 74.4884,159.014 72.4884,159.18 70.5,159C 75.2832,157.058 77.2832,153.558 76.5,148.5 Z"/></g>
<g><path style="opacity:1" fill="#d83b3c" d="M 87.5,148.5 C 88.3138,150.631 88.8138,152.964 89,155.5C 89.1168,152.371 90.6168,151.205 93.5,152C 95.25,153.754 95.9167,155.921 95.5,158.5C 94.2876,157.77 93.2876,156.77 92.5,155.5C 89.1458,158.682 85.1458,160.682 80.5,161.5C 81.325,162.386 82.325,162.719 83.5,162.5C 83.5,163.5 83.5,164.5 83.5,165.5C 79.8925,164.535 78.2258,162.202 78.5,158.5C 80.1992,158.66 81.8659,158.494 83.5,158C 82.944,157.617 82.6107,157.117 82.5,156.5C 84.0443,156.703 85.3777,157.37 86.5,158.5C 87.487,155.232 87.8204,151.898 87.5,148.5 Z"/></g>
<g><path style="opacity:1" fill="#b72c26" d="M 198.5,154.5 C 197.975,165.805 193.308,174.805 184.5,181.5C 185.957,179.372 186.957,177.038 187.5,174.5C 188.5,174.5 189.5,174.5 190.5,174.5C 191.623,171.625 192.456,168.625 193,165.5C 193.333,165.833 193.667,166.167 194,166.5C 194.278,161.908 195.778,157.908 198.5,154.5 Z"/></g>
<g><path style="opacity:1" fill="#e24141" d="M 70.5,147.5 C 68.6503,149.866 67.3169,152.533 66.5,155.5C 64.6351,156.666 62.9684,156.333 61.5,154.5C 60.5508,157.126 60.5508,159.792 61.5,162.5C 59.8561,162.714 58.3561,162.38 57,161.5C 56.5045,159.527 56.3379,157.527 56.5,155.5C 54.7741,155.815 53.1075,155.981 51.5,156C 52.8613,154.416 53.528,152.582 53.5,150.5C 55.4663,151.255 55.7996,152.421 54.5,154C 55.7932,154.49 57.1266,154.657 58.5,154.5C 58.3398,156.199 58.5065,157.866 59,159.5C 59.2868,157.109 59.7868,154.776 60.5,152.5C 63.2676,149.583 64.7676,150.25 65,154.5C 65.8624,152.913 66.5291,151.246 67,149.5C 67.8159,148.177 68.9826,147.511 70.5,147.5 Z"/></g>
<g><path style="opacity:0.251" fill="#963820" d="M 220.5,161.5 C 220.416,165.837 219.416,169.837 217.5,173.5C 217.636,170.65 217.969,167.817 218.5,165C 218.608,163.319 219.275,162.152 220.5,161.5 Z"/></g>
<g><path style="opacity:0.506" fill="#a94029" d="M 156.5,164.5 C 157.99,167.892 160.657,169.226 164.5,168.5C 161.595,169.701 158.595,169.534 155.5,168C 154.015,166.244 154.348,165.077 156.5,164.5 Z"/></g>
<g><path style="opacity:0.365" fill="#b73027" d="M 310.5,161.5 C 310.865,163.588 310.865,165.921 310.5,168.5C 305.679,170.135 300.679,170.802 295.5,170.5C 295.5,169.5 295.5,168.5 295.5,167.5C 299.112,168.511 302.779,168.678 306.5,168C 308.661,166.364 309.994,164.197 310.5,161.5 Z"/></g>
<g><path style="opacity:0.851" fill="#b73229" d="M 527.5,102.5 C 535.984,101.507 544.651,101.174 553.5,101.5C 554.165,104.649 554.498,107.982 554.5,111.5C 553.167,129.167 551.833,146.833 550.5,164.5C 550.667,167.833 550.833,171.167 551,174.5C 551.279,171.543 552.113,168.877 553.5,166.5C 553.351,171.887 552.351,177.054 550.5,182C 556.157,182.499 561.824,182.666 567.5,182.5C 554.344,183.496 541.01,183.829 527.5,183.5C 527.815,179.629 527.482,175.962 526.5,172.5C 524.777,171.2 522.61,170.533 520,170.5C 517.833,170.833 515.667,171.167 513.5,171.5C 513.006,173.026 512.339,174.359 511.5,175.5C 511.104,172.956 511.771,170.789 513.5,169C 518.167,168.333 522.833,168.333 527.5,169C 528.467,173.401 528.8,177.901 528.5,182.5C 534.833,182.5 541.167,182.5 547.5,182.5C 549.462,155.914 551.128,129.247 552.5,102.5C 544.167,102.5 535.833,102.5 527.5,102.5 Z"/></g>
<g><path style="opacity:0.439" fill="#a43c27" d="M 574.5,158.5 C 574.079,166.949 572.412,174.949 569.5,182.5C 569.681,174.048 571.347,166.048 574.5,158.5 Z"/></g>
<g><path style="opacity:0.549" fill="#9a362b" d="M 617.5,163.5 C 616.164,169.185 614.83,174.852 613.5,180.5C 612.861,179.903 612.528,179.07 612.5,178C 613.708,174.252 614.541,170.419 615,166.5C 615.236,164.881 616.069,163.881 617.5,163.5 Z"/></g>
<g><path style="opacity:0.11" fill="#713022" d="M 132.5,171.5 C 134.169,174.034 135.836,176.701 137.5,179.5C 134.368,177.797 132.701,175.13 132.5,171.5 Z"/></g>
<g><path style="opacity:1" fill="#a0342b" d="M 419.5,161.5 C 419.876,168.105 418.876,174.438 416.5,180.5C 415.596,181.209 415.263,182.209 415.5,183.5C 421.833,183.5 428.167,183.5 434.5,183.5C 428.021,184.491 421.354,184.824 414.5,184.5C 415.178,176.505 416.844,168.838 419.5,161.5 Z"/></g>
<g><path style="opacity:0.855" fill="#c02e28" d="M 492.5,158.5 C 490.728,164.35 488.728,170.017 486.5,175.5C 485.244,177.726 485.244,180.059 486.5,182.5C 478.766,184.582 470.766,185.082 462.5,184C 461.941,183.275 461.608,182.442 461.5,181.5C 463.413,177.278 464.579,172.945 465,168.5C 461.765,173.413 458.932,178.58 456.5,184C 451.5,184.667 446.5,184.667 441.5,184C 440.524,178.57 439.691,173.07 439,167.5C 437.178,172.791 435.678,178.125 434.5,183.5C 428.167,183.5 421.833,183.5 415.5,183.5C 415.263,182.209 415.596,181.209 416.5,180.5C 421.735,182.45 427.402,183.117 433.5,182.5C 435.46,175.989 436.46,169.322 436.5,162.5C 437.833,162.5 439.167,162.5 440.5,162.5C 441.43,169.132 442.097,175.798 442.5,182.5C 446.846,182.666 451.179,182.499 455.5,182C 458.147,175.869 461.147,170.036 464.5,164.5C 465.822,164.33 466.989,164.663 468,165.5C 468.758,168.233 468.258,170.733 466.5,173C 469.442,175.916 468.775,177.416 464.5,177.5C 464.5,179.167 464.5,180.833 464.5,182.5C 471.167,182.5 477.833,182.5 484.5,182.5C 484.183,179.428 484.516,176.428 485.5,173.5C 488.344,168.907 489.011,164.074 487.5,159C 489.134,158.506 490.801,158.34 492.5,158.5 Z"/></g>
<g><path style="opacity:0.671" fill="#ad2e27" d="M 377.5,164.5 C 378.065,170.576 378.398,176.743 378.5,183C 385.826,183.5 393.159,183.666 400.5,183.5C 392.677,184.656 384.677,184.823 376.5,184C 375.884,182.6 375.551,181.1 375.5,179.5C 376.428,174.527 377.095,169.527 377.5,164.5 Z"/></g>
<g><path style="opacity:0.992" fill="#b82f26" d="M 55.5,175.5 C 62.929,177.766 70.429,179.766 78,181.5C 82.8089,180.599 87.6422,179.932 92.5,179.5C 81.9562,183.462 71.2895,183.295 60.5,179C 58.6536,177.97 56.9869,176.804 55.5,175.5 Z"/></g>
<g><path style="opacity:1" fill="#c72b28" d="M 200.5,165.5 C 199.112,170.981 198.446,176.648 198.5,182.5C 203.544,182.827 208.544,182.494 213.5,181.5C 214.583,178.862 215.916,176.529 217.5,174.5C 216.946,177.746 215.946,180.746 214.5,183.5C 208.5,183.5 202.5,183.5 196.5,183.5C 196.833,180.833 197.167,178.167 197.5,175.5C 197.389,174.883 197.056,174.383 196.5,174C 197.764,171.042 199.098,168.209 200.5,165.5 Z"/></g>
<g><path style="opacity:1" fill="#be3028" d="M 269.5,146.5 C 266.227,157.358 263.394,168.358 261,179.5C 260.727,181.329 259.893,182.829 258.5,184C 249.255,184.817 240.089,184.65 231,183.5C 228.636,170.962 226.636,158.295 225,145.5C 224.051,151.13 222.551,156.463 220.5,161.5C 220.365,156.34 221.199,151.34 223,146.5C 223.284,144.114 224.284,143.448 226,144.5C 227.791,157.317 229.957,169.983 232.5,182.5C 241.208,182.745 249.874,182.411 258.5,181.5C 259.061,177.033 260.227,172.699 262,168.5C 262.681,164.798 262.515,161.131 261.5,157.5C 262.064,155.181 262.564,152.847 263,150.5C 263.667,152.5 264.333,154.5 265,156.5C 266.212,152.882 267.712,149.548 269.5,146.5 Z"/></g>
<g><path style="opacity:1" fill="#c32a25" d="M 137.5,179.5 C 140.054,180.606 142.721,181.439 145.5,182C 158.169,183.502 170.836,183.335 183.5,181.5C 181.438,182.776 179.104,183.61 176.5,184C 164.511,186.214 152.844,185.881 141.5,183C 139.676,182.34 138.343,181.173 137.5,179.5 Z"/></g>
<g><path style="opacity:0.167" fill="#9d392b" d="M 197.5,175.5 C 197.167,178.167 196.833,180.833 196.5,183.5C 202.5,183.5 208.5,183.5 214.5,183.5C 208.347,184.653 202.014,184.82 195.5,184C 194.784,180.904 195.451,178.07 197.5,175.5 Z"/></g>
<g><path style="opacity:0.173" fill="#a9352b" d="M 272.5,158.5 C 271.537,162.796 271.371,167.129 272,171.5C 274.863,173.537 277.03,176.204 278.5,179.5C 281.436,180.115 284.103,181.282 286.5,183C 296.833,183.667 307.167,183.667 317.5,183C 321.05,181.065 324.383,178.899 327.5,176.5C 327.291,175.914 326.957,175.414 326.5,175C 329.06,174.616 331.394,173.783 333.5,172.5C 329.805,178.083 324.805,181.917 318.5,184C 307.5,184.667 296.5,184.667 285.5,184C 271.931,179.986 267.597,171.486 272.5,158.5 Z"/></g>
<g><path style="opacity:0.173" fill="#a83b2f" d="M 343.5,168.5 C 343.084,173.493 342.751,178.493 342.5,183.5C 350.611,183.935 358.611,183.435 366.5,182C 368.928,177.876 370.262,173.376 370.5,168.5C 371.5,168.5 372.5,168.5 373.5,168.5C 372.033,174.072 369.7,179.238 366.5,184C 357.921,184.816 349.421,184.649 341,183.5C 341.196,178.321 342.03,173.321 343.5,168.5 Z"/></g>
<g><path style="opacity:0.175" fill="#a63b2d" d="M 491.5,172.5 C 490.357,175.684 489.691,179.017 489.5,182.5C 495.167,182.5 500.833,182.5 506.5,182.5C 506.969,179.357 508.636,177.023 511.5,175.5C 510.372,183.945 505.539,186.945 497,184.5C 493.098,184.488 489.598,183.821 486.5,182.5C 485.244,180.059 485.244,177.726 486.5,175.5C 486.34,177.199 486.506,178.866 487,180.5C 488.364,177.666 489.864,175 491.5,172.5 Z"/></g>
<g><path style="opacity:0.167" fill="#9b372b" d="M 526.5,172.5 C 527.482,175.962 527.815,179.629 527.5,183.5C 541.01,183.829 554.344,183.496 567.5,182.5C 568.167,182.5 568.833,182.5 569.5,182.5C 555.205,184.483 540.538,185.15 525.5,184.5C 526.272,180.548 526.605,176.548 526.5,172.5 Z"/></g>
<g><path style="opacity:0.175" fill="#a13c29" d="M 582.5,157.5 C 585.692,165.566 587.692,174.066 588.5,183C 596.766,184.082 604.766,183.582 612.5,181.5C 612.5,182.5 612.5,183.5 612.5,184.5C 604.16,184.666 595.827,184.5 587.5,184C 585.063,175.369 583.397,166.536 582.5,157.5 Z"/></g>
<g><path style="opacity:0.666" fill="#040503" d="M 474.5,189.5 C 481.369,189.538 483.869,192.871 482,199.5C 480.829,200.893 479.329,201.727 477.5,202C 485.821,201.71 494.154,201.71 502.5,202C 504.664,202.914 506.664,204.081 508.5,205.5C 510.258,204.872 511.758,203.872 513,202.5C 515.184,196.749 519.184,194.416 525,195.5C 524.666,199.105 526.166,201.439 529.5,202.5C 530.952,205.282 530.619,207.782 528.5,210C 526.236,210.236 524.069,210.736 522,211.5C 521.333,214.5 521.333,217.5 522,220.5C 523.667,221.167 525.333,221.833 527,222.5C 527.769,225.099 527.602,227.599 526.5,230C 518.854,233.291 512.854,231.457 508.5,224.5C 506.95,226.428 505.283,228.261 503.5,230C 501.167,230.667 498.833,230.667 496.5,230C 495.7,224.417 496.367,218.917 498.5,213.5C 497.332,211.783 495.665,211.116 493.5,211.5C 492.331,217.169 491.165,222.836 490,228.5C 485.731,231.383 481.731,231.05 478,227.5C 475.786,230.219 472.953,231.385 469.5,231C 467.406,229.745 466.406,227.912 466.5,225.5C 467.006,221.965 467.672,218.465 468.5,215C 467.351,213.27 467.351,211.604 468.5,210C 468,209.5 467.5,209 467,208.5C 468.432,223.729 461.599,231.229 446.5,231C 442.381,229.295 439.214,226.461 437,222.5C 432.877,228.648 427.043,231.815 419.5,232C 417.895,234.543 416.562,237.209 415.5,240C 412.854,240.497 410.187,240.664 407.5,240.5C 407.223,237.552 407.556,234.719 408.5,232C 407.874,231.25 407.374,230.416 407,229.5C 405.874,230.944 404.374,231.61 402.5,231.5C 399.599,231.047 396.933,230.047 394.5,228.5C 391.512,229.217 388.679,230.217 386,231.5C 383.361,230.215 380.694,228.882 378,227.5C 375.073,230.613 371.573,231.28 367.5,229.5C 360.127,233.186 354.293,231.519 350,224.5C 346.115,228.624 341.281,230.791 335.5,231C 330.804,231.914 326.304,231.414 322,229.5C 324.114,217.919 326.114,206.252 328,194.5C 336.323,190.297 343.989,191.297 351,197.5C 351.518,201.575 351.518,205.575 351,209.5C 358.702,201.5 367.702,199.5 378,203.5C 378.179,206.553 378.679,209.553 379.5,212.5C 381.898,206.305 383.898,199.971 385.5,193.5C 388.208,191.564 391.208,191.064 394.5,192C 395.059,192.725 395.392,193.558 395.5,194.5C 393.464,203.603 391.464,212.77 389.5,222C 390.089,224.633 391.756,225.8 394.5,225.5C 394.335,222.482 394.502,219.482 395,216.5C 396.134,210.527 397.634,204.694 399.5,199C 398.771,192.42 401.771,190.087 408.5,192C 409.624,192.839 410.291,194.006 410.5,195.5C 407.637,204.583 405.97,213.916 405.5,223.5C 406.822,223.67 407.989,223.337 409,222.5C 409.738,218.528 410.904,214.694 412.5,211C 410.104,204.749 412.271,201.583 419,201.5C 423.021,201.631 427.187,201.798 431.5,202C 434.435,203.715 437.268,205.548 440,207.5C 442.752,206.414 445.252,204.914 447.5,203C 454.165,200.603 460.332,201.437 466,205.5C 467.605,204.899 468.938,203.899 470,202.5C 471.174,198.954 471.84,195.287 472,191.5C 472.995,190.934 473.828,190.267 474.5,189.5 Z M 509.5,208.5 C 511.057,213.255 510.557,217.921 508,222.5C 507.228,217.616 507.728,212.949 509.5,208.5 Z M 480.5,209.5 C 481.88,209.962 482.547,210.962 482.5,212.5C 481.795,216.32 480.629,219.986 479,223.5C 479.627,218.949 480.127,214.283 480.5,209.5 Z M 451.5,210.5 C 458.111,211.073 459.277,214.073 455,219.5C 452.373,222.207 450.206,222.041 448.5,219C 449.123,215.996 450.123,213.162 451.5,210.5 Z M 363.5,211.5 C 366.055,214.482 366.055,217.649 363.5,221C 362.552,221.483 361.552,221.649 360.5,221.5C 360.891,217.927 361.891,214.593 363.5,211.5 Z M 421.5,211.5 C 428.886,211.559 430.219,214.393 425.5,220C 423.892,220.658 422.725,220.158 422,218.5C 421.503,216.19 421.337,213.857 421.5,211.5 Z M 336.5,216.5 C 340.099,216.262 340.433,217.262 337.5,219.5C 336.614,218.675 336.281,217.675 336.5,216.5 Z M 376.5,218.5 C 377.586,218.62 378.253,219.287 378.5,220.5C 378.101,222.197 377.601,223.863 377,225.5C 375.277,223.333 375.11,221 376.5,218.5 Z"/></g>
<g><path style="opacity:0.668" fill="#020402" d="M 145.5,191.5 C 147.722,191.178 149.556,191.845 151,193.5C 151.157,196.72 150.657,199.887 149.5,203C 149.833,203.833 150.167,204.667 150.5,205.5C 151.845,204.653 152.845,203.487 153.5,202C 155.5,201.333 157.5,201.333 159.5,202C 161.017,203.685 162.684,205.185 164.5,206.5C 169.327,203.613 174.493,201.613 180,200.5C 183.755,201.377 187.088,203.044 190,205.5C 191.925,203.915 194.091,202.748 196.5,202C 200.555,201.768 204.555,201.268 208.5,200.5C 212.758,202.864 213.591,206.197 211,210.5C 209.055,211.692 207.055,211.692 205,210.5C 203.739,210.759 202.739,211.426 202,212.5C 200.468,218.102 199.134,223.769 198,229.5C 196.667,230.167 195.333,230.833 194,231.5C 190.943,230.752 187.943,229.752 185,228.5C 178.304,232.423 171.638,232.423 165,228.5C 159.072,232.221 153.572,231.554 148.5,226.5C 146.697,227.137 145.364,228.303 144.5,230C 141.833,230.667 139.167,230.667 136.5,230C 135.978,229.439 135.645,228.772 135.5,228C 136.703,222.878 137.203,217.712 137,212.5C 133.841,210.403 130.841,210.403 128,212.5C 126.322,218.335 124.822,224.168 123.5,230C 116.464,229.527 109.464,229.361 102.5,229.5C 100.808,230.969 98.808,231.635 96.5,231.5C 93.2846,230.816 90.1179,229.816 87,228.5C 80.9058,232.728 76.5724,231.395 74,224.5C 71.5345,227.141 68.8678,229.474 66,231.5C 64.8926,231.415 63.8926,231.081 63,230.5C 62.1779,228.212 61.5112,225.878 61,223.5C 58.323,226.509 55.323,229.176 52,231.5C 50.6012,230.773 49.1012,230.273 47.5,230C 46.9415,229.275 46.6082,228.442 46.5,227.5C 50.2758,216.139 54.6091,204.973 59.5,194C 66.0321,192.203 68.8654,194.703 68,201.5C 68.414,201.957 68.914,202.291 69.5,202.5C 72.8987,200.312 75.5653,197.479 77.5,194C 81.1373,191.65 83.804,192.483 85.5,196.5C 84.4101,200.807 84.4101,205.14 85.5,209.5C 86.552,209.649 87.552,209.483 88.5,209C 93.483,202.76 99.983,199.927 108,200.5C 111.54,201.546 114.373,203.546 116.5,206.5C 117.429,205.311 117.762,203.978 117.5,202.5C 124.506,202.496 131.506,202.496 138.5,202.5C 140.976,199.717 141.976,196.384 141.5,192.5C 143.099,192.768 144.432,192.434 145.5,191.5 Z M 159.5,209.5 C 160.725,210.152 161.392,211.319 161.5,213C 161.083,215.498 160.749,217.998 160.5,220.5C 157.532,220.374 155.532,218.874 154.5,216C 155.269,213.074 156.935,210.907 159.5,209.5 Z M 188.5,215.5 C 189.797,216.849 189.63,218.182 188,219.5C 187.805,218.181 187.972,216.847 188.5,215.5 Z M 113.5,219.5 C 115.97,220.36 116.137,221.694 114,223.5C 113.51,222.207 113.343,220.873 113.5,219.5 Z M 184.5,219.5 C 185.573,220.251 185.74,221.251 185,222.5C 183.272,221.648 183.105,220.648 184.5,219.5 Z"/></g>
<g><path style="opacity:0.703" fill="#030503" d="M 303.5,191.5 C 308.131,190.822 310.131,192.822 309.5,197.5C 309.037,202.171 308.537,206.837 308,211.5C 306.753,217.734 305.253,223.901 303.5,230C 297.846,230.926 292.18,231.259 286.5,231C 283.754,229.671 281.421,227.837 279.5,225.5C 277.066,231.218 273.066,232.718 267.5,230C 266.065,225.57 266.398,221.237 268.5,217C 268.112,215.049 267.112,213.549 265.5,212.5C 264.255,218.458 262.588,224.292 260.5,230C 256.901,230.957 253.568,230.457 250.5,228.5C 247.392,230.773 244.058,231.107 240.5,229.5C 234.355,232.795 229.189,231.795 225,226.5C 223.159,205.346 232.492,197.679 253,203.5C 260.036,201.517 267.203,201.017 274.5,202C 276.977,203.643 279.31,205.476 281.5,207.5C 286.699,203.21 292.699,200.876 299.5,200.5C 300.213,198.224 300.713,195.891 301,193.5C 301.995,192.934 302.828,192.267 303.5,191.5 Z M 239.5,210.5 C 240.376,210.369 241.043,210.702 241.5,211.5C 240.103,213.982 239.269,216.648 239,219.5C 237.989,220.337 236.822,220.67 235.5,220.5C 235.222,216.406 236.556,213.072 239.5,210.5 Z M 293.5,210.5 C 295.359,210.461 296.692,211.294 297.5,213C 296.475,215.071 295.642,217.238 295,219.5C 292.144,222.435 290.311,221.935 289.5,218C 290.368,215.209 291.701,212.709 293.5,210.5 Z M 250.5,216.5 C 251.586,216.62 252.253,217.287 252.5,218.5C 252.247,220.956 251.247,222.956 249.5,224.5C 248.102,221.565 248.435,218.898 250.5,216.5 Z M 278.5,220.5 C 279.776,221.386 279.776,222.386 278.5,223.5C 277.913,222.767 277.913,221.767 278.5,220.5 Z"/></g>
<g><path style="opacity:0.682" fill="#030402" d="M 555.5,192.5 C 562.152,191.618 567.985,193.285 573,197.5C 573.667,200.167 574.333,202.833 575,205.5C 581.311,201.648 588.145,200.648 595.5,202.5C 596.672,202.919 597.672,203.585 598.5,204.5C 600.701,202.82 603.201,201.82 606,201.5C 610.414,201.689 614.914,201.855 619.5,202C 622.076,202.782 624.076,204.282 625.5,206.5C 629.604,203.631 634.104,201.631 639,200.5C 648.525,201.926 650.025,206.259 643.5,213.5C 648.489,224.527 644.989,230.527 633,231.5C 629.603,231.279 626.436,230.279 623.5,228.5C 614.55,233.524 611.216,231.024 613.5,221C 613.122,219.365 612.456,217.865 611.5,216.5C 610.833,216.833 610.167,217.167 609.5,217.5C 608.861,222.006 607.861,226.34 606.5,230.5C 602.426,232.452 598.926,231.785 596,228.5C 595.888,226.243 596.388,224.076 597.5,222C 597.562,219.035 596.395,218.202 594,219.5C 594.697,229.252 590.197,233.085 580.5,231C 577.751,229.877 575.251,228.377 573,226.5C 572.667,223.167 572.333,219.833 572,216.5C 569.676,214.504 567.509,215.004 565.5,218C 562.167,218.333 558.833,218.667 555.5,219C 554.82,222.96 553.82,226.793 552.5,230.5C 549.824,231.008 547.157,231.175 544.5,231C 543.106,230.044 542.439,228.711 542.5,227C 545.697,216.399 547.864,205.566 549,194.5C 551.277,193.883 553.444,193.216 555.5,192.5 Z M 558.5,201.5 C 561.753,202.817 562.587,204.817 561,207.5C 557.538,207.211 556.705,205.211 558.5,201.5 Z"/></g>
<g><path style="opacity:0.497" fill="#040302" d="M 417.5,256.5 C 420.119,256.232 422.619,256.565 425,257.5C 425.667,258.833 425.667,260.167 425,261.5C 421.976,265.301 420.976,269.634 422,274.5C 424,277.167 426,277.167 428,274.5C 428.667,273.167 429.333,271.833 430,270.5C 429.488,266.612 429.654,262.779 430.5,259C 436.167,258.333 441.833,258.333 447.5,259C 449.833,260.667 452.167,262.333 454.5,264C 465.823,265.811 477.156,265.811 488.5,264C 490.833,263 492.5,261.333 493.5,259C 494.333,258.833 495.167,258.667 496,258.5C 499.429,259.94 502.596,261.774 505.5,264C 509.055,265.02 512.555,265.187 516,264.5C 519.611,264.38 522.111,265.88 523.5,269C 522.029,272.403 520.362,275.737 518.5,279C 519.563,280.188 520.897,280.688 522.5,280.5C 522.651,286.015 519.984,289.015 514.5,289.5C 510.792,289.081 507.292,288.081 504,286.5C 503.727,284.899 503.227,283.399 502.5,282C 498.712,281.087 495.045,280.92 491.5,281.5C 489.519,281.563 487.852,280.896 486.5,279.5C 485.5,280 484.5,280.5 483.5,281C 475.507,281.5 467.507,281.666 459.5,281.5C 459.633,276.728 458.3,276.562 455.5,281C 453.527,281.495 451.527,281.662 449.5,281.5C 449.762,280.022 449.429,278.689 448.5,277.5C 440.496,282.021 432.163,282.688 423.5,279.5C 418.993,281.029 414.326,281.695 409.5,281.5C 399.974,281.077 390.308,281.077 380.5,281.5C 380.336,278.813 380.503,276.146 381,273.5C 383.19,271.612 385.023,269.445 386.5,267C 388.871,266.265 391.205,265.432 393.5,264.5C 400.776,264.456 408.109,264.623 415.5,265C 415.626,263.026 415.792,260.859 416,258.5C 416.717,257.956 417.217,257.289 417.5,256.5 Z M 438.5,263.5 C 440.842,263.504 442.842,264.337 444.5,266C 443.692,266.308 443.025,266.808 442.5,267.5C 443.921,270.428 442.921,271.762 439.5,271.5C 439.771,269.179 439.104,267.179 437.5,265.5C 437.863,264.817 438.196,264.15 438.5,263.5 Z"/></g>
<g><path style="opacity:0.496" fill="#040503" d="M 108.5,257.5 C 114.138,256.986 118.471,259.152 121.5,264C 127.133,264.177 132.633,265.01 138,266.5C 140.261,266.561 142.261,265.894 144,264.5C 144.333,264.833 144.667,265.167 145,265.5C 146.905,263.576 148.072,261.243 148.5,258.5C 151.784,257.343 155.118,257.176 158.5,258C 164.545,261.241 170.878,263.907 177.5,266C 178.167,267.333 178.833,268.667 179.5,270C 176.892,276.044 173.392,281.544 169,286.5C 166.341,287.935 163.508,288.935 160.5,289.5C 157.041,288.085 156.041,285.751 157.5,282.5C 155.865,281.319 154.198,281.319 152.5,282.5C 144.833,281.833 137.167,281.167 129.5,280.5C 127.629,281.767 125.796,281.767 124,280.5C 122.352,281.717 120.519,282.55 118.5,283C 119.156,285.33 118.156,286.997 115.5,288C 108.793,288.048 102.126,288.215 95.5,288.5C 89.2393,285.8 89.0727,282.8 95,279.5C 95.3333,279.833 95.6667,280.167 96,280.5C 94.0092,269.127 98.1759,261.461 108.5,257.5 Z M 111.5,267.5 C 111.382,271.788 109.215,274.455 105,275.5C 103.368,273.293 103.368,270.96 105,268.5C 107.043,264.854 109.877,263.521 113.5,264.5C 113.715,266.179 113.048,267.179 111.5,267.5 Z M 109.5,282.5 C 110.077,281.227 110.743,281.227 111.5,282.5C 111.03,283.463 110.363,283.463 109.5,282.5 Z"/></g>
<g><path style="opacity:0.511" fill="#050503" d="M 319.5,267.5 C 314.67,271.497 310.336,275.997 306.5,281C 305.667,281.167 304.833,281.333 304,281.5C 300.936,280.79 297.936,280.456 295,280.5C 294.919,275.83 294.086,271.33 292.5,267C 292.672,264.329 293.005,261.662 293.5,259C 303.833,258.333 314.167,258.333 324.5,259C 326.912,264.668 329.578,264.668 332.5,259C 336.295,258.021 339.628,258.854 342.5,261.5C 344.775,260.402 346.942,259.068 349,257.5C 350.399,258.227 351.899,258.727 353.5,259C 356.634,263.72 361.134,265.887 367,265.5C 370.336,264.623 373.67,264.956 377,266.5C 376.532,270.896 375.032,275.063 372.5,279C 377.718,283.285 377.051,286.618 370.5,289C 367.072,289.701 363.738,289.368 360.5,288C 359.278,285.058 357.445,282.558 355,280.5C 345.617,280.549 336.117,280.883 326.5,281.5C 326.181,277.7 325.181,277.534 323.5,281C 321.559,281.743 319.726,281.576 318,280.5C 318.576,277.657 318.409,274.823 317.5,272C 318.414,270.594 319.08,269.094 319.5,267.5 Z M 300.5,263.5 C 302.973,263.947 303.14,264.947 301,266.5C 300.517,265.552 300.351,264.552 300.5,263.5 Z M 319.5,267.5 C 319.846,265.637 320.846,264.804 322.5,265C 321.922,266.417 320.922,267.25 319.5,267.5 Z"/></g>
<g><path style="opacity:0.521" fill="#030201" d="M 530.5,257.5 C 533.487,257.998 536.487,258.498 539.5,259C 541.167,260.667 542.833,262.333 544.5,264C 547.682,264.407 550.849,264.907 554,265.5C 558.858,264.562 563.691,263.562 568.5,262.5C 573.416,263.272 578.25,264.272 583,265.5C 596.054,264.353 609.22,264.353 622.5,265.5C 628.595,264.892 634.595,263.892 640.5,262.5C 645.918,262.619 649.918,264.952 652.5,269.5C 650.08,271.953 648.914,274.953 649,278.5C 647.745,280.594 645.912,281.594 643.5,281.5C 637.036,281.524 630.702,281.191 624.5,280.5C 619.33,282.292 614.33,282.292 609.5,280.5C 605.966,281.131 602.466,281.798 599,282.5C 597.667,281.833 596.333,281.167 595,280.5C 585.731,281.479 576.398,281.479 567,280.5C 563.333,281.167 559.667,281.833 556,282.5C 545.91,281.679 535.744,281.179 525.5,281C 524.692,280.692 524.025,280.192 523.5,279.5C 525.149,277.35 526.982,275.35 529,273.5C 529.339,270.964 529.839,268.464 530.5,266C 526.529,263.025 526.529,260.191 530.5,257.5 Z"/></g>
<g><path style="opacity:0.502" fill="#070805" d="M 50.5,257.5 C 59.4775,258.336 68.4775,258.503 77.5,258C 77.3272,265.526 80.4939,267.692 87,264.5C 88.2613,264.759 89.2613,265.426 90,266.5C 90.3311,270.527 89.9977,274.527 89,278.5C 87.6667,280.833 85.6667,281.833 83,281.5C 72.5491,281.099 62.0491,280.932 51.5,281C 51.0426,280.586 50.7093,280.086 50.5,279.5C 53.8408,275.87 55.3408,271.536 55,266.5C 56.9675,265.269 56.8008,264.269 54.5,263.5C 49.2867,267.817 47.4534,266.484 49,259.5C 49.7172,258.956 50.2172,258.289 50.5,257.5 Z M 62.5,263.5 C 63.4959,263.414 64.3292,263.748 65,264.5C 66.6893,266.76 67.856,269.26 68.5,272C 67.1971,275.044 64.8638,276.211 61.5,275.5C 60.7214,271.473 61.0547,267.473 62.5,263.5 Z"/></g>
<g><path style="opacity:0.464" fill="#030402" d="M 184.5,258.5 C 189.041,258.052 193.374,258.719 197.5,260.5C 201.964,258.698 206.63,258.032 211.5,258.5C 211.665,260.827 212.331,262.993 213.5,265C 216.758,265.212 219.924,265.712 223,266.5C 224.441,265.74 225.941,265.074 227.5,264.5C 231.47,264.703 235.47,264.703 239.5,264.5C 242.211,266.538 244.711,266.538 247,264.5C 252.725,267.233 253.559,270.9 249.5,275.5C 250.874,277.967 250.207,279.801 247.5,281C 246.333,281.167 245.167,281.333 244,281.5C 234.593,281.321 225.26,281.321 216,281.5C 213.167,281.333 210.333,281.167 207.5,281C 207,280.5 206.5,280 206,279.5C 204.507,281.56 202.674,281.893 200.5,280.5C 198.527,277.36 196.36,274.36 194,271.5C 193.13,272.108 192.63,272.941 192.5,274C 193.719,276.384 193.719,278.717 192.5,281C 189.167,281.667 185.833,281.667 182.5,281C 182.077,278.624 182.911,276.457 185,274.5C 185.296,271.294 185.796,268.128 186.5,265C 185.491,263.832 184.491,262.665 183.5,261.5C 184.127,260.583 184.461,259.583 184.5,258.5 Z"/></g>
<g><path style="opacity:0.494" fill="#040402" d="M 266.5,257.5 C 268.308,257.491 269.975,257.991 271.5,259C 272.585,261.172 273.919,263.172 275.5,265C 279.839,264.318 284.172,264.485 288.5,265.5C 291.191,267.998 290.858,270.165 287.5,272C 285.975,273.009 284.308,273.509 282.5,273.5C 282.202,276.265 281.202,278.765 279.5,281C 275.647,280.497 271.813,280.663 268,281.5C 265.966,281.646 264.299,280.98 263,279.5C 261.561,282.603 259.727,285.436 257.5,288C 253.56,291.688 250.56,291.021 248.5,286C 255.983,281.558 258.816,275.058 257,266.5C 260.036,263.296 263.203,260.296 266.5,257.5 Z"/></g>
</svg>
