<?xml version="1.0" encoding="UTF-8"?>
<!DOCTYPE svg PUBLIC "-//W3C//DTD SVG 1.1//EN" "http://www.w3.org/Graphics/SVG/1.1/DTD/svg11.dtd">
<svg xmlns="http://www.w3.org/2000/svg" version="1.1" width="840px" height="203px" style="shape-rendering:geometricPrecision; text-rendering:geometricPrecision; image-rendering:optimizeQuality; fill-rule:evenodd; clip-rule:evenodd" xmlns:xlink="http://www.w3.org/1999/xlink">
<g><path style="opacity:1" fill="#b92b31" d="M 89.5,39.5 C 102.854,38.8345 115.521,41.1678 127.5,46.5C 123.308,46.8176 119.475,45.8176 116,43.5C 114.602,44.0509 113.268,44.3842 112,44.5C 107.78,43.3729 103.447,42.7062 99,42.5C 91.8409,43.1037 84.6743,43.6037 77.5,44C 69.9463,47.0431 62.2796,49.8764 54.5,52.5C 64.7122,44.5734 76.3789,40.24 89.5,39.5 Z"/></g>
<g><path style="opacity:0.259" fill="#a03c40" d="M 89.5,39.5 C 107.867,37.1795 124.867,41.1795 140.5,51.5C 139.368,52.3543 138.035,52.3543 136.5,51.5C 134.001,49.0805 131.001,47.4139 127.5,46.5C 115.521,41.1678 102.854,38.8345 89.5,39.5 Z"/></g>
<g><path style="opacity:1" fill="#b12d32" d="M 136.5,51.5 C 138.035,52.3543 139.368,52.3543 140.5,51.5C 154.561,60.9014 164.561,73.568 170.5,89.5C 168.9,88.748 167.4,87.748 166,86.5C 165.16,82.9367 163.826,79.6034 162,76.5C 160.644,75.6198 159.144,75.2865 157.5,75.5C 157.66,73.8008 157.494,72.1341 157,70.5C 153.975,66.6557 150.808,62.989 147.5,59.5C 144.536,57.8791 142.536,58.7124 141.5,62C 151.541,68.9013 157.874,78.4013 160.5,90.5C 141.077,55.0673 111.744,42.9006 72.5,54C 62.429,58.6944 53.429,64.8611 45.5,72.5C 48.1052,68.5565 51.1052,64.8898 54.5,61.5C 54.2907,60.914 53.9574,60.414 53.5,60C 55.1667,59.6667 56.8333,59.3333 58.5,59C 61.5004,56.3803 64.8338,54.2136 68.5,52.5C 83.1964,48.164 98.1964,46.664 113.5,48C 121.986,52.1117 130.653,55.9451 139.5,59.5C 141.767,58.6378 142.767,56.9711 142.5,54.5C 139.687,54.9754 137.687,53.9754 136.5,51.5 Z"/></g>
<g><path style="opacity:0.928" fill="#000000" d="M 249.5,64.5 C 265.439,64.0919 279.772,68.5919 292.5,78C 290.18,81.4847 287.513,84.6513 284.5,87.5C 278.858,83.5952 272.692,80.9285 266,79.5C 255.966,81.798 254.799,86.6313 262.5,94C 274.339,100.007 284.839,107.84 294,117.5C 301.752,137.529 296.252,153.029 277.5,164C 260.923,171.285 244.923,169.952 229.5,160C 225.775,157.277 222.775,153.944 220.5,150C 221.942,146.225 224.442,143.392 228,141.5C 232.244,144.744 236.744,147.578 241.5,150C 253.711,153.139 256.877,149.305 251,138.5C 244.956,132.561 238.123,127.727 230.5,124C 212.192,106.323 212.859,88.9898 232.5,72C 237.777,68.3557 243.444,65.8557 249.5,64.5 Z"/></g>
<g><path style="opacity:0.928" fill="#000000" d="M 763.5,66.5 C 793.726,66.0152 812.56,80.3486 820,109.5C 822.216,139.631 808.883,159.297 780,168.5C 747.386,171.628 727.053,156.962 719,124.5C 718.193,93.0958 733.026,73.7625 763.5,66.5 Z M 778.5,86.5 C 787.484,86.653 791.984,91.3196 792,100.5C 783.338,115.13 774.671,129.797 766,144.5C 759.708,150.048 753.708,149.715 748,143.5C 746.627,141.305 746.294,138.971 747,136.5C 756.253,120.996 765.253,105.33 774,89.5C 775.409,88.2189 776.909,87.2189 778.5,86.5 Z"/></g>
<g><path style="opacity:0.923" fill="#000000" d="M 319.5,68.5 C 336.171,69.5004 352.837,69.5004 369.5,68.5C 374.235,68.4694 378.901,68.9694 383.5,70C 385.786,75.9055 387.786,81.9055 389.5,88C 389.167,88.3333 388.833,88.6667 388.5,89C 379.84,89.4998 371.173,89.6664 362.5,89.5C 360.871,115.244 358.704,140.91 356,166.5C 345.573,167.238 335.073,167.238 324.5,166.5C 322.452,140.936 320.119,115.269 317.5,89.5C 309.66,89.964 301.993,89.464 294.5,88C 295.873,82.2026 297.206,76.3693 298.5,70.5C 305.655,69.8333 312.655,69.1666 319.5,68.5 Z"/></g>
<g><path style="opacity:0.922" fill="#000000" d="M 415.5,68.5 C 427.961,69.0154 440.294,69.5154 452.5,70C 453.191,71.0674 453.691,72.2341 454,73.5C 462.281,104.416 470.781,134.916 479.5,165C 479.355,165.772 479.022,166.439 478.5,167C 469.287,167.196 460.12,167.363 451,167.5C 449.739,167.241 448.739,166.574 448,165.5C 445.928,162.029 444.428,158.362 443.5,154.5C 427.759,154.142 412.092,153.809 396.5,153.5C 395.5,153.833 394.5,154.167 393.5,154.5C 392.361,158.898 390.695,163.064 388.5,167C 381.784,167.375 375.118,166.875 368.5,165.5C 380.197,133.578 392.197,101.745 404.5,70C 408.356,69.8227 412.023,69.3227 415.5,68.5 Z M 416.5,94.5 C 422.004,106.315 427.337,118.315 432.5,130.5C 432.291,131.086 431.957,131.586 431.5,132C 421.839,132.5 412.172,132.666 402.5,132.5C 407.704,120.081 412.371,107.414 416.5,94.5 Z"/></g>
<g><path style="opacity:0.933" fill="#000000" d="M 498.5,68.5 C 519.06,69.7816 539.56,69.7816 560,68.5C 570.61,68.8013 578.61,73.468 584,82.5C 587.262,98.138 581.429,108.971 566.5,115C 565.978,115.561 565.645,116.228 565.5,117C 570.903,120.395 575.736,124.562 580,129.5C 584.73,140.518 582.897,150.518 574.5,159.5C 569.737,162.548 564.737,165.048 559.5,167C 537.158,166.734 514.825,166.568 492.5,166.5C 489.358,134.222 487.024,101.888 485.5,69.5C 490.032,69.8182 494.366,69.4849 498.5,68.5 Z M 527.5,82.5 C 534.651,81.6062 540.818,83.6062 546,88.5C 549.443,94.9057 548.61,100.739 543.5,106C 538.594,108.978 533.428,110.145 528,109.5C 527.9,100.576 527.733,91.5762 527.5,82.5 Z M 525.5,124.5 C 541.35,124.482 546.85,131.815 542,146.5C 537.692,150.603 532.692,152.27 527,151.5C 526.035,142.523 525.535,133.523 525.5,124.5 Z"/></g>
<g><path style="opacity:0.925" fill="#000000" d="M 599.5,68.5 C 613.942,68.9456 628.442,69.2789 643,69.5C 642.864,79.2221 642.031,88.8887 640.5,98.5C 640.931,99.2935 641.265,100.127 641.5,101C 641.083,106.973 640.083,112.807 638.5,118.5C 639.063,119.939 639.397,121.439 639.5,123C 638.693,134.245 637.36,145.412 635.5,156.5C 636.789,160.142 636.455,163.642 634.5,167C 625.453,166.96 616.453,167.126 607.5,167.5C 606.522,167.023 605.689,166.357 605,165.5C 602.429,136.123 599.929,106.456 597.5,76.5C 597.621,73.5589 598.287,70.8922 599.5,68.5 Z"/></g>
<g><path style="opacity:0.924" fill="#000000" d="M 658.5,68.5 C 673.606,68.2815 688.606,68.6148 703.5,69.5C 703.349,85.9546 702.015,102.288 699.5,118.5C 699.987,119.446 700.32,120.446 700.5,121.5C 699.019,127.266 698.019,133.099 697.5,139C 698.26,140.441 698.926,141.941 699.5,143.5C 706.723,144.183 713.89,144.849 721,145.5C 721.045,149.415 721.212,153.249 721.5,157C 720.907,160.151 720.407,163.318 720,166.5C 704.396,166.641 688.73,166.975 673,167.5C 670.576,167.47 668.243,167.137 666,166.5C 663.011,135.689 660.178,104.856 657.5,74C 657.581,72.0762 657.914,70.2429 658.5,68.5 Z"/></g>
<g><path style="opacity:1" fill="#b23539" d="M 54.5,52.5 C 51.1919,55.6352 47.6919,58.6352 44,61.5C 42.726,64.1593 41.226,66.6593 39.5,69C 38.552,69.4828 37.552,69.6495 36.5,69.5C 36.2155,72.2538 35.5488,74.9205 34.5,77.5C 31.6921,81.0792 28.8588,84.7458 26,88.5C 26.3435,94.7959 24.6769,100.463 21,105.5C 20.6667,110.833 20.3333,116.167 20,121.5C 19.6174,122.056 19.1174,122.389 18.5,122.5C 17.9178,94.8397 28.2512,72.3397 49.5,55C 51.0779,53.9055 52.7446,53.0722 54.5,52.5 Z"/></g>
<g><path style="opacity:0.843" fill="#a33842" d="M 64.5,79.5 C 66.1667,79.5 67.8333,79.5 69.5,79.5C 69.7135,81.1439 69.3802,82.6439 68.5,84C 66.1902,84.4966 63.8568,84.6633 61.5,84.5C 61.31,82.0411 62.31,80.3745 64.5,79.5 Z"/></g>
<g><path style="opacity:1" fill="#c0262b" d="M 84.5,74.5 C 85.3733,76.8863 86.8733,78.8863 89,80.5C 90.0979,87.3846 89.4313,94.0513 87,100.5C 86.3109,101.357 85.4776,102.023 84.5,102.5C 83.9891,97.874 83.8225,93.2074 84,88.5C 80.9884,85.8264 79.3217,82.4931 79,78.5C 77.3005,77.5939 75.4672,77.2606 73.5,77.5C 73.6287,75.7839 73.962,74.1172 74.5,72.5C 78.1778,71.0039 81.5111,71.6706 84.5,74.5 Z"/></g>
<g><path style="opacity:0.243" fill="#a73a43" d="M 40.5,80.5 C 35.9407,87.1739 32.9407,94.5072 31.5,102.5C 30.6598,93.6495 33.6598,86.3161 40.5,80.5 Z"/></g>
<g><path style="opacity:0.4" fill="#a6373b" d="M 160.5,90.5 C 162.481,93.1284 163.981,96.1284 165,99.5C 166.279,109.474 166.613,119.474 166,129.5C 165.617,130.056 165.117,130.389 164.5,130.5C 166.13,116.873 164.797,103.54 160.5,90.5 Z"/></g>
<g><path style="opacity:0.784" fill="#a12b31" d="M 133.5,119.5 C 132.356,114.967 131.689,110.301 131.5,105.5C 124.508,106.2 117.508,105.867 110.5,104.5C 106.89,105.444 105.223,107.777 105.5,111.5C 102.015,112.59 98.6812,112.59 95.5,111.5C 97.5914,111.682 99.5914,111.348 101.5,110.5C 103.311,107.522 105.644,105.022 108.5,103C 111.025,102.104 113.192,102.604 115,104.5C 116.574,103.152 118.407,102.486 120.5,102.5C 124.825,103.397 129.159,103.564 133.5,103C 134.615,105.101 134.615,107.267 133.5,109.5C 133.97,111.774 134.97,113.774 136.5,115.5C 135.965,117.261 134.965,118.594 133.5,119.5 Z"/></g>
<g><path style="opacity:1" fill="#c82229" d="M 133.5,119.5 C 131.748,119.418 130.748,120.251 130.5,122C 131.079,123.914 132.079,125.581 133.5,127C 132.571,129.909 130.571,131.075 127.5,130.5C 127.5,132.167 127.5,133.833 127.5,135.5C 123.19,136.902 122.523,139.402 125.5,143C 129.901,143.356 134.234,142.856 138.5,141.5C 139.167,141.833 139.833,142.167 140.5,142.5C 136.512,145.043 135.179,148.377 136.5,152.5C 136.5,153.167 136.167,153.5 135.5,153.5C 109.36,154.14 83.3599,154.807 57.5,155.5C 55.7376,154.738 54.7376,153.404 54.5,151.5C 54.334,146.156 54.5006,140.823 55,135.5C 55.3333,135.833 55.6667,136.167 56,136.5C 57.4126,133.636 58.9126,130.97 60.5,128.5C 61.5,128.5 62.5,128.5 63.5,128.5C 64.3134,125.342 65.9801,122.676 68.5,120.5C 68.8333,121.667 69.1667,122.833 69.5,124C 68.1181,127.116 67.4515,130.45 67.5,134C 67.7069,137.577 68.7069,140.744 70.5,143.5C 73.4554,141.614 76.7887,140.614 80.5,140.5C 82.3179,129.695 86.9845,120.362 94.5,112.5C 94.5,111.833 94.8333,111.5 95.5,111.5C 98.6812,112.59 102.015,112.59 105.5,111.5C 105.223,107.777 106.89,105.444 110.5,104.5C 117.508,105.867 124.508,106.2 131.5,105.5C 131.689,110.301 132.356,114.967 133.5,119.5 Z"/></g>
<g><path style="opacity:1" fill="#c4242a" d="M 127.5,46.5 C 131.001,47.4139 134.001,49.0805 136.5,51.5C 137.687,53.9754 139.687,54.9754 142.5,54.5C 142.767,56.9711 141.767,58.6378 139.5,59.5C 130.653,55.9451 121.986,52.1117 113.5,48C 98.1964,46.664 83.1964,48.164 68.5,52.5C 64.8338,54.2136 61.5004,56.3803 58.5,59C 56.8333,59.3333 55.1667,59.6667 53.5,60C 53.9574,60.414 54.2907,60.914 54.5,61.5C 51.1052,64.8898 48.1052,68.5565 45.5,72.5C 43.86,75.1492 42.1933,77.8159 40.5,80.5C 33.6598,86.3161 30.6598,93.6495 31.5,102.5C 31.1667,103.167 30.8333,103.833 30.5,104.5C 29.7784,104.918 29.2784,105.584 29,106.5C 28.3333,114.833 28.3333,123.167 29,131.5C 30.689,137.178 32.3557,142.844 34,148.5C 35.419,150.336 36.5857,152.336 37.5,154.5C 38.7658,155.362 40.0992,156.029 41.5,156.5C 42.7452,159.009 43.7452,161.675 44.5,164.5C 49.1139,166.116 52.4473,169.116 54.5,173.5C 52.4476,173.705 50.1143,173.705 47.5,173.5C 47.5,172.5 47.5,171.5 47.5,170.5C 45.1667,170.5 42.8333,170.5 40.5,170.5C 38.3267,165.119 35.1601,160.452 31,156.5C 28.8183,150.958 26.8183,145.291 25,139.5C 23.9609,138.29 22.7942,137.29 21.5,136.5C 20.1787,131.989 19.1787,127.322 18.5,122.5C 19.1174,122.389 19.6174,122.056 20,121.5C 20.3333,116.167 20.6667,110.833 21,105.5C 24.6769,100.463 26.3435,94.7959 26,88.5C 28.8588,84.7458 31.6921,81.0792 34.5,77.5C 35.5488,74.9205 36.2155,72.2538 36.5,69.5C 37.552,69.6495 38.552,69.4828 39.5,69C 41.226,66.6593 42.726,64.1593 44,61.5C 47.6919,58.6352 51.1919,55.6352 54.5,52.5C 62.2796,49.8764 69.9463,47.0431 77.5,44C 84.6743,43.6037 91.8409,43.1037 99,42.5C 103.447,42.7062 107.78,43.3729 112,44.5C 113.268,44.3842 114.602,44.0509 116,43.5C 119.475,45.8176 123.308,46.8176 127.5,46.5 Z"/></g>
<g><path style="opacity:0.886" fill="#aa3438" d="M 30.5,104.5 C 27.8484,123.22 31.5151,140.553 41.5,156.5C 40.0992,156.029 38.7658,155.362 37.5,154.5C 36.5857,152.336 35.419,150.336 34,148.5C 32.3557,142.844 30.689,137.178 29,131.5C 28.3333,123.167 28.3333,114.833 29,106.5C 29.2784,105.584 29.7784,104.918 30.5,104.5 Z"/></g>
<g><path style="opacity:0.961" fill="#a72d31" d="M 171.5,90.5 C 181.748,124.073 174.081,152.74 148.5,176.5C 148.892,174.821 149.392,173.154 150,171.5C 153.442,169.287 156.442,166.621 159,163.5C 161.006,160.464 161.84,157.131 161.5,153.5C 164.375,152.795 166.542,151.129 168,148.5C 174.232,130.449 175.066,112.116 170.5,93.5C 170.52,92.2739 170.853,91.2739 171.5,90.5 Z"/></g>
<g><path style="opacity:1" fill="#a02d2e" d="M 133.5,119.5 C 131.814,122.537 132.814,123.87 136.5,123.5C 135.116,128.572 132.116,132.572 127.5,135.5C 127.5,133.833 127.5,132.167 127.5,130.5C 130.571,131.075 132.571,129.909 133.5,127C 132.079,125.581 131.079,123.914 130.5,122C 130.748,120.251 131.748,119.418 133.5,119.5 Z"/></g>
<g><path style="opacity:0.961" fill="#a22930" d="M 127.5,135.5 C 126.847,136.807 126.18,138.14 125.5,139.5C 126,140.881 127,141.547 128.5,141.5C 134.281,140.211 139.948,138.544 145.5,136.5C 147.101,137.035 147.601,138.035 147,139.5C 142.532,143.132 139.032,147.466 136.5,152.5C 135.179,148.377 136.512,145.043 140.5,142.5C 139.833,142.167 139.167,141.833 138.5,141.5C 134.234,142.856 129.901,143.356 125.5,143C 122.523,139.402 123.19,136.902 127.5,135.5 Z"/></g>
<g><path style="opacity:1" fill="#ae2c31" d="M 74.5,72.5 C 73.962,74.1172 73.6287,75.7839 73.5,77.5C 75.4672,77.2606 77.3005,77.5939 79,78.5C 79.3217,82.4931 80.9884,85.8264 84,88.5C 83.8225,93.2074 83.9891,97.874 84.5,102.5C 85.4776,102.023 86.3109,101.357 87,100.5C 89.4313,94.0513 90.0979,87.3846 89,80.5C 86.8733,78.8863 85.3733,76.8863 84.5,74.5C 87.1676,76.3355 89.3343,78.6688 91,81.5C 91.6612,86.5576 91.3279,91.5576 90,96.5C 84.2611,108.313 77.2611,119.313 69,129.5C 67.5405,133.819 68.8738,136.819 73,138.5C 74.2247,138.138 75.3914,137.638 76.5,137C 80.6327,131.239 84.1327,125.073 87,118.5C 89.0657,115.893 91.5657,113.893 94.5,112.5C 86.9845,120.362 82.3179,129.695 80.5,140.5C 76.7887,140.614 73.4554,141.614 70.5,143.5C 68.7069,140.744 67.7069,137.577 67.5,134C 67.4515,130.45 68.1181,127.116 69.5,124C 69.1667,122.833 68.8333,121.667 68.5,120.5C 65.9801,122.676 64.3134,125.342 63.5,128.5C 62.5,128.5 61.5,128.5 60.5,128.5C 58.9126,130.97 57.4126,133.636 56,136.5C 55.6667,136.167 55.3333,135.833 55,135.5C 54.5006,140.823 54.334,146.156 54.5,151.5C 52.1403,149.089 51.1403,146.089 51.5,142.5C 51.2952,139.205 52.1285,136.205 54,133.5C 65.5951,123.241 74.9284,111.241 82,97.5C 84.2265,88.5587 80.7265,84.2254 71.5,84.5C 71.9613,81.6799 71.9613,79.0133 71.5,76.5C 71.7538,74.5828 72.7538,73.2495 74.5,72.5 Z"/></g>
<g><path style="opacity:0.098" fill="#8f2831" d="M 135.5,153.5 C 135.389,154.117 135.056,154.617 134.5,155C 108.835,155.5 83.1688,155.667 57.5,155.5C 83.3599,154.807 109.36,154.14 135.5,153.5 Z"/></g>
<g><path style="opacity:0.98" fill="#a92c31" d="M 21.5,136.5 C 22.7942,137.29 23.9609,138.29 25,139.5C 26.8183,145.291 28.8183,150.958 31,156.5C 35.1601,160.452 38.3267,165.119 40.5,170.5C 31.0673,160.975 24.734,149.641 21.5,136.5 Z"/></g>
<g><path style="opacity:1" fill="#b12b30" d="M 41.5,156.5 C 64.8342,184.334 93.5009,191.5 127.5,178C 137.047,172.572 145.38,165.738 152.5,157.5C 151.25,160.067 150.083,162.733 149,165.5C 142.782,168.549 137.615,172.882 133.5,178.5C 118.434,186.337 102.434,188.671 85.5,185.5C 79.7909,183.653 73.9575,182.32 68,181.5C 65.306,180.162 62.6393,178.828 60,177.5C 58.6988,178.098 57.8655,179.098 57.5,180.5C 59.2779,181.726 60.2779,183.393 60.5,185.5C 52.6966,182.032 46.03,177.032 40.5,170.5C 42.8333,170.5 45.1667,170.5 47.5,170.5C 47.5,171.5 47.5,172.5 47.5,173.5C 50.1143,173.705 52.4476,173.705 54.5,173.5C 52.4473,169.116 49.1139,166.116 44.5,164.5C 43.7452,161.675 42.7452,159.009 41.5,156.5 Z"/></g>
<g><path style="opacity:1" fill="#c3242a" d="M 170.5,89.5 C 171.167,89.5 171.5,89.8333 171.5,90.5C 170.853,91.2739 170.52,92.2739 170.5,93.5C 175.066,112.116 174.232,130.449 168,148.5C 166.542,151.129 164.375,152.795 161.5,153.5C 161.84,157.131 161.006,160.464 159,163.5C 156.442,166.621 153.442,169.287 150,171.5C 149.392,173.154 148.892,174.821 148.5,176.5C 141.231,182.97 132.898,187.637 123.5,190.5C 114.487,192.719 105.32,194.052 96,194.5C 83.5951,193.414 71.7618,190.414 60.5,185.5C 60.2779,183.393 59.2779,181.726 57.5,180.5C 57.8655,179.098 58.6988,178.098 60,177.5C 62.6393,178.828 65.306,180.162 68,181.5C 73.9575,182.32 79.7909,183.653 85.5,185.5C 102.434,188.671 118.434,186.337 133.5,178.5C 137.615,172.882 142.782,168.549 149,165.5C 150.083,162.733 151.25,160.067 152.5,157.5C 157.676,148.951 161.676,139.951 164.5,130.5C 165.117,130.389 165.617,130.056 166,129.5C 166.613,119.474 166.279,109.474 165,99.5C 163.981,96.1284 162.481,93.1284 160.5,90.5C 157.874,78.4013 151.541,68.9013 141.5,62C 142.536,58.7124 144.536,57.8791 147.5,59.5C 150.808,62.989 153.975,66.6557 157,70.5C 157.494,72.1341 157.66,73.8008 157.5,75.5C 159.144,75.2865 160.644,75.6198 162,76.5C 163.826,79.6034 165.16,82.9367 166,86.5C 167.4,87.748 168.9,88.748 170.5,89.5 Z"/></g>
<g><path style="opacity:0.063" fill="#962932" d="M 60.5,185.5 C 71.7618,190.414 83.5951,193.414 96,194.5C 105.32,194.052 114.487,192.719 123.5,190.5C 103.342,197.66 83.3416,196.827 63.5,188C 62.4293,187.148 61.4293,186.315 60.5,185.5 Z"/></g>
</svg>
