<?xml version="1.0" encoding="UTF-8"?>
<!DOCTYPE svg PUBLIC "-//W3C//DTD SVG 1.1//EN" "http://www.w3.org/Graphics/SVG/1.1/DTD/svg11.dtd">
<svg xmlns="http://www.w3.org/2000/svg" version="1.1" width="1102px" height="226px" style="shape-rendering:geometricPrecision; text-rendering:geometricPrecision; image-rendering:optimizeQuality; fill-rule:evenodd; clip-rule:evenodd" xmlns:xlink="http://www.w3.org/1999/xlink">
<g><path style="opacity:1" fill="#f7cd5f" d="M 955.5,74.5 C 955.5,75.1667 955.167,75.5 954.5,75.5C 954.5,67.8333 954.5,60.1667 954.5,52.5C 954.5,50.1667 954.5,47.8333 954.5,45.5C 953.5,45.5 952.5,45.5 951.5,45.5C 951.5,44.5 951.5,43.5 951.5,42.5C 950.178,42.33 949.011,42.6634 948,43.5C 948.218,39.3617 946.552,38.0284 943,39.5C 942.311,38.6433 941.478,37.9767 940.5,37.5C 937.01,40.4113 933.344,43.078 929.5,45.5C 928.52,48.0865 928.187,50.7531 928.5,53.5C 928.5,57.1667 928.5,60.8333 928.5,64.5C 928.737,65.791 928.404,66.791 927.5,67.5C 927.672,66.5084 927.338,65.8417 926.5,65.5C 926.334,57.4931 926.5,49.4931 927,41.5C 930.756,31.7998 937.59,28.6331 947.5,32C 951.058,33.8917 953.558,36.7251 955,40.5C 955.5,51.8284 955.667,63.1618 955.5,74.5 Z"/></g>
<g><path style="opacity:0.996" fill="#fccc4b" d="M 954.5,52.5 C 952.271,51.9447 950.605,50.6114 949.5,48.5C 948.481,49.6872 947.314,50.6872 946,51.5C 941.587,50.3676 937.087,50.2009 932.5,51C 931.016,51.6622 929.683,52.4955 928.5,53.5C 928.187,50.7531 928.52,48.0865 929.5,45.5C 933.344,43.078 937.01,40.4113 940.5,37.5C 941.478,37.9767 942.311,38.6433 943,39.5C 946.552,38.0284 948.218,39.3617 948,43.5C 949.011,42.6634 950.178,42.33 951.5,42.5C 951.5,43.5 951.5,44.5 951.5,45.5C 952.5,45.5 953.5,45.5 954.5,45.5C 954.5,47.8333 954.5,50.1667 954.5,52.5 Z"/></g>
<g><path style="opacity:0.995" fill="#1f1f1f" d="M 97.5,45.5 C 111.171,45.3334 124.837,45.5001 138.5,46C 161.667,83.1667 184.833,120.333 208,157.5C 230.805,120.045 253.972,82.8785 277.5,46C 290.581,45.9244 303.581,45.7578 316.5,45.5C 316.628,47.6547 316.128,49.6547 315,51.5C 287,96.1667 259,140.833 231,185.5C 222.05,196.813 210.55,200.313 196.5,196C 191.822,194.324 187.989,191.491 185,187.5C 155.041,140.568 125.875,93.2351 97.5,45.5 Z"/></g>
<g><path style="opacity:0.962" fill="#202020" d="M 325.5,45.5 C 336.856,45.3677 348.022,45.7011 359,46.5C 359.5,96.8322 359.667,147.166 359.5,197.5C 347.833,197.5 336.167,197.5 324.5,197.5C 324.172,146.762 324.505,96.0949 325.5,45.5 Z"/></g>
<g><path style="opacity:0.971" fill="#1f1f1f" d="M 411.5,45.5 C 451.501,45.3333 491.501,45.5 531.5,46C 533.46,55.9069 534.127,66.0736 533.5,76.5C 493.499,76.3333 453.499,76.5 413.5,77C 409,77.5 406.5,80 406,84.5C 404.968,91.0106 405.468,97.344 407.5,103.5C 408.665,104.584 409.998,105.417 411.5,106C 438.833,106.333 466.167,106.667 493.5,107C 507.502,106.26 519.002,111.094 528,121.5C 532.357,131.34 534.191,141.673 533.5,152.5C 536.903,178.938 525.57,193.772 499.5,197C 457.501,197.5 415.501,197.667 373.5,197.5C 373.5,187.5 373.5,177.5 373.5,167.5C 412.168,167.667 450.835,167.5 489.5,167C 495.307,167.356 499.14,164.856 501,159.5C 501.87,153.083 501.536,146.749 500,140.5C 498.786,138.951 497.286,137.785 495.5,137C 465.215,135.698 434.881,135.031 404.5,135C 387.004,133.832 376.837,124.666 374,107.5C 373.333,97.5 373.333,87.5 374,77.5C 375.339,63.9682 382.173,54.4682 394.5,49C 400.265,47.6145 405.931,46.4478 411.5,45.5 Z"/></g>
<g><path style="opacity:0.974" fill="#202020" d="M 547.5,45.5 C 558.748,45.1793 569.915,45.5126 581,46.5C 581.5,96.8322 581.667,147.166 581.5,197.5C 569.833,197.5 558.167,197.5 546.5,197.5C 546.172,146.762 546.505,96.0949 547.5,45.5 Z"/></g>
<g><path style="opacity:0.978" fill="#202020" d="M 651.5,45.5 C 677.189,45.1357 702.855,45.6357 728.5,47C 754.526,48.6924 768.026,62.5257 769,88.5C 769.667,110.833 769.667,133.167 769,155.5C 766.94,182.224 752.44,196.058 725.5,197C 697.167,197.667 668.833,197.667 640.5,197C 613.619,195.452 599.452,181.286 598,154.5C 597.333,132.833 597.333,111.167 598,89.5C 597.933,73.9507 604.1,61.784 616.5,53C 627.882,48.5533 639.549,46.0533 651.5,45.5 Z M 647.5,76.5 C 671.502,76.3334 695.502,76.5 719.5,77C 729.396,78.7382 734.396,84.7382 734.5,95C 734.139,103.793 734.139,112.793 734.5,122C 734.562,133.199 734.062,144.366 733,155.5C 731.354,163.251 726.521,167.084 718.5,167C 695.167,167.667 671.833,167.667 648.5,167C 638.209,166.374 633.042,160.874 633,150.5C 632.084,129.467 632.417,108.467 634,87.5C 636.144,80.8557 640.644,77.189 647.5,76.5 Z"/></g>
<g><path style="opacity:0.993" fill="#1f1f20" d="M 802.5,45.5 C 809.288,45.5951 815.288,47.7618 820.5,52C 865.015,94.6826 909.682,137.183 954.5,179.5C 957.52,188.959 954.187,194.793 944.5,197C 937.491,198.195 930.825,197.195 924.5,194C 888.673,161.172 853.173,128.005 818,94.5C 817.5,128.832 817.333,163.165 817.5,197.5C 806.918,197.82 796.418,197.487 786,196.5C 785.333,150.167 785.333,103.833 786,57.5C 788.782,49.6979 794.282,45.6979 802.5,45.5 Z"/></g>
<g><path style="opacity:1" fill="#f8c63a" d="M 954.5,52.5 C 954.5,60.1667 954.5,67.8333 954.5,75.5C 954.702,77.9496 954.369,80.283 953.5,82.5C 952.094,82.9731 951.427,83.9731 951.5,85.5C 951.167,85.5 950.833,85.5 950.5,85.5C 951.622,79.6947 952.622,73.8614 953.5,68C 952.484,64.8695 950.984,62.0362 949,59.5C 947.812,60.5634 947.312,61.8967 947.5,63.5C 945.61,63.2965 944.11,63.9632 943,65.5C 941.174,63.9262 939.007,63.0929 936.5,63C 939.937,62.3507 940.104,61.8507 937,61.5C 934.473,61.6696 933.973,62.6696 935.5,64.5C 933.141,65.7143 930.808,65.7143 928.5,64.5C 928.5,60.8333 928.5,57.1667 928.5,53.5C 929.683,52.4955 931.016,51.6622 932.5,51C 937.087,50.2009 941.587,50.3676 946,51.5C 947.314,50.6872 948.481,49.6872 949.5,48.5C 950.605,50.6114 952.271,51.9447 954.5,52.5 Z"/></g>
<g><path style="opacity:1" fill="#f8c024" d="M 950.5,85.5 C 949.833,85.5 949.5,85.8333 949.5,86.5C 946.833,86.8333 944.167,87.1667 941.5,87.5C 941.662,85.4727 941.495,83.4727 941,81.5C 938.522,79.3606 936.022,77.3606 933.5,75.5C 931.735,74.5386 929.735,74.2053 927.5,74.5C 927.5,72.1667 927.5,69.8333 927.5,67.5C 928.404,66.791 928.737,65.791 928.5,64.5C 930.808,65.7143 933.141,65.7143 935.5,64.5C 933.973,62.6696 934.473,61.6696 937,61.5C 940.104,61.8507 939.937,62.3507 936.5,63C 939.007,63.0929 941.174,63.9262 943,65.5C 944.11,63.9632 945.61,63.2965 947.5,63.5C 947.312,61.8967 947.812,60.5634 949,59.5C 950.984,62.0362 952.484,64.8695 953.5,68C 952.622,73.8614 951.622,79.6947 950.5,85.5 Z"/></g>
<g><path style="opacity:1" fill="#c1c241" d="M 926.5,65.5 C 927.338,65.8417 927.672,66.5084 927.5,67.5C 927.5,69.8333 927.5,72.1667 927.5,74.5C 929.735,74.2053 931.735,74.5386 933.5,75.5C 930.941,75.8016 928.607,75.4682 926.5,74.5C 926.5,71.5 926.5,68.5 926.5,65.5 Z"/></g>
<g><path style="opacity:0.263" fill="#265a96" d="M 955.5,74.5 C 968.011,74.1714 980.345,74.5048 992.5,75.5C 980.655,75.1717 968.988,75.5051 957.5,76.5C 956.713,80.8636 954.713,84.6969 951.5,88C 949.846,88.6077 948.179,89.1077 946.5,89.5C 946.5,89.1667 946.5,88.8333 946.5,88.5C 947.391,87.8902 948.391,87.5569 949.5,87.5C 950.5,87.1667 951.167,86.5 951.5,85.5C 952.906,85.0269 953.573,84.0269 953.5,82.5C 954.369,80.283 954.702,77.9496 954.5,75.5C 955.167,75.5 955.5,75.1667 955.5,74.5 Z"/></g>
<g><path style="opacity:1" fill="#37c243" d="M 886.5,76.5 C 894.279,76.0679 901.946,76.5679 909.5,78C 906.437,79.0661 904.937,81.2328 905,84.5C 900.695,87.9526 897.862,92.2859 896.5,97.5C 894.436,97.687 892.436,98.187 890.5,99C 890.833,99.3333 891.167,99.6667 891.5,100C 888.937,100.126 886.604,100.293 884.5,100.5C 883.167,99.8333 882.167,98.8333 881.5,97.5C 882.376,97.6309 883.043,97.2975 883.5,96.5C 879.107,89.0876 880.107,82.4209 886.5,76.5 Z"/></g>
<g><path style="opacity:1" fill="#31b444" d="M 886.5,76.5 C 886.842,75.6618 887.508,75.3284 888.5,75.5C 900.842,75.5729 913.175,75.9062 925.5,76.5C 925.487,79.3613 924.321,80.3613 922,79.5C 920.447,84.2745 918.113,88.6078 915,92.5C 914.316,93.7839 914.483,94.9505 915.5,96C 913.167,97 910.833,98 908.5,99C 910.9,99.1858 913.234,99.6858 915.5,100.5C 911.29,101.178 907.29,102.178 903.5,103.5C 896.799,104.243 890.465,103.243 884.5,100.5C 886.604,100.293 888.937,100.126 891.5,100C 891.167,99.6667 890.833,99.3333 890.5,99C 892.436,98.187 894.436,97.687 896.5,97.5C 897.862,92.2859 900.695,87.9526 905,84.5C 904.937,81.2328 906.437,79.0661 909.5,78C 901.946,76.5679 894.279,76.0679 886.5,76.5 Z"/></g>
<g><path style="opacity:1" fill="#0164d0" d="M 969.5,76.5 C 975.176,76.3339 980.843,76.5006 986.5,77C 984.392,77.3599 982.392,78.0266 980.5,79C 982.259,84.2085 983.093,89.7085 983,95.5C 986.011,97.0004 985.511,97.8337 981.5,98C 981.5,99 981.5,100 981.5,101C 978.964,101.186 976.631,101.686 974.5,102.5C 968.31,102.823 962.31,102.49 956.5,101.5C 959.167,101.5 961.833,101.5 964.5,101.5C 964.649,100.448 964.483,99.448 964,98.5C 963.086,99.6537 962.253,99.487 961.5,98C 963.044,97.7104 964.377,97.0437 965.5,96C 964.527,90.5934 964.193,85.0934 964.5,79.5C 963.022,79.762 961.689,79.4287 960.5,78.5C 963.642,77.8326 966.642,77.166 969.5,76.5 Z"/></g>
<g><path style="opacity:1" fill="#0a56c3" d="M 957.5,76.5 C 961.5,76.5 965.5,76.5 969.5,76.5C 966.642,77.166 963.642,77.8326 960.5,78.5C 961.689,79.4287 963.022,79.762 964.5,79.5C 964.193,85.0934 964.527,90.5934 965.5,96C 964.377,97.0437 963.044,97.7104 961.5,98C 962.253,99.487 963.086,99.6537 964,98.5C 964.483,99.448 964.649,100.448 964.5,101.5C 961.833,101.5 959.167,101.5 956.5,101.5C 954.5,101.5 952.5,101.5 950.5,101.5C 948.315,101.296 946.315,100.63 944.5,99.5C 943.833,98.8333 943.167,98.1667 942.5,97.5C 941.735,94.9039 941.401,92.2372 941.5,89.5C 943.167,89.5 944.833,89.5 946.5,89.5C 948.179,89.1077 949.846,88.6077 951.5,88C 954.713,84.6969 956.713,80.8636 957.5,76.5 Z"/></g>
<g><path style="opacity:1" fill="#056fd6" d="M 957.5,76.5 C 968.988,75.5051 980.655,75.1717 992.5,75.5C 998.835,77.5959 1002.5,82.0959 1003.5,89C 1003.06,94.0546 1000.73,97.8879 996.5,100.5C 989.281,102.094 981.947,102.76 974.5,102.5C 976.631,101.686 978.964,101.186 981.5,101C 981.5,100 981.5,99 981.5,98C 985.511,97.8337 986.011,97.0004 983,95.5C 983.093,89.7085 982.259,84.2085 980.5,79C 982.392,78.0266 984.392,77.3599 986.5,77C 980.843,76.5006 975.176,76.3339 969.5,76.5C 965.5,76.5 961.5,76.5 957.5,76.5 Z"/></g>
<g><path style="opacity:0.353" fill="#56b75b" d="M 886.5,76.5 C 880.107,82.4209 879.107,89.0876 883.5,96.5C 883.043,97.2975 882.376,97.6309 881.5,97.5C 877.692,91.9833 877.525,86.3166 881,80.5C 882.451,78.5359 884.284,77.2026 886.5,76.5 Z"/></g>
<g><path style="opacity:0.98" fill="#818871" d="M 953.5,82.5 C 953.573,84.0269 952.906,85.0269 951.5,85.5C 951.427,83.9731 952.094,82.9731 953.5,82.5 Z"/></g>
<g><path style="opacity:1" fill="#31a746" d="M 888.5,75.5 C 900.989,74.5046 913.656,74.1713 926.5,74.5C 928.607,75.4682 930.941,75.8016 933.5,75.5C 936.022,77.3606 938.522,79.3606 941,81.5C 941.495,83.4727 941.662,85.4727 941.5,87.5C 941.5,87.8333 941.5,88.1667 941.5,88.5C 936.085,87.2995 932.085,88.9661 929.5,93.5C 926.901,95.3857 925.901,98.0524 926.5,101.5C 923.772,101.171 921.438,101.837 919.5,103.5C 914.167,103.5 908.833,103.5 903.5,103.5C 907.29,102.178 911.29,101.178 915.5,100.5C 913.234,99.6858 910.9,99.1858 908.5,99C 910.833,98 913.167,97 915.5,96C 914.483,94.9505 914.316,93.7839 915,92.5C 918.113,88.6078 920.447,84.2745 922,79.5C 924.321,80.3613 925.487,79.3613 925.5,76.5C 913.175,75.9062 900.842,75.5729 888.5,75.5 Z"/></g>
<g><path style="opacity:0.988" fill="#818572" d="M 950.5,85.5 C 950.833,85.5 951.167,85.5 951.5,85.5C 951.167,86.5 950.5,87.1667 949.5,87.5C 949.5,87.1667 949.5,86.8333 949.5,86.5C 949.5,85.8333 949.833,85.5 950.5,85.5 Z"/></g>
<g><path style="opacity:1" fill="#c6b157" d="M 949.5,86.5 C 949.5,86.8333 949.5,87.1667 949.5,87.5C 948.391,87.5569 947.391,87.8902 946.5,88.5C 944.833,88.5 943.167,88.5 941.5,88.5C 941.5,88.1667 941.5,87.8333 941.5,87.5C 944.167,87.1667 946.833,86.8333 949.5,86.5 Z"/></g>
<g><path style="opacity:1" fill="#856240" d="M 941.5,88.5 C 943.167,88.5 944.833,88.5 946.5,88.5C 946.5,88.8333 946.5,89.1667 946.5,89.5C 944.833,89.5 943.167,89.5 941.5,89.5C 941.167,89.5 940.833,89.5 940.5,89.5C 938.473,89.3379 936.473,89.5045 934.5,90C 933.154,91.6692 931.487,92.8358 929.5,93.5C 932.085,88.9661 936.085,87.2995 941.5,88.5 Z"/></g>
<g><path style="opacity:1" fill="#a73157" d="M 940.5,89.5 C 940.833,89.5 941.167,89.5 941.5,89.5C 941.401,92.2372 941.735,94.9039 942.5,97.5C 940.631,95.3647 939.964,92.6981 940.5,89.5 Z"/></g>
<g><path style="opacity:0.761" fill="#549352" d="M 929.5,93.5 C 929.5,94.1667 929.5,94.8333 929.5,95.5C 928.883,95.6107 928.383,95.944 928,96.5C 927.814,99.0356 927.314,101.369 926.5,103.5C 924.167,103.5 921.833,103.5 919.5,103.5C 921.438,101.837 923.772,101.171 926.5,101.5C 925.901,98.0524 926.901,95.3857 929.5,93.5 Z"/></g>
<g><path style="opacity:1" fill="#853568" d="M 944.5,99.5 C 946.315,100.63 948.315,101.296 950.5,101.5C 950.5,101.833 950.5,102.167 950.5,102.5C 947.687,102.975 945.687,101.975 944.5,99.5 Z"/></g>
<g><path style="opacity:0.149" fill="#306fbd" d="M 996.5,100.5 C 995.4,101.558 994.066,102.392 992.5,103C 980.171,103.5 967.838,103.667 955.5,103.5C 954.081,102.549 952.415,102.216 950.5,102.5C 950.5,102.167 950.5,101.833 950.5,101.5C 952.5,101.5 954.5,101.5 956.5,101.5C 962.31,102.49 968.31,102.823 974.5,102.5C 981.947,102.76 989.281,102.094 996.5,100.5 Z"/></g>
<g><path style="opacity:0.999" fill="#e7232c" d="M 940.5,89.5 C 939.964,92.6981 940.631,95.3647 942.5,97.5C 943.167,98.1667 943.833,98.8333 944.5,99.5C 945.687,101.975 947.687,102.975 950.5,102.5C 951.568,103.434 952.901,103.768 954.5,103.5C 954.5,112.833 954.5,122.167 954.5,131.5C 953.168,127.736 952.335,123.736 952,119.5C 951.439,120.022 950.772,120.355 950,120.5C 948.674,119.201 947.34,117.868 946,116.5C 945.83,118.715 945.163,120.715 944,122.5C 943.626,121.584 943.126,120.75 942.5,120C 940.316,119.133 938.149,118.299 936,117.5C 934.674,117.755 933.674,118.422 933,119.5C 932.667,119.167 932.333,118.833 932,118.5C 931.372,121.954 930.205,122.287 928.5,119.5C 927.475,111.5 927.808,103.5 929.5,95.5C 929.5,94.8333 929.5,94.1667 929.5,93.5C 931.487,92.8358 933.154,91.6692 934.5,90C 936.473,89.5045 938.473,89.3379 940.5,89.5 Z"/></g>
<g><path style="opacity:0.298" fill="#cb343f" d="M 950.5,102.5 C 952.415,102.216 954.081,102.549 955.5,103.5C 955.667,115.171 955.5,126.838 955,138.5C 952.869,142.47 949.702,145.137 945.5,146.5C 948.755,143.989 951.588,140.989 954,137.5C 954.495,135.527 954.662,133.527 954.5,131.5C 954.5,122.167 954.5,112.833 954.5,103.5C 952.901,103.768 951.568,103.434 950.5,102.5 Z"/></g>
<g><path style="opacity:1" fill="#f21e2e" d="M 954.5,131.5 C 954.662,133.527 954.495,135.527 954,137.5C 951.588,140.989 948.755,143.989 945.5,146.5C 941.277,146.661 937.277,145.994 933.5,144.5C 932.252,142.351 930.752,140.351 929,138.5C 928.5,132.175 928.334,125.842 928.5,119.5C 930.205,122.287 931.372,121.954 932,118.5C 932.333,118.833 932.667,119.167 933,119.5C 933.674,118.422 934.674,117.755 936,117.5C 938.149,118.299 940.316,119.133 942.5,120C 943.126,120.75 943.626,121.584 944,122.5C 945.163,120.715 945.83,118.715 946,116.5C 947.34,117.868 948.674,119.201 950,120.5C 950.772,120.355 951.439,120.022 952,119.5C 952.335,123.736 953.168,127.736 954.5,131.5 Z"/></g>
<g><path style="opacity:0.751" fill="#cf3941" d="M 929.5,95.5 C 927.808,103.5 927.475,111.5 928.5,119.5C 928.334,125.842 928.5,132.175 929,138.5C 930.752,140.351 932.252,142.351 933.5,144.5C 930.177,142.898 928.011,140.231 927,136.5C 926.5,125.505 926.333,114.505 926.5,103.5C 927.314,101.369 927.814,99.0356 928,96.5C 928.383,95.944 928.883,95.6107 929.5,95.5 Z"/></g>
<g><path style="opacity:0.169" fill="#d03141" d="M 933.5,144.5 C 937.277,145.994 941.277,146.661 945.5,146.5C 943.034,147.634 940.367,147.801 937.5,147C 935.68,146.8 934.347,145.966 933.5,144.5 Z"/></g>
</svg>
